<svg xmlns="http://www.w3.org/2000/svg" width="84" height="84" fill="none"><circle cx="41.633" cy="41.754" r="39.962" fill="#fff" stroke="#A393FE"/><path fill="#000" d="M22.257 48.325v2.64h-9.782v-2.64h3.3v-8.662a18 18 0 0 1 .047-1.344l-1.956 1.627a1.2 1.2 0 0 1-.519.247 1.6 1.6 0 0 1-.471 0 1.3 1.3 0 0 1-.4-.153 1 1 0 0 1-.26-.236l-1.155-1.532 5.35-4.49h3.018v14.543zm16.372-5.952q0 2.251-.484 3.901-.483 1.65-1.343 2.734a5.34 5.34 0 0 1-2.027 1.615 6.05 6.05 0 0 1-2.534.53 6.05 6.05 0 0 1-2.534-.53q-1.155-.53-2.003-1.614t-1.332-2.735q-.471-1.65-.471-3.9 0-2.252.471-3.902.483-1.649 1.332-2.734.848-1.084 2.003-1.602a6.05 6.05 0 0 1 2.534-.53q1.367 0 2.534.53 1.178.518 2.027 1.602.86 1.085 1.343 2.734.484 1.65.484 3.901m-3.772 0q0-1.779-.224-2.91-.224-1.144-.6-1.792-.366-.648-.837-.884a2.03 2.03 0 0 0-.955-.247q-.483 0-.955.247-.459.236-.825.884-.353.649-.577 1.791-.212 1.132-.212 2.911 0 1.792.212 2.923.225 1.132.577 1.791.366.649.825.896.472.236.955.236t.955-.236q.471-.247.836-.895.378-.66.601-1.792.224-1.13.224-2.923m19.33 0q0 2.251-.483 3.901t-1.344 2.734a5.34 5.34 0 0 1-2.027 1.615 6.05 6.05 0 0 1-2.534.53 6.05 6.05 0 0 1-2.533-.53q-1.155-.53-2.004-1.614t-1.332-2.735q-.471-1.65-.471-3.9 0-2.252.471-3.902.483-1.649 1.332-2.734t2.004-1.602a6.05 6.05 0 0 1 2.533-.53q1.367 0 2.534.53 1.18.518 2.027 1.602.861 1.085 1.344 2.734t.483 3.901m-3.771 0q0-1.779-.224-2.91-.225-1.144-.601-1.792-.366-.648-.837-.884a2.03 2.03 0 0 0-.955-.247q-.483 0-.954.247-.46.236-.825.884-.353.649-.578 1.791-.212 1.132-.212 2.911 0 1.792.212 2.923.224 1.132.578 1.791.364.649.825.896.471.236.954.236t.955-.236q.471-.247.837-.895.377-.66.6-1.792.225-1.13.225-2.923m15.157-4.42q0 .944-.341 1.722-.341.777-.908 1.343-.566.554-1.32.86a4 4 0 0 1-1.555.307 4.3 4.3 0 0 1-1.65-.307 3.9 3.9 0 0 1-1.297-.86 4.1 4.1 0 0 1-.848-1.343 4.7 4.7 0 0 1-.307-1.721q0-.978.307-1.768.306-.801.848-1.367.555-.566 1.297-.872a4.2 4.2 0 0 1 1.65-.318q.895 0 1.65.318.765.306 1.308.872.554.566.86 1.367.306.79.306 1.768m-2.804 0q0-.6-.107-.989a1.7 1.7 0 0 0-.27-.636.95.95 0 0 0-.425-.33 1.4 1.4 0 0 0-.518-.095q-.283 0-.519.095a.9.9 0 0 0-.4.33q-.165.235-.26.636-.094.39-.094.99 0 .565.094.943.095.377.26.6.165.225.4.319t.519.094q.282 0 .518-.094a1 1 0 0 0 .424-.318q.178-.225.271-.601.107-.378.107-.943m8.202-3.617q.177-.2.436-.365.26-.177.719-.177h2.663L61.85 50.446q-.177.224-.448.377a1.3 1.3 0 0 1-.636.142h-2.734zm4.478 12.598q0 .943-.341 1.733-.342.777-.908 1.343a4 4 0 0 1-1.32.86 4 4 0 0 1-1.555.307 4.35 4.35 0 0 1-1.65-.306 3.9 3.9 0 0 1-1.297-.86 4.1 4.1 0 0 1-.848-1.344 4.8 4.8 0 0 1-.307-1.733q0-.978.307-1.767.306-.802.848-1.368a3.85 3.85 0 0 1 1.297-.872 4.2 4.2 0 0 1 1.65-.318q.895 0 1.65.318.765.307 1.308.872.554.566.86 1.367.306.79.306 1.768m-2.805 0q0-.59-.106-.978a1.7 1.7 0 0 0-.27-.636.95.95 0 0 0-.425-.33 1.4 1.4 0 0 0-.518-.095q-.283 0-.519.095a.9.9 0 0 0-.4.33 1.9 1.9 0 0 0-.26.636q-.094.39-.094.978 0 .566.094.943.095.378.26.601.165.224.4.318.235.095.519.095.282 0 .518-.095a1 1 0 0 0 .424-.318q.177-.225.271-.6.106-.378.106-.944"/></svg>