<svg xmlns="http://www.w3.org/2000/svg" width="75" height="74" fill="none"><circle cx="37.324" cy="37.033" r="35.398" fill="#8BB0F6" stroke="#fff"/><path fill="#000" d="M23.915 43.418v2.642h-9.792v-2.642h3.304v-8.672a19 19 0 0 1 .047-1.345l-1.959 1.628a1.2 1.2 0 0 1-.519.248 1.6 1.6 0 0 1-.472 0 1.3 1.3 0 0 1-.4-.153 1 1 0 0 1-.26-.236l-1.157-1.534 5.357-4.495h3.02v14.559zm16.39-5.958q0 2.253-.484 3.905-.483 1.652-1.345 2.737a5.34 5.34 0 0 1-2.03 1.616 6.1 6.1 0 0 1-2.536.531 6.1 6.1 0 0 1-2.536-.53q-1.157-.532-2.006-1.617t-1.333-2.737q-.472-1.652-.472-3.905t.472-3.905q.483-1.652 1.333-2.738.85-1.085 2.006-1.604a6.06 6.06 0 0 1 2.536-.53q1.369 0 2.537.53 1.18.518 2.029 1.604.862 1.085 1.345 2.738.484 1.651.484 3.905m-3.776 0q0-1.782-.224-2.914-.225-1.144-.602-1.794-.365-.648-.837-.885a2.04 2.04 0 0 0-.956-.247q-.483 0-.955.247-.46.237-.826.885-.354.649-.578 1.794-.213 1.132-.213 2.914 0 1.792.213 2.926.224 1.132.578 1.793.366.649.826.897.471.236.955.236t.956-.236q.472-.248.837-.897.378-.66.602-1.793.224-1.132.224-2.926m15.174-4.425q0 .945-.342 1.723a4.4 4.4 0 0 1-.908 1.345q-.566.555-1.322.861a4 4 0 0 1-1.557.307 4.4 4.4 0 0 1-1.652-.307 3.9 3.9 0 0 1-1.297-.861 4.1 4.1 0 0 1-.85-1.345 4.7 4.7 0 0 1-.307-1.723q0-.978.307-1.77a4 4 0 0 1 .85-1.368q.555-.565 1.297-.873a4.2 4.2 0 0 1 1.652-.318q.897 0 1.652.318a3.7 3.7 0 0 1 1.31.873q.555.567.86 1.369.307.79.307 1.77m-2.808 0q0-.6-.106-.99a1.7 1.7 0 0 0-.271-.638.95.95 0 0 0-.425-.33 1.4 1.4 0 0 0-.519-.094q-.284 0-.519.094a.9.9 0 0 0-.401.33q-.165.237-.26.637-.094.39-.094.992 0 .566.094.943.095.378.26.602.165.225.401.319.235.094.52.094.282 0 .518-.094a1 1 0 0 0 .425-.319q.177-.224.271-.602.106-.377.106-.944m8.212-3.621q.177-.201.436-.366.26-.177.72-.177h2.666L47.976 45.54q-.177.225-.448.378a1.3 1.3 0 0 1-.637.142h-2.737zm4.483 12.612a4.3 4.3 0 0 1-.342 1.734q-.341.778-.908 1.345-.566.555-1.322.861a4 4 0 0 1-1.557.307 4.4 4.4 0 0 1-1.652-.307 3.9 3.9 0 0 1-1.298-.861 4.1 4.1 0 0 1-.85-1.345 4.8 4.8 0 0 1-.306-1.734q0-.98.307-1.77a4 4 0 0 1 .85-1.369q.554-.566 1.297-.873a4.2 4.2 0 0 1 1.652-.318q.897 0 1.652.318.765.307 1.31.873.554.567.86 1.369.307.79.307 1.77m-2.808 0a3.8 3.8 0 0 0-.106-.98 1.7 1.7 0 0 0-.271-.637.95.95 0 0 0-.425-.33 1.4 1.4 0 0 0-.52-.094q-.282 0-.518.094a.9.9 0 0 0-.401.33q-.165.237-.26.637-.094.39-.094.98 0 .566.094.943.095.378.26.602.165.225.4.319.237.094.52.094t.519-.094a1 1 0 0 0 .425-.319q.177-.225.271-.602.105-.377.106-.943"/></svg>