<svg xmlns="http://www.w3.org/2000/svg" width="74" height="74" fill="none"><circle cx="37.056" cy="37.02" r="35.398" fill="#81E1C4" stroke="#fff"/><path fill="#000" d="M23.646 41.785v2.643h-9.792v-2.643h3.303v-8.672a19 19 0 0 1 .047-1.344l-1.958 1.628a1.2 1.2 0 0 1-.52.247 1.6 1.6 0 0 1-.471 0 1.3 1.3 0 0 1-.402-.153 1 1 0 0 1-.26-.236l-1.155-1.534 5.356-4.495h3.02v14.559zm16.39-5.958q0 2.253-.485 3.905-.483 1.652-1.345 2.737a5.34 5.34 0 0 1-2.029 1.617 6.1 6.1 0 0 1-2.536.53 6.1 6.1 0 0 1-2.537-.53q-1.156-.531-2.006-1.617t-1.333-2.737q-.471-1.652-.472-3.905 0-2.253.472-3.905.484-1.652 1.333-2.737.85-1.086 2.006-1.605a6.06 6.06 0 0 1 2.537-.53q1.369 0 2.536.53 1.18.519 2.03 1.605.861 1.085 1.344 2.737t.484 3.905m-3.776 0q0-1.782-.224-2.914-.225-1.144-.602-1.793-.366-.65-.838-.885a2.04 2.04 0 0 0-.955-.248q-.484 0-.956.248-.46.235-.826.885-.354.648-.578 1.793-.212 1.132-.212 2.914 0 1.793.212 2.926.224 1.133.578 1.793.366.65.826.897.472.236.956.236.483 0 .955-.236.472-.247.838-.897.378-.66.602-1.793.224-1.132.224-2.926m15.174-4.424q0 .943-.342 1.722a4.4 4.4 0 0 1-.909 1.345q-.566.555-1.321.861a4 4 0 0 1-1.558.307 4.4 4.4 0 0 1-1.651-.306 3.9 3.9 0 0 1-1.298-.862 4.1 4.1 0 0 1-.85-1.345 4.7 4.7 0 0 1-.306-1.722q0-.98.307-1.77a4 4 0 0 1 .849-1.368q.555-.567 1.298-.874a4.2 4.2 0 0 1 1.651-.318q.897 0 1.652.318a3.7 3.7 0 0 1 1.31.874q.555.565.861 1.368.307.79.307 1.77m-2.808 0q0-.602-.106-.991a1.7 1.7 0 0 0-.272-.637.95.95 0 0 0-.424-.33 1.4 1.4 0 0 0-.52-.095q-.282 0-.519.094a.9.9 0 0 0-.4.33q-.165.236-.26.638-.095.39-.095.99 0 .567.095.945.095.377.26.601.165.225.4.319t.52.094.519-.094a1 1 0 0 0 .424-.319q.177-.225.272-.601.106-.378.106-.944m8.211-3.622a2 2 0 0 1 .437-.366q.26-.177.72-.177h2.666l-12.954 16.67q-.177.225-.449.378a1.3 1.3 0 0 1-.637.142h-2.737zm4.484 12.612a4.3 4.3 0 0 1-.343 1.734q-.342.78-.908 1.345-.566.555-1.321.861a4 4 0 0 1-1.558.307 4.4 4.4 0 0 1-1.651-.307 3.9 3.9 0 0 1-1.298-.86 4.1 4.1 0 0 1-.85-1.346 4.8 4.8 0 0 1-.306-1.734q0-.98.306-1.77.307-.802.85-1.368.554-.567 1.298-.873a4.2 4.2 0 0 1 1.651-.32q.897 0 1.652.32.767.306 1.31.873.554.566.86 1.368.308.79.308 1.77m-2.808 0q0-.59-.106-.98a1.7 1.7 0 0 0-.272-.636.95.95 0 0 0-.425-.33 1.4 1.4 0 0 0-.519-.095q-.283 0-.519.094a.9.9 0 0 0-.401.33q-.165.236-.26.638a4.3 4.3 0 0 0-.094.979q0 .566.094.944.095.377.26.601.165.225.401.319t.52.094.518-.094a1 1 0 0 0 .425-.319q.177-.225.272-.601.106-.378.106-.944"/></svg>