<svg xmlns="http://www.w3.org/2000/svg" width="75" height="75" fill="none"><circle cx="37.341" cy="37.525" r="35.398" fill="#D1E395" stroke="#fff"/><path fill="#000" d="M23.932 44.83v2.643H14.14V44.83h3.303v-8.672a18 18 0 0 1 .048-1.345l-1.959 1.628a1.2 1.2 0 0 1-.519.248 1.6 1.6 0 0 1-.472 0 1.3 1.3 0 0 1-.401-.153 1 1 0 0 1-.26-.236l-1.156-1.534 5.357-4.495h3.02V44.83zm16.39-5.958q0 2.253-.484 3.905-.483 1.652-1.345 2.737a5.34 5.34 0 0 1-2.03 1.616 6.06 6.06 0 0 1-2.536.531 6.06 6.06 0 0 1-2.536-.53q-1.157-.531-2.006-1.617t-1.333-2.737q-.472-1.652-.472-3.905t.472-3.905q.483-1.652 1.333-2.737t2.006-1.605a6.06 6.06 0 0 1 2.536-.53q1.369 0 2.537.53 1.18.519 2.029 1.605.861 1.085 1.345 2.737.484 1.651.484 3.905m-3.776 0q0-1.782-.224-2.914-.224-1.144-.602-1.794-.365-.648-.837-.884a2.04 2.04 0 0 0-.956-.248q-.483 0-.956.248-.459.236-.825.884-.354.649-.579 1.794-.212 1.132-.212 2.914 0 1.792.212 2.926.225 1.133.579 1.793.365.65.825.897.473.236.956.236.484 0 .956-.236.472-.247.837-.897.378-.66.602-1.793.224-1.132.224-2.926m15.174-4.424q0 .944-.342 1.722-.341.78-.908 1.345-.566.555-1.322.861a4 4 0 0 1-1.557.307 4.35 4.35 0 0 1-1.652-.307 3.9 3.9 0 0 1-1.297-.86 4.1 4.1 0 0 1-.85-1.346 4.7 4.7 0 0 1-.307-1.722q0-.98.307-1.77a4 4 0 0 1 .85-1.369q.555-.565 1.297-.873a4.2 4.2 0 0 1 1.652-.318q.897 0 1.652.318a3.7 3.7 0 0 1 1.31.873q.555.567.86 1.369.307.79.307 1.77m-2.807 0q0-.602-.107-.991a1.7 1.7 0 0 0-.271-.638.95.95 0 0 0-.425-.33 1.4 1.4 0 0 0-.519-.094q-.284 0-.519.094a.9.9 0 0 0-.401.33q-.165.236-.26.638-.094.39-.094.99 0 .567.094.944.095.378.26.602a.9.9 0 0 0 .401.319q.235.094.52.094.282 0 .518-.094a1 1 0 0 0 .425-.319q.177-.224.271-.602.107-.377.107-.943m8.21-3.622q.178-.201.437-.366.26-.177.72-.177h2.666l-12.954 16.67q-.177.225-.448.378a1.3 1.3 0 0 1-.637.142H44.17zm4.484 12.612a4.3 4.3 0 0 1-.342 1.734q-.341.78-.909 1.345-.566.555-1.32.861a4 4 0 0 1-1.558.307 4.4 4.4 0 0 1-1.652-.307 3.9 3.9 0 0 1-1.298-.861 4.1 4.1 0 0 1-.85-1.345 4.8 4.8 0 0 1-.306-1.734q0-.98.307-1.77a4 4 0 0 1 .85-1.368q.554-.568 1.297-.874a4.2 4.2 0 0 1 1.652-.318q.897 0 1.651.318a3.7 3.7 0 0 1 1.31.874q.555.566.861 1.368.307.79.307 1.77m-2.808 0q0-.59-.106-.98a1.7 1.7 0 0 0-.271-.637.95.95 0 0 0-.425-.33 1.4 1.4 0 0 0-.52-.094q-.282 0-.518.094a.9.9 0 0 0-.401.33q-.165.237-.26.638a4.3 4.3 0 0 0-.094.979q0 .566.094.944.095.377.26.601.165.225.4.319.237.094.52.094t.519-.094a1 1 0 0 0 .425-.319q.177-.225.271-.601.105-.378.106-.944"/></svg>