<svg xmlns="http://www.w3.org/2000/svg" width="75" height="75" fill="none"><circle cx="37.511" cy="37.689" r="35.398" fill="#F6C4DB" stroke="#fff"/><path fill="#000" d="M25.307 45.404v2.643h-9.793v-2.643h3.304v-8.671a18 18 0 0 1 .047-1.345l-1.958 1.628a1.2 1.2 0 0 1-.52.248 1.6 1.6 0 0 1-.471 0 1.3 1.3 0 0 1-.402-.154 1 1 0 0 1-.26-.236L14.1 35.34l5.356-4.495h3.02v14.56zm8.414-8.494q.483-.095.932-.13t.873-.036q1.356 0 2.395.413a5 5 0 0 1 1.746 1.133q.708.708 1.062 1.675.365.956.365 2.053 0 1.38-.495 2.525a5.8 5.8 0 0 1-1.357 1.958q-.873.826-2.088 1.286-1.203.45-2.643.449a7 7 0 0 1-1.605-.177 8 8 0 0 1-1.427-.472 8.4 8.4 0 0 1-1.227-.696 8.5 8.5 0 0 1-1.026-.85l1.132-1.51q.177-.235.413-.354.235-.13.507-.13.355 0 .661.2.318.19.684.426.378.225.873.413.496.188 1.227.188t1.251-.236q.519-.247.838-.66.33-.426.472-.98.153-.566.153-1.203 0-1.25-.708-1.9-.708-.66-2.006-.66-1.155 0-2.265.436l-2.265-.613 1.463-8.6h8.801v1.51q0 .377-.118.684a1.4 1.4 0 0 1-.377.542q-.248.225-.66.354a3.6 3.6 0 0 1-.992.118h-4.106zm19.374-1.888q0 .944-.342 1.722-.342.78-.909 1.345-.566.555-1.321.862a4 4 0 0 1-1.558.306 4.35 4.35 0 0 1-1.651-.306 3.9 3.9 0 0 1-1.298-.862 4.1 4.1 0 0 1-.85-1.345 4.7 4.7 0 0 1-.306-1.722q0-.98.306-1.77a4 4 0 0 1 .85-1.368q.555-.567 1.298-.873a4.2 4.2 0 0 1 1.651-.319q.897 0 1.652.319.767.306 1.31.873.555.566.861 1.368.307.79.307 1.77m-2.808 0q0-.602-.106-.991a1.7 1.7 0 0 0-.272-.637.95.95 0 0 0-.424-.33 1.4 1.4 0 0 0-.52-.095q-.282 0-.519.094a.9.9 0 0 0-.4.33q-.165.236-.26.638-.095.39-.095.99 0 .567.095.945.095.377.26.601.165.225.4.319t.52.094.519-.094a1 1 0 0 0 .424-.319q.177-.224.272-.601.106-.378.106-.944m8.211-3.622q.177-.201.437-.366.26-.177.72-.177h2.666l-12.954 16.67a1.5 1.5 0 0 1-.449.378 1.3 1.3 0 0 1-.637.142h-2.737zm4.483 12.612a4.3 4.3 0 0 1-.342 1.734 4.4 4.4 0 0 1-.908 1.345q-.566.555-1.322.861a4 4 0 0 1-1.557.307 4.4 4.4 0 0 1-1.651-.306 3.9 3.9 0 0 1-1.298-.862 4.1 4.1 0 0 1-.85-1.345 4.8 4.8 0 0 1-.306-1.734q0-.98.306-1.77a4 4 0 0 1 .85-1.368q.555-.567 1.297-.873a4.2 4.2 0 0 1 1.652-.319q.897 0 1.652.319a3.7 3.7 0 0 1 1.31.873q.555.566.86 1.368.307.79.307 1.77m-2.807 0q0-.59-.107-.98a1.7 1.7 0 0 0-.271-.636.95.95 0 0 0-.425-.33 1.4 1.4 0 0 0-.519-.095q-.284 0-.519.094a.9.9 0 0 0-.401.33 1.9 1.9 0 0 0-.26.638q-.093.39-.094.979 0 .566.094.944.095.378.26.601.165.225.401.319.235.094.52.094.282 0 .518-.094a1 1 0 0 0 .425-.319q.178-.224.271-.601.107-.378.107-.944"/></svg>