<svg xmlns="http://www.w3.org/2000/svg" width="76" height="75" fill="none"><circle cx="38.511" cy="37.367" r="35.398" fill="#F49790" stroke="#fff"/><path fill="#000" d="M23.356 44.672v2.643h-9.793v-2.643h3.304V36a18 18 0 0 1 .047-1.345l-1.958 1.628a1.2 1.2 0 0 1-.52.248 1.6 1.6 0 0 1-.471 0 1.3 1.3 0 0 1-.402-.153 1 1 0 0 1-.259-.236l-1.156-1.534 5.356-4.495h3.02v14.559zm8.414-8.495q.483-.094.932-.13.449-.035.873-.035 1.357 0 2.395.413a5 5 0 0 1 1.746 1.133q.708.707 1.062 1.675.365.955.365 2.053 0 1.38-.495 2.524a5.8 5.8 0 0 1-1.357 1.959q-.873.826-2.088 1.286-1.203.448-2.643.448a7 7 0 0 1-1.604-.177 8 8 0 0 1-1.428-.472 8.4 8.4 0 0 1-1.227-.696 8.5 8.5 0 0 1-1.026-.85l1.132-1.51a1.2 1.2 0 0 1 .413-.353q.236-.13.508-.13.354 0 .66.2.319.19.684.425.378.225.874.413.495.189 1.227.189.73 0 1.25-.236.519-.247.838-.66.33-.425.472-.98.153-.566.153-1.203 0-1.25-.708-1.9-.708-.66-2.005-.66-1.156 0-2.266.436l-2.265-.614 1.463-8.6h8.801v1.51q0 .378-.118.684a1.4 1.4 0 0 1-.377.543q-.248.224-.66.354a3.6 3.6 0 0 1-.992.118h-4.106zm19.374-1.888q0 .945-.342 1.723a4.4 4.4 0 0 1-.909 1.345q-.566.555-1.321.861a4 4 0 0 1-1.557.307 4.4 4.4 0 0 1-1.652-.307 3.9 3.9 0 0 1-1.298-.861 4.1 4.1 0 0 1-.85-1.345 4.7 4.7 0 0 1-.306-1.723q0-.978.307-1.77a4 4 0 0 1 .85-1.368q.553-.566 1.297-.873a4.2 4.2 0 0 1 1.652-.318q.896 0 1.651.318.767.307 1.31.873.555.567.861 1.369.307.79.307 1.77m-2.808 0q0-.6-.106-.99a1.7 1.7 0 0 0-.272-.638.95.95 0 0 0-.424-.33 1.4 1.4 0 0 0-.52-.094q-.282 0-.519.094a.9.9 0 0 0-.4.33q-.165.237-.26.637-.095.39-.095.991 0 .567.095.944.095.378.26.602.165.225.4.319t.52.094q.282 0 .519-.094a1 1 0 0 0 .424-.319q.177-.224.272-.602.105-.377.106-.944m8.211-3.622a2 2 0 0 1 .437-.365q.26-.177.72-.177h2.666l-12.954 16.67q-.177.225-.449.378a1.3 1.3 0 0 1-.637.142h-2.737zm4.484 12.612a4.3 4.3 0 0 1-.343 1.735q-.341.778-.908 1.345-.566.555-1.321.861a4 4 0 0 1-1.558.307 4.35 4.35 0 0 1-1.651-.307 3.9 3.9 0 0 1-1.298-.861 4.1 4.1 0 0 1-.85-1.345 4.8 4.8 0 0 1-.306-1.735q0-.978.306-1.77.307-.801.85-1.368.554-.566 1.298-.873a4.2 4.2 0 0 1 1.651-.318q.897 0 1.652.318a3.7 3.7 0 0 1 1.31.873q.555.567.86 1.369.308.79.308 1.77m-2.808 0q0-.59-.106-.979a1.7 1.7 0 0 0-.272-.637.95.95 0 0 0-.425-.33 1.4 1.4 0 0 0-.519-.094q-.283-.001-.519.094a.9.9 0 0 0-.401.33q-.165.237-.26.637a4.3 4.3 0 0 0-.094.98q0 .566.094.943.095.378.26.602a.9.9 0 0 0 .401.319q.235.094.52.094.282 0 .518-.094a1 1 0 0 0 .425-.319q.177-.224.272-.602.106-.377.106-.944"/></svg>