<svg xmlns="http://www.w3.org/2000/svg" width="75" height="75" fill="none"><circle cx="37.511" cy="37.682" r="35.398" fill="#D693FF" stroke="#fff"/><path fill="#000" d="M27.226 43.105q.59 0 .932.33.342.319.342.85v2.123H16.42v-1.18q0-.342.142-.731.142-.39.495-.708l4.955-4.99q.637-.637 1.11-1.216.47-.578.778-1.132.306-.567.46-1.121.153-.567.153-1.192 0-1.026-.495-1.569-.484-.554-1.487-.554-.814 0-1.38.436-.555.425-.767 1.062-.247.65-.649.861-.401.213-1.144.095l-1.935-.343q.189-1.285.72-2.241a5.5 5.5 0 0 1 1.333-1.593 5.4 5.4 0 0 1 1.829-.944 7.4 7.4 0 0 1 2.206-.318q1.274 0 2.289.377a5.1 5.1 0 0 1 1.746 1.027q.72.66 1.097 1.58.39.91.39 2.006 0 .945-.272 1.746a6.8 6.8 0 0 1-.72 1.534q-.46.72-1.073 1.404-.602.672-1.287 1.369l-3.362 3.445a10 10 0 0 1 1.286-.307q.637-.105 1.18-.106zM44.5 37.808q0 2.252-.484 3.905-.483 1.65-1.345 2.737a5.34 5.34 0 0 1-2.029 1.616 6.1 6.1 0 0 1-2.537.531 6.06 6.06 0 0 1-2.536-.53q-1.156-.532-2.006-1.617-.849-1.086-1.333-2.737-.471-1.652-.472-3.906 0-2.253.472-3.905.484-1.65 1.333-2.737.85-1.085 2.006-1.604a6.06 6.06 0 0 1 2.536-.531q1.369 0 2.537.53 1.18.52 2.03 1.605.861 1.086 1.344 2.737t.484 3.905m-3.775 0q0-1.782-.224-2.915-.225-1.144-.602-1.793-.366-.649-.838-.885a2.04 2.04 0 0 0-.956-.248q-.483 0-.955.248-.46.235-.826.885-.354.649-.578 1.793-.212 1.133-.212 2.914 0 1.794.212 2.926.224 1.133.578 1.794.367.648.826.896.472.236.956.236.483 0 .955-.236.472-.248.838-.896.378-.66.602-1.794.224-1.132.224-2.925m15.174-4.425q0 .945-.342 1.723-.343.778-.909 1.345-.566.555-1.321.86a4 4 0 0 1-1.557.308 4.4 4.4 0 0 1-1.652-.307 3.9 3.9 0 0 1-1.298-.861 4.1 4.1 0 0 1-.85-1.345 4.7 4.7 0 0 1-.306-1.723q0-.979.306-1.77.307-.801.85-1.368.554-.567 1.298-.873a4.2 4.2 0 0 1 1.651-.319q.897 0 1.652.319.767.306 1.31.873.555.566.861 1.368.307.791.307 1.77m-2.808 0q0-.6-.106-.99a1.7 1.7 0 0 0-.272-.638.95.95 0 0 0-.424-.33 1.4 1.4 0 0 0-.52-.095q-.282 0-.519.095a.9.9 0 0 0-.4.33 1.9 1.9 0 0 0-.26.637q-.095.39-.095.991 0 .567.095.944t.26.602.4.318q.236.095.52.095.282 0 .519-.095a1 1 0 0 0 .424-.318q.177-.224.272-.602.105-.377.106-.944m8.211-3.622q.177-.2.437-.366.26-.176.72-.177h2.666L52.17 45.89q-.177.224-.449.378a1.3 1.3 0 0 1-.637.141h-2.737zm4.483 12.612a4.3 4.3 0 0 1-.342 1.735 4.4 4.4 0 0 1-.908 1.345q-.567.554-1.321.86a4 4 0 0 1-1.558.308 4.4 4.4 0 0 1-1.651-.307 3.9 3.9 0 0 1-1.298-.861 4.1 4.1 0 0 1-.85-1.345 4.8 4.8 0 0 1-.306-1.735q0-.978.306-1.77a4 4 0 0 1 .85-1.368q.555-.566 1.297-.873a4.2 4.2 0 0 1 1.652-.319q.897 0 1.652.319.767.306 1.31.873.555.566.86 1.369.308.79.308 1.77m-2.807 0q0-.59-.107-.979a1.7 1.7 0 0 0-.271-.637.95.95 0 0 0-.425-.33 1.4 1.4 0 0 0-.519-.095q-.284 0-.519.095a.9.9 0 0 0-.401.33q-.165.236-.26.637-.093.39-.094.98 0 .565.094.943.095.378.26.602t.401.318q.235.095.52.095.282 0 .518-.095a1 1 0 0 0 .425-.318q.178-.225.271-.602.107-.378.107-.944"/></svg>