<svg xmlns="http://www.w3.org/2000/svg" width="75" height="74" fill="none"><circle cx="37.511" cy="37.025" r="35.398" fill="#FAE4A4" stroke="#fff"/><path fill="#000" d="M22.453 43.445q.59 0 .932.33.342.318.342.85v2.123h-12.08v-1.18q0-.342.14-.731.142-.39.496-.708l4.956-4.99q.636-.637 1.109-1.216.472-.578.778-1.133.307-.565.46-1.12.154-.567.154-1.192 0-1.026-.496-1.569-.483-.554-1.486-.554-.815 0-1.38.436-.555.425-.768 1.062-.248.649-.648.861-.402.213-1.145.095l-1.935-.343q.189-1.285.72-2.241a5.5 5.5 0 0 1 1.333-1.593 5.4 5.4 0 0 1 1.829-.944 7.4 7.4 0 0 1 2.206-.318q1.275 0 2.289.377a5.1 5.1 0 0 1 1.746 1.026q.72.661 1.097 1.582.39.908.39 2.005 0 .944-.272 1.746a6.8 6.8 0 0 1-.72 1.534q-.46.72-1.073 1.404-.602.672-1.286 1.369l-3.362 3.445a10 10 0 0 1 1.285-.307 7 7 0 0 1 1.18-.106zm17.274-5.298q0 2.254-.483 3.905-.484 1.652-1.345 2.738a5.34 5.34 0 0 1-2.03 1.616 6.1 6.1 0 0 1-2.536.53 6.1 6.1 0 0 1-2.537-.53q-1.155-.531-2.005-1.616-.85-1.086-1.334-2.738-.471-1.65-.471-3.905 0-2.253.471-3.905.484-1.651 1.334-2.737.85-1.085 2.005-1.604a6.06 6.06 0 0 1 2.537-.531q1.368 0 2.537.53 1.179.52 2.029 1.605.86 1.086 1.345 2.737.483 1.652.483 3.905m-3.775 0q0-1.781-.224-2.914-.224-1.144-.602-1.793-.366-.65-.837-.885a2.04 2.04 0 0 0-.956-.248q-.484 0-.956.248-.46.235-.826.885-.353.649-.578 1.793-.212 1.133-.212 2.914 0 1.794.212 2.926.225 1.133.578 1.794.367.648.826.896.472.236.956.236.483 0 .956-.236.471-.248.837-.896.378-.662.602-1.794t.224-2.926m15.174-4.424q0 .944-.342 1.723a4.4 4.4 0 0 1-.908 1.345q-.566.554-1.322.86a4 4 0 0 1-1.557.307 4.4 4.4 0 0 1-1.652-.306 3.9 3.9 0 0 1-1.298-.861 4.1 4.1 0 0 1-.85-1.345 4.7 4.7 0 0 1-.306-1.723q0-.98.307-1.77a4 4 0 0 1 .85-1.368q.554-.567 1.297-.873a4.2 4.2 0 0 1 1.652-.319q.897 0 1.652.319a3.7 3.7 0 0 1 1.31.873q.554.566.86 1.368.307.79.307 1.77m-2.808 0q0-.601-.106-.991a1.7 1.7 0 0 0-.271-.637.95.95 0 0 0-.425-.33 1.4 1.4 0 0 0-.52-.095q-.282 0-.518.095a.9.9 0 0 0-.401.33q-.165.236-.26.637-.094.39-.094.991 0 .567.094.944.095.377.26.602t.4.318.52.094.519-.094a1 1 0 0 0 .425-.318q.177-.224.271-.602.105-.377.106-.944m8.212-3.622q.177-.201.436-.366.26-.177.72-.177h2.666l-12.954 16.67q-.177.225-.448.378a1.3 1.3 0 0 1-.637.142h-2.738zm4.483 12.612a4.3 4.3 0 0 1-.342 1.734q-.342.78-.909 1.345-.566.555-1.321.862a4 4 0 0 1-1.557.306 4.35 4.35 0 0 1-1.652-.306 3.9 3.9 0 0 1-1.298-.862 4.1 4.1 0 0 1-.85-1.345 4.8 4.8 0 0 1-.306-1.734q0-.98.307-1.77.306-.801.85-1.368.553-.567 1.297-.873a4.2 4.2 0 0 1 1.652-.319q.896 0 1.651.319.767.306 1.31.873.555.566.861 1.368.307.79.307 1.77m-2.808 0q0-.59-.106-.98a1.7 1.7 0 0 0-.272-.636.95.95 0 0 0-.424-.33 1.4 1.4 0 0 0-.52-.095q-.282 0-.519.095a.9.9 0 0 0-.4.33q-.165.236-.26.637a4.3 4.3 0 0 0-.095.98q0 .565.095.943t.26.602q.165.224.4.318.236.095.52.095.282 0 .519-.095a1 1 0 0 0 .424-.318q.177-.225.272-.602.105-.378.106-.944"/></svg>