<svg xmlns="http://www.w3.org/2000/svg" width="171" height="73" fill="none"><g filter="url(#a)"><path fill="#fff" stroke="#81E1C4" d="M1.792 1.792h161.672v63.416H1.792z"/><path fill="#000" d="M34.182 20.066h-2.998v8.313h-1.556v-8.314h-3.005v-1.302h7.559zm9.994 3.505q0 1.068-.347 1.97a4.6 4.6 0 0 1-.981 1.556q-.628.648-1.516 1.015-.882.367-1.963.367a5.1 5.1 0 0 1-1.963-.367 4.5 4.5 0 0 1-1.516-1.015 4.6 4.6 0 0 1-.982-1.556 5.4 5.4 0 0 1-.347-1.97q0-1.068.347-1.97.348-.901.982-1.556a4.5 4.5 0 0 1 1.516-1.021 5.1 5.1 0 0 1 1.963-.367q1.08 0 1.963.367a4.4 4.4 0 0 1 1.516 1.021q.634.655.981 1.556.348.902.347 1.97m-1.596 0q0-.828-.227-1.489a3.1 3.1 0 0 0-.64-1.122 2.76 2.76 0 0 0-1.009-.708 3.5 3.5 0 0 0-1.335-.247q-.735 0-1.33.247-.593.247-1.014.708a3.2 3.2 0 0 0-.648 1.122q-.227.66-.227 1.49 0 .834.227 1.495.227.66.648 1.122.42.454 1.015.7.594.241 1.329.241.741 0 1.335-.24a2.8 2.8 0 0 0 1.008-.701q.421-.461.641-1.122.227-.661.227-1.496m9.548-3.506h-2.999v8.314h-1.555v-8.314h-3.005v-1.302h7.558zm5.487 4.708-1.322-3.512a10 10 0 0 1-.327-1.035q-.075.314-.16.58a17 17 0 0 1-.16.461l-1.323 3.506zm2.958 3.606h-1.209a.52.52 0 0 1-.333-.1.7.7 0 0 1-.194-.26l-.801-2.124h-4.14l-.802 2.123a.64.64 0 0 1-.187.247.5.5 0 0 1-.334.114h-1.208l3.813-9.616h1.582zm6.678-1.309v1.309h-5.556v-9.616h1.563v8.307zm9.293-6.664q-.074.12-.154.18a.35.35 0 0 1-.2.054.54.54 0 0 1-.287-.107 4 4 0 0 0-.388-.234 3 3 0 0 0-.54-.24 2.2 2.2 0 0 0-.748-.114q-.4 0-.708.1-.3.1-.508.28-.207.182-.313.428-.1.24-.1.528 0 .368.193.614.194.24.508.414.32.174.727.307.408.127.828.274.428.148.835.334.408.188.721.474.32.287.514.701.195.414.194 1.008 0 .642-.22 1.202t-.641.982a3 3 0 0 1-1.029.654q-.607.24-1.389.24-.46 0-.901-.093a5 5 0 0 1-.835-.247 4.4 4.4 0 0 1-.74-.4 3.7 3.7 0 0 1-.622-.521l.454-.748a.44.44 0 0 1 .154-.147.4.4 0 0 1 .207-.053q.154 0 .34.146.187.14.448.314.267.167.64.314.375.14.895.14.849 0 1.31-.414.466-.413.467-1.142 0-.407-.194-.66-.193-.261-.514-.435a3.6 3.6 0 0 0-.721-.293q-.408-.12-.828-.254-.42-.14-.828-.32a2.8 2.8 0 0 1-.728-.482 2.3 2.3 0 0 1-.508-.734q-.193-.441-.193-1.095 0-.52.2-1.008.207-.488.594-.862.395-.38.969-.607t1.308-.227q.829 0 1.516.26.695.26 1.195.741zm6.055 6.71q.555 0 .988-.186.441-.187.741-.52.307-.335.468-.802a3.3 3.3 0 0 0 .16-1.049v-5.796h1.556v5.796q0 .849-.274 1.57a3.6 3.6 0 0 1-.775 1.248q-.507.521-1.235.822-.72.293-1.63.293-.908 0-1.635-.293-.72-.3-1.229-.822a3.6 3.6 0 0 1-.781-1.248 4.5 4.5 0 0 1-.267-1.57v-5.796h1.562v5.79q0 .574.16 1.048.162.468.461.808.3.334.735.52.44.189.995.188m9.071-3.451q.522 0 .915-.134.401-.134.661-.374.267-.247.4-.594.135-.348.134-.775 0-.42-.133-.754a1.44 1.44 0 0 0-.387-.568 1.7 1.7 0 0 0-.662-.354 3 3 0 0 0-.928-.127h-1.429v3.68zm0-4.902q.942 0 1.63.22.694.222 1.142.622.453.393.674.955.22.555.22 1.228 0 .689-.233 1.262a2.7 2.7 0 0 1-.695.982q-.46.407-1.148.64-.682.228-1.59.228h-1.429v3.479H88.68v-9.616zm8.151 4.902q.522 0 .915-.134.401-.134.661-.374.267-.247.401-.594.134-.348.134-.775 0-.42-.134-.754a1.45 1.45 0 0 0-.387-.568 1.7 1.7 0 0 0-.661-.354 3 3 0 0 0-.928-.127h-1.43v3.68zm0-4.902q.942 0 1.63.22.694.222 1.142.622.453.393.674.955.22.555.22 1.228 0 .689-.233 1.262a2.7 2.7 0 0 1-.695.982q-.46.407-1.148.64-.681.228-1.59.228h-1.428v3.479H96.83v-9.616zm10.716 8.307v1.309h-5.556v-9.616h1.563v8.307zm3.965-2.457v3.766h-1.556v-3.766l-3.513-5.85h1.369q.207 0 .327.1a.8.8 0 0 1 .201.254l1.97 3.446q.133.26.24.494.113.235.2.46.073-.233.181-.46.106-.233.24-.494l1.957-3.446a.8.8 0 0 1 .193-.24.47.47 0 0 1 .327-.114h1.376zm16.442-1.042q0 1.068-.347 1.97a4.6 4.6 0 0 1-.982 1.556q-.627.648-1.515 1.015-.882.367-1.964.367a5.1 5.1 0 0 1-1.963-.367 4.5 4.5 0 0 1-1.516-1.015 4.6 4.6 0 0 1-.981-1.556 5.4 5.4 0 0 1-.347-1.97q0-1.068.347-1.97t.981-1.556a4.5 4.5 0 0 1 1.516-1.021 5.1 5.1 0 0 1 1.963-.367q1.082 0 1.964.367a4.4 4.4 0 0 1 1.515 1.021q.634.655.982 1.556.347.902.347 1.97m-1.596 0a4.6 4.6 0 0 0-.227-1.489 3.1 3.1 0 0 0-.641-1.122 2.76 2.76 0 0 0-1.008-.708 3.45 3.45 0 0 0-1.336-.247q-.734 0-1.328.247t-1.015.708a3.15 3.15 0 0 0-.648 1.122q-.227.66-.227 1.49a4.6 4.6 0 0 0 .227 1.495q.227.66.648 1.122.42.454 1.015.7.594.241 1.328.241.742 0 1.336-.24a2.8 2.8 0 0 0 1.008-.701 3.1 3.1 0 0 0 .641-1.122q.227-.661.227-1.496m4.877-3.546v3.079h3.76v1.262h-3.76v4.013h-1.569v-9.616h5.996v1.262zm-97.52 25.829v2.525H27.35v-2.525h3.157v-8.286a18 18 0 0 1 .045-1.285L28.68 37.84q-.248.192-.497.236a1.5 1.5 0 0 1-.45 0 1.2 1.2 0 0 1-.384-.146.9.9 0 0 1-.248-.226l-1.104-1.465 5.117-4.295H34v13.91zm13.857-5.693q0 2.154-.462 3.731-.462 1.578-1.285 2.616a5.1 5.1 0 0 1-1.94 1.544 5.8 5.8 0 0 1-2.423.507q-1.308 0-2.424-.507-1.104-.507-1.916-1.544-.812-1.038-1.274-2.616-.45-1.578-.45-3.731 0-2.154.45-3.731.462-1.579 1.274-2.616t1.916-1.533a5.8 5.8 0 0 1 2.424-.507q1.308 0 2.424.507 1.127.496 1.939 1.533.823 1.037 1.285 2.616.462 1.577.462 3.731m-3.607 0q0-1.702-.215-2.785-.213-1.093-.575-1.713-.35-.62-.8-.845a1.95 1.95 0 0 0-.913-.237q-.462 0-.913.237-.44.225-.79.845-.337.62-.552 1.714-.203 1.082-.203 2.784 0 1.713.203 2.796.214 1.081.553 1.713.35.62.789.857.45.225.913.225t.913-.225q.45-.237.8-.857.362-.63.575-1.713.215-1.083.215-2.796m5.266 11.002a.62.62 0 0 1-.248-.496.5.5 0 0 1 .079-.248 1 1 0 0 1 .191-.225q.135-.135.316-.338.18-.191.36-.429.181-.236.328-.518.158-.282.236-.598a1.9 1.9 0 0 1-.698-.191q-.316-.158-.542-.406a1.93 1.93 0 0 1-.473-1.32 1.62 1.62 0 0 1 .518-1.205q.26-.237.598-.372.35-.136.778-.136.507 0 .879.18.372.17.62.474.248.294.36.688.125.383.125.811 0 .564-.18 1.207-.18.63-.542 1.274-.35.642-.879 1.262-.53.62-1.217 1.127zm16.836-11.002q0 2.154-.463 3.731-.462 1.578-1.285 2.616a5.1 5.1 0 0 1-1.939 1.544 5.8 5.8 0 0 1-2.423.507q-1.308 0-2.424-.507-1.105-.507-1.916-1.544-.812-1.038-1.274-2.616-.45-1.578-.451-3.731 0-2.154.45-3.731.463-1.579 1.275-2.616t1.916-1.533a5.8 5.8 0 0 1 2.424-.507q1.307 0 2.423.507 1.127.496 1.94 1.533.822 1.037 1.284 2.616.463 1.577.463 3.731m-3.608 0q0-1.702-.214-2.785-.214-1.093-.575-1.713-.35-.62-.8-.845a1.95 1.95 0 0 0-.913-.237q-.463 0-.914.237-.44.225-.789.845-.338.62-.552 1.714-.203 1.082-.203 2.784 0 1.713.203 2.796.214 1.081.552 1.713.35.62.79.857.45.225.913.225.462 0 .913-.225.45-.237.8-.857.36-.63.575-1.713t.214-2.796m16.686 0q0 2.154-.462 3.731-.462 1.578-1.285 2.616a5.1 5.1 0 0 1-1.94 1.544 5.8 5.8 0 0 1-2.423.507q-1.308 0-2.424-.507-1.104-.507-1.916-1.544-.812-1.038-1.274-2.616-.45-1.578-.45-3.731 0-2.154.45-3.731.462-1.579 1.274-2.616t1.916-1.533a5.8 5.8 0 0 1 2.424-.507q1.308 0 2.424.507 1.127.496 1.939 1.533.823 1.037 1.285 2.616.462 1.577.462 3.731m-3.607 0q0-1.702-.215-2.785-.213-1.093-.575-1.713-.35-.62-.8-.845a1.95 1.95 0 0 0-.913-.237q-.463 0-.913.237-.44.225-.79.845-.338.62-.552 1.714-.203 1.082-.203 2.784 0 1.713.203 2.796.214 1.081.553 1.713.35.62.789.857.45.225.913.225.462 0 .913-.225.45-.237.8-.857.362-.63.575-1.713.215-1.083.215-2.796m16.685 0q0 2.154-.462 3.731-.462 1.578-1.285 2.616a5.1 5.1 0 0 1-1.939 1.544 5.8 5.8 0 0 1-2.424.507q-1.307 0-2.423-.507-1.106-.507-1.917-1.544-.811-1.038-1.274-2.616-.45-1.578-.45-3.731 0-2.154.45-3.731.462-1.579 1.274-2.616.811-1.037 1.917-1.533a5.8 5.8 0 0 1 2.423-.507q1.308 0 2.424.507 1.127.496 1.939 1.533.823 1.037 1.285 2.616.462 1.577.462 3.731m-3.607 0q0-1.702-.214-2.785-.215-1.093-.575-1.713-.35-.62-.8-.845a1.95 1.95 0 0 0-.914-.237q-.462 0-.913.237-.44.225-.789.845-.338.62-.552 1.714-.203 1.082-.203 2.784 0 1.713.203 2.796.214 1.081.552 1.713.35.62.79.857.45.225.912.225.463 0 .913-.225.452-.237.8-.857.362-.63.576-1.713t.214-2.796m5.266 11.002a.62.62 0 0 1-.248-.496.5.5 0 0 1 .079-.248 1 1 0 0 1 .192-.225q.135-.135.315-.338.18-.191.361-.429.18-.236.327-.518.157-.282.237-.598a1.9 1.9 0 0 1-.7-.191q-.315-.158-.54-.406a1.93 1.93 0 0 1-.474-1.32 1.62 1.62 0 0 1 .519-1.205q.26-.237.597-.372.35-.136.778-.136.507 0 .88.18.37.17.62.474.248.294.36.688.124.383.124.811 0 .564-.18 1.207-.18.63-.541 1.274-.35.642-.88 1.262t-1.217 1.127zm16.836-11.002q0 2.154-.462 3.731-.463 1.578-1.285 2.616a5.1 5.1 0 0 1-1.939 1.544 5.8 5.8 0 0 1-2.424.507q-1.308 0-2.424-.507-1.104-.507-1.916-1.544-.812-1.038-1.274-2.616-.451-1.578-.451-3.731 0-2.154.451-3.731.462-1.579 1.274-2.616t1.916-1.533a5.8 5.8 0 0 1 2.424-.507q1.308 0 2.424.507 1.126.496 1.939 1.533.823 1.037 1.285 2.616.462 1.577.462 3.731m-3.607 0q0-1.702-.215-2.785-.213-1.093-.575-1.713-.349-.62-.8-.845a1.95 1.95 0 0 0-.913-.237q-.463 0-.913.237-.44.225-.789.845-.339.62-.553 1.714-.203 1.082-.203 2.784 0 1.713.203 2.796.214 1.081.553 1.713.35.62.789.857.45.225.913.225.462 0 .913-.225.451-.237.8-.857.362-.63.575-1.713.215-1.083.215-2.796m16.685 0q0 2.154-.462 3.731-.462 1.578-1.285 2.616a5.1 5.1 0 0 1-1.939 1.544 5.8 5.8 0 0 1-2.424.507q-1.307 0-2.423-.507-1.106-.507-1.917-1.544-.811-1.038-1.274-2.616-.45-1.578-.451-3.731 0-2.154.451-3.731.463-1.579 1.274-2.616t1.917-1.533a5.8 5.8 0 0 1 2.423-.507q1.308 0 2.424.507 1.127.496 1.939 1.533.823 1.037 1.285 2.616.462 1.577.462 3.731m-3.607 0q0-1.702-.214-2.785-.215-1.093-.575-1.713-.35-.62-.801-.845a1.94 1.94 0 0 0-.913-.237q-.462 0-.913.237-.44.225-.789.845-.338.62-.552 1.714-.203 1.082-.203 2.784 0 1.713.203 2.796.214 1.081.552 1.713.35.62.789.857.451.225.913.225.463 0 .913-.225.452-.237.801-.857.36-.63.575-1.713t.214-2.796m16.686 0q0 2.154-.463 3.731-.462 1.578-1.285 2.616a5.1 5.1 0 0 1-1.939 1.544 5.8 5.8 0 0 1-2.423.507q-1.308 0-2.424-.507-1.105-.507-1.916-1.544-.812-1.038-1.274-2.616-.451-1.578-.451-3.731 0-2.154.451-3.731.462-1.579 1.274-2.616.811-1.037 1.916-1.533a5.8 5.8 0 0 1 2.424-.507q1.307 0 2.423.507 1.128.496 1.939 1.533.823 1.037 1.285 2.616.462 1.577.463 3.731m-3.608 0q0-1.702-.214-2.785-.214-1.093-.575-1.713-.35-.62-.8-.845a1.95 1.95 0 0 0-.913-.237q-.462 0-.913.237-.44.225-.79.845-.338.62-.552 1.714-.203 1.082-.203 2.784 0 1.713.203 2.796.214 1.081.552 1.713.35.62.79.857.45.225.913.225.462 0 .913-.225.45-.237.8-.857.361-.63.575-1.713t.214-2.796"/><path fill="#000" d="M34.182 20.066v.184h.185v-.184zm-2.998 0v-.186h-.185v.186zm0 8.313v.185h.185v-.185zm-1.556 0h-.185v.185h.185zm0-8.314h.185v-.185h-.185zm-3.005 0h-.185v.185h.185zm0-1.302v-.185h-.185v.185zm7.559 0h.185v-.185h-.185zm0 1.117h-2.998v.37h2.998zm-3.183.186v8.313h.37v-8.314zm.185 8.128h-1.556v.37h1.556zm-1.371.185v-8.314h-.37v8.314zm-.185-8.499h-3.005v.37h3.005zm-2.82.186v-1.303h-.37v1.302zm-.185-1.118h7.559v-.37h-7.559zm7.374-.185v1.302h.37v-1.302zm9.832 6.778.173.067zm-.981 1.556-.133-.129zm-1.516 1.015-.07-.171h-.001zm-3.926 0-.072.17zm-1.516-1.015-.133.129zm-.982-5.496-.172-.066zm.982-1.556.133.13zm1.516-1.021-.071-.171zm3.926 0-.071.17zm1.516 1.021-.134.128v.001zm.981 1.556.173-.066zm-1.476.481-.175.059v.001zm-.64-1.122-.138.124v.001zm-1.009-.708-.07.171zm-2.664 0 .07.171zm-1.015.708-.137-.125zm-.648 1.122-.175-.06zm0 2.985-.175.06zm.648 1.122-.137.125h.001zm1.015.7-.071.172h.002zm2.664 0 .07.172h.001zm1.008-.7-.136-.125zm.641-1.122-.175-.06v.001zm1.638-1.496a5.3 5.3 0 0 1-.334 1.903l.345.134a5.6 5.6 0 0 0 .36-2.037zm-.334 1.903a4.4 4.4 0 0 1-.942 1.494l.265.258a4.75 4.75 0 0 0 1.022-1.618zm-.942 1.494q-.6.62-1.454.973l.142.342a4.6 4.6 0 0 0 1.578-1.057zm-1.454.973q-.843.352-1.892.353v.37q1.114 0 2.034-.381zm-1.892.353a4.9 4.9 0 0 1-1.893-.353l-.141.342a5.3 5.3 0 0 0 2.034.381zm-1.892-.353a4.35 4.35 0 0 1-1.455-.974l-.264.26q.661.675 1.576 1.056zm-1.454-.973a4.4 4.4 0 0 1-.942-1.494l-.346.134q.36.934 1.022 1.618zm-.942-1.494a5.3 5.3 0 0 1-.335-1.903h-.37q0 1.1.36 2.037zm-.335-1.903q0-1.038.335-1.903l-.346-.133a5.6 5.6 0 0 0-.36 2.036zm.335-1.903q.334-.868.942-1.494l-.266-.257a4.7 4.7 0 0 0-1.021 1.618zm.942-1.494a4.3 4.3 0 0 1 1.454-.98l-.143-.341a4.7 4.7 0 0 0-1.577 1.064zm1.453-.98a4.9 4.9 0 0 1 1.893-.352v-.37q-1.108 0-2.034.38zm1.893-.352q1.05 0 1.892.353l.142-.342q-.92-.382-2.034-.382zm1.892.353q.854.353 1.453.979l.267-.257a4.6 4.6 0 0 0-1.578-1.064zm1.454.98q.606.625.941 1.493l.346-.133a4.75 4.75 0 0 0-1.022-1.618zm.941 1.493a5.3 5.3 0 0 1 .335 1.903h.37a5.6 5.6 0 0 0-.36-2.036zm-.89 1.903q0-.854-.237-1.549l-.35.12q.215.627.216 1.43zm-.237-1.547a3.3 3.3 0 0 0-.68-1.189l-.273.25a2.9 2.9 0 0 1 .602 1.056zm-.679-1.187a2.94 2.94 0 0 0-1.075-.755l-.142.341q.557.233.942.66zm-1.075-.755a3.6 3.6 0 0 0-1.406-.262v.37q.71.002 1.264.233zm-1.406-.262q-.767-.001-1.4.262l.142.341q.555-.232 1.258-.233zm-1.4.262q-.632.262-1.08.753l.272.25a2.64 2.64 0 0 1 .95-.662zm-1.08.753q-.45.493-.687 1.187l.35.12q.216-.628.61-1.057zm-.687 1.187q-.238.695-.237 1.55h.37q.001-.803.217-1.43zm-.237 1.55q0 .86.237 1.555l.35-.12a4.4 4.4 0 0 1-.217-1.436zm.237 1.555q.238.693.686 1.187l.273-.25a3 3 0 0 1-.609-1.057zm.687 1.188q.45.483 1.08.746l.142-.342a2.7 2.7 0 0 1-.95-.656zm1.081.746q.633.255 1.399.254v-.37q-.704-.001-1.26-.227zm1.399.254q.772.001 1.404-.254l-.138-.343q-.556.226-1.266.227zm1.406-.254q.632-.262 1.074-.748l-.273-.249q-.385.423-.943.655zm1.074-.747q.45-.494.68-1.189l-.351-.117a2.9 2.9 0 0 1-.602 1.056zm.68-1.187q.238-.696.237-1.556h-.37q-.001.81-.218 1.436zm9.598-5.061v.184h.186v-.184zm-2.998 0v-.186h-.185v.186zm0 8.313v.185h.185v-.185zm-1.555 0h-.186v.185h.186zm0-8.314h.184v-.185h-.184zm-3.005 0h-.185v.185h.185zm0-1.302v-.185h-.185v.185zm7.558 0h.186v-.185h-.186zm0 1.117H49.13v.37h2.999zm-3.183.186v8.313h.37v-8.314zm.185 8.128h-1.555v.37h1.555zm-1.37.185v-8.314h-.37v8.314zm-.185-8.499h-3.005v.37h3.005zm-2.82.186v-1.303h-.37v1.302zm-.185-1.118h7.558v-.37H44.57zm7.374-.185v1.302h.37v-1.302zm5.672 6.01v.185h.267l-.094-.25zm-1.322-3.512.173-.066-.001-.002zm-.327-1.035.178-.048-.359.006zm-.16.58.175.06v-.002zm-.16.461.172.066v-.002zm-1.323 3.506-.173-.065-.095.25h.268zm6.25 3.606v.185h.273l-.101-.253zm-1.542-.1-.12.141.005.004zm-.194-.26-.174.065.004.008zm-.801-2.124.173-.065-.046-.12h-.127zm-4.14 0v-.185h-.128l-.046.12zm-.802 2.123.172.07.001-.004zm-.187.247.12.141zm-1.542.114-.172-.068-.1.253h.272zm3.813-9.616v-.185h-.126l-.046.117zm1.582 0 .172-.068-.046-.117h-.126zm1.028 5.945-1.322-3.512-.346.13 1.322 3.512zm-1.323-3.515a10 10 0 0 1-.32-1.015l-.358.095q.168.635.334 1.055zm-.68-1.01q-.071.308-.156.567l.352.114a7 7 0 0 0 .165-.596zm-.155.565q-.086.258-.159.456l.348.127q.075-.203.162-.466zm-.158.454-1.322 3.506.346.13 1.322-3.505zm-1.15 3.756h3.293v-.37h-3.292zm6.251 3.236h-1.209v.37h1.209zm-1.209 0c-.108 0-.175-.026-.219-.06l-.23.29c.126.099.282.14.45.14zm-.214-.057a.5.5 0 0 1-.143-.192l-.34.147a.9.9 0 0 0 .244.328zm-.14-.184-.801-2.123-.347.13.802 2.124zm-.974-2.243h-4.14v.37h4.14zm-4.314.12-.8 2.123.345.13.802-2.123zm-.8 2.12a.46.46 0 0 1-.134.174l.24.282a.8.8 0 0 0 .238-.319zm-.134.174a.31.31 0 0 1-.215.07v.37c.171 0 .327-.05.454-.158zm-.215.07h-1.208v.37h1.208zm-1.036.253 3.813-9.615-.344-.137-3.813 9.616zm3.64-9.499h1.583v-.37h-1.582zm1.411-.116 3.813 9.615.344-.136-3.813-9.616zm10.663 8.238h.185v-.185h-.185zm0 1.309v.185h.185v-.185zm-5.556 0h-.185v.185h.185zm0-9.616v-.185h-.185v.185zm1.563 0h.185v-.185h-.185zm0 8.307h-.185v.185h.185zm3.808 0v1.309h.37V27.07zm.185 1.124h-5.556v.37h5.556zm-5.37.185v-9.616h-.37v9.616zm-.186-9.43h1.563v-.37h-1.563zm1.378-.186v8.307h.37v-8.307zm.185 8.492h3.993v-.37h-3.993zm13.286-6.849.158.097.004-.007.003-.006zm-.154.18.103.155.008-.007zm-.487-.053-.106.152.003.002zm-.388-.234-.093.16.005.003zm-.54-.24-.063.174.003.001zm-1.456-.014-.057-.176h-.002zm-.508.28-.121-.139zm-.313.428-.17-.073-.001.002zm.093 1.142-.146.114.002.002zm.508.414-.09.162h.001zm.727.307-.057.176h.002zm.828.274-.06.175zm.835.334.077-.168zm.721.474-.125.136.002.002zm.514.701.168-.078zm-.026 2.21.172.068zm-.641.982-.131-.13zm-1.029.654-.067-.172zm-2.29.147.038-.18-.002-.001zm-.835-.247-.072.17.004.002zm-1.362-.921-.158-.096-.074.12.098.103zm.454-.748-.155-.1-.003.004zm.154-.147.092.16zm.547.093-.114.146.003.002zm.448.314-.103.154.005.003zm.64.314-.067.172.003.001zm2.204-.274-.122-.138h-.001zm.274-1.803-.148.11.001.003zm-.514-.434-.09.162.002.001zm-.721-.293-.053.177zm-.828-.254-.059.175.003.001zm-.828-.32-.078.168h.003zm-.728-.482-.128.134.003.003zm-.508-.734-.169.074v.001zm.007-2.103-.17-.073-.001.002zm.594-.862.129.133zm.969-.607-.068-.172zm2.824.033-.065.173zm1.195.741.165.084.063-.122-.1-.095zm-.538.651a.5.5 0 0 1-.107.13l.222.295a.8.8 0 0 0 .2-.232zm-.098.123a.17.17 0 0 1-.098.023v.37a.54.54 0 0 0 .303-.085zm-.098.023c-.034 0-.093-.015-.185-.076l-.205.308a.7.7 0 0 0 .39.138zm-.181-.074a4 4 0 0 0-.405-.244l-.177.325q.228.123.37.223zm-.4-.241a3 3 0 0 0-.575-.256l-.119.35q.3.102.507.225zm-.571-.255a2.4 2.4 0 0 0-.811-.125v.37q.41.001.685.103zm-.811-.125q-.424-.001-.765.11l.114.351q.274-.09.65-.09zm-.767.11q-.33.11-.57.316l.243.28q.175-.154.444-.245zm-.57.316q-.239.207-.362.494l.34.147a1 1 0 0 1 .265-.362zm-.363.496a1.5 1.5 0 0 0-.115.599h.37q.001-.254.086-.457zm-.115.599c0 .279.075.526.233.728l.292-.228a.78.78 0 0 1-.154-.5zm.235.73q.22.273.562.46l.18-.324a1.5 1.5 0 0 1-.454-.368zm.563.46a4.6 4.6 0 0 0 .759.321l.115-.352a4 4 0 0 1-.697-.294zm.761.322q.405.126.822.272l.122-.35q-.423-.147-.834-.275zm.823.272q.42.144.818.327l.154-.336a9 9 0 0 0-.851-.341zm.818.327q.382.176.673.442l.25-.273a3 3 0 0 0-.769-.505zm.675.444q.29.26.47.642l.335-.157a2.3 2.3 0 0 0-.558-.76zm.47.642c.114.245.176.552.176.93h.37c0-.416-.067-.78-.211-1.087zm.176.93q0 .608-.208 1.134l.345.135q.233-.595.233-1.27zm-.208 1.134q-.206.525-.6.918l.263.262q.448-.449.682-1.045zm-.6.918q-.381.384-.964.613l.135.345q.646-.253 1.091-.696zm-.965.613a3.6 3.6 0 0 1-1.32.228v.37q.81.001 1.456-.254zm-1.32.228q-.442 0-.864-.09l-.076.362q.46.098.94.098zm-.866-.09a4.6 4.6 0 0 1-.802-.238l-.137.344q.416.167.867.257zm-.799-.236a4.2 4.2 0 0 1-.71-.384l-.206.307q.362.244.772.418zm-.71-.384a3.6 3.6 0 0 1-.59-.495l-.268.255q.288.303.652.547zm-.566-.271.454-.748-.316-.192-.454.748zm.452-.744a.26.26 0 0 1 .09-.086l-.184-.322a.6.6 0 0 0-.218.208zm.09-.086a.23.23 0 0 1 .115-.03v-.37a.6.6 0 0 0-.3.078zm.115-.03c.043 0 .117.022.226.108l.229-.291c-.14-.11-.294-.187-.455-.187zm.23.11q.191.144.455.32l.205-.308a10 10 0 0 1-.439-.308zm.46.323q.285.178.671.33l.135-.345a3.7 3.7 0 0 1-.61-.299zm.674.33q.413.154.96.152v-.37q-.497-.001-.83-.128zm.96.152c.594 0 1.08-.145 1.432-.461l-.247-.275c-.263.236-.649.366-1.186.366zm1.431-.46c.358-.317.53-.752.53-1.28h-.37c0 .441-.14.768-.405 1.003zm.53-1.28c0-.301-.072-.565-.232-.774l-.294.225c.098.129.156.306.156.549zm-.23-.772a1.7 1.7 0 0 0-.575-.486l-.176.325q.288.157.454.382zm-.574-.485a3.8 3.8 0 0 0-.758-.31l-.105.355q.391.116.684.278zm-.758-.31q-.405-.12-.824-.253l-.112.353q.422.135.831.255zm-.822-.252a9 9 0 0 1-.811-.314l-.15.338q.415.184.844.327zm-.81-.313a2.6 2.6 0 0 1-.68-.449l-.25.273q.344.315.776.512zm-.676-.446a2.1 2.1 0 0 1-.467-.676l-.338.15q.206.465.549.793zm-.466-.675q-.176-.394-.178-1.021h-.37q-.002.681.209 1.17zm-.178-1.021q0-.484.186-.938l-.342-.14a2.8 2.8 0 0 0-.214 1.078zm.185-.936q.193-.453.553-.8l-.257-.267a2.8 2.8 0 0 0-.636.922zm.553-.8q.363-.354.908-.57l-.136-.343q-.605.237-1.03.646zm.908-.57q.535-.212 1.24-.213v-.37q-.763-.002-1.376.24zm1.24-.213q.8 0 1.45.248l.132-.346a4.4 4.4 0 0 0-1.582-.273zm1.451.248q.661.249 1.132.702l.257-.267q-.531-.51-1.259-.781zm1.096.484-.381.748.33.168.38-.748zm6.827 7.356-.072-.17h-.001zm.741-.52-.136-.126-.001.001zm.468-.802.175.06v-.001zm.16-6.845v-.185h-.185v.185zm1.556 0h.185v-.185h-.185zm-.274 7.366-.173-.066v.001zm-.775 1.248.133.13v-.001zm-1.235.822.07.171zm-3.265 0-.071.17.002.001zm-1.229-.822-.133.129zm-.781-1.248-.174.064.001.001zm-.267-7.366v-.185H78.5v.185zm1.562 0h.185v-.185h-.185zm.16 6.838-.175.06zm.461.808-.138.123zm.735.52-.073.17v.001zm.995.373q.586.001 1.061-.202l-.146-.34a2.3 2.3 0 0 1-.915.172zm1.06-.202q.476-.201.807-.567l-.275-.248q-.271.302-.676.475zm.805-.566q.335-.366.507-.866l-.35-.12q-.15.434-.429.736zm.507-.867q.17-.508.17-1.108h-.37q0 .548-.15.99zm.17-1.108v-5.796h-.37v5.796zm-.185-5.61h1.556v-.37h-1.556zm1.37-.186v5.796h.37v-5.796zm0 5.796q0 .818-.26 1.504l.345.131q.286-.755.286-1.635zm-.261 1.505q-.255.688-.735 1.185l.267.257q.535-.557.815-1.313zm-.734 1.184q-.48.492-1.173.78l.14.342q.76-.314 1.298-.864zm-1.173.78q-.682.279-1.56.28v.37q.94 0 1.7-.308zm-1.56.28a4.2 4.2 0 0 1-1.566-.281l-.138.343q.766.308 1.705.307zm-1.564-.28a3.5 3.5 0 0 1-1.167-.78l-.265.258a3.8 3.8 0 0 0 1.29.863zm-1.166-.779a3.5 3.5 0 0 1-.742-1.186l-.346.131q.285.755.82 1.312zm-.742-1.185a4.3 4.3 0 0 1-.255-1.505h-.37q0 .878.278 1.634zm-.255-1.505v-5.796h-.37v5.796zm-.185-5.61h1.562v-.37h-1.562zm1.377-.186v5.79h.37v-5.79zm0 5.79q0 .6.17 1.107l.351-.118q-.15-.442-.15-.99zm.17 1.108q.172.5.498.87l.277-.244a2.2 2.2 0 0 1-.424-.746zm.499.872q.329.364.799.567l.146-.34a1.9 1.9 0 0 1-.67-.475zm.8.567q.481.203 1.067.202v-.37q-.522-.001-.923-.172zm11.053-3.569-.058-.175h-.001zm.661-.374.126.136zm.4-.594-.172-.067zm0-1.53-.172.066.001.003zm-.386-.567.123-.138zm-.662-.354-.056.176.003.002zm-2.357-.127V19.8h-.185v.185zm0 3.68h-.185v.185h.185zm3.059-4.681-.057.176zm1.142.62-.124.139.002.002zm.674.956-.172.067v.001zm-.013 2.49.17.07zm-.695.982.123.139v-.002zm-1.148.64.058.177h.001zm-3.019.228v-.185h-.185v.185zm0 3.479v.185h.185v-.185zm-1.562 0h-.185v.185h.185zm0-9.616v-.185h-.185v.185zm2.991 5.087q.546 0 .974-.144l-.118-.35q-.359.123-.856.124zm.974-.143a2 2 0 0 0 .728-.414l-.251-.272q-.225.21-.594.334zm.728-.414q.3-.276.448-.664l-.346-.133q-.119.308-.353.525zm.448-.664q.146-.384.145-.84h-.37q0 .397-.12.707zm.145-.84q.001-.451-.146-.824l-.344.137q.12.296.12.686zm-.145-.821a1.6 1.6 0 0 0-.437-.64l-.247.276q.227.203.338.495zm-.437-.64a1.9 1.9 0 0 0-.731-.393l-.107.355q.367.111.591.314zm-.728-.392a3.2 3.2 0 0 0-.985-.136v.37q.513.001.872.118zm-.985-.136h-1.429v.37h1.43zm-1.614.185v3.68h.37v-3.68zm.185 3.865h1.43v-.37h-1.43zm1.43-4.902q.919.001 1.572.212l.113-.352q-.722-.231-1.686-.23zm1.573.212q.663.211 1.074.583l.247-.276q-.484-.43-1.21-.66zm1.076.584q.42.365.624.883l.344-.135a2.6 2.6 0 0 0-.725-1.027zm.624.884q.206.517.207 1.16h.37q.001-.705-.233-1.297zm.207 1.16q0 .656-.22 1.192l.343.14q.248-.611.247-1.332zm-.22 1.192q-.217.528-.647.914l.248.276q.491-.443.742-1.05zm-.645.913a3.1 3.1 0 0 1-1.086.605l.12.35a3.5 3.5 0 0 0 1.21-.677zm-1.085.604q-.645.217-1.53.218v.37q.93 0 1.647-.236zm-1.53.218h-1.43v.37h1.43zm-1.615.185v3.479h.37V24.9zm.185 3.294H88.68v.37h1.562zm-1.377.185v-9.616h-.37v9.616zm-.185-9.43h2.991v-.37H88.68zm12.057 4.582-.058-.175h-.001zm.661-.374.126.136zm.401-.594-.173-.067zm0-1.53-.173.066.001.003zm-.387-.567.123-.138zm-.661-.354-.057.176.004.002zm-2.358-.127V19.8h-.184v.185zm0 3.68h-.184v.185h.184zm3.059-4.681-.057.176h.001zm1.142.62-.124.139.002.002zm.674.956-.172.067v.001zm-.013 2.49.171.07zm-.695.982.123.139.001-.002zm-1.148.64.058.177h.001zm-3.019.228v-.185h-.184v.185zm0 3.479v.185h.186v-.185zm-1.562 0h-.185v.185h.185zm0-9.616v-.185h-.185v.185zm2.992 5.087q.544 0 .974-.144l-.119-.35a2.7 2.7 0 0 1-.856.124zm.973-.143a2 2 0 0 0 .728-.414l-.251-.272q-.225.21-.594.334zm.728-.414q.299-.276.448-.664l-.346-.133q-.118.308-.353.525zm.448-.664q.146-.384.146-.84h-.37q-.001.397-.122.707zm.146-.84q0-.451-.147-.824l-.344.137q.12.296.121.686zm-.146-.821a1.6 1.6 0 0 0-.437-.64l-.247.276q.227.203.338.495zm-.437-.64a1.9 1.9 0 0 0-.731-.393l-.106.355c.246.073.44.18.59.314zm-.728-.392a3.2 3.2 0 0 0-.984-.136v.37q.512.001.871.118zm-.984-.136h-1.43v.37h1.43zm-1.615.185v3.68h.37v-3.68zm.186 3.865h1.428v-.37h-1.428zm1.428-4.902q.921.001 1.573.212l.113-.352q-.722-.231-1.686-.23zm1.574.212q.663.211 1.074.583l.247-.276q-.483-.43-1.209-.66zm1.076.584q.42.365.624.883l.344-.135a2.6 2.6 0 0 0-.725-1.027zm.624.884q.206.517.207 1.16h.37q.001-.705-.233-1.297zm.207 1.16q0 .656-.22 1.192l.343.14q.248-.611.247-1.332zm-.219 1.192a2.5 2.5 0 0 1-.647.914l.247.276q.492-.443.742-1.05zm-.646.913a3.1 3.1 0 0 1-1.086.605l.119.35a3.5 3.5 0 0 0 1.212-.677zm-1.085.604q-.646.217-1.53.218v.37q.93 0 1.647-.236zm-1.53.218h-1.43v.37h1.43zm-1.615.185v3.479h.37V24.9zm.186 3.294H96.83v.37h1.563zm-1.378.185v-9.616h-.37v9.616zm-.185-9.43h2.992v-.37H96.83zm13.707 8.121h.185v-.185h-.185zm0 1.309v.185h.185v-.185zm-5.556 0h-.185v.185h.185zm0-9.616v-.185h-.185v.185zm1.563 0h.185v-.185h-.185zm0 8.307h-.185v.185h.185zm3.808 0v1.309h.37V27.07zm.185 1.124h-5.556v.37h5.556zm-5.371.185v-9.616h-.37v9.616zm-.185-9.43h1.563v-.37h-1.563zm1.378-.186v8.307h.37v-8.307zm.185 8.492h3.993v-.37h-3.993zm7.958-2.642-.159-.095-.026.043v.052zm0 3.766v.185h.185v-.185zm-1.556 0h-.185v.185h.185zm0-3.766h.185v-.052l-.027-.043zm-3.513-5.85v-.185h-.327l.169.28zm1.696.1.119-.142zm.201.254-.164.086.003.006zm1.97 3.446.164-.085-.004-.007zm.24.494-.168.077.002.004zm.2.46-.173.067.19.497.16-.508zm.181-.46.167.079.001-.002zm.24-.494L114 22.47l-.004.007zm1.957-3.446.161.092.004-.009zm.193-.24.119.142.005-.004zm1.703-.114.159.096.168-.28h-.327zm-3.697 5.85v3.766h.37v-3.766zm.185 3.58h-1.556v.371h1.556zm-1.371.186v-3.766h-.37v3.766zm-.027-3.861-3.512-5.85-.317.19 3.512 5.85zm-3.671-5.57h1.369v-.37h-1.369zm1.369 0c.109 0 .172.026.209.058l.237-.285a.68.68 0 0 0-.446-.143zm.209.058q.089.074.155.197l.328-.171a1 1 0 0 0-.246-.31zm.158.203 1.97 3.446.321-.184-1.97-3.446zm1.966 3.438q.132.258.237.487l.336-.154a12 12 0 0 0-.244-.502zm.239.49q.11.227.193.447l.346-.132a6 6 0 0 0-.207-.476zm.543.436q.069-.22.171-.437l-.335-.158q-.112.238-.189.484zm.172-.44q.105-.228.237-.486l-.33-.169q-.135.264-.244.502zm.233-.479 1.956-3.445-.321-.183L114 22.47zm1.961-3.454a.6.6 0 0 1 .147-.182l-.238-.283a.9.9 0 0 0-.24.3zm.152-.185c.044-.04.107-.067.203-.067v-.37c-.17 0-.326.05-.45.161zm.203-.067h1.376v-.37h-1.376zm1.217-.28-3.512 5.85.317.19 3.513-5.85zm12.742 6.873.173.067zm-.982 1.556-.133-.129zm-1.515 1.015-.071-.171h-.001zm-3.927 0-.071.17h.001zm-1.516-1.015-.132.129zm-.981-5.496-.173-.066zm.981-1.556.133.13zm1.516-1.021-.07-.171h-.001zm3.927 0-.072.17h.001zm1.515 1.021-.133.128v.001zm.982 1.556.173-.066zm-1.476.481-.175.059v.001zm-.641-1.122-.137.124.001.001zm-1.008-.708-.071.171zm-2.664 0 .071.171zm-1.015.708-.137-.125zm-.648 1.122-.175-.06zm0 2.985-.175.06zm.648 1.122-.137.125h.001zm1.015.7-.071.172h.001zm2.664 0 .069.172h.002zm1.008-.7-.136-.125h-.001zm.641-1.122-.175-.06v.001zm1.638-1.496a5.2 5.2 0 0 1-.335 1.903l.346.134a5.6 5.6 0 0 0 .359-2.037zm-.335 1.903a4.4 4.4 0 0 1-.942 1.494l.266.258a4.8 4.8 0 0 0 1.022-1.618zm-.942 1.494a4.3 4.3 0 0 1-1.453.973l.141.342a4.6 4.6 0 0 0 1.578-1.057zm-1.454.973q-.843.352-1.892.353v.37q1.115 0 2.035-.381zm-1.892.353a4.9 4.9 0 0 1-1.892-.353l-.141.342a5.3 5.3 0 0 0 2.033.381zm-1.892-.353a4.3 4.3 0 0 1-1.454-.974l-.265.26q.663.675 1.577 1.056zm-1.454-.973a4.4 4.4 0 0 1-.941-1.494l-.346.134q.36.934 1.022 1.618zm-.941-1.494a5.2 5.2 0 0 1-.335-1.903h-.37q0 1.1.359 2.037zm-.335-1.903q0-1.038.335-1.903l-.346-.133a5.6 5.6 0 0 0-.359 2.036zm.335-1.903q.335-.868.941-1.494l-.265-.257a4.7 4.7 0 0 0-1.022 1.618zm.941-1.494a4.3 4.3 0 0 1 1.454-.98l-.142-.341a4.7 4.7 0 0 0-1.577 1.064zm1.454-.98a4.9 4.9 0 0 1 1.892-.352v-.37a5.3 5.3 0 0 0-2.033.38zm1.892-.352q1.05 0 1.892.353l.143-.342q-.92-.382-2.035-.382zm1.893.353q.854.353 1.453.979l.267-.257a4.6 4.6 0 0 0-1.579-1.064zm1.453.98q.607.625.942 1.493l.346-.133a4.8 4.8 0 0 0-1.022-1.618zm.942 1.493a5.2 5.2 0 0 1 .335 1.903h.37a5.6 5.6 0 0 0-.359-2.036zm-.891 1.903q0-.854-.237-1.549l-.35.12q.216.627.217 1.43zm-.236-1.547a3.3 3.3 0 0 0-.68-1.189l-.273.25q.392.428.602 1.056zm-.679-1.187a2.94 2.94 0 0 0-1.075-.755l-.142.341q.557.233.942.66zm-1.075-.755a3.6 3.6 0 0 0-1.407-.262v.37q.71.002 1.265.233zm-1.407-.262q-.766-.001-1.399.262l.142.341q.555-.232 1.257-.233zm-1.399.262a3 3 0 0 0-1.081.753l.273.25q.392-.43.95-.662zm-1.081.753a3.3 3.3 0 0 0-.686 1.187l.35.12q.217-.628.609-1.057zm-.686 1.187q-.238.695-.237 1.55h.37q0-.803.217-1.43zm-.237 1.55q0 .86.237 1.555l.35-.12a4.4 4.4 0 0 1-.217-1.436zm.237 1.555q.237.693.686 1.187l.273-.25a3 3 0 0 1-.609-1.057zm.687 1.188q.45.483 1.08.746l.142-.342a2.7 2.7 0 0 1-.951-.656zm1.081.746q.632.255 1.398.254v-.37a3.3 3.3 0 0 1-1.259-.227zm1.398.254q.773.001 1.405-.254l-.138-.343q-.556.226-1.267.227zm1.407-.254a3 3 0 0 0 1.074-.748l-.274-.249q-.384.423-.942.655zm1.074-.747q.45-.494.68-1.189l-.351-.117q-.21.628-.602 1.056zm.679-1.187q.238-.696.237-1.556h-.37q0 .81-.217 1.436zm4.929-5.102v-.185h-.185v.185zm0 3.079h-.185v.185h.185zm3.76 0h.185v-.185h-.185zm0 1.262v.185h.185v-.185zm-3.76 0v-.185h-.185v.185zm0 4.013v.185h.185v-.185zm-1.569 0h-.185v.185h.185zm0-9.616v-.185h-.185v.185zm5.996 0h.186v-.185h-.186zm0 1.262v.186h.186v-.186zm-4.612 0v3.079h.37v-3.079zm.185 3.264h3.76v-.37h-3.76zm3.575-.185v1.262h.37v-1.262zm.185 1.077h-3.76v.37h3.76zm-3.945.185v4.013h.37v-4.013zm.185 3.828h-1.569v.37h1.569zm-1.384.185v-9.616h-.37v9.616zm-.185-9.43h5.996v-.37h-5.996zm5.811-.186v1.262h.371v-1.262zm.185 1.077h-4.427v.37h4.427zM36.706 45.854h.185v-.185h-.185zm0 2.525v.185h.185v-.185zm-9.357 0h-.185v.185h.185zm0-2.525v-.185h-.185v.185zm3.157 0v.185h.185v-.185zm.011-8.917.185.007zm.034-.654.184.013.03-.432-.332.277zM28.68 37.84l.113.146.005-.004zm-.497.236.027.184.007-.002zm-.45 0-.039.182.01.001zm-.384-.146-.102.154.007.005zm-.248-.226.152-.106-.004-.005zm-1.104-1.465-.12-.142-.134.113.106.14zm5.117-4.295v-.185h-.067l-.052.043zm2.886 0h.185v-.185H34zm0 13.91h-.185v.186H34zm2.52 0v2.526h.37v-2.525zm.186 2.34h-9.357v.37h9.357zm-9.172.186v-2.525h-.37v2.525zm-.185-2.34h3.157v-.37h-3.157zm3.342-.185v-8.286h-.37v8.286zm0-8.286q0-.312.01-.624l-.369-.014q-.011.32-.011.638zm.01-.625q.012-.323.034-.647l-.369-.026q-.022.33-.034.66zm-.268-.802-1.872 1.555.237.285 1.871-1.556zm-1.867 1.551a1 1 0 0 1-.416.201l.067.364c.2-.036.392-.13.576-.272zm-.409.2q-.211.03-.396 0l-.057.366q.243.038.506 0zm-.386.002a1 1 0 0 1-.326-.124l-.19.318q.197.118.44.169zm-.32-.119a.8.8 0 0 1-.198-.178l-.303.213c.07.1.173.19.297.273zm-.202-.183-1.105-1.465-.295.222 1.104 1.466zm-1.133-1.212 5.117-4.295-.238-.284-5.117 4.295zm4.998-4.252H34v-.37h-2.886zm2.701-.185v13.91h.37v-13.91zM34 46.039h2.706v-.37H34zm16.1-2.147-.178-.052zm-1.285 2.616-.145-.115h-.001zm-1.94 1.544-.075-.169zm-4.847 0-.077.168zm-1.916-1.544-.146.114zm-1.274-2.616-.178.051v.001zm0-7.462-.178-.052zm1.274-2.616-.146-.114zm1.916-1.533.076.169zm4.848 0-.077.169h.002zm1.939 1.533-.146.114v.001zM50.1 36.43l-.178.052zm-3.36.947-.181.035zm-.575-1.714-.16.09v.003zm-.8-.845-.086.163.003.002zm-1.826 0 .084.164h.002zm-.79.845-.16-.09-.002.002zm-.552 1.714-.181-.036v.001zm0 5.58-.181.034v.002zm.553 1.713-.163.087.002.004zm.789.857-.088.163.005.002zm1.826 0 .083.165.003-.001zm.8-.857-.16-.092v.001zm.575-1.713-.181-.036zm3.637-2.796q-.001 2.133-.455 3.68l.355.103q.471-1.61.47-3.783zm-.455 3.68q-.456 1.55-1.252 2.552l.29.23q.848-1.073 1.317-2.679zm-1.253 2.553a4.9 4.9 0 0 1-1.87 1.49l.153.337a5.3 5.3 0 0 0 2.008-1.6zm-1.87 1.49q-1.077.49-2.347.49v.37q1.344 0 2.5-.524zm-2.347.49a5.6 5.6 0 0 1-2.347-.49l-.153.336q1.156.525 2.5.524zm-2.346-.49q-1.062-.486-1.848-1.49l-.292.228q.837 1.07 1.985 1.598zm-1.848-1.49q-.788-1.003-1.242-2.554l-.355.104q.469 1.606 1.305 2.678zm-1.242-2.552q-.443-1.547-.444-3.681h-.37q0 2.172.458 3.782zm-.444-3.681q.001-2.135.444-3.68l-.356-.102q-.459 1.61-.458 3.782zm.444-3.68q.455-1.55 1.242-2.553l-.292-.228q-.836 1.072-1.306 2.678zm1.242-2.553c.524-.67 1.14-1.16 1.846-1.478l-.151-.338q-1.15.517-1.987 1.588zm1.847-1.478q1.077-.49 2.347-.491v-.37q-1.344 0-2.5.524zm2.347-.491q1.27 0 2.347.49l.153-.336a6 6 0 0 0-2.5-.524zm2.35.492q1.08.474 1.867 1.477l.291-.228a5.2 5.2 0 0 0-2.01-1.588zm1.868 1.478c.53.67.95 1.518 1.252 2.553l.355-.104q-.468-1.607-1.317-2.679zm1.252 2.553q.454 1.545.455 3.679h.37q.001-2.173-.47-3.783zM47.14 40.16q0-1.713-.218-2.82l-.363.072q.21 1.057.21 2.748zm-.218-2.82q-.216-1.112-.596-1.771l-.32.186c.226.389.412.937.553 1.656zm-.595-1.769c-.244-.433-.535-.748-.88-.92l-.165.331c.257.128.5.377.722.77zm-.876-.918a2.1 2.1 0 0 0-.999-.258v.37q.412-.001.827.215zm-.999-.258a2.1 2.1 0 0 0-1 .258l.173.327q.415-.216.827-.215zm-.997.257c-.337.173-.623.488-.866.92l.322.18c.223-.394.463-.643.712-.77zm-.868.922c-.238.436-.427 1.028-.571 1.766l.363.071c.141-.72.32-1.27.533-1.66zm-.571 1.767q-.207 1.107-.206 2.819h.37q0-1.692.2-2.75zm-.206 2.819q-.001 1.723.206 2.83l.363-.069q-.199-1.057-.2-2.761zm.206 2.832c.145.73.333 1.321.57 1.764l.327-.174c-.213-.399-.393-.95-.534-1.662zm.573 1.768c.243.431.528.749.862.929l.176-.326c-.252-.136-.493-.39-.716-.785zm.867.931q.487.244.996.245v-.37q-.415.001-.83-.206zm.996.245q.51-.001.996-.245l-.166-.33a1.84 1.84 0 0 1-.83.205zm1-.246c.342-.18.63-.498.875-.93l-.323-.182c-.222.394-.466.648-.725.784zm.874-.93q.38-.668.596-1.768l-.363-.072q-.212 1.063-.554 1.657zm.596-1.768q.219-1.108.218-2.832h-.37q-.001 1.703-.211 2.76zm5.299 8.17.123-.138-.006-.005zm-.17-.744-.156-.1-.003.007zm.192-.225.124.138.007-.007zm.316-.338-.135-.127-.003.004zm.36-.429.148.112zm.328-.518-.162-.09-.002.004zm.236-.598.18.045.053-.21-.216-.02zm-.698-.191.082-.166zm-.542-.406-.14.121.003.003zm-.35-.586-.173.063v.002zm.012-1.398.17.075v-.002zm.383-.541.125.137zm.598-.372-.067-.173h-.002zm1.657.045-.08.166.004.002zm.62.473-.143.117.002.003zm.36.688-.177.05.002.007zm-.056 2.018.178.05zm-.54 1.274-.162-.091-.001.002zm-.88 1.262.14.12zm-1.217 1.127-.123.139.112.1.12-.09zm-.492-.684a.44.44 0 0 1-.18-.353h-.37c0 .257.112.473.316.64zm-.18-.353c0-.032.011-.082.054-.154l-.32-.187a.7.7 0 0 0-.104.341zm.05-.148a1 1 0 0 1 .16-.188l-.248-.275a1.3 1.3 0 0 0-.224.264zm.166-.194q.141-.142.323-.346l-.276-.246a8 8 0 0 1-.309.33zm.32-.343q.188-.199.373-.443l-.294-.224a5 5 0 0 1-.349.414zm.373-.443a4 4 0 0 0 .344-.545l-.328-.17q-.14.267-.31.491zm.341-.54q.17-.303.255-.643l-.36-.09a2.2 2.2 0 0 1-.218.552zm.092-.872a1.7 1.7 0 0 1-.633-.173l-.165.331q.35.175.765.21zm-.633-.173a1.6 1.6 0 0 1-.487-.365l-.274.25q.25.273.596.446zm-.484-.362a1.7 1.7 0 0 1-.316-.53l-.346.131q.135.358.383.642zm-.315-.528a1.9 1.9 0 0 1-.113-.67h-.37q0 .426.135.797zm-.113-.67q0-.324.12-.59l-.339-.15a1.8 1.8 0 0 0-.151.74zm.12-.591q.12-.28.338-.477l-.249-.274q-.278.252-.429.605zm.338-.478a1.8 1.8 0 0 1 .542-.337l-.138-.343a2.1 2.1 0 0 0-.653.407zm.54-.336q.313-.121.71-.123v-.37q-.457 0-.844.148zm.71-.123c.317 0 .582.057.8.162l.16-.333a2.2 2.2 0 0 0-.96-.199zm.804.164q.334.152.553.422l.286-.234a1.9 1.9 0 0 0-.686-.525zm.555.425q.22.26.324.619l.356-.102a2 2 0 0 0-.398-.756zm.326.625q.114.353.115.755h.37q0-.456-.133-.87zm.115.755q0 .533-.174 1.156l.357.1q.186-.663.187-1.257zm-.174 1.155q-.173.608-.524 1.234l.323.181q.37-.66.557-1.313zm-.525 1.236a7.2 7.2 0 0 1-.858 1.23l.282.241q.54-.633.9-1.294zm-.858 1.23a7 7 0 0 1-1.186 1.1l.22.297q.703-.519 1.248-1.156zm-.953 1.11-.61-.541-.245.277.609.54zm15.641-7.674-.177-.052zm-1.285 2.616-.145-.115zm-1.939 1.544-.076-.169zm-4.847 0-.077.168zm-1.916-1.544-.146.114zm-1.274-2.616-.178.051v.001zm0-7.462-.178-.052zm1.274-2.616-.146-.114zm1.916-1.533.076.169zm4.847 0-.076.169h.002zm1.94 1.533-.147.114.001.001zm1.284 2.616-.177.052zm-3.359.947-.181.035zm-.575-1.714-.161.09.001.003zm-.8-.845-.086.163.003.002zm-1.827 0 .085.164h.002zm-.789.845-.16-.09-.002.002zm-.552 1.714-.181-.036v.001zm0 5.58-.182.034v.002zm.552 1.713-.163.087.002.004zm.79.857-.088.163.005.002zm1.826 0 .083.165.003-.001zm.8-.857-.16-.092-.001.001zm.575-1.713-.181-.036zm3.636-2.796q0 2.133-.454 3.68l.355.103q.47-1.61.47-3.783zm-.454 3.68q-.455 1.55-1.253 2.552l.29.23q.85-1.073 1.318-2.679zm-1.254 2.553a4.9 4.9 0 0 1-1.869 1.49l.152.337a5.3 5.3 0 0 0 2.009-1.6zm-1.87 1.49q-1.077.49-2.346.49v.37q1.345 0 2.5-.524zm-2.346.49a5.6 5.6 0 0 1-2.348-.49l-.153.336q1.156.525 2.5.524zm-2.347-.49q-1.06-.486-1.848-1.49l-.291.228q.837 1.07 1.985 1.598zm-1.848-1.49q-.786-1.003-1.242-2.554l-.355.104q.469 1.606 1.306 2.678zm-1.241-2.552q-.443-1.547-.444-3.681h-.37q-.001 2.172.458 3.782zm-.444-3.681q0-2.135.444-3.68l-.356-.102q-.46 1.61-.458 3.782zm.443-3.68q.456-1.55 1.242-2.553l-.291-.228q-.837 1.072-1.306 2.678zm1.242-2.553c.524-.67 1.14-1.16 1.847-1.478l-.152-.338q-1.149.517-1.986 1.588zM60.6 32.45q1.077-.49 2.348-.491v-.37q-1.346 0-2.5.524zm2.348-.491q1.27 0 2.347.49l.153-.336a6 6 0 0 0-2.5-.524zm2.349.492q1.082.474 1.867 1.477l.292-.228a5.2 5.2 0 0 0-2.01-1.588zm1.868 1.478c.531.67.95 1.518 1.253 2.553l.355-.104q-.469-1.607-1.318-2.679zm1.253 2.553q.454 1.545.454 3.679h.37q.001-2.173-.469-3.783zm-2.783 3.679q.001-1.713-.217-2.82l-.364.072q.21 1.057.211 2.748zm-.217-2.82q-.216-1.112-.597-1.771l-.32.186c.226.389.413.937.553 1.656zm-.596-1.769c-.244-.433-.534-.748-.878-.92l-.166.331c.257.128.5.377.722.77zm-.875-.918a2.1 2.1 0 0 0-1-.258v.37q.413-.001.828.215zm-1-.258a2.1 2.1 0 0 0-.998.258l.172.327q.414-.216.827-.215zm-.997.257c-.337.173-.622.488-.866.92l.323.18c.222-.394.462-.643.712-.77zm-.867.922c-.238.436-.427 1.028-.572 1.766l.364.071c.14-.72.32-1.27.533-1.66zm-.572 1.767q-.206 1.107-.206 2.819h.37q.001-1.692.2-2.75zm-.206 2.819q0 1.723.206 2.83l.364-.069q-.199-1.057-.2-2.761zm.206 2.832c.145.73.334 1.321.571 1.764l.327-.174c-.214-.399-.394-.95-.534-1.662zm.573 1.768c.243.431.528.749.863.929l.175-.326c-.252-.136-.493-.39-.715-.785zm.868.931q.486.244.996.245v-.37q-.415.001-.83-.206zm.996.245q.51-.001.995-.245l-.165-.33a1.84 1.84 0 0 1-.83.205zm.999-.246c.342-.18.632-.498.875-.93l-.322-.182c-.222.394-.466.648-.725.784zm.875-.93c.254-.444.45-1.036.596-1.768l-.364-.072q-.212 1.063-.553 1.657zm.596-1.768q.218-1.108.217-2.832h-.37q0 1.703-.21 2.76zm16.256.9-.178-.053zm-1.285 2.615-.145-.115h-.001zm-1.94 1.544-.075-.169zm-4.847 0-.077.168zm-1.916-1.544-.146.114zm-1.274-2.616-.178.051v.001zm0-7.462-.177-.052zm1.274-2.616-.146-.114zm1.916-1.533.076.169zm4.848 0-.077.169h.002zm1.939 1.533-.146.114v.001zm1.285 2.616-.178.052zm-3.36.947-.181.035zm-.575-1.714-.16.09v.003zm-.8-.845-.086.163.003.002zm-1.826 0 .084.164h.002zm-.79.845-.16-.09-.002.002zm-.552 1.714-.181-.036v.001zm0 5.58-.181.034v.002zm.553 1.713-.163.087.002.004zm.789.857-.088.163.005.002zm1.826 0 .083.165.003-.001zm.8-.857-.16-.092v.001zm.575-1.713-.181-.036zm3.637-2.796q-.001 2.133-.455 3.68l.355.103q.471-1.61.47-3.783zm-.455 3.68q-.456 1.55-1.252 2.552l.29.23q.848-1.073 1.317-2.679zm-1.253 2.553a4.9 4.9 0 0 1-1.87 1.49l.153.337a5.3 5.3 0 0 0 2.008-1.6zm-1.87 1.49q-1.077.49-2.347.49v.37q1.345 0 2.5-.524zm-2.347.49a5.6 5.6 0 0 1-2.347-.49l-.153.336q1.156.525 2.5.524zm-2.347-.49q-1.06-.486-1.847-1.49l-.292.228q.837 1.07 1.985 1.598zm-1.847-1.49q-.787-1.003-1.242-2.554l-.355.104q.469 1.606 1.305 2.678zm-1.242-2.552q-.443-1.547-.444-3.681h-.37q0 2.172.458 3.782zm-.444-3.681q.002-2.135.444-3.68l-.356-.102q-.458 1.61-.458 3.782zm.444-3.68q.455-1.55 1.242-2.553l-.292-.228q-.836 1.072-1.305 2.678zm1.242-2.553c.524-.67 1.14-1.16 1.846-1.478l-.152-.338q-1.149.517-1.986 1.588zm1.847-1.478q1.077-.49 2.347-.491v-.37q-1.345 0-2.5.524zm2.347-.491q1.27 0 2.347.49l.153-.336a6 6 0 0 0-2.5-.524zm2.35.492q1.08.474 1.867 1.477l.291-.228a5.2 5.2 0 0 0-2.01-1.588zm1.868 1.478c.53.67.95 1.518 1.252 2.553l.355-.104q-.468-1.607-1.317-2.679zm1.252 2.553q.454 1.545.455 3.679h.37q.001-2.173-.47-3.783zm-2.782 3.679q0-1.713-.218-2.82l-.363.072q.21 1.057.21 2.748zm-.218-2.82q-.216-1.112-.597-1.771l-.32.186c.227.389.413.937.554 1.656zm-.595-1.769c-.244-.433-.535-.748-.88-.92l-.165.331c.257.128.5.377.722.77zm-.876-.918a2.1 2.1 0 0 0-.999-.258v.37q.412-.001.827.215zm-.999-.258a2.1 2.1 0 0 0-1 .258l.173.327q.415-.216.827-.215zm-.998.257c-.336.173-.622.488-.865.92l.322.18c.223-.394.463-.643.712-.77zm-.867.922c-.238.436-.427 1.028-.571 1.766l.363.071c.141-.72.32-1.27.533-1.66zm-.572 1.767q-.207 1.107-.206 2.819h.37q.001-1.692.2-2.75zm-.206 2.819q0 1.723.206 2.83l.364-.069q-.199-1.057-.2-2.761zm.207 2.832c.145.73.333 1.321.57 1.764l.327-.174c-.214-.399-.393-.95-.534-1.662zm.573 1.768c.243.431.528.749.862.929l.176-.326c-.252-.136-.493-.39-.716-.785zm.867.931q.487.244.996.245v-.37q-.415.001-.83-.206zm.996.245q.51-.001.996-.245l-.166-.33a1.84 1.84 0 0 1-.83.205zm1-.246c.341-.18.63-.498.875-.93l-.323-.182c-.222.394-.466.648-.725.784zm.874-.93q.38-.668.596-1.768l-.363-.072q-.212 1.063-.554 1.657zm.596-1.768q.219-1.108.218-2.832h-.37q-.001 1.703-.211 2.76zm16.256.9-.178-.053zm-1.285 2.615-.145-.115zm-1.939 1.544-.076-.169zm-4.847 0-.078.168h.001zm-1.917-1.544-.145.114zm-1.274-2.616-.178.051v.001zm0-7.462-.177-.052zm1.274-2.616-.145-.114zm1.917-1.533.075.169h.001zm4.847 0-.077.169h.002zm1.939 1.533-.146.114.001.001zm1.285 2.616-.178.052zm-3.36.947-.18.035zm-.574-1.714-.161.09v.003zm-.8-.845-.087.163.004.002zm-1.827 0 .085.164h.001zm-.789.845-.161-.09-.001.002zm-.552 1.714-.182-.036v.001zm0 5.58-.182.034v.002zm.552 1.713-.163.087.002.004zm.79.857-.088.163.005.002zm1.825 0 .083.165.003-.001zm.8-.857-.16-.092v.001zm.576-1.713-.182-.036zm3.636-2.796q-.001 2.133-.455 3.68l.356.103q.47-1.61.47-3.783zm-.455 3.68q-.454 1.55-1.252 2.552l.29.23q.848-1.073 1.318-2.679zm-1.253 2.553a4.9 4.9 0 0 1-1.869 1.49l.152.337a5.3 5.3 0 0 0 2.009-1.6zm-1.87 1.49q-1.077.49-2.347.49v.37q1.345 0 2.5-.524zm-2.347.49a5.6 5.6 0 0 1-2.347-.49l-.153.336q1.156.525 2.5.524zm-2.346-.49q-1.062-.486-1.848-1.49l-.291.228q.836 1.07 1.984 1.598zm-1.848-1.49q-.787-1.003-1.242-2.554l-.355.104q.469 1.606 1.306 2.678zm-1.242-2.552q-.442-1.547-.444-3.681h-.37q0 2.172.459 3.782zm-.444-3.681q.002-2.135.444-3.68l-.356-.102q-.458 1.61-.458 3.782zm.444-3.68q.455-1.55 1.242-2.553l-.291-.228q-.838 1.072-1.306 2.678zm1.242-2.553c.524-.67 1.14-1.16 1.846-1.478l-.151-.338q-1.149.517-1.986 1.588zm1.847-1.478q1.077-.49 2.347-.491v-.37q-1.344 0-2.5.524zm2.347-.491q1.271 0 2.347.49l.154-.336a6 6 0 0 0-2.5-.524zm2.35.492q1.082.474 1.867 1.477l.292-.228a5.2 5.2 0 0 0-2.01-1.588zm1.868 1.478c.53.67.95 1.518 1.252 2.553l.356-.104q-.47-1.607-1.318-2.679zm1.252 2.553q.454 1.545.455 3.679h.37q.001-2.173-.47-3.783zm-2.782 3.679q0-1.713-.218-2.82l-.363.072q.21 1.057.21 2.748zm-.218-2.82q-.215-1.112-.596-1.771l-.32.186c.226.389.412.937.553 1.656zm-.595-1.769c-.244-.433-.534-.748-.879-.92l-.165.331c.256.128.5.377.722.77zm-.876-.918a2.1 2.1 0 0 0-.999-.258v.37q.413-.001.827.215zm-.999-.258a2.1 2.1 0 0 0-.999.258l.172.327q.415-.216.827-.215zm-.997.257c-.337.173-.623.488-.866.92l.322.18c.223-.394.463-.643.713-.77zm-.867.922c-.239.436-.427 1.028-.572 1.766l.363.071c.141-.72.32-1.27.534-1.66zm-.572 1.767q-.207 1.107-.206 2.819h.37q0-1.692.2-2.75zm-.206 2.819q0 1.723.206 2.83l.364-.069q-.2-1.057-.2-2.761zm.206 2.832c.145.73.334 1.321.571 1.764l.326-.174c-.213-.399-.393-.95-.534-1.662zm.573 1.768c.243.431.528.749.863.929l.175-.326c-.252-.136-.493-.39-.716-.785zm.868.931q.485.244.995.245v-.37q-.414.001-.83-.206zm.995.245q.51-.001.996-.245l-.165-.33a1.84 1.84 0 0 1-.83.205zm1-.246c.342-.18.631-.498.875-.93l-.322-.182c-.223.394-.467.648-.726.784zm.875-.93q.38-.668.595-1.768l-.363-.072q-.212 1.063-.554 1.657zm.595-1.768q.219-1.108.218-2.832h-.37q0 1.703-.21 2.76zm5.3 8.17.122-.138-.006-.005zm-.17-.744-.156-.1-.004.007zm.192-.225.124.138.006-.007zm.315-.338-.134-.127-.004.004zm.361-.429.147.112zm.327-.518-.162-.09-.002.004zm.237-.598.18.045.052-.21-.216-.02zm-.7-.191.084-.166zm-.54-.406-.14.121.003.003zm-.35-.586-.174.063.001.002zm.011-1.398.17.075v-.002zm.384-.541.124.137zm.597-.372-.067-.173h-.001zm1.657.045-.08.166.004.002zm.62.473-.143.117.002.003zm.361.688-.178.05.002.007zm-.056 2.018.178.05zm-.541 1.274-.162-.091v.002zm-.88 1.262.141.12zm-1.217 1.127-.123.139.112.1.12-.09zm-.492-.684a.44.44 0 0 1-.18-.353h-.37c0 .257.112.473.316.64zm-.18-.353c0-.032.012-.082.054-.154l-.32-.187a.7.7 0 0 0-.104.341zm.05-.148a1 1 0 0 1 .16-.188l-.248-.275a1.3 1.3 0 0 0-.224.264zm.166-.194q.141-.142.324-.346l-.277-.246a8 8 0 0 1-.308.33zm.32-.343q.188-.199.373-.443l-.294-.224a5 5 0 0 1-.348.414zm.373-.443a4 4 0 0 0 .344-.545l-.328-.17q-.14.267-.31.491zm.341-.54q.171-.303.255-.643l-.359-.09a2.2 2.2 0 0 1-.218.552zm.092-.872a1.7 1.7 0 0 1-.632-.173l-.166.331q.35.175.765.21zm-.632-.173a1.6 1.6 0 0 1-.487-.365l-.274.25q.25.273.595.446zm-.485-.362a1.7 1.7 0 0 1-.316-.53l-.346.131q.135.358.383.642zm-.315-.528a1.9 1.9 0 0 1-.113-.67h-.37q0 .426.135.797zm-.113-.67q0-.324.12-.59l-.339-.15a1.8 1.8 0 0 0-.15.74zm.12-.591q.12-.28.338-.477l-.249-.274q-.278.252-.429.605zm.338-.478a1.8 1.8 0 0 1 .542-.337l-.137-.343a2.1 2.1 0 0 0-.654.407zm.54-.336q.313-.121.711-.123v-.37q-.458 0-.845.148zm.711-.123c.317 0 .58.057.799.162l.161-.333a2.2 2.2 0 0 0-.96-.199zm.803.164q.334.152.553.422l.287-.234a1.9 1.9 0 0 0-.687-.525zm.555.425q.221.26.324.619l.356-.102a2 2 0 0 0-.397-.756zm.326.625q.114.353.115.755h.37q0-.456-.133-.87zm.115.755q0 .533-.173 1.156l.356.1q.186-.663.187-1.257zm-.173 1.155q-.173.608-.525 1.234l.323.181q.37-.66.558-1.313zm-.526 1.236a7.2 7.2 0 0 1-.857 1.23l.281.241q.54-.633.901-1.294zm-.857 1.23a7 7 0 0 1-1.187 1.1l.22.297q.703-.519 1.248-1.156zm-.954 1.11-.609-.541-.246.277.609.54zm15.642-7.674-.178-.052zm-1.285 2.616-.145-.115h-.001zm-1.939 1.544-.076-.169h-.001zm-4.848 0-.077.168h.001zm-1.916-1.544-.146.114zm-1.274-2.616-.178.051v.001zm0-7.462-.178-.052zm1.274-2.616-.146-.114zm1.916-1.533.076.169h.001zm4.848 0-.077.169h.002zm1.939 1.533-.146.114.001.001zm1.285 2.616-.178.052zm-3.36.947-.181.035zm-.575-1.714-.161.09.001.003zm-.8-.845-.086.163.003.002zm-1.826 0 .084.164h.002zm-.789.845-.161-.09-.002.002zm-.553 1.714-.181-.036-.001.001zm0 5.58-.182.034.001.002zm.553 1.713-.163.087.002.004zm.789.857-.088.163.005.002zm1.826 0 .083.165.003-.001zm.8-.857-.16-.092-.001.001zm.575-1.713-.181-.036zm3.637-2.796q-.001 2.133-.455 3.68l.355.103q.471-1.61.47-3.783zm-.455 3.68q-.456 1.55-1.252 2.552l.29.23q.848-1.073 1.317-2.679zm-1.253 2.553a4.9 4.9 0 0 1-1.869 1.49l.152.337a5.3 5.3 0 0 0 2.008-1.6zm-1.87 1.49a5.6 5.6 0 0 1-2.347.49v.37a6 6 0 0 0 2.5-.524zm-2.347.49a5.6 5.6 0 0 1-2.347-.49l-.153.336a6 6 0 0 0 2.5.524zm-2.347-.49q-1.06-.486-1.847-1.49l-.292.228q.837 1.07 1.985 1.598zm-1.847-1.49q-.787-1.003-1.242-2.554l-.356.104q.47 1.606 1.306 2.678zm-1.242-2.552q-.443-1.547-.444-3.681h-.37q0 2.172.458 3.782zm-.444-3.681q0-2.135.444-3.68l-.356-.102q-.459 1.61-.458 3.782zm.444-3.68q.455-1.55 1.242-2.553l-.292-.228q-.837 1.072-1.306 2.678zm1.242-2.553c.524-.67 1.139-1.16 1.846-1.478l-.152-.338q-1.149.517-1.986 1.588zm1.847-1.478q1.077-.49 2.347-.491v-.37a6 6 0 0 0-2.5.524zm2.347-.491q1.27 0 2.347.49l.153-.336a6 6 0 0 0-2.5-.524zm2.349.492q1.082.474 1.868 1.477l.291-.228a5.2 5.2 0 0 0-2.01-1.588zm1.869 1.478c.53.67.949 1.518 1.252 2.553l.355-.104q-.469-1.607-1.317-2.679zm1.252 2.553q.454 1.545.455 3.679h.37q.001-2.173-.47-3.783zm-2.782 3.679q0-1.713-.218-2.82l-.363.072q.21 1.057.21 2.748zm-.218-2.82q-.216-1.112-.597-1.771l-.32.186c.227.389.413.937.554 1.656zm-.595-1.769c-.244-.433-.535-.748-.879-.92l-.166.331c.257.128.5.377.722.77zm-.876-.918a2.1 2.1 0 0 0-.999-.258v.37q.412-.001.827.215zm-.999-.258q-.512 0-.999.258l.172.327q.415-.216.827-.215zm-.998.257c-.336.173-.622.488-.865.92l.322.18c.223-.394.463-.643.712-.77zm-.867.922c-.238.436-.427 1.028-.571 1.766l.363.071c.141-.72.32-1.27.533-1.66zm-.572 1.767q-.207 1.107-.206 2.819h.371q0-1.692.199-2.75zm-.206 2.819q0 1.723.206 2.83l.364-.069q-.199-1.057-.199-2.761zm.207 2.832c.144.73.333 1.321.571 1.764l.326-.174c-.214-.399-.393-.95-.534-1.662zm.573 1.768c.243.431.528.749.862.929l.176-.326c-.252-.136-.493-.39-.716-.785zm.867.931q.487.244.996.245v-.37q-.415.001-.83-.206zm.996.245q.51-.001.996-.245l-.166-.33a1.84 1.84 0 0 1-.83.205zm.999-.246c.342-.18.632-.498.876-.93l-.323-.182c-.222.394-.466.648-.725.784zm.875-.93q.38-.668.596-1.768l-.363-.072q-.212 1.063-.554 1.657zm.596-1.768q.219-1.108.218-2.832h-.371q0 1.703-.21 2.76zm16.256.9-.178-.053zm-1.285 2.615-.145-.115h-.001zm-1.939 1.544-.076-.169h-.001zm-4.847 0-.078.168h.001zm-1.917-1.544-.146.114zm-1.274-2.616-.178.051.001.001zm0-7.462-.177-.052h-.001zm1.274-2.616-.146-.114zm1.917-1.533.075.169h.001zm4.847 0-.077.169h.002zm1.939 1.533-.146.114.001.001zm1.285 2.616-.178.052zm-3.359.947-.182.035zm-.575-1.714-.161.09.001.003zm-.801-.845-.086.163.004.002zm-1.826 0 .085.164h.001zm-.789.845-.161-.09-.001.002zm-.552 1.714-.182-.036v.001zm0 5.58-.182.034v.002zm.552 1.713-.163.087.002.004zm.789.857-.088.163.005.002zm1.826 0 .083.165.003-.001zm.801-.857-.161-.092v.001zm.575-1.713-.182-.036zm3.636-2.796q-.001 2.133-.455 3.68l.356.103q.47-1.61.469-3.783zm-.455 3.68q-.455 1.55-1.252 2.552l.29.23q.848-1.073 1.318-2.679zm-1.253 2.553a4.9 4.9 0 0 1-1.869 1.49l.152.337a5.3 5.3 0 0 0 2.009-1.6zm-1.87 1.49a5.6 5.6 0 0 1-2.347.49v.37q1.346 0 2.501-.524zm-2.347.49a5.6 5.6 0 0 1-2.347-.49l-.153.336q1.156.525 2.5.524zm-2.346-.49q-1.062-.486-1.848-1.49l-.292.228q.837 1.07 1.985 1.598zm-1.848-1.49q-.787-1.003-1.242-2.554l-.355.104q.469 1.606 1.305 2.678zm-1.242-2.552q-.442-1.547-.443-3.681h-.371q0 2.172.458 3.782zm-.443-3.681q.001-2.135.443-3.68l-.356-.102q-.458 1.61-.458 3.782zm.443-3.68q.455-1.55 1.242-2.553l-.292-.228q-.836 1.072-1.305 2.678zm1.242-2.553c.524-.67 1.14-1.16 1.846-1.478l-.151-.338q-1.15.517-1.987 1.588zm1.847-1.478q1.077-.49 2.347-.491v-.37q-1.344 0-2.5.524zm2.347-.491q1.27 0 2.347.49l.154-.336a6 6 0 0 0-2.501-.524zm2.349.492a4.8 4.8 0 0 1 1.868 1.477l.292-.228q-.838-1.072-2.011-1.588zm1.869 1.478c.531.67.949 1.518 1.252 2.553l.356-.104q-.47-1.607-1.318-2.679zm1.252 2.553q.454 1.545.455 3.679h.37q.001-2.173-.469-3.783zm-2.782 3.679q0-1.713-.218-2.82l-.363.072q.21 1.057.211 2.748zm-.218-2.82q-.215-1.112-.596-1.771l-.32.186c.226.389.412.937.553 1.656zm-.595-1.769c-.244-.433-.534-.748-.879-.92l-.165.331c.256.128.5.377.722.77zm-.876-.918a2.1 2.1 0 0 0-.999-.258v.37q.413-.001.827.215zm-.999-.258q-.512 0-.999.258l.172.327q.415-.216.827-.215zm-.997.257c-.337.173-.623.488-.866.92l.322.18c.223-.394.463-.643.713-.77zm-.867.922c-.239.436-.427 1.028-.572 1.766l.363.071c.141-.72.321-1.27.534-1.66zm-.572 1.767q-.207 1.107-.206 2.819h.37q0-1.692.2-2.75zm-.206 2.819q0 1.723.206 2.83l.364-.069q-.2-1.057-.2-2.761zm.206 2.832c.145.73.334 1.321.571 1.764l.326-.174c-.213-.399-.393-.95-.534-1.662zm.573 1.768c.243.431.528.749.862.929l.176-.326c-.252-.136-.493-.39-.716-.785zm.867.931q.487.244.996.245v-.37q-.415.001-.83-.206zm.996.245q.51-.001.996-.245l-.165-.33a1.84 1.84 0 0 1-.831.205zm.999-.246c.343-.18.632-.498.876-.93l-.322-.182c-.223.394-.467.648-.726.784zm.875-.93q.38-.668.596-1.768l-.363-.072q-.213 1.063-.554 1.657zm.596-1.768q.218-1.108.218-2.832h-.37q0 1.703-.211 2.76zm16.256.9-.177-.053zm-1.285 2.615-.145-.115zm-1.939 1.544-.076-.169zm-4.847 0-.077.168zm-1.916-1.544-.146.114zm-1.274-2.616-.178.051v.001zm0-7.462-.178-.052zm1.274-2.616-.146-.114zm1.916-1.533.076.169h.001zm4.847 0-.076.169h.002zm1.939 1.533-.145.114v.001zm1.285 2.616-.177.052zm-3.359.947-.182.035h.001zm-.575-1.714-.161.09.001.003zm-.8-.845-.086.163.003.002zm-1.826 0 .084.164h.002zm-.79.845-.161-.09-.001.002zm-.552 1.714-.182-.036v.001zm0 5.58-.182.034.001.002zm.552 1.713-.163.087.002.004zm.79.857-.088.163.005.002zm1.826 0 .083.165.003-.001zm.8-.857-.161-.092v.001zm.575-1.713-.181-.036zm3.637-2.796q-.001 2.133-.455 3.68l.355.103q.47-1.61.47-3.783zm-.455 3.68q-.456 1.55-1.253 2.552l.29.23q.85-1.073 1.318-2.679zm-1.253 2.553a4.9 4.9 0 0 1-1.87 1.49l.152.337a5.3 5.3 0 0 0 2.009-1.6zm-1.87 1.49q-1.077.49-2.347.49v.37q1.344 0 2.5-.524zm-2.347.49a5.6 5.6 0 0 1-2.347-.49l-.154.336q1.155.525 2.501.524zm-2.347-.49q-1.06-.486-1.848-1.49l-.291.228q.837 1.07 1.985 1.598zm-1.848-1.49q-.786-1.003-1.242-2.554l-.355.104q.469 1.606 1.306 2.678zm-1.241-2.552q-.443-1.547-.444-3.681h-.37q-.001 2.172.458 3.782zm-.444-3.681q0-2.135.444-3.68l-.356-.102q-.46 1.61-.458 3.782zm.443-3.68q.456-1.55 1.242-2.553l-.291-.228q-.838 1.072-1.306 2.678zm1.242-2.553c.525-.67 1.14-1.16 1.847-1.478l-.152-.338q-1.149.517-1.986 1.588zm1.848-1.478a5.6 5.6 0 0 1 2.347-.491v-.37q-1.346 0-2.501.524zm2.347-.491q1.27 0 2.347.49l.153-.336a6 6 0 0 0-2.5-.524zm2.349.492a4.8 4.8 0 0 1 1.868 1.477l.291-.228q-.839-1.072-2.01-1.588zm1.868 1.478c.531.67.95 1.518 1.253 2.553l.355-.104q-.469-1.607-1.318-2.679zm1.253 2.553q.454 1.545.455 3.679h.37q0-2.173-.47-3.783zm-2.783 3.679q.001-1.713-.217-2.82l-.363.072q.21 1.057.21 2.748zm-.217-2.82q-.216-1.112-.597-1.771l-.32.186c.226.389.413.937.553 1.656zm-.596-1.769c-.244-.433-.534-.748-.879-.92l-.165.331c.257.128.5.377.722.77zm-.875-.918a2.1 2.1 0 0 0-.999-.258v.37q.412-.001.827.215zm-.999-.258q-.512 0-.999.258l.172.327q.413-.216.827-.215zm-.998.257c-.337.173-.622.488-.866.92l.323.18c.222-.394.462-.643.712-.77zm-.867.922c-.238.436-.427 1.028-.572 1.766l.364.071c.141-.72.32-1.27.533-1.66zm-.572 1.767q-.207 1.107-.206 2.819h.37q.001-1.692.2-2.75zm-.206 2.819q0 1.723.206 2.83l.364-.069q-.199-1.057-.2-2.761zm.207 2.832c.144.73.333 1.321.57 1.764l.327-.174c-.214-.399-.393-.95-.534-1.662zm.572 1.768c.243.431.528.749.863.929l.175-.326c-.252-.136-.493-.39-.715-.785zm.868.931q.486.244.996.245v-.37q-.415.001-.831-.206zm.996.245q.51-.001.995-.245l-.165-.33a1.84 1.84 0 0 1-.83.205zm.999-.246c.342-.18.632-.498.875-.93l-.322-.182c-.222.394-.466.648-.725.784zm.875-.93q.38-.668.596-1.768l-.363-.072q-.213 1.063-.555 1.657zm.596-1.768q.218-1.108.217-2.832h-.37q0 1.703-.21 2.76z"/></g><defs><filter id="a" width="170.126" height="71.553" x=".584" y=".584" color-interpolation-filters="sRGB" filterUnits="userSpaceOnUse"><feFlood flood-opacity="0" result="BackgroundImageFix"/><feColorMatrix in="SourceAlpha" result="hardAlpha" values="0 0 0 0 0 0 0 0 0 0 0 0 0 0 0 0 0 0 127 0"/><feOffset dx="6.039" dy="5.721"/><feComposite in2="hardAlpha" operator="out"/><feColorMatrix values="0 0 0 0 0 0 0 0 0 0 0 0 0 0 0 0 0 0 1 0"/><feBlend in2="BackgroundImageFix" result="effect1_dropShadow_2517_7500"/><feBlend in="SourceGraphic" in2="effect1_dropShadow_2517_7500" result="shape"/></filter></defs></svg>