<svg xmlns="http://www.w3.org/2000/svg" width="847" height="573" fill="none"><path fill="#fff" fill-opacity=".36" d="M788.626 224.448a5.243 5.243 0 1 0 10.487.001 5.243 5.243 0 0 0-10.487-.001m-161.24 0a5.244 5.244 0 1 0 10.488 0 5.244 5.244 0 0 0-10.488 0m166.483-.983H632.63v1.966h161.239zM215.439 165.815a5.244 5.244 0 1 0 10.488 0 5.244 5.244 0 0 0-10.488 0m-161.24 0a5.244 5.244 0 1 0 10.489 0 5.244 5.244 0 0 0-10.488 0m166.484-.983H59.443v1.967h161.24zM788.134 347.836a5.243 5.243 0 1 0 10.487 0 5.243 5.243 0 0 0-10.487 0m-150.917 0a5.243 5.243 0 1 0 10.487 0 5.243 5.243 0 0 0-10.487 0m156.16-.983H642.461v1.966h150.916zM205.116 266.591a5.243 5.243 0 1 0 10.487 0 5.243 5.243 0 0 0-10.487 0m-150.916 0a5.243 5.243 0 1 0 10.486 0 5.243 5.243 0 0 0-10.486 0m156.16-.983H59.443v1.966H210.36zM205.116 360.975a5.243 5.243 0 1 0 10.487 0 5.243 5.243 0 0 0-10.487 0m-150.916 0a5.243 5.243 0 1 0 10.486 0 5.243 5.243 0 0 0-10.486 0m156.16-.984H59.443v1.967H210.36zM836.31 514.482a5.244 5.244 0 1 0 10.488 0 5.244 5.244 0 0 0-10.488 0m5.243 52.6v.983h.984v-.983zm-351.318 0a5.243 5.243 0 1 0 10.487 0 5.243 5.243 0 0 0-10.487 0m350.335-52.6v52.6h1.967v-52.6zm.983 51.617H495.479v1.966h346.074zM836.31 58.082a5.244 5.244 0 1 1 10.487 0 5.244 5.244 0 0 1-10.487 0m5.243-52.6V4.5h.984v.984zm-351.318 0a5.244 5.244 0 1 1 10.488.001 5.244 5.244 0 0 1-10.488 0m350.335 52.6v-52.6h1.967v52.6zm.983-51.616H495.479V4.499h346.074zM10.612 511.893a5.243 5.243 0 1 1-10.486 0 5.243 5.243 0 0 1 10.486 0M5.368 538.93v.983h-.983v-.983zm351.319 0a5.243 5.243 0 1 1-10.487 0 5.243 5.243 0 0 1 10.487 0M6.352 511.893v27.037H4.385v-27.037zm-.984 26.054h346.075v1.966H5.368z"/></svg>