<svg xmlns="http://www.w3.org/2000/svg" width="723" height="690" fill="none"><path fill="#000" d="m598.723 50.85 10.256 35.744 25.666-26.598zm105.675 365.121c-50.697 191.864-245.147 305.664-434.26 254.278l-1.64 6.208c192.605 52.335 390.512-63.58 442.096-258.802zm-434.26 254.278C81.026 618.864-31.262 421.718 19.434 229.854l-6.196-1.684c-51.585 195.222 62.655 395.953 255.26 448.287zM617.185 73.257c83.327 87.799 120.587 216.409 87.213 342.714l6.196 1.684c33.963-128.534-3.955-259.441-88.78-348.819zM19.434 229.854C45.718 130.382 110.644 51.889 193.441 6.52L190.343.87C106.067 47.05 39.984 126.947 13.238 228.17z"/></svg>