<svg xmlns="http://www.w3.org/2000/svg" width="527" height="537" fill="none"><mask id="a" width="528" height="536" x="0" y="-1" maskUnits="userSpaceOnUse" style="mask-type:alpha"><path fill="#D9D9D9" stroke="#000" strokeWidth=".772" d="M263.714 533.929c145.317 0 263.111-119.459 263.111-266.807S409.031.315 263.714.315C118.396.315.602 119.774.602 267.122s117.794 266.807 263.112 266.807Z"/></mask><g mask="url(#a)"><path fill="#A393FE" d="M479.537 532.715q0 .01-.012.011h-64.417c-6.445 0-8.037-8.947-2.05-11.336 2.863-1.142 3.911-4.109 2.178-6.659-7.888-11.604-30.369-40.169-44.793-57.083-5.752-6.745-11.27-3.842-9.367 4.817 2.131 9.687 4.777 19.266 6.746 28.985.754 3.749 1.262 7.163 4.546 9.657 1.077.818 1.816 2.587 2.023 4.021.716 5.066 1.116 10.187 1.692 15.276.093.834.224 2.003.77 2.401 3.384 2.486 1.4 5.198.561 7.926-.907 2.954-3.315 2.362-5.361 2.37-16.462.046-32.931.077-49.392.007-14.423-.062-28.846-.366-43.269-.374-14.423 0-28.846.265-43.269.359-9.111.059-18.214.012-27.109.008-.785-.001-2.057-.365-1.853-1.123 2.185-7.989-.415-17.255 6.285-24.075.608-.616.654-1.917.746-2.915 1.323-14.691 2.977-29.36 3.754-44.082.361-6.882-.677-13.897-1.639-20.771-.723-5.128-3.492-6.032-8.23-3.25a1683 1683 0 0 0-19.092 11.395c-19.239 11.659-38.785 22.851-57.554 35.251-9.438 6.236-17.446 14.676-26.077 22.158-1.217 1.058.007 3.133 1.614 3.264 27.833 2.265 52.806 12.784 78.164 22.287.975.365.779 1.876-.263 1.876-16.461.023-32.93.07-49.392 0-14.423-.062-28.846-.288-43.269-.382-2.423-.015-4.9.616-7.261.281-1.939-.273-4.223-1.068-5.493-2.447-2.238-2.432-4.684-1.419-6.161-.25-4.208 3.344-9.016 2.627-13.6 2.72-11.992.25-23.992.086-35.984.07-1.196 0-1.853-1.431-1.22-2.446 1.303-2.093 2.485-4.017 3.789-5.854 7.823-11.036 15.146-22.493 23.753-32.867 6.523-7.864 14.631-14.395 22.162-21.379 4.23-3.928 8.53-7.825 13.146-11.262 3.423-2.548 7.561-4.107 11.1-6.523 4.361-2.977 8.708-6.079 12.577-9.665 7.061-6.539 13.407-13.896 20.7-20.139 12.369-10.592 25.023-20.88 37.992-30.708 5.724-4.338 12.274-7.565 18.704-11.248 1.02-.585 1.672-1.984.942-2.906-3.362-4.271-3.131-5.744 1.477-8.799q6.022-3.997.7-8.706c-.577-.514-1.131-1.052-1.693-1.582-8.361-7.911-9.069-11.667-2.984-21.721 3.661-6.048 8.292-11.255 15.361-13.686 4.639-1.598 8.069.288 11.546 2.899 6.339 4.754 9.708 11.621 13.039 18.534.45.938.997 1.827 1.505 2.699.176.3.542.487.864.356 7.723-3.258 8.992-9.173 6.869-16.679-1.815-6.422-3.261-12.953-5.054-19.383-.907-3.25-3.269-4.7-6.607-5.55-25.723-6.554-49.531-17.31-70.3-34.285-14.123-11.543-25.7-25.135-31.569-42.944-1.038-3.157-1.923-6.399-2.462-9.672-.569-3.445-2.015-5.238-5.569-6.282-12.33-3.617-23.4-9.828-29.707-21.535-8.87-16.445-5.508-25.182 4.123-38.509 8.154-11.294 19.492-15.058 32.677-14.793 2.046.039 4.123.249 6.13-.039 1.223-.171 2.854-.826 3.423-1.793 8.777-14.964 22.123-24.893 36.377-33.685 10.777-6.648 22.285-12.142 32.715-19.266 6.454-4.404 11.8-10.631 17.123-16.531 6.962-7.724 15.423-11.956 25.462-13.624 2.277-.374 4.615-1.48 6.515-2.837 2.876-2.038 5.199-2.83 7.249-2.28 3.478.931 6.953 2.468 10.312 1.174 5.3-2.05 10.57 1.13 11.293 6.827.284 2.237.853 3.336 3.392 3.624 3.892.444 6.331 3.741 6.577 7.849.431 7.131 5.454 12.898 12.346 14.777 4.277 1.169 8.4 2.954 12.6 4.427 6.715 2.361 13.423 4.739 20.177 6.99 1 .336 2.215.04 3.323-.015 5.246-.265 10.5-.46 15.73-.896 1.5-.125 3-.842 4.416-1.489 7.177-3.289 14.354-4.653 22.454-3.335 6.73 1.099 13.692.428 20.199 3.445 9.185 4.255 18.293 9.212 23.493 17.972 8.223 13.858 13.853 28.705 10.538 45.703-2.408 12.369-7.7 22.618-17.654 30.28-.4.311-1.077.686-1.077 1.028.031 4.201-.169 8.449.446 12.564.216 1.419 2.339 2.868 3.893 3.71 7.223 3.897 13.654 8.644 18.046 15.837 2.492 4.084 2.223 6.516-.939 10.195-1.7 1.979-3.077 3.374-.261 6.531 5.169 5.791 3.323 11.075-2.7 14.691-10.069 6.056-20.454 11.567-30.592 17.513-15.216 8.924-30.392 17.903-45.446 27.1-5.439 3.32-10.723 7.03-15.569 11.176-2.277 1.948-4.193 5.16-4.816 8.106-1.761 8.277-2.746 16.725-4.1 25.104-.5 3.109.939 4.77 3.593 5.954 2.076.928 4.615 1.769 5.815 3.476 1.408 2.003 1.969 4.864 2.192 7.42.2 2.221.554 3.679 2.9 4.232 6.262 1.489 12.454 3.344 18.762 4.567 5.9 1.146 9.246 4.872 9.915 10.966.323 2.954 1.438 6.064 2.985 8.597 5.1 8.371 10.707 16.414 15.861 24.753 8.246 13.343 16.2 26.874 24.454 40.217 2.023 3.265 4.569 6.235 7.13 9.111 15.793 17.684 29.939 36.608 42.554 56.755 3.676 5.868 8.183 11.206 12.728 17.354zM222.053 344.667q-.007-.004-.011.002c-1.083 2.568-2.228 4.771-2.911 7.115-.657 2.248 2.568 5.446 4.246 3.811.907-.881 1.223-2.931.992-4.333-.346-2.112-1.4-4.099-2.315-6.593z"/></g><path stroke="#F0F0EA" strokeWidth="7.722" d="M516.627 276.606c0 141.725-113.284 256.524-252.913 256.524S10.802 418.331 10.802 276.606 124.085 20.082 263.714 20.082 516.627 134.88 516.627 276.606Z"/></svg>