<svg xmlns="http://www.w3.org/2000/svg" width="743" height="753" fill="none"><g stroke="#000" strokeWidth="2.317" opacity=".22"><path d="M666.958 376.572c0 165.644-132.414 299.897-295.721 299.897-163.306 0-295.72-134.253-295.72-299.897 0-165.643 132.414-299.896 295.72-299.896s295.721 134.253 295.721 299.896Z" opacity=".2"/><path d="M703.002 376.573c0 185.829-148.551 336.446-331.763 336.446-183.213 0-331.764-150.617-331.764-336.446S188.026 40.127 371.24 40.127c183.212 0 331.763 150.617 331.763 336.446Z" opacity=".2"/><path d="M740.941 376.572c0 207.078-165.537 374.92-369.703 374.92-204.167 0-369.704-167.842-369.704-374.92S167.071 1.652 371.238 1.652c204.166 0 369.703 167.842 369.703 374.92Z" opacity=".2"/></g></svg>