<svg width="17" height="16" viewBox="0 0 17 16" fill="none" xmlns="http://www.w3.org/2000/svg">
<path d="M10.9987 8.60001V11.4C10.9987 13.7333 10.0654 14.6667 7.73203 14.6667H4.93203C2.59869 14.6667 1.66536 13.7333 1.66536 11.4V8.60001C1.66536 6.26668 2.59869 5.33334 4.93203 5.33334H7.73203C10.0654 5.33334 10.9987 6.26668 10.9987 8.60001Z" stroke="white" stroke-linecap="round" stroke-linejoin="round"/>
<path d="M14.9987 4.60001V7.40001C14.9987 9.73334 14.0654 10.6667 11.732 10.6667H10.9987V8.60001C10.9987 6.26668 10.0654 5.33334 7.73203 5.33334H5.66536V4.60001C5.66536 2.26668 6.59869 1.33334 8.93203 1.33334H11.732C14.0654 1.33334 14.9987 2.26668 14.9987 4.60001Z" stroke="white" stroke-linecap="round" stroke-linejoin="round"/>
</svg>
