<svg width="228" height="132" viewBox="0 0 228 132" fill="none" xmlns="http://www.w3.org/2000/svg">
<path opacity="0.1" d="M19.766 119.875C15.2817 119.875 11.6147 116.235 11.9507 111.763C12.8103 100.324 15.4841 89.0758 19.8873 78.4456C25.3279 65.3107 33.3024 53.3761 43.3554 43.3231C53.4084 33.2701 65.343 25.2956 78.4779 19.855C91.6127 14.4143 105.691 11.6141 119.908 11.6141C134.125 11.6141 148.203 14.4143 161.337 19.855C174.472 25.2956 186.407 33.2701 196.46 43.3231C206.513 53.3761 214.487 65.3107 219.928 78.4456C224.331 89.0758 227.005 100.324 227.865 111.763C228.201 116.235 224.534 119.875 220.049 119.875C215.565 119.875 211.967 116.233 211.572 111.766C210.749 102.461 208.512 93.3195 204.925 84.66C200.3 73.4954 193.522 63.351 184.977 54.8059C176.432 46.2609 166.288 39.4826 155.123 34.858C143.958 30.2335 131.992 27.8533 119.908 27.8533C107.823 27.8533 95.857 30.2335 84.6923 34.858C73.5277 39.4826 63.3833 46.2609 54.8382 54.8059C46.2932 63.3509 39.5149 73.4954 34.8904 84.66C31.3035 93.3195 29.0668 102.461 28.2436 111.766C27.8484 116.233 24.2503 119.875 19.766 119.875Z" fill="black"/>
<path fill-rule="evenodd" clip-rule="evenodd" d="M119.912 38.9422C120.072 38.9422 120.233 38.9426 120.393 38.9436L120.406 36.8415C120.241 36.8405 120.077 36.84 119.912 36.84C119.747 36.84 119.582 36.8405 119.418 36.8415L119.43 38.9436C119.591 38.9426 119.751 38.9422 119.912 38.9422ZM108.871 39.6988C109.189 39.655 109.507 39.6131 109.826 39.5731L109.564 37.4874C109.237 37.5284 108.91 37.5714 108.584 37.6163L108.871 39.6988ZM129.998 39.5731C130.317 39.6131 130.635 39.655 130.953 39.6988L131.24 37.6163C130.914 37.5714 130.587 37.5284 130.26 37.4874L129.998 39.5731ZM98.5001 41.8259C98.8097 41.741 99.1198 41.6579 99.4304 41.5766L98.8984 39.5429C98.5798 39.6263 98.2616 39.7115 97.9439 39.7987L98.5001 41.8259ZM140.393 41.5766C140.704 41.6579 141.014 41.741 141.324 41.8259L141.88 39.7987C141.562 39.7115 141.244 39.6263 140.925 39.5429L140.393 41.5766ZM88.9401 45.1028C89.0884 45.0414 89.2369 44.9804 89.3856 44.9199L88.5927 42.973C88.4402 43.0351 88.2878 43.0977 88.1356 43.1607C87.9834 43.2237 87.8315 43.2872 87.6797 43.3511L88.4957 45.2885C88.6436 45.2262 88.7917 45.1643 88.9401 45.1028ZM150.438 44.9199C150.587 44.9804 150.735 45.0414 150.884 45.1028C151.032 45.1643 151.18 45.2262 151.328 45.2885L152.144 43.3512C151.992 43.2872 151.84 43.2237 151.688 43.1607C151.536 43.0977 151.384 43.0351 151.231 42.973L150.438 44.9199ZM79.029 50.0272C79.306 49.865 79.584 49.7045 79.863 49.5456L78.8228 47.7189C78.5366 47.8819 78.2513 48.0466 77.9671 48.2129L79.029 50.0272ZM159.961 49.5456C160.24 49.7045 160.518 49.865 160.795 50.0272L161.857 48.2129C161.572 48.0466 161.287 47.8819 161.001 47.7189L159.961 49.5456ZM70.2617 55.961C70.5153 55.764 70.77 55.5686 71.0258 55.3747L69.756 53.6994C69.4936 53.8983 69.2323 54.0988 68.9721 54.3009L70.2617 55.961ZM168.798 55.3747C169.054 55.5686 169.308 55.7641 169.562 55.961L170.852 54.3009C170.592 54.0988 170.33 53.8983 170.068 53.6994L168.798 55.3747ZM62.6835 62.6469C62.797 62.5334 62.9109 62.4202 63.0251 62.3074L61.5475 60.8121C61.4303 60.9279 61.3135 61.044 61.197 61.1605C61.0806 61.277 60.9644 61.3938 60.8487 61.5109L62.3439 62.9885C62.4568 62.8743 62.5699 62.7605 62.6835 62.6469ZM55.4113 70.9893C55.6051 70.7334 55.8006 70.4787 55.9976 70.2252L54.3374 68.9356C54.1354 69.1957 53.9348 69.457 53.7359 69.7195L55.4113 70.9893ZM183.826 70.2252C184.023 70.4787 184.219 70.7334 184.412 70.9893L186.088 69.7195C185.889 69.457 185.688 69.1957 185.486 68.9356L183.826 70.2252ZM49.5822 79.8265C49.741 79.5475 49.9016 79.2695 50.0637 78.9924L48.2495 77.9305C48.0831 78.2148 47.9184 78.5 47.7554 78.7863L49.5822 79.8265ZM189.76 78.9924C189.922 79.2695 190.083 79.5475 190.242 79.8265L192.068 78.7863C191.905 78.5 191.741 78.2148 191.574 77.9305L189.76 78.9924ZM45.1394 88.9036C45.2008 88.7552 45.2627 88.6071 45.325 88.4591L43.3877 87.6431C43.3238 87.7949 43.2603 87.9469 43.1972 88.0991C43.1552 88.2005 43.1134 88.3019 43.0719 88.4035C43.051 88.4544 43.0302 88.5053 43.0095 88.5562L44.9564 89.3491C45.0169 89.2004 45.0779 89.0519 45.1394 88.9036ZM194.499 88.4592C194.561 88.6071 194.623 88.7552 194.684 88.9036C194.746 89.0519 194.807 89.2004 194.867 89.3491L196.814 88.5562C196.752 88.4037 196.69 88.2513 196.627 88.0991C196.563 87.9469 196.5 87.7949 196.436 87.6432L194.499 88.4592ZM41.6132 99.3938C41.6944 99.0833 41.7775 98.7732 41.8624 98.4635L39.8352 97.9074C39.748 98.2251 39.6628 98.5432 39.5795 98.8618L41.6132 99.3938ZM197.961 98.4635C198.046 98.7732 198.129 99.0833 198.211 99.3938L200.244 98.8618C200.161 98.5432 200.076 98.2251 199.989 97.9074L197.961 98.4635ZM39.6097 109.789C39.6497 109.47 39.6916 109.152 39.7354 108.834L37.6529 108.547C37.6079 108.874 37.565 109.2 37.5239 109.527L39.6097 109.789ZM200.088 108.834C200.132 109.152 200.174 109.47 200.214 109.789L202.3 109.527C202.259 109.2 202.216 108.874 202.171 108.547L200.088 108.834ZM38.9787 119.875C38.9787 119.715 38.9792 119.554 38.9801 119.394L36.878 119.381C36.877 119.546 36.8765 119.711 36.8765 119.875H38.9787ZM200.844 119.394C200.845 119.554 200.845 119.715 200.845 119.875H202.947C202.947 119.711 202.947 119.546 202.946 119.381L200.844 119.394Z" fill="#3C4254"/>
<path d="M176.943 62.1617C177.057 62.2745 177.171 62.3877 177.285 62.5013C177.398 62.6148 177.511 62.7286 177.624 62.8428L179.119 61.3652C179.004 61.2481 178.888 61.1313 178.771 61.0148C178.655 60.8983 178.538 60.7822 178.421 60.6664L176.943 62.1617Z" fill="black"/>
<g filter="url(#filter0_d_0_110)">
<path d="M29.8917 59.7286C19.5034 75.2758 13.3448 93.2082 11.9507 111.763C11.6147 116.235 15.2817 119.875 19.766 119.875C24.2504 119.875 27.8484 116.233 28.2436 111.766C29.6005 96.4268 34.7908 81.6264 43.3941 68.7506C53.5057 53.6176 67.8774 41.8229 84.6923 34.858C101.507 27.8931 120.01 26.0707 137.86 29.6214C150.777 32.1906 153.401 16.1553 141.028 13.6943C120.028 9.51697 98.2601 11.6609 78.4779 19.8549C58.6957 28.049 41.7877 41.9251 29.8917 59.7286Z" fill="#4B2ED1"/>
</g>
<path d="M144.474 22.1248C144.474 23.8663 143.062 25.2781 141.32 25.2781C139.579 25.2781 138.167 23.8663 138.167 22.1248C138.167 20.3833 139.579 18.9716 141.32 18.9716C143.062 18.9716 144.474 20.3833 144.474 22.1248Z" fill="white"/>
<defs>
<filter id="filter0_d_0_110" x="0.498158" y="0.182896" width="159.984" height="131.124" filterUnits="userSpaceOnUse" color-interpolation-filters="sRGB">
<feFlood flood-opacity="0" result="BackgroundImageFix"/>
<feColorMatrix in="SourceAlpha" type="matrix" values="0 0 0 0 0 0 0 0 0 0 0 0 0 0 0 0 0 0 127 0" result="hardAlpha"/>
<feOffset/>
<feGaussianBlur stdDeviation="5.71555"/>
<feColorMatrix type="matrix" values="0 0 0 0 0.294118 0 0 0 0 0.180392 0 0 0 0 0.819608 0 0 0 0.6 0"/>
<feBlend mode="normal" in2="BackgroundImageFix" result="effect1_dropShadow_0_110"/>
<feBlend mode="normal" in="SourceGraphic" in2="effect1_dropShadow_0_110" result="shape"/>
</filter>
</defs>
</svg>
