<svg xmlns="http://www.w3.org/2000/svg" width="365" height="98" fill="none"><g filter="url(#a)"><g filter="url(#b)"><mask id="c" width="357" height="86" x="4.006" y="0" fill="#000" maskUnits="userSpaceOnUse"><path fill="#fff" d="M4.006 0h357v86h-357z"/><path fillRule="evenodd" d="M353.144 3 328.53 21.985l27.463 21.183v1.477L328.53 65.828 350.793 83H7.006V3z" clipRule="evenodd"/></mask><path fill="#7A64F4" fillRule="evenodd" d="M353.144 3 328.53 21.985l27.463 21.183v1.477L328.53 65.828 350.793 83H7.006V3z" clipRule="evenodd"/><path fill="#fff" d="m328.53 21.985-1.5-1.944-2.52 1.944 2.52 1.944zM353.144 3l1.499 1.944 5.704-4.4h-7.203zm2.849 40.168h2.456v-1.207l-.956-.737zm0 1.477 1.5 1.944.956-.737v-1.207zM328.53 65.828l-1.5-1.944-2.52 1.944 2.52 1.944zM350.793 83v2.455h7.204l-5.704-4.4zM7.006 83H4.55v2.455h2.455zm0-80V.545H4.55V3zm323.023 20.93 24.614-18.986-2.999-3.888L327.03 20.04zm27.464 17.294L330.029 20.04l-2.999 3.888 27.464 21.183zm.956 3.42v-1.476h-4.911v1.477zm-28.42 23.128 27.464-21.183-2.999-3.888-27.464 21.183zm22.264 13.284-22.264-17.172-2.999 3.888 22.264 17.172zm-345.287 4.4h343.787v-4.911H7.006zM4.55 3v80h4.91V3zM353.144.545H7.006v4.91h346.138z" mask="url(#c)"/></g><path fill="#fff" d="M49.168 44.534v1.308a9.3 9.3 0 0 1-.68 3.533 9.6 9.6 0 0 1-1.884 2.93 9.2 9.2 0 0 1-2.8 2.067 9.2 9.2 0 0 1-3.453.916 9 9 0 0 1-3.559-.445 9.9 9.9 0 0 1-3.06-1.675 10 10 0 0 1-2.25-2.642 9.2 9.2 0 0 1-1.126-3.428 9.5 9.5 0 0 1 .21-3.584 9.3 9.3 0 0 1 1.465-3.14 9.7 9.7 0 0 1 2.511-2.407 8.9 8.9 0 0 1 3.323-1.387 9.2 9.2 0 0 1 1.858-.183q1.57 0 3.035.497a9.3 9.3 0 0 1 2.669 1.413q1.203.915 2.093 2.224a8.7 8.7 0 0 1 1.334 2.852h-2.747a6.8 6.8 0 0 0-1.047-1.832 6.5 6.5 0 0 0-1.49-1.36 7 7 0 0 0-1.806-.89 6.5 6.5 0 0 0-2.015-.314q-.837 0-1.57.183a6.5 6.5 0 0 0-2.276.995 6.6 6.6 0 0 0-1.727 1.674 6.82 6.82 0 0 0-1.282 4.605 7.2 7.2 0 0 0 .654 2.381 7.1 7.1 0 0 0 1.413 1.936 6.8 6.8 0 0 0 1.989 1.335q1.125.497 2.407.575a6.5 6.5 0 0 0 2.46-.314 7 7 0 0 0 2.118-1.125 6.8 6.8 0 0 0 1.596-1.779 6.3 6.3 0 0 0 .916-2.302H40.09v-2.617zM60.48 55a9.2 9.2 0 0 1-3.506-.68 8.6 8.6 0 0 1-2.904-2.041 8.9 8.9 0 0 1-1.962-3.01 9.3 9.3 0 0 1-.654-3.427q0-1.752.654-3.427a8.9 8.9 0 0 1 1.962-3.01 8.8 8.8 0 0 1 2.904-2.014 8.9 8.9 0 0 1 3.506-.706H76.57q1.833 0 3.48.706a8.7 8.7 0 0 1 2.93 2.015 8.9 8.9 0 0 1 1.963 3.009 9.4 9.4 0 0 1 .654 3.427 9.3 9.3 0 0 1-.654 3.428 8.9 8.9 0 0 1-1.962 3.009 8.5 8.5 0 0 1-2.93 2.04 9 9 0 0 1-3.48.681zm16.091-2.538q1.282 0 2.434-.497a6.5 6.5 0 0 0 2.093-1.413 6.8 6.8 0 0 0 1.413-2.198q.47-1.23.47-2.512t-.47-2.511a6.4 6.4 0 0 0-1.413-2.198 6.5 6.5 0 0 0-2.093-1.413 6.1 6.1 0 0 0-2.434-.497H60.48q-1.282 0-2.46.497a6.6 6.6 0 0 0-2.067 1.413 6.4 6.4 0 0 0-1.413 2.198 7 7 0 0 0-.471 2.511q0 1.282.47 2.512a6.8 6.8 0 0 0 1.414 2.198 6.6 6.6 0 0 0 2.067 1.413 6.3 6.3 0 0 0 2.46.497zm32.456-15.751v2.616h-4.893V55h-2.616V39.327h-4.893v-2.616zm16.253 2.486a9.6 9.6 0 0 1 1.962 3.14 9.8 9.8 0 0 1 .654 3.505 9.8 9.8 0 0 1-.654 3.506 9.6 9.6 0 0 1-1.962 3.14 8.7 8.7 0 0 1-2.931 2.093 8.5 8.5 0 0 1-3.48.733 8.6 8.6 0 0 1-3.48-.733 8.8 8.8 0 0 1-2.904-2.093 9.6 9.6 0 0 1-1.962-3.14 9.8 9.8 0 0 1-.654-3.506q0-1.779.654-3.506a9.6 9.6 0 0 1 1.962-3.14 8.8 8.8 0 0 1 2.904-2.093 8.6 8.6 0 0 1 3.48-.732q1.831 0 3.48.732a8.7 8.7 0 0 1 2.931 2.094m-1.884 11.512a6.9 6.9 0 0 0 1.413-2.276 7.5 7.5 0 0 0 .471-2.59q0-1.31-.471-2.565a6.85 6.85 0 0 0-1.413-2.302 6.4 6.4 0 0 0-2.067-1.465 5.9 5.9 0 0 0-2.46-.524q-1.281 0-2.459.523a6.5 6.5 0 0 0-2.041 1.466 7.2 7.2 0 0 0-1.439 2.302 7.3 7.3 0 0 0-.471 2.564q0 1.31.471 2.59a7.3 7.3 0 0 0 1.439 2.277 6.5 6.5 0 0 0 2.041 1.465 6 6 0 0 0 2.459.523q1.308 0 2.46-.523a6.4 6.4 0 0 0 2.067-1.465m29.544 1.648v2.617H140.38v-18.29h2.59v15.673zM170.651 55h-2.799l-1.701-4.108h-7.719l-1.7 4.108h-2.8l7.535-18.315h1.649zm-5.573-6.724-2.773-6.777-2.8 6.777zm21.334-11.591v10.44a9.9 9.9 0 0 1-.497 3.14 7.9 7.9 0 0 1-1.439 2.616 7.3 7.3 0 0 1-2.303 1.779q-1.334.654-3.035.654a6.9 6.9 0 0 1-2.982-.68 7.8 7.8 0 0 1-1.675-1.073 7.4 7.4 0 0 1-1.387-1.622 8.6 8.6 0 0 1-.915-2.146q-.315-1.203-.314-2.669v-10.44h2.616v10.44q0 1.073.288 2.094.288.993.863 1.779.602.759 1.465 1.23.89.47 2.041.47t2.015-.47a4.4 4.4 0 0 0 1.465-1.23 5.3 5.3 0 0 0 .89-1.78q.314-1.02.314-2.093v-10.44zm18.453 0V55h-1.229l-10.99-12.978V55h-2.59V36.685h1.492l10.701 12.637V36.685zm19.116 10.91h2.669a9.4 9.4 0 0 1-1.282 3.297 9.7 9.7 0 0 1-2.329 2.512 9.5 9.5 0 0 1-3.061 1.517 9.3 9.3 0 0 1-3.48.34 9.7 9.7 0 0 1-3.401-.967 9.7 9.7 0 0 1-2.722-2.067 9.8 9.8 0 0 1-1.805-2.905 9.4 9.4 0 0 1-.654-3.48 9.2 9.2 0 0 1 .654-3.453 9.4 9.4 0 0 1 1.805-2.905 9.7 9.7 0 0 1 2.722-2.067 9.4 9.4 0 0 1 3.401-.994 9.3 9.3 0 0 1 3.48.34 9.2 9.2 0 0 1 3.061 1.544 9.2 9.2 0 0 1 2.329 2.512 9.1 9.1 0 0 1 1.282 3.27h-2.669a6.4 6.4 0 0 0-.916-2.014 6.1 6.1 0 0 0-1.465-1.596 6.7 6.7 0 0 0-1.884-1.073 6.6 6.6 0 0 0-2.198-.419 6.7 6.7 0 0 0-2.197.314 7.2 7.2 0 0 0-1.937.968 6.7 6.7 0 0 0-1.543 1.518 7.1 7.1 0 0 0-1.021 1.988 7 7 0 0 0-.314 2.224q.027 1.1.393 2.12a7 7 0 0 0 1.046 1.91 6.7 6.7 0 0 0 1.623 1.517 6.4 6.4 0 0 0 1.831.89 7.5 7.5 0 0 0 1.962.261q1.152 0 2.224-.366a7.8 7.8 0 0 0 1.963-1.046 6.7 6.7 0 0 0 1.517-1.623 6.7 6.7 0 0 0 .916-2.067m18.956-10.91V55h-2.617v-7.797h-8.006V55h-2.616V36.685h2.616v7.928h8.006v-7.928zm17.008 3.846a7.34 7.34 0 0 1 0 5.024q-.315.81-.812 1.517a5.6 5.6 0 0 1-1.203 1.204 6 6 0 0 1-1.57.81 6.4 6.4 0 0 1-1.962.289h-4.972V55h-2.616V36.71h7.509q1.1 0 1.989.315.915.288 1.622.811a4.9 4.9 0 0 1 1.203 1.204q.498.68.812 1.491m-2.434 4.108a4.39 4.39 0 0 0 0-3.192 3.3 3.3 0 0 0-1.151-1.518q-.785-.602-2.041-.602h-4.893v7.457h4.972a3.22 3.22 0 0 0 1.91-.55 3.14 3.14 0 0 0 1.203-1.595M276.621 55h-2.8l-1.7-4.108h-7.719L262.701 55h-2.799l7.535-18.315h1.649zm-5.573-6.724-2.774-6.777-2.799 6.777zm39.312-6.097a11.1 11.1 0 0 1 .628 3.663q0 1.858-.628 3.663a9.5 9.5 0 0 1-1.125 2.172 7.9 7.9 0 0 1-1.649 1.753 7.4 7.4 0 0 1-2.171 1.151q-1.23.42-2.721.419h-23.601V36.659h23.601q1.491 0 2.721.444 1.23.42 2.171 1.178a7.2 7.2 0 0 1 1.649 1.753 9 9 0 0 1 1.125 2.145m-2.46 6.437a8.42 8.42 0 0 0 0-5.547 6.5 6.5 0 0 0-.758-1.465 5 5 0 0 0-1.125-1.204 4.6 4.6 0 0 0-1.466-.811 5.3 5.3 0 0 0-1.857-.314H281.71v13.109h20.984q1.02 0 1.857-.288a4.9 4.9 0 0 0 1.466-.785q.654-.524 1.125-1.204.471-.706.758-1.491"/><path fill="#fff" d="M49.168 44.534h.74v-.739h-.74zm-.68 4.84.683.282.002-.003zm-1.884 2.931-.538-.506-.006.006zm-2.8 2.067-.321-.665-.004.002zm-3.453.916.052.737zm-3.559-.445-.236.7zm-3.06-1.675-.47.57.005.005zm-2.25-2.642-.644.364.004.006.004.007zm-1.126-3.428-.733.093zm.21-3.584-.716-.184zm1.465-3.14.598.432zm2.511-2.407.41.614.008-.005zm3.323-1.387.145.724h.004zm4.893.314-.237.7zm2.669 1.413-.447.588zm2.093 2.224-.61.415.004.007.005.007zm1.334 2.852v.739h.962l-.248-.93zm-2.747 0-.69.265.183.474h.507zM45.06 41.55l.576-.463zm-1.49-1.36-.42.609.007.004.007.004zm-5.39-1.02.164.72.007-.002.007-.002zm-2.277.994.41.614.01-.007zm-1.727 1.674.597.436.005-.008zm-1.047 2.146-.71-.205zm-.235 2.46-.736.06v.007l.001.007zm.654 2.38-.667.318.003.006.003.007zm1.413 1.936-.514.53zm1.989 1.335.298-.676zm2.407.575-.045.738zm4.578-1.439-.453-.583zm1.596-1.779-.619-.403-.007.012zm.916-2.302.726.136.164-.875h-.89zm-6.358 0h-.739v.738h.74zm0-2.617v-.739h-.739v.74zm8.34 0v1.308h1.478v-1.308zm0 1.308q0 1.718-.625 3.255l1.368.556c.49-1.207.735-2.48.735-3.81zm-.624 3.25a8.9 8.9 0 0 1-1.74 2.707l1.078 1.012q1.296-1.383 2.028-3.155zm-1.745 2.713a8.5 8.5 0 0 1-2.577 1.902l.643 1.33a9.9 9.9 0 0 0 3.022-2.232zM43.48 53.71a8.5 8.5 0 0 1-3.18.842l.104 1.474a10 10 0 0 0 3.728-.99zm-3.18.842a8.3 8.3 0 0 1-3.27-.408l-.473 1.4a9.8 9.8 0 0 0 3.847.482zm-3.27-.408a9.1 9.1 0 0 1-2.834-1.55l-.928 1.15a10.6 10.6 0 0 0 3.289 1.8zm-2.828-1.545a9.3 9.3 0 0 1-2.084-2.45l-1.271.755a10.7 10.7 0 0 0 2.416 2.836zm-2.077-2.436a8.5 8.5 0 0 1-1.035-3.157l-1.466.186a10 10 0 0 0 1.215 3.7zm-1.035-3.157a8.7 8.7 0 0 1 .192-3.307l-1.431-.368a10.2 10.2 0 0 0-.227 3.861zm.192-3.307a8.5 8.5 0 0 1 1.348-2.892l-1.197-.865a10 10 0 0 0-1.582 3.389zm1.348-2.892a9 9 0 0 1 2.323-2.224l-.82-1.23a10.5 10.5 0 0 0-2.7 2.59zm2.33-2.23a8.2 8.2 0 0 1 3.051-1.272l-.29-1.448a9.7 9.7 0 0 0-3.595 1.501zm3.055-1.272a8.5 8.5 0 0 1 1.709-.168v-1.478q-1.038 0-2.007.198zm1.709-.168q1.45 0 2.798.458l.474-1.4a10.1 10.1 0 0 0-3.272-.536zm2.798.458q1.353.46 2.459 1.3l.894-1.175a10 10 0 0 0-2.879-1.525zm2.459 1.3a8.7 8.7 0 0 1 1.93 2.052l1.22-.83a10.2 10.2 0 0 0-2.256-2.397zm1.939 2.066q.836 1.17 1.222 2.613l1.427-.38a9.5 9.5 0 0 0-1.447-3.091zm1.935 1.684h-2.747v1.478h2.747zm-2.057.474a7.5 7.5 0 0 0-1.161-2.03l-1.15.927q.578.716.932 1.633zm-1.161-2.03a7.2 7.2 0 0 0-1.662-1.515l-.81 1.235q.737.483 1.322 1.207zm-1.648-1.506a7.7 7.7 0 0 0-1.996-.983l-.456 1.405a6.2 6.2 0 0 1 1.615.796zm-1.996-.983a7.2 7.2 0 0 0-2.243-.35v1.477q.933 0 1.787.278zm-2.243-.35q-.919-.002-1.749.205l.358 1.433a5.7 5.7 0 0 1 1.391-.161zm-1.735.201a7.3 7.3 0 0 0-2.532 1.107l.841 1.215q.899-.623 2.021-.881zm-2.52 1.1a7.3 7.3 0 0 0-1.92 1.861l1.204.856a5.8 5.8 0 0 1 1.535-1.488zm-1.915 1.854a7.6 7.6 0 0 0-1.16 2.376l1.42.41q.306-1.055.934-1.915zm-1.16 2.376a7.5 7.5 0 0 0-.261 2.724l1.472-.12q-.094-1.154.21-2.194zm-.26 2.74q.142 1.401.722 2.623l1.334-.636a6.5 6.5 0 0 1-.586-2.138zm.728 2.636a7.8 7.8 0 0 0 1.56 2.136l1.028-1.061a6.4 6.4 0 0 1-1.266-1.736zm1.56 2.136a7.5 7.5 0 0 0 2.204 1.48l.597-1.352a6 6 0 0 1-1.773-1.189zm2.204 1.48q1.252.552 2.66.637l.09-1.475a6.2 6.2 0 0 1-2.153-.514zm2.66.637a7.2 7.2 0 0 0 2.739-.35l-.467-1.402a5.7 5.7 0 0 1-2.181.277zm2.739-.35a7.8 7.8 0 0 0 2.339-1.244l-.907-1.166c-.56.435-1.19.771-1.9 1.008zm2.339-1.244a7.5 7.5 0 0 0 1.769-1.97l-1.253-.783a6 6 0 0 1-1.423 1.587zm1.762-1.96a7.1 7.1 0 0 0 1.022-2.568l-1.452-.273a5.6 5.6 0 0 1-.809 2.036zm.296-3.443H40.09v1.477h6.358zm-5.619.739v-2.617H39.35v2.617zm-.739-1.878h9.08v-1.478h-9.08zm16.884 9.047-.29.679.012.005zm-2.904-2.041.538-.506-.005-.006-.005-.005zm-1.962-3.01.688-.268zm0-6.854-.688-.269zm1.962-3.01.527.518.006-.006zm2.904-2.014-.287-.68-.004.001zm23.077 0-.29.68h.003zm2.93 2.015-.532.511.005.006zm1.963 3.009.688-.269zm-1.962 9.864-.528-.517-.005.005-.005.006zm-2.93 2.04.281.684.006-.003zm-1.047-2.354-.288-.68-.005.002zm2.093-1.413.522.522.007-.007.007-.007zm1.413-2.198.688.27.002-.006zm0-5.023-.69.264zm-1.413-2.198.53-.516-.008-.007zm-2.093-1.413-.293.678.005.002zm-20.984 0-.288-.68-.005.002zm-2.067 1.413-.523-.523-.007.008zM54.54 43.33l.69.264zm0 5.023-.69.264.002.005zm1.413 2.198-.537.508.007.007.007.007zm2.067 1.413-.293.678.006.002zm2.46 2.296a8.5 8.5 0 0 1-3.229-.626l-.556 1.37c1.206.489 2.47.734 3.784.734zm-3.216-.62a7.9 7.9 0 0 1-2.657-1.868l-1.076 1.012A9.35 9.35 0 0 0 56.682 55zm-2.668-1.88a8.15 8.15 0 0 1-1.801-2.76l-1.376.538a9.6 9.6 0 0 0 2.122 3.257zm-1.801-2.76a8.6 8.6 0 0 1-.604-3.159h-1.477q0 1.896.705 3.697zm-.604-3.159q-.001-1.61.604-3.158l-1.376-.538a10.1 10.1 0 0 0-.705 3.696zm.604-3.158a8.15 8.15 0 0 1 1.801-2.76l-1.055-1.035a9.6 9.6 0 0 0-2.122 3.257zm1.807-2.767a8.05 8.05 0 0 1 2.662-1.847l-.582-1.358a9.5 9.5 0 0 0-3.146 2.182zm2.658-1.845a8.2 8.2 0 0 1 3.22-.649v-1.477a9.7 9.7 0 0 0-3.794.765zm3.22-.649h16.09v-1.477H60.48zm16.09 0q1.684 0 3.19.647l.581-1.358a9.5 9.5 0 0 0-3.77-.766zm3.193.649a8 8 0 0 1 2.685 1.845l1.066-1.023a9.5 9.5 0 0 0-3.176-2.183zm2.69 1.851a8.15 8.15 0 0 1 1.802 2.76l1.376-.537a9.6 9.6 0 0 0-2.123-3.257zm1.802 2.76a8.6 8.6 0 0 1 .604 3.16h1.477q0-1.896-.705-3.697zm.604 3.16q.001 1.61-.604 3.158l1.376.538q.704-1.801.705-3.697zM84.255 49a8.15 8.15 0 0 1-1.802 2.76l1.055 1.035a9.6 9.6 0 0 0 2.123-3.257zm-1.812 2.772a7.8 7.8 0 0 1-2.68 1.866L80.338 55a9.3 9.3 0 0 0 3.18-2.215zm-2.674 1.864a8.3 8.3 0 0 1-3.199.624v1.478a9.8 9.8 0 0 0 3.762-.736zm-3.199.624H60.48v1.478h16.09zm0-1.06a6.8 6.8 0 0 0 2.727-.558l-.586-1.356a5.3 5.3 0 0 1-2.14.436zm2.721-.556a7.3 7.3 0 0 0 2.328-1.57l-1.044-1.045a5.8 5.8 0 0 1-1.859 1.254zm2.342-1.585a7.5 7.5 0 0 0 1.565-2.437l-1.376-.538a6 6 0 0 1-1.261 1.959zm1.567-2.442q.519-1.353.52-2.776h-1.478q0 1.142-.422 2.248zm.52-2.776q-.001-1.422-.52-2.776l-1.38.529a6.2 6.2 0 0 1 .422 2.247zm-.52-2.776a7.2 7.2 0 0 0-1.574-2.448l-1.059 1.03q.839.862 1.253 1.947zm-1.58-2.456a7.3 7.3 0 0 0-2.329-1.57l-.575 1.36q1.043.44 1.859 1.255zm-2.323-1.568a6.8 6.8 0 0 0-2.727-.558v1.477c.757 0 1.468.147 2.141.437zm-2.727-.558H60.48v1.477h16.09zm-16.09 0a7 7 0 0 0-2.747.555l.574 1.361a5.5 5.5 0 0 1 2.172-.438zm-2.753.558a7.4 7.4 0 0 0-2.297 1.568l1.045 1.045a5.9 5.9 0 0 1 1.838-1.257zm-2.304 1.576a7.2 7.2 0 0 0-1.573 2.448l1.38.529a5.7 5.7 0 0 1 1.252-1.947zm-1.573 2.448a7.7 7.7 0 0 0-.52 2.776h1.478q0-1.142.422-2.247zm-.52 2.776q.001 1.423.52 2.776l1.38-.528a6.2 6.2 0 0 1-.422-2.248zm.522 2.781c.35.897.875 1.71 1.565 2.437l1.072-1.016a6 6 0 0 1-1.261-1.959zm1.578 2.451q1.013 1.014 2.297 1.57l.586-1.357a5.9 5.9 0 0 1-1.838-1.257zm2.303 1.572a7 7 0 0 0 2.746.555v-1.478a5.5 5.5 0 0 1-2.172-.439zm2.746.555H76.57v-1.478H60.48zm48.547-16.49h.739v-.739h-.739zm0 2.616v.74h.739v-.74zm-4.893 0v-.738h-.739v.738zm0 15.673v.739h.739V55zm-2.616 0h-.739v.739h.739zm0-15.673h.738v-.738h-.738zm-4.893 0h-.739v.74h.739zm0-2.616v-.739h-.739v.739zm11.663 0v2.616h1.478v-2.616zm.739 1.878h-4.893v1.477h4.893zm-5.632.738V55h1.478V39.327zm.739 14.934h-2.616v1.478h2.616zm-1.878.739V39.327h-1.477V55zm-.738-16.411h-4.893v1.477h4.893zm-4.154.738v-2.616h-1.478v2.616zm-.74-1.877h12.403v-1.478H96.624zm28.656 1.747-.543.5.001.002zm1.962 3.14-.691.261zm0 7.011-.691-.261zm-1.962 3.14-.542-.502-.001.001zm-2.931 2.093-.296-.676-.004.001zm-6.96 0-.3.675.004.002zm-2.904-2.093.543-.5-.001-.002zm-1.962-3.14-.691.262zm0-7.012-.691-.261zm1.962-3.14.542.503.001-.001zm2.904-2.093-.296-.676-.004.001zm6.96 0-.3.675.004.002zm1.047 13.606.537.507.006-.006zm1.413-2.276.691.26.002-.006zm0-5.155-.694.255.002.005zm-1.413-2.302.543-.501-.006-.007zm-2.067-1.465-.306.672.006.003zm-4.919 0-.3-.676-.006.003zm-2.041 1.465-.537-.508-.006.007zm-1.439 2.302-.689-.267-.003.008zm0 5.155-.693.254.003.009.003.009zm1.439 2.276-.543.501.006.006zm2.041 1.465-.306.673.006.002zm4.919 0-.3-.675-.006.003zm3.409-12.475a8.9 8.9 0 0 1 1.813 2.899l1.382-.523a10.3 10.3 0 0 0-2.111-3.38zm1.813 2.899a9.1 9.1 0 0 1 .606 3.244h1.478q-.002-1.92-.702-3.767zm.606 3.244a9.1 9.1 0 0 1-.606 3.245l1.382.523q.7-1.848.702-3.768zm-.606 3.245a8.9 8.9 0 0 1-1.813 2.9l1.084 1.003a10.3 10.3 0 0 0 2.111-3.38zm-1.814 2.9a7.95 7.95 0 0 1-2.684 1.918l.592 1.353a9.4 9.4 0 0 0 3.177-2.269zm-2.688 1.92a7.7 7.7 0 0 1-3.18.668v1.478a9.2 9.2 0 0 0 3.78-.797zm-3.18.668q-1.649.001-3.183-.67l-.593 1.353a9.3 9.3 0 0 0 3.776.795zm-3.18-.669a8 8 0 0 1-2.661-1.919l-1.086 1.002a9.5 9.5 0 0 0 3.147 2.267zm-2.662-1.92a8.9 8.9 0 0 1-1.813-2.9l-1.382.524a10.3 10.3 0 0 0 2.111 3.38zm-1.813-2.9a9.1 9.1 0 0 1-.607-3.244h-1.477q0 1.92.702 3.768zm-.607-3.244a9.1 9.1 0 0 1 .607-3.244l-1.382-.523a10.6 10.6 0 0 0-.702 3.767zm.607-3.244a8.9 8.9 0 0 1 1.813-2.9l-1.084-1.003a10.3 10.3 0 0 0-2.111 3.38zm1.814-2.9a8 8 0 0 1 2.661-1.92l-.6-1.35a9.5 9.5 0 0 0-3.147 2.268zm2.658-1.918a7.85 7.85 0 0 1 3.183-.67v-1.478a9.3 9.3 0 0 0-3.776.795zm3.183-.67c1.12 0 2.177.223 3.18.669l.6-1.35a9.2 9.2 0 0 0-3.78-.797zm3.184.67a7.95 7.95 0 0 1 2.684 1.918l1.085-1.002a9.4 9.4 0 0 0-3.177-2.27zm1.886 13.43a7.6 7.6 0 0 0 1.561-2.518l-1.383-.519a6.2 6.2 0 0 1-1.264 2.035zm1.563-2.523a8.2 8.2 0 0 0 .516-2.845h-1.477q.002 1.172-.426 2.336zm.516-2.845a8 8 0 0 0-.518-2.823l-1.383.519q.425 1.133.424 2.304zm-.516-2.818a7.6 7.6 0 0 0-1.563-2.55l-1.086 1.003a6.1 6.1 0 0 1 1.262 2.056zm-1.569-2.556a7.1 7.1 0 0 0-2.304-1.633l-.6 1.35c.695.31 1.303.74 1.83 1.298zm-2.299-1.63a6.6 6.6 0 0 0-2.765-.59v1.478c.771 0 1.486.153 2.154.457zm-2.765-.59q-1.439 0-2.759.588l.6 1.35a5.25 5.25 0 0 1 2.159-.46zm-2.765.59a7.2 7.2 0 0 0-2.272 1.63l1.074 1.015a5.7 5.7 0 0 1 1.81-1.3zm-2.278 1.637a8 8 0 0 0-1.585 2.536l1.378.534a6.5 6.5 0 0 1 1.293-2.068zm-1.588 2.544a8 8 0 0 0-.518 2.823h1.478q-.001-1.17.424-2.304zm-.518 2.823q.001 1.446.517 2.845l1.386-.51a6.7 6.7 0 0 1-.425-2.335zm.523 2.863a8 8 0 0 0 1.583 2.505l1.086-1.002a6.6 6.6 0 0 1-1.295-2.047zm1.589 2.511a7.2 7.2 0 0 0 2.272 1.63l.612-1.344a5.7 5.7 0 0 1-1.81-1.3zm2.278 1.633a6.7 6.7 0 0 0 2.759.587V51.96q-1.124 0-2.159-.46zm2.759.587c.974 0 1.899-.195 2.765-.59l-.611-1.344a5.1 5.1 0 0 1-2.154.457zm2.76-.587a7.1 7.1 0 0 0 2.304-1.633l-1.074-1.014a5.7 5.7 0 0 1-1.83 1.297zm31.311-.492h.739v-.738h-.739zm0 2.617v.739h.739v-.74zm-12.559 0h-.739v.739h.739zm0-18.29v-.738h-.739v.739zm2.59 0h.739v-.738h-.739zm0 15.673h-.738v.74h.738zm9.23 0v2.617h1.478v-2.617zm.739 1.878H140.38v1.478h12.559zm-11.82.739v-18.29h-1.478v18.29zm-.739-17.55h2.59v-1.478h-2.59zm1.852-.74v15.673h1.477V36.685zm.738 16.412h9.969V51.62h-9.969zM170.651 55v.739h1.103l-.42-1.02zm-2.799 0-.683.283.189.456h.494zm-1.701-4.108.682-.282-.188-.457h-.494zm-7.719 0v-.739h-.493l-.189.457zm-1.7 4.108v.739h.493l.189-.456zm-2.8 0-.683-.281-.42 1.02h1.103zm7.535-18.315v-.739h-.494l-.189.458zm1.649 0 .683-.281-.188-.458h-.495zm1.962 11.59v.74h1.101l-.417-1.02zm-2.773-6.776.683-.28-.68-1.663-.686 1.661zm-2.8 6.777-.683-.282-.421 1.02h1.104zm11.146 5.985h-2.799v1.478h2.799zm-2.117.456-1.701-4.107-1.365.565 1.701 4.108zm-2.383-4.564h-7.719v1.478h7.719zm-8.401.457-1.701 4.107 1.365.566 1.701-4.108zm-1.018 3.651h-2.8v1.478h2.8zm-2.117 1.02 7.536-18.315-1.367-.562-7.535 18.315zm6.852-17.857h1.649v-1.478h-1.649zm.966-.458 7.535 18.315 1.366-.562-7.535-18.315zm3.329 11.03-2.774-6.777-1.367.56 2.773 6.776zm-4.14-6.779-2.8 6.777 1.366.564 2.799-6.777zm-2.117 7.797h5.573v-1.477h-5.573zm26.907-12.33h.739v-.738h-.739zm-.497 13.58-.701-.233zm-1.439 2.617.561.48.005-.006zm-2.303 1.779.326.663.005-.002zm-6.017-.026.315-.668h-.001zm-1.675-1.073-.484.558.006.005.005.005zm-1.387-1.622-.63.385.004.006.004.007zm-.915-2.146-.715.187.002.007.002.007zm-.314-13.108v-.739h-.739v.739zm2.616 0h.739v-.739h-.739zm.288 12.533-.711.2.001.005zm.863 1.779-.595.437.008.01.008.012zm1.466 1.23-.354.648.008.004zm4.055 0-.346-.653-.008.004zm1.465-1.23-.586-.45-.002.003zm.89-1.78-.706-.217-.004.012zm.314-12.532v-.739h-.739v.739zm1.851 0v10.44h1.478v-10.44zm0 10.44q0 1.533-.459 2.906l1.402.467q.536-1.611.535-3.374zm-.459 2.906a7.2 7.2 0 0 1-1.305 2.375l1.133.949a8.7 8.7 0 0 0 1.574-2.857zm-1.299 2.369a6.5 6.5 0 0 1-2.072 1.6l.661 1.32a8 8 0 0 0 2.533-1.959zm-2.067 1.596c-.774.38-1.672.58-2.71.58v1.477c1.231 0 2.356-.237 3.361-.73zm-2.71.58a6.2 6.2 0 0 1-2.667-.61l-.631 1.336a7.64 7.64 0 0 0 3.298.75zm-2.668-.61a7 7 0 0 1-1.516-.973l-.946 1.136q.855.712 1.833 1.173zm-1.505-.963a6.7 6.7 0 0 1-1.248-1.462l-1.245.796a8.1 8.1 0 0 0 1.525 1.782zm-1.24-1.45a7.8 7.8 0 0 1-.836-1.96l-1.421.401a9.3 9.3 0 0 0 .996 2.33zm-.832-1.946q-.288-1.097-.29-2.483h-1.477q-.002 1.546.338 2.856zm-.29-2.483v-10.44h-1.477v10.44zm-.738-9.7h2.616v-1.478h-2.616zm1.877-.74v10.44h1.478v-10.44zm0 10.44q0 1.175.316 2.294l1.422-.4a7 7 0 0 1-.26-1.894zm.317 2.299c.215.74.539 1.413.978 2.01l1.191-.873a4.9 4.9 0 0 1-.75-1.548zm.994 2.033a5.5 5.5 0 0 0 1.691 1.42l.707-1.298a4 4 0 0 1-1.24-1.04zm1.699 1.423c.714.378 1.516.557 2.386.557V51.96c-.664 0-1.223-.135-1.695-.385zm2.386.557c.87 0 1.667-.178 2.369-.56l-.708-1.298c-.45.245-.996.38-1.661.38zm2.361-.557a5.1 5.1 0 0 0 1.708-1.436l-1.177-.893a3.64 3.64 0 0 1-1.223 1.024zm1.705-1.433q.69-.901 1.013-2.023l-1.419-.41a4.6 4.6 0 0 1-.766 1.534zm1.01-2.011a7.8 7.8 0 0 0 .347-2.31h-1.478q0 .961-.281 1.875zm.347-2.31v-10.44h-1.478v10.44zm-.739-9.702h2.59v-1.477h-2.59zm21.043-.738h.739v-.739h-.739zm0 18.315v.739h.739V55zm-1.229 0-.564.477.221.262h.343zm-10.99-12.978.564-.477-1.302-1.538v2.015zm0 12.978v.739h.739V55zm-2.59 0h-.739v.739h.739zm0-18.315v-.739h-.739v.739zm1.492 0 .563-.478-.221-.261h-.342zm10.701 12.637-.564.478 1.303 1.538v-2.016zm0-12.637v-.739h-.739v.739zm1.878 0V55h1.477V36.685zm.738 17.576h-1.229v1.478h1.229zm-.666.262L193.21 41.545l-1.127.955 10.989 12.977zm-12.291-12.5V55h1.477V42.022zm.738 12.238h-2.59v1.478h2.59zm-1.851.739V36.685h-1.478V55zm-.739-17.577h1.492v-1.477h-1.492zm.928-.26L201.685 49.8l1.128-.955-10.702-12.638zm12.004 12.16V36.684h-1.478v12.637zm-.739-11.9h2.616v-1.477h-2.616zm21.732 10.172v-.738h-.573l-.143.555zm2.669 0 .726.137.165-.875h-.891zm-1.282 3.297.621.4.003-.005zm-2.329 2.512.443.591.002-.001zm-3.061 1.517-.207-.709-.003.001zm-3.48.34-.074.736h.01zm-3.401-.967-.34.656.009.004zm-2.722-2.067-.549.493.005.006zm-1.805-2.905-.687.273.002.004zm0-6.933.685.276.002-.004zm1.805-2.905-.544-.499zm2.722-2.067-.34-.656zm3.401-.994-.064-.736-.01.001zm3.48.34-.21.708.003.001zm3.061 1.544-.45.585.006.005.006.005zm2.329 2.512-.625.394.003.005zm1.282 3.27v.74h.891l-.165-.876zm-2.669 0-.715.188.145.551h.57zm-.916-2.014-.622.397.006.01.007.01zm-1.465-1.596-.466.573.01.008.01.008zm-4.082-1.492-.017.739h.001zm-2.197.314-.224-.704-.005.002zm-1.937.968-.426-.603zm-1.543 1.518.595.438zm-1.021 1.988-.701-.233-.002.007-.002.008zM210.506 46l-.738.017v.001zm.393 2.12-.696.25zm1.046 1.91.587-.449zm1.623 1.517.422-.606-.006-.004-.007-.004zm1.831.89-.21.708.008.003.009.002zm4.186-.105.239.7.008-.003.007-.003zm1.963-1.046.437.595.011-.009zm1.517-1.623.615.41zm.916-1.328h2.669v-1.477h-2.669zm1.943-.875a8.6 8.6 0 0 1-1.181 3.039l1.249.789a10.1 10.1 0 0 0 1.384-3.555zm-1.178 3.034a8.9 8.9 0 0 1-2.152 2.321l.89 1.18q1.492-1.126 2.505-2.702zm-2.15 2.32a8.8 8.8 0 0 1-2.825 1.4l.414 1.418q1.824-.533 3.297-1.636zm-2.828 1.4a8.6 8.6 0 0 1-3.206.313l-.128 1.472q1.94.169 3.754-.368zm-3.197.314a9 9 0 0 1-3.144-.894l-.661 1.321q1.698.848 3.658 1.043zm-3.135-.89a9 9 0 0 1-2.516-1.91l-1.089.999a10.4 10.4 0 0 0 2.926 2.224zm-2.511-1.904a9.1 9.1 0 0 1-1.67-2.687l-1.37.553a10.5 10.5 0 0 0 1.941 3.121zm-1.668-2.683a8.6 8.6 0 0 1-.602-3.208h-1.478q0 1.969.706 3.753zm-.602-3.208q0-1.694.6-3.177l-1.37-.553a9.9 9.9 0 0 0-.708 3.73zm.602-3.18a8.6 8.6 0 0 1 1.663-2.678l-1.089-.999a10.1 10.1 0 0 0-1.948 3.131zm1.663-2.678a9 9 0 0 1 2.516-1.91l-.679-1.313a10.4 10.4 0 0 0-2.926 2.224zm2.516-1.91a8.6 8.6 0 0 1 3.135-.916l-.147-1.47a10.1 10.1 0 0 0-3.667 1.073zm3.126-.915a8.6 8.6 0 0 1 3.206.312l.42-1.416a10 10 0 0 0-3.754-.368zm3.209.313a8.5 8.5 0 0 1 2.818 1.42l.901-1.17a10 10 0 0 0-3.305-1.668zm2.83 1.43a8.4 8.4 0 0 1 2.142 2.311l1.249-.789a9.9 9.9 0 0 0-2.515-2.712zm2.145 2.316a8.4 8.4 0 0 1 1.178 3.008l1.452-.273a9.9 9.9 0 0 0-1.387-3.534zm1.904 2.133h-2.669v1.477h2.669zm-1.954.551a7.2 7.2 0 0 0-1.021-2.245l-1.219.836a5.7 5.7 0 0 1 .81 1.783zm-1.008-2.225a6.8 6.8 0 0 0-1.642-1.787l-.892 1.178a5.4 5.4 0 0 1 1.289 1.404zm-1.622-1.772a7.4 7.4 0 0 0-2.09-1.19l-.519 1.383a6 6 0 0 1 1.677.954zm-2.09-1.19a7.4 7.4 0 0 0-2.441-.466l-.033 1.477q1.03.023 1.955.372zm-2.44-.466a7.5 7.5 0 0 0-2.439.348l.447 1.408a6 6 0 0 1 1.957-.28zm-2.444.35a8 8 0 0 0-2.134 1.067l.852 1.207a6.5 6.5 0 0 1 1.739-.87zm-2.134 1.067a7.5 7.5 0 0 0-1.713 1.683l1.191.876q.583-.795 1.374-1.352zm-1.713 1.683a8 8 0 0 0-1.126 2.193l1.402.467a6.4 6.4 0 0 1 .915-1.785zm-1.13 2.208a7.7 7.7 0 0 0-.347 2.46l1.477-.035a6.2 6.2 0 0 1 .281-1.988zm-.347 2.46q.028 1.216.435 2.351l1.391-.499a6 6 0 0 1-.349-1.887zm.435 2.351a7.8 7.8 0 0 0 1.155 2.11l1.174-.898a6.3 6.3 0 0 1-.938-1.71zm1.155 2.11a7.5 7.5 0 0 0 1.8 1.683l.819-1.23a6 6 0 0 1-1.445-1.351zm1.787 1.674a7.1 7.1 0 0 0 2.044.992l.421-1.416a5.6 5.6 0 0 1-1.62-.788zm2.061.997a8.2 8.2 0 0 0 2.155.287V51.96a6.8 6.8 0 0 1-1.769-.236zm2.155.287a7.6 7.6 0 0 0 2.463-.406l-.477-1.398a6.1 6.1 0 0 1-1.986.327zm2.478-.411a8.6 8.6 0 0 0 2.146-1.145l-.875-1.19a7.1 7.1 0 0 1-1.778.947zm2.157-1.154a7.4 7.4 0 0 0 1.684-1.799l-1.229-.82a6 6 0 0 1-1.352 1.446zm1.684-1.799q.699-1.05 1.017-2.294l-1.432-.366a5.9 5.9 0 0 1-.814 1.84zm19.257-13.387h.739v-.739h-.739zm0 18.315v.739h.739V55zm-2.617 0h-.738v.739h.738zm0-7.797h.739v-.739h-.739zm-8.006 0v-.739h-.739v.739zm0 7.797v.739h.739V55zm-2.616 0h-.739v.739h.739zm0-18.315v-.739h-.739v.739zm2.616 0h.739v-.739h-.739zm0 7.928h-.739v.738h.739zm8.006 0v.738h.739v-.738zm0-7.928v-.739h-.738v.739zm1.878 0V55h1.478V36.685zm.739 17.576h-2.617v1.478h2.617zm-1.878.739v-7.797h-1.477V55zm-.739-8.536h-8.006v1.478h8.006zm-8.745.739V55h1.478v-7.797zm.739 7.058h-2.616v1.478h2.616zm-1.878.739V36.685h-1.477V55zm-.738-17.577h2.616v-1.477h-2.616zm1.877-.738v7.928h1.478v-7.928zm.739 8.666h8.006v-1.477h-8.006zm8.745-.738v-7.928h-1.477v7.928zm-.739-7.19h2.617v-1.477h-2.617zm19.625 3.108.694-.251-.003-.008-.003-.008zm0 5.024.688.266.003-.007.003-.008zm-.812 1.517.597.436.008-.01zm-1.203 1.204.436.596.004-.003zm-1.57.81.227.704.01-.003.009-.004zm-6.934.289v-.74h-.738v.74zm0 5.625v.739h.739V55zm-2.616 0h-.739v.739h.739zm0-18.29v-.738h-.739v.739zm9.498.315-.246.697.012.004.012.004zm1.622.811-.44.594.007.005.008.005zm1.203 1.204-.604.425.008.01zm-1.622 5.599-.691-.26-.004.01-.004.01zm0-3.192-.692.257.001.003zm-1.151-1.518-.45.587.01.007zm-6.934-.602v-.738h-.738v.738zm0 7.457h-.738v.739h.738zm4.972 0 .018-.738h-.018zm1.91-.55.409.615.007-.004.006-.004zm2.942-5.452q.401 1.111.401 2.26h1.477q0-1.413-.489-2.762zm.401 2.26q0 1.15-.401 2.261l1.389.503q.488-1.35.489-2.763zm-.395 2.246q-.282.727-.727 1.359l1.209.85q.55-.781.895-1.676zm-.719 1.348a4.9 4.9 0 0 1-1.047 1.046l.88 1.187a6.4 6.4 0 0 0 1.36-1.361zm-1.043 1.043a5.3 5.3 0 0 1-1.38.711l.492 1.393a6.8 6.8 0 0 0 1.76-.91zm-1.361.705a5.6 5.6 0 0 1-1.735.252v1.477a7.1 7.1 0 0 0 2.189-.323zm-1.735.252h-4.972v1.477h4.972zm-5.71.739V55h1.477v-5.625zm.738 4.886h-2.616v1.478h2.616zm-1.877.739V36.71h-1.478V55zm-.739-17.55h7.509v-1.478h-7.509zm7.509 0c.663 0 1.241.094 1.743.271l.492-1.393c-.684-.241-1.432-.356-2.235-.356zm1.767.28q.807.256 1.404.7l.88-1.188a6.2 6.2 0 0 0-1.841-.922zm1.419.71a4.2 4.2 0 0 1 1.024 1.025l1.209-.85a5.7 5.7 0 0 0-1.383-1.383zm1.032 1.035q.438.6.719 1.323l1.377-.534a7.2 7.2 0 0 0-.903-1.66zm-.335 5.424a5.12 5.12 0 0 0 0-3.713l-1.382.521a3.64 3.64 0 0 1 0 2.671zm.002-3.71a4 4 0 0 0-1.404-1.853l-.88 1.187c.43.319.724.71.899 1.18zm-1.395-1.846c-.683-.524-1.534-.754-2.49-.754v1.477c.719 0 1.228.171 1.592.45zm-2.49-.754h-4.893v1.477h4.893zm-5.631.738v7.457h1.477v-7.457zm.738 8.196h4.972v-1.477h-4.972zm4.953 0a3.95 3.95 0 0 0 2.338-.674l-.819-1.229c-.448.299-.935.44-1.482.426zm2.351-.682a3.87 3.87 0 0 0 1.48-1.963l-1.398-.478c-.176.514-.48.917-.927 1.229zM276.621 55v.739h1.103l-.42-1.02zm-2.8 0-.682.283.189.456h.493zm-1.7-4.108.682-.282-.189-.457h-.493zm-7.719 0v-.739h-.494l-.188.457zM262.701 55v.739h.494l.189-.456zm-2.799 0-.683-.281-.42 1.02h1.103zm7.535-18.315v-.739h-.495l-.188.458zm1.649 0 .683-.281-.189-.458h-.494zm1.962 11.59v.74h1.1l-.416-1.02zm-2.774-6.776.684-.28-.68-1.663-.686 1.661zm-2.799 6.777-.683-.282-.422 1.02h1.105zm11.146 5.985h-2.8v1.478h2.8zm-2.117.456-1.701-4.107-1.365.565 1.701 4.108zm-2.383-4.564h-7.719v1.478h7.719zm-8.401.457-1.701 4.107 1.365.566 1.701-4.108zm-1.019 3.651h-2.799v1.478h2.799zm-2.116 1.02 7.535-18.315-1.366-.562-7.535 18.315zm6.852-17.857h1.649v-1.478h-1.649zm.965-.458 7.536 18.315 1.366-.562-7.535-18.315zm3.33 11.03-2.774-6.777-1.367.56 2.773 6.776zm-4.14-6.779-2.8 6.777 1.366.564 2.799-6.777zm-2.117 7.797h5.573v-1.477h-5.573zm44.885-6.835.698-.242-.004-.01zm0 7.326.694.253.004-.01zm-1.125 2.172-.608-.42-.002.003zm-1.649 1.753.454.583.002-.001zm-2.171 1.151.238.7zM279.093 55h-.739v.739h.739zm0-18.341v-.74h-.739v.74zm26.322.444-.252.695.014.005zm2.171 1.178-.463.575.009.007.009.007zm1.649 1.753-.615.41.006.009.007.009zm-1.335 8.582.694.254.005-.012zm0-5.547.697-.246-.003-.008zm-.758-1.465-.615.41.007.01zm-1.125-1.204-.473.568.012.01.014.01zm-1.466-.811-.259.692.01.003.009.004zm-22.841-.314v-.739h-.739v.74zm0 13.109h-.739v.738h.739zm22.841-.288-.24-.699zm1.466-.785.458.579.003-.002zm1.125-1.204.607.42.007-.01zm2.52-7.685q.587 1.691.587 3.42h1.478q0-1.985-.669-3.905zm.587 3.42q0 1.73-.587 3.42l1.396.486q.668-1.92.669-3.906zm-.583 3.411a8.8 8.8 0 0 1-1.039 2.004l1.215.84q.76-1.097 1.212-2.34zm-1.041 2.007q-.614.899-1.494 1.589l.911 1.163a8.6 8.6 0 0 0 1.803-1.918zm-1.492 1.587a6.6 6.6 0 0 1-1.956 1.035l.476 1.399a8.1 8.1 0 0 0 2.387-1.268zm-1.956 1.035c-.733.25-1.558.38-2.483.38v1.477c1.063 0 2.052-.15 2.959-.458zm-2.483.38h-23.601v1.477h23.601zM279.832 55V36.659h-1.478V55zm-.739-17.603h23.601V35.92h-23.601zm23.601 0c.92 0 1.741.138 2.47.401l.502-1.39c-.911-.329-1.904-.488-2.972-.488zm2.483.406a6.3 6.3 0 0 1 1.946 1.053l.927-1.15a7.8 7.8 0 0 0-2.397-1.302zm1.964 1.067a6.4 6.4 0 0 1 1.479 1.574l1.229-.82a7.9 7.9 0 0 0-1.817-1.932zm1.492 1.592a8.3 8.3 0 0 1 1.033 1.97l1.388-.505a9.7 9.7 0 0 0-1.217-2.321zm-.034 8.395a9.2 9.2 0 0 0 .511-3.015h-1.477q0 1.286-.431 2.532zm.511-3.015q0-1.563-.513-3.019l-1.393.492q.428 1.213.429 2.527zm-.516-3.027a7.2 7.2 0 0 0-.845-1.632l-1.215.841q.417.602.673 1.3zm-.838-1.621q-.537-.807-1.292-1.382l-.894 1.176q.552.418.957 1.026zm-1.266-1.361a5.4 5.4 0 0 0-1.698-.943l-.481 1.398c.481.165.889.393 1.233.68zm-1.679-.936a6 6 0 0 0-2.117-.36v1.477c.604 0 1.134.093 1.598.267zm-2.117-.36H281.71v1.477h20.984zm-21.723.738v13.109h1.477V39.274zm.739 13.847h20.984v-1.477H281.71zm20.984 0c.749 0 1.451-.105 2.098-.328l-.481-1.397a5 5 0 0 1-1.617.248zm2.098-.328a5.7 5.7 0 0 0 1.683-.904l-.917-1.158a4.2 4.2 0 0 1-1.247.665zm1.686-.906a6.4 6.4 0 0 0 1.271-1.36l-1.215-.841a4.9 4.9 0 0 1-.979 1.047zm1.278-1.371a7.8 7.8 0 0 0 .838-1.647l-1.387-.508a6.4 6.4 0 0 1-.68 1.335z"/></g><defs><filter id="a" width="363.797" height="92.91" x=".551" y=".545" color-interpolation-filters="sRGB" filterUnits="userSpaceOnUse"><feFlood flood-opacity="0" result="BackgroundImageFix"/><feColorMatrix in="SourceAlpha" result="hardAlpha" values="0 0 0 0 0 0 0 0 0 0 0 0 0 0 0 0 0 0 127 0"/><feOffset dy="4"/><feGaussianBlur stdDeviation="2"/><feComposite in2="hardAlpha" operator="out"/><feColorMatrix values="0 0 0 0 0 0 0 0 0 0 0 0 0 0 0 0 0 0 0.25 0"/><feBlend in2="BackgroundImageFix" result="effect1_dropShadow_4431_40989"/><feBlend in="SourceGraphic" in2="effect1_dropShadow_4431_40989" result="shape"/></filter><filter id="b" width="355.797" height="96.91" x="4.551" y=".545" color-interpolation-filters="sRGB" filterUnits="userSpaceOnUse"><feFlood flood-opacity="0" result="BackgroundImageFix"/><feColorMatrix in="SourceAlpha" result="hardAlpha" values="0 0 0 0 0 0 0 0 0 0 0 0 0 0 0 0 0 0 127 0"/><feOffset dy="12"/><feComposite in2="hardAlpha" operator="out"/><feColorMatrix values="0 0 0 0 0 0 0 0 0 0 0 0 0 0 0 0 0 0 1 0"/><feBlend in2="BackgroundImageFix" result="effect1_dropShadow_4431_40989"/><feBlend in="SourceGraphic" in2="effect1_dropShadow_4431_40989" result="shape"/></filter></defs></svg>