<svg xmlns="http://www.w3.org/2000/svg" width="1894" height="1519" fill="none"><g clip-path="url(#a)" opacity=".34" style="mix-blend-mode:plus-lighter"><path stroke="#C4BEDD" d="M1899 107.858H.002M1899 221.337H-.001M1899 334.813H-.001M1899 448.294H.002M1899 561.77-.001 561.769M1899 675.248H-.001M1899 788.724H-.001"/><path stroke="#A494FF" d="M1899 902.201H.002M1899 1015.68H.002M1899 1129.16H-.001M1899 1242.63H-.001M1899 1356.11H-.001M1899 1469.59H-.001"/><path stroke="url(#b)" d="M1873.39 1698.39V-49.998"/><path stroke="url(#c)" d="M1750.14 1698.39V-49.998"/><path stroke="url(#d)" d="M1626.89 1698.39V-49.998"/><path stroke="url(#e)" d="M1503.64 1698.39V-49.996"/><path stroke="url(#f)" d="M1380.38 1698.39V-50"/><path stroke="url(#g)" d="M1257.13 1698.39V-49.996"/><path stroke="url(#h)" d="M1133.88 1698.39V-49.996"/><path stroke="url(#i)" d="m1010.62 1698.39.01-1748.388"/><path stroke="url(#j)" d="M887.375 1698.39V-49.998"/><path stroke="url(#k)" d="M764.121 1698.39V-49.998"/><path stroke="url(#l)" d="m640.865 1698.39.001-1748.389"/><path stroke="url(#m)" d="m517.615 1698.39.001-1748.389"/><path stroke="url(#n)" d="M394.367 1698.39V-49.998"/><path stroke="url(#o)" d="m271.115 1698.39.001-1748.386"/><path stroke="url(#p)" d="m147.861 1698.39.001-1748.388"/><path stroke="url(#q)" d="M24.608 1698.39V-49.999"/></g><defs><linearGradient id="b" x1="1874.39" x2="1874.39" y1="-49.998" y2="1698.39" gradientUnits="userSpaceOnUse"><stop stop-color="#A494FF"/><stop offset=".58" stop-color="#A494FF"/></linearGradient><linearGradient id="c" x1="1751.14" x2="1751.14" y1="-49.998" y2="1698.39" gradientUnits="userSpaceOnUse"><stop stop-color="#A494FF"/><stop offset=".58" stop-color="#A494FF"/></linearGradient><linearGradient id="d" x1="1627.89" x2="1627.89" y1="-49.998" y2="1698.39" gradientUnits="userSpaceOnUse"><stop stop-color="#A494FF"/><stop offset=".58" stop-color="#A494FF"/></linearGradient><linearGradient id="e" x1="1504.64" x2="1504.64" y1="-49.996" y2="1698.39" gradientUnits="userSpaceOnUse"><stop stop-color="#A494FF"/><stop offset=".58" stop-color="#A494FF"/></linearGradient><linearGradient id="f" x1="1381.38" x2="1381.38" y1="-50" y2="1698.39" gradientUnits="userSpaceOnUse"><stop stop-color="#A494FF"/><stop offset=".58" stop-color="#A494FF"/></linearGradient><linearGradient id="g" x1="1258.13" x2="1258.13" y1="-49.996" y2="1698.39" gradientUnits="userSpaceOnUse"><stop stop-color="#A494FF"/><stop offset=".58" stop-color="#A494FF"/></linearGradient><linearGradient id="h" x1="1134.88" x2="1134.88" y1="-49.996" y2="1698.39" gradientUnits="userSpaceOnUse"><stop stop-color="#A494FF"/><stop offset=".58" stop-color="#A494FF"/></linearGradient><linearGradient id="i" x1="1011.63" x2="1011.63" y1="-49.998" y2="1698.39" gradientUnits="userSpaceOnUse"><stop stop-color="#A494FF"/><stop offset=".58" stop-color="#A494FF"/></linearGradient><linearGradient id="j" x1="888.375" x2="888.375" y1="-49.998" y2="1698.39" gradientUnits="userSpaceOnUse"><stop stop-color="#A494FF"/><stop offset=".58" stop-color="#A494FF"/></linearGradient><linearGradient id="k" x1="765.121" x2="765.121" y1="-49.998" y2="1698.39" gradientUnits="userSpaceOnUse"><stop stop-color="#A494FF"/><stop offset=".58" stop-color="#A494FF"/></linearGradient><linearGradient id="l" x1="641.866" x2="641.865" y1="-49.999" y2="1698.39" gradientUnits="userSpaceOnUse"><stop stop-color="#A494FF"/><stop offset=".58" stop-color="#A494FF"/></linearGradient><linearGradient id="m" x1="518.616" x2="518.615" y1="-49.999" y2="1698.39" gradientUnits="userSpaceOnUse"><stop stop-color="#A494FF"/><stop offset=".58" stop-color="#A494FF"/></linearGradient><linearGradient id="n" x1="395.367" x2="395.367" y1="-49.998" y2="1698.39" gradientUnits="userSpaceOnUse"><stop stop-color="#A494FF"/><stop offset=".58" stop-color="#A494FF"/></linearGradient><linearGradient id="o" x1="272.116" x2="272.115" y1="-49.996" y2="1698.39" gradientUnits="userSpaceOnUse"><stop stop-color="#A494FF"/><stop offset=".58" stop-color="#A494FF"/></linearGradient><linearGradient id="p" x1="148.862" x2="148.861" y1="-49.998" y2="1698.39" gradientUnits="userSpaceOnUse"><stop stop-color="#A494FF"/><stop offset=".58" stop-color="#A494FF"/></linearGradient><linearGradient id="q" x1="25.608" x2="25.608" y1="-49.999" y2="1698.39" gradientUnits="userSpaceOnUse"><stop stop-color="#A494FF"/><stop offset=".58" stop-color="#A494FF"/></linearGradient><clipPath id="a"><path fill="#fff" d="M0 0h1894v1519H0z"/></clipPath></defs></svg>