<svg width="396" height="543" viewBox="0 0 396 543" fill="none" xmlns="http://www.w3.org/2000/svg">
<mask id="path-1-inside-1_5495_108198" fill="white">
<path fill-rule="evenodd" clip-rule="evenodd" d="M267.809 0.260187L267.548 0.519985V0.95415V1.38832L271.947 5.863L276.346 10.3373L277.589 12.6805L278.832 15.0238L279.642 17.9389L280.452 20.854V23.6646V26.4751L280.104 27.3872L279.757 28.2988L278.443 29.5939L277.128 30.8886L274.406 32.2648L271.683 33.641L267.172 35.1159L262.66 36.5913L255.622 38.1727L248.584 39.7541L232.161 42.8748L215.737 45.9955L214.182 46.3208L212.627 46.6465L210.489 45.362L208.35 44.0774L205.307 42.9067L202.265 41.7361L198.834 40.9431L195.404 40.15L191.885 38.4332L188.366 36.7165L184.966 33.7666L181.566 30.8168H181.363H181.159L180.746 31.5868L180.333 32.3565L180.79 34.2199L181.246 36.083L181.786 37.1557L182.325 38.2284H182.106H181.888L179.848 37.2103L177.808 36.1922L175.657 34.6198L173.507 33.0473L172.068 31.6848L170.629 30.3222L170.015 30.5574L169.401 30.7922L169.405 32.2675L169.409 33.7425L170.364 35.7904L171.32 37.8384H171.093H170.865L168.707 36.6069L166.549 35.3754L163.846 33.1171L161.144 30.8589L160.58 31.0747L160.016 31.2904V31.9676V32.6451L160.805 34.949L161.594 37.2532L162.381 38.326L163.168 39.3987H162.834H162.499L159.596 38.4161L156.693 37.4338L153.613 35.6515L150.532 33.8696L149.937 34.4633L149.342 35.057L150.402 37.2177L151.462 39.3784L153.072 40.7539L154.683 42.1293L152.364 42.1281L150.045 42.127L146.579 41.5219L143.113 40.9173L141.568 40.3006L140.023 39.6839L139.666 40.0404L139.308 40.3973L139.684 41.7509L140.059 43.1045L141.897 45.1989L143.735 47.2933L141.807 47.0662L139.879 46.8396L133.622 46.6102L127.366 46.3809L122.525 45.9912L117.684 45.6015L114.082 44.8623L110.48 44.1227L107.583 43.3522L104.686 42.5818L103.095 42.0076L101.503 41.433L99.5753 40.4496L97.6479 39.4662L96.2148 37.9694L94.7821 36.4731L93.9676 34.8928L93.1535 33.3126L92.7183 30.992L92.2831 28.6713L92.5271 25.6938L92.7707 22.7163L93.5046 20.5887L94.2382 18.4612L94.8752 17.2324L95.5117 16.0041L96.7153 14.6368L97.9189 13.2692L101.619 10.507L105.319 7.74477L105.195 7.0906L105.071 6.43642L103.54 6.3112L102.009 6.18637L99.1045 7.24312L96.2 8.29986L92.6514 10.6244L89.1029 12.9489L86.7724 15.1537L84.4418 17.3588L81.9205 20.6746L79.3996 23.9903L77.8855 27.111L76.3719 30.2317L75.7525 32.5722L75.1335 34.9127L74.8969 38.104L74.6607 41.2953L75.1441 43.7603L75.6277 46.2252L76.8978 48.9558L78.1674 51.6864L80.008 53.7149L81.8486 55.7429L83.7396 57.1277L85.6306 58.5125L88.7064 60.0428L91.7826 61.5736L96.2793 63.1109L100.776 64.6482L105.077 65.6671L109.379 66.686L115.571 67.8656L121.764 69.0453L123.587 69.0843L125.411 69.1229L126.307 69.3768L127.204 69.6304L126.167 70.9957L125.13 72.361L124.199 74.3114L123.268 76.2619L123.264 77.7633L123.26 79.2647L123.905 80.6207L124.55 81.9766L125.424 82.5477L126.298 83.1188L125.896 84.6944L125.496 86.2703L126.02 88.4825L126.545 90.695L126.427 92.4504L126.309 94.2058L125.536 94.9322L124.763 95.6585L123.077 98.2814L121.392 100.904L120.049 103.406L118.705 105.908L117.3 109.419L115.895 112.93L114.911 117.416L113.927 121.902L113.651 124.242L113.375 126.583L112.648 127.942L111.92 129.302L111.923 130.283L111.925 131.264L112.323 132.695L112.722 134.127L114.462 136.057L116.201 137.988L117.306 138.444L118.412 138.901L119.956 140.853L121.5 142.805L124.238 145.25L126.975 147.694L129.285 149.422L131.595 151.15L127.134 153.248L122.674 155.346L113.68 158.967L104.686 162.589L100.023 164.226L95.3596 165.862L91.616 166.393L87.8723 166.925L84.8106 167.713L81.7488 168.501L78.4275 169.852L75.1065 171.203L72.1375 173.049L69.1684 174.895L66.5427 177.366L63.9169 179.837L61.8875 182.766L59.8585 185.694L58.1517 189.296L56.4449 192.898L55.6491 196.018L54.8538 199.139L54.4244 202.65L53.9955 206.161L54.0956 211.923L54.1961 217.686L52.7981 219.53L51.4006 221.374L49.5487 224.247L47.6968 227.119L45.2326 232.243L42.7684 237.367L41.2269 241.853L39.6851 246.339L38.8808 249.85L38.0764 253.361L37.5994 256.973L37.1223 260.585L37.3362 266.53L37.5501 272.475L38.1883 275.488L38.826 278.502L35.1954 283.56L31.5647 288.619L28.5773 293.615L25.5902 298.611L23.6398 302.512L21.6894 306.413L20.1182 310.119L18.5471 313.824L17.5379 317.034L16.5286 320.242L15.7622 324.055L14.9958 327.867L14.536 332.548L14.0761 337.23L11.9904 350.297L9.90466 363.365L8.91498 369.997L7.92569 376.628L7.51315 380.052L7.10101 383.476L6.9403 387.338L6.77959 391.201L5.57758 395.032L4.37518 398.863L3.23299 404.519L2.09081 410.176L1.06593 417.002L0.0406651 423.829L0.0203341 426.197L0 428.565L0.802775 430.135L1.60516 431.704L2.96475 432.895L4.32434 434.086L6.57078 434.924L8.81722 435.763L13.0825 439.841L17.3482 443.918L19.1774 444.991L21.007 446.064L24.3307 446.011L27.6545 445.959L31.2319 445.936L34.8094 445.912L36.3008 445.29L37.7926 444.669L38.507 444.023L39.2214 443.379L41.4776 443.843L43.7334 444.308H45.9091H48.0851L49.7239 443.731L51.3627 443.155L53.1724 443.634L54.9824 444.113L58.2295 448.014L61.4766 451.915L63.8747 457.571L66.2733 463.227L68.3594 468.413L70.4459 473.598L71.6471 477.34L72.8487 481.082L73.255 482.97L73.6609 484.859L73.0091 487.111L72.3576 489.363L71.1861 492.183L70.0146 495.003L67.7595 496.37L65.5049 497.736L60.9229 500.075L56.3408 502.413L52.9463 503.762L49.5519 505.111L46.0326 505.761L42.5134 506.411L39.1228 508.458L35.7319 510.504L34.0395 510.916L32.3468 511.327L30.1961 511.801L28.0455 512.275L26.0646 513.387L24.0836 514.499L19.0828 515.083L14.082 515.667L13.4958 516.152L12.9097 516.637L12.5847 517.489L12.2602 518.341L12.7509 520.447L13.2413 522.553L13.9608 523.768L14.6803 524.982L16.1372 525.8L17.5942 526.616H20.1069H22.6196L23.4423 527.727L24.2654 528.837L25.7197 529.525L27.1739 530.214H30.1132H33.0526L34.9177 531.551L36.7825 532.887L38.7263 533.117L40.6701 533.347L41.9558 532.707L43.2415 532.067L44.246 533.027L45.2506 533.987L46.7044 534.592L48.1582 535.198H49.117H50.0758L54.8307 533.833L59.5856 532.468H63.2065H66.8273L69.9203 531.683L73.0134 530.898L76.5326 529.147L80.0518 527.397L82.0069 527.029L83.9621 526.662L86.5287 526.062L89.0954 525.463L90.8128 524.858L92.5306 524.254L96.9308 524.516L101.331 524.779L104.88 524.06L108.428 523.342L111.249 523.844L114.071 524.346L117.59 524.911L121.109 525.476L123.456 525.255L125.802 525.033L130.103 526.016L134.404 526.999L138.546 527.003L142.687 527.006L144.526 526.454L146.366 525.902L147.705 524.883L149.044 523.864L149.642 521.854L150.241 519.843V518.888V517.931L148.936 516.715L147.631 515.499L143.374 513.587L139.118 511.675L136.657 511.42L134.195 511.166L130.39 507.25L126.584 503.334L125.117 502.251L123.651 501.168V500.606V500.044L121.465 494.936L119.278 489.828L119.464 488.62L119.65 487.413L121.853 482.111L124.055 476.81L125.054 472.944L126.054 469.079L125.897 464.203L125.741 459.327L124.513 455.733L123.285 452.14L121.933 449.46L120.58 446.781L118.851 444.262L117.122 441.742L121.462 440.051L125.802 438.359L133.32 434.542L140.839 430.725L144.855 428.101L148.872 425.477L151.191 423.698L153.509 421.92L157.251 418.363L160.994 414.806L167.641 415.057L174.289 415.308L178.721 414.974L183.154 414.639L185.72 417.478L188.287 420.318L192.85 424.804L197.414 429.29L202.079 433.279L206.744 437.268L211.045 440.616L215.346 443.963L221.798 448.279L228.25 452.595L233.935 455.376L239.621 458.156L239.671 464.203L239.721 470.249L240.148 472.853L240.573 475.457L241.517 478.239L242.46 481.022L244.153 484.016L245.846 487.011L249.561 490.732L253.276 494.454L256.165 496.955L259.053 499.456L260.02 501.626L260.987 503.796L261.287 505.942L261.587 508.087L260.8 510.623L260.012 513.158L259.891 513.623L259.77 514.087L256.523 516.828L253.276 519.568L250.734 521.33L248.193 523.092L246.768 524.099L245.343 525.105L242.107 525.668L238.87 526.232L237.666 526.925L236.462 527.618L235.778 528.97L235.094 530.322L235.094 532.692L235.093 535.062L235.973 535.863L236.853 536.663L238.417 537.179L239.981 537.696L243.696 537.673L247.411 537.649L249.757 536.805L252.103 535.961L254.253 534.656L256.404 533.352L261.553 533.135L266.702 532.917L271.329 533.859L275.955 534.8L277.059 534.804L278.162 534.808L279.796 535.753L281.43 536.697L283.776 537.354L286.122 538.01L288.763 539.822L291.404 541.635L292.673 542.317L293.942 542.999L296.695 542.999L299.447 543L301.167 542.122L302.886 541.245L303.302 540.464L303.718 539.684L303.804 539.534L303.889 539.383L304.965 540.086L306.04 540.789L308.203 540.765L310.366 540.741L311.93 540.182L313.494 539.623L314.853 537.812L316.213 536.001L317.004 536.588L317.795 537.174L319.53 537.992L321.265 538.81L324.489 538.609L327.713 538.409L329.206 537.681L330.699 536.954L331.09 536.057L331.481 535.161L332.263 535.385L333.045 535.609L335.179 536.024L337.314 536.438L339.48 536.186L341.648 535.935L342.921 535.535L344.195 535.136L344.644 534.298L345.094 533.461L345.401 532.1L345.709 530.739L345.305 528.859L344.9 526.978L344.056 526.451L343.212 525.924L341.717 525.662L340.222 525.4L337.761 524.051L335.3 522.701L332.022 521.594L328.744 520.488L326.202 519.207L323.66 517.926L320.923 516.064L318.186 514.202L314.905 511.675L311.624 509.149L311.13 507.838L310.637 506.527L307.807 500.286L304.979 494.045L304.657 491.181L304.335 488.317L304.143 487.669L303.952 487.023L302.987 479.026L302.022 471.029L301.768 468.689L301.513 466.348L300.789 462.837L300.066 459.327L298.716 455.615L297.367 451.904L295.511 448.204L293.656 444.503L290.229 438.457L286.802 432.411L286.545 429.412L286.289 426.415L285.734 423.516L285.178 420.618L284.531 417.737L283.885 414.857L282.004 408.03L280.123 401.204L278.58 396.913L277.037 392.622L274.781 387.551L272.526 382.48L270.958 379.554L269.389 376.628L266.938 372.532L264.487 368.436L261.898 364.786L259.307 361.136L256.216 357.329L253.125 353.521L249.047 349.275L244.969 345.03L244.792 343.47L244.614 341.911L242.94 333.359L241.266 324.808L242.526 321.462L243.786 318.115L247.047 309.728L250.309 301.342L253.396 293.598L256.482 285.856L260.353 282.623L264.225 279.39L269.537 273.982L274.849 268.574L277.58 264.869L280.311 261.163L282.291 257.847L284.271 254.531L285.107 252.873L285.943 251.216H286.089H286.236L287.548 253.263L288.859 255.311L290.785 257.847L292.71 260.383L295.868 264.04L299.026 267.698L302.545 270.645L306.064 273.592L310.17 276.294L314.276 278.996L316.915 280.324L319.555 281.652V281.968V282.284L318.364 284.476L317.174 286.668L315.643 290.422L314.112 294.177L313.143 297.369L312.174 300.561L311.467 304.072L310.76 307.583L310.802 314.409L310.844 321.236L311.699 326.112L312.554 330.988L314.097 337.23L315.64 343.471L317.012 348.347L318.384 353.223L319.424 358.099L320.464 362.975L320.455 368.241L320.446 373.508L319.451 377.213L318.457 380.919L318.057 381.943L317.657 382.966L309.319 388.956L300.981 394.946L299.537 396.247L298.094 397.547L297.191 399.376L296.289 401.204V413.491V425.779L296.805 427.233L297.321 428.686L299.004 430.164L300.686 431.642L306.894 434.278L313.103 436.913L313.66 437.221L314.217 437.53L314.705 439.917L315.194 442.305L315.97 444.058L316.748 445.81L318.444 447.654L320.141 449.497L321.705 450.21L323.269 450.923L324.833 450.924L326.398 450.926L328.523 449.757L330.649 448.588L330.889 448.886L331.129 449.184L332.531 450.951L333.933 452.718L336.031 453.865L338.128 455.012L340.279 454.982L342.43 454.951L343.95 454.308L345.471 453.665L347.758 452.107L350.046 450.55H350.209H350.371L351.42 452.335L352.469 454.121L354.271 455.261L356.073 456.401H358.129H360.184L361.278 455.93L362.372 455.46L364.056 454.336L365.739 453.213L367.289 453.832L368.839 454.45H370.017H371.195L372.592 453.868L373.988 453.286L378.35 449.812L382.713 446.338L386.041 442.885L389.37 439.432L390.399 437.672L391.427 435.912L392.111 433.576L392.794 431.24L392.464 417.197L392.133 403.154L392.223 400.619L392.314 398.083L392.202 392.817L392.09 387.551L392.103 375.848L392.117 364.145L393.547 355.759L394.977 347.372L395.446 343.081L395.916 338.79L395.958 328.062L396 317.335L395.299 312.926L394.598 308.517L393.632 304.245L392.665 299.974L390.936 294.026L389.206 288.079L387.469 282.972L385.732 277.866L386.08 277.246L386.428 276.626L386.859 272.405L387.29 268.184L387.039 264.803L386.787 261.421L386.177 259.341L385.568 257.262L384.388 254.921L383.209 252.581L381.91 250.811L380.61 249.042L379.988 243.096L379.366 237.151L378.777 234.333L378.188 231.516L377.185 227.81L376.181 224.105L374.421 219.619L372.662 215.133L370.51 211.037L368.357 206.941L365.803 203.04L363.25 199.139L360.677 195.823L358.104 192.508L355.741 190.023L353.378 187.538L350.641 185.315L347.904 183.093L346.104 181.872L344.305 180.652L344.041 177.498L343.778 174.345L342.805 171.272L341.832 168.198L340.889 166.071L339.945 163.943L338.302 161.257L336.659 158.57L334.186 155.402L331.713 152.234L328.633 149.145L325.553 146.056L323.303 144.566L321.053 143.077L317.664 141.406L314.276 139.736L311.148 138.721L308.019 137.707L305.204 137.128L302.387 136.549L297.774 136.099L293.16 135.649L286.709 135.869L280.257 136.089L276.429 136.906L272.602 137.723L269.432 138.721L266.263 139.72L265.439 139.538L264.616 139.355L255.14 136.957L245.665 134.558L241.65 133.17L237.635 131.781L235.484 130.584L233.334 129.388L232.649 128.803L231.965 128.217V127.63V127.041L233.236 125.066L234.507 123.09L234.479 120.687L234.451 118.284L232.829 114.912L231.207 111.54L232.551 109.784L233.895 108.027L234.672 105.407L235.448 102.788L235.88 100.837L236.311 98.8869L237.83 93.8157L239.348 88.7446L239.815 86.2937L240.283 83.8432L240.068 81.764L239.853 79.6849L238.855 77.7192L237.856 75.7536L236.822 74.9422L235.788 74.1304L236.907 73.7056L238.026 73.2804L240.568 72.6965L243.109 72.1125L247.802 70.7406L252.494 69.3686L259.337 67.2103L266.18 65.0523L270.676 63.4928L275.173 61.9328L278.011 60.8109L280.849 59.689L284.045 58.0858L287.241 56.4829L289.419 54.889L291.596 53.2955L293.813 51.051L296.029 48.8064L297.352 46.5408L298.675 44.2748L299.533 42.1293L300.391 39.9838L300.784 37.8828L301.176 35.7814V33.5283V31.2755L300.596 28.2481L300.015 25.2206L298.266 21.6798L296.518 18.139L294.253 15.5266L291.987 12.9142L289.25 10.5152L286.513 8.11613L283.385 6.05141L280.257 3.98629L277.717 2.71929L275.177 1.45229L273.061 0.72634L270.945 0H269.507H268.07L267.809 0.260187ZM103.615 287.201L105.605 291.199L105.289 316.945L104.972 342.691L104.459 349.648L103.947 356.605L100.015 360.307L96.0838 364.01L91.0717 369.344L86.0599 374.678L81.6577 380.139L77.256 385.6L74.7225 389.111L72.1895 392.622L70.6883 395.06L69.1876 397.498L68.9498 397.497L68.7121 397.497L65.5839 394.776L62.4557 392.055L62.1624 392.046L61.8691 392.037L61.877 390.184L61.8848 388.331L62.2739 385.6L62.6629 382.87L63.4665 379.749L64.2704 376.628L65.7915 373.389L67.3126 370.149L68.777 367.733L70.2418 365.316L73.698 360.509L77.1547 355.703L80.2086 351.147L83.2621 346.592L84.8602 343.666L86.458 340.74L87.7925 337.62L89.1267 334.499L90.1625 331.505L91.198 328.511L91.8142 325.459L92.4309 322.406L92.6479 314.97L92.8649 307.533L92.3945 301.718L91.9241 295.903L91.7098 294.834L91.4952 293.765L95.7933 289.33L100.091 284.895L100.545 284.049L100.999 283.203H101.312H101.625L103.615 287.201Z"/>
</mask>
<path fill-rule="evenodd" clip-rule="evenodd" d="M267.809 0.260187L267.548 0.519985V0.95415V1.38832L271.947 5.863L276.346 10.3373L277.589 12.6805L278.832 15.0238L279.642 17.9389L280.452 20.854V23.6646V26.4751L280.104 27.3872L279.757 28.2988L278.443 29.5939L277.128 30.8886L274.406 32.2648L271.683 33.641L267.172 35.1159L262.66 36.5913L255.622 38.1727L248.584 39.7541L232.161 42.8748L215.737 45.9955L214.182 46.3208L212.627 46.6465L210.489 45.362L208.35 44.0774L205.307 42.9067L202.265 41.7361L198.834 40.9431L195.404 40.15L191.885 38.4332L188.366 36.7165L184.966 33.7666L181.566 30.8168H181.363H181.159L180.746 31.5868L180.333 32.3565L180.79 34.2199L181.246 36.083L181.786 37.1557L182.325 38.2284H182.106H181.888L179.848 37.2103L177.808 36.1922L175.657 34.6198L173.507 33.0473L172.068 31.6848L170.629 30.3222L170.015 30.5574L169.401 30.7922L169.405 32.2675L169.409 33.7425L170.364 35.7904L171.32 37.8384H171.093H170.865L168.707 36.6069L166.549 35.3754L163.846 33.1171L161.144 30.8589L160.58 31.0747L160.016 31.2904V31.9676V32.6451L160.805 34.949L161.594 37.2532L162.381 38.326L163.168 39.3987H162.834H162.499L159.596 38.4161L156.693 37.4338L153.613 35.6515L150.532 33.8696L149.937 34.4633L149.342 35.057L150.402 37.2177L151.462 39.3784L153.072 40.7539L154.683 42.1293L152.364 42.1281L150.045 42.127L146.579 41.5219L143.113 40.9173L141.568 40.3006L140.023 39.6839L139.666 40.0404L139.308 40.3973L139.684 41.7509L140.059 43.1045L141.897 45.1989L143.735 47.2933L141.807 47.0662L139.879 46.8396L133.622 46.6102L127.366 46.3809L122.525 45.9912L117.684 45.6015L114.082 44.8623L110.48 44.1227L107.583 43.3522L104.686 42.5818L103.095 42.0076L101.503 41.433L99.5753 40.4496L97.6479 39.4662L96.2148 37.9694L94.7821 36.4731L93.9676 34.8928L93.1535 33.3126L92.7183 30.992L92.2831 28.6713L92.5271 25.6938L92.7707 22.7163L93.5046 20.5887L94.2382 18.4612L94.8752 17.2324L95.5117 16.0041L96.7153 14.6368L97.9189 13.2692L101.619 10.507L105.319 7.74477L105.195 7.0906L105.071 6.43642L103.54 6.3112L102.009 6.18637L99.1045 7.24312L96.2 8.29986L92.6514 10.6244L89.1029 12.9489L86.7724 15.1537L84.4418 17.3588L81.9205 20.6746L79.3996 23.9903L77.8855 27.111L76.3719 30.2317L75.7525 32.5722L75.1335 34.9127L74.8969 38.104L74.6607 41.2953L75.1441 43.7603L75.6277 46.2252L76.8978 48.9558L78.1674 51.6864L80.008 53.7149L81.8486 55.7429L83.7396 57.1277L85.6306 58.5125L88.7064 60.0428L91.7826 61.5736L96.2793 63.1109L100.776 64.6482L105.077 65.6671L109.379 66.686L115.571 67.8656L121.764 69.0453L123.587 69.0843L125.411 69.1229L126.307 69.3768L127.204 69.6304L126.167 70.9957L125.13 72.361L124.199 74.3114L123.268 76.2619L123.264 77.7633L123.26 79.2647L123.905 80.6207L124.55 81.9766L125.424 82.5477L126.298 83.1188L125.896 84.6944L125.496 86.2703L126.02 88.4825L126.545 90.695L126.427 92.4504L126.309 94.2058L125.536 94.9322L124.763 95.6585L123.077 98.2814L121.392 100.904L120.049 103.406L118.705 105.908L117.3 109.419L115.895 112.93L114.911 117.416L113.927 121.902L113.651 124.242L113.375 126.583L112.648 127.942L111.92 129.302L111.923 130.283L111.925 131.264L112.323 132.695L112.722 134.127L114.462 136.057L116.201 137.988L117.306 138.444L118.412 138.901L119.956 140.853L121.5 142.805L124.238 145.25L126.975 147.694L129.285 149.422L131.595 151.15L127.134 153.248L122.674 155.346L113.68 158.967L104.686 162.589L100.023 164.226L95.3596 165.862L91.616 166.393L87.8723 166.925L84.8106 167.713L81.7488 168.501L78.4275 169.852L75.1065 171.203L72.1375 173.049L69.1684 174.895L66.5427 177.366L63.9169 179.837L61.8875 182.766L59.8585 185.694L58.1517 189.296L56.4449 192.898L55.6491 196.018L54.8538 199.139L54.4244 202.65L53.9955 206.161L54.0956 211.923L54.1961 217.686L52.7981 219.53L51.4006 221.374L49.5487 224.247L47.6968 227.119L45.2326 232.243L42.7684 237.367L41.2269 241.853L39.6851 246.339L38.8808 249.85L38.0764 253.361L37.5994 256.973L37.1223 260.585L37.3362 266.53L37.5501 272.475L38.1883 275.488L38.826 278.502L35.1954 283.56L31.5647 288.619L28.5773 293.615L25.5902 298.611L23.6398 302.512L21.6894 306.413L20.1182 310.119L18.5471 313.824L17.5379 317.034L16.5286 320.242L15.7622 324.055L14.9958 327.867L14.536 332.548L14.0761 337.23L11.9904 350.297L9.90466 363.365L8.91498 369.997L7.92569 376.628L7.51315 380.052L7.10101 383.476L6.9403 387.338L6.77959 391.201L5.57758 395.032L4.37518 398.863L3.23299 404.519L2.09081 410.176L1.06593 417.002L0.0406651 423.829L0.0203341 426.197L0 428.565L0.802775 430.135L1.60516 431.704L2.96475 432.895L4.32434 434.086L6.57078 434.924L8.81722 435.763L13.0825 439.841L17.3482 443.918L19.1774 444.991L21.007 446.064L24.3307 446.011L27.6545 445.959L31.2319 445.936L34.8094 445.912L36.3008 445.29L37.7926 444.669L38.507 444.023L39.2214 443.379L41.4776 443.843L43.7334 444.308H45.9091H48.0851L49.7239 443.731L51.3627 443.155L53.1724 443.634L54.9824 444.113L58.2295 448.014L61.4766 451.915L63.8747 457.571L66.2733 463.227L68.3594 468.413L70.4459 473.598L71.6471 477.34L72.8487 481.082L73.255 482.97L73.6609 484.859L73.0091 487.111L72.3576 489.363L71.1861 492.183L70.0146 495.003L67.7595 496.37L65.5049 497.736L60.9229 500.075L56.3408 502.413L52.9463 503.762L49.5519 505.111L46.0326 505.761L42.5134 506.411L39.1228 508.458L35.7319 510.504L34.0395 510.916L32.3468 511.327L30.1961 511.801L28.0455 512.275L26.0646 513.387L24.0836 514.499L19.0828 515.083L14.082 515.667L13.4958 516.152L12.9097 516.637L12.5847 517.489L12.2602 518.341L12.7509 520.447L13.2413 522.553L13.9608 523.768L14.6803 524.982L16.1372 525.8L17.5942 526.616H20.1069H22.6196L23.4423 527.727L24.2654 528.837L25.7197 529.525L27.1739 530.214H30.1132H33.0526L34.9177 531.551L36.7825 532.887L38.7263 533.117L40.6701 533.347L41.9558 532.707L43.2415 532.067L44.246 533.027L45.2506 533.987L46.7044 534.592L48.1582 535.198H49.117H50.0758L54.8307 533.833L59.5856 532.468H63.2065H66.8273L69.9203 531.683L73.0134 530.898L76.5326 529.147L80.0518 527.397L82.0069 527.029L83.9621 526.662L86.5287 526.062L89.0954 525.463L90.8128 524.858L92.5306 524.254L96.9308 524.516L101.331 524.779L104.88 524.06L108.428 523.342L111.249 523.844L114.071 524.346L117.59 524.911L121.109 525.476L123.456 525.255L125.802 525.033L130.103 526.016L134.404 526.999L138.546 527.003L142.687 527.006L144.526 526.454L146.366 525.902L147.705 524.883L149.044 523.864L149.642 521.854L150.241 519.843V518.888V517.931L148.936 516.715L147.631 515.499L143.374 513.587L139.118 511.675L136.657 511.42L134.195 511.166L130.39 507.25L126.584 503.334L125.117 502.251L123.651 501.168V500.606V500.044L121.465 494.936L119.278 489.828L119.464 488.62L119.65 487.413L121.853 482.111L124.055 476.81L125.054 472.944L126.054 469.079L125.897 464.203L125.741 459.327L124.513 455.733L123.285 452.14L121.933 449.46L120.58 446.781L118.851 444.262L117.122 441.742L121.462 440.051L125.802 438.359L133.32 434.542L140.839 430.725L144.855 428.101L148.872 425.477L151.191 423.698L153.509 421.92L157.251 418.363L160.994 414.806L167.641 415.057L174.289 415.308L178.721 414.974L183.154 414.639L185.72 417.478L188.287 420.318L192.85 424.804L197.414 429.29L202.079 433.279L206.744 437.268L211.045 440.616L215.346 443.963L221.798 448.279L228.25 452.595L233.935 455.376L239.621 458.156L239.671 464.203L239.721 470.249L240.148 472.853L240.573 475.457L241.517 478.239L242.46 481.022L244.153 484.016L245.846 487.011L249.561 490.732L253.276 494.454L256.165 496.955L259.053 499.456L260.02 501.626L260.987 503.796L261.287 505.942L261.587 508.087L260.8 510.623L260.012 513.158L259.891 513.623L259.77 514.087L256.523 516.828L253.276 519.568L250.734 521.33L248.193 523.092L246.768 524.099L245.343 525.105L242.107 525.668L238.87 526.232L237.666 526.925L236.462 527.618L235.778 528.97L235.094 530.322L235.094 532.692L235.093 535.062L235.973 535.863L236.853 536.663L238.417 537.179L239.981 537.696L243.696 537.673L247.411 537.649L249.757 536.805L252.103 535.961L254.253 534.656L256.404 533.352L261.553 533.135L266.702 532.917L271.329 533.859L275.955 534.8L277.059 534.804L278.162 534.808L279.796 535.753L281.43 536.697L283.776 537.354L286.122 538.01L288.763 539.822L291.404 541.635L292.673 542.317L293.942 542.999L296.695 542.999L299.447 543L301.167 542.122L302.886 541.245L303.302 540.464L303.718 539.684L303.804 539.534L303.889 539.383L304.965 540.086L306.04 540.789L308.203 540.765L310.366 540.741L311.93 540.182L313.494 539.623L314.853 537.812L316.213 536.001L317.004 536.588L317.795 537.174L319.53 537.992L321.265 538.81L324.489 538.609L327.713 538.409L329.206 537.681L330.699 536.954L331.09 536.057L331.481 535.161L332.263 535.385L333.045 535.609L335.179 536.024L337.314 536.438L339.48 536.186L341.648 535.935L342.921 535.535L344.195 535.136L344.644 534.298L345.094 533.461L345.401 532.1L345.709 530.739L345.305 528.859L344.9 526.978L344.056 526.451L343.212 525.924L341.717 525.662L340.222 525.4L337.761 524.051L335.3 522.701L332.022 521.594L328.744 520.488L326.202 519.207L323.66 517.926L320.923 516.064L318.186 514.202L314.905 511.675L311.624 509.149L311.13 507.838L310.637 506.527L307.807 500.286L304.979 494.045L304.657 491.181L304.335 488.317L304.143 487.669L303.952 487.023L302.987 479.026L302.022 471.029L301.768 468.689L301.513 466.348L300.789 462.837L300.066 459.327L298.716 455.615L297.367 451.904L295.511 448.204L293.656 444.503L290.229 438.457L286.802 432.411L286.545 429.412L286.289 426.415L285.734 423.516L285.178 420.618L284.531 417.737L283.885 414.857L282.004 408.03L280.123 401.204L278.58 396.913L277.037 392.622L274.781 387.551L272.526 382.48L270.958 379.554L269.389 376.628L266.938 372.532L264.487 368.436L261.898 364.786L259.307 361.136L256.216 357.329L253.125 353.521L249.047 349.275L244.969 345.03L244.792 343.47L244.614 341.911L242.94 333.359L241.266 324.808L242.526 321.462L243.786 318.115L247.047 309.728L250.309 301.342L253.396 293.598L256.482 285.856L260.353 282.623L264.225 279.39L269.537 273.982L274.849 268.574L277.58 264.869L280.311 261.163L282.291 257.847L284.271 254.531L285.107 252.873L285.943 251.216H286.089H286.236L287.548 253.263L288.859 255.311L290.785 257.847L292.71 260.383L295.868 264.04L299.026 267.698L302.545 270.645L306.064 273.592L310.17 276.294L314.276 278.996L316.915 280.324L319.555 281.652V281.968V282.284L318.364 284.476L317.174 286.668L315.643 290.422L314.112 294.177L313.143 297.369L312.174 300.561L311.467 304.072L310.76 307.583L310.802 314.409L310.844 321.236L311.699 326.112L312.554 330.988L314.097 337.23L315.64 343.471L317.012 348.347L318.384 353.223L319.424 358.099L320.464 362.975L320.455 368.241L320.446 373.508L319.451 377.213L318.457 380.919L318.057 381.943L317.657 382.966L309.319 388.956L300.981 394.946L299.537 396.247L298.094 397.547L297.191 399.376L296.289 401.204V413.491V425.779L296.805 427.233L297.321 428.686L299.004 430.164L300.686 431.642L306.894 434.278L313.103 436.913L313.66 437.221L314.217 437.53L314.705 439.917L315.194 442.305L315.97 444.058L316.748 445.81L318.444 447.654L320.141 449.497L321.705 450.21L323.269 450.923L324.833 450.924L326.398 450.926L328.523 449.757L330.649 448.588L330.889 448.886L331.129 449.184L332.531 450.951L333.933 452.718L336.031 453.865L338.128 455.012L340.279 454.982L342.43 454.951L343.95 454.308L345.471 453.665L347.758 452.107L350.046 450.55H350.209H350.371L351.42 452.335L352.469 454.121L354.271 455.261L356.073 456.401H358.129H360.184L361.278 455.93L362.372 455.46L364.056 454.336L365.739 453.213L367.289 453.832L368.839 454.45H370.017H371.195L372.592 453.868L373.988 453.286L378.35 449.812L382.713 446.338L386.041 442.885L389.37 439.432L390.399 437.672L391.427 435.912L392.111 433.576L392.794 431.24L392.464 417.197L392.133 403.154L392.223 400.619L392.314 398.083L392.202 392.817L392.09 387.551L392.103 375.848L392.117 364.145L393.547 355.759L394.977 347.372L395.446 343.081L395.916 338.79L395.958 328.062L396 317.335L395.299 312.926L394.598 308.517L393.632 304.245L392.665 299.974L390.936 294.026L389.206 288.079L387.469 282.972L385.732 277.866L386.08 277.246L386.428 276.626L386.859 272.405L387.29 268.184L387.039 264.803L386.787 261.421L386.177 259.341L385.568 257.262L384.388 254.921L383.209 252.581L381.91 250.811L380.61 249.042L379.988 243.096L379.366 237.151L378.777 234.333L378.188 231.516L377.185 227.81L376.181 224.105L374.421 219.619L372.662 215.133L370.51 211.037L368.357 206.941L365.803 203.04L363.25 199.139L360.677 195.823L358.104 192.508L355.741 190.023L353.378 187.538L350.641 185.315L347.904 183.093L346.104 181.872L344.305 180.652L344.041 177.498L343.778 174.345L342.805 171.272L341.832 168.198L340.889 166.071L339.945 163.943L338.302 161.257L336.659 158.57L334.186 155.402L331.713 152.234L328.633 149.145L325.553 146.056L323.303 144.566L321.053 143.077L317.664 141.406L314.276 139.736L311.148 138.721L308.019 137.707L305.204 137.128L302.387 136.549L297.774 136.099L293.16 135.649L286.709 135.869L280.257 136.089L276.429 136.906L272.602 137.723L269.432 138.721L266.263 139.72L265.439 139.538L264.616 139.355L255.14 136.957L245.665 134.558L241.65 133.17L237.635 131.781L235.484 130.584L233.334 129.388L232.649 128.803L231.965 128.217V127.63V127.041L233.236 125.066L234.507 123.09L234.479 120.687L234.451 118.284L232.829 114.912L231.207 111.54L232.551 109.784L233.895 108.027L234.672 105.407L235.448 102.788L235.88 100.837L236.311 98.8869L237.83 93.8157L239.348 88.7446L239.815 86.2937L240.283 83.8432L240.068 81.764L239.853 79.6849L238.855 77.7192L237.856 75.7536L236.822 74.9422L235.788 74.1304L236.907 73.7056L238.026 73.2804L240.568 72.6965L243.109 72.1125L247.802 70.7406L252.494 69.3686L259.337 67.2103L266.18 65.0523L270.676 63.4928L275.173 61.9328L278.011 60.8109L280.849 59.689L284.045 58.0858L287.241 56.4829L289.419 54.889L291.596 53.2955L293.813 51.051L296.029 48.8064L297.352 46.5408L298.675 44.2748L299.533 42.1293L300.391 39.9838L300.784 37.8828L301.176 35.7814V33.5283V31.2755L300.596 28.2481L300.015 25.2206L298.266 21.6798L296.518 18.139L294.253 15.5266L291.987 12.9142L289.25 10.5152L286.513 8.11613L283.385 6.05141L280.257 3.98629L277.717 2.71929L275.177 1.45229L273.061 0.72634L270.945 0H269.507H268.07L267.809 0.260187ZM103.615 287.201L105.605 291.199L105.289 316.945L104.972 342.691L104.459 349.648L103.947 356.605L100.015 360.307L96.0838 364.01L91.0717 369.344L86.0599 374.678L81.6577 380.139L77.256 385.6L74.7225 389.111L72.1895 392.622L70.6883 395.06L69.1876 397.498L68.9498 397.497L68.7121 397.497L65.5839 394.776L62.4557 392.055L62.1624 392.046L61.8691 392.037L61.877 390.184L61.8848 388.331L62.2739 385.6L62.6629 382.87L63.4665 379.749L64.2704 376.628L65.7915 373.389L67.3126 370.149L68.777 367.733L70.2418 365.316L73.698 360.509L77.1547 355.703L80.2086 351.147L83.2621 346.592L84.8602 343.666L86.458 340.74L87.7925 337.62L89.1267 334.499L90.1625 331.505L91.198 328.511L91.8142 325.459L92.4309 322.406L92.6479 314.97L92.8649 307.533L92.3945 301.718L91.9241 295.903L91.7098 294.834L91.4952 293.765L95.7933 289.33L100.091 284.895L100.545 284.049L100.999 283.203H101.312H101.625L103.615 287.201Z" fill="black" stroke="#D9D9D9" strokeWidth="6" mask="url(#path-1-inside-1_5495_108198)"/>
</svg>
