<svg width="51" height="54" viewBox="0 0 51 54" fill="none" xmlns="http://www.w3.org/2000/svg">
<path fill-rule="evenodd" clip-rule="evenodd" d="M16.8503 1.08915C10.0662 3.33372 3.61191 8.48903 1.29847 13.5125C-0.124481 16.6023 -0.464921 20.9145 0.713955 20.9145C1.12333 20.9145 1.29425 20.6474 1.09238 20.3203C0.89121 19.9939 3.64215 18.1892 7.20551 16.3105C13.6851 12.895 13.6851 12.895 11.4033 15.5146C-1.44474 30.265 3.41285 53.7258 19.3073 53.6835C45.0435 53.6145 61.9445 20.9209 42.7054 8.42206C41.0581 7.35195 39.5522 6.27125 39.3587 6.02029C38.7637 5.24837 33.6388 3.29071 32.2144 3.29071C31.4745 3.29071 30.0881 2.77821 29.135 2.15222C27.1733 0.864269 19.5296 0.203024 16.8503 1.08915Z" fill="black"/>
</svg>
