<svg xmlns="http://www.w3.org/2000/svg" width="222" height="192" fill="none"><path fill="#222" d="m101.681 50.46 7.288 7.648 6.307-10.318 4.643 8.617 8.853-10.156 1.889 9.383 11.192-9.756-.91 9.93 13.268-9.128-3.687 10.243 15.033-8.285-6.377 10.317 16.446-7.248-8.919 10.148 17.473-6.042-11.251 9.742 18.092-4.693-13.32 9.108 18.285-3.236-15.075 8.26 18.05-1.701-16.479 7.218 17.393-.128-17.496 6.008 16.327 1.45-18.102 4.655 14.879 2.992-18.284 3.195 13.082 4.466-18.039 1.659 10.979 5.833-17.369.085 8.617 7.065-16.293-1.491 6.055 8.13-14.835-3.033 3.35 9.006-13.03-4.504.567 9.67-10.918-5.868-2.23 10.108-8.551-7.096-4.974 10.308-5.984-8.157-7.602 10.267-3.276-9.026-10.051 9.985-.492-9.685-12.265 9.47 2.305-10.116-14.192 8.732L67.1 134.18l-15.786 7.79 7.67-10.263-17.01 6.665 10.115-9.975-17.834 5.384 12.321-9.453-18.242 3.976 14.24-8.709-18.221 2.476 15.823-7.762-17.773.917 17.037-6.632-16.91-.663 17.852-5.347-15.65-2.228 18.247-3.937-14.021-3.74 18.215-2.434-12.066-5.165 17.756-.874-9.827-6.468 16.88.705-7.357-7.62 15.61 2.27-4.716-8.594 13.973 3.78-1.964-9.366 12.009 5.2.834-9.917 9.763 6.501z"/><mask id="a" width="117.014" height="45.903" x="50.399" y="73.536" fill="#000" maskUnits="userSpaceOnUse"><path fill="#fff" d="M50.399 73.536h117.014v45.903H50.399z"/><path d="m54.831 102.948 1.043 5.213 5.612-1.298.456 2.276-5.612 1.298 1.239 6.191-2.227.515-3.188-15.933L61.707 99l.45 2.254zm11.156-2.58.87 4.347 19.352-4.475.456 2.276-19.352 4.476.956 4.78 21.312-4.929.455 2.276-23.538 5.444-3.188-15.934 1.113-.257-.004-.023 22.58-5.222.456 2.276zm39.024 5.288-2.383.551-2.162-3.239-6.57 1.519-.732 3.909-2.383.551 3.225-17.417 1.403-.324zm-5.914-4.753-3.54-5.35L94.354 102zm11.43-13.17.456 2.276-4.164.963 2.728 13.635-2.227.515-2.728-13.635-4.165.964-.455-2.277zm13.567-3.161 1.817 9.082q.288 1.434.124 2.83a7.3 7.3 0 0 1-.77 2.559 6.6 6.6 0 0 1-1.649 2.001q-1.023.831-2.47 1.166a5.8 5.8 0 0 1-2.657-.005 6.5 6.5 0 0 1-1.612-.603 6.3 6.3 0 0 1-1.462-1.138 7.4 7.4 0 0 1-1.153-1.687q-.477-.985-.732-2.26l-1.818-9.082 2.227-.515 1.818 9.082q.186.933.609 1.765.418.808 1.045 1.377.643.543 1.461.782.838.234 1.819.008.98-.227 1.632-.806.676-.585 1.033-1.359.376-.8.448-1.723.09-.95-.097-1.882l-1.818-9.082zm15.156 4.568a5.2 5.2 0 0 1-.74 2.124 5.2 5.2 0 0 1-1.549 1.573l4.201 4.458-2.606.603-3.963-4.204-3.63.84.98 4.893-2.227.515-3.184-15.91 6.391-1.478a5 5 0 0 1 1.747-.119q.83.07 1.522.387.688.292 1.234.81.541.494.95 1.138a6.5 6.5 0 0 1 .816 2.097 6.7 6.7 0 0 1 .058 2.273m-8.738 3.14 4.231-.978a2.85 2.85 0 0 0 1.53-.854q.63-.694.747-1.626.234-1.506-.556-2.777a2.8 2.8 0 0 0-1.244-1.093q-.773-.37-1.842-.122l-4.164.963zm22.499-.083.455 2.276-8.997 2.081-.004-.023-1.114.258-3.188-15.934 9.821-2.27.455 2.275-7.594 1.757.925 4.62 5.656-1.308.456 2.276-5.657 1.308.902 4.507zm5.653-8.904q.937.14 1.861.331.923.192 1.705.606.782.415 1.347 1.141.56.705.802 1.91.25 1.134-.04 2.13a5.2 5.2 0 0 1-.929 1.762 6 6 0 0 1-1.555 1.313q-.92.523-1.923.754a6.9 6.9 0 0 1-2.157.165 5.1 5.1 0 0 1-1.901-.536 4.4 4.4 0 0 1-1.441-1.263q-.588-.84-.829-2.047l2.227-.515q.145.728.495 1.196a2.2 2.2 0 0 0 .832.665q.482.198 1.067.205.606.003 1.252-.146.645-.15 1.255-.481a3.8 3.8 0 0 0 1.017-.855q.315-.405.407-.88a2 2 0 0 0-.004-.951q-.123-.615-.504-1.003a2.6 2.6 0 0 0-.894-.627 5.1 5.1 0 0 0-1.187-.344q-.635-.14-1.281-.228-.892-.15-1.762-.307a6 6 0 0 1-1.603-.558 3.9 3.9 0 0 1-1.257-1.043q-.53-.663-.748-1.756a3.8 3.8 0 0 1 .006-1.716 4.2 4.2 0 0 1 .729-1.598q.582-.706 1.346-1.192a5 5 0 0 1 1.66-.67 5.5 5.5 0 0 1 1.818-.111 4.9 4.9 0 0 1 1.705.487q.8.387 1.36 1.09.583.7.761 1.706l-2.227.515a1.5 1.5 0 0 0-.306-.715 1.6 1.6 0 0 0-.568-.512 3.12 3.12 0 0 0-2.088-.184 2.83 2.83 0 0 0-1.689.986q-.48.636-.28 1.399.105.523.427.853.345.326.827.524.483.198 1.063.302z"/></mask><path fill="#fff" d="m54.831 102.948 1.043 5.213 5.612-1.298.456 2.276-5.612 1.298 1.239 6.191-2.227.515-3.188-15.933L61.707 99l.45 2.254zm11.156-2.58.87 4.347 19.352-4.475.456 2.276-19.352 4.476.956 4.78 21.312-4.929.455 2.276-23.538 5.444-3.188-15.934 1.113-.257-.004-.023 22.58-5.222.456 2.276zm39.024 5.288-2.383.551-2.162-3.239-6.57 1.519-.732 3.909-2.383.551 3.225-17.417 1.403-.324zm-5.914-4.753-3.54-5.35L94.354 102zm11.43-13.17.456 2.276-4.164.963 2.728 13.635-2.227.515-2.728-13.635-4.165.964-.455-2.277zm13.567-3.161 1.817 9.082q.288 1.434.124 2.83a7.3 7.3 0 0 1-.77 2.559 6.6 6.6 0 0 1-1.649 2.001q-1.023.831-2.47 1.166a5.8 5.8 0 0 1-2.657-.005 6.5 6.5 0 0 1-1.612-.603 6.3 6.3 0 0 1-1.462-1.138 7.4 7.4 0 0 1-1.153-1.687q-.477-.985-.732-2.26l-1.818-9.082 2.227-.515 1.818 9.082q.186.933.609 1.765.418.808 1.045 1.377.643.543 1.461.782.838.234 1.819.008.98-.227 1.632-.806.676-.585 1.033-1.359.376-.8.448-1.723.09-.95-.097-1.882l-1.818-9.082zm15.156 4.568a5.2 5.2 0 0 1-.74 2.124 5.2 5.2 0 0 1-1.549 1.573l4.201 4.458-2.606.603-3.963-4.204-3.63.84.98 4.893-2.227.515-3.184-15.91 6.391-1.478a5 5 0 0 1 1.747-.119q.83.07 1.522.387.688.292 1.234.81.541.494.95 1.138a6.5 6.5 0 0 1 .816 2.097 6.7 6.7 0 0 1 .058 2.273m-8.738 3.14 4.231-.978a2.85 2.85 0 0 0 1.53-.854q.63-.694.747-1.626.234-1.506-.556-2.777a2.8 2.8 0 0 0-1.244-1.093q-.773-.37-1.842-.122l-4.164.963zm22.499-.083.455 2.276-8.997 2.081-.004-.023-1.114.258-3.188-15.934 9.821-2.27.455 2.275-7.594 1.757.925 4.62 5.656-1.308.456 2.276-5.657 1.308.902 4.507zm5.653-8.904q.937.14 1.861.331.923.192 1.705.606.782.415 1.347 1.141.56.705.802 1.91.25 1.134-.04 2.13a5.2 5.2 0 0 1-.929 1.762 6 6 0 0 1-1.555 1.313q-.92.523-1.923.754a6.9 6.9 0 0 1-2.157.165 5.1 5.1 0 0 1-1.901-.536 4.4 4.4 0 0 1-1.441-1.263q-.588-.84-.829-2.047l2.227-.515q.145.728.495 1.196a2.2 2.2 0 0 0 .832.665q.482.198 1.067.205.606.003 1.252-.146.645-.15 1.255-.481a3.8 3.8 0 0 0 1.017-.855q.315-.405.407-.88a2 2 0 0 0-.004-.951q-.123-.615-.504-1.003a2.6 2.6 0 0 0-.894-.627 5.1 5.1 0 0 0-1.187-.344q-.635-.14-1.281-.228-.892-.15-1.762-.307a6 6 0 0 1-1.603-.558 3.9 3.9 0 0 1-1.257-1.043q-.53-.663-.748-1.756a3.8 3.8 0 0 1 .006-1.716 4.2 4.2 0 0 1 .729-1.598q.582-.706 1.346-1.192a5 5 0 0 1 1.66-.67 5.5 5.5 0 0 1 1.818-.111 4.9 4.9 0 0 1 1.705.487q.8.387 1.36 1.09.583.7.761 1.706l-2.227.515a1.5 1.5 0 0 0-.306-.715 1.6 1.6 0 0 0-.568-.512 3.12 3.12 0 0 0-2.088-.184 2.83 2.83 0 0 0-1.689.986q-.48.636-.28 1.399.105.523.427.853.345.326.827.524.483.198 1.063.302z"/><path fill="#000" d="m54.831 102.948-.2-1.005-.983.228.2 1.004zm1.043 5.213-.982.227.2 1.004.983-.227zm5.612-1.298.983-.228-.201-1.004-.983.227zm.456 2.276.2 1.004.983-.227-.2-1.004zm-5.612 1.298-.201-1.005-.983.228.201 1.004zm1.239 6.191.2 1.005.984-.228-.201-1.004zm-2.227.515-.983.227.201 1.005.983-.227zm-3.188-15.933-.202-1.005-.982.227.2 1.005zM61.707 99l.983-.227-.201-1.005-.983.228zm.45 2.254.202 1.004.983-.227-.201-1.005zm-8.308 1.921 1.043 5.213 1.965-.455-1.043-5.212zm2.227 5.99 5.611-1.298-.402-2.009-5.612 1.298zm4.427-2.075.456 2.276 1.965-.454-.455-2.277zm1.238 1.044-5.612 1.298.402 2.009 5.612-1.298zm-6.394 2.53 1.24 6.191 1.965-.454-1.24-6.191zm2.02 4.96-2.226.515.402 2.009 2.227-.515zm-1.042 1.292-3.189-15.934-1.965.455 3.188 15.933zm-3.97-14.702 9.553-2.209-.402-2.01-9.553 2.21zm8.37-2.986.45 2.253 1.966-.455-.451-2.253zm1.232 1.021-7.327 1.694.402 2.01 7.327-1.695zm4.03.119-.2-1.005-.983.228.2 1.004zm.87 4.347-.982.228.2 1.004.983-.227zm19.352-4.475.983-.227-.201-1.005-.983.228zm.456 2.276.2 1.005.983-.228-.2-1.004zm-19.352 4.476-.201-1.005-.983.227.201 1.005zm.956 4.78-.982.227.2 1.005.984-.228zm21.312-4.929.983-.227-.201-1.005-.983.228zm.455 2.276.201 1.005.983-.227-.201-1.005zm-23.538 5.444-.983.227.201 1.005.983-.227zM63.31 98.629l-.201-1.004-.983.227.2 1.005zm1.113-.257.201 1.004.983-.227-.201-1.004zm-.004-.023-.201-1.004-.983.227.2 1.004zm22.58-5.222.983-.227-.201-1.005-.983.227zm.456 2.276.2 1.005.983-.228-.2-1.004zm-22.45 5.192.87 4.348 1.965-.455-.87-4.347zm2.053 5.125 19.352-4.475-.402-2.01-19.351 4.476zm18.168-5.253.456 2.277 1.965-.455-.455-2.276zm1.237 1.045-19.351 4.475.402 2.009 19.352-4.475zm-20.133 5.707.957 4.78 1.965-.455-.956-4.78zm2.14 5.557 21.312-4.928-.402-2.009-21.311 4.928zm20.128-5.706.455 2.277 1.966-.455-.456-2.276zm1.237 1.045-23.538 5.443.402 2.01 23.538-5.444zm-22.354 6.221-3.189-15.934-1.965.455 3.188 15.933zm-3.97-14.702 1.113-.258-.402-2.009-1.113.258zm1.895-1.49-.005-.022-1.965.454.004.023zm-.786 1.21 22.58-5.222-.402-2.01-22.58 5.223zm21.396-6 .456 2.276 1.965-.454-.455-2.276zm1.238 1.045-21.467 4.964.401 2.009 21.468-4.964zm17.757 11.257.201 1.005 1.467-.34-.836-1.257zm-2.383.551-.831.594.376.562.656-.151zm-2.162-3.239.831-.594-.376-.562-.656.152zm-6.57 1.519-.2-1.004-.657.152-.127.678zm-.732 3.909.201 1.004.657-.151.127-.679zm-2.383.551-.985-.172-.28 1.516 1.466-.34zm3.225-17.417-.2-1.004-.66.152-.125.68zm1.403-.324.833-.593-.375-.564-.659.152zm3.688 9.697.201 1.005 1.464-.339-.831-1.257zm-3.54-5.35.833-.59-1.357-2.052-.461 2.47zM94.354 102l-.985-.173-.283 1.517 1.469-.339zm10.456 2.651-2.383.552.402 2.009 2.383-.551zm-1.351.962-2.162-3.239-1.662 1.188 2.162 3.239zm-3.194-3.649-6.57 1.519.402 2.009 6.57-1.519zm-7.353 2.349-.733 3.909 1.97.348.732-3.908zm.051 3.078-2.383.551.402 2.009 2.383-.551zm-1.196 1.728 3.225-17.417-1.971-.344-3.225 17.417zm2.44-16.584 1.403-.325-.402-2.009-1.403.325zm.37-.737 9.602 14.45 1.664-1.184-9.601-14.45zm5.354 8.514-3.54-5.35-1.667 1.182 3.54 5.35zm-5.36-4.932-1.202 6.447 1.97.347 1.203-6.447zm-.016 7.625 4.743-1.097-.402-2.01-4.743 1.098zm15.972-15.272.983-.227-.201-1.005-.983.228zm.456 2.276.201 1.005.983-.227-.201-1.005zm-4.164.963-.201-1.004-.983.227.201 1.005zm2.728 13.635.201 1.005.983-.228-.201-1.004zm-2.227.515-.983.227.201 1.005.983-.227zm-2.728-13.635.982-.227-.201-1.004-.982.227zm-4.165.964-.982.227.2 1.004.983-.227zm-.455-2.277-.201-1.004-.983.227.201 1.005zm9.573-2.214.455 2.277 1.966-.455-.456-2.276zm1.237 1.045-4.164.963.402 2.009 4.164-.963zm-4.946 2.195 2.728 13.634 1.966-.454-2.729-13.635zm3.51 12.402-2.227.515.402 2.01 2.227-.515zm-1.043 1.293-2.729-13.635-1.965.455 2.728 13.634zm-3.912-14.412-4.165.963.402 2.01 4.165-.964zm-2.981 1.74-.455-2.276-1.966.455.456 2.276zm-1.237-1.044 10.555-2.441-.402-2.01-10.555 2.442zm23.921-6.607.983-.228-.201-1.004-.983.227zm1.941 11.911-.996-.102zm-.77 2.56.877.48.006-.01zm-1.649 2.001.613.802.006-.005zm-5.127 1.161.238-1.005h-.001zm-1.612-.603-.492.908.009.004.008.005zm-1.462-1.138-.734.717.007.008.007.007zm-1.153-1.687-.901.474.005.009.005.01zm-2.55-11.342-.201-1.004-.982.227.201 1.004zm2.227-.515.983-.227-.201-1.005-.983.228zm2.427 10.847-.891.491.003.006zm1.045 1.377-.674.778.014.013.015.012zm1.461.782-.294.991.012.003zm3.451-.798-.637-.782-.01.009zm1.033-1.359-.902-.43-.002.004zm.448-1.723-.999-.078v.009l-.001.008zm-1.915-10.964-.201-1.005-.983.227.201 1.005zm1.222-.283 1.817 9.082 1.966-.454-1.817-9.083zm1.817 9.082q.255 1.278.111 2.5l1.992.204q.182-1.57-.137-3.158zm.111 2.5a6.3 6.3 0 0 1-.656 2.191l1.765.941a8.4 8.4 0 0 0 .883-2.928zm-.651 2.18a5.6 5.6 0 0 1-1.392 1.686l1.239 1.594a7.7 7.7 0 0 0 1.907-2.317zm-1.386 1.681c-.543.442-1.22.77-2.057.964l.402 2.009c1.093-.253 2.063-.703 2.882-1.369zm-2.057.964a4.86 4.86 0 0 1-2.218-.006l-.476 2.011a6.8 6.8 0 0 0 3.096.004zm-2.219-.006a5.6 5.6 0 0 1-1.374-.515l-.95 1.834a7.5 7.5 0 0 0 1.851.692zm-1.357-.506a5.3 5.3 0 0 1-1.235-.963l-1.439 1.465a7.2 7.2 0 0 0 1.69 1.314zm-1.221-.948a6.4 6.4 0 0 1-.995-1.46l-1.782.983a8.4 8.4 0 0 0 1.31 1.912zm-.986-1.442a8.4 8.4 0 0 1-.649-2.014l-1.966.455c.184.92.453 1.759.814 2.506zm-.649-2.014-1.818-9.082-1.965.454 1.817 9.083zm-2.6-7.85 2.227-.515-.402-2.01-2.227.516zm1.044-1.293 1.817 9.083 1.965-.455-1.817-9.082zm1.817 9.083q.214 1.07.701 2.028l1.782-.983a5.8 5.8 0 0 1-.518-1.5zm.704 2.034c.33.638.749 1.194 1.259 1.658l1.347-1.555a3.9 3.9 0 0 1-.83-1.098zm1.288 1.683a5 5 0 0 0 1.812.97l.588-1.982a3 3 0 0 1-1.11-.593zm1.824.973c.737.206 1.511.201 2.302.018l-.402-2.009c-.516.12-.955.11-1.336.003zm2.302.018c.789-.182 1.495-.519 2.078-1.037l-1.294-1.546c-.286.254-.669.455-1.186.574zm2.069-1.029a5.1 5.1 0 0 0 1.3-1.714l-1.809-.852a3 3 0 0 1-.766 1.003zm1.298-1.709a6 6 0 0 0 .545-2.093l-2-.121a3.9 3.9 0 0 1-.35 1.353zm.543-2.075a7.5 7.5 0 0 0-.113-2.189l-1.965.455q.156.782.081 1.577zm-.113-2.189-1.817-9.082-1.966.455 1.818 9.082zm-2.599-7.85 2.205-.51-.402-2.009-2.205.51zm17.16 3.054-.992-.128-.002.01-.001.01zm-.74 2.124.837.55.004-.007.004-.006zm-1.549 1.573-.529-.864-1.046.69.847.898zm4.201 4.458.201 1.005 1.77-.41-1.243-1.319zm-2.606.603-.727.724.383.407.545-.127zm-3.963-4.204.728-.724-.383-.407-.546.127zm-3.63.84-.201-1.005-.983.227.201 1.005zm.98 4.893.201 1.005.982-.227-.201-1.005zm-2.227.515-.983.228.201 1.004.983-.227zm-3.184-15.91-.201-1.005-.983.227.201 1.005zm8.138-1.597-.138 1.023.018.002.017.002zm1.522.387-.424.942.011.005.012.005zm1.234.81-.688.764.006.006.007.006zm.95 1.138.855-.556-.005-.01-.006-.009zm-7.864 7.51-.982.227.201 1.005.982-.227zm4.231-.978-.176-1.01-.012.002-.013.003zm1.53-.854.713.71.007-.008.007-.008zm.747-1.626-.991-.142-.002.016-.002.016zm-.556-2.777-.851.563.002.004zm-1.244-1.093-.438.935.007.004.007.003zm-6.006.84-.201-1.004-.983.228.201 1.004zm9.041 3.24a4.15 4.15 0 0 1-.59 1.695l1.69 1.074c.48-.78.777-1.635.89-2.552zm-.582 1.682c-.32.505-.73.923-1.241 1.26l1.058 1.726a6.25 6.25 0 0 0 1.857-1.886zm-1.44 2.847 4.201 4.458 1.456-1.448-4.201-4.458zm4.728 2.73-2.606.602.402 2.01 2.606-.603zm-1.677.883-3.963-4.204-1.456 1.448 3.964 4.204zm-4.892-4.484-3.63.84.402 2.008 3.63-.84zm-4.412 2.07.98 4.895 1.965-.455-.979-4.894zm1.761 3.663-2.226.515.402 2.009 2.227-.515zm-1.043 1.292-3.183-15.91-1.966.454 3.184 15.911zm-3.965-14.679 6.391-1.478-.402-2.009-6.391 1.478zm6.391-1.478c.53-.122.997-.15 1.408-.1l.276-2.046a6 6 0 0 0-2.086.137zm1.443-.096c.452.038.85.142 1.201.302l.847-1.885a5.5 5.5 0 0 0-1.842-.47zm1.224.312q.528.225.947.622l1.376-1.528a5.1 5.1 0 0 0-1.521-.999zm.96.634q.44.402.781.936l1.688-1.149a6.6 6.6 0 0 0-1.119-1.34zm.769.917a5.5 5.5 0 0 1 .689 1.77l1.965-.455a7.5 7.5 0 0 0-.943-2.426zm.689 1.77q.188.934.049 1.917l1.985.256a7.8 7.8 0 0 0-.069-2.628zm-7.496 6.19 4.231-.979-.402-2.009-4.231.979zm4.207-.974a3.87 3.87 0 0 0 2.066-1.154l-1.425-1.42a1.83 1.83 0 0 1-.994.555zm2.08-1.17c.567-.623.91-1.37 1.015-2.209l-1.99-.22c-.05.403-.205.74-.479 1.041zm1.01-2.177c.195-1.253-.041-2.43-.697-3.486l-1.698 1.134c.397.638.532 1.312.414 2.069zm-.695-3.482a3.76 3.76 0 0 0-1.671-1.472l-.848 1.884c.36.165.624.4.817.714zm-1.656-1.466c-.762-.364-1.612-.392-2.482-.19l.402 2.008c.556-.128.934-.075 1.203.053zm-2.482-.19-4.164.962.402 2.01 4.164-.964zm-4.946 2.194 1.299 6.487 1.965-.454-1.298-6.487zm24.78 6.177.982-.227-.201-1.005-.983.228zm.455 2.276.201 1.005.983-.227-.201-1.005zm-8.997 2.081-.982.227.201 1.005.982-.227zm-.004-.023.983-.227-.201-1.005-.983.228zm-1.114.258-.982.227.201 1.005.982-.228zm-3.188-15.934-.201-1.004-.983.227.201 1.005zm9.821-2.27.982-.228-.201-1.005-.983.228zm.455 2.275.201 1.005.983-.227-.201-1.005zm-7.594 1.757-.201-1.005-.982.227.201 1.005zm.925 4.62-.983.228.201 1.004.983-.227zm5.656-1.308.983-.227-.201-1.005-.983.228zm.456 2.276.201 1.005.983-.227-.201-1.005zm-5.657 1.308-.201-1.004-.982.227.201 1.005zm.902 4.507-.982.228.201 1.004.982-.227zm6.901-1.596.455 2.277 1.966-.455-.456-2.276zm1.237 1.045-8.997 2.08.402 2.01 8.997-2.081zm-7.813 2.858-.004-.023-1.966.455.005.022zm-1.188-.8-1.114.257.402 2.01 1.114-.258zm.07 1.035-3.188-15.934-1.966.455 3.189 15.933zm-3.97-14.702 9.821-2.271-.403-2.01-9.82 2.272zm8.637-3.049.455 2.277 1.966-.455-.456-2.276zm1.237 1.045-7.594 1.756.402 2.01 7.594-1.757zm-8.375 2.988.924 4.62 1.966-.454-.925-4.62zm2.108 5.398 5.656-1.308-.402-2.01-5.656 1.309zm4.472-2.086.456 2.277 1.966-.455-.456-2.276zm1.238 1.045-5.657 1.308.403 2.009 5.656-1.308zm-6.438 2.54.902 4.507 1.965-.455-.902-4.507zm2.085 5.284 7.884-1.823-.403-2.01-7.883 1.824zm13.336-11.733-.178 1.018.013.002zm1.861.332-.218 1.01zm3.052 1.747-.789.653.007.009zm.802 1.91-.983.228.002.01.002.01zm-.04 2.13.957.287.003-.011zm-.929 1.762.757.66.006-.007.006-.007zm-1.555 1.313.471.899.01-.006.009-.005zm-4.08.92-.106 1.025zm-1.901-.537-.48.914.007.004.006.003zm-1.441-1.263-.819.612.009.013.009.012zm-.829-2.047-.201-1.004-.983.227.201 1.005zm2.227-.515.983-.227-.201-1.004-.983.227zm.495 1.196-.799.638.005.007.005.007zm.832.665-.421.943.016.007.016.007zm1.067.205-.034 1.03h.009zm2.507-.627.455.908.014-.008.014-.008zm1.017-.855.76.656.011-.012.009-.013zm.407-.88-.974-.224-.006.022-.004.022zm-.004-.951-.983.227.005.024.006.024zm-.504-1.003-.739.712.012.013.013.013zm-.894-.627-.408.95zm-1.187-.344-.23 1.007.022.005.023.004zm-1.281-.228-.183 1.016.015.003.015.002zm-1.762-.307-.216 1.01.012.002.011.003zm-2.86-1.601.781-.662zm-.748-1.756.983-.228-.003-.013-.003-.013zm.006-1.716.975.222.003-.011zm.729-1.598-.76-.655-.018.02-.016.023zm1.346-1.192-.508-.877-.007.004zm1.66-.67.176 1.01.012-.003.013-.002zm1.818-.111.12-1.025zm1.705.487-.456.926.007.004.007.003zm1.36 1.09-.782.662.007.009.008.008zm.761 1.706.201 1.004.961-.222-.175-.986zm-2.227.515-.993.168.152 1.078 1.042-.242zm-.306-.715-.82.61.015.022.016.02zm-.568-.512.481-.913-.033-.018-.034-.015zm-2.088-.184.158 1.014.032-.006.032-.008zm-1.689.986-.751-.667-.019.023-.019.024zm-.28 1.399.983-.228-.006-.03-.008-.028zm.427.853-.716.737.015.015.014.013zm.827.524.389-.958zm1.063.302-.193 1.014.007.002h.007zm1.039 1.217q.91.135 1.808.322l.435-2.02a35 35 0 0 0-1.913-.34zm1.808.322a5.4 5.4 0 0 1 1.448.513l.95-1.834a7.3 7.3 0 0 0-1.963-.698zm1.448.513c.396.21.739.499 1.033.877l1.578-1.305a5.1 5.1 0 0 0-1.661-1.406zm1.04.886c.245.308.461.779.601 1.476l1.965-.454c-.182-.912-.5-1.714-1.002-2.345zm.605 1.496c.134.606.115 1.134-.022 1.606l1.921.552c.25-.856.258-1.748.058-2.653zm-.019 1.595a4.1 4.1 0 0 1-.74 1.404l1.538 1.29a6.3 6.3 0 0 0 1.117-2.12zm-.728 1.39c-.344.413-.77.775-1.287 1.083l.979 1.777a7 7 0 0 0 1.822-1.54zm-1.269 1.073a6.1 6.1 0 0 1-1.653.648l.402 2.01a8.1 8.1 0 0 0 2.193-.86zm-1.653.648a5.9 5.9 0 0 1-1.849.144l-.213 2.052a7.8 7.8 0 0 0 2.464-.186zm-1.849.144a4.1 4.1 0 0 1-1.541-.432l-.934 1.843c.693.36 1.451.57 2.262.641zm-1.528-.425a3.4 3.4 0 0 1-1.119-.984l-1.603 1.273a5.35 5.35 0 0 0 1.762 1.54zm-1.102-.96c-.298-.426-.527-.972-.665-1.662l-1.966.455c.184.918.508 1.737.993 2.431zm-1.447-.43 2.227-.515-.402-2.01-2.227.516zm1.043-1.292c.12.598.335 1.147.679 1.606l1.599-1.277c-.122-.164-.238-.411-.312-.784zm.689 1.62c.324.417.726.74 1.2.956l.843-1.887a1.2 1.2 0 0 1-.464-.374zm1.232.97c.447.183.925.272 1.422.278l.068-2.06a1.9 1.9 0 0 1-.711-.133zm1.431.278q.73.002 1.478-.172l-.402-2.009a4.5 4.5 0 0 1-1.026.121zm1.478-.172a6 6 0 0 0 1.509-.577l-.91-1.816a4 4 0 0 1-1.001.384zm1.537-.593a4.8 4.8 0 0 0 1.294-1.09l-1.52-1.312c-.19.23-.432.438-.74.618zm1.314-1.116c.305-.393.516-.839.611-1.33l-1.968-.36a1 1 0 0 1-.203.428zm.601-1.286a3.04 3.04 0 0 0-.006-1.451l-1.944.55a.94.94 0 0 1 .002.452zm.005-1.403c-.116-.578-.365-1.098-.772-1.514l-1.429 1.476c.1.102.187.25.235.492zm-.748-1.488a3.6 3.6 0 0 0-1.225-.864l-.816 1.899c.245.106.426.239.563.389zm-1.225-.864a6 6 0 0 0-1.411-.411l-.369 2.032q.55.095.964.278zm-1.366-.403q-.672-.148-1.357-.241l-.306 2.042q.609.083 1.204.214zm-1.327-.236q-.888-.15-1.753-.306l-.385 2.03q.876.156 1.772.308zm-1.73-.301a5.1 5.1 0 0 1-1.35-.469l-.936 1.841a7 7 0 0 0 1.855.648zm-1.35-.469a2.9 2.9 0 0 1-.944-.784l-1.563 1.324a4.9 4.9 0 0 0 1.571 1.301zm-.944-.784c-.227-.285-.423-.708-.546-1.322l-1.965.455c.168.843.47 1.591.948 2.191zm-.552-1.348a2.7 2.7 0 0 1 .004-1.24l-1.949-.444a4.8 4.8 0 0 0-.009 2.191zm.007-1.252q.147-.66.545-1.195l-1.588-1.225a5.3 5.3 0 0 0-.912 1.999zm.512-1.153q.475-.577 1.1-.975l-1.03-1.745a6.7 6.7 0 0 0-1.591 1.41zm1.093-.97a4 4 0 0 1 1.328-.537l-.352-2.02a6 6 0 0 0-1.992.803zm1.353-.543a4.5 4.5 0 0 1 1.497-.09l.24-2.05a6.5 6.5 0 0 0-2.139.131zm1.497-.09c.51.052.963.184 1.369.388l.913-1.853a5.8 5.8 0 0 0-2.042-.585zm1.383.395c.401.194.738.465 1.02.819l1.564-1.323a4.85 4.85 0 0 0-1.699-1.363zm1.035.837c.264.317.45.716.541 1.23l1.974-.408c-.146-.829-.467-1.566-.98-2.18zm1.327.021-2.227.515.402 2.01 2.227-.516zm-1.033 1.352a2.5 2.5 0 0 0-.51-1.2l-1.578 1.305a.47.47 0 0 1 .102.23zm-.479-1.158a2.6 2.6 0 0 0-.907-.814l-.963 1.827a.64.64 0 0 1 .23.209zm-.974-.847a4.1 4.1 0 0 0-2.723-.237l.443 1.999c.49-.125.963-.086 1.452.131zm-2.659-.252a3.85 3.85 0 0 0-2.283 1.333l1.501 1.335a1.8 1.8 0 0 1 1.097-.64zm-2.321 1.38a2.62 2.62 0 0 0-.46 2.305l1.938-.572a.5.5 0 0 1 .099-.493zm-.474 2.246c.104.516.326.986.694 1.363l1.432-1.473a.65.65 0 0 1-.16-.345zm.723 1.391c.326.308.705.544 1.125.716l.778-1.915a1.7 1.7 0 0 1-.529-.33zm1.125.716q.59.24 1.259.36l.385-2.03a4.3 4.3 0 0 1-.866-.245zm1.273.362 1.205.198.357-2.035-1.205-.197z" mask="url(#a)"/></svg>