<svg xmlns="http://www.w3.org/2000/svg" width="329" height="97" fill="none"><g filter="url(#a)"><g filter="url(#b)"><mask id="c" width="320" height="84" x="4.746" y=".84" fill="#000" maskUnits="userSpaceOnUse"><path fill="#fff" d="M4.746.84h320v84h-320z"/><path fillRule="evenodd" d="m319.173 2.84-22.216 18.984 24.789 21.183v1.478l-24.789 21.183 20.096 17.172H6.746v-80z" clipRule="evenodd"/></mask><path fill="#D89BFF" fillRule="evenodd" d="m319.173 2.84-22.216 18.984 24.789 21.183v1.478l-24.789 21.183 20.096 17.172H6.746v-80z" clipRule="evenodd"/><path fill="#111114" d="m296.957 21.824-1.299-1.52-1.78 1.52 1.78 1.52zM319.173 2.84l1.299 1.52 4.12-3.52h-5.419zm2.573 40.167h2v-.922l-.701-.599zm0 1.478 1.299 1.52.701-.599v-.921zm-24.789 21.183-1.299-1.52-1.78 1.52 1.78 1.52zm20.096 17.172v2h5.419l-4.12-3.52zm-310.307 0h-2v2h2zm0-80v-2h-2v2zm291.51 20.504L320.472 4.36l-2.598-3.04-22.216 18.984zm24.789 18.142-24.789-21.182-2.598 3.04 24.789 21.183zm.701 2.999v-1.478h-4v1.478zm-25.49 22.703 24.789-21.183-2.598-3.04-24.789 21.182zm20.096 14.131-20.096-17.172-2.598 3.041 20.095 17.172zM6.746 84.84h310.307v-4H6.746zm-2-82v80h4v-80zm314.427-2H6.746v4h312.427z" mask="url(#c)"/></g><path fill="#111114" d="M70.849 51.197v2.617h-12.56v-18.29h2.591v15.673zm5.1-13.082v4.997h22.738v2.617H75.95v5.494h25.039v2.617H73.333V35.525h1.308v-.027h26.531v2.617zm43.42 15.725h-2.8l-1.701-4.108h-7.718l-1.701 4.108h-2.8l7.536-18.315h1.648zm-5.573-6.725-2.774-6.776-2.799 6.776zm21.153-2.72a5.65 5.65 0 0 1-1.308 2.145 5.7 5.7 0 0 1-2.093 1.334l3.715 5.966h-3.061l-3.506-5.626h-4.265v5.626h-2.616V35.55h7.509q1.099 0 1.988.315a5.4 5.4 0 0 1 1.623.81q.707.498 1.203 1.204.498.68.811 1.492a7.32 7.32 0 0 1 0 5.023m-10.518 1.23h4.971a3.2 3.2 0 0 0 1.91-.55 3.14 3.14 0 0 0 1.204-1.596 4.39 4.39 0 0 0 0-3.192 3.3 3.3 0 0 0-1.151-1.518q-.786-.602-2.041-.602h-4.893zm28.973-10.1V53.84h-1.23l-10.989-12.978V53.84h-2.59V35.525h1.491l10.702 12.637V35.525zm30.474 0V53.84h-2.617V40.365l-5.991 6.62-5.992-6.62V53.84h-2.617V35.525h1.727l6.882 7.587 6.881-7.587zm12.097 18.315a9.2 9.2 0 0 1-3.506-.68 8.6 8.6 0 0 1-2.904-2.041 8.9 8.9 0 0 1-1.962-3.01 9.4 9.4 0 0 1-.654-3.427q0-1.753.654-3.427a8.9 8.9 0 0 1 1.962-3.01 8.8 8.8 0 0 1 2.904-2.014 8.9 8.9 0 0 1 3.506-.706h16.092q1.832 0 3.48.706a8.7 8.7 0 0 1 2.93 2.015 8.9 8.9 0 0 1 1.962 3.009 9.4 9.4 0 0 1 .655 3.427 9.4 9.4 0 0 1-.655 3.428 8.9 8.9 0 0 1-1.962 3.009 8.5 8.5 0 0 1-2.93 2.04 9 9 0 0 1-3.48.68zm16.092-2.538a6.1 6.1 0 0 0 2.433-.497 6.5 6.5 0 0 0 2.093-1.413 6.8 6.8 0 0 0 1.413-2.198q.471-1.23.471-2.512t-.471-2.512a6.4 6.4 0 0 0-1.413-2.197 6.5 6.5 0 0 0-2.093-1.413 6.1 6.1 0 0 0-2.433-.497h-16.092q-1.281 0-2.459.497a6.6 6.6 0 0 0-2.067 1.413 6.4 6.4 0 0 0-1.413 2.197 7 7 0 0 0-.471 2.512q0 1.282.471 2.512a6.8 6.8 0 0 0 1.413 2.198 6.6 6.6 0 0 0 2.067 1.413 6.3 6.3 0 0 0 2.459.497zm25.231-6.908a5.65 5.65 0 0 1-1.308 2.146 5.7 5.7 0 0 1-2.093 1.334l3.715 5.966h-3.061l-3.506-5.626h-4.265v5.626h-2.617V35.55h7.51q1.098 0 1.988.315a5.4 5.4 0 0 1 1.622.81q.706.498 1.204 1.204.497.68.811 1.492a7.32 7.32 0 0 1 0 5.023m-10.518 1.23h4.971a3.2 3.2 0 0 0 1.91-.55 3.14 3.14 0 0 0 1.204-1.595 4.39 4.39 0 0 0 0-3.192 3.3 3.3 0 0 0-1.152-1.518q-.785-.602-2.04-.602h-4.893zm26.068 5.625v2.617h-10.57v-.026h-1.308V35.525h11.538v2.616h-8.922v5.312h6.646v2.616h-6.646v5.18z"/><path fill="#111114" d="M70.849 51.197h.739v-.739h-.74zm0 2.617v.738h.739v-.738zm-12.56 0h-.738v.738h.739zm0-18.29v-.738h-.738v.739zm2.591 0h.739v-.738h-.739zm0 15.673h-.739v.739h.74zm9.23 0v2.617h1.478v-2.617zm.739 1.878h-12.56v1.477h12.56zm-11.82.739v-18.29H57.55v18.29zm-.74-17.55h2.591v-1.478h-2.59zm1.852-.74v15.673h1.478V35.525zm.74 16.412h9.968v-1.477H60.88zM75.95 38.115v-.739h-.74v.739zm0 4.997h-.74v.74h.74zm22.737 0h.738v-.738h-.738zm0 2.617v.739h.738v-.74zm-22.737 0v-.739h-.74v.739zm0 5.494h-.74v.74h.74zm25.039 0h.739v-.738h-.739zm0 2.617v.739h.739v-.74zm-27.656 0h-.739v.739h.739zm0-18.315v-.74h-.739v.74zm1.308 0v.738h.739v-.738zm0-.027v-.738h-.739v.738zm26.531 0h.739v-.738h-.739zm0 2.617v.739h.739v-.74zm-25.961 0v4.997h1.477v-4.997zm.739 5.736h22.737v-1.477H75.95zm21.998-.739v2.617h1.477v-2.617zm.739 1.878H75.95v1.477h22.737zm-23.476.739v5.494h1.477V45.73zm.739 6.233h25.039v-1.477h-25.04zm24.3-.739v2.617h1.478v-2.617zm.739 1.878H73.333v1.478h27.656zm-26.917.739V35.525h-1.478V53.84zm-.739-17.577h1.308v-1.477h-1.308zm2.047-.738v-.027h-1.477v.027zm-.739.712h26.531V34.76h-26.53zm25.792-.739v2.617h1.478v-2.617zm.739 1.878H75.95v1.478h25.222zm18.197 16.464v.739h1.102l-.419-1.02zm-2.8 0-.682.282.188.457h.494zm-1.701-4.108.683-.283-.189-.456h-.494zm-7.718 0v-.739h-.494l-.189.456zm-1.701 4.108v.739h.494l.189-.457zm-2.8 0-.683-.281-.419 1.02h1.102zm7.536-18.315v-.74h-.495l-.188.459zm1.648 0 .683-.282-.188-.457h-.495zm1.963 11.59v.74h1.1l-.417-1.02zm-2.774-6.776.684-.28-.681-1.663-.686 1.66zm-2.799 6.776-.683-.282-.422 1.021h1.105zm11.146 5.986h-2.8v1.478h2.8zm-2.117.456-1.701-4.108-1.365.566 1.701 4.107zm-2.384-4.564h-7.718v1.478h7.718zm-8.401.456-1.7 4.108 1.365.565 1.7-4.107zm-1.018 3.652h-2.8v1.478h2.8zm-2.116 1.02 7.535-18.315-1.366-.562-7.536 18.315zm6.852-17.858h1.648v-1.477h-1.648zm.965-.457 7.536 18.315 1.366-.562-7.536-18.315zm3.329 11.03-2.773-6.777-1.368.56 2.774 6.776zm-4.14-6.78-2.799 6.778 1.365.564 2.8-6.777zm-2.116 7.798h5.573v-1.477h-5.573zm26.726-3.46-.694-.25-.005.012zm-1.308 2.146.523.522.007-.007zm-2.093 1.334-.256-.693-.85.315.479.769zm3.715 5.966v.739h1.331l-.704-1.13zm-3.061 0-.627.39.217.349h.41zm-3.506-5.626.627-.39-.217-.348h-.41zm-4.265 0v-.738h-.739v.738zm0 5.626v.739h.739v-.74zm-2.616 0h-.739v.739h.739zm0-18.29v-.738h-.739v.739zm9.497.315-.245.696.012.005.012.003zm1.623.81-.44.595.007.005.007.005zm1.203 1.204-.604.426.008.01zm.811 1.492.695-.252-.003-.007-.003-.008zm-10.518 6.253h-.739v.739h.739zm4.971 0 .019-.738h-.019zm1.91-.55.41.615.007-.004.006-.004zm1.204-1.595-.691-.261-.004.01-.004.011zm0-3.192-.693.257.002.003zm-1.151-1.518-.45.586.01.007zm-6.934-.602v-.739h-.739v.74zm9.819 5.99a4.9 4.9 0 0 1-1.139 1.868l1.06 1.03a6.4 6.4 0 0 0 1.478-2.422zm-1.131 1.86a5 5 0 0 1-1.827 1.164l.512 1.386a6.5 6.5 0 0 0 2.359-1.505zm-2.198 2.248 3.715 5.965 1.254-.78-3.715-5.966zm4.342 4.836h-3.061v1.478h3.061zm-2.434.348-3.506-5.625-1.254.781 3.506 5.626zm-4.133-5.973h-4.265v1.477h4.265zm-5.004.738v5.626h1.478v-5.626zm.739 4.887h-2.616v1.478h2.616zm-1.878.739V35.55h-1.477v18.29zm-.738-17.55h7.509v-1.478h-7.509zm7.509 0c.662 0 1.24.094 1.743.271l.491-1.393c-.684-.241-1.431-.356-2.234-.356zm1.767.28q.807.255 1.404.7l.879-1.188a6.2 6.2 0 0 0-1.84-.922zm1.418.71q.602.422 1.025 1.025l1.208-.85a5.7 5.7 0 0 0-1.382-1.383zm1.033 1.035q.439.6.718 1.323l1.378-.534a7.3 7.3 0 0 0-.903-1.66zm.713 1.307q.401 1.11.4 2.26h1.478q0-1.413-.489-2.762zm.4 2.26q.001 1.15-.4 2.261l1.389.503a8.1 8.1 0 0 0 .489-2.763zm-10.224 4.48h4.971v-1.477h-4.971zm4.953 0a3.96 3.96 0 0 0 2.338-.673l-.819-1.229c-.448.299-.935.44-1.482.426zm2.351-.681a3.88 3.88 0 0 0 1.48-1.963l-1.398-.479c-.176.515-.48.918-.927 1.23zm1.472-1.942a5.12 5.12 0 0 0 0-3.713l-1.382.521a3.64 3.64 0 0 1 0 2.671zm.002-3.71a4.03 4.03 0 0 0-1.404-1.853l-.88 1.186c.43.32.723.71.898 1.182zm-1.395-1.846c-.683-.524-1.535-.755-2.49-.755v1.478c.719 0 1.228.171 1.591.45zm-2.49-.755h-4.893v1.478h4.893zm-5.632.74v7.456h1.478v-7.457zm29.712-2.643h.739v-.74h-.739zm0 18.315v.739h.739v-.74zm-1.23 0-.564.477.222.262h.342zm-10.989-12.978.564-.477-1.303-1.538v2.015zm0 12.978v.739h.739v-.74zm-2.59 0h-.739v.739h.739zm0-18.315v-.74h-.739v.74zm1.491 0 .564-.478-.221-.261h-.343zm10.702 12.637-.564.477 1.302 1.539v-2.016zm0-12.637v-.74h-.739v.74zm1.877 0V53.84h1.478V35.525zm.739 17.576h-1.23v1.478h1.23zm-.666.261-10.989-12.977-1.128.955 10.989 12.977zm-12.292-12.5V53.84h1.478V40.862zm.739 12.24h-2.59v1.477h2.59zm-1.851.738V35.525h-1.478V53.84zm-.739-17.577h1.491v-1.477h-1.491zm.927-.261 10.702 12.637 1.127-.954-10.701-12.638zm12.004 12.16V35.525h-1.477v12.637zm-.738-11.899h2.616v-1.477h-2.616zm33.09-.738h.739v-.74h-.739zm0 18.315v.739h.739v-.74zm-2.617 0h-.738v.739h.738zm0-13.475H182v-1.917l-1.286 1.421zm-5.991 6.62-.548.495.548.606.547-.605zm-5.992-6.62.548-.496-1.287-1.42v1.916zm0 13.475v.739h.739v-.74zm-2.617 0h-.738v.739h.738zm0-18.315v-.74h-.738v.74zm1.727 0 .548-.497-.22-.242h-.328zm6.882 7.587-.548.497.548.603.547-.603zm6.881-7.587v-.74h-.327l-.22.243zm.988 0V53.84h1.478V35.525zm.739 17.576h-2.617v1.478h2.617zM182 53.84V40.365h-1.477V53.84zm-1.286-13.97-5.992 6.619 1.095.992 5.992-6.62zm-4.897 6.619-5.991-6.62-1.096.992 5.992 6.62zm-7.278-6.124V53.84h1.478V40.365zm.739 12.736h-2.617v1.478h2.617zm-1.878.739V35.525h-1.477V53.84zm-.739-17.577h1.727v-1.477h-1.727zm1.18-.242 6.881 7.588 1.095-.993-6.881-7.588zm7.976 7.588 6.881-7.588-1.094-.993-6.882 7.588zm6.334-7.346h1.727v-1.477h-1.727zm10.318 16.897-.291.679.013.005zm-2.904-2.041.538-.507-.005-.005-.005-.005zm-1.962-3.01.688-.268zm0-6.854-.688-.27zm1.962-3.01.528.518.005-.006zm2.904-2.014-.287-.68-.004.001zm23.078 0-.291.68h.003zm2.93 2.015-.533.511.006.006zm1.962 3.009.688-.27zm-1.962 9.864-.527-.517-.006.005-.005.005zm-2.93 2.04.281.684.006-.003zm-1.047-2.354-.287-.68-.006.002zm2.093-1.413.523.522.007-.007.006-.007zm1.413-2.198.688.27.002-.006zm0-5.024-.69.265zm-1.413-2.197.53-.516-.007-.007zM214.5 38.56l-.293.678.006.002zm-20.984 0-.287-.68-.006.002zm-2.067 1.413-.522-.523-.008.007zm-1.413 2.197.69.265zm0 5.024-.69.264.002.005zm1.413 2.198-.536.508.007.007.007.007zm2.067 1.413-.293.678.006.002zm2.459 2.296a8.5 8.5 0 0 1-3.228-.626l-.556 1.369a10 10 0 0 0 3.784.735zm-3.215-.62a7.9 7.9 0 0 1-2.657-1.869l-1.076 1.013a9.35 9.35 0 0 0 3.151 2.214zm-2.667-1.88a8.1 8.1 0 0 1-1.802-2.76l-1.376.538a9.6 9.6 0 0 0 2.123 3.257zm-1.802-2.76a8.6 8.6 0 0 1-.604-3.159h-1.477q0 1.896.705 3.697zm-.604-3.159q-.001-1.61.604-3.159l-1.376-.537a10.1 10.1 0 0 0-.705 3.696zm.604-3.159a8.1 8.1 0 0 1 1.802-2.76l-1.055-1.034a9.6 9.6 0 0 0-2.123 3.257zm1.807-2.766a8.1 8.1 0 0 1 2.662-1.847l-.582-1.358a9.5 9.5 0 0 0-3.146 2.182zm2.659-1.845a8.2 8.2 0 0 1 3.218-.649v-1.477a9.7 9.7 0 0 0-3.793.764zm3.218-.649h16.092v-1.477h-16.092zm16.092 0q1.683 0 3.189.647l.582-1.358a9.5 9.5 0 0 0-3.771-.766zm3.192.649a8 8 0 0 1 2.685 1.845l1.066-1.023a9.5 9.5 0 0 0-3.176-2.184zm2.691 1.85a8.1 8.1 0 0 1 1.801 2.761l1.376-.537a9.6 9.6 0 0 0-2.122-3.257zm1.801 2.761a8.6 8.6 0 0 1 .604 3.16h1.477q0-1.897-.705-3.697zm.604 3.16q.001 1.61-.604 3.158l1.376.538q.704-1.801.705-3.697zm-.604 3.158a8.1 8.1 0 0 1-1.801 2.76l1.055 1.035a9.6 9.6 0 0 0 2.122-3.257zm-1.812 2.771a7.8 7.8 0 0 1-2.68 1.867l.575 1.361a9.3 9.3 0 0 0 3.181-2.215zm-2.674 1.865a8.3 8.3 0 0 1-3.198.624v1.478a9.8 9.8 0 0 0 3.761-.737zm-3.198.624h-16.092v1.478h16.092zm0-1.06q1.431 0 2.726-.558l-.586-1.356a5.3 5.3 0 0 1-2.14.436zm2.72-.556a7.3 7.3 0 0 0 2.329-1.57l-1.045-1.045a5.8 5.8 0 0 1-1.858 1.254zm2.342-1.585a7.5 7.5 0 0 0 1.565-2.437l-1.376-.538a6 6 0 0 1-1.261 1.959zm1.567-2.442q.519-1.354.52-2.776h-1.478q.001 1.142-.422 2.248zm.52-2.776q-.001-1.422-.52-2.776l-1.38.529q.423 1.105.422 2.247zm-.52-2.776a7.2 7.2 0 0 0-1.573-2.449l-1.059 1.03a5.7 5.7 0 0 1 1.252 1.948zm-1.58-2.456a7.3 7.3 0 0 0-2.329-1.57l-.574 1.36q1.043.44 1.858 1.255zm-2.323-1.569a6.8 6.8 0 0 0-2.726-.557V38.8q1.132 0 2.14.437zm-2.726-.557h-16.092V38.8h16.092zm-16.092 0q-1.43 0-2.746.555l.574 1.361a5.5 5.5 0 0 1 2.172-.439zm-2.752.558a7.3 7.3 0 0 0-2.296 1.568l1.044 1.045a5.9 5.9 0 0 1 1.838-1.257zm-2.304 1.575a7.2 7.2 0 0 0-1.573 2.45l1.38.528a5.7 5.7 0 0 1 1.252-1.947zm-1.573 2.45a7.7 7.7 0 0 0-.52 2.775h1.478q-.001-1.142.422-2.247zm-.52 2.775q.001 1.423.52 2.776l1.38-.528a6.2 6.2 0 0 1-.422-2.248zm.522 2.781a7.5 7.5 0 0 0 1.565 2.437l1.072-1.016a6 6 0 0 1-1.261-1.96zm1.579 2.451q1.012 1.014 2.296 1.569l.586-1.356a5.9 5.9 0 0 1-1.838-1.258zm2.302 1.571q1.315.555 2.746.556v-1.478a5.5 5.5 0 0 1-2.172-.439zm2.746.556h16.092v-1.478h-16.092zm41.323-7.647-.695-.25-.004.012zm-1.308 2.146.522.522.008-.007zm-2.093 1.334-.256-.693-.851.315.48.769zm3.715 5.966v.739h1.33l-.703-1.13zm-3.061 0-.627.39.217.349h.41zm-3.506-5.626.627-.39-.217-.348h-.41zm-4.265 0v-.738h-.739v.738zm0 5.626v.739h.739v-.74zm-2.617 0h-.738v.739h.738zm0-18.29v-.738h-.738v.739zm9.498.315-.246.696.012.005.013.003zm1.622.81-.439.595.007.005.007.005zm1.204 1.204-.604.426.007.01zm.811 1.492.695-.252-.003-.007-.003-.008zm-10.518 6.253h-.739v.739h.739zm4.971 0 .019-.738h-.019zm1.91-.55.41.615.006-.004.007-.004zm1.204-1.595-.692-.261-.004.01-.003.011zm0-3.192-.693.257.001.003zm-1.152-1.518-.449.586.009.007zm-6.933-.602v-.739h-.739v.74zm9.819 5.99a4.9 4.9 0 0 1-1.139 1.868l1.06 1.03a6.4 6.4 0 0 0 1.477-2.422zm-1.132 1.86a5 5 0 0 1-1.826 1.164l.512 1.386a6.5 6.5 0 0 0 2.359-1.505zm-2.197 2.248 3.715 5.965 1.254-.78-3.715-5.966zm4.342 4.836h-3.061v1.478h3.061zm-2.434.348-3.506-5.625-1.254.781 3.506 5.626zm-4.133-5.973h-4.265v1.477h4.265zm-5.004.738v5.626h1.478v-5.626zm.739 4.887h-2.617v1.478h2.617zm-1.878.739V35.55h-1.477v18.29zm-.739-17.55h7.51v-1.478h-7.51zm7.51 0c.662 0 1.24.094 1.742.271l.492-1.393c-.684-.241-1.432-.356-2.234-.356zm1.767.28c.539.169 1.004.404 1.404.7l.879-1.188a6.2 6.2 0 0 0-1.84-.922zm1.418.71q.602.422 1.025 1.025l1.208-.85a5.7 5.7 0 0 0-1.383-1.383zm1.032 1.035q.439.6.719 1.323l1.378-.534a7.2 7.2 0 0 0-.904-1.66zm.713 1.307q.401 1.11.401 2.26h1.478q0-1.413-.489-2.762zm.401 2.26q0 1.15-.401 2.261l1.39.503a8.1 8.1 0 0 0 .489-2.763zm-10.224 4.48h4.971v-1.477h-4.971zm4.953 0a3.96 3.96 0 0 0 2.338-.673l-.82-1.229c-.448.299-.934.44-1.481.426zm2.351-.681a3.88 3.88 0 0 0 1.48-1.963l-1.398-.479c-.176.515-.48.918-.927 1.23zm1.472-1.942a5.13 5.13 0 0 0 0-3.713l-1.383.521a3.64 3.64 0 0 1 0 2.671zm.001-3.71a4 4 0 0 0-1.403-1.853l-.881 1.186c.43.32.724.71.899 1.182zm-1.394-1.846c-.684-.524-1.535-.755-2.49-.755v1.478c.719 0 1.228.171 1.591.45zm-2.49-.755h-4.893v1.478h4.893zm-5.632.74v7.456h1.478v-7.457zm26.807 13.081h.739v-.738h-.739zm0 2.617v.739h.739v-.739zm-10.57 0h-.739v.739h.739zm0-.026h.739V53.1h-.739zm-1.308 0h-.739v.739h.739zm0-18.315v-.74h-.739v.74zm11.538 0h.739v-.74h-.739zm0 2.616v.739h.739v-.739zm-8.922 0v-.739h-.739v.74zm0 5.312h-.739v.738h.739zm6.646 0h.739v-.74h-.739zm0 2.616v.739h.739v-.74zm-6.646 0v-.739h-.739v.739zm0 5.18h-.739v.74h.739zm8.524 0v2.617h1.477v-2.617zm.738 1.878h-10.57v1.478h10.57zm-9.831.739v-.026h-1.478v.026zm-.739-.765h-1.308v1.478h1.308zm-.57.739V35.525h-1.477V53.84zm-.738-17.577h11.538v-1.477H240.97zm10.799-.738v2.616h1.478v-2.616zm.739 1.877h-8.922v1.478h8.922zm-9.661.74v5.31h1.478v-5.31zm.739 6.05h6.646v-1.478h-6.646zm5.907-.74v2.617h1.478v-2.617zm.739 1.878h-6.646v1.478h6.646zm-7.385.739v5.18h1.478v-5.18zm.739 5.92h9.262V50.51h-9.262z"/></g><defs><filter id="a" width="327.846" height="92" x=".746" y=".84" color-interpolation-filters="sRGB" filterUnits="userSpaceOnUse"><feFlood flood-opacity="0" result="BackgroundImageFix"/><feColorMatrix in="SourceAlpha" result="hardAlpha" values="0 0 0 0 0 0 0 0 0 0 0 0 0 0 0 0 0 0 127 0"/><feOffset dy="4"/><feGaussianBlur stdDeviation="2"/><feComposite in2="hardAlpha" operator="out"/><feColorMatrix values="0 0 0 0 0 0 0 0 0 0 0 0 0 0 0 0 0 0 0.25 0"/><feBlend in2="BackgroundImageFix" result="effect1_dropShadow_4431_41040"/><feBlend in="SourceGraphic" in2="effect1_dropShadow_4431_41040" result="shape"/></filter><filter id="b" width="319.846" height="96" x="4.746" y=".84" color-interpolation-filters="sRGB" filterUnits="userSpaceOnUse"><feFlood flood-opacity="0" result="BackgroundImageFix"/><feColorMatrix in="SourceAlpha" result="hardAlpha" values="0 0 0 0 0 0 0 0 0 0 0 0 0 0 0 0 0 0 127 0"/><feOffset dy="12"/><feComposite in2="hardAlpha" operator="out"/><feColorMatrix values="0 0 0 0 0 0 0 0 0 0 0 0 0 0 0 0 0 0 1 0"/><feBlend in2="BackgroundImageFix" result="effect1_dropShadow_4431_41040"/><feBlend in="SourceGraphic" in2="effect1_dropShadow_4431_41040" result="shape"/></filter></defs></svg>