<svg xmlns="http://www.w3.org/2000/svg" width="374" height="54" fill="none"><path fill="#7A64F4" fillRule="evenodd" d="M126.396 20.196v12.226H66.363v9.189h66.112v12.226H54.137V.162h3.454v-.07h75.367V12.32H66.363v7.877zm3.903-10.536H63.706zM60.25 2.752h.001v.068zm-3.453 48.425V2.821v48.357h73.019zm66.94-21.414H63.706v-.001h60.031m248.099-13.218-.007-.02-.007-.019a26 26 0 0 0-3.286-6.351 21.5 21.5 0 0 0-4.905-5.216c-1.91-1.532-4.09-2.705-6.514-3.53-2.478-.844-5.167-1.247-8.041-1.247h-21.242v48.392L307.924.162h-7.915l-22.083 53.675h13.138l4.49-10.846h16.825l4.491 10.846h32.206c2.874 0 5.563-.403 8.041-1.247 2.42-.824 4.599-1.971 6.51-3.458l.008-.006a23.4 23.4 0 0 0 4.901-5.212 27.8 27.8 0 0 0 3.28-6.334l.01-.029.01-.028a32.4 32.4 0 0 0 1.729-10.454c0-3.605-.577-7.117-1.729-10.524M330.494 2.821h-.001v48.357h18.583q3.938 0 7.185-1.105h.001q-3.248 1.104-7.185 1.104h-18.583zm28.114 14.462.013.02.013.019a14.5 14.5 0 0 1 1.684 3.247 19.8 19.8 0 0 1 1.09 6.5c0 2.18-.362 4.294-1.087 6.354a16 16 0 0 1-1.7 3.342 12.3 12.3 0 0 1-2.427 2.592c-.856.677-1.885 1.256-3.112 1.72-1.149.39-2.475.603-4.006.603h-9.016V12.32h9.016c1.524 0 2.802.234 3.876.65l.047.018.048.017a10.4 10.4 0 0 1 3.141 1.703l.026.02.027.02a10.4 10.4 0 0 1 2.367 2.536m5.459 9.786q0-3.8-1.244-7.392a17 17 0 0 0-2.003-3.869 13 13 0 0 0-2.971-3.177 13 13 0 0 0-3.937-2.142q-2.142-.83-4.836-.83h-11.674 11.675q2.694 0 4.836.83a13 13 0 0 1 3.938 2.14 13 13 0 0 1 2.97 3.178 17.1 17.1 0 0 1 2.004 3.87 22.4 22.4 0 0 1 1.243 7.39q0 3.732-1.243 7.254a18.7 18.7 0 0 1-2.004 3.938h-.001a18.6 18.6 0 0 0 2.003-3.937 21.6 21.6 0 0 0 1.244-7.253M176.893 2.82l-18.168 20.033L176.892 2.82zm4.559 48.356v.001h-6.908V15.602l.001-.002v35.577zm-45.455 0V2.821h-.001v48.357h6.908zm6.908-35.577v.002l15.819 17.477.001-.001zm71.248 15.06h-17.546zm6.908 20.587h-27.908v-.07h-3.454V2.821h-.001v48.357h3.454v.07zM196.607 9.728h23.556v.001h-23.556m122.041 41.45h7.39-7.391l-4.491-10.846h-20.378 20.379zm-29.361 0h-7.391L301.791 2.82h-.001l-19.895 48.357zm14.715-35.647 7.323 17.892h-.001l-7.322-17.89zm-54.6-12.641v48.287h6.907v.001h-6.908zm6.908 33.436h13.125q2.832 0 5.181-.76l.001-.001q-2.349.76-5.181.76H256.31m21.347-12.505q1.589-4.215 0-8.428-.898-2.418-3.04-4.007-2.073-1.589-5.388-1.589H256.31v.001h12.918q3.315 0 5.388 1.589 2.142 1.59 3.04 4.007 1.589 4.214 0 8.428zm-233.666-21L25.823 22.854zm4.559 48.356v.001h-6.908V15.602l.001-.002v35.577zm-45.455 0V2.821v48.357h6.907zM10.004 15.6v.002L25.822 33.08l.001-.001zm293.986 6.924-3.405 8.241h6.778zm-17.409-10.452-.01-.028-.011-.028a19.8 19.8 0 0 0-2.46-4.527 15.7 15.7 0 0 0-3.783-3.785c-1.484-1.094-3.158-1.925-4.998-2.508-1.881-.657-3.921-.965-6.091-.965h-22.486v53.606h12.226V38.984h10.467c2.126 0 4.133-.285 5.999-.889l.034-.01.033-.012c1.781-.629 3.399-1.457 4.829-2.502l.007-.005.007-.005a17.5 17.5 0 0 0 3.741-3.746l.014-.019.014-.02a21.2 21.2 0 0 0 2.447-4.576l.011-.028.01-.028a22 22 0 0 0 1.333-7.536c0-2.572-.448-5.088-1.333-7.536m-11.413 10.812-.015.038-.013.04a5.63 5.63 0 0 1-2.16 2.877c-1.053.696-2.188 1.022-3.479.99l-.033-.002h-10.5v-14.37h10.26c1.785 0 2.965.423 3.77 1.04l.017.013.017.012c1.029.764 1.718 1.685 2.131 2.798l.005.012c.831 2.204.831 4.347 0 6.552M223.72 41.68v12.226h-33.227v-.069h-3.454V.162h35.783v12.226h-23.557v8.706h17.547V33.32h-17.547v8.36zm-39.609 12.157V.162h-8.397l-16.99 18.735L141.734.162h-8.397v53.675h12.226V22.501l13.161 14.54 13.161-14.54v31.336zm-132.902 0V.162h-8.397l-16.99 18.735L8.832.162H.435v53.675h12.226V22.501l13.161 14.54 13.16-14.54v31.336z" clipRule="evenodd"/></svg>