<svg xmlns="http://www.w3.org/2000/svg" width="1920" height="734" fill="none"><path fill="#fff" d="M1215.26 6.454H1901c13.81 0 25 11.193 25 25v506.172l-43.24 172.522-114.03-198.637-138.79 200.178-69.1-221.034-248.49 71.691 130.54-264.716L1213 224.648l229.89-91.727z" opacity=".3"/><path fill="#fff" stroke="#645BCA" strokeWidth="121" d="M-152.743 501.575c-17.417-88.026 39.376-175.601 126.85-195.604l861.118-196.916c87.475-20.003 172.505 35.14 189.925 123.166s-39.378 175.602-126.852 195.605L37.18 624.742c-87.475 20.003-172.507-35.14-189.923-123.167Z" opacity=".3"/><mask id="a" width="688.991" height="228.938" x="223.398" y="224.305" fill="#000" maskUnits="userSpaceOnUse"><path fill="#fff" d="M223.398 224.305h688.991v228.938H223.398z"/><path d="M281.421 381.573q5.492 3.835 8.954 9.284 3.463 5.448 4.714 11.607t.216 12.662q-1.035 6.505-4.54 12.451-3.361 5.723-8.604 9.611a30.5 30.5 0 0 1-11.45 5.344 29.8 29.8 0 0 1-12.48.273q-6.183-1.205-11.458-4.9-5.492-3.834-8.954-9.283-3.463-5.45-4.714-11.607-1.251-6.159-.216-12.663t4.54-12.451q3.362-5.724 8.514-9.589 5.243-3.887 11.45-5.345 6.297-1.478 12.48-.273 6.273 1.184 11.548 4.879m1.616 41.367q2.522-4.292 3.258-9.019.717-4.818-.202-9.346a25.2 25.2 0 0 0-3.422-8.494 23.2 23.2 0 0 0-6.477-6.829 21.6 21.6 0 0 0-8.137-3.403q-4.327-.882-8.824.174a21.55 21.55 0 0 0-8.089 3.797q-3.59 2.74-5.987 6.718a26.5 26.5 0 0 0-3.329 9.131q-.737 4.726.183 9.255.92 4.527 3.44 8.585 2.593 3.945 6.549 6.717a21.9 21.9 0 0 0 8.047 3.424 20.8 20.8 0 0 0 8.824-.174q4.498-1.056 8.089-3.796a23.5 23.5 0 0 0 6.077-6.74m62.657-65.563 7.339 36.133q1.16 5.705.498 11.268-.66 5.563-3.108 10.218-2.466 4.563-6.666 8.016-4.128 3.342-9.976 4.714-5.308 1.246-10.734.053a26.4 26.4 0 0 1-6.512-2.361q-3.177-1.72-5.908-4.496-2.642-2.795-4.657-6.686-1.926-3.912-2.956-8.984l-7.339-36.133 8.996-2.112 7.339 36.133a26.8 26.8 0 0 0 2.461 7.013q1.69 3.208 4.22 5.461a16.1 16.1 0 0 0 5.902 3.073q3.39.913 7.349-.017 3.958-.929 6.596-3.256 2.727-2.347 4.173-5.439 1.517-3.203 1.808-6.876a25.3 25.3 0 0 0-.392-7.498l-7.339-36.133zm61.227 17.79a20.8 20.8 0 0 1-2.989 8.482 21.1 21.1 0 0 1-6.259 6.308l16.968 17.648-10.525 2.471-16.01-16.64-14.664 3.442 3.955 19.471-8.996 2.111-12.858-63.3 25.819-6.062q3.779-.887 7.058-.518 3.35.257 6.148 1.498a16.7 16.7 0 0 1 4.984 3.194 22 22 0 0 1 3.838 4.507 25.5 25.5 0 0 1 3.295 8.335q.902 4.437.236 9.053m-35.3 12.746 17.093-4.013q3.616-.753 6.181-3.443 2.545-2.78 3.016-6.496.947-6.01-2.244-11.048-1.814-2.895-5.025-4.323-3.123-1.45-7.44-.436l-16.823 3.95zm116.372-49.995a25.5 25.5 0 0 1 3.296 8.335q.901 4.437.236 9.053a25.8 25.8 0 0 1-1.722 5.907 20.8 20.8 0 0 1-3.292 5.137q-1.989 2.27-4.827 4.075-2.857 1.713-6.545 2.58l-17.093 4.012 3.955 19.471-8.997 2.111-12.857-63.3 25.819-6.062q3.778-.887 7.058-.518 3.35.257 6.148 1.498a16.7 16.7 0 0 1 4.984 3.194 22 22 0 0 1 3.837 4.507m-5.478 16.182q.947-6.01-2.244-11.048-1.813-2.895-5.026-4.323-3.121-1.45-7.44-.436l-16.823 3.95 5.243 25.809 17.093-4.013q3.616-.754 6.181-3.443 2.545-2.78 3.016-6.496m63.041-11.478a20.8 20.8 0 0 1-2.99 8.482 21.1 21.1 0 0 1-6.259 6.308l16.969 17.648-10.526 2.471-16.01-16.64-14.664 3.442 3.955 19.471-8.996 2.112-12.858-63.301 25.819-6.062q3.779-.887 7.058-.518 3.351.257 6.148 1.498a16.7 16.7 0 0 1 4.985 3.194 22 22 0 0 1 3.837 4.508 25.5 25.5 0 0 1 3.295 8.334q.901 4.437.237 9.053m-35.301 12.746 17.093-4.013q3.617-.753 6.181-3.443 2.546-2.78 3.016-6.496.948-6.01-2.244-11.048-1.813-2.895-5.025-4.323-3.122-1.449-7.44-.436l-16.823 3.95zm80.025 11.005q-6.297 1.478-12.533.476-6.165-1.114-11.421-4.72-5.436-3.562-8.863-8.83t-4.658-11.335q-1.233-6.068-.161-12.391t4.632-11.999q3.398-5.541 8.569-9.317a32.1 32.1 0 0 1 11.559-5.275l55.327-12.988q6.297-1.479 12.462-.364 6.254 1.093 11.492 4.608 5.436 3.562 8.862 8.83t4.659 11.335.161 12.392q-1.072 6.323-4.632 11.998-3.38 5.633-8.641 9.429-5.19 3.685-11.487 5.163zm53.543-21.772a21.8 21.8 0 0 0 8.017-3.685 24 24 0 0 0 6.203-6.58q2.54-4.201 3.313-8.747.756-4.636-.146-9.074a24.3 24.3 0 0 0-3.385-8.313q-2.484-3.876-6.404-6.467a22.1 22.1 0 0 0-8.19-3.201q-4.308-.79-8.716.244l-55.327 12.988a22.5 22.5 0 0 0-8.107 3.706q-3.609 2.65-6.114 6.559-2.557 4.11-3.313 8.747-.755 4.637.147 9.074a24.2 24.2 0 0 0 3.385 8.313q2.466 3.786 6.403 6.467 3.793 2.43 8.101 3.222 4.397.77 8.806-.265zm82.332-56.52a39.6 39.6 0 0 1 4.644 12.193q1.306 6.43.488 13.073a34.9 34.9 0 0 1-2.342 8.425 29 29 0 0 1-4.435 7.398q-2.724 3.296-6.658 5.737-3.933 2.442-9.062 3.646l-24.2 5.681-12.876-63.392 24.2-5.681q5.128-1.204 9.651-.747t8.294 2.322a24.2 24.2 0 0 1 6.9 4.737 30.1 30.1 0 0 1 5.396 6.608m-3.95 24.172q.681-4.998-.312-9.888a29.6 29.6 0 0 0-3.588-9.31 22 22 0 0 0-3.639-4.459 16.7 16.7 0 0 0-4.714-3.258q-2.617-1.283-5.699-1.603-3.01-.433-6.518.392l-15.203 3.569 9.234 45.46 15.203-3.569q3.509-.824 6.185-2.495 2.659-1.762 4.468-3.99a21 21 0 0 0 3.022-5.074 26 26 0 0 0 1.561-5.775m59.422-57.213 7.339 36.133q1.16 5.705.498 11.268-.66 5.564-3.108 10.218-2.466 4.563-6.666 8.016-4.128 3.342-9.976 4.714-5.307 1.246-10.734.053a26.4 26.4 0 0 1-6.512-2.361q-3.177-1.721-5.908-4.496-2.641-2.795-4.657-6.686-1.926-3.912-2.956-8.984l-7.339-36.133 8.996-2.112 7.339 36.133a26.8 26.8 0 0 0 2.462 7.013q1.688 3.208 4.219 5.461a16.1 16.1 0 0 0 5.903 3.073q3.389.913 7.348-.017 3.958-.929 6.596-3.256 2.727-2.349 4.173-5.439 1.518-3.202 1.808-6.876a25.3 25.3 0 0 0-.392-7.498l-7.339-36.133zm69.949 23.143 9.177-2.154q.099 6.523-2.091 12.445a35.7 35.7 0 0 1-6.241 10.573q-3.96 4.63-9.458 7.724-5.409 3.072-11.726 3.986-6.427.844-12.376-.606-5.969-1.54-10.809-4.957-4.86-3.508-8.25-8.595-3.408-5.178-4.695-11.517t-.179-12.481q1.09-6.233 4.166-11.51 3.075-5.276 7.902-9.35 4.828-4.075 10.997-6.187 6.096-2.001 12.204-1.632 6.197.349 11.611 2.872 5.485 2.413 9.772 6.815 4.269 4.31 6.708 10.285l-9.176 2.154a21.9 21.9 0 0 0-4.565-6.234q-2.732-2.775-6.16-4.342-3.357-1.679-7.232-2.192t-7.851.325a24 24 0 0 0-7.336 2.861 26.3 26.3 0 0 0-5.977 4.913 24.8 24.8 0 0 0-4.241 6.499q-1.623 3.606-2.11 7.706a24.8 24.8 0 0 0 .484 7.951 23.3 23.3 0 0 0 2.839 7.018 24 24 0 0 0 4.941 5.767q2.965 2.529 6.645 3.943a21.7 21.7 0 0 0 6.923 1.6 26.2 26.2 0 0 0 6.931-.678 24.5 24.5 0 0 0 7.389-3.063 28.8 28.8 0 0 0 6.012-5.206 24.8 24.8 0 0 0 4.077-6.84 24.4 24.4 0 0 0 1.695-7.893m44.715-49.966 1.84 9.056-16.823 3.949 11.018 54.245-8.996 2.112-11.019-54.245-16.823 3.949-1.839-9.056z"/></mask><path fill="#222" d="M281.421 381.573q5.492 3.835 8.954 9.284 3.463 5.448 4.714 11.607t.216 12.662q-1.035 6.505-4.54 12.451-3.361 5.723-8.604 9.611a30.5 30.5 0 0 1-11.45 5.344 29.8 29.8 0 0 1-12.48.273q-6.183-1.205-11.458-4.9-5.492-3.834-8.954-9.283-3.463-5.45-4.714-11.607-1.251-6.159-.216-12.663t4.54-12.451q3.362-5.724 8.514-9.589 5.243-3.887 11.45-5.345 6.297-1.478 12.48-.273 6.273 1.184 11.548 4.879m1.616 41.367q2.522-4.292 3.258-9.019.717-4.818-.202-9.346a25.2 25.2 0 0 0-3.422-8.494 23.2 23.2 0 0 0-6.477-6.829 21.6 21.6 0 0 0-8.137-3.403q-4.327-.882-8.824.174a21.55 21.55 0 0 0-8.089 3.797q-3.59 2.74-5.987 6.718a26.5 26.5 0 0 0-3.329 9.131q-.737 4.726.183 9.255.92 4.527 3.44 8.585 2.593 3.945 6.549 6.717a21.9 21.9 0 0 0 8.047 3.424 20.8 20.8 0 0 0 8.824-.174q4.498-1.056 8.089-3.796a23.5 23.5 0 0 0 6.077-6.74m62.657-65.563 7.339 36.133q1.16 5.705.498 11.268-.66 5.563-3.108 10.218-2.466 4.563-6.666 8.016-4.128 3.342-9.976 4.714-5.308 1.246-10.734.053a26.4 26.4 0 0 1-6.512-2.361q-3.177-1.72-5.908-4.496-2.642-2.795-4.657-6.686-1.926-3.912-2.956-8.984l-7.339-36.133 8.996-2.112 7.339 36.133a26.8 26.8 0 0 0 2.461 7.013q1.69 3.208 4.22 5.461a16.1 16.1 0 0 0 5.902 3.073q3.39.913 7.349-.017 3.958-.929 6.596-3.256 2.727-2.347 4.173-5.439 1.517-3.203 1.808-6.876a25.3 25.3 0 0 0-.392-7.498l-7.339-36.133zm61.227 17.79a20.8 20.8 0 0 1-2.989 8.482 21.1 21.1 0 0 1-6.259 6.308l16.968 17.648-10.525 2.471-16.01-16.64-14.664 3.442 3.955 19.471-8.996 2.111-12.858-63.3 25.819-6.062q3.779-.887 7.058-.518 3.35.257 6.148 1.498a16.7 16.7 0 0 1 4.984 3.194 22 22 0 0 1 3.838 4.507 25.5 25.5 0 0 1 3.295 8.335q.902 4.437.236 9.053m-35.3 12.746 17.093-4.013q3.616-.753 6.181-3.443 2.545-2.78 3.016-6.496.947-6.01-2.244-11.048-1.814-2.895-5.025-4.323-3.123-1.45-7.44-.436l-16.823 3.95zm116.372-49.995a25.5 25.5 0 0 1 3.296 8.335q.901 4.437.236 9.053a25.8 25.8 0 0 1-1.722 5.907 20.8 20.8 0 0 1-3.292 5.137q-1.989 2.27-4.827 4.075-2.857 1.713-6.545 2.58l-17.093 4.012 3.955 19.471-8.997 2.111-12.857-63.3 25.819-6.062q3.778-.887 7.058-.518 3.35.257 6.148 1.498a16.7 16.7 0 0 1 4.984 3.194 22 22 0 0 1 3.837 4.507m-5.478 16.182q.947-6.01-2.244-11.048-1.813-2.895-5.026-4.323-3.121-1.45-7.44-.436l-16.823 3.95 5.243 25.809 17.093-4.013q3.616-.754 6.181-3.443 2.545-2.78 3.016-6.496m63.041-11.478a20.8 20.8 0 0 1-2.99 8.482 21.1 21.1 0 0 1-6.259 6.308l16.969 17.648-10.526 2.471-16.01-16.64-14.664 3.442 3.955 19.471-8.996 2.112-12.858-63.301 25.819-6.062q3.779-.887 7.058-.518 3.351.257 6.148 1.498a16.7 16.7 0 0 1 4.985 3.194 22 22 0 0 1 3.837 4.508 25.5 25.5 0 0 1 3.295 8.334q.901 4.437.237 9.053m-35.301 12.746 17.093-4.013q3.617-.753 6.181-3.443 2.546-2.78 3.016-6.496.948-6.01-2.244-11.048-1.813-2.895-5.025-4.323-3.122-1.449-7.44-.436l-16.823 3.95zm80.025 11.005q-6.297 1.478-12.533.476-6.165-1.114-11.421-4.72-5.436-3.562-8.863-8.83t-4.658-11.335q-1.233-6.068-.161-12.391t4.632-11.999q3.398-5.541 8.569-9.317a32.1 32.1 0 0 1 11.559-5.275l55.327-12.988q6.297-1.479 12.462-.364 6.254 1.093 11.492 4.608 5.436 3.562 8.862 8.83t4.659 11.335.161 12.392q-1.072 6.323-4.632 11.998-3.38 5.633-8.641 9.429-5.19 3.685-11.487 5.163zm53.543-21.772a21.8 21.8 0 0 0 8.017-3.685 24 24 0 0 0 6.203-6.58q2.54-4.201 3.313-8.747.756-4.636-.146-9.074a24.3 24.3 0 0 0-3.385-8.313q-2.484-3.876-6.404-6.467a22.1 22.1 0 0 0-8.19-3.201q-4.308-.79-8.716.244l-55.327 12.988a22.5 22.5 0 0 0-8.107 3.706q-3.609 2.65-6.114 6.559-2.557 4.11-3.313 8.747-.755 4.637.147 9.074a24.2 24.2 0 0 0 3.385 8.313q2.466 3.786 6.403 6.467 3.793 2.43 8.101 3.222 4.397.77 8.806-.265zm82.332-56.52a39.6 39.6 0 0 1 4.644 12.193q1.306 6.43.488 13.073a34.9 34.9 0 0 1-2.342 8.425 29 29 0 0 1-4.435 7.398q-2.724 3.296-6.658 5.737-3.933 2.442-9.062 3.646l-24.2 5.681-12.876-63.392 24.2-5.681q5.128-1.204 9.651-.747t8.294 2.322a24.2 24.2 0 0 1 6.9 4.737 30.1 30.1 0 0 1 5.396 6.608m-3.95 24.172q.681-4.998-.312-9.888a29.6 29.6 0 0 0-3.588-9.31 22 22 0 0 0-3.639-4.459 16.7 16.7 0 0 0-4.714-3.258q-2.617-1.283-5.699-1.603-3.01-.433-6.518.392l-15.203 3.569 9.234 45.46 15.203-3.569q3.509-.824 6.185-2.495 2.659-1.762 4.468-3.99a21 21 0 0 0 3.022-5.074 26 26 0 0 0 1.561-5.775m59.422-57.213 7.339 36.133q1.16 5.705.498 11.268-.66 5.564-3.108 10.218-2.466 4.563-6.666 8.016-4.128 3.342-9.976 4.714-5.307 1.246-10.734.053a26.4 26.4 0 0 1-6.512-2.361q-3.177-1.721-5.908-4.496-2.641-2.795-4.657-6.686-1.926-3.912-2.956-8.984l-7.339-36.133 8.996-2.112 7.339 36.133a26.8 26.8 0 0 0 2.462 7.013q1.688 3.208 4.219 5.461a16.1 16.1 0 0 0 5.903 3.073q3.389.913 7.348-.017 3.958-.929 6.596-3.256 2.727-2.349 4.173-5.439 1.518-3.202 1.808-6.876a25.3 25.3 0 0 0-.392-7.498l-7.339-36.133zm69.949 23.143 9.177-2.154q.099 6.523-2.091 12.445a35.7 35.7 0 0 1-6.241 10.573q-3.96 4.63-9.458 7.724-5.409 3.072-11.726 3.986-6.427.844-12.376-.606-5.969-1.54-10.809-4.957-4.86-3.508-8.25-8.595-3.408-5.178-4.695-11.517t-.179-12.481q1.09-6.233 4.166-11.51 3.075-5.276 7.902-9.35 4.828-4.075 10.997-6.187 6.096-2.001 12.204-1.632 6.197.349 11.611 2.872 5.485 2.413 9.772 6.815 4.269 4.31 6.708 10.285l-9.176 2.154a21.9 21.9 0 0 0-4.565-6.234q-2.732-2.775-6.16-4.342-3.357-1.679-7.232-2.192t-7.851.325a24 24 0 0 0-7.336 2.861 26.3 26.3 0 0 0-5.977 4.913 24.8 24.8 0 0 0-4.241 6.499q-1.623 3.606-2.11 7.706a24.8 24.8 0 0 0 .484 7.951 23.3 23.3 0 0 0 2.839 7.018 24 24 0 0 0 4.941 5.767q2.965 2.529 6.645 3.943a21.7 21.7 0 0 0 6.923 1.6 26.2 26.2 0 0 0 6.931-.678 24.5 24.5 0 0 0 7.389-3.063 28.8 28.8 0 0 0 6.012-5.206 24.8 24.8 0 0 0 4.077-6.84 24.4 24.4 0 0 0 1.695-7.893m44.715-49.966 1.84 9.056-16.823 3.949 11.018 54.245-8.996 2.112-11.019-54.245-16.823 3.949-1.839-9.056z"/><path fill="#222" d="m281.421 381.573-1.161 1.666.002.001zm8.954 9.284-1.68 1.121zm4.93 24.269-1.962-.266zm-4.54 12.451-1.699-.996-.002.003zm-8.604 9.611-1.145-1.613-.01.007zm-23.93 5.617-.427 1.977.011.002zm-11.458-4.9 1.161-1.666-.003-.001zm-8.954-9.283-1.68 1.121zm-4.93-24.27-1.962-.267zm4.54-12.451 1.699.996.002-.003zm8.514-9.589-1.145-1.613-.009.007zm23.93-5.618-.427 1.977.012.002zm13.164 46.246 1.689 1.014.006-.01.006-.01zm3.258-9.019 1.963.26.002-.013zm-3.624-17.84-1.691 1.105.008.011zm-6.477-6.829 1.161-1.665-.009-.007-.01-.006zm-8.137-3.403-.443 1.974.008.001.008.002zm-16.913 3.971-1.155-1.606-.006.005-.007.005zm-5.987 6.718-1.689-1.013-.006.01-.006.01zm-3.329 9.131-1.96-.283-.001.012-.002.011zm3.623 17.84-1.69 1.105.013.021.014.02zm6.549 6.717-1.161 1.665.009.007.01.006zm8.047 3.424-.443 1.974.008.001.008.002zm16.913-3.97-1.155-1.606-.006.005-.007.006zm3.302-46.44c3.463 2.418 6.267 5.33 8.433 8.738l3.36-2.243c-2.451-3.857-5.616-7.134-9.476-9.829zm8.433 8.738c2.186 3.438 3.663 7.083 4.447 10.943l3.894-.915c-.884-4.351-2.549-8.444-4.981-12.271zm4.447 10.943c.784 3.859.854 7.834.201 11.939l3.924.533c.727-4.568.653-9.035-.231-13.387zm.201 11.939c-.647 4.069-2.067 7.972-4.277 11.721l3.398 1.993c2.464-4.18 4.07-8.576 4.803-13.181zm-4.279 11.724c-2.101 3.577-4.781 6.568-8.048 8.991l2.29 3.225c3.722-2.76 6.779-6.175 9.16-10.229zm-8.058 8.998a28.45 28.45 0 0 1-10.693 4.99l.796 3.92a32.5 32.5 0 0 0 12.206-5.699zm-10.693 4.99c-3.867.908-7.75.994-11.667.254l-.831 3.958c4.446.839 8.884.743 13.294-.292zm-11.655.257c-3.851-.751-7.421-2.276-10.724-4.59l-2.321 3.331c3.73 2.613 7.797 4.356 12.191 5.212zm-10.727-4.591c-3.462-2.418-6.266-5.33-8.433-8.738l-3.359 2.243c2.451 3.857 5.616 7.134 9.476 9.829zm-8.433-8.738c-2.185-3.438-3.662-7.083-4.446-10.942l-3.894.914c.884 4.351 2.549 8.444 4.981 12.271zm-4.446-10.942c-.784-3.86-.854-7.835-.201-11.939l-3.924-.534c-.727 4.569-.653 9.035.231 13.387zm-.201-11.939c.647-4.069 2.067-7.973 4.277-11.722l-3.398-1.993c-2.464 4.18-4.07 8.577-4.803 13.181zm4.279-11.725c2.105-3.583 4.759-6.569 7.968-8.977l-2.309-3.211c-3.662 2.747-6.684 6.154-9.061 10.201zm7.958-8.97c3.274-2.427 6.837-4.089 10.703-4.997l-.796-3.92c-4.41 1.036-8.481 2.937-12.197 5.692zm10.703-4.997c3.93-.922 7.809-1.006 11.655-.256l.854-3.954c-4.397-.857-8.839-.758-13.305.29zm11.667-.254c3.909.738 7.505 2.256 10.802 4.566l2.321-3.331c-3.736-2.617-7.838-4.352-12.292-5.193zm15.28 45.261c1.809-3.08 2.987-6.334 3.519-9.753l-3.925-.52c-.45 2.884-1.443 5.642-2.996 8.285zm3.522-9.766c.512-3.436.442-6.79-.22-10.05l-3.894.915c.564 2.778.629 5.654.184 8.641zm-.22-10.05a27.2 27.2 0 0 0-3.686-9.153l-3.366 2.232a23.3 23.3 0 0 1 3.158 7.836zm-3.679-9.142a25.15 25.15 0 0 0-7.006-7.389l-2.321 3.33a21.3 21.3 0 0 1 5.947 6.269zm-7.025-7.402a23.5 23.5 0 0 0-8.852-3.702l-.854 3.954a19.7 19.7 0 0 1 7.422 3.104zm-8.836-3.698c-3.17-.647-6.399-.58-9.665.187l.796 3.92c2.73-.641 5.385-.69 7.983-.16zm-9.665.187c-3.213.754-6.167 2.141-8.846 4.151l2.31 3.211a19.5 19.5 0 0 1 7.332-3.442zm-8.859 4.161c-2.607 1.99-4.778 4.429-6.508 7.301l3.378 2.027c1.465-2.433 3.286-4.473 5.466-6.137zm-6.52 7.321a28.6 28.6 0 0 0-3.588 9.841l3.919.565a24.4 24.4 0 0 1 3.071-8.419zm-3.591 9.864c-.527 3.384-.463 6.712.199 9.972l3.894-.914c-.564-2.778-.622-5.62-.167-8.538zm.199 9.972c.662 3.259 1.899 6.339 3.697 9.233l3.381-2.21c-1.563-2.516-2.62-5.159-3.184-7.937zm3.724 9.274c1.865 2.84 4.221 5.254 7.051 7.236l2.321-3.33c-2.444-1.713-4.454-3.777-6.045-6.198zm7.07 7.249c2.686 1.835 5.604 3.079 8.746 3.72l.886-3.947a20 20 0 0 1-7.348-3.129zm8.762 3.723a22.8 22.8 0 0 0 9.649-.191l-.796-3.92a18.8 18.8 0 0 1-7.999.157zm9.649-.191c3.267-.767 6.228-2.153 8.859-4.161l-2.336-3.19c-2.156 1.645-4.588 2.79-7.319 3.431zm8.846-4.151a25.6 25.6 0 0 0 6.611-7.331l-3.378-2.027a21.4 21.4 0 0 1-5.543 6.147zm67.579-73.908 1.947-.457-.398-1.96-1.947.457zm7.837 47.401-1.973-.186zm-3.108 10.218 1.737.928.006-.01.005-.011zm-6.666 8.016 1.214 1.559.007-.005.006-.005zm-20.71 4.767.472-1.967-.003-.001zm-6.512-2.361-.974 1.78.017.009.017.009zm-5.908-4.496-1.454 1.413.013.014.014.014zm-4.657-6.686-1.784.937.009.018.009.018zm-10.295-45.117-.399-1.96-1.947.457.398 1.96zm8.996-2.112 1.947-.457-.398-1.96-1.947.457zm9.8 43.146-1.766.972.007.012zm4.22 5.461-1.335 1.527.028.025.029.024zm5.902 3.073-.582 1.94.011.003.012.003zm13.945-3.273-1.263-1.518-.01.008-.009.008zm4.173-5.439-1.787-.83-.005.01zm1.808-6.876-1.978-.14-.002.017-.001.017zm-7.731-43.631-.399-1.96-1.947.457.398 1.96zm6.959-1.634 7.339 36.133 3.894-.914-7.339-36.133zm7.339 36.133c.732 3.603.886 7.142.472 10.625l3.946.372c.468-3.934.29-7.907-.524-11.911zm.472 10.625c-.413 3.476-1.379 6.634-2.884 9.496l3.497 1.815c1.759-3.343 2.865-6.996 3.333-10.939zm-2.873 9.475c-1.509 2.793-3.553 5.257-6.155 7.397l2.454 3.097c2.997-2.464 5.397-5.344 7.176-8.637zm-6.143 7.387c-2.479 2.006-5.515 3.457-9.159 4.312l.796 3.92c4.153-.975 7.768-2.667 10.792-5.115zm-9.159 4.312c-3.242.761-6.522.78-9.864.046l-.944 3.934c3.893.856 7.769.84 11.604-.06zm-9.867.045a24.5 24.5 0 0 1-6.04-2.191l-1.881 3.596a28.3 28.3 0 0 0 6.983 2.531zm-6.006-2.174c-1.94-1.05-3.759-2.43-5.457-4.155l-2.853 2.881c1.944 1.974 4.064 3.591 6.361 4.835zm-5.429-4.127c-1.623-1.716-3.074-3.793-4.346-6.247l-3.531 1.946c1.416 2.733 3.069 5.115 4.969 7.126zm-4.328-6.211c-1.197-2.433-2.133-5.261-2.792-8.504l-3.894.914c.715 3.519 1.749 6.68 3.119 9.464zm-2.792-8.504-7.339-36.133-3.895.914 7.34 36.133zm-8.888-33.716 8.996-2.112-.796-3.92-8.997 2.112zm6.651-3.615 7.339 36.133 3.894-.914-7.339-36.133zm7.339 36.133a28.8 28.8 0 0 0 2.642 7.528l3.532-1.944a24.8 24.8 0 0 1-2.28-6.498zm2.649 7.54c1.227 2.332 2.773 4.34 4.644 6.004l2.67-3.055c-1.504-1.338-2.771-2.971-3.795-4.917zm4.701 6.053a18 18 0 0 0 6.598 3.437l1.165-3.879a14.2 14.2 0 0 1-5.207-2.71zm6.621 3.443c2.613.703 5.395.68 8.306-.003l-.797-3.92c-2.367.556-4.484.544-6.39.031zm8.306-.003c2.909-.683 5.427-1.903 7.479-3.714l-2.563-3.004c-1.464 1.292-3.344 2.242-5.713 2.798zm7.46-3.698c2.029-1.746 3.607-3.793 4.703-6.137l-3.584-1.64c-.831 1.778-2.036 3.356-3.644 4.741zm4.698-6.127c1.125-2.374 1.789-4.913 2.002-7.6l-3.962-.212c-.175 2.211-.716 4.256-1.614 6.152zm1.999-7.567a27.4 27.4 0 0 0-.423-8.094l-3.894.914q.694 3.42.361 6.901zm-.423-8.094-7.339-36.134-3.895.915 7.34 36.133zm-8.888-33.716 8.906-2.091-.796-3.92-8.907 2.091zm69.735 13.739-1.966-.237-.003.019-.002.019zm-2.989 8.482 1.658 1.062.008-.012.008-.013zm-6.259 6.308-1.049-1.68-2.071 1.359 1.677 1.745zm16.968 17.648.399 1.96 3.506-.823-2.462-2.561zm-10.525 2.471-1.442 1.425.759.789 1.081-.254zm-16.01-16.64 1.442-1.425-.759-.789-1.081.254zm-14.664 3.442-.398-1.96-1.947.457.398 1.96zm3.955 19.471.398 1.96 1.947-.458-.398-1.96zm-8.996 2.111-1.948.458.399 1.96 1.947-.458zm-12.858-63.3-.398-1.96-1.947.457.398 1.96zm32.877-6.58-.273 2 .035.004.034.003zm6.148 1.498-.839 1.847.022.01.022.009zm4.984 3.194-1.363 1.502.013.012.013.012zm3.838 4.507 1.695-1.096-.011-.019-.012-.018zm-31.769 30.134-1.947.457.398 1.96 1.947-.457zm17.093-4.013-.349-1.97-.025.005-.024.005zm6.181-3.443 1.411 1.377.015-.015.014-.015zm3.016-6.496-1.962-.263-.005.03-.004.031zm-2.244-11.048-1.687 1.111.006.008zm-5.025-4.323-.869 1.833.014.007.014.006zm-24.263 3.514-.399-1.96-1.947.457.398 1.96zm38.571 12.864a18.7 18.7 0 0 1-2.692 7.643l3.348 2.075a22.86 22.86 0 0 0 3.287-9.32zm-2.677 7.618a19 19 0 0 1-5.649 5.691l2.097 3.36a23.2 23.2 0 0 0 6.869-6.926zm-6.043 8.795 16.969 17.648 2.885-2.848-16.969-17.648zm18.013 14.264-10.525 2.471.796 3.92 10.526-2.471zm-8.685 3.007-16.01-16.641-2.884 2.85 16.01 16.64zm-17.85-17.176-14.664 3.442.796 3.92 14.664-3.442zm-16.213 5.859 3.955 19.471 3.894-.915-3.955-19.47zm5.504 17.054-8.997 2.112.797 3.919 8.996-2.111zm-6.651 3.614-12.858-63.301-3.894.915 12.857 63.301zm-14.407-60.883 25.819-6.062-.796-3.92-25.819 6.062zm25.819-6.062c2.334-.548 4.458-.695 6.387-.478l.546-4c-2.443-.275-5.025-.076-7.729.558zm6.456-.471c2.034.156 3.866.607 5.513 1.338l1.678-3.694c-2.083-.924-4.349-1.471-6.783-1.658zm5.557 1.357a14.7 14.7 0 0 1 4.416 2.83l2.727-3.004a18.6 18.6 0 0 0-5.553-3.558zm4.442 2.854a20 20 0 0 1 3.503 4.115l3.344-2.267a24 24 0 0 0-4.172-4.899zm3.479 4.078a23.6 23.6 0 0 1 3.044 7.695l3.894-.914a27.5 27.5 0 0 0-3.547-8.974zm3.044 7.695c.554 2.727.628 5.509.217 8.359l3.933.474c.476-3.304.392-6.557-.256-9.747zm-32.719 23.302 17.093-4.013-.796-3.92-17.093 4.013zm17.044-4.002c2.811-.586 5.243-1.939 7.243-4.037l-2.822-2.754c-1.419 1.487-3.107 2.43-5.119 2.85zm7.272-4.067c1.988-2.171 3.18-4.737 3.547-7.641l-3.942-.404c-.26 2.051-1.079 3.816-2.485 5.351zm3.538-7.579c.708-4.491-.14-8.666-2.525-12.431l-3.362 2.238c1.87 2.953 2.518 6.144 1.963 9.666zm-2.519-12.423c-1.42-2.266-3.394-3.957-5.872-5.059l-1.681 3.693c1.805.803 3.181 1.994 4.179 3.588zm-5.844-5.046c-2.569-1.193-5.516-1.311-8.707-.562l.797 3.92c2.567-.602 4.58-.43 6.173.309zm-8.707-.562-16.823 3.95.797 3.92 16.823-3.95zm-18.372 6.367 5.243 25.809 3.894-.914-5.242-25.809zm123.562-24.643 1.696-1.096-.012-.019-.011-.018zm3.532 17.388 1.96.281.003-.022.004-.022zm-1.722 5.907 1.807.787.008-.016.007-.017zm-3.292 5.137 1.47 1.313.009-.01zm-4.827 4.075.978 1.724.022-.014.023-.014zm-23.638 6.592-.398-1.96-1.947.457.398 1.96zm3.955 19.471.398 1.959 1.947-.457-.398-1.96zm-8.997 2.111-1.947.458.398 1.959 1.947-.457zm-12.857-63.3-.399-1.96-1.947.457.398 1.96zm32.877-6.58-.273 2 .034.004.035.003zm6.148 1.498-.839 1.847.022.01.022.009zm4.984 3.194-1.363 1.502.013.012.013.012zm-1.641 20.689-1.962-.264-.005.031-.004.031zm-2.244-11.048-1.687 1.111.005.008zm-5.026-4.323-.868 1.833.014.007.014.006zm-24.263 3.514-.398-1.96-1.947.457.398 1.96zm5.243 25.809-1.947.457.398 1.96 1.947-.457zm17.093-4.013-.35-1.971-.024.006-.025.005zm6.181-3.443 1.411 1.377.014-.015.015-.016zm6.799-21.581a23.6 23.6 0 0 1 3.044 7.695l3.894-.914a27.5 27.5 0 0 0-3.547-8.974zm3.044 7.695c.553 2.726.627 5.509.217 8.359l3.933.474c.476-3.304.392-6.557-.256-9.747zm.224 8.314a23.8 23.8 0 0 1-1.584 5.435l3.643 1.508a28 28 0 0 0 1.86-6.38zm-1.57 5.401a18.6 18.6 0 0 1-2.964 4.622l2.958 2.606a22.9 22.9 0 0 0 3.62-5.653zm-2.955 4.612c-1.182 1.348-2.635 2.581-4.381 3.691l2.047 3.393c2.038-1.297 3.803-2.78 5.274-4.458zm-4.336 3.663c-1.699 1.02-3.68 1.808-5.964 2.345l.796 3.92c2.633-.619 5.015-1.55 7.125-2.816zm-5.964 2.345-17.093 4.012.796 3.92 17.093-4.012zm-18.642 6.429 3.954 19.471 3.895-.915-3.955-19.47zm5.503 17.054-8.996 2.111.796 3.92 8.997-2.112zm-6.651 3.614-12.857-63.301-3.895.915 12.858 63.301zm-14.406-60.884 25.819-6.061-.796-3.92-25.82 6.062zm25.819-6.061c2.334-.548 4.457-.695 6.387-.478l.545-4c-2.443-.275-5.024-.076-7.728.558zm6.456-.471c2.034.156 3.866.607 5.513 1.338l1.678-3.694c-2.083-.924-4.349-1.471-6.783-1.658zm5.557 1.357a14.8 14.8 0 0 1 4.416 2.83l2.726-3.004a18.6 18.6 0 0 0-5.552-3.558zm4.442 2.854a20 20 0 0 1 3.502 4.115l3.345-2.267a24 24 0 0 0-4.173-4.899zm1.658 19.427c.708-4.491-.14-8.666-2.525-12.431l-3.363 2.238c1.87 2.953 2.519 6.144 1.964 9.665zm-2.52-12.423c-1.419-2.266-3.394-3.957-5.871-5.059l-1.681 3.693c1.805.803 3.181 1.994 4.179 3.588zm-5.843-5.046c-2.57-1.193-5.517-1.311-8.707-.562l.796 3.92c2.568-.603 4.581-.43 6.174.309zm-8.707-.562-16.823 3.95.796 3.92 16.823-3.95zm-18.372 6.367 5.243 25.809 3.894-.914-5.243-25.81zm7.588 27.312 17.093-4.013-.797-3.92-17.092 4.013zm17.044-4.002c2.81-.586 5.243-1.939 7.243-4.037l-2.823-2.754c-1.418 1.487-3.107 2.43-5.119 2.849zm7.272-4.068c1.987-2.17 3.179-4.736 3.547-7.64l-3.942-.404c-.26 2.051-1.079 3.815-2.485 5.351zm64.617-19.32-1.967-.237-.003.019-.002.019zm-2.99 8.482 1.658 1.062.008-.012.008-.012zm-6.259 6.308-1.048-1.68-2.072 1.359 1.678 1.745zm16.969 17.648.398 1.96 3.506-.823-2.462-2.561zm-10.526 2.471-1.442 1.425.759.789 1.081-.254zm-16.01-16.64 1.442-1.425-.759-.789-1.081.254zm-14.664 3.442-.398-1.96-1.947.458.398 1.96zm3.955 19.471.398 1.96 1.947-.457-.398-1.96zm-8.996 2.112-1.947.457.398 1.96 1.947-.457zm-12.858-63.301-.398-1.96-1.947.457.398 1.96zm32.877-6.58-.272 2 .034.004.034.003zm6.148 1.498-.839 1.847.022.01.022.009zm4.985 3.194-1.364 1.502.013.012.013.012zm3.837 4.508 1.695-1.097-.011-.019-.012-.018zm-31.769 30.133-1.947.457.398 1.96 1.947-.457zm17.093-4.013-.349-1.97-.025.005-.024.005zm6.181-3.443 1.411 1.377.015-.015.014-.015zm3.016-6.496-1.962-.263-.005.03-.004.031zm-2.244-11.048-1.686 1.111.005.008zm-5.025-4.323-.869 1.834.014.006.014.006zm-24.263 3.514-.398-1.96-1.948.457.399 1.96zm38.571 12.864a18.7 18.7 0 0 1-2.692 7.643l3.348 2.076a22.9 22.9 0 0 0 3.287-9.321zm-2.676 7.618c-1.461 2.28-3.338 4.173-5.649 5.691l2.096 3.36a23.15 23.15 0 0 0 6.869-6.926zm-6.043 8.795 16.968 17.648 2.885-2.848-16.969-17.648zm18.012 14.264-10.525 2.471.796 3.92 10.526-2.471zm-8.685 3.007-16.01-16.641-2.884 2.85 16.01 16.64zm-17.85-17.176-14.664 3.442.796 3.92 14.664-3.442zm-16.213 5.86 3.955 19.47 3.894-.914-3.955-19.471zm5.504 17.053-8.996 2.112.796 3.92 8.996-2.112zm-6.651 3.614-12.858-63.3-3.894.914 12.858 63.301zm-14.407-60.883 25.819-6.062-.796-3.92-25.819 6.062zm25.819-6.062c2.334-.547 4.458-.694 6.388-.478l.545-4c-2.443-.275-5.025-.076-7.729.558zm6.456-.471c2.034.156 3.867.608 5.513 1.338l1.678-3.694c-2.082-.924-4.349-1.471-6.783-1.658zm5.557 1.357a14.7 14.7 0 0 1 4.416 2.83l2.727-3.003a18.6 18.6 0 0 0-5.553-3.559zm4.442 2.854a20 20 0 0 1 3.503 4.115l3.344-2.267a24 24 0 0 0-4.172-4.899zm3.479 4.078a23.6 23.6 0 0 1 3.044 7.695l3.894-.914a27.5 27.5 0 0 0-3.547-8.974zm3.044 7.695c.554 2.727.628 5.509.217 8.359l3.933.474c.476-3.304.392-6.557-.256-9.747zm-32.719 23.302 17.093-4.013-.796-3.92-17.093 4.013zm17.044-4.002c2.811-.586 5.243-1.939 7.243-4.037l-2.822-2.754c-1.419 1.487-3.107 2.43-5.119 2.85zm7.272-4.067c1.988-2.171 3.18-4.737 3.547-7.641l-3.942-.404c-.26 2.051-1.078 3.816-2.485 5.351zm3.539-7.579c.707-4.491-.141-8.666-2.525-12.431l-3.363 2.238c1.87 2.953 2.518 6.144 1.963 9.666zm-2.52-12.423c-1.42-2.266-3.394-3.957-5.872-5.058l-1.681 3.692c1.805.803 3.181 1.994 4.18 3.588zm-5.843-5.046c-2.57-1.193-5.517-1.31-8.707-.562l.796 3.92c2.567-.602 4.58-.43 6.173.31zm-8.707-.562-16.823 3.95.796 3.92 16.823-3.95zm-18.372 6.367 5.242 25.809 3.894-.914-5.242-25.809zm74.681 36.833-.402 1.981.019.004.019.003zm-11.421-4.72 1.145-1.676-.017-.011-.016-.011zm-8.863-8.83 1.669-1.139zm-4.819-23.726-1.959-.288zm4.632-11.999 1.669 1.046.006-.009.005-.009zm8.569-9.317-1.123-1.628-.01.007zm79.348-18.627-.402 1.982.012.001zm11.492 4.608-1.129 1.687.008.006.009.005zm8.862 8.83 1.669-1.139zm.188 35.725-1.669-1.046-.011.018-.011.017zm-8.641 9.429 1.111 1.637.006-.004.006-.005zm-5.254-7.306-1.124-1.628-.007.005-.007.005zm6.203-6.58 1.659 1.063.015-.023.014-.023zm3.313-8.747 1.959.289.001-.008.001-.007zm-3.531-17.387-1.676 1.128zm-6.404-6.467 1.118-1.694-.011-.008-.011-.007zm-8.19-3.201-.406 1.981.008.002.008.001zm-72.15 16.938-1.124-1.628-.007.005-.006.005zm-6.114 6.559-1.658-1.063-.008.012-.007.011zm-3.313 8.747 1.961.274zm3.532 17.387-1.676 1.128.004.006.004.006zm6.403 6.467-1.14 1.68.022.015.023.014zm8.101 3.222-.407 1.98.008.002.008.001zm10.192 6.559c-3.951.928-7.87 1.075-11.771.448l-.728 3.976c4.412.709 8.849.54 13.295-.504zm-11.734.454c-3.837-.693-7.391-2.16-10.677-4.414l-2.29 3.353c3.722 2.552 7.781 4.232 12.164 5.024zm-10.71-4.436c-3.412-2.235-6.173-4.991-8.306-8.271l-3.337 2.278c2.435 3.744 5.582 6.875 9.419 9.39zm-8.306-8.271c-2.153-3.31-3.61-6.859-4.38-10.653l-3.895.914a34.4 34.4 0 0 0 4.938 12.017zm-4.38-10.653c-.771-3.795-.823-7.673-.15-11.647l-3.917-.575c-.755 4.458-.7 8.841.172 13.136zm-.15-11.647c.668-3.937 2.109-7.679 4.343-11.24l-3.338-2.091c-2.513 4.005-4.16 8.261-4.922 12.756zm4.354-11.258c2.125-3.465 4.796-6.368 8.022-8.724l-2.266-3.242c-3.668 2.678-6.71 5.987-9.116 9.911zm8.013-8.717a30.1 30.1 0 0 1 10.833-4.943l-.796-3.92a34.1 34.1 0 0 0-12.284 5.607zm10.833-4.943 55.327-12.988-.796-3.92-55.327 12.988zm55.327-12.988c3.94-.925 7.822-1.037 11.662-.342l.803-3.964c-4.379-.791-8.805-.66-13.261.386zm11.674-.341a27.6 27.6 0 0 1 10.753 4.312l2.258-3.374a31.46 31.46 0 0 0-12.231-4.905zm10.77 4.323c3.411 2.236 6.173 4.992 8.306 8.271l3.337-2.278c-2.435-3.744-5.582-6.875-9.42-9.39zm8.306 8.271c2.153 3.311 3.609 6.859 4.38 10.653l3.894-.914c-.872-4.295-2.522-8.304-4.937-12.017zm4.38 10.653c.771 3.795.823 7.673.149 11.647l3.917.575c.756-4.457.701-8.841-.172-13.136zm.149 11.647c-.667 3.937-2.108 7.68-4.342 11.24l3.338 2.092c2.513-4.006 4.159-8.262 4.921-12.757zm-4.364 11.275c-2.109 3.515-4.797 6.447-8.074 8.812l2.247 3.256c3.738-2.697 6.811-6.051 9.209-10.047zm-8.061 8.802c-3.238 2.3-6.824 3.914-10.774 4.841l.796 3.92c4.446-1.044 8.518-2.872 12.2-5.486zm-10.774 4.841-55.327 12.988.796 3.92 55.327-12.988zm-.988-4.864a23.9 23.9 0 0 0 8.756-4.027l-2.275-3.236a19.8 19.8 0 0 1-7.277 3.343zm8.743-4.017a26.1 26.1 0 0 0 6.738-7.145l-3.317-2.125a21.9 21.9 0 0 1-5.669 6.014zm6.767-7.191c1.82-3.012 3.022-6.173 3.584-9.475l-3.917-.577c-.469 2.758-1.476 5.429-3.042 8.019zm3.586-9.49c.542-3.328.491-6.6-.16-9.805l-3.894.914c.551 2.712.597 5.489.133 8.343zm-.16-9.805a26.2 26.2 0 0 0-3.657-8.984l-3.351 2.256a22.3 22.3 0 0 1 3.114 7.642zm-3.657-8.984c-1.804-2.816-4.131-5.163-6.961-7.033l-2.235 3.389c2.395 1.583 4.338 3.548 5.845 5.9zm-6.983-7.048a24 24 0 0 0-8.895-3.475l-.781 3.967a20.2 20.2 0 0 1 7.485 2.926zm-8.879-3.472c-3.144-.578-6.323-.487-9.521.264l.796 3.92c2.68-.629 5.311-.701 7.912-.223zm-9.521.264-55.327 12.988.796 3.92 55.327-12.988zm-55.327 12.988a24.55 24.55 0 0 0-8.833 4.038l2.248 3.256a20.5 20.5 0 0 1 7.381-3.374zm-8.846 4.048c-2.619 1.923-4.831 4.299-6.635 7.114l3.316 2.125c1.537-2.397 3.4-4.392 5.593-6.003zm-6.65 7.137c-1.847 2.969-3.052 6.144-3.6 9.513l3.921.548c.458-2.813 1.462-5.469 3.025-7.982zm-3.6 9.513c-.542 3.328-.491 6.601.16 9.805l3.894-.914c-.551-2.712-.598-5.489-.133-8.343zm.16 9.805a26.2 26.2 0 0 0 3.656 8.984l3.352-2.255a22.3 22.3 0 0 1-3.114-7.643zm3.664 8.996c1.791 2.75 4.109 5.085 6.931 7.007l2.28-3.36c-2.428-1.653-4.379-3.629-5.875-5.926zm6.976 7.036c2.731 1.75 5.663 2.919 8.789 3.493l.813-3.961c-2.618-.481-5.086-1.46-7.412-2.95zm8.805 3.496c3.193.559 6.397.463 9.595-.288l-.797-3.92a19.8 19.8 0 0 1-8.017.241zm9.595-.288 55.327-12.988-.796-3.92-55.328 12.988zm137.261-71.468 1.716-1.061-.007-.013-.008-.013zm5.132 25.266 1.966.24.003-.022.003-.023zm-2.342 8.425-1.828-.74-.004.01zm-4.435 7.398 1.509 1.266.005-.006zm-6.658 5.737 1.005 1.708zm-33.262 9.327-1.947.457.398 1.96 1.947-.457zm-12.876-63.392-.398-1.96-1.947.457.398 1.96zm33.851-6.428-.251 2.002zm8.294 2.322-.911 1.813.027.013.027.013zm6.9 4.737-1.399 1.467.021.021.022.02zm1.446 30.78 1.965.246.002-.012.001-.012zm-3.9-19.198 1.71-1.073-.009-.016-.01-.015zm-3.639-4.459-1.399 1.468.012.012.013.011zm-4.714-3.258-.906 1.816.022.011.022.01zm-5.699-1.603-.331 1.993.037.005.038.004zm-21.721 3.961-.399-1.96-1.947.457.399 1.96zm9.234 45.46-1.947.457.398 1.96 1.947-.457zm21.388-6.064 1.01 1.705.023-.015.024-.016zm4.468-3.99 1.521 1.253.006-.008zm3.022-5.074 1.828.74.007-.017.006-.016zm3.794-28.886a37.6 37.6 0 0 1 4.414 11.589l3.894-.914a41.5 41.5 0 0 0-4.875-12.797zm4.414 11.589q1.241 6.103.463 12.421l3.944.39c.572-4.645.402-9.223-.513-13.725zm.469 12.376a32.8 32.8 0 0 1-2.203 7.925l3.654 1.48a37 37 0 0 0 2.481-8.925zm-2.208 7.935a26.9 26.9 0 0 1-4.118 6.867l3.029 2.521a31 31 0 0 0 4.753-7.929zM723 327.903c-1.66 2.009-3.703 3.776-6.152 5.296l2.009 3.416c2.796-1.735 5.191-3.793 7.162-6.179zm-6.152 5.296c-2.409 1.495-5.22 2.634-8.456 3.394l.796 3.92c3.601-.846 6.832-2.137 9.669-3.898zm-8.456 3.394-24.2 5.681.796 3.92 24.2-5.681zm-21.855 7.184-12.876-63.392-3.894.914 12.876 63.392zm-14.425-60.975 24.2-5.681-.796-3.92-24.2 5.681zm24.2-5.681c3.237-.76 6.233-.984 9.002-.705l.501-4.005c-3.26-.329-6.698-.055-10.299.79zm9.002-.705c2.802.283 5.341.999 7.634 2.133l1.823-3.626c-2.736-1.354-5.727-2.186-8.956-2.512zm7.688 2.159a22.3 22.3 0 0 1 6.358 4.365l2.799-2.935a26.1 26.1 0 0 0-7.442-5.108zm6.401 4.406a28.2 28.2 0 0 1 5.05 6.188l3.403-2.175a32 32 0 0 0-5.74-7.029zm4.77 29.494a31.4 31.4 0 0 0-.333-10.568l-3.894.915c.617 3.037.713 6.104.29 9.21zm-.333-10.568a31.6 31.6 0 0 0-3.825-9.925l-3.42 2.146a27.6 27.6 0 0 1 3.351 8.694zm-3.844-9.956a24 24 0 0 0-3.956-4.846l-2.748 2.982a20.2 20.2 0 0 1 3.322 4.072zm-3.931-4.822a18.6 18.6 0 0 0-5.252-3.628l-1.723 3.674a14.8 14.8 0 0 1 4.177 2.889zm-5.208-3.607c-1.959-.96-4.08-1.554-6.347-1.789l-.513 4.004c1.841.191 3.519.667 5.049 1.417zm-6.272-1.78c-2.286-.328-4.709-.171-7.248.425l.796 3.919c2.14-.502 4.062-.606 5.789-.358zm-7.248.425-15.204 3.569.797 3.92 15.203-3.57zm-16.752 5.986 9.234 45.46 3.894-.914-9.234-45.46zm11.579 46.963 15.203-3.569-.796-3.92-15.204 3.569zm15.203-3.569c2.523-.592 4.797-1.501 6.797-2.75l-2.019-3.41c-1.569.98-3.418 1.734-5.574 2.24zm6.844-2.781c1.926-1.277 3.578-2.745 4.932-4.411l-3.042-2.506c-1.059 1.303-2.386 2.495-4.003 3.568zm4.938-4.419a23 23 0 0 0 3.323-5.579l-3.655-1.48a18.8 18.8 0 0 1-2.722 4.569zm3.336-5.612a28 28 0 0 0 1.685-6.236l-3.93-.491a23.8 23.8 0 0 1-1.437 5.313zm59.142-63.695 1.947-.457-.398-1.96-1.947.457zm7.837 47.401-1.973-.186zm-3.108 10.218 1.737.928.006-.01.005-.011zm-6.666 8.016 1.215 1.559.006-.005.006-.005zm-20.71 4.767.472-1.967-.003-.001zm-6.512-2.361-.974 1.78.017.009.017.009zm-5.908-4.496-1.454 1.412.014.015.014.014zm-4.657-6.686-1.784.937.009.018.009.018zm-10.295-45.117-.398-1.96-1.947.457.398 1.96zm8.996-2.112 1.947-.457-.398-1.96-1.947.457zm9.801 43.146-1.766.972.006.012zm4.219 5.461-1.335 1.527.028.025.029.024zm5.903 3.073-.583 1.94.012.003.011.003zm13.944-3.273-1.263-1.519-.01.009-.009.008zm4.173-5.439-1.787-.83-.005.009zm1.808-6.876-1.978-.14-.002.017-.001.017zm-7.731-43.632-.398-1.959-1.947.457.398 1.96zm6.959-1.633 7.339 36.133 3.895-.914-7.34-36.133zm7.339 36.133c.732 3.603.886 7.142.472 10.625l3.947.372c.467-3.934.289-7.907-.524-11.911zm.472 10.625c-.412 3.475-1.378 6.634-2.884 9.496l3.497 1.815c1.759-3.344 2.865-6.997 3.334-10.939zm-2.872 9.475c-1.509 2.793-3.553 5.257-6.156 7.397l2.454 3.097c2.997-2.464 5.397-5.344 7.176-8.637zm-6.143 7.386c-2.48 2.007-5.516 3.458-9.16 4.313l.796 3.92c4.153-.975 7.768-2.667 10.793-5.115zm-9.16 4.313c-3.242.761-6.522.78-9.864.046l-.944 3.934c3.894.856 7.769.84 11.604-.06zm-9.867.045a24.5 24.5 0 0 1-6.04-2.192l-1.881 3.597a28.3 28.3 0 0 0 6.983 2.531zm-6.006-2.174c-1.939-1.05-3.759-2.43-5.457-4.155l-2.852 2.881c1.943 1.974 4.063 3.591 6.36 4.835zm-5.429-4.127c-1.622-1.717-3.074-3.793-4.346-6.247l-3.531 1.946c1.417 2.733 3.07 5.115 4.969 7.125zm-4.328-6.211c-1.197-2.433-2.133-5.261-2.792-8.504l-3.894.914c.715 3.519 1.749 6.68 3.119 9.464zm-2.792-8.504-7.339-36.133-3.894.914L737 303.372zm-8.888-33.716 8.996-2.112-.796-3.92-8.996 2.112zm6.651-3.615 7.339 36.133 3.894-.914-7.339-36.133zm7.339 36.133a28.8 28.8 0 0 0 2.643 7.528l3.531-1.944a24.8 24.8 0 0 1-2.28-6.498zm2.649 7.54c1.227 2.332 2.774 4.34 4.644 6.004l2.67-3.055c-1.504-1.338-2.771-2.971-3.795-4.917zm4.701 6.053a18 18 0 0 0 6.598 3.437l1.165-3.879a14.2 14.2 0 0 1-5.207-2.71zm6.621 3.443c2.614.703 5.395.68 8.306-.003l-.796-3.92c-2.368.556-4.485.544-6.391.031zm8.306-.003c2.909-.683 5.427-1.903 7.48-3.714l-2.564-3.004c-1.464 1.292-3.343 2.242-5.712 2.798zm7.461-3.698c2.028-1.746 3.606-3.794 4.702-6.137l-3.584-1.641c-.831 1.778-2.036 3.357-3.644 4.741zm4.698-6.127c1.124-2.374 1.789-4.913 2.001-7.6l-3.962-.212c-.175 2.211-.716 4.256-1.614 6.152zm1.998-7.567a27.4 27.4 0 0 0-.423-8.094l-3.894.914q.694 3.42.361 6.901zm-.423-8.094-7.339-36.134-3.894.915 7.339 36.133zm-8.888-33.717 8.906-2.09-.796-3.92-8.906 2.091zm78.457 19.093-.398-1.96-1.511.355-.076 1.562zm9.177-2.154 1.987-.087-.037-2.425-2.348.552zm-2.091 12.445 1.853.675.003-.007.003-.008zm-6.241 10.573 1.487 1.294.004-.005zm-9.458 7.724-.929-1.754-.007.005zm-11.726 3.986.202 1.995.013-.001.013-.002zm-12.376-.606-.54 1.952.012.003.013.003zm-10.809-4.957-1.183 1.649.008.006.008.006zm-8.25-8.595-1.663 1.148.006.009zm-4.874-23.998 1.955.309.001-.011zm4.166-11.51-1.705-.987zm7.902-9.35-1.247-1.532zm10.997-6.187-.566-1.913-.012.004-.012.004zm12.204-1.632-.173 2.009.009.001zm11.611 2.872-.872 1.833.019.009.019.008zm9.772 6.815-1.433 1.433.005.005.006.006zm6.708 10.285.398 1.96 2.348-.552-.906-2.22zm-9.176 2.154-1.783.939.678 1.374 1.503-.353zm-4.565-6.234-1.427 1.44.023.023.023.022zm-6.16-4.342-.919 1.81.03.015.03.014zm-7.232-2.192.311-1.996zm-7.851.325.353 1.97h.001zm-7.336 2.861-.968-1.73-.007.003-.006.004zm-5.977 4.913-1.448-1.337zm-4.241 6.499 1.805.793zm-2.11 7.706-1.974-.186-.002.021-.002.022zm.484 7.951-1.938.502v.002zm2.839 7.018-1.698 1.093zm4.941 5.766 1.305-1.553zm6.645 3.944.787-1.87-.019-.007-.019-.008zm6.923 1.6-.174 2.009.025.002.025.001zm14.32-3.741 1.006 1.707.019-.012.018-.011zm6.011-5.206 1.475 1.308.012-.014.012-.015zm4.078-6.84 1.841.707zm2.094-5.933 9.176-2.154-.796-3.92-9.177 2.154zm6.791-4.028c.062 4.106-.595 8-1.963 11.699l3.718 1.32c1.552-4.198 2.289-8.6 2.219-13.192zm-1.957 11.683a33.7 33.7 0 0 1-5.878 9.96l2.981 2.578a37.8 37.8 0 0 0 6.603-11.187zm-5.874 9.955c-2.476 2.894-5.437 5.316-8.901 7.264l1.857 3.507c3.867-2.176 7.212-4.904 10.017-8.183zm-8.908 7.269c-3.377 1.918-7.045 3.168-11.018 3.742l.456 3.985c4.45-.644 8.6-2.052 12.433-4.23zm-10.993 3.739c-4.055.533-7.937.34-11.658-.567l-1.03 3.915c4.211 1.026 8.58 1.236 13.093.643zm-11.633-.561c-3.762-.971-7.152-2.528-10.183-4.668l-2.333 3.323c3.424 2.417 7.241 4.165 11.436 5.248zm-10.167-4.656c-3.051-2.202-5.641-4.9-7.775-8.102l-3.314 2.314c2.386 3.58 5.295 6.612 8.724 9.087zm-7.769-8.093c-2.13-3.236-3.601-6.839-4.411-10.826l-3.894.914c.907 4.466 2.566 8.54 4.979 12.208zm-4.411-10.826c-.81-3.987-.862-7.887-.171-11.715l-3.91-.618c-.787 4.361-.72 8.782.187 13.247zm-.17-11.726c.687-3.924 1.993-7.525 3.914-10.82l-3.409-1.975c-2.18 3.739-3.65 7.811-4.418 12.198zm3.914-10.82c1.925-3.304 4.403-6.238 7.446-8.807l-2.495-3.063c-3.393 2.864-6.185 6.164-8.36 9.895zm7.446-8.807c3.015-2.545 6.455-4.484 10.339-5.813l-1.18-3.81c-4.342 1.487-8.232 3.672-11.654 6.56zm10.314-5.805c3.835-1.258 7.653-1.766 11.466-1.536l.345-4.018c-4.329-.261-8.647.319-12.942 1.728zm11.475-1.535c3.893.218 7.523 1.119 10.903 2.695l1.743-3.665c-3.838-1.789-7.949-2.804-12.318-3.049zm10.941 2.712c3.427 1.507 6.482 3.635 9.173 6.398l2.867-2.867c-3.026-3.106-6.485-5.52-10.373-7.23zm9.184 6.409c2.657 2.684 4.756 5.894 6.29 9.653l3.68-1.624c-1.718-4.207-4.091-7.854-7.125-10.918zm7.732 6.881-9.177 2.154.797 3.92 9.176-2.154zm-6.996 3.175a23.8 23.8 0 0 0-4.967-6.781l-2.761 2.971a19.9 19.9 0 0 1 4.163 5.688zm-4.921-6.736c-1.979-2.01-4.224-3.594-6.728-4.739l-1.717 3.677c2.067.944 3.93 2.255 5.592 3.943zm-6.668-4.71c-2.435-1.218-5.052-2.009-7.839-2.379l-.622 3.992c2.379.315 4.583.985 6.624 2.006zm-7.839-2.379c-2.81-.372-5.652-.253-8.516.351l.708 3.94c2.438-.514 4.83-.612 7.186-.299zm-8.515.351a26 26 0 0 0-7.951 3.101l1.936 3.46a22 22 0 0 1 6.721-2.621zm-7.964 3.108a28.4 28.4 0 0 0-6.444 5.299l2.896 2.675a24.3 24.3 0 0 1 5.509-4.528zm-6.444 5.299a26.8 26.8 0 0 0-4.597 7.043l3.609 1.586a22.7 22.7 0 0 1 3.884-5.954zm-4.597 7.043c-1.174 2.607-1.931 5.381-2.28 8.313l3.947.372c.301-2.534.95-4.897 1.942-7.099zm-2.284 8.356a26.8 26.8 0 0 0 .524 8.596l3.875-1.005a22.8 22.8 0 0 1-.444-7.305zm.524 8.598a25.3 25.3 0 0 0 3.079 7.607l3.396-2.185a21.3 21.3 0 0 1-2.6-6.43zm3.079 7.607a26 26 0 0 0 5.334 6.227l2.61-3.107a22 22 0 0 1-4.548-5.305zm5.334 6.227a24.6 24.6 0 0 0 7.201 4.274l1.498-3.769a20.8 20.8 0 0 1-6.089-3.612zm7.163 4.259c2.448 1 4.962 1.584 7.536 1.74l.347-4.018a19.7 19.7 0 0 1-6.309-1.461zm7.586 1.743a28.2 28.2 0 0 0 7.453-.73l-.796-3.92a24.2 24.2 0 0 1-6.41.627zm7.453-.73a26.5 26.5 0 0 0 7.997-3.316l-2.012-3.414a22.5 22.5 0 0 1-6.781 2.81zm8.034-3.339a30.8 30.8 0 0 0 6.443-5.582l-2.949-2.617a26.6 26.6 0 0 1-5.58 4.831zm6.467-5.611a26.9 26.9 0 0 0 4.42-7.412l-3.682-1.414a22.7 22.7 0 0 1-3.735 6.267zm4.42-7.412a26.5 26.5 0 0 0 1.839-8.557l-3.97-.086a22.3 22.3 0 0 1-1.551 7.229zm44.569-58.566 1.947-.457-.398-1.96-1.947.457zm1.84 9.056.398 1.96 1.947-.457-.398-1.96zm-16.823 3.949-.399-1.96-1.947.457.398 1.96zm11.018 54.245.398 1.96 1.947-.457-.398-1.96zm-8.996 2.112-1.948.457.399 1.96 1.947-.457zm-11.019-54.245 1.947-.457-.398-1.96-1.947.457zm-16.823 3.949-1.947.457.398 1.96 1.947-.457zm-1.839-9.056-.398-1.96-1.947.457.398 1.96zm40.695-9.553 1.84 9.056 3.894-.914-1.84-9.056zm3.388 6.639-16.823 3.949.797 3.92 16.823-3.949zm-18.372 6.366 11.019 54.245 3.894-.914-11.018-54.245zm12.568 51.828-8.997 2.112.797 3.92 8.996-2.112zm-6.651 3.615-11.019-54.245-3.894.914 11.018 54.245zm-13.364-55.748-16.823 3.949.796 3.92 16.823-3.949zm-14.478 5.452-1.839-9.056-3.894.914 1.839 9.056zm-3.388-6.639 42.642-10.01-.796-3.92-42.642 10.01z" mask="url(#a)"/><path fill="#222" d="m788.394 352.864 15.184 15.935 13.139-21.495 9.673 17.951 18.443-21.158 3.935 19.549 23.315-20.325-1.894 20.686 27.64-19.016-7.68 21.34 31.318-17.26-13.286 21.492 34.261-15.1-18.58 21.142 36.402-12.587-23.439 20.296 37.69-9.778-27.749 18.974 38.094-6.74-31.408 17.207 37.605-3.544-34.33 15.037 36.233-.265-36.448 12.515 34.014 3.02-37.712 9.699 30.997 6.234-38.091 6.656 27.253 9.303-37.579 3.457 22.871 12.152-36.185.177 17.953 14.718-33.943-3.107 12.614 16.938-30.906-6.319 6.979 18.762-27.144-9.382 1.18 20.146-22.745-12.226-4.646 21.057-17.814-14.783-10.363 21.475-12.465-16.993-15.838 21.389-6.824-18.805-20.941 20.803-1.023-20.177-25.553 19.729 4.802-21.075-29.566 18.191 10.514-21.479-32.886 16.228 15.98-21.38-35.436 13.884 21.071-20.78-37.154 11.216 25.669-19.693-38.003 8.283 29.665-18.144-37.96 5.158 32.965-16.17-37.028 1.91 35.493-13.816-35.227-1.382 37.189-11.139-32.601-4.641 38.014-8.202-29.211-7.791 37.946-5.071-25.136-10.76 36.991-1.822-20.472-13.475 35.167 1.47-15.328-15.875 32.519 4.727-9.825-17.903 29.11 7.874-4.091-19.511 25.018 10.836 1.738-20.662 20.339 13.544z"/><mask id="b" width="239.43" height="91.171" x="683.577" y="403.461" fill="#000" maskUnits="userSpaceOnUse"><path fill="#fff" d="M683.577 403.461h239.43v91.171h-239.43z"/><path d="m690.745 462.826 2.173 10.859 11.691-2.704.949 4.742-11.691 2.704 2.581 12.898-4.639 1.073-6.642-33.194 19.902-4.603.94 4.695zm23.242-5.375 1.812 9.057 40.315-9.324.949 4.742-40.315 9.324 1.993 9.958 44.397-10.268.949 4.742-49.036 11.341-6.643-33.194 2.32-.536-.01-.048 47.042-10.879.949 4.742zm81.297 11.016-4.964 1.148-4.505-6.747-13.686 3.165-1.525 8.142-4.964 1.148 6.718-36.284 2.923-.676zm-12.32-9.901-7.375-11.145-2.506 13.43zm23.812-27.437.949 4.742-8.675 2.006 5.684 28.405-4.639 1.073-5.684-28.405-8.676 2.007-.949-4.742zm28.263-6.586 3.787 18.92q.597 2.988.257 5.895t-1.603 5.332q-1.272 2.378-3.437 4.169-2.129 1.732-5.144 2.43-2.737.633-5.536-.01a13.6 13.6 0 0 1-3.358-1.258 13 13 0 0 1-3.047-2.371q-1.362-1.471-2.402-3.513-.993-2.052-1.525-4.708l-3.786-18.921 4.639-1.073 3.787 18.921a14.2 14.2 0 0 0 1.269 3.676q.871 1.683 2.176 2.87a8.3 8.3 0 0 0 3.044 1.628q1.749.489 3.79.017t3.401-1.68a8.35 8.35 0 0 0 2.152-2.83q.783-1.67.932-3.589a13.4 13.4 0 0 0-.202-3.922l-3.787-18.921zm31.576 9.517a10.9 10.9 0 0 1-1.542 4.425 10.8 10.8 0 0 1-3.227 3.276l8.751 9.289-5.428 1.255-8.257-8.758-7.562 1.749 2.04 10.196-4.639 1.072-6.633-33.146 13.315-3.08q1.948-.45 3.64-.246 1.728.146 3.17.805 1.433.61 2.571 1.688a11.6 11.6 0 0 1 1.979 2.37 13.5 13.5 0 0 1 1.699 4.37q.465 2.323.123 4.735m-18.204 6.542 8.814-2.039a5.93 5.93 0 0 0 3.188-1.779 6.03 6.03 0 0 0 1.555-3.386q.488-3.14-1.158-5.785a5.8 5.8 0 0 0-2.591-2.279q-1.611-.768-3.837-.254l-8.676 2.007zm46.87-.173.949 4.742-18.742 4.335-.01-.048-2.319.537-6.643-33.195 20.459-4.731.949 4.742-15.82 3.659 1.927 9.626 11.783-2.725.949 4.742-11.784 2.725 1.879 9.389zm11.778-18.551a70 70 0 0 1 3.876.691q1.925.398 3.554 1.262a8.7 8.7 0 0 1 2.805 2.378q1.167 1.466 1.67 3.98.522 2.36-.083 4.435a10.8 10.8 0 0 1-1.935 3.672q-1.33 1.597-3.239 2.734a14.9 14.9 0 0 1-4.005 1.571q-2.32.537-4.494.345t-3.961-1.118q-1.741-.938-3.002-2.63-1.224-1.751-1.727-4.265l4.639-1.073q.304 1.518 1.032 2.491a4.6 4.6 0 0 0 1.734 1.385q1.005.413 2.221.429 1.263.005 2.609-.306a10.3 10.3 0 0 0 2.615-1.002 7.9 7.9 0 0 0 2.119-1.78 4.3 4.3 0 0 0 .847-1.833 4.1 4.1 0 0 0-.009-1.982q-.256-1.28-1.049-2.09a5.4 5.4 0 0 0-1.863-1.305 10.7 10.7 0 0 0-2.474-.718 34 34 0 0 0-2.667-.475 379 379 0 0 1-3.671-.639 12.7 12.7 0 0 1-3.34-1.163 8.1 8.1 0 0 1-2.619-2.173q-1.101-1.382-1.557-3.658a7.84 7.84 0 0 1 .013-3.576 8.7 8.7 0 0 1 1.518-3.328 11.9 11.9 0 0 1 2.804-2.484 10.4 10.4 0 0 1 3.458-1.395 11.5 11.5 0 0 1 3.788-.231q1.933.198 3.552 1.014a8.1 8.1 0 0 1 2.833 2.272q1.215 1.456 1.585 3.553l-4.639 1.073a3.1 3.1 0 0 0-.638-1.49 3.4 3.4 0 0 0-1.184-1.065q-2.131-.947-4.348-.384-2.107.389-3.521 2.055-.998 1.321-.582 2.913.218 1.09.89 1.779a5.6 5.6 0 0 0 1.723 1.09q1.005.412 2.213.629z"/></mask><path fill="#fff" d="m690.745 462.826 2.173 10.859 11.691-2.704.949 4.742-11.691 2.704 2.581 12.898-4.639 1.073-6.642-33.194 19.902-4.603.94 4.695zm23.242-5.375 1.812 9.057 40.315-9.324.949 4.742-40.315 9.324 1.993 9.958 44.397-10.268.949 4.742-49.036 11.341-6.643-33.194 2.32-.536-.01-.048 47.042-10.879.949 4.742zm81.297 11.016-4.964 1.148-4.505-6.747-13.686 3.165-1.525 8.142-4.964 1.148 6.718-36.284 2.923-.676zm-12.32-9.901-7.375-11.145-2.506 13.43zm23.812-27.437.949 4.742-8.675 2.006 5.684 28.405-4.639 1.073-5.684-28.405-8.676 2.007-.949-4.742zm28.263-6.586 3.787 18.92q.597 2.988.257 5.895t-1.603 5.332q-1.272 2.378-3.437 4.169-2.129 1.732-5.144 2.43-2.737.633-5.536-.01a13.6 13.6 0 0 1-3.358-1.258 13 13 0 0 1-3.047-2.371q-1.362-1.471-2.402-3.513-.993-2.052-1.525-4.708l-3.786-18.921 4.639-1.073 3.787 18.921a14.2 14.2 0 0 0 1.269 3.676q.871 1.683 2.176 2.87a8.3 8.3 0 0 0 3.044 1.628q1.749.489 3.79.017t3.401-1.68a8.35 8.35 0 0 0 2.152-2.83q.783-1.67.932-3.589a13.4 13.4 0 0 0-.202-3.922l-3.787-18.921zm31.576 9.517a10.9 10.9 0 0 1-1.542 4.425 10.8 10.8 0 0 1-3.227 3.276l8.751 9.289-5.428 1.255-8.257-8.758-7.562 1.749 2.04 10.196-4.639 1.072-6.633-33.146 13.315-3.08q1.948-.45 3.64-.246 1.728.146 3.17.805 1.433.61 2.571 1.688a11.6 11.6 0 0 1 1.979 2.37 13.5 13.5 0 0 1 1.699 4.37q.465 2.323.123 4.735m-18.204 6.542 8.814-2.039a5.93 5.93 0 0 0 3.188-1.779 6.03 6.03 0 0 0 1.555-3.386q.488-3.14-1.158-5.785a5.8 5.8 0 0 0-2.591-2.279q-1.611-.768-3.837-.254l-8.676 2.007zm46.87-.173.949 4.742-18.742 4.335-.01-.048-2.319.537-6.643-33.195 20.459-4.731.949 4.742-15.82 3.659 1.927 9.626 11.783-2.725.949 4.742-11.784 2.725 1.879 9.389zm11.778-18.551a70 70 0 0 1 3.876.691q1.925.398 3.554 1.262a8.7 8.7 0 0 1 2.805 2.378q1.167 1.466 1.67 3.98.522 2.36-.083 4.435a10.8 10.8 0 0 1-1.935 3.672q-1.33 1.597-3.239 2.734a14.9 14.9 0 0 1-4.005 1.571q-2.32.537-4.494.345t-3.961-1.118q-1.741-.938-3.002-2.63-1.224-1.751-1.727-4.265l4.639-1.073q.304 1.518 1.032 2.491a4.6 4.6 0 0 0 1.734 1.385q1.005.413 2.221.429 1.263.005 2.609-.306a10.3 10.3 0 0 0 2.615-1.002 7.9 7.9 0 0 0 2.119-1.78 4.3 4.3 0 0 0 .847-1.833 4.1 4.1 0 0 0-.009-1.982q-.256-1.28-1.049-2.09a5.4 5.4 0 0 0-1.863-1.305 10.7 10.7 0 0 0-2.474-.718 34 34 0 0 0-2.667-.475 379 379 0 0 1-3.671-.639 12.7 12.7 0 0 1-3.34-1.163 8.1 8.1 0 0 1-2.619-2.173q-1.101-1.382-1.557-3.658a7.84 7.84 0 0 1 .013-3.576 8.7 8.7 0 0 1 1.518-3.328 11.9 11.9 0 0 1 2.804-2.484 10.4 10.4 0 0 1 3.458-1.395 11.5 11.5 0 0 1 3.788-.231q1.933.198 3.552 1.014a8.1 8.1 0 0 1 2.833 2.272q1.215 1.456 1.585 3.553l-4.639 1.073a3.1 3.1 0 0 0-.638-1.49 3.4 3.4 0 0 0-1.184-1.065q-2.131-.947-4.348-.384-2.107.389-3.521 2.055-.998 1.321-.582 2.913.218 1.09.89 1.779a5.6 5.6 0 0 0 1.723 1.09q1.005.412 2.213.629z"/><path fill="#fff" d="m690.745 462.826-.197-.988-.967.224.198.987zm2.173 10.859-.966.224.198.987.966-.223zm11.691-2.704.967-.223-.198-.988-.966.224zm.949 4.742.198.988.966-.223-.197-.988zm-11.691 2.704-.197-.988-.967.224.198.988zm2.581 12.898.198.988.966-.223-.197-.988zm-4.639 1.073-.966.224.198.988.966-.224zm-6.642-33.194-.198-.987-.966.223.197.988zm19.902-4.603.966-.223-.197-.988-.967.224zm.94 4.695.197.988.967-.224-.198-.987zm-16.23 3.753 2.173 10.86 1.933-.447-2.173-10.86zm3.337 11.624 11.691-2.704-.395-1.975-11.691 2.703zm10.527-3.468.949 4.742 1.933-.447-.949-4.742zm1.718 3.531-11.691 2.703.395 1.976 11.691-2.704zm-12.46 3.915 2.581 12.898 1.933-.447-2.581-12.898zm3.35 11.687-4.639 1.073.395 1.975 4.639-1.073zm-3.475 1.837-6.643-33.194-1.933.447 6.643 33.194zm-7.412-31.983 19.903-4.603-.396-1.975-19.902 4.603zm18.739-5.367.939 4.694 1.933-.446-.94-4.695zm1.708 3.483-15.263 3.53.395 1.976 15.263-3.53zm8.176-.857-.198-.988-.966.224.198.987zm1.812 9.057-.966.224.198.987.966-.223zm40.315-9.324.967-.223-.198-.988-.966.224zm.949 4.742.198.988.966-.223-.197-.988zm-40.315 9.324-.197-.988-.967.224.198.988zm1.993 9.958-.966.224.197.988.967-.224zm44.397-10.268.967-.223-.198-.988-.966.224zm.949 4.742.198.988.966-.223-.197-.988zm-49.036 11.341-.967.224.198.988.966-.224zm-6.643-33.194-.197-.988-.967.224.198.988zm2.32-.536.198.987.966-.223-.198-.988zm-.01-.048-.197-.987-.967.223.198.988zm47.042-10.879.967-.224-.198-.987-.966.223zm.949 4.742.198.987.966-.223-.198-.988zm-45.688 10.566 1.812 9.058 1.933-.447-1.813-9.058zm2.976 9.822 40.315-9.324-.395-1.975-40.315 9.323zm39.151-10.088.949 4.742 1.933-.447-.949-4.742zm1.718 3.531-40.315 9.323.395 1.976 40.315-9.324zm-41.084 10.535 1.993 9.958 1.932-.447-1.992-9.958zm3.157 10.722 44.397-10.268-.395-1.975-44.398 10.268zm43.233-11.032.949 4.742 1.933-.447-.949-4.742zm1.718 3.531-49.037 11.341.395 1.975 49.037-11.341zM716.017 486.8l-6.642-33.194-1.933.447 6.642 33.194zm-7.411-31.983 2.32-.537-.396-1.975-2.319.536zm3.088-1.748-.009-.047-1.933.447.01.047zm-.778 1.164 47.042-10.88-.395-1.975-47.042 10.88zm45.878-11.644.949 4.742 1.932-.447-.948-4.742zm1.717 3.531-44.722 10.343.396 1.976 44.722-10.344zm36.773 22.347.198.988 1.443-.333-.822-1.237zm-4.964 1.148-.817.585.369.553.646-.15zm-4.505-6.747.817-.584-.369-.553-.646.149zm-13.686 3.165-.197-.988-.646.15-.125.667zm-1.525 8.142.197.988.646-.149.125-.667zm-4.964 1.148-.969-.169-.276 1.491 1.442-.334zm6.718-36.284-.197-.988-.648.15-.124.669zm2.923-.676.818-.582-.368-.555-.648.15zm7.683 20.203.198.987 1.439-.332-.817-1.236zm-7.375-11.145.819-.581-1.335-2.017-.453 2.428zm-2.506 13.43-.969-.171-.279 1.493 1.445-.334zm22.004 6.629-4.964 1.148.395 1.975 4.964-1.148zm-3.949 1.551-4.506-6.747-1.634 1.168 4.505 6.748zm-5.521-7.151-13.685 3.165.395 1.976 13.686-3.165zm-14.456 3.982-1.526 8.142 1.937.343 1.526-8.143zm-.755 7.326-4.964 1.148.395 1.975 4.964-1.148zm-3.797 2.305 6.718-36.285-1.938-.338-6.718 36.284zm5.947-35.466 2.923-.676-.396-1.975-2.922.675zm1.907-1.081 20.003 30.104 1.637-1.165-20.004-30.104zm9.321 19.039-7.376-11.145-1.639 1.162 7.376 11.145zm-9.164-10.734-2.506 13.429 1.937.342 2.506-13.43zm-1.34 14.588 9.882-2.286-.396-1.975-9.881 2.285zm33.496-30.71.967-.224-.198-.987-.966.223zm.949 4.742.198.988.966-.224-.197-.988zm-8.675 2.006-.198-.988-.966.224.198.988zm5.684 28.405.198.988.966-.224-.198-.988zm-4.639 1.073-.967.223.198.988.966-.223zm-5.684-28.405.966-.223-.198-.988-.966.223zm-8.676 2.007-.966.223.198.988.966-.224zm-.949-4.742-.197-.988-.967.223.198.988zm21.024-4.863.949 4.742 1.933-.447-.949-4.742zm1.718 3.531-8.676 2.006.396 1.976 8.675-2.006zm-9.444 3.218 5.684 28.404 1.932-.447-5.684-28.404zm6.452 27.193-4.639 1.073.395 1.976 4.64-1.073zm-3.475 1.837-5.684-28.404-1.933.447 5.684 28.404zm-6.848-29.169-8.675 2.007.395 1.975 8.675-2.006zm-7.511 2.771-.949-4.742-1.933.447.949 4.742zm-1.718-3.531 21.99-5.085-.395-1.976-21.99 5.086zm50.055-12.659.967-.224-.198-.987-.966.223zm4.044 24.815-.979-.101zm-1.603 5.332.863.473.005-.01zm-3.437 4.169.603.788.006-.005zm-10.68 2.42.234-.989h-.001zm-3.358-1.258-.484.893.009.005.008.004zm-3.047-2.371-.722.706.007.007.007.007zm-2.402-3.513-.885.466.004.009.005.009zm-5.311-23.629-.197-.988-.967.224.198.988zm4.639-1.073.967-.223-.198-.988-.966.224zm5.056 22.597-.876.483.003.006zm2.176 2.87-.662.764.014.013.014.012zm3.044 1.628-.289.974.012.004zm7.191-1.663-.627-.768-.009.008zm2.152-2.83-.887-.423-.002.004zm.932-3.589-.982-.077v.009l-.001.008zm-3.989-22.843-.197-.988-.966.224.197.987zm3.627-.839 3.786 18.921 1.933-.447-3.786-18.921zm3.786 18.921c.379 1.891.458 3.746.245 5.57l1.958.201q.36-3.078-.27-6.218zm.245 5.57c-.214 1.821-.713 3.474-1.492 4.97l1.736.926c.904-1.738 1.473-3.64 1.714-5.695zm-1.486 4.96c-.781 1.46-1.838 2.745-3.184 3.858l1.218 1.567c1.542-1.275 2.776-2.768 3.69-4.479zm-3.178 3.853c-1.284 1.045-2.855 1.795-4.739 2.231l.395 1.975c2.137-.494 3.995-1.364 5.55-2.629zm-4.739 2.231a11.2 11.2 0 0 1-5.104-.011l-.468 1.977c2.002.46 3.995.466 5.967.009zm-5.105-.011a12.6 12.6 0 0 1-3.124-1.171l-.934 1.804a14.5 14.5 0 0 0 3.593 1.345zm-3.108-1.161a12.1 12.1 0 0 1-2.822-2.199l-1.416 1.44q1.5 1.557 3.271 2.544zm-2.809-2.185c-.839-.906-1.59-2-2.247-3.291l-1.752.968c.729 1.431 1.579 2.68 2.556 3.735zm-2.238-3.273c-.619-1.279-1.103-2.765-1.443-4.466l-1.933.447c.368 1.84.901 3.493 1.606 4.951zm-1.443-4.466-3.786-18.92-1.933.447 3.786 18.92zm-4.555-17.709 4.639-1.073-.395-1.975-4.639 1.072zm3.475-1.837 3.786 18.92 1.933-.447-3.786-18.92zm3.786 18.92a15.3 15.3 0 0 0 1.36 3.936l1.752-.967a13.2 13.2 0 0 1-1.179-3.416zm1.363 3.942c.631 1.22 1.426 2.272 2.387 3.145l1.325-1.528c-.78-.709-1.435-1.57-1.966-2.596zm2.415 3.17a9.3 9.3 0 0 0 3.389 1.813l.578-1.948a7.4 7.4 0 0 1-2.698-1.443zm3.401 1.817c1.341.374 2.769.372 4.264.026l-.395-1.975c-1.226.283-2.324.27-3.314-.007zm4.264.026c1.495-.345 2.787-.972 3.84-1.907l-1.272-1.52c-.761.675-1.736 1.168-2.963 1.452zm3.831-1.899a9.4 9.4 0 0 0 2.414-3.179l-1.778-.838a7.3 7.3 0 0 1-1.89 2.481zm2.412-3.174a11.3 11.3 0 0 0 1.028-3.953l-1.966-.12a9.2 9.2 0 0 1-.836 3.226zm1.027-3.936q.2-2.131-.218-4.223l-1.933.447q.36 1.796.187 3.622zm-.218-4.223-3.786-18.921-1.933.447 3.786 18.921zm-4.555-17.709 4.593-1.063-.395-1.975-4.593 1.062zm35.971 7.467-.976-.126-.002.009-.001.01zm-1.542 4.425.823.54.004-.006.004-.006zm-3.227 3.276-.521-.849-1.028.678.833.883zm8.751 9.289.198.987 1.74-.402-1.222-1.297zm-5.428 1.255-.716.712.377.4.537-.124zm-8.257-8.758.716-.712-.377-.399-.536.124zm-7.562 1.749-.197-.988-.967.224.198.988zm2.04 10.196.198.987.966-.223-.197-.988zm-4.639 1.072-.966.224.198.988.966-.224zm-6.633-33.146-.197-.988-.967.223.198.988zm16.955-3.326-.136 1.006.017.002.017.001zm3.17.805-.416.927.011.005.011.004zm2.571 1.688-.677.751.006.006.007.006zm1.979 2.37.841-.546-.006-.01-.006-.009zm-16.382 15.647-.966.223.197.988.966-.224zm8.814-2.039-.173-.993-.012.002-.012.003zm3.188-1.779.7.698.007-.008.007-.007zm1.555-3.386-.974-.14-.002.016-.002.016zm-1.158-5.785-.837.553.003.004zm-2.591-2.279-.431.92.007.003.007.004zm-12.513 1.753-.197-.988-.967.224.198.987zm19.93 6.866a9.8 9.8 0 0 1-1.394 4.004l1.662 1.056a12 12 0 0 0 1.689-4.847zm-1.386 3.991a9.8 9.8 0 0 1-2.925 2.968l1.041 1.698a11.86 11.86 0 0 0 3.53-3.585zm-3.12 4.529 8.751 9.288 1.432-1.423-8.752-9.289zm9.269 7.589-5.428 1.255.396 1.976 5.428-1.256zm-4.515 1.531-8.256-8.758-1.431 1.424 8.256 8.758zm-9.169-9.033-7.562 1.748.395 1.976 7.562-1.749zm-8.331 2.96 2.04 10.195 1.933-.447-2.04-10.195zm2.809 8.984-4.639 1.073.395 1.975 4.639-1.073zm-3.475 1.837-6.633-33.147-1.933.447 6.633 33.147zm-7.402-31.936 13.315-3.079-.396-1.975-13.314 3.079zm13.315-3.079c1.207-.279 2.306-.349 3.306-.228l.271-2.012c-1.255-.151-2.582-.057-3.973.265zm3.34-.225c1.053.089 2.002.333 2.856.723l.832-1.854c-1.069-.488-2.234-.781-3.485-.887zm2.878.732a7.7 7.7 0 0 1 2.288 1.503l1.353-1.503a9.6 9.6 0 0 0-2.853-1.873zm2.301 1.515a10.6 10.6 0 0 1 1.813 2.172l1.659-1.13a12.6 12.6 0 0 0-2.145-2.569zm1.801 2.153a12.5 12.5 0 0 1 1.575 4.047l1.933-.447a14.6 14.6 0 0 0-1.825-4.692zm1.575 4.047q.43 2.148.113 4.386l1.951.251a15 15 0 0 0-.131-5.084zm-16.918 12.041 8.815-2.038-.395-1.976-8.815 2.039zm8.791-2.033a6.94 6.94 0 0 0 3.714-2.074l-1.401-1.396a4.93 4.93 0 0 1-2.66 1.484zm3.728-2.089a7.07 7.07 0 0 0 1.819-3.961l-1.956-.216a5 5 0 0 1-1.292 2.811zm1.815-3.93c.363-2.337-.072-4.513-1.297-6.482l-1.669 1.115c.969 1.559 1.306 3.239 1.018 5.088zm-1.295-6.478a6.78 6.78 0 0 0-3.011-2.651l-.834 1.853a4.84 4.84 0 0 1 2.171 1.905zm-2.997-2.645c-1.316-.628-2.827-.7-4.466-.321l.395 1.975c1.33-.307 2.378-.211 3.209.186zm-4.466-.321-8.675 2.006.395 1.976 8.675-2.007zm-9.444 3.217 2.705 13.515 1.932-.447-2.704-13.515zm50.541 13.119.967-.224-.198-.987-.966.223zm.949 4.742.198.988.966-.224-.198-.988zm-18.742 4.335-.967.223.198.988.966-.224zm-.01-.048.966-.223-.197-.988-.967.223zm-2.319.537-.967.223.198.988.966-.224zm-6.643-33.195-.198-.987-.966.223.198.988zm20.459-4.731.966-.224-.197-.987-.967.223zm.949 4.742.198.988.966-.224-.198-.988zm-15.82 3.659-.197-.988-.967.223.198.988zm1.927 9.626-.967.223.198.988.966-.223zm11.783-2.725.967-.224-.198-.988-.966.224zm.949 4.742.198.987.966-.223-.198-.988zm-11.784 2.725-.197-.988-.967.224.198.987zm1.879 9.389-.966.224.198.987.966-.223zm15.457-3.575.949 4.742 1.932-.447-.948-4.742zm1.717 3.531-18.742 4.335.395 1.975 18.743-4.334zm-17.578 5.099-.01-.047-1.932.447.009.047zm-1.174-.812-2.319.537.395 1.975 2.32-.536zm-1.155 1.301-6.643-33.194-1.932.447 6.642 33.194zm-7.411-31.983 20.459-4.731-.396-1.976-20.459 4.732zm19.295-5.496.949 4.742 1.932-.447-.949-4.742zm1.717 3.531-15.819 3.659.395 1.975 15.82-3.658zm-16.588 4.87 1.926 9.626 1.933-.447-1.926-9.626zm3.09 10.391 11.784-2.726-.395-1.975-11.784 2.725zm10.62-3.49.949 4.742 1.932-.447-.948-4.742zm1.717 3.531-11.783 2.725.395 1.976 11.784-2.726zm-12.552 3.936 1.879 9.39 1.933-.447-1.879-9.39zm3.043 10.154 16.423-3.798-.395-1.976-16.423 3.798zm28.003-23.337-.175 1 .013.002zm3.876.691-.214.993zm6.359 3.64-.776.641.007.009zm1.67 3.98-.966.223.002.01.002.01zm-.083 4.435.941.282.004-.011zm-1.935 3.672.744.649.006-.007.006-.007zm-3.239 2.734.464.884.009-.005.009-.006zm-8.499 1.916-.105 1.009zm-3.961-1.118-.472.899.006.003.007.004zm-3.002-2.63-.805.601.008.013.009.011zm-1.727-4.265-.198-.987-.966.223.198.988zm4.639-1.073.966-.223-.197-.988-.967.224zm1.032 2.491-.786.627.005.007.005.007zm1.734 1.385-.414.928.015.007.016.006zm2.221.429-.033 1.012h.009zm5.224-1.308.447.893.014-.007.014-.008zm2.119-1.78.747.645.01-.012.01-.012zm.847-1.833-.958-.221-.006.022-.004.022zm-.009-1.982-.966.223.004.024.006.023zm-1.049-2.09-.727.7.012.013.013.013zm-1.863-1.305-.401.933zm-2.474-.718-.225.99.022.005.022.004zm-2.667-.475-.18.999.015.003.015.002zm-3.671-.639-.212.993.011.002.011.002zm-5.959-3.336.769-.651zm-1.557-3.658.966-.224-.002-.013-.003-.013zm.013-3.576.958.219.003-.011zm1.518-3.328-.748-.644-.017.021-.016.021zm2.804-2.484-.5-.862-.007.005zm3.458-1.395.173.993.012-.002.013-.003zm3.788-.231.118-1.008zm3.552 1.014-.449.911.007.004.007.003zm2.833 2.272-.768.651.006.008.008.009zm1.585 3.553.198.988.944-.218-.171-.971zm-4.639 1.073-.976.165.149 1.06 1.025-.237zm-.638-1.49-.806.601.015.021.015.02zm-1.184-1.065.473-.899-.032-.017-.034-.015zm-4.348-.384.154.997.032-.006.032-.008zm-3.521 2.055-.738-.656-.019.022-.018.024zm-.582 2.913.967-.224-.006-.029-.008-.028zm.89 1.779-.704.724.014.014.015.014zm1.723 1.09.382-.942zm2.213.629-.189.998.007.001.007.001zm2.347 1.414q1.926.29 3.824.682l.429-1.986a72 72 0 0 0-3.928-.7zm3.824.682q1.8.374 3.301 1.171l.933-1.804q-1.756-.93-3.805-1.353zm3.301 1.171a7.7 7.7 0 0 1 2.496 2.117l1.552-1.283a9.64 9.64 0 0 0-3.115-2.638zm2.503 2.126c.652.819 1.159 1.983 1.473 3.553l1.933-.447c-.357-1.781-.963-3.27-1.868-4.407zm1.477 3.573c.315 1.426.282 2.726-.066 3.92l1.89.543c.457-1.572.48-3.229.101-4.95zm-.062 3.909a9.8 9.8 0 0 1-1.749 3.321l1.511 1.269a11.9 11.9 0 0 0 2.12-4.025zm-1.738 3.306c-.807.969-1.795 1.806-2.976 2.509l.963 1.747a13.5 13.5 0 0 0 3.501-2.958zm-2.958 2.499a13.9 13.9 0 0 1-3.74 1.467l.395 1.976a15.9 15.9 0 0 0 4.272-1.675zm-3.74 1.467c-1.455.337-2.851.442-4.191.324l-.21 2.018q2.34.204 4.796-.366zm-4.191.324c-1.336-.118-2.535-.459-3.607-1.015l-.918 1.812c1.31.679 2.752 1.083 4.315 1.221zm-3.594-1.008c-1.03-.555-1.925-1.335-2.686-2.357l-1.576 1.251c.92 1.236 2.026 2.209 3.318 2.904zm-2.669-2.333c-.724-1.036-1.253-2.323-1.566-3.886l-1.932.447c.357 1.787.98 3.344 1.888 4.642zm-2.335-2.675 4.64-1.073-.396-1.975-4.639 1.073zm3.476-1.837c.224 1.122.618 2.101 1.212 2.894l1.573-1.255c-.377-.504-.672-1.185-.853-2.086zm1.222 2.908a5.54 5.54 0 0 0 2.096 1.672l.828-1.856a3.6 3.6 0 0 1-1.372-1.099zm2.127 1.685c.793.326 1.654.488 2.571.5l.067-2.025c-.705-.009-1.326-.133-1.873-.358zm2.58.5q1.384.005 2.83-.33l-.395-1.976q-1.245.287-2.386.281zm2.83-.33a11.3 11.3 0 0 0 2.865-1.097l-.895-1.785q-1.155.628-2.365.906zm2.893-1.112a8.9 8.9 0 0 0 2.391-2.013l-1.494-1.29a6.8 6.8 0 0 1-1.848 1.548zm2.411-2.037a5.36 5.36 0 0 0 1.047-2.276l-1.935-.355a3.25 3.25 0 0 1-.646 1.39zm1.037-2.233a5.16 5.16 0 0 0-.01-2.474l-1.912.541c.124.496.126.989.007 1.491zm0-2.427c-.203-1.019-.633-1.898-1.312-2.591l-1.405 1.451c.377.385.647.899.785 1.587zm-1.288-2.566a6.3 6.3 0 0 0-2.189-1.539l-.802 1.867c.634.276 1.14.636 1.537 1.072zm-2.189-1.539a11.7 11.7 0 0 0-2.693-.783l-.363 1.998a9.7 9.7 0 0 1 2.254.652zm-2.649-.775a35 35 0 0 0-2.743-.488l-.3 2.008q1.31.18 2.592.461zm-2.713-.483a377 377 0 0 1-3.662-.638l-.379 1.995q1.818.327 3.681.641zm-3.64-.634a11.7 11.7 0 0 1-3.09-1.074l-.921 1.81q1.645.856 3.588 1.251zm-3.09-1.074a7.1 7.1 0 0 1-2.311-1.919l-1.537 1.302a9.1 9.1 0 0 0 2.927 2.427zm-2.311-1.919c-.612-.767-1.079-1.826-1.36-3.231l-1.932.447c.326 1.63.897 3.01 1.755 4.086zm-1.365-3.257a6.8 6.8 0 0 1 .01-3.107l-1.917-.437a8.9 8.9 0 0 0-.015 4.043zm.013-3.118a7.7 7.7 0 0 1 1.338-2.933l-1.562-1.205a9.8 9.8 0 0 0-1.698 3.723zm1.305-2.891a10.8 10.8 0 0 1 2.562-2.271l-1.013-1.715a12.9 12.9 0 0 0-3.045 2.697zm2.555-2.266a9.4 9.4 0 0 1 3.132-1.265l-.346-1.986a11.4 11.4 0 0 0-3.785 1.526zm3.157-1.27a10.5 10.5 0 0 1 3.472-.211l.236-2.016a12.5 12.5 0 0 0-4.104.251zm3.472-.211c1.181.121 2.252.429 3.221.917l.899-1.822q-1.788-.898-3.884-1.111zm3.235.924a7.1 7.1 0 0 1 2.5 2.005l1.537-1.301a9 9 0 0 0-3.166-2.54zm2.514 2.022c.687.824 1.149 1.843 1.369 3.086l1.941-.402c-.275-1.552-.87-2.902-1.801-4.019zm2.142 1.898-4.64 1.073.396 1.975 4.639-1.073zm-3.466 1.895a4.1 4.1 0 0 0-.838-1.966l-1.552 1.283c.248.319.387.653.438 1.013zm-.808-1.925a4.36 4.36 0 0 0-1.517-1.364l-.946 1.797c.336.182.618.434.851.768zm-1.583-1.396c-1.61-.715-3.279-.866-4.973-.436l.436 1.966c1.262-.32 2.492-.215 3.723.332zm-4.91-.45c-1.63.301-3.009 1.106-4.104 2.396l1.476 1.312c.791-.932 1.758-1.497 2.937-1.714zm-4.141 2.442c-.857 1.136-1.117 2.437-.76 3.804l1.906-.562c-.197-.755-.069-1.396.404-2.023zm-.773 3.746c.178.891.554 1.667 1.152 2.28l1.408-1.449c-.297-.304-.515-.714-.627-1.278zm1.181 2.308c.572.54 1.249.964 2.015 1.279l.765-1.883a4.6 4.6 0 0 1-1.429-.901zm2.015 1.279q1.11.455 2.407.686l.378-1.996a10 10 0 0 1-2.02-.573zm2.421.688 2.509.412.351-2-2.51-.412z" mask="url(#b)"/></svg>