<svg width="1920" height="734" viewBox="0 0 1920 734" fill="none" xmlns="http://www.w3.org/2000/svg">
<path opacity="0.3" d="M1215.26 6.45312H1570.66H1901C1914.81 6.45312 1926 17.646 1926 31.4531V147.884V537.625L1882.76 710.147L1768.73 511.51L1629.94 711.688L1560.84 490.654L1312.35 562.345L1442.89 297.629L1213 224.647L1442.89 132.92L1215.26 6.45312Z" fill="white"/>
<path opacity="0.3" d="M-152.743 501.576C-170.16 413.55 -113.367 325.975 -25.8925 305.972L835.225 109.056C922.7 89.0526 1007.73 144.196 1025.15 232.222C1042.57 320.248 985.772 407.823 898.298 427.827L37.1796 624.743C-50.2952 644.746 -135.327 589.602 -152.743 501.576Z" fill="white" stroke="#645BCA" strokeWidth="121"/>
<mask id="path-3-outside-1_5491_44819" maskUnits="userSpaceOnUse" x="18.3187" y="226.988" width="888.743" height="272.098" fill="black">
<rect fill="white" x="18.3187" y="226.988" width="888.743" height="272.098"/>
<path d="M65.6401 438.219C67.1254 440.637 68.1476 443.222 68.7068 445.975C69.266 448.728 69.3394 451.537 68.9269 454.4C68.6109 456.299 68.0767 458.132 67.3244 459.898C66.5606 461.607 65.5393 463.201 64.2605 464.679C63.0262 466.087 61.5286 467.351 59.7678 468.471C57.9956 469.534 55.9652 470.334 53.6768 470.872L37.7692 474.606L41.4498 492.726L33.0774 494.691L21.1114 435.78L45.1401 430.14C47.4844 429.589 49.6739 429.428 51.7086 429.657C53.7877 429.817 55.6949 430.281 57.4301 431.051C59.154 431.765 60.7003 432.756 62.0689 434.024C63.4261 435.236 64.6165 436.634 65.6401 438.219ZM60.5414 453.278C61.129 449.55 60.4329 446.122 58.4529 442.996C57.3279 441.2 55.769 439.859 53.7762 438.973C51.8392 438.074 49.5312 437.939 46.852 438.568L31.1956 442.243L36.0745 466.262L51.982 462.528C54.2261 462.06 56.1435 460.992 57.7344 459.323C59.3138 457.599 60.2495 455.584 60.5414 453.278ZM119.21 442.596C118.854 445.446 117.926 448.078 116.428 450.49C114.918 452.845 112.977 454.802 110.603 456.36L126.395 472.785L116.599 475.084L101.7 459.598L88.0527 462.802L91.7332 480.922L83.3608 482.887L71.3948 423.976L95.4236 418.335C97.7678 417.785 99.9573 417.624 101.992 417.853C104.071 418.012 105.978 418.477 107.714 419.247C109.437 419.961 110.984 420.952 112.352 422.22C113.71 423.432 114.9 424.83 115.924 426.414C117.409 428.832 118.431 431.418 118.99 434.171C119.549 436.924 119.623 439.732 119.21 442.596ZM86.3579 454.458L102.265 450.724C104.51 450.256 106.427 449.188 108.018 447.519C109.597 445.795 110.533 443.779 110.825 441.474C111.412 437.745 110.716 434.318 108.736 431.192C107.611 429.396 106.052 428.055 104.06 427.169C102.123 426.269 99.8146 426.134 97.1354 426.763L81.4791 430.439L86.3579 454.458ZM160.833 464.7C156.926 465.618 153.038 465.765 149.169 465.143C145.344 464.451 141.801 462.987 138.54 460.751C135.167 458.54 132.418 455.801 130.292 452.533C128.166 449.264 126.721 445.748 125.957 441.984C125.192 438.219 125.142 434.375 125.807 430.452C126.472 426.528 127.909 422.806 130.118 419.285C132.226 415.847 134.885 412.957 138.093 410.614C141.357 408.259 144.943 406.622 148.85 405.705L200.34 393.618C204.247 392.7 208.113 392.587 211.938 393.279C215.818 393.957 219.383 395.387 222.633 397.567C226.006 399.778 228.755 402.517 230.881 405.785C233.006 409.053 234.452 412.57 235.216 416.334C235.981 420.099 236.031 423.943 235.366 427.866C234.701 431.79 233.264 435.512 231.055 439.032C228.958 442.527 226.277 445.452 223.013 447.808C219.794 450.094 216.23 451.696 212.323 452.613L160.833 464.7ZM210.663 444.438C213.398 443.796 215.885 442.653 218.124 441.009C220.419 439.351 222.343 437.31 223.897 434.885C225.473 432.278 226.501 429.565 226.98 426.744C227.449 423.868 227.403 421.053 226.844 418.3C226.285 415.547 225.235 412.968 223.694 410.563C222.152 408.158 220.166 406.152 217.734 404.545C215.381 403.037 212.841 402.044 210.112 401.566C207.439 401.075 204.736 401.151 202.001 401.793L150.51 413.88C147.775 414.522 145.26 415.672 142.966 417.329C140.726 418.973 138.83 421.008 137.276 423.433C135.689 425.983 134.661 428.697 134.193 431.574C133.724 434.45 133.77 437.265 134.329 440.018C134.888 442.771 135.938 445.35 137.479 447.755C139.009 450.104 140.995 452.11 143.438 453.773C145.791 455.281 148.304 456.281 150.977 456.772C153.706 457.249 156.437 457.167 159.172 456.525L210.663 444.438ZM287.285 391.838C289.345 395.357 290.785 399.139 291.607 403.185C292.417 407.174 292.569 411.229 292.061 415.352C291.67 418.033 290.944 420.647 289.882 423.192C288.864 425.668 287.488 427.963 285.754 430.077C284.064 432.122 281.999 433.902 279.558 435.416C277.117 436.931 274.306 438.062 271.125 438.809L248.603 444.096L236.62 385.101L259.142 379.814C262.323 379.067 265.317 378.835 268.123 379.118C270.929 379.401 273.502 380.122 275.842 381.279C278.227 382.368 280.368 383.837 282.264 385.688C284.205 387.469 285.878 389.519 287.285 391.838ZM283.609 414.334C284.032 411.232 283.935 408.165 283.318 405.13C282.691 402.04 281.578 399.152 279.98 396.466C279.023 394.925 277.895 393.542 276.593 392.317C275.28 391.036 273.818 390.025 272.206 389.285C270.582 388.489 268.814 387.991 266.903 387.793C265.035 387.525 263.013 387.646 260.836 388.157L246.687 391.479L255.281 433.787L269.43 430.465C271.607 429.954 273.526 429.18 275.186 428.143C276.835 427.049 278.221 425.811 279.344 424.429C280.511 422.978 281.449 421.404 282.157 419.707C282.853 417.955 283.337 416.163 283.609 414.334ZM338.91 361.088L345.741 394.715C346.46 398.255 346.614 401.75 346.204 405.202C345.794 408.653 344.83 411.823 343.311 414.711C341.781 417.542 339.713 420.029 337.108 422.171C334.546 424.244 331.452 425.706 327.824 426.558C324.531 427.331 321.201 427.348 317.834 426.608C315.754 426.154 313.734 425.422 311.774 424.41C309.803 423.342 307.97 421.948 306.275 420.226C304.636 418.492 303.192 416.418 301.941 414.003C300.746 411.576 299.829 408.789 299.19 405.643L292.36 372.015L300.732 370.05L307.563 403.677C308.031 405.981 308.794 408.156 309.853 410.203C310.901 412.194 312.21 413.889 313.78 415.286C315.395 416.614 317.226 417.567 319.273 418.146C321.376 418.712 323.656 418.707 326.112 418.13C328.568 417.554 330.614 416.544 332.25 415.1C333.943 413.643 335.237 411.956 336.134 410.038C337.076 408.051 337.637 405.918 337.817 403.639C338.042 401.29 337.92 398.964 337.452 396.661L330.622 363.033L338.91 361.088ZM404.009 382.626L412.549 380.621C412.61 384.668 411.962 388.529 410.603 392.203C409.233 395.821 407.297 399.101 404.795 402.043C402.338 404.916 399.403 407.312 395.992 409.231C392.637 411.137 388.999 412.374 385.079 412.941C381.092 413.464 377.253 413.277 373.562 412.377C369.859 411.422 366.506 409.884 363.502 407.763C360.487 405.587 357.928 402.92 355.825 399.765C353.711 396.552 352.254 392.98 351.455 389.047C350.656 385.114 350.601 381.242 351.289 377.431C351.965 373.563 353.257 369.993 355.165 366.719C357.074 363.446 359.525 360.545 362.52 358.017C365.516 355.489 368.927 353.57 372.754 352.26C376.537 351.018 380.323 350.512 384.112 350.741C387.957 350.957 391.559 351.848 394.918 353.414C398.321 354.911 401.352 357.025 404.012 359.756C406.661 362.43 408.742 365.621 410.255 369.327L401.715 371.332C400.622 369.117 399.205 367.183 397.466 365.531C395.772 363.809 393.861 362.463 391.734 361.49C389.651 360.449 387.407 359.769 385.004 359.45C382.6 359.131 380.164 359.232 377.697 359.752C375.285 360.26 373.01 361.147 370.869 362.415C368.785 363.669 366.931 365.194 365.307 366.988C363.683 368.782 362.368 370.797 361.36 373.035C360.353 375.273 359.698 377.664 359.396 380.207C359.15 382.737 359.3 385.204 359.847 387.607C360.382 389.953 361.263 392.131 362.489 394.138C363.716 396.146 365.249 397.935 367.088 399.505C368.927 401.074 370.988 402.297 373.272 403.174C375.376 404.034 377.524 404.531 379.714 404.664C381.894 404.741 384.044 404.531 386.165 404.033C388.621 403.456 390.913 402.506 393.042 401.182C395.159 399.802 397.024 398.187 398.636 396.337C400.237 394.43 401.502 392.309 402.431 389.972C403.36 387.634 403.886 385.186 404.009 382.626ZM445.623 336.125L447.334 344.553L431.678 348.228L441.932 398.711L433.56 400.677L423.306 350.194L407.649 353.869L405.937 345.441L445.623 336.125ZM488.62 334.684L492.54 353.984L513.639 349.031L515.35 357.459L494.252 362.412L498.908 385.336L490.536 387.301L478.553 328.306L514.47 319.874L516.165 328.218L488.62 334.684ZM530.564 324.838L533.833 340.935L606.589 323.855L608.301 332.283L535.545 349.363L539.14 367.061L619.264 348.252L620.976 356.68L532.48 377.455L520.496 318.46L524.683 317.477L524.666 317.392L609.562 297.463L611.274 305.891L530.564 324.838ZM677.277 343.463L668.318 345.566L660.189 333.612L635.49 339.41L632.736 353.919L623.777 356.022L635.907 291.366L641.181 290.128L677.277 343.463ZM655.044 325.99L641.736 306.245L637.211 330.176L655.044 325.99ZM698.021 276.873L699.733 285.301L684.076 288.977L694.33 339.46L685.958 341.425L675.704 290.942L660.048 294.617L658.336 286.189L698.021 276.873ZM749.027 264.811L755.857 298.438C756.576 301.978 756.731 305.474 756.321 308.925C755.911 312.377 754.946 315.546 753.428 318.434C751.898 321.266 749.83 323.753 747.224 325.895C744.663 327.968 741.568 329.43 737.94 330.282C734.647 331.055 731.317 331.071 727.951 330.331C725.87 329.878 723.85 329.145 721.89 328.133C719.919 327.066 718.086 325.671 716.392 323.95C714.753 322.215 713.308 320.141 712.058 317.727C710.863 315.3 709.946 312.513 709.307 309.366L702.476 275.739L710.849 273.774L717.679 307.401C718.147 309.704 718.911 311.88 719.97 313.927C721.017 315.918 722.326 317.612 723.897 319.009C725.511 320.337 727.342 321.291 729.39 321.87C731.493 322.436 733.772 322.43 736.228 321.854C738.684 321.277 740.73 320.267 742.367 318.823C744.059 317.367 745.354 315.679 746.251 313.762C747.192 311.775 747.753 309.642 747.933 307.362C748.158 305.014 748.037 302.688 747.569 300.384L740.738 266.757L749.027 264.811ZM806.008 281.367C805.652 284.218 804.724 286.849 803.226 289.261C801.716 291.617 799.775 293.574 797.401 295.132L813.193 311.556L803.397 313.856L788.498 298.37L774.851 301.573L778.531 319.693L770.159 321.659L758.193 262.748L782.222 257.107C784.566 256.556 786.755 256.396 788.79 256.624C790.869 256.784 792.776 257.249 794.512 258.018C796.235 258.732 797.782 259.723 799.15 260.991C800.508 262.203 801.698 263.601 802.722 265.186C804.207 267.604 805.229 270.189 805.788 272.942C806.347 275.696 806.421 278.504 806.008 281.367ZM773.156 293.23L789.063 289.495C791.308 289.027 793.225 287.959 794.816 286.291C796.395 284.566 797.331 282.551 797.623 280.245C798.21 276.517 797.514 273.089 795.534 269.963C794.409 268.167 792.85 266.826 790.858 265.94C788.921 265.041 786.613 264.906 783.933 265.535L768.277 269.21L773.156 293.23ZM857.741 292.357L859.453 300.785L825.629 308.725L825.612 308.641L821.425 309.624L809.442 250.628L846.364 241.961L848.076 250.389L819.526 257.091L823.002 274.199L844.267 269.207L845.979 277.635L824.713 282.627L828.103 299.315L857.741 292.357ZM878.999 259.199C881.347 259.531 883.679 259.926 885.994 260.383C888.309 260.84 890.446 261.575 892.406 262.586C894.366 263.598 896.054 264.997 897.469 266.784C898.873 268.514 899.878 270.869 900.483 273.847C901.109 276.643 901.059 279.274 900.332 281.74C899.593 284.151 898.429 286.337 896.84 288.3C895.239 290.206 893.29 291.841 890.994 293.204C888.686 294.511 886.277 295.459 883.765 296.049C880.974 296.704 878.271 296.926 875.655 296.716C873.04 296.506 870.657 295.859 868.507 294.774C866.412 293.677 864.607 292.128 863.09 290.13C861.617 288.062 860.579 285.539 859.974 282.562L868.346 280.596C868.711 282.394 869.332 283.867 870.209 285.015C871.074 286.107 872.116 286.922 873.337 287.46C874.545 287.941 875.882 288.187 877.346 288.196C878.865 288.193 880.435 288.001 882.053 287.621C883.672 287.241 885.245 286.636 886.772 285.807C888.288 284.921 889.563 283.856 890.597 282.613C891.386 281.604 891.896 280.513 892.125 279.34C892.411 278.155 892.406 276.979 892.11 275.812C891.802 274.295 891.171 273.06 890.217 272.106C889.319 271.14 888.199 270.373 886.855 269.805C885.512 269.238 884.024 268.822 882.391 268.557C880.803 268.224 879.199 267.953 877.577 267.745C875.341 267.387 873.133 267.022 870.952 266.651C868.76 266.224 866.751 265.548 864.926 264.622C863.101 263.697 861.525 262.419 860.2 260.787C858.874 259.156 857.938 256.992 857.39 254.295C856.9 252.173 856.908 250.052 857.413 247.932C857.907 245.756 858.82 243.775 860.154 241.991C861.61 240.236 863.297 238.751 865.213 237.536C867.186 236.307 869.267 235.466 871.455 235.011C873.687 234.487 875.966 234.335 878.292 234.554C880.617 234.773 882.753 235.361 884.702 236.316C886.706 237.258 888.41 238.595 889.814 240.326C891.274 242.043 892.227 244.144 892.674 246.63L884.301 248.595C884.163 247.627 883.78 246.746 883.15 245.952C882.577 245.144 881.865 244.517 881.014 244.069C878.45 242.964 875.834 242.754 873.167 243.439C870.632 243.916 868.514 245.149 866.813 247.138C865.613 248.715 865.263 250.445 865.762 252.329C866.025 253.622 866.56 254.673 867.368 255.484C868.232 256.282 869.268 256.922 870.477 257.403C871.686 257.885 873.017 258.249 874.471 258.497C875.98 258.731 877.49 258.965 878.999 259.199Z"/>
</mask>
<path d="M65.6401 438.219C67.1254 440.637 68.1476 443.222 68.7068 445.975C69.266 448.728 69.3394 451.537 68.9269 454.4C68.6109 456.299 68.0767 458.132 67.3244 459.898C66.5606 461.607 65.5393 463.201 64.2605 464.679C63.0262 466.087 61.5286 467.351 59.7678 468.471C57.9956 469.534 55.9652 470.334 53.6768 470.872L37.7692 474.606L41.4498 492.726L33.0774 494.691L21.1114 435.78L45.1401 430.14C47.4844 429.589 49.6739 429.428 51.7086 429.657C53.7877 429.817 55.6949 430.281 57.4301 431.051C59.154 431.765 60.7003 432.756 62.0689 434.024C63.4261 435.236 64.6165 436.634 65.6401 438.219ZM60.5414 453.278C61.129 449.55 60.4329 446.122 58.4529 442.996C57.3279 441.2 55.769 439.859 53.7762 438.973C51.8392 438.074 49.5312 437.939 46.852 438.568L31.1956 442.243L36.0745 466.262L51.982 462.528C54.2261 462.06 56.1435 460.992 57.7344 459.323C59.3138 457.599 60.2495 455.584 60.5414 453.278ZM119.21 442.596C118.854 445.446 117.926 448.078 116.428 450.49C114.918 452.845 112.977 454.802 110.603 456.36L126.395 472.785L116.599 475.084L101.7 459.598L88.0527 462.802L91.7332 480.922L83.3608 482.887L71.3948 423.976L95.4236 418.335C97.7678 417.785 99.9573 417.624 101.992 417.853C104.071 418.012 105.978 418.477 107.714 419.247C109.437 419.961 110.984 420.952 112.352 422.22C113.71 423.432 114.9 424.83 115.924 426.414C117.409 428.832 118.431 431.418 118.99 434.171C119.549 436.924 119.623 439.732 119.21 442.596ZM86.3579 454.458L102.265 450.724C104.51 450.256 106.427 449.188 108.018 447.519C109.597 445.795 110.533 443.779 110.825 441.474C111.412 437.745 110.716 434.318 108.736 431.192C107.611 429.396 106.052 428.055 104.06 427.169C102.123 426.269 99.8146 426.134 97.1354 426.763L81.4791 430.439L86.3579 454.458ZM160.833 464.7C156.926 465.618 153.038 465.765 149.169 465.143C145.344 464.451 141.801 462.987 138.54 460.751C135.167 458.54 132.418 455.801 130.292 452.533C128.166 449.264 126.721 445.748 125.957 441.984C125.192 438.219 125.142 434.375 125.807 430.452C126.472 426.528 127.909 422.806 130.118 419.285C132.226 415.847 134.885 412.957 138.093 410.614C141.357 408.259 144.943 406.622 148.85 405.705L200.34 393.618C204.247 392.7 208.113 392.587 211.938 393.279C215.818 393.957 219.383 395.387 222.633 397.567C226.006 399.778 228.755 402.517 230.881 405.785C233.006 409.053 234.452 412.57 235.216 416.334C235.981 420.099 236.031 423.943 235.366 427.866C234.701 431.79 233.264 435.512 231.055 439.032C228.958 442.527 226.277 445.452 223.013 447.808C219.794 450.094 216.23 451.696 212.323 452.613L160.833 464.7ZM210.663 444.438C213.398 443.796 215.885 442.653 218.124 441.009C220.419 439.351 222.343 437.31 223.897 434.885C225.473 432.278 226.501 429.565 226.98 426.744C227.449 423.868 227.403 421.053 226.844 418.3C226.285 415.547 225.235 412.968 223.694 410.563C222.152 408.158 220.166 406.152 217.734 404.545C215.381 403.037 212.841 402.044 210.112 401.566C207.439 401.075 204.736 401.151 202.001 401.793L150.51 413.88C147.775 414.522 145.26 415.672 142.966 417.329C140.726 418.973 138.83 421.008 137.276 423.433C135.689 425.983 134.661 428.697 134.193 431.574C133.724 434.45 133.77 437.265 134.329 440.018C134.888 442.771 135.938 445.35 137.479 447.755C139.009 450.104 140.995 452.11 143.438 453.773C145.791 455.281 148.304 456.281 150.977 456.772C153.706 457.249 156.437 457.167 159.172 456.525L210.663 444.438ZM287.285 391.838C289.345 395.357 290.785 399.139 291.607 403.185C292.417 407.174 292.569 411.229 292.061 415.352C291.67 418.033 290.944 420.647 289.882 423.192C288.864 425.668 287.488 427.963 285.754 430.077C284.064 432.122 281.999 433.902 279.558 435.416C277.117 436.931 274.306 438.062 271.125 438.809L248.603 444.096L236.62 385.101L259.142 379.814C262.323 379.067 265.317 378.835 268.123 379.118C270.929 379.401 273.502 380.122 275.842 381.279C278.227 382.368 280.368 383.837 282.264 385.688C284.205 387.469 285.878 389.519 287.285 391.838ZM283.609 414.334C284.032 411.232 283.935 408.165 283.318 405.13C282.691 402.04 281.578 399.152 279.98 396.466C279.023 394.925 277.895 393.542 276.593 392.317C275.28 391.036 273.818 390.025 272.206 389.285C270.582 388.489 268.814 387.991 266.903 387.793C265.035 387.525 263.013 387.646 260.836 388.157L246.687 391.479L255.281 433.787L269.43 430.465C271.607 429.954 273.526 429.18 275.186 428.143C276.835 427.049 278.221 425.811 279.344 424.429C280.511 422.978 281.449 421.404 282.157 419.707C282.853 417.955 283.337 416.163 283.609 414.334ZM338.91 361.088L345.741 394.715C346.46 398.255 346.614 401.75 346.204 405.202C345.794 408.653 344.83 411.823 343.311 414.711C341.781 417.542 339.713 420.029 337.108 422.171C334.546 424.244 331.452 425.706 327.824 426.558C324.531 427.331 321.201 427.348 317.834 426.608C315.754 426.154 313.734 425.422 311.774 424.41C309.803 423.342 307.97 421.948 306.275 420.226C304.636 418.492 303.192 416.418 301.941 414.003C300.746 411.576 299.829 408.789 299.19 405.643L292.36 372.015L300.732 370.05L307.563 403.677C308.031 405.981 308.794 408.156 309.853 410.203C310.901 412.194 312.21 413.889 313.78 415.286C315.395 416.614 317.226 417.567 319.273 418.146C321.376 418.712 323.656 418.707 326.112 418.13C328.568 417.554 330.614 416.544 332.25 415.1C333.943 413.643 335.237 411.956 336.134 410.038C337.076 408.051 337.637 405.918 337.817 403.639C338.042 401.29 337.92 398.964 337.452 396.661L330.622 363.033L338.91 361.088ZM404.009 382.626L412.549 380.621C412.61 384.668 411.962 388.529 410.603 392.203C409.233 395.821 407.297 399.101 404.795 402.043C402.338 404.916 399.403 407.312 395.992 409.231C392.637 411.137 388.999 412.374 385.079 412.941C381.092 413.464 377.253 413.277 373.562 412.377C369.859 411.422 366.506 409.884 363.502 407.763C360.487 405.587 357.928 402.92 355.825 399.765C353.711 396.552 352.254 392.98 351.455 389.047C350.656 385.114 350.601 381.242 351.289 377.431C351.965 373.563 353.257 369.993 355.165 366.719C357.074 363.446 359.525 360.545 362.52 358.017C365.516 355.489 368.927 353.57 372.754 352.26C376.537 351.018 380.323 350.512 384.112 350.741C387.957 350.957 391.559 351.848 394.918 353.414C398.321 354.911 401.352 357.025 404.012 359.756C406.661 362.43 408.742 365.621 410.255 369.327L401.715 371.332C400.622 369.117 399.205 367.183 397.466 365.531C395.772 363.809 393.861 362.463 391.734 361.49C389.651 360.449 387.407 359.769 385.004 359.45C382.6 359.131 380.164 359.232 377.697 359.752C375.285 360.26 373.01 361.147 370.869 362.415C368.785 363.669 366.931 365.194 365.307 366.988C363.683 368.782 362.368 370.797 361.36 373.035C360.353 375.273 359.698 377.664 359.396 380.207C359.15 382.737 359.3 385.204 359.847 387.607C360.382 389.953 361.263 392.131 362.489 394.138C363.716 396.146 365.249 397.935 367.088 399.505C368.927 401.074 370.988 402.297 373.272 403.174C375.376 404.034 377.524 404.531 379.714 404.664C381.894 404.741 384.044 404.531 386.165 404.033C388.621 403.456 390.913 402.506 393.042 401.182C395.159 399.802 397.024 398.187 398.636 396.337C400.237 394.43 401.502 392.309 402.431 389.972C403.36 387.634 403.886 385.186 404.009 382.626ZM445.623 336.125L447.334 344.553L431.678 348.228L441.932 398.711L433.56 400.677L423.306 350.194L407.649 353.869L405.937 345.441L445.623 336.125ZM488.62 334.684L492.54 353.984L513.639 349.031L515.35 357.459L494.252 362.412L498.908 385.336L490.536 387.301L478.553 328.306L514.47 319.874L516.165 328.218L488.62 334.684ZM530.564 324.838L533.833 340.935L606.589 323.855L608.301 332.283L535.545 349.363L539.14 367.061L619.264 348.252L620.976 356.68L532.48 377.455L520.496 318.46L524.683 317.477L524.666 317.392L609.562 297.463L611.274 305.891L530.564 324.838ZM677.277 343.463L668.318 345.566L660.189 333.612L635.49 339.41L632.736 353.919L623.777 356.022L635.907 291.366L641.181 290.128L677.277 343.463ZM655.044 325.99L641.736 306.245L637.211 330.176L655.044 325.99ZM698.021 276.873L699.733 285.301L684.076 288.977L694.33 339.46L685.958 341.425L675.704 290.942L660.048 294.617L658.336 286.189L698.021 276.873ZM749.027 264.811L755.857 298.438C756.576 301.978 756.731 305.474 756.321 308.925C755.911 312.377 754.946 315.546 753.428 318.434C751.898 321.266 749.83 323.753 747.224 325.895C744.663 327.968 741.568 329.43 737.94 330.282C734.647 331.055 731.317 331.071 727.951 330.331C725.87 329.878 723.85 329.145 721.89 328.133C719.919 327.066 718.086 325.671 716.392 323.95C714.753 322.215 713.308 320.141 712.058 317.727C710.863 315.3 709.946 312.513 709.307 309.366L702.476 275.739L710.849 273.774L717.679 307.401C718.147 309.704 718.911 311.88 719.97 313.927C721.017 315.918 722.326 317.612 723.897 319.009C725.511 320.337 727.342 321.291 729.39 321.87C731.493 322.436 733.772 322.43 736.228 321.854C738.684 321.277 740.73 320.267 742.367 318.823C744.059 317.367 745.354 315.679 746.251 313.762C747.192 311.775 747.753 309.642 747.933 307.362C748.158 305.014 748.037 302.688 747.569 300.384L740.738 266.757L749.027 264.811ZM806.008 281.367C805.652 284.218 804.724 286.849 803.226 289.261C801.716 291.617 799.775 293.574 797.401 295.132L813.193 311.556L803.397 313.856L788.498 298.37L774.851 301.573L778.531 319.693L770.159 321.659L758.193 262.748L782.222 257.107C784.566 256.556 786.755 256.396 788.79 256.624C790.869 256.784 792.776 257.249 794.512 258.018C796.235 258.732 797.782 259.723 799.15 260.991C800.508 262.203 801.698 263.601 802.722 265.186C804.207 267.604 805.229 270.189 805.788 272.942C806.347 275.696 806.421 278.504 806.008 281.367ZM773.156 293.23L789.063 289.495C791.308 289.027 793.225 287.959 794.816 286.291C796.395 284.566 797.331 282.551 797.623 280.245C798.21 276.517 797.514 273.089 795.534 269.963C794.409 268.167 792.85 266.826 790.858 265.94C788.921 265.041 786.613 264.906 783.933 265.535L768.277 269.21L773.156 293.23ZM857.741 292.357L859.453 300.785L825.629 308.725L825.612 308.641L821.425 309.624L809.442 250.628L846.364 241.961L848.076 250.389L819.526 257.091L823.002 274.199L844.267 269.207L845.979 277.635L824.713 282.627L828.103 299.315L857.741 292.357ZM878.999 259.199C881.347 259.531 883.679 259.926 885.994 260.383C888.309 260.84 890.446 261.575 892.406 262.586C894.366 263.598 896.054 264.997 897.469 266.784C898.873 268.514 899.878 270.869 900.483 273.847C901.109 276.643 901.059 279.274 900.332 281.74C899.593 284.151 898.429 286.337 896.84 288.3C895.239 290.206 893.29 291.841 890.994 293.204C888.686 294.511 886.277 295.459 883.765 296.049C880.974 296.704 878.271 296.926 875.655 296.716C873.04 296.506 870.657 295.859 868.507 294.774C866.412 293.677 864.607 292.128 863.09 290.13C861.617 288.062 860.579 285.539 859.974 282.562L868.346 280.596C868.711 282.394 869.332 283.867 870.209 285.015C871.074 286.107 872.116 286.922 873.337 287.46C874.545 287.941 875.882 288.187 877.346 288.196C878.865 288.193 880.435 288.001 882.053 287.621C883.672 287.241 885.245 286.636 886.772 285.807C888.288 284.921 889.563 283.856 890.597 282.613C891.386 281.604 891.896 280.513 892.125 279.34C892.411 278.155 892.406 276.979 892.11 275.812C891.802 274.295 891.171 273.06 890.217 272.106C889.319 271.14 888.199 270.373 886.855 269.805C885.512 269.238 884.024 268.822 882.391 268.557C880.803 268.224 879.199 267.953 877.577 267.745C875.341 267.387 873.133 267.022 870.952 266.651C868.76 266.224 866.751 265.548 864.926 264.622C863.101 263.697 861.525 262.419 860.2 260.787C858.874 259.156 857.938 256.992 857.39 254.295C856.9 252.173 856.908 250.052 857.413 247.932C857.907 245.756 858.82 243.775 860.154 241.991C861.61 240.236 863.297 238.751 865.213 237.536C867.186 236.307 869.267 235.466 871.455 235.011C873.687 234.487 875.966 234.335 878.292 234.554C880.617 234.773 882.753 235.361 884.702 236.316C886.706 237.258 888.41 238.595 889.814 240.326C891.274 242.043 892.227 244.144 892.674 246.63L884.301 248.595C884.163 247.627 883.78 246.746 883.15 245.952C882.577 245.144 881.865 244.517 881.014 244.069C878.45 242.964 875.834 242.754 873.167 243.439C870.632 243.916 868.514 245.149 866.813 247.138C865.613 248.715 865.263 250.445 865.762 252.329C866.025 253.622 866.56 254.673 867.368 255.484C868.232 256.282 869.268 256.922 870.477 257.403C871.686 257.885 873.017 258.249 874.471 258.497C875.98 258.731 877.49 258.965 878.999 259.199Z" fill="#222222"/>
<path d="M65.6401 438.219L67.3357 437.122L67.3241 437.103L67.3122 437.085L65.6401 438.219ZM68.9269 454.4L70.8864 454.681L70.8901 454.659L70.8933 454.637L68.9269 454.4ZM67.3244 459.898L69.1313 460.685L69.1387 460.668L69.1458 460.652L67.3244 459.898ZM64.2605 464.679L65.7308 465.991L65.7394 465.981L64.2605 464.679ZM59.7678 468.471L60.7459 470.195L60.7687 470.181L60.7912 470.167L59.7678 468.471ZM37.7692 474.606L37.3711 472.646L35.4241 473.103L35.8222 475.063L37.7692 474.606ZM41.4498 492.726L41.8479 494.686L43.795 494.229L43.3968 492.269L41.4498 492.726ZM33.0774 494.691L31.1303 495.149L31.5284 497.109L33.4755 496.651L33.0774 494.691ZM21.1114 435.78L20.7132 433.82L18.7662 434.278L19.1643 436.238L21.1114 435.78ZM51.7086 429.657L51.436 431.658L51.4702 431.661L51.5046 431.664L51.7086 429.657ZM57.4301 431.051L56.5911 432.898L56.613 432.908L56.6352 432.917L57.4301 431.051ZM62.0689 434.024L60.7057 435.526L60.7186 435.538L60.7318 435.549L62.0689 434.024ZM60.5414 453.278L58.5791 453.014L58.5743 453.045L58.5703 453.076L60.5414 453.278ZM58.4529 442.996L56.7663 444.107L56.7715 444.115L58.4529 442.996ZM53.7762 438.973L52.9075 440.806L52.9216 440.813L52.9358 440.819L53.7762 438.973ZM31.1956 442.243L30.7975 440.283L28.8504 440.74L29.2486 442.7L31.1956 442.243ZM36.0745 466.262L34.1274 466.72L34.5255 468.679L36.4726 468.222L36.0745 466.262ZM51.982 462.528L51.6327 460.557L51.6083 460.562L51.5839 460.568L51.982 462.528ZM57.7344 459.323L59.1457 460.701L59.1601 460.685L59.1743 460.67L57.7344 459.323ZM63.9446 439.315C65.312 441.541 66.2476 443.911 66.7598 446.432L70.6539 445.518C70.0476 442.533 68.9387 439.732 67.3357 437.122L63.9446 439.315ZM66.7598 446.432C67.2719 448.954 67.3403 451.527 66.9605 454.163L70.8933 454.637C71.3385 451.546 71.2602 448.503 70.6539 445.518L66.7598 446.432ZM66.9674 454.119C66.6782 455.857 66.1902 457.53 65.5029 459.144L69.1458 460.652C69.9633 458.733 70.5436 456.742 70.8864 454.681L66.9674 454.119ZM65.5174 459.11C64.8407 460.625 63.9323 462.046 62.7817 463.376L65.7394 465.981C67.1463 464.356 68.2805 462.59 69.1313 460.685L65.5174 459.11ZM62.7903 463.366C61.7007 464.609 60.3587 465.748 58.7443 466.774L60.7912 470.167C62.6984 468.954 64.3516 467.565 65.7308 465.991L62.7903 463.366ZM58.7897 466.746C57.2227 467.687 55.3931 468.415 53.2787 468.912L54.0749 472.832C56.5374 472.254 58.7685 471.381 60.7459 470.195L58.7897 466.746ZM53.2787 468.912L37.3711 472.646L38.1673 476.566L54.0749 472.832L53.2787 468.912ZM35.8222 475.063L39.5027 493.183L43.3968 492.269L39.7163 474.149L35.8222 475.063ZM41.0517 490.766L32.6793 492.732L33.4755 496.651L41.8479 494.686L41.0517 490.766ZM35.0244 494.234L23.0584 435.323L19.1643 436.238L31.1303 495.149L35.0244 494.234ZM21.5095 437.74L45.5382 432.1L44.742 428.18L20.7132 433.82L21.5095 437.74ZM45.5382 432.1C47.6974 431.593 49.6579 431.458 51.436 431.658L51.9812 427.657C49.6899 427.399 47.2714 427.586 44.742 428.18L45.5382 432.1ZM51.5046 431.664C53.3839 431.808 55.0739 432.225 56.5911 432.898L58.2692 429.204C56.3159 428.338 54.1915 427.825 51.9126 427.65L51.5046 431.664ZM56.6352 432.917C58.1495 433.544 59.5035 434.412 60.7057 435.526L63.4321 432.522C61.8971 431.1 60.1586 429.986 58.2251 429.185L56.6352 432.917ZM60.7318 435.549C61.9564 436.643 63.0353 437.908 63.9681 439.352L67.3122 437.085C66.1978 435.36 64.8958 433.829 63.4061 432.499L60.7318 435.549ZM62.5038 453.542C63.1678 449.329 62.3718 445.41 60.1344 441.877L56.7715 444.115C58.494 446.835 59.0903 449.771 58.5791 453.014L62.5038 453.542ZM60.1396 441.885C58.8038 439.753 56.9456 438.162 54.6166 437.126L52.9358 440.819C54.5923 441.556 55.852 442.647 56.7663 444.107L60.1396 441.885ZM54.6449 437.139C52.2194 436.013 49.4444 435.906 46.4539 436.608L47.2501 440.527C49.6179 439.972 51.4591 440.134 52.9075 440.806L54.6449 437.139ZM46.4539 436.608L30.7975 440.283L31.5937 444.203L47.2501 440.527L46.4539 436.608ZM29.2486 442.7L34.1274 466.72L38.0215 465.805L33.1427 441.786L29.2486 442.7ZM36.4726 468.222L52.3801 464.488L51.5839 460.568L35.6764 464.302L36.4726 468.222ZM52.3314 464.499C54.9745 463.948 57.2639 462.674 59.1457 460.701L56.3231 457.946C55.0231 459.31 53.4777 460.173 51.6327 460.557L52.3314 464.499ZM59.1743 460.67C61.0445 458.628 62.1666 456.212 62.5126 453.48L58.5703 453.076C58.3324 454.955 57.5832 456.57 56.2945 457.977L59.1743 460.67ZM119.21 442.596L117.244 442.359L117.241 442.378L117.239 442.397L119.21 442.596ZM116.428 450.49L118.086 451.552L118.094 451.54L118.102 451.527L116.428 450.49ZM110.603 456.36L109.555 454.68L107.483 456.04L109.161 457.784L110.603 456.36ZM126.395 472.785L126.793 474.745L130.299 473.922L127.837 471.361L126.395 472.785ZM116.599 475.084L115.157 476.509L115.917 477.298L116.997 477.044L116.599 475.084ZM101.7 459.598L103.141 458.174L102.382 457.384L101.302 457.638L101.7 459.598ZM88.0527 462.802L87.6546 460.842L85.7075 461.299L86.1056 463.259L88.0527 462.802ZM91.7332 480.922L92.1313 482.882L94.0784 482.425L93.6803 480.465L91.7332 480.922ZM83.3608 482.887L81.4137 483.344L81.8118 485.304L83.7589 484.847L83.3608 482.887ZM71.3948 423.976L70.9967 422.016L69.0496 422.473L69.4477 424.433L71.3948 423.976ZM101.992 417.853L101.719 419.853L101.754 419.857L101.788 419.86L101.992 417.853ZM107.714 419.247L106.875 421.094L106.896 421.104L106.919 421.113L107.714 419.247ZM112.352 422.22L110.989 423.722L111.002 423.734L111.015 423.745L112.352 422.22ZM115.924 426.414L117.619 425.318L117.608 425.299L117.596 425.281L115.924 426.414ZM86.3579 454.458L84.4108 454.915L84.8089 456.875L86.756 456.418L86.3579 454.458ZM102.265 450.724L101.916 448.753L101.892 448.758L101.867 448.764L102.265 450.724ZM108.018 447.519L109.429 448.896L109.444 448.881L109.458 448.866L108.018 447.519ZM110.825 441.474L108.863 441.21L108.858 441.241L108.854 441.272L110.825 441.474ZM108.736 431.192L107.05 432.303L107.055 432.311L108.736 431.192ZM104.06 427.169L103.191 429.002L103.205 429.009L103.219 429.015L104.06 427.169ZM81.4791 430.439L81.0809 428.479L79.1339 428.936L79.532 430.896L81.4791 430.439ZM117.239 442.397C116.919 444.956 116.091 447.3 114.754 449.452L118.102 451.527C119.762 448.855 120.789 445.937 121.182 442.795L117.239 442.397ZM114.77 449.427C113.421 451.531 111.689 453.279 109.555 454.68L111.651 458.04C114.264 456.326 116.415 454.16 118.086 451.552L114.77 449.427ZM109.161 457.784L124.953 474.209L127.837 471.361L112.045 454.936L109.161 457.784ZM125.997 470.825L116.201 473.124L116.997 477.044L126.793 474.745L125.997 470.825ZM118.041 473.66L103.141 458.174L100.258 461.023L115.157 476.509L118.041 473.66ZM101.302 457.638L87.6546 460.842L88.4508 464.762L102.098 461.558L101.302 457.638ZM86.1056 463.259L89.7861 481.379L93.6803 480.465L89.9997 462.345L86.1056 463.259ZM91.3351 478.962L82.9627 480.927L83.7589 484.847L92.1313 482.882L91.3351 478.962ZM85.3079 482.43L73.3418 423.519L69.4477 424.433L81.4137 483.344L85.3079 482.43ZM71.7929 425.936L95.8217 420.295L95.0254 416.375L70.9967 422.016L71.7929 425.936ZM95.8217 420.295C97.9809 419.788 99.9413 419.653 101.719 419.853L102.265 415.853C99.9733 415.595 97.5548 415.782 95.0254 416.375L95.8217 420.295ZM101.788 419.86C103.667 420.004 105.357 420.421 106.875 421.094L108.553 417.4C106.599 416.533 104.475 416.021 102.196 415.846L101.788 419.86ZM106.919 421.113C108.433 421.74 109.787 422.608 110.989 423.722L113.716 420.718C112.18 419.296 110.442 418.182 108.509 417.381L106.919 421.113ZM111.015 423.745C112.24 424.839 113.319 426.104 114.251 427.548L117.596 425.281C116.481 423.555 115.179 422.025 113.689 420.694L111.015 423.745ZM114.228 427.511C115.595 429.737 116.531 432.107 117.043 434.628L120.937 433.714C120.331 430.729 119.222 427.928 117.619 425.318L114.228 427.511ZM117.043 434.628C117.555 437.149 117.624 439.723 117.244 442.359L121.177 442.833C121.622 439.742 121.544 436.699 120.937 433.714L117.043 434.628ZM86.756 456.418L102.664 452.684L101.867 448.764L85.9598 452.498L86.756 456.418ZM102.615 452.695C105.258 452.143 107.547 450.87 109.429 448.896L106.607 446.142C105.307 447.505 103.761 448.368 101.916 448.753L102.615 452.695ZM109.458 448.866C111.328 446.824 112.45 444.408 112.796 441.676L108.854 441.272C108.616 443.151 107.867 444.765 106.578 446.173L109.458 448.866ZM112.787 441.738C113.451 437.524 112.655 433.605 110.418 430.073L107.055 432.311C108.777 435.031 109.374 437.966 108.863 441.21L112.787 441.738ZM110.423 430.081C109.087 427.949 107.229 426.358 104.9 425.322L103.219 429.015C104.876 429.752 106.135 430.843 107.05 432.303L110.423 430.081ZM104.928 425.335C102.503 424.209 99.7278 424.101 96.7373 424.803L97.5335 428.723C99.9014 428.167 101.743 428.33 103.191 429.002L104.928 425.335ZM96.7373 424.803L81.0809 428.479L81.8772 432.399L97.5335 428.723L96.7373 424.803ZM79.532 430.896L84.4108 454.915L88.305 454.001L83.4261 429.982L79.532 430.896ZM149.169 465.143L148.768 467.124L148.786 467.128L148.805 467.131L149.169 465.143ZM138.54 460.751L139.685 459.075L139.669 459.063L139.652 459.052L138.54 460.751ZM130.292 452.533L131.961 451.394L130.292 452.533ZM125.807 430.452L123.849 430.164L125.807 430.452ZM130.118 419.285L131.787 420.331L131.792 420.322L131.798 420.313L130.118 419.285ZM138.093 410.614L136.969 408.986L136.96 408.993L138.093 410.614ZM211.938 393.279L211.536 395.261L211.547 395.263L211.938 393.279ZM222.633 397.567L221.504 399.254L221.512 399.26L221.521 399.266L222.633 397.567ZM230.881 405.785L232.549 404.646L230.881 405.785ZM231.055 439.032L229.386 437.987L229.375 438.004L229.364 438.022L231.055 439.032ZM223.013 447.808L224.124 449.445L224.131 449.44L224.137 449.436L223.013 447.808ZM218.124 441.009L217 439.381L216.993 439.386L216.986 439.39L218.124 441.009ZM223.897 434.885L225.555 435.948L225.57 435.925L225.584 435.901L223.897 434.885ZM226.98 426.744L228.939 427.033L228.94 427.026L228.941 427.018L226.98 426.744ZM223.694 410.563L222.018 411.691L222.018 411.691L223.694 410.563ZM217.734 404.545L218.852 402.85L218.841 402.843L218.83 402.836L217.734 404.545ZM210.112 401.566L209.706 403.547L209.714 403.548L209.722 403.549L210.112 401.566ZM142.966 417.329L141.841 415.701L141.835 415.706L141.828 415.711L142.966 417.329ZM137.276 423.433L135.617 422.37L135.61 422.382L135.603 422.394L137.276 423.433ZM134.193 431.574L136.153 431.848L136.153 431.848L134.193 431.574ZM137.479 447.755L135.804 448.883L135.807 448.889L135.811 448.895L137.479 447.755ZM143.438 453.773L142.299 455.453L142.321 455.468L142.343 455.482L143.438 453.773ZM150.977 456.772L150.571 458.752L150.579 458.754L150.587 458.755L150.977 456.772ZM160.435 462.74C156.775 463.599 153.146 463.736 149.533 463.155L148.805 467.131C152.929 467.794 157.076 467.636 161.231 466.66L160.435 462.74ZM149.57 463.161C146.019 462.519 142.728 461.161 139.685 459.075L137.395 462.427C140.875 464.813 144.67 466.383 148.768 467.124L149.57 463.161ZM139.652 459.052C136.492 456.982 133.936 454.43 131.961 451.394L128.623 453.672C130.901 457.172 133.843 460.099 137.429 462.449L139.652 459.052ZM131.961 451.394C129.966 448.327 128.617 445.041 127.904 441.526L124.01 442.441C124.825 446.455 126.367 450.202 128.623 453.672L131.961 451.394ZM127.904 441.526C127.19 438.012 127.142 434.421 127.766 430.739L123.849 430.164C123.143 434.329 123.194 438.426 124.01 442.441L127.904 441.526ZM127.766 430.739C128.383 427.095 129.718 423.629 131.787 420.331L128.449 418.24C126.1 421.983 124.561 425.962 123.849 430.164L127.766 430.739ZM131.798 420.313C133.766 417.104 136.239 414.417 139.226 412.236L136.96 408.993C133.53 411.497 130.687 414.59 128.437 418.258L131.798 420.313ZM139.217 412.242C142.26 410.046 145.599 408.522 149.248 407.665L148.452 403.745C144.287 404.723 140.454 406.471 136.969 408.986L139.217 412.242ZM149.248 407.665L200.738 395.577L199.942 391.658L148.452 403.745L149.248 407.665ZM200.738 395.577C204.387 394.721 207.981 394.618 211.536 395.261L212.339 391.297C208.245 390.557 204.107 390.68 199.942 391.658L200.738 395.577ZM211.547 395.263C215.163 395.895 218.477 397.223 221.504 399.254L223.762 395.88C220.289 393.55 216.472 392.02 212.328 391.295L211.547 395.263ZM221.521 399.266C224.681 401.336 227.237 403.888 229.212 406.924L232.549 404.646C230.272 401.145 227.33 398.219 223.744 395.869L221.521 399.266ZM229.212 406.924C231.207 409.991 232.555 413.277 233.269 416.791L237.163 415.877C236.348 411.863 234.806 408.116 232.549 404.646L229.212 406.924ZM233.269 416.791C233.983 420.306 234.031 423.897 233.407 427.579L237.324 428.154C238.03 423.989 237.979 419.892 237.163 415.877L233.269 416.791ZM233.407 427.579C232.79 431.223 231.455 434.689 229.386 437.987L232.724 440.078C235.073 436.335 236.612 432.356 237.324 428.154L233.407 427.579ZM229.364 438.022C227.412 441.276 224.923 443.99 221.89 446.179L224.137 449.436C227.631 446.914 230.504 443.778 232.746 440.043L229.364 438.022ZM221.903 446.17C218.904 448.299 215.584 449.794 211.925 450.653L212.721 454.573C216.876 453.597 220.683 451.889 224.124 449.445L221.903 446.17ZM211.925 450.653L160.435 462.74L161.231 466.66L212.721 454.573L211.925 450.653ZM211.061 446.398C214.055 445.695 216.795 444.438 219.261 442.627L216.986 439.39C214.975 440.868 212.74 441.897 210.265 442.478L211.061 446.398ZM219.248 442.636C221.757 440.824 223.862 438.59 225.555 435.948L222.239 433.822C220.824 436.03 219.08 437.878 217 439.381L219.248 442.636ZM225.584 435.901C227.287 433.084 228.413 430.125 228.939 427.033L225.022 426.456C224.589 429.004 223.658 431.473 222.21 433.869L225.584 435.901ZM228.941 427.018C229.448 423.905 229.4 420.842 228.791 417.843L224.897 418.757C225.406 421.264 225.449 423.831 225.02 426.47L228.941 427.018ZM228.791 417.843C228.182 414.843 227.037 412.038 225.369 409.435L222.018 411.691C223.432 413.897 224.388 416.25 224.897 418.757L228.791 417.843ZM225.369 409.435C223.68 406.798 221.501 404.601 218.852 402.85L216.617 406.239C218.831 407.703 220.625 409.518 222.018 411.691L225.369 409.435ZM218.83 402.836C216.266 401.192 213.486 400.105 210.503 399.583L209.722 403.549C212.195 403.983 214.497 404.881 216.639 406.254L218.83 402.836ZM210.519 399.585C207.575 399.045 204.597 399.13 201.602 399.833L202.399 403.753C204.874 403.171 207.304 403.105 209.706 403.547L210.519 399.585ZM201.602 399.833L150.112 411.92L150.908 415.84L202.399 403.753L201.602 399.833ZM150.112 411.92C147.118 412.623 144.356 413.885 141.841 415.701L144.09 418.957C146.165 417.458 148.433 416.421 150.908 415.84L150.112 411.92ZM141.828 415.711C139.376 417.511 137.305 419.736 135.617 422.37L138.934 424.495C140.354 422.279 142.076 420.435 144.103 418.947L141.828 415.711ZM135.603 422.394C133.874 425.172 132.745 428.145 132.232 431.299L136.153 431.848C136.576 429.249 137.504 426.795 138.949 424.472L135.603 422.394ZM132.232 431.299C131.725 434.413 131.773 437.476 132.382 440.475L136.276 439.561C135.767 437.054 135.724 434.487 136.153 431.848L132.232 431.299ZM132.382 440.475C132.991 443.474 134.135 446.28 135.804 448.883L139.155 446.627C137.741 444.421 136.785 442.068 136.276 439.561L132.382 440.475ZM135.811 448.895C137.488 451.47 139.659 453.655 142.299 455.453L144.578 452.093C142.332 450.564 140.53 448.738 139.148 446.615L135.811 448.895ZM142.343 455.482C144.899 457.12 147.644 458.214 150.571 458.752L151.384 454.791C148.965 454.347 146.684 453.442 144.534 452.064L142.343 455.482ZM150.587 458.755C153.576 459.279 156.576 459.188 159.571 458.485L158.774 454.565C156.299 455.146 153.835 455.22 151.368 454.788L150.587 458.755ZM159.571 458.485L211.061 446.398L210.265 442.478L158.774 454.565L159.571 458.485ZM287.285 391.838L289.002 390.777L288.994 390.763L288.986 390.75L287.285 391.838ZM292.061 415.352L294.027 415.592L294.03 415.569L294.033 415.547L292.061 415.352ZM289.882 423.192L288.054 422.452L288.05 422.462L289.882 423.192ZM285.754 430.077L287.264 431.343L287.269 431.337L285.754 430.077ZM279.558 435.416L280.563 437.124L279.558 435.416ZM248.603 444.096L246.656 444.553L247.054 446.513L249.001 446.056L248.603 444.096ZM236.62 385.101L236.222 383.141L234.275 383.598L234.673 385.558L236.62 385.101ZM268.123 379.118L267.872 381.121L267.872 381.121L268.123 379.118ZM275.842 381.279L274.931 383.092L274.958 383.106L274.985 383.118L275.842 381.279ZM282.264 385.688L280.865 387.155L280.886 387.176L280.907 387.196L282.264 385.688ZM283.609 414.334L285.574 414.579L285.576 414.567L285.577 414.555L283.609 414.334ZM279.98 396.466L281.689 395.393L281.68 395.378L281.671 395.363L279.98 396.466ZM276.593 392.317L275.194 393.784L275.206 393.796L275.219 393.808L276.593 392.317ZM272.206 389.285L271.3 391.101L271.322 391.112L271.344 391.122L272.206 389.285ZM266.903 387.793L266.571 389.786L266.608 389.791L266.646 389.795L266.903 387.793ZM246.687 391.479L246.289 389.519L244.342 389.976L244.74 391.936L246.687 391.479ZM255.281 433.787L253.334 434.244L253.732 436.204L255.679 435.747L255.281 433.787ZM275.186 428.143L276.196 429.848L276.219 429.833L276.243 429.817L275.186 428.143ZM279.344 424.429L280.865 425.682L280.871 425.674L279.344 424.429ZM282.157 419.707L283.984 420.447L283.991 420.431L283.998 420.414L282.157 419.707ZM285.568 392.899C287.518 396.231 288.882 399.809 289.66 403.642L293.554 402.728C292.689 398.469 291.171 394.483 289.002 390.777L285.568 392.899ZM289.66 403.642C290.427 407.415 290.57 411.25 290.089 415.157L294.033 415.547C294.567 411.209 294.408 406.933 293.554 402.728L289.66 403.642ZM290.095 415.111C289.73 417.62 289.05 420.065 288.054 422.452L291.709 423.932C292.837 421.228 293.611 418.447 294.027 415.592L290.095 415.111ZM288.05 422.462C287.113 424.742 285.845 426.859 284.24 428.816L287.269 431.337C289.131 429.066 290.616 426.593 291.713 423.921L288.05 422.462ZM284.244 428.81C282.711 430.666 280.821 432.301 278.554 433.708L280.563 437.124C283.177 435.502 285.418 433.577 287.264 431.343L284.244 428.81ZM278.554 433.708C276.327 435.091 273.726 436.145 270.727 436.849L271.523 440.769C274.887 439.979 277.908 438.772 280.563 437.124L278.554 433.708ZM270.727 436.849L248.205 442.136L249.001 446.056L271.523 440.769L270.727 436.849ZM250.55 443.639L238.567 384.644L234.673 385.558L246.656 444.553L250.55 443.639ZM237.018 387.061L259.54 381.774L258.744 377.854L236.222 383.141L237.018 387.061ZM259.54 381.774C262.539 381.07 265.312 380.862 267.872 381.121L268.373 377.115C265.322 376.807 262.107 377.064 258.744 377.854L259.54 381.774ZM267.872 381.121C270.465 381.382 272.812 382.044 274.931 383.092L276.754 379.466C274.192 378.199 271.393 377.42 268.373 377.115L267.872 381.121ZM274.985 383.118C277.167 384.114 279.125 385.457 280.865 387.155L283.663 384.22C281.61 382.217 279.287 380.621 276.7 379.44L274.985 383.118ZM280.907 387.196C282.711 388.851 284.269 390.759 285.584 392.925L288.986 390.75C287.487 388.279 285.698 386.087 283.621 384.18L280.907 387.196ZM285.577 414.555C286.031 411.227 285.927 407.93 285.266 404.673L281.371 405.588C281.942 408.399 282.032 411.237 281.64 414.112L285.577 414.555ZM285.266 404.673C284.594 401.365 283.4 398.269 281.689 395.393L278.27 397.539C279.755 400.036 280.788 402.716 281.371 405.588L285.266 404.673ZM281.671 395.363C280.627 393.68 279.392 392.166 277.967 390.825L275.219 393.808C276.397 394.917 277.42 396.17 278.289 397.57L281.671 395.363ZM277.992 390.849C276.528 389.42 274.885 388.282 273.067 387.448L271.344 391.122C272.751 391.768 274.033 392.651 275.194 393.784L277.992 390.849ZM273.111 387.469C271.273 386.568 269.284 386.012 267.159 385.791L266.646 389.795C268.344 389.971 269.891 390.41 271.3 391.101L273.111 387.469ZM267.234 385.8C265.087 385.492 262.815 385.639 260.438 386.197L261.235 390.117C263.212 389.653 264.984 389.558 266.571 389.786L267.234 385.8ZM260.438 386.197L246.289 389.519L247.085 393.439L261.235 390.117L260.438 386.197ZM244.74 391.936L253.334 434.244L257.228 433.33L248.634 391.022L244.74 391.936ZM255.679 435.747L269.828 432.425L269.032 428.505L254.883 431.827L255.679 435.747ZM269.828 432.425C272.188 431.871 274.319 431.02 276.196 429.848L274.177 426.438C272.732 427.34 271.026 428.037 269.032 428.505L269.828 432.425ZM276.243 429.817C278.046 428.621 279.595 427.246 280.865 425.682L277.823 423.176C276.848 424.377 275.624 425.477 274.13 426.468L276.243 429.817ZM280.871 425.674C282.16 424.072 283.2 422.328 283.984 420.447L280.329 418.968C279.698 420.48 278.862 421.885 277.817 423.184L280.871 425.674ZM283.998 420.414C284.752 418.515 285.279 416.569 285.574 414.579L281.644 414.088C281.396 415.758 280.954 417.394 280.316 419.001L283.998 420.414ZM338.91 361.088L340.857 360.63L340.459 358.671L338.512 359.128L338.91 361.088ZM346.204 405.202L344.231 405.016L346.204 405.202ZM343.311 414.711L345.049 415.639L345.054 415.629L345.06 415.618L343.311 414.711ZM337.108 422.171L338.322 423.73L338.328 423.725L338.335 423.72L337.108 422.171ZM317.834 426.608L318.306 424.64L318.303 424.639L317.834 426.608ZM311.774 424.41L310.799 426.19L310.816 426.2L310.833 426.208L311.774 424.41ZM306.275 420.226L304.821 421.638L304.835 421.653L304.849 421.667L306.275 420.226ZM301.941 414.003L300.157 414.94L300.166 414.958L300.176 414.976L301.941 414.003ZM292.36 372.015L291.962 370.056L290.015 370.513L290.413 372.473L292.36 372.015ZM300.732 370.05L302.679 369.593L302.281 367.633L300.334 368.09L300.732 370.05ZM309.853 410.203L308.087 411.175L308.093 411.188L309.853 410.203ZM313.78 415.286L312.445 416.814L312.473 416.838L312.502 416.862L313.78 415.286ZM319.273 418.146L318.69 420.086L318.702 420.089L318.714 420.092L319.273 418.146ZM332.25 415.1L330.988 413.582L330.978 413.59L330.969 413.598L332.25 415.1ZM336.134 410.038L334.347 409.208L334.343 409.218L336.134 410.038ZM337.817 403.639L335.839 403.499L335.837 403.516L335.836 403.533L337.817 403.639ZM330.622 363.033L330.224 361.073L328.276 361.53L328.675 363.49L330.622 363.033ZM336.963 361.545L343.794 395.172L347.688 394.258L340.857 360.63L336.963 361.545ZM343.794 395.172C344.472 398.511 344.614 401.79 344.231 405.016L348.177 405.388C348.614 401.711 348.447 397.998 347.688 394.258L343.794 395.172ZM344.231 405.016C343.849 408.234 342.955 411.156 341.563 413.803L345.06 415.618C346.705 412.49 347.74 409.073 348.177 405.388L344.231 405.016ZM341.574 413.782C340.179 416.364 338.289 418.643 335.881 420.623L338.335 423.72C341.138 421.415 343.384 418.721 345.049 415.639L341.574 413.782ZM335.893 420.613C333.604 422.465 330.799 423.806 327.426 424.598L328.222 428.518C332.104 427.607 335.488 426.023 338.322 423.73L335.893 420.613ZM327.426 424.598C324.429 425.302 321.397 425.32 318.306 424.64L317.362 428.575C321.005 429.376 324.632 429.361 328.222 428.518L327.426 424.598ZM318.303 424.639C316.393 424.223 314.531 423.549 312.714 422.612L310.833 426.208C312.936 427.294 315.114 428.085 317.365 428.576L318.303 424.639ZM312.748 422.629C310.956 421.659 309.273 420.382 307.702 418.786L304.849 421.667C306.666 423.513 308.649 425.026 310.799 426.19L312.748 422.629ZM307.729 418.814C306.229 417.227 304.885 415.305 303.706 413.031L300.176 414.976C301.499 417.53 303.044 419.757 304.821 421.638L307.729 418.814ZM303.725 413.066C302.616 410.815 301.748 408.194 301.137 405.186L297.243 406.1C297.91 409.385 298.876 412.337 300.157 414.94L303.725 413.066ZM301.137 405.186L294.307 371.558L290.413 372.473L297.243 406.1L301.137 405.186ZM292.758 373.975L301.13 372.01L300.334 368.09L291.962 370.056L292.758 373.975ZM298.785 370.507L305.616 404.134L309.51 403.22L302.679 369.593L298.785 370.507ZM305.616 404.134C306.12 406.616 306.943 408.965 308.087 411.175L311.619 409.232C310.645 407.348 309.941 405.346 309.51 403.22L305.616 404.134ZM308.093 411.188C309.243 413.371 310.692 415.253 312.445 416.814L315.115 413.758C313.728 412.524 312.559 411.018 311.613 409.219L308.093 411.188ZM312.502 416.862C314.324 418.36 316.392 419.436 318.69 420.086L319.856 416.207C318.059 415.699 316.466 414.867 315.058 413.71L312.502 416.862ZM318.714 420.092C321.17 420.753 323.782 420.731 326.51 420.09L325.714 416.17C323.529 416.683 321.582 416.671 319.832 416.2L318.714 420.092ZM326.51 420.09C329.236 419.45 331.601 418.305 333.532 416.602L330.969 413.598C329.626 414.782 327.9 415.657 325.714 416.17L326.51 420.09ZM333.513 416.618C335.416 414.98 336.897 413.059 337.926 410.859L334.343 409.218C333.578 410.853 332.469 412.306 330.988 413.582L333.513 416.618ZM337.922 410.868C338.976 408.642 339.599 406.262 339.798 403.745L335.836 403.533C335.674 405.574 335.175 407.46 334.347 409.208L337.922 410.868ZM339.795 403.778C340.039 401.229 339.907 398.702 339.399 396.204L335.505 397.118C335.933 399.227 336.044 401.352 335.839 403.499L339.795 403.778ZM339.399 396.204L332.569 362.576L328.675 363.49L335.505 397.118L339.399 396.204ZM331.02 364.993L339.308 363.048L338.512 359.128L330.224 361.073L331.02 364.993ZM404.009 382.626L403.611 380.666L402.099 381.021L402.024 382.583L404.009 382.626ZM412.549 380.621L414.536 380.535L414.499 378.11L412.15 378.661L412.549 380.621ZM410.603 392.203L412.456 392.878L412.459 392.871L412.462 392.863L410.603 392.203ZM404.795 402.043L406.282 403.337L406.286 403.332L404.795 402.043ZM395.992 409.231L395.064 407.478L395.056 407.482L395.992 409.231ZM385.079 412.941L385.282 414.936L385.295 414.935L385.307 414.933L385.079 412.941ZM373.562 412.377L373.022 414.328L373.035 414.332L373.047 414.335L373.562 412.377ZM363.502 407.763L362.32 409.413L362.328 409.419L362.336 409.425L363.502 407.763ZM355.825 399.765L354.162 400.912L354.168 400.921L355.825 399.765ZM351.289 377.431L353.243 377.74L353.245 377.729L351.289 377.431ZM355.165 366.719L353.461 365.732L355.165 366.719ZM362.52 358.017L361.273 356.486L361.273 356.486L362.52 358.017ZM372.754 352.26L372.189 350.347L372.176 350.351L372.164 350.355L372.754 352.26ZM384.112 350.741L383.939 352.75L383.948 352.751L384.112 350.741ZM394.918 353.414L394.046 355.246L394.065 355.255L394.084 355.264L394.918 353.414ZM404.012 359.756L402.579 361.189L402.584 361.194L402.59 361.2L404.012 359.756ZM410.255 369.327L410.653 371.287L413.001 370.736L412.094 368.515L410.255 369.327ZM401.715 371.332L399.932 372.271L400.61 373.645L402.113 373.292L401.715 371.332ZM397.466 365.531L396.04 366.971L396.062 366.994L396.086 367.016L397.466 365.531ZM391.734 361.49L390.815 363.3L390.845 363.315L390.875 363.329L391.734 361.49ZM385.004 359.45L385.314 357.454L385.004 359.45ZM377.697 359.752L378.05 361.723L378.051 361.722L377.697 359.752ZM370.869 362.415L369.901 360.685L369.895 360.688L369.889 360.692L370.869 362.415ZM365.307 366.988L363.859 365.65L365.307 366.988ZM361.36 373.035L363.165 373.828L363.165 373.828L361.36 373.035ZM359.396 380.207L357.423 380.021L357.421 380.043L357.419 380.064L359.396 380.207ZM359.847 387.607L357.909 388.109L357.91 388.11L359.847 387.607ZM362.489 394.138L360.791 395.231L362.489 394.138ZM367.088 399.505L368.393 397.951L367.088 399.505ZM373.272 403.174L374.058 401.305L374.039 401.297L374.02 401.29L373.272 403.174ZM379.714 404.664L379.541 406.673L379.566 406.674L379.591 406.675L379.714 404.664ZM393.042 401.182L394.048 402.889L394.066 402.878L394.084 402.866L393.042 401.182ZM398.636 396.337L400.11 397.645L400.123 397.631L400.135 397.616L398.636 396.337ZM402.431 389.972L404.272 390.678L404.272 390.678L402.431 389.972ZM404.407 384.586L412.947 382.581L412.15 378.661L403.611 380.666L404.407 384.586ZM410.561 380.707C410.62 384.512 410.011 388.118 408.744 391.543L412.462 392.863C413.913 388.939 414.601 384.825 414.536 380.535L410.561 380.707ZM408.75 391.528C407.464 394.923 405.651 397.995 403.304 400.754L406.286 403.332C408.943 400.207 411.001 396.72 412.456 392.878L408.75 391.528ZM403.308 400.749C401.016 403.429 398.273 405.672 395.064 407.478L396.921 410.984C400.534 408.951 403.66 406.402 406.282 403.337L403.308 400.749ZM395.056 407.482C391.929 409.259 388.533 410.416 384.852 410.948L385.307 414.933C389.465 414.331 393.344 413.015 396.928 410.98L395.056 407.482ZM384.877 410.945C381.119 411.439 377.523 411.26 374.077 410.42L373.047 414.335C376.983 415.294 381.066 415.49 385.282 414.936L384.877 410.945ZM374.102 410.426C370.616 409.526 367.476 408.084 364.669 406.102L362.336 409.425C365.536 411.684 369.103 413.317 373.022 414.328L374.102 410.426ZM364.685 406.114C361.859 404.073 359.459 401.575 357.482 398.608L354.168 400.921C356.397 404.266 359.116 407.1 362.32 409.413L364.685 406.114ZM357.488 398.617C355.516 395.62 354.153 392.283 353.402 388.59L349.508 389.504C350.356 393.676 351.906 397.485 354.162 400.912L357.488 398.617ZM353.402 388.59C352.652 384.896 352.604 381.284 353.243 377.74L349.334 377.122C348.598 381.199 348.661 385.332 349.508 389.504L353.402 388.59ZM353.245 377.729C353.881 374.094 355.091 370.758 356.87 367.707L353.461 365.732C351.424 369.228 350.049 373.033 349.332 377.133L353.245 377.729ZM356.87 367.707C358.653 364.647 360.948 361.929 363.768 359.549L361.273 356.486C358.103 359.162 355.494 362.245 353.461 365.732L356.87 367.707ZM363.768 359.549C366.56 357.192 369.746 355.396 373.344 354.164L372.164 350.355C368.108 351.744 364.471 353.786 361.273 356.486L363.768 359.549ZM373.319 354.173C376.872 353.007 380.408 352.537 383.939 352.75L384.284 348.732C380.238 348.488 376.201 349.03 372.189 350.347L373.319 354.173ZM383.948 352.751C387.555 352.953 390.916 353.787 394.046 355.246L395.789 351.582C392.201 349.909 388.359 348.961 384.276 348.732L383.948 352.751ZM394.084 355.264C397.257 356.659 400.086 358.63 402.579 361.189L405.446 358.323C402.619 355.42 399.385 353.163 395.751 351.565L394.084 355.264ZM402.59 361.2C405.05 363.684 406.993 366.657 408.415 370.14L412.094 368.515C410.49 364.585 408.272 361.176 405.435 358.311L402.59 361.2ZM409.857 367.367L401.317 369.372L402.113 373.292L410.653 371.287L409.857 367.367ZM403.498 370.393C402.305 367.977 400.755 365.857 398.847 364.045L396.086 367.016C397.656 368.508 398.938 370.256 399.932 372.271L403.498 370.393ZM398.893 364.09C397.04 362.208 394.938 360.724 392.592 359.652L390.875 363.329C392.784 364.201 394.504 365.411 396.04 366.971L398.893 364.09ZM392.652 359.681C390.372 358.541 387.923 357.8 385.314 357.454L384.693 361.446C386.892 361.737 388.929 362.357 390.815 363.3L392.652 359.681ZM385.314 357.454C382.684 357.106 380.023 357.217 377.343 357.783L378.051 361.722C380.305 361.247 382.516 361.157 384.693 361.446L385.314 357.454ZM377.344 357.782C374.717 358.335 372.233 359.304 369.901 360.685L371.837 364.145C373.786 362.991 375.854 362.184 378.05 361.723L377.344 357.782ZM369.889 360.692C367.633 362.05 365.621 363.703 363.859 365.65L366.755 368.325C368.241 366.684 369.937 365.289 371.85 364.138L369.889 360.692ZM363.859 365.65C362.087 367.608 360.652 369.808 359.556 372.243L363.165 373.828C364.084 371.787 365.28 369.955 366.755 368.325L363.859 365.65ZM359.556 372.243C358.458 374.683 357.749 377.279 357.423 380.021L361.369 380.393C361.648 378.049 362.249 375.864 363.165 373.828L359.556 372.243ZM357.419 380.064C357.152 382.806 357.314 385.491 357.909 388.109L361.784 387.104C361.286 384.916 361.148 382.668 361.374 380.35L357.419 380.064ZM357.91 388.11C358.492 390.663 359.452 393.039 360.791 395.231L364.187 393.046C363.073 391.222 362.272 389.244 361.784 387.103L357.91 388.11ZM360.791 395.231C362.127 397.418 363.795 399.361 365.783 401.058L368.393 397.951C366.703 396.509 365.304 394.874 364.187 393.046L360.791 395.231ZM365.783 401.058C367.789 402.771 370.039 404.105 372.523 405.059L374.02 401.29C371.938 400.49 370.065 399.378 368.393 397.951L365.783 401.058ZM372.485 405.044C374.776 405.98 377.13 406.526 379.541 406.673L379.888 402.655C377.917 402.535 375.976 402.089 374.058 401.305L372.485 405.044ZM379.591 406.675C381.943 406.758 384.269 406.531 386.563 405.993L385.767 402.073C383.819 402.53 381.844 402.723 379.838 402.653L379.591 406.675ZM386.563 405.993C389.229 405.367 391.728 404.332 394.048 402.889L392.036 399.475C390.098 400.68 388.012 401.546 385.767 402.073L386.563 405.993ZM394.084 402.866C396.356 401.385 398.368 399.645 400.11 397.645L397.162 395.029C395.68 396.729 393.962 398.219 391.999 399.498L394.084 402.866ZM400.135 397.616C401.882 395.537 403.261 393.221 404.272 390.678L400.59 389.265C399.743 391.396 398.593 393.324 397.137 395.058L400.135 397.616ZM404.272 390.678C405.287 388.123 405.86 385.45 405.994 382.669L402.024 382.583C401.911 384.922 401.432 387.146 400.59 389.265L404.272 390.678ZM445.623 336.125L447.57 335.668L447.171 333.708L445.224 334.165L445.623 336.125ZM447.334 344.553L447.733 346.513L449.68 346.056L449.281 344.096L447.334 344.553ZM431.678 348.228L431.28 346.268L429.333 346.725L429.731 348.685L431.678 348.228ZM441.932 398.711L442.33 400.671L444.277 400.214L443.879 398.254L441.932 398.711ZM433.56 400.677L431.613 401.134L432.011 403.094L433.958 402.637L433.56 400.677ZM423.306 350.194L425.253 349.736L424.855 347.776L422.908 348.234L423.306 350.194ZM407.649 353.869L405.702 354.326L406.1 356.286L408.047 355.829L407.649 353.869ZM405.937 345.441L405.539 343.481L403.592 343.938L403.99 345.898L405.937 345.441ZM443.675 336.582L445.387 345.01L449.281 344.096L447.57 335.668L443.675 336.582ZM446.936 342.593L431.28 346.268L432.076 350.188L447.733 346.513L446.936 342.593ZM429.731 348.685L439.985 399.168L443.879 398.254L433.625 347.771L429.731 348.685ZM441.534 396.751L433.162 398.717L433.958 402.637L442.33 400.671L441.534 396.751ZM435.507 400.22L425.253 349.736L421.359 350.651L431.613 401.134L435.507 400.22ZM422.908 348.234L407.251 351.909L408.047 355.829L423.704 352.153L422.908 348.234ZM409.596 353.412L407.884 344.984L403.99 345.898L405.702 354.326L409.596 353.412ZM406.335 347.401L446.021 338.085L445.224 334.165L405.539 343.481L406.335 347.401ZM488.62 334.684L488.222 332.724L486.275 333.181L486.673 335.141L488.62 334.684ZM492.54 353.984L490.593 354.441L490.991 356.401L492.938 355.944L492.54 353.984ZM513.639 349.031L515.586 348.574L515.187 346.614L513.24 347.071L513.639 349.031ZM515.35 357.459L515.749 359.419L517.696 358.962L517.297 357.002L515.35 357.459ZM494.252 362.412L493.854 360.452L491.907 360.909L492.305 362.869L494.252 362.412ZM498.908 385.336L499.306 387.296L501.253 386.839L500.855 384.879L498.908 385.336ZM490.536 387.301L488.589 387.758L488.987 389.718L490.934 389.261L490.536 387.301ZM478.553 328.306L478.155 326.346L476.208 326.803L476.606 328.763L478.553 328.306ZM514.47 319.874L516.417 319.417L516.019 317.457L514.072 317.914L514.47 319.874ZM516.165 328.218L516.563 330.178L518.51 329.721L518.112 327.761L516.165 328.218ZM486.673 335.141L490.593 354.441L494.487 353.527L490.567 334.227L486.673 335.141ZM492.938 355.944L514.037 350.991L513.24 347.071L492.142 352.024L492.938 355.944ZM511.691 349.488L513.403 357.916L517.297 357.002L515.586 348.574L511.691 349.488ZM514.952 355.499L493.854 360.452L494.65 364.372L515.749 359.419L514.952 355.499ZM492.305 362.869L496.961 385.793L500.855 384.879L496.199 361.955L492.305 362.869ZM498.51 383.376L490.138 385.341L490.934 389.261L499.306 387.296L498.51 383.376ZM492.483 386.844L480.5 327.849L476.606 328.763L488.589 387.758L492.483 386.844ZM478.951 330.266L514.868 321.834L514.072 317.914L478.155 326.346L478.951 330.266ZM512.523 320.331L514.218 328.675L518.112 327.761L516.417 319.417L512.523 320.331ZM515.767 326.258L488.222 332.724L489.018 336.644L516.563 330.178L515.767 326.258ZM530.564 324.838L530.166 322.878L528.218 323.335L528.617 325.295L530.564 324.838ZM533.833 340.935L531.886 341.392L532.284 343.352L534.231 342.895L533.833 340.935ZM606.589 323.855L608.537 323.398L608.138 321.438L606.191 321.895L606.589 323.855ZM608.301 332.283L608.699 334.243L610.646 333.786L610.248 331.826L608.301 332.283ZM535.545 349.363L535.147 347.403L533.2 347.86L533.598 349.82L535.545 349.363ZM539.14 367.061L537.193 367.519L537.591 369.479L539.538 369.021L539.14 367.061ZM619.264 348.252L621.211 347.795L620.813 345.835L618.866 346.292L619.264 348.252ZM620.976 356.68L621.374 358.64L623.321 358.183L622.923 356.223L620.976 356.68ZM532.48 377.455L530.533 377.912L530.931 379.872L532.878 379.415L532.48 377.455ZM520.496 318.46L520.098 316.5L518.151 316.957L518.549 318.917L520.496 318.46ZM524.683 317.477L525.081 319.437L527.028 318.98L526.63 317.02L524.683 317.477ZM524.666 317.392L524.267 315.433L522.32 315.89L522.718 317.85L524.666 317.392ZM609.562 297.463L611.509 297.006L611.111 295.046L609.164 295.503L609.562 297.463ZM611.274 305.891L611.672 307.851L613.619 307.394L613.221 305.434L611.274 305.891ZM528.617 325.295L531.886 341.392L535.78 340.478L532.511 324.381L528.617 325.295ZM534.231 342.895L606.988 325.815L606.191 321.895L533.435 338.975L534.231 342.895ZM604.642 324.312L606.354 332.74L610.248 331.826L608.537 323.398L604.642 324.312ZM607.903 330.323L535.147 347.403L535.943 351.323L608.699 334.243L607.903 330.323ZM533.598 349.82L537.193 367.519L541.087 366.604L537.492 348.906L533.598 349.82ZM539.538 369.021L619.662 350.212L618.866 346.292L538.742 365.101L539.538 369.021ZM617.317 348.709L619.029 357.137L622.923 356.223L621.211 347.795L617.317 348.709ZM620.578 354.72L532.081 375.495L532.878 379.415L621.374 358.64L620.578 354.72ZM534.427 376.998L522.444 318.002L518.549 318.917L530.533 377.912L534.427 376.998ZM520.895 320.419L525.081 319.437L524.285 315.517L520.098 316.5L520.895 320.419ZM526.63 317.02L526.613 316.935L522.718 317.85L522.736 317.934L526.63 317.02ZM525.064 319.352L609.96 299.423L609.164 295.503L524.267 315.433L525.064 319.352ZM607.615 297.92L609.326 306.348L613.221 305.434L611.509 297.006L607.615 297.92ZM610.875 303.931L530.166 322.878L530.962 326.798L611.672 307.851L610.875 303.931ZM677.277 343.463L677.675 345.423L680.582 344.741L678.926 342.295L677.277 343.463ZM668.318 345.566L666.672 346.738L667.415 347.832L668.717 347.526L668.318 345.566ZM660.189 333.612L661.835 332.44L661.092 331.346L659.791 331.652L660.189 333.612ZM635.49 339.41L635.092 337.45L633.791 337.755L633.539 339.082L635.49 339.41ZM632.736 353.919L633.134 355.879L634.435 355.574L634.687 354.247L632.736 353.919ZM623.777 356.022L621.825 355.699L621.269 358.665L624.175 357.982L623.777 356.022ZM635.907 291.366L635.509 289.407L634.204 289.713L633.955 291.043L635.907 291.366ZM641.181 290.128L642.83 288.96L642.088 287.862L640.783 288.168L641.181 290.128ZM655.044 325.99L655.442 327.95L658.343 327.269L656.695 324.824L655.044 325.99ZM641.736 306.245L643.387 305.079L640.697 301.089L639.784 305.919L641.736 306.245ZM637.211 330.176L635.259 329.85L634.698 332.82L637.609 332.136L637.211 330.176ZM676.879 341.503L667.92 343.606L668.717 347.526L677.675 345.423L676.879 341.503ZM669.965 344.394L661.835 332.44L658.542 334.784L666.672 346.738L669.965 344.394ZM659.791 331.652L635.092 337.45L635.888 341.37L660.587 335.572L659.791 331.652ZM633.539 339.082L630.785 353.592L634.687 354.247L637.441 339.737L633.539 339.082ZM632.338 351.959L623.379 354.062L624.175 357.982L633.134 355.879L632.338 351.959ZM625.729 356.345L637.859 291.69L633.955 291.043L621.825 355.699L625.729 356.345ZM636.305 293.326L641.579 292.088L640.783 288.168L635.509 289.407L636.305 293.326ZM639.532 291.297L675.628 344.631L678.926 342.295L642.83 288.96L639.532 291.297ZM656.695 324.824L643.387 305.079L640.084 307.41L653.393 327.155L656.695 324.824ZM639.784 305.919L635.259 329.85L639.163 330.502L643.687 306.571L639.784 305.919ZM637.609 332.136L655.442 327.95L654.646 324.03L636.813 328.216L637.609 332.136ZM698.021 276.873L699.968 276.416L699.57 274.456L697.623 274.913L698.021 276.873ZM699.733 285.301L700.131 287.261L702.078 286.804L701.68 284.844L699.733 285.301ZM684.076 288.977L683.678 287.017L681.731 287.474L682.129 289.434L684.076 288.977ZM694.33 339.46L694.729 341.42L696.676 340.963L696.278 339.003L694.33 339.46ZM685.958 341.425L684.011 341.882L684.409 343.842L686.356 343.385L685.958 341.425ZM675.704 290.942L677.651 290.485L677.253 288.525L675.306 288.982L675.704 290.942ZM660.048 294.617L658.1 295.074L658.499 297.034L660.446 296.577L660.048 294.617ZM658.336 286.19L657.938 284.23L655.99 284.687L656.389 286.647L658.336 286.19ZM696.074 277.33L697.786 285.758L701.68 284.844L699.968 276.416L696.074 277.33ZM699.335 283.341L683.678 287.017L684.474 290.937L700.131 287.261L699.335 283.341ZM682.129 289.434L692.383 339.917L696.278 339.003L686.023 288.519L682.129 289.434ZM693.932 337.5L685.56 339.465L686.356 343.385L694.729 341.42L693.932 337.5ZM687.905 340.968L677.651 290.485L673.757 291.399L684.011 341.882L687.905 340.968ZM675.306 288.982L659.649 292.657L660.446 296.577L676.102 292.902L675.306 288.982ZM661.995 294.16L660.283 285.732L656.389 286.647L658.1 295.074L661.995 294.16ZM658.734 288.149L698.419 278.833L697.623 274.913L657.938 284.23L658.734 288.149ZM749.027 264.811L750.974 264.354L750.576 262.394L748.629 262.851L749.027 264.811ZM756.321 308.925L754.348 308.739L756.321 308.925ZM753.428 318.434L755.165 319.363L755.171 319.352L755.176 319.342L753.428 318.434ZM747.224 325.895L748.439 327.453L748.445 327.448L748.451 327.443L747.224 325.895ZM727.951 330.331L728.423 328.364L728.419 328.363L727.951 330.331ZM721.89 328.133L720.916 329.914L720.933 329.923L720.95 329.932L721.89 328.133ZM716.392 323.95L714.938 325.362L714.951 325.376L714.965 325.39L716.392 323.95ZM712.058 317.727L710.274 318.664L710.283 318.682L710.292 318.7L712.058 317.727ZM702.476 275.739L702.078 273.779L700.131 274.236L700.529 276.196L702.476 275.739ZM710.849 273.774L712.796 273.316L712.398 271.356L710.451 271.814L710.849 273.774ZM719.97 313.927L718.204 314.899L718.21 314.911L719.97 313.927ZM723.897 319.009L722.562 320.537L722.59 320.562L722.618 320.585L723.897 319.009ZM729.39 321.87L728.807 323.809L728.819 323.813L728.831 323.816L729.39 321.87ZM742.367 318.823L741.104 317.305L741.095 317.313L741.085 317.322L742.367 318.823ZM746.251 313.762L744.463 312.932L744.459 312.941L746.251 313.762ZM747.933 307.362L745.955 307.223L745.954 307.24L745.952 307.256L747.933 307.362ZM740.738 266.757L740.34 264.797L738.393 265.254L738.791 267.214L740.738 266.757ZM747.08 265.268L753.91 298.895L757.804 297.981L750.974 264.354L747.08 265.268ZM753.91 298.895C754.589 302.235 754.731 305.513 754.348 308.739L758.294 309.111C758.731 305.434 758.564 301.721 757.804 297.981L753.91 298.895ZM754.348 308.739C753.965 311.957 753.071 314.88 751.679 317.526L755.176 319.342C756.822 316.213 757.856 312.796 758.294 309.111L754.348 308.739ZM751.69 317.506C750.295 320.087 748.405 322.366 745.997 324.346L748.451 327.443C751.254 325.139 753.5 322.444 755.165 319.363L751.69 317.506ZM746.01 324.336C743.721 326.188 740.916 327.53 737.542 328.322L738.338 332.242C742.22 331.33 745.605 329.747 748.439 327.453L746.01 324.336ZM737.542 328.322C734.546 329.025 731.513 329.043 728.423 328.364L727.478 332.298C731.121 333.099 734.748 333.084 738.338 332.242L737.542 328.322ZM728.419 328.363C726.51 327.947 724.648 327.273 722.831 326.335L720.95 329.932C723.053 331.017 725.231 331.808 727.482 332.299L728.419 328.363ZM722.865 326.353C721.072 325.382 719.39 324.106 717.818 322.509L714.965 325.39C716.783 327.237 718.766 328.749 720.916 329.914L722.865 326.353ZM717.845 322.538C716.345 320.95 715.001 319.029 713.823 316.754L710.292 318.7C711.615 321.254 713.16 323.481 714.938 325.362L717.845 322.538ZM713.841 316.79C712.733 314.538 711.865 311.917 711.254 308.909L707.36 309.823C708.027 313.108 708.993 316.061 710.274 318.664L713.841 316.79ZM711.254 308.909L704.423 275.282L700.529 276.196L707.36 309.823L711.254 308.909ZM702.874 277.699L711.247 275.734L710.451 271.814L702.078 273.779L702.874 277.699ZM708.902 274.231L715.732 307.858L719.626 306.944L712.796 273.316L708.902 274.231ZM715.732 307.858C716.236 310.339 717.06 312.688 718.204 314.899L721.735 312.955C720.761 311.072 720.058 309.07 719.626 306.944L715.732 307.858ZM718.21 314.911C719.359 317.095 720.808 318.976 722.562 320.537L725.231 317.482C723.844 316.248 722.675 314.741 721.729 312.943L718.21 314.911ZM722.618 320.585C724.44 322.084 726.509 323.159 728.807 323.809L729.973 319.93C728.176 319.422 726.582 318.591 725.175 317.433L722.618 320.585ZM728.831 323.816C731.287 324.477 733.899 324.454 736.626 323.814L735.83 319.894C733.646 320.407 731.699 320.395 729.949 319.924L728.831 323.816ZM736.626 323.814C739.352 323.174 741.718 322.029 743.649 320.325L741.085 317.322C739.743 318.506 738.016 319.381 735.83 319.894L736.626 323.814ZM743.63 320.342C745.532 318.704 747.014 316.782 748.043 314.582L744.459 312.941C743.694 314.576 742.586 316.029 741.104 317.305L743.63 320.342ZM748.038 314.591C749.093 312.366 749.715 309.986 749.914 307.468L745.952 307.256C745.791 309.297 745.292 311.184 744.463 312.932L748.038 314.591ZM749.911 307.502C750.155 304.952 750.023 302.425 749.516 299.927L745.622 300.841C746.05 302.95 746.161 305.075 745.955 307.223L749.911 307.502ZM749.516 299.927L742.685 266.3L738.791 267.214L745.622 300.841L749.516 299.927ZM741.136 268.717L749.425 266.771L748.629 262.851L740.34 264.797L741.136 268.717ZM806.008 281.367L804.042 281.131L804.039 281.149L804.037 281.168L806.008 281.367ZM803.226 289.261L804.884 290.324L804.892 290.311L804.9 290.299L803.226 289.261ZM797.401 295.132L796.353 293.452L794.281 294.811L795.959 296.556L797.401 295.132ZM813.193 311.556L813.591 313.516L817.097 312.693L814.635 310.132L813.193 311.556ZM803.397 313.856L801.955 315.28L802.715 316.069L803.795 315.816L803.397 313.856ZM788.498 298.37L789.94 296.945L789.18 296.156L788.1 296.41L788.498 298.37ZM774.851 301.573L774.453 299.613L772.506 300.07L772.904 302.03L774.851 301.573ZM778.531 319.693L778.929 321.653L780.876 321.196L780.478 319.236L778.531 319.693ZM770.159 321.659L768.212 322.116L768.61 324.076L770.557 323.619L770.159 321.659ZM758.193 262.748L757.795 260.788L755.848 261.245L756.246 263.205L758.193 262.748ZM788.79 256.624L788.517 258.625L788.552 258.629L788.586 258.631L788.79 256.624ZM794.512 258.018L793.673 259.865L793.694 259.875L793.717 259.884L794.512 258.018ZM799.15 260.991L797.787 262.493L797.8 262.505L797.813 262.517L799.15 260.991ZM802.722 265.186L804.417 264.089L804.406 264.07L804.394 264.052L802.722 265.186ZM773.156 293.23L771.209 293.687L771.607 295.647L773.554 295.19L773.156 293.23ZM789.063 289.495L788.714 287.524L788.69 287.53L788.665 287.535L789.063 289.495ZM794.816 286.291L796.227 287.668L796.242 287.653L796.256 287.637L794.816 286.291ZM797.623 280.245L795.661 279.982L795.656 280.013L795.652 280.044L797.623 280.245ZM795.534 269.963L793.848 271.074L793.853 271.083L795.534 269.963ZM790.858 265.94L789.989 267.774L790.003 267.78L790.017 267.786L790.858 265.94ZM768.277 269.21L767.879 267.25L765.932 267.707L766.33 269.667L768.277 269.21ZM804.037 281.168C803.717 283.727 802.889 286.071 801.552 288.223L804.9 290.299C806.56 287.627 807.587 284.708 807.98 281.566L804.037 281.168ZM801.568 288.198C800.219 290.302 798.487 292.05 796.353 293.452L798.449 296.812C801.062 295.097 803.213 292.931 804.884 290.324L801.568 288.198ZM795.959 296.556L811.751 312.98L814.635 310.132L798.843 293.707L795.959 296.556ZM812.795 309.596L802.999 311.896L803.795 315.816L813.591 313.516L812.795 309.596ZM804.839 312.431L789.94 296.945L787.056 299.794L801.955 315.28L804.839 312.431ZM788.1 296.41L774.453 299.613L775.249 303.533L788.896 300.329L788.1 296.41ZM772.904 302.03L776.584 320.15L780.478 319.236L776.798 301.116L772.904 302.03ZM778.133 317.733L769.761 319.699L770.557 323.619L778.929 321.653L778.133 317.733ZM772.106 321.202L760.14 262.291L756.246 263.205L768.212 322.116L772.106 321.202ZM758.591 264.708L782.62 259.067L781.823 255.147L757.795 260.788L758.591 264.708ZM782.62 259.067C784.779 258.56 786.739 258.425 788.517 258.625L789.063 254.624C786.771 254.366 784.353 254.553 781.823 255.147L782.62 259.067ZM788.586 258.631C790.465 258.775 792.155 259.192 793.673 259.865L795.351 256.171C793.397 255.305 791.273 254.792 788.994 254.618L788.586 258.631ZM793.717 259.884C795.231 260.511 796.585 261.379 797.787 262.493L800.514 259.489C798.979 258.067 797.24 256.953 795.307 256.153L793.717 259.884ZM797.813 262.517C799.038 263.61 800.117 264.876 801.049 266.32L804.394 264.052C803.279 262.327 801.977 260.796 800.487 259.466L797.813 262.517ZM801.026 266.282C802.393 268.509 803.329 270.878 803.841 273.4L807.735 272.485C807.129 269.5 806.02 266.699 804.417 264.089L801.026 266.282ZM803.841 273.4C804.353 275.921 804.422 278.494 804.042 281.131L807.975 281.604C808.42 278.514 808.342 275.47 807.735 272.485L803.841 273.4ZM773.554 295.19L789.462 291.455L788.665 287.535L772.758 291.27L773.554 295.19ZM789.413 291.466C792.056 290.915 794.345 289.641 796.227 287.668L793.405 284.913C792.105 286.277 790.559 287.14 788.714 287.524L789.413 291.466ZM796.256 287.637C798.126 285.595 799.248 283.179 799.594 280.447L795.652 280.044C795.414 281.922 794.665 283.537 793.376 284.944L796.256 287.637ZM799.585 280.509C800.249 276.296 799.453 272.377 797.216 268.844L793.853 271.083C795.575 273.802 796.172 276.738 795.661 279.982L799.585 280.509ZM797.221 268.853C795.885 266.72 794.027 265.129 791.698 264.094L790.017 267.786C791.674 268.523 792.933 269.615 793.848 271.074L797.221 268.853ZM791.726 264.106C789.301 262.98 786.526 262.873 783.535 263.575L784.332 267.495C786.699 266.939 788.541 267.101 789.989 267.774L791.726 264.106ZM783.535 263.575L767.879 267.25L768.675 271.17L784.332 267.495L783.535 263.575ZM766.33 269.667L771.209 293.687L775.103 292.773L770.224 268.753L766.33 269.667ZM857.741 292.357L859.688 291.9L859.29 289.94L857.343 290.397L857.741 292.357ZM859.453 300.785L859.851 302.745L861.798 302.288L861.4 300.328L859.453 300.785ZM825.629 308.725L823.682 309.182L824.08 311.142L826.027 310.685L825.629 308.725ZM825.612 308.641L827.559 308.184L827.161 306.224L825.213 306.681L825.612 308.641ZM821.425 309.624L819.478 310.081L819.876 312.041L821.823 311.584L821.425 309.624ZM809.442 250.628L809.044 248.668L807.097 249.125L807.495 251.085L809.442 250.628ZM846.364 241.961L848.312 241.504L847.913 239.544L845.966 240.001L846.364 241.961ZM848.076 250.389L848.474 252.349L850.422 251.891L850.023 249.931L848.076 250.389ZM819.526 257.091L819.128 255.131L817.181 255.588L817.579 257.548L819.526 257.091ZM823.002 274.199L821.055 274.656L821.453 276.616L823.4 276.159L823.002 274.199ZM844.267 269.207L846.215 268.75L845.816 266.79L843.869 267.247L844.267 269.207ZM845.979 277.635L846.377 279.595L848.325 279.138L847.926 277.178L845.979 277.635ZM824.713 282.627L824.315 280.667L822.368 281.124L822.766 283.084L824.713 282.627ZM828.103 299.315L826.156 299.772L826.554 301.732L828.501 301.275L828.103 299.315ZM855.794 292.814L857.506 301.242L861.4 300.328L859.688 291.9L855.794 292.814ZM859.055 298.825L825.231 306.765L826.027 310.685L859.851 302.745L859.055 298.825ZM827.576 308.268L827.559 308.184L823.664 309.098L823.682 309.182L827.576 308.268ZM825.213 306.681L821.027 307.664L821.823 311.584L826.01 310.601L825.213 306.681ZM823.372 309.167L811.389 250.171L807.495 251.085L819.478 310.081L823.372 309.167ZM809.84 252.588L846.763 243.921L845.966 240.001L809.044 248.668L809.84 252.588ZM844.417 242.418L846.129 250.846L850.023 249.931L848.312 241.504L844.417 242.418ZM847.678 248.429L819.128 255.131L819.925 259.051L848.474 252.349L847.678 248.429ZM817.579 257.548L821.055 274.656L824.949 273.742L821.474 256.634L817.579 257.548ZM823.4 276.159L844.666 271.167L843.869 267.247L822.603 272.239L823.4 276.159ZM842.32 269.664L844.032 278.092L847.926 277.178L846.215 268.75L842.32 269.664ZM845.581 275.675L824.315 280.667L825.112 284.587L846.377 279.595L845.581 275.675ZM822.766 283.084L826.156 299.772L830.05 298.857L826.661 282.17L822.766 283.084ZM828.501 301.275L858.139 294.317L857.343 290.397L827.705 297.355L828.501 301.275ZM878.999 259.199L878.646 261.189L878.659 261.191L878.672 261.193L878.999 259.199ZM885.994 260.383L885.562 262.359L885.994 260.383ZM897.469 266.784L895.906 268.069L895.913 268.078L895.92 268.087L897.469 266.784ZM900.483 273.847L898.536 274.304L898.54 274.323L898.544 274.343L900.483 273.847ZM900.332 281.74L902.229 282.288L902.232 282.278L902.235 282.267L900.332 281.74ZM896.84 288.3L898.339 289.579L898.351 289.565L898.362 289.55L896.84 288.3ZM890.994 293.204L891.927 294.954L891.946 294.944L891.964 294.933L890.994 293.204ZM875.655 296.716L875.444 298.723L875.655 296.716ZM868.507 294.774L867.555 296.567L867.569 296.574L867.582 296.581L868.507 294.774ZM863.09 290.13L861.467 291.336L861.484 291.36L861.502 291.384L863.09 290.13ZM859.974 282.562L859.576 280.602L857.629 281.059L858.027 283.019L859.974 282.562ZM868.346 280.596L870.293 280.139L869.895 278.179L867.948 278.636L868.346 280.596ZM870.209 285.015L868.624 286.273L868.634 286.287L868.645 286.301L870.209 285.015ZM873.337 287.46L872.502 289.309L872.534 289.323L872.566 289.335L873.337 287.46ZM877.346 288.196L877.278 290.209L877.287 290.209L877.296 290.209L877.346 288.196ZM886.772 285.807L887.674 287.574L887.702 287.559L887.73 287.543L886.772 285.807ZM890.597 282.613L892.103 283.884L892.123 283.86L892.142 283.835L890.597 282.613ZM892.125 279.34L890.195 278.914L890.185 278.958L890.176 279.001L892.125 279.34ZM892.11 275.812L890.163 276.269L890.173 276.316L890.184 276.362L892.11 275.812ZM890.217 272.106L888.753 273.507L888.777 273.533L888.802 273.558L890.217 272.106ZM886.855 269.805L886.048 271.666L886.855 269.805ZM882.391 268.557L881.937 270.529L881.981 270.538L882.025 270.545L882.391 268.557ZM877.577 267.745L877.215 269.733L877.245 269.738L877.274 269.742L877.577 267.745ZM870.952 266.651L870.525 268.628L870.548 268.632L870.571 268.636L870.952 266.651ZM860.2 260.787L861.748 259.483L860.2 260.787ZM857.39 254.295L859.337 253.838L859.332 253.812L859.326 253.786L857.39 254.295ZM857.413 247.932L859.344 248.353L859.347 248.342L859.35 248.331L857.413 247.932ZM860.154 241.991L858.647 240.721L858.613 240.762L858.581 240.805L860.154 241.991ZM865.214 237.536L864.207 235.829L864.199 235.834L864.192 235.838L865.214 237.536ZM871.455 235.011L871.803 236.982L871.828 236.977L871.853 236.971L871.455 235.011ZM878.292 234.554L878.53 232.55L878.53 232.55L878.292 234.554ZM884.702 236.316L883.796 238.132L883.811 238.139L883.825 238.146L884.702 236.316ZM889.814 240.326L888.265 241.628L888.279 241.646L888.293 241.662L889.814 240.326ZM892.674 246.63L893.072 248.59L894.975 248.143L894.629 246.217L892.674 246.63ZM884.301 248.595L882.334 248.936L882.635 251.04L884.699 250.555L884.301 248.595ZM883.15 245.952L881.526 247.156L881.555 247.197L881.587 247.237L883.15 245.952ZM881.014 244.069L881.967 242.278L881.902 242.243L881.834 242.214L881.014 244.069ZM873.167 243.439L873.478 245.417L873.542 245.405L873.605 245.389L873.167 243.439ZM866.813 247.138L865.326 245.844L865.287 245.89L865.251 245.937L866.813 247.138ZM865.762 252.329L867.709 251.872L867.698 251.815L867.683 251.758L865.762 252.329ZM867.368 255.484L865.95 256.933L865.978 256.961L866.007 256.988L867.368 255.484ZM870.477 257.403L871.248 255.528L870.477 257.403ZM874.471 258.497L874.089 260.482L874.103 260.484L874.117 260.486L874.471 258.497ZM878.672 261.193C880.985 261.52 883.282 261.908 885.562 262.359L886.426 258.407C884.076 257.943 881.71 257.543 879.327 257.206L878.672 261.193ZM885.562 262.359C887.711 262.783 889.676 263.461 891.466 264.384L893.347 260.788C891.217 259.688 888.907 258.897 886.426 258.407L885.562 262.359ZM891.466 264.384C893.176 265.268 894.654 266.489 895.906 268.069L899.033 265.498C897.453 263.505 895.556 261.928 893.347 260.788L891.466 264.384ZM895.92 268.087C897.069 269.504 897.973 271.534 898.536 274.304L902.43 273.389C901.782 270.203 900.677 267.525 899.019 265.481L895.92 268.087ZM898.544 274.343C899.105 276.847 899.045 279.123 898.429 281.214L902.235 282.267C903.073 279.425 903.113 276.438 902.421 273.35L898.544 274.343ZM898.435 281.193C897.775 283.347 896.738 285.295 895.317 287.049L898.362 289.55C900.121 287.38 901.412 284.954 902.229 282.288L898.435 281.193ZM895.341 287.02C893.901 288.734 892.136 290.221 890.024 291.475L891.964 294.933C894.444 293.461 896.576 291.678 898.339 289.579L895.341 287.02ZM890.06 291.454C887.918 292.667 885.688 293.544 883.367 294.089L884.163 298.009C886.865 297.374 889.455 296.354 891.927 294.954L890.06 291.454ZM883.367 294.089C880.76 294.701 878.263 294.902 875.866 294.71L875.444 298.723C878.28 298.95 881.189 298.707 884.163 298.009L883.367 294.089ZM875.866 294.71C873.479 294.518 871.342 293.931 869.432 292.968L867.582 296.581C869.972 297.786 872.6 298.494 875.444 298.723L875.866 294.71ZM869.458 292.982C867.627 292.022 866.034 290.663 864.678 288.876L861.502 291.384C863.179 293.594 865.198 295.331 867.555 296.567L869.458 292.982ZM864.713 288.924C863.425 287.116 862.48 284.86 861.921 282.104L858.027 283.019C858.677 286.219 859.809 289.009 861.467 291.336L864.713 288.924ZM860.372 284.521L868.744 282.556L867.948 278.636L859.576 280.602L860.372 284.521ZM866.399 281.053C866.809 283.071 867.529 284.839 868.624 286.273L871.793 283.757C871.136 282.896 870.614 281.717 870.293 280.139L866.399 281.053ZM868.645 286.301C869.696 287.627 870.984 288.64 872.502 289.309L874.171 285.611C873.248 285.204 872.452 284.588 871.772 283.73L868.645 286.301ZM872.566 289.335C874.022 289.915 875.601 290.198 877.278 290.209L877.413 286.184C876.163 286.175 875.069 285.967 874.107 285.584L872.566 289.335ZM877.296 290.209C878.978 290.205 880.698 289.992 882.451 289.581L881.655 285.661C880.171 286.009 878.753 286.18 877.396 286.184L877.296 290.209ZM882.451 289.581C884.251 289.158 885.993 288.487 887.674 287.574L885.871 284.039C884.497 284.785 883.092 285.323 881.655 285.661L882.451 289.581ZM887.73 287.543C889.434 286.547 890.9 285.33 892.103 283.884L889.092 281.342C888.226 282.382 887.142 283.295 885.815 284.07L887.73 287.543ZM892.142 283.835C893.119 282.585 893.777 281.195 894.074 279.68L890.176 279.001C890.014 279.83 889.653 280.622 889.052 281.391L892.142 283.835ZM894.055 279.766C894.419 278.258 894.412 276.747 894.036 275.262L890.184 276.362C890.399 277.211 890.403 278.052 890.195 278.914L894.055 279.766ZM894.057 275.355C893.683 273.51 892.891 271.913 891.633 270.655L888.802 273.558C889.451 274.207 889.922 275.08 890.163 276.269L894.057 275.355ZM891.682 270.706C890.581 269.521 889.229 268.606 887.663 267.945L886.048 271.666C887.168 272.139 888.057 272.759 888.753 273.507L891.682 270.706ZM887.663 267.945C886.161 267.31 884.523 266.856 882.757 266.57L882.025 270.545C883.525 270.788 884.862 271.165 886.048 271.666L887.663 267.945ZM882.846 266.586C881.207 266.242 879.552 265.963 877.88 265.748L877.274 269.742C878.845 269.943 880.399 270.206 881.937 270.529L882.846 266.586ZM877.94 265.757C875.71 265.4 873.508 265.036 871.333 264.666L870.571 268.636C872.758 269.009 874.972 269.374 877.215 269.733L877.94 265.757ZM871.379 264.675C869.347 264.278 867.508 263.656 865.854 262.818L863.998 266.427C865.994 267.439 868.174 268.17 870.525 268.628L871.379 264.675ZM865.854 262.818C864.274 262.017 862.908 260.911 861.748 259.483L858.651 262.091C860.142 263.926 861.927 265.377 863.998 266.427L865.854 262.818ZM861.748 259.483C860.671 258.157 859.839 256.311 859.337 253.838L855.443 254.752C856.036 257.672 857.078 260.155 858.651 262.091L861.748 259.483ZM859.326 253.786C858.906 251.965 858.913 250.162 859.344 248.353L855.482 247.511C854.903 249.942 854.895 252.381 855.454 254.803L859.326 253.786ZM859.35 248.331C859.779 246.438 860.569 244.726 861.726 243.177L858.581 240.805C857.072 242.825 856.035 245.074 855.477 247.533L859.35 248.331ZM861.66 243.261C862.978 241.673 864.5 240.333 866.235 239.233L864.192 235.838C862.093 237.169 860.242 238.799 858.647 240.721L861.66 243.261ZM866.22 239.242C867.996 238.137 869.854 237.387 871.803 236.982L871.107 233.04C868.679 233.545 866.377 234.478 864.207 235.829L866.22 239.242ZM871.853 236.971C873.87 236.497 875.934 236.358 878.053 236.558L878.53 232.55C875.998 232.311 873.504 232.476 871.057 233.051L871.853 236.971ZM878.053 236.558C880.162 236.757 882.071 237.286 883.796 238.132L885.607 234.5C883.436 233.435 881.071 232.79 878.53 232.55L878.053 236.558ZM883.825 238.146C885.567 238.965 887.042 240.121 888.265 241.628L891.364 239.023C889.778 237.069 887.845 235.552 885.579 234.487L883.825 238.146ZM888.293 241.662C889.507 243.091 890.327 244.863 890.718 247.042L894.629 246.217C894.128 243.426 893.041 240.995 891.336 238.989L888.293 241.662ZM892.276 244.67L883.903 246.635L884.699 250.555L893.072 248.59L892.276 244.67ZM886.268 248.254C886.078 246.921 885.547 245.717 884.714 244.666L881.587 247.237C882.012 247.774 882.248 248.333 882.334 248.936L886.268 248.254ZM884.775 244.747C884.031 243.7 883.092 242.869 881.967 242.278L880.06 245.861C880.638 246.165 881.123 246.588 881.526 247.156L884.775 244.747ZM881.834 242.214C878.888 240.944 875.831 240.692 872.728 241.489L873.605 245.389C875.837 244.816 878.012 244.984 880.193 245.924L881.834 242.214ZM872.855 241.461C869.867 242.023 867.333 243.498 865.326 245.844L868.3 248.432C869.695 246.8 871.397 245.809 873.478 245.417L872.855 241.461ZM865.251 245.937C863.664 248.022 863.181 250.409 863.842 252.901L867.683 251.758C867.344 250.481 867.561 249.407 868.375 248.339L865.251 245.937ZM863.815 252.786C864.144 254.404 864.838 255.817 865.95 256.933L868.786 254.036C868.282 253.529 867.906 252.839 867.709 251.872L863.815 252.786ZM866.007 256.988C867.06 257.961 868.302 258.72 869.706 259.279L871.248 255.528C870.234 255.124 869.403 254.603 868.729 253.981L866.007 256.988ZM869.706 259.279C871.055 259.816 872.519 260.214 874.089 260.482L874.852 256.512C873.515 256.284 872.316 255.953 871.248 255.528L869.706 259.279ZM874.117 260.486C875.627 260.72 877.136 260.955 878.646 261.189L879.353 257.21C877.843 256.976 876.334 256.741 874.824 256.507L874.117 260.486Z" fill="#222222" mask="url(#path-3-outside-1_5491_44819)"/>
</svg>
