<svg xmlns="http://www.w3.org/2000/svg" width="480" height="487" fill="none"><path fill="url(#a)" d="m235.109 177.672 54.843-2.135 13.582-13.776s16.966 4.618 27.711 22.032c4.709 7.624 8.217 17.699 8.561 30.954-30.798-18.901-55.187.585-65.37 12.969-13.754-13.95-28.63-32.582-39.359-50.044z"/><path fill="url(#b)" d="M348.476 208.578c3.695-1.693 15.687.094 25.995 8.904 10.978 8.826 20.287 24.659 33.854 51.294.374.664.686 1.265 1.045 1.882-.593-.348-1.201-.68-1.84-1.044-25.949-13.634-41.402-23.045-50.072-34.275-8.655-10.549-10.557-22.918-8.982-26.761"/><path fill="url(#c)" d="M348.476 208.577c2.807-1.297 11.913.063 19.757 6.754 8.343 6.69 15.407 18.727 25.73 38.972.281.506.53.949.795 1.439-.452-.268-.92-.522-1.388-.806-19.726-10.36-31.452-17.509-38.049-26.034-6.58-8.004-8.03-17.415-6.83-20.341z" style="mix-blend-mode:screen"/><path fill="url(#d)" d="M348.46 208.594c1.981-.902 8.358.063 13.847 4.745 5.848 4.697 10.807 13.143 18.042 27.347.188.348.375.664.562 1.012-.312-.19-.639-.364-.983-.554-13.847-7.275-22.065-12.289-26.696-18.252-4.616-5.631-5.63-12.226-4.803-14.267z" style="mix-blend-mode:screen"/><path fill="url(#e)" d="m300.665 160.179.125-.127c5.473-5.488 11.898-8.936 16.779-9.426 12.225 7.402 26.307 21.273 35.912 31.459 6.581 6.738 9.092 12.543 14.581 24.5-3.213 1.866-7.891 5.061-12.257 9.522-4.398 4.46-7.548 9.173-9.388 12.432-11.789-5.568-17.511-8.114-24.154-14.789-10.09-9.791-23.812-24.152-31.095-36.568.546-4.951 4.008-11.467 9.513-16.987z"/><path fill="url(#f)" d="M284.728 144.078c3.743-1.835 17.325-3.401 32.825 6.564-4.896.506-11.305 3.97-16.779 9.458l-.125.127c-5.473 5.551-8.95 12.052-9.465 17.003-9.746-15.643-8.234-29.356-6.456-33.152"/><path fill="url(#g)" d="M368.062 206.585c.14.301.296.586.436.886.515 1.123 1.045 2.262 1.56 3.448-3.182 1.835-7.158 4.761-10.854 8.478l-.109.111c-3.711 3.764-6.643 7.813-8.499 11.024-1.169-.522-2.292-1.06-3.383-1.566-.281-.127-.531-.285-.827-.427 1.84-3.258 4.99-8.003 9.388-12.432 4.397-4.46 9.044-7.655 12.256-9.522z"/><path fill="#DAD7FF" d="M291.168 177.214c-9.746-15.643-8.233-29.356-6.455-33.152.093-.032.218-.063.311-.095a45.5 45.5 0 0 0 1.154 8.162l.032-.032c3.321 14.599 14.985 32.124 29.799 45.283 10.043 8.636 22.518 14.425 40.981 23.029.281.127.546.237.826.364a55 55 0 0 0-7.188 9.727c-1.17-.522-2.293-1.06-3.384-1.566-.281-.126-.546-.3-.827-.427-11.789-5.567-17.512-8.114-24.154-14.788-10.074-9.775-23.797-24.137-31.079-36.553z" style="mix-blend-mode:multiply"/><path fill="#CCC" d="m218.875 178.289 16.218-.633c11.805 12.796 28.849 29.926 45.175 41.456-7.298 8.889-10.26 18.569-10.26 18.569l-51.101-59.392z"/><path fill="url(#h)" d="m160.804 306.53 13.582-13.776 2.105-55.627c17.216 10.882 35.585 25.971 49.339 39.921-12.225 10.312-31.406 35.05-12.787 66.303-13.067-.348-22.985-3.922-30.517-8.683-17.169-10.898-21.722-28.106-21.722-28.106z"/><path fill="url(#i)" d="M204.326 351.909c3.696-1.693 15.688.095 25.995 8.904 10.978 8.826 20.288 24.659 33.854 51.294.375.664.687 1.265 1.045 1.882-.592-.348-1.201-.68-1.84-1.044-25.948-13.634-41.402-23.045-50.072-34.275-8.654-10.549-10.557-22.918-8.982-26.761"/><path fill="url(#j)" d="M204.311 351.925c2.807-1.297 11.913.063 19.757 6.754 8.343 6.69 15.407 18.726 25.73 38.972.281.506.53.949.795 1.439-.452-.269-.92-.522-1.388-.807-19.726-10.36-31.452-17.509-38.049-26.034-6.58-8.003-8.03-17.414-6.83-20.34z" style="mix-blend-mode:screen"/><path fill="url(#k)" d="M204.295 351.94c1.98-.901 8.358.064 13.847 4.745 5.848 4.698 10.807 13.144 18.042 27.347.188.348.375.665.562 1.013-.312-.19-.64-.364-.983-.554-13.847-7.276-22.065-12.29-26.696-18.252-4.616-5.631-5.63-12.227-4.803-14.267z" style="mix-blend-mode:screen"/><path fill="url(#l)" d="m156.516 303.542.124-.127c5.474-5.488 11.898-8.936 16.779-9.426 12.21 7.386 26.291 21.257 35.897 31.443 6.581 6.738 9.091 12.543 14.581 24.5-3.213 1.866-7.891 5.061-12.257 9.522-4.398 4.46-7.548 9.173-9.388 12.432-11.789-5.568-17.512-8.114-24.155-14.789-10.089-9.791-23.811-24.152-31.094-36.568.546-4.951 4.008-11.467 9.513-16.987"/><path fill="url(#m)" d="M140.563 287.425c3.743-1.835 17.325-3.401 32.825 6.564-4.896.506-11.305 3.97-16.779 9.458l-.125.126c-5.473 5.552-8.95 12.053-9.465 17.003-9.746-15.642-8.234-29.355-6.456-33.151"/><path fill="url(#n)" d="M223.912 349.947c.14.3.296.585.437.886.514 1.122 1.045 2.261 1.559 3.448-3.181 1.834-7.142 4.745-10.853 8.477l-.109.111c-3.727 3.749-6.643 7.813-8.499 11.024-1.169-.522-2.292-1.06-3.384-1.566-.281-.126-.546-.3-.826-.427 1.84-3.258 4.99-8.003 9.387-12.432 4.398-4.46 9.045-7.655 12.257-9.521z"/><path fill="#DAD7FF" d="M147.019 320.576c-9.746-15.643-8.234-29.356-6.456-33.152.094-.031.218-.063.312-.095a45.5 45.5 0 0 0 1.154 8.162l.031-.032c3.322 14.599 14.986 32.124 29.8 45.283 10.042 8.636 22.517 14.425 40.981 23.029.28.127.545.238.826.364a55 55 0 0 0-7.189 9.727c-1.169-.522-2.292-1.059-3.384-1.566-.28-.126-.545-.3-.826-.427-11.789-5.567-17.512-8.114-24.155-14.788-10.074-9.775-23.812-24.152-31.078-36.552z" style="mix-blend-mode:multiply"/><path fill="url(#o)" d="M242.188 247.455c9.044-4.144 38.439.238 63.716 21.827 26.915 21.606 49.729 60.404 82.96 125.68.904 1.613 1.715 3.1 2.557 4.618-1.481-.87-2.932-1.677-4.507-2.578-63.607-33.421-101.437-56.45-122.707-83.971-21.224-25.828-25.886-56.149-22.019-65.576"/><path fill="url(#p)" d="M242.157 247.487c6.877-3.147 29.207.174 48.403 16.576 20.444 16.402 37.768 45.9 63.03 95.501.687 1.234 1.295 2.356 1.934 3.511-1.138-.648-2.23-1.281-3.431-1.961-48.325-25.386-77.08-42.911-93.251-63.805-16.139-19.628-19.679-42.673-16.716-49.822z" style="mix-blend-mode:screen"/><path fill="url(#q)" d="M242.126 247.519c4.834-2.214 20.49.126 33.979 11.625 14.346 11.515 26.509 32.203 44.224 66.999.468.855.92 1.661 1.372 2.468-.795-.459-1.559-.886-2.417-1.376-33.901-17.81-54.079-30.084-65.432-44.761-11.305-13.777-13.8-29.941-11.726-34.955" style="mix-blend-mode:screen"/><path fill="url(#r)" d="M125.032 128.909c.109-.111.202-.206.327-.3 13.411-13.445 29.145-21.906 41.137-23.093 29.924 18.11 64.418 52.116 87.949 77.059 16.14 16.497 22.299 30.748 35.741 60.04-7.906 4.571-19.321 12.384-30.049 23.33-10.791 10.881-18.495 22.459-23.001 30.478-28.88-13.634-42.914-19.897-59.179-36.267-24.7-23.978-58.399-59.17-76.207-89.633 1.31-12.116 9.824-28.091 23.297-41.63z"/><path fill="url(#s)" d="M85.954 89.4c9.184-4.477 42.462-8.336 80.417 16.085-11.976 1.234-27.71 9.727-41.105 23.187-.11.111-.219.19-.328.301-13.442 13.571-21.909 29.561-23.188 41.677C77.83 132.31 81.587 98.7 85.954 89.4"/><path fill="url(#t)" d="M290.17 242.599c.343.728.718 1.424 1.061 2.151a581 581 0 0 1 3.836 8.478c-7.797 4.524-17.528 11.641-26.556 20.767l-.266.269c-9.138 9.206-16.264 19.123-20.802 27.015a758 758 0 0 1-8.28-3.843c-.702-.332-1.341-.696-2.012-1.028 4.507-8.019 12.21-19.597 23.001-30.479 10.729-10.945 22.144-18.759 30.05-23.33z"/><path fill="#DAD7FF" d="M101.89 170.792C78 132.453 81.743 98.858 86.094 89.542c.203-.079.515-.174.733-.237.327 6.12 1.17 12.859 2.791 20.008l.078-.079c8.124 35.761 36.692 78.719 73.026 110.985 24.607 21.131 55.171 35.335 100.424 56.434.686.285 1.341.601 2.012.902-7.688 8.24-13.598 16.86-17.621 23.851a758 758 0 0 1-8.28-3.843c-.702-.332-1.342-.696-2.012-1.028-28.88-13.634-42.914-19.898-59.194-36.252-24.685-23.962-58.368-59.139-76.176-89.57v.063z" style="mix-blend-mode:multiply"/><path fill="url(#u)" d="M172.757 184.128c-11.558 7.486-26.912 4.051-34.292-7.673s-3.994-27.297 7.565-34.783c11.558-7.486 26.912-4.051 34.292 7.673s3.994 27.297-7.565 34.783"/><path fill="#5845C9" d="M143.697 146.988a21.967 21.967 0 0 1 31.375 0c8.67 8.794 8.67 23.029 0 31.823a21.954 21.954 0 0 1-31.375 0c-8.67-8.794-8.67-23.029 0-31.823"/><path fill="#796AD9" d="M146.146 149.47a18.534 18.534 0 0 1 26.478 0c7.314 7.418 7.314 19.439 0 26.857a18.534 18.534 0 0 1-26.478 0c-7.314-7.418-7.314-19.439 0-26.857"/><path fill="url(#v)" d="M146.146 149.47a18.534 18.534 0 0 1 26.478 0c7.314 7.418 7.314 19.439 0 26.857a18.534 18.534 0 0 1-26.478 0c-7.314-7.418-7.314-19.439 0-26.857" opacity=".5" style="mix-blend-mode:screen"/><path fill="#F2F0FF" d="M153.132 148.617a4.826 4.826 0 0 1 6.892 0c1.903 1.929 1.903 5.061 0 6.991a4.827 4.827 0 0 1-6.892 0c-1.903-1.93-1.903-5.062 0-6.991M164.78 151.448a2.395 2.395 0 0 1 3.431 0 2.48 2.48 0 0 1 0 3.48 2.397 2.397 0 0 1-3.431 0 2.48 2.48 0 0 1 0-3.48" opacity=".9"/><path fill="url(#w)" d="M184.662 188.538a24.58 24.58 0 0 1 35.118 0c9.699 9.838 9.699 25.781 0 35.619a24.58 24.58 0 0 1-35.118 0c-9.699-9.838-9.699-25.781 0-35.619"/><path fill="#5845C9" d="M198.122 228.456c-12.042-2.297-19.968-14.06-17.703-26.274 2.264-12.213 13.861-20.253 25.903-17.956s19.967 14.06 17.703 26.273c-2.264 12.214-13.862 20.253-25.903 17.957"/><path fill="#796AD9" d="M188.982 192.92a18.534 18.534 0 0 1 26.478 0c7.314 7.418 7.314 19.438 0 26.856a18.534 18.534 0 0 1-26.478 0c-7.314-7.418-7.314-19.438 0-26.856"/><path fill="url(#x)" d="M188.982 192.92a18.534 18.534 0 0 1 26.478 0c7.314 7.418 7.314 19.438 0 26.856a18.534 18.534 0 0 1-26.478 0c-7.314-7.418-7.314-19.438 0-26.856" opacity=".5" style="mix-blend-mode:screen"/><path fill="#F2F0FF" d="M195.968 192.066a4.826 4.826 0 0 1 6.892 0c1.903 1.929 1.903 5.061 0 6.991a4.827 4.827 0 0 1-6.892 0c-1.902-1.93-1.902-5.062 0-6.991M207.632 194.913a2.395 2.395 0 0 1 3.431 0 2.48 2.48 0 0 1 0 3.479 2.395 2.395 0 0 1-3.431 0 2.48 2.48 0 0 1 0-3.479" opacity=".9"/><defs><linearGradient id="a" x1="316.399" x2="264.7" y1="166.838" y2="217.809" gradientUnits="userSpaceOnUse"><stop stop-color="#fff"/><stop offset=".25" stop-color="#F7F7FF"/><stop offset=".64" stop-color="#E2E1FF"/><stop offset="1" stop-color="#CAC8FF"/></linearGradient><linearGradient id="b" x1="409.479" x2="347.563" y1="270.547" y2="209.503" gradientUnits="userSpaceOnUse"><stop stop-color="#8400C5"/><stop offset="1" stop-color="#FF50C2"/></linearGradient><linearGradient id="c" x1="394.821" x2="155.064" y1="255.679" y2="19.3" gradientUnits="userSpaceOnUse"><stop stop-color="#8400C5"/><stop offset="1" stop-color="#FF50C2"/></linearGradient><linearGradient id="d" x1="380.973" x2="155.261" y1="241.635" y2="19.102" gradientUnits="userSpaceOnUse"><stop stop-color="#8400C5"/><stop offset="1" stop-color="#FF50C2"/></linearGradient><linearGradient id="e" x1="344.624" x2="312.836" y1="172.975" y2="204.315" gradientUnits="userSpaceOnUse"><stop stop-color="#fff"/><stop offset=".25" stop-color="#F7F7FF"/><stop offset=".64" stop-color="#E2E1FF"/><stop offset="1" stop-color="#CAC8FF"/></linearGradient><linearGradient id="f" x1="307.729" x2="281.065" y1="140.677" y2="166.966" gradientUnits="userSpaceOnUse"><stop stop-color="#745ED0"/><stop offset=".41" stop-color="#6C57CE"/><stop offset="1" stop-color="#5845C9"/></linearGradient><linearGradient id="g" x1="368.919" x2="346.968" y1="207.455" y2="229.097" gradientUnits="userSpaceOnUse"><stop stop-color="#745ED0"/><stop offset=".41" stop-color="#6C57CE"/><stop offset="1" stop-color="#5845C9"/></linearGradient><linearGradient id="h" x1="63.405" x2="11.705" y1="112.27" y2="163.241" gradientUnits="userSpaceOnUse"><stop stop-color="#fff"/><stop offset=".25" stop-color="#F7F7FF"/><stop offset=".64" stop-color="#E2E1FF"/><stop offset="1" stop-color="#CAC8FF"/></linearGradient><linearGradient id="i" x1="265.314" x2="203.398" y1="413.894" y2="352.85" gradientUnits="userSpaceOnUse"><stop stop-color="#8400C5"/><stop offset="1" stop-color="#FF50C2"/></linearGradient><linearGradient id="j" x1="250.656" x2="203.606" y1="399.027" y2="352.64" gradientUnits="userSpaceOnUse"><stop stop-color="#8400C5"/><stop offset="1" stop-color="#FF50C2"/></linearGradient><linearGradient id="k" x1="236.808" x2="203.802" y1="384.981" y2="352.44" gradientUnits="userSpaceOnUse"><stop stop-color="#8400C5"/><stop offset="1" stop-color="#FF50C2"/></linearGradient><linearGradient id="l" x1="200.475" x2="168.686" y1="316.337" y2="347.678" gradientUnits="userSpaceOnUse"><stop stop-color="#fff"/><stop offset=".25" stop-color="#F7F7FF"/><stop offset=".64" stop-color="#E2E1FF"/><stop offset="1" stop-color="#CAC8FF"/></linearGradient><linearGradient id="m" x1="163.564" x2="136.9" y1="284.024" y2="310.313" gradientUnits="userSpaceOnUse"><stop stop-color="#745ED0"/><stop offset=".41" stop-color="#6C57CE"/><stop offset="1" stop-color="#5845C9"/></linearGradient><linearGradient id="n" x1="224.754" x2="202.803" y1="350.801" y2="372.443" gradientUnits="userSpaceOnUse"><stop stop-color="#745ED0"/><stop offset=".41" stop-color="#6C57CE"/><stop offset="1" stop-color="#5845C9"/></linearGradient><linearGradient id="o" x1="391.655" x2="239.925" y1="399.343" y2="249.751" gradientUnits="userSpaceOnUse"><stop stop-color="#8400C5"/><stop offset="1" stop-color="#FF50C2"/></linearGradient><linearGradient id="p" x1="355.727" x2="240.435" y1="362.901" y2="249.234" gradientUnits="userSpaceOnUse"><stop stop-color="#8400C5"/><stop offset="1" stop-color="#FF50C2"/></linearGradient><linearGradient id="q" x1="321.81" x2="240.916" y1="328.5" y2="248.746" gradientUnits="userSpaceOnUse"><stop stop-color="#8400C5"/><stop offset="1" stop-color="#FF50C2"/></linearGradient><linearGradient id="r" x1="232.738" x2="154.833" y1="160.242" y2="237.049" gradientUnits="userSpaceOnUse"><stop stop-color="#fff"/><stop offset=".25" stop-color="#F7F7FF"/><stop offset=".64" stop-color="#E2E1FF"/><stop offset="1" stop-color="#CAC8FF"/></linearGradient><linearGradient id="s" x1="142.31" x2="76.962" y1="81.08" y2="145.507" gradientUnits="userSpaceOnUse"><stop stop-color="#745ED0"/><stop offset=".41" stop-color="#6C57CE"/><stop offset="1" stop-color="#5845C9"/></linearGradient><linearGradient id="t" x1="292.26" x2="238.457" y1="244.719" y2="297.764" gradientUnits="userSpaceOnUse"><stop stop-color="#745ED0"/><stop offset=".41" stop-color="#6C57CE"/><stop offset="1" stop-color="#5845C9"/></linearGradient><linearGradient id="u" x1="176.965" x2="141.35" y1="145.083" y2="180.197" gradientUnits="userSpaceOnUse"><stop stop-color="#E7EEFF"/><stop offset=".33" stop-color="#E1E6FF"/><stop offset=".83" stop-color="#D0D0FF"/><stop offset="1" stop-color="#CAC8FF"/></linearGradient><linearGradient id="v" x1="159.369" x2="159.385" y1="143.903" y2="181.879" gradientUnits="userSpaceOnUse"><stop stop-color="#2C00D4"/><stop offset="1" stop-color="#fff"/></linearGradient><linearGradient id="w" x1="289.874" x2="288.293" y1="117.442" y2="119.001" gradientUnits="userSpaceOnUse"><stop stop-color="#E7EEFF"/><stop offset=".33" stop-color="#E1E6FF"/><stop offset=".83" stop-color="#D0D0FF"/><stop offset="1" stop-color="#CAC8FF"/></linearGradient><linearGradient id="x" x1="202.221" x2="202.221" y1="187.368" y2="225.328" gradientUnits="userSpaceOnUse"><stop stop-color="#2C00D4"/><stop offset="1" stop-color="#fff"/></linearGradient></defs></svg>