<svg xmlns="http://www.w3.org/2000/svg" width="149" height="149" fill="none"><mask id="a" fill="#fff"><path fillRule="evenodd" d="M102 46.456c-4 8.611-8.546 16.2-13.016 22.08 7.208 1.608 15.579 4.474 24.19 8.474 22.219 10.32 37.633 24.28 34.428 31.181s-23.815 4.128-46.034-6.193c-8.612-4-16.201-8.546-22.08-13.017-1.609 7.21-4.475 15.582-8.476 24.195-10.32 22.219-24.28 37.633-31.18 34.428s-4.128-23.815 6.192-46.034c4-8.613 8.548-16.203 13.019-22.083-7.21-1.608-15.58-4.474-24.194-8.475C12.63 60.692-2.783 46.732.422 39.832s23.815-4.128 46.034 6.192c8.612 4 16.202 8.547 22.081 13.018 1.608-7.21 4.475-15.58 8.475-24.193 10.32-22.219 24.28-37.632 31.18-34.427 6.901 3.205 4.128 23.815-6.192 46.034" clipRule="evenodd"/></mask><path fill="#DE9CFD" fillRule="evenodd" d="M102 46.456c-4 8.611-8.546 16.2-13.016 22.08 7.208 1.608 15.579 4.474 24.19 8.474 22.219 10.32 37.633 24.28 34.428 31.181s-23.815 4.128-46.034-6.193c-8.612-4-16.201-8.546-22.08-13.017-1.609 7.21-4.475 15.582-8.476 24.195-10.32 22.219-24.28 37.633-31.18 34.428s-4.128-23.815 6.192-46.034c4-8.613 8.548-16.203 13.019-22.083-7.21-1.608-15.58-4.474-24.194-8.475C12.63 60.692-2.783 46.732.422 39.832s23.815-4.128 46.034 6.192c8.612 4 16.202 8.547 22.081 13.018 1.608-7.21 4.475-15.58 8.475-24.193 10.32-22.219 24.28-37.632 31.18-34.427 6.901 3.205 4.128 23.815-6.192 46.034" clipRule="evenodd"/><path fill="#000" d="m88.984 68.536-.797-.606-.944 1.242 1.523.34zM102 46.456l.907.421zm11.174 30.554.422-.907zm34.428 31.181-.907-.422zm-46.034-6.193-.421.907zm-22.08-13.017.605-.796-1.242-.944-.34 1.522zm-8.476 24.195.907.422zM46.024 101.57l.907.421zm13.019-22.083.796.606.944-1.242-1.523-.34zm-24.194-8.475-.42.907zM.422 39.832l.907.42zm46.034 6.192.421-.907zm22.081 13.018-.605.796 1.241.944.34-1.522zm8.475-24.193-.907-.42zM108.192.422l.422-.907zM89.78 69.14c4.52-5.945 9.102-13.598 13.127-22.264l-1.814-.843c-3.974 8.557-8.485 16.082-12.906 21.896zm23.816 6.962c-8.667-4.025-17.106-6.917-24.395-8.543l-.435 1.952c7.128 1.59 15.43 4.43 23.987 8.405zm34.913 32.509c.999-2.151.471-4.681-.933-7.235-1.416-2.576-3.825-5.376-6.982-8.235-6.324-5.727-15.824-11.848-26.998-17.039l-.843 1.814c11.044 5.13 20.361 11.149 26.498 16.707 3.073 2.783 5.305 5.412 6.572 7.717 1.279 2.327 1.476 4.129.872 5.428zm-47.362-5.707c11.174 5.191 21.98 8.501 30.435 9.638 4.221.568 7.915.602 10.797.023 2.857-.575 5.131-1.804 6.13-3.954l-1.814-.843c-.603 1.3-2.107 2.312-4.71 2.836-2.579.519-6.027.509-10.136-.044-8.206-1.104-18.815-4.34-29.86-9.47zM78.882 89.777c5.945 4.52 13.598 9.103 22.265 13.128l.842-1.814c-8.556-3.974-16.082-8.485-21.896-12.906zm-6.963 23.821c4.026-8.669 6.918-17.11 8.545-24.4l-1.953-.435c-1.59 7.13-4.43 15.434-8.406 23.992zM39.41 148.511c2.15.999 4.681.471 7.235-.933 2.576-1.416 5.376-3.825 8.235-6.982 5.727-6.324 11.848-15.824 17.039-26.998l-1.814-.843c-5.13 11.044-11.149 20.361-16.707 26.498-2.783 3.073-5.412 5.305-7.717 6.572-2.326 1.279-4.129 1.476-5.428.872zm5.707-47.362c-5.19 11.174-8.5 21.98-9.638 30.435-.568 4.221-.602 7.915-.023 10.797.575 2.857 1.804 5.131 3.954 6.13l.843-1.814c-1.3-.603-2.312-2.107-2.836-4.711-.519-2.578-.509-6.026.044-10.135 1.104-8.206 4.34-18.815 9.47-29.86zm13.13-22.267c-4.521 5.945-9.104 13.599-13.13 22.267l1.814.842c3.975-8.558 8.486-16.084 12.908-21.898zm1.013-.37c-7.129-1.591-15.432-4.432-23.99-8.407l-.842 1.814c8.668 4.026 17.107 6.918 24.397 8.544zm-23.99-8.407c-11.044-5.13-20.36-11.149-26.497-16.707C5.7 50.615 3.468 47.986 2.2 45.682c-1.28-2.327-1.476-4.13-.872-5.43l-1.814-.842c-1 2.15-.47 4.681.933 7.235 1.416 2.576 3.825 5.376 6.982 8.236 6.324 5.727 15.823 11.848 26.998 17.038zM1.33 40.253c.603-1.3 2.107-2.312 4.71-2.836 2.579-.518 6.027-.509 10.136.044 8.206 1.104 18.815 4.34 29.86 9.47l.842-1.814c-11.175-5.19-21.98-8.5-30.435-9.638-4.222-.568-7.915-.602-10.797-.023-2.857.575-5.131 1.804-6.13 3.954zm44.706 6.678c8.557 3.974 16.083 8.486 21.897 12.907l1.21-1.592c-5.944-4.52-13.598-9.103-22.265-13.129zm30.07-12.503c-4.026 8.668-6.918 17.107-8.544 24.396l1.952.436c1.59-7.13 4.431-15.432 8.406-23.99zM108.614-.485c-2.151-1-4.681-.47-7.235.933-2.576 1.416-5.376 3.825-8.236 6.982-5.727 6.324-11.848 15.823-17.038 26.998l1.814.843c5.13-11.045 11.149-20.361 16.707-26.498 2.783-3.073 5.412-5.305 7.716-6.572 2.327-1.28 4.129-1.476 5.429-.872zm-5.707 47.362c5.19-11.175 8.501-21.98 9.638-30.435.568-4.222.602-7.915.023-10.797-.575-2.857-1.804-5.131-3.954-6.13l-.843 1.814c1.3.603 2.312 2.107 2.836 4.71.518 2.579.509 6.027-.044 10.136-1.104 8.206-4.34 18.815-9.47 29.86z" mask="url(#a)"/></svg>