<svg xmlns="http://www.w3.org/2000/svg" width="1919" height="2464" fill="#181525"><path d="M1971.97 0H0v6.74h20.541l-9.695 17.39H0v6.74h7.1L0 43.676v7.28L11.175 30.87h34.279L30.27 59.313H0v6.74h26.687L9.17 98.81H0v6.74h5.554L0 115.93v7.414l9.531-17.794h36.022l-20.18 39.362H0v6.74h21.922L0 194.385v7.414l25.734-50.147H62.94l-24.716 50.281H0v6.741h34.904L3.714 272.3H0v6.74h.427l-.427.809v7.549l4.108-8.358h40.097l-33.918 72.254H0v6.74h7.132L0 373.267v7.549l10.682-22.782h41.937L15.38 441.342H0v6.74h12.358L0 475.716v7.684l15.809-35.318h44.04l-40.096 94.227H0v6.74h16.86L0 588.681v7.818l20.18-47.45h46.374l-44.27 109.729H0v6.74h19.588L0 714.047v7.818l22.743-56.347H71.78L25.734 786.031H0v6.74h23.17L0 853.432v8.088l26.227-68.749h51.929l-48.15 133.858H0v6.74h27.575L0 1009.94v8.09l30.5-84.661h55.116L35.923 1080.3H0v6.74h33.655L0 1186.53v8.36l36.449-107.85h58.6l-49.267 155.84H0v6.74h43.646L0 1387.52v8.49l46.341-146.39h62.282l-50.417 171.06H0v6.74h56.234L2.596 1609.54H0v6.74h.592L0 1618.3v8.76l3.188-10.78h70.366l-53.867 197.48H0v6.74h17.846L0 1885.88v9.17l20.344-74.55H95.28L42.43 2031.06H0v6.74h40.721L0 2200.24v9.3l43.088-171.74h79.799l-51.272 223.91H0v6.74h70.07L25.439 2463.1h2.268l44.6-194.65h84.926l-40.327 194.65h2.136l40.36-194.65h84.992l-36.087 194.65h2.037l36.12-194.65h85.091l-31.848 194.65h2.005l31.848-194.65h85.156l-27.608 194.65h1.906l27.608-194.65h85.255l-23.368 194.65h1.84l23.368-194.65h85.321l-19.095 194.65h1.774l19.096-194.65h85.386l-14.889 194.65h1.709l14.889-194.65h85.419L756.71 2463.1h1.709l10.583-194.65h85.452l-6.376 194.65h1.676l6.376-194.65h85.485l-2.136 194.65h1.643l2.136-194.65h85.452l2.14 194.65h1.64l-2.14-194.65h85.49l6.37 194.65h1.68l-6.38-194.65h85.46l10.58 194.65h1.71l-10.62-194.65h85.42l14.89 194.65h1.71l-14.89-194.65h85.39l19.09 194.65h1.78l-19.1-194.65h85.32l23.37 194.65h1.84l-23.37-194.65h85.26l27.61 194.65h1.9l-27.61-194.65h85.16l31.85 194.65h2l-31.84-194.65h85.09l36.12 194.65h2.03l-36.08-194.65h84.99l40.36 194.65h2.13l-40.32-194.65h84.92l44.6 194.65h2.27l-44.63-194.65h70.07v-6.74h-71.62l-51.27-223.91h79.8l43.09 171.74v-9.3l-40.72-162.44h40.72v-6.74h-42.43l-52.85-210.56h74.93l20.35 74.55v-9.17l-17.85-65.38h17.85v-6.74h-19.69l-53.87-197.48h70.37l3.19 10.78v-8.76l-.59-2.02h.59v-6.74h-2.6l-53.64-182.12h56.24v-6.74h-58.21l-50.41-171.06h62.28l46.34 146.39v-8.49l-43.65-137.9h43.65v-6.74h-45.78l-49.27-155.84h58.6l36.45 107.85v-8.36l-33.66-99.49h33.66v-6.74h-35.92l-49.7-146.931h55.12l30.5 84.661v-8.09l-27.58-76.571h27.58v-6.74h-30.01l-48.15-133.858h51.93l26.23 68.749v-8.088l-23.17-60.661h23.17v-6.74h-25.74l-46.04-120.513h49.04l22.74 56.347v-7.818l-19.59-48.529h19.59v-6.74h-22.28l-44.28-109.729h46.38l20.18 47.45v-7.818l-16.86-39.632h16.86v-6.74h-19.75l-40.1-94.227h44.04l15.81 35.318v-7.684l-12.36-27.634h12.36v-6.74h-15.38l-37.24-83.308h41.94l10.68 22.782v-7.549l-7.13-15.233h7.13v-6.74h-10.29l-33.92-72.254h40.1l4.11 8.358v-7.549l-.43-.809h.43v-6.74h-3.72l-31.19-63.626h34.91v-6.741h-38.22l-24.72-50.281h37.2l25.74 50.147v-7.414l-21.92-42.733h21.92v-6.74h-25.37l-20.18-39.362h36.02l9.53 17.794v-7.414l-5.56-10.38h5.56v-6.74h-9.17l-17.52-32.757h26.69v-6.74h-30.3l-15.16-28.443h34.28l11.18 20.085v-7.28l-7.1-12.805h7.1v-6.74h-10.85l-9.69-17.39h20.54zm-62.35 6.74 9.34 17.39h-34.28l-8.94-17.39zM811.991 542.31h-47.722l9.269-94.227h45.651zm8.907-94.227h45.717l-5.128 94.227H813.7zm-255.6 100.967h47.59l-17.945 109.729h-49.957zm-22.382 109.729h-49.891l22.711-109.729h47.491zm71.944-109.729h47.689l-15.546 109.729h-50.055zm49.595 0h47.754L699.03 658.778h-50.121zm49.562 0h47.82l-10.78 109.729h-50.186zm49.595 0h47.853l-8.348 109.729h-50.285zm-1.117-6.74h-47.656l11.306-94.227h45.618zm-49.497 0h-47.59l13.377-94.227h45.519zm-49.496 0h-47.525l15.415-94.227h45.486zm-49.497 0h-47.458l17.484-94.227h45.389zm-49.529 0h-47.327l19.522-94.227h45.29zm-49.496 0h-47.262l21.593-94.227h45.191zm-49.53 0h-47.163l23.664-94.227h45.092zm.723 6.74h47.393l-22.71 109.729h-49.792zm25.439 116.469h50.055l-22.382 120.513h-52.684zm52.093 0h50.153l-19.752 120.513h-52.75zm52.125 0h50.22l-17.123 120.513h-52.816zm52.126 0h50.285l-14.494 120.513h-52.914zm52.093 0H750.4l-11.832 120.513h-52.98zm52.126 0h50.416l-9.202 120.513h-53.046zm52.125 0h50.45l-6.573 120.513h-53.079zm.526-6.74 8.381-109.729h47.886l-5.949 109.729zm57.976-109.729h47.919l-3.582 109.729H856.82zm49.595 0h47.952l-1.183 109.729h-50.351zm-1.446-6.74h-47.787l5.127-94.227h45.749zm-43.975-100.967h-45.552l6.376-83.308h43.744zm-47.261 0h-45.52l8.184-83.308h43.679zm-47.295 0h-45.454l9.992-83.308h43.646zm-47.294 0h-45.388l11.799-83.308h43.58zm-47.295 0h-45.322l13.639-83.308h43.482zm-47.294 0H585.28l15.447-83.308h43.417zm-47.327 0h-45.158l17.287-83.308h43.318zm-47.295 0h-45.059l19.062-83.308h43.252zm-47.327 0H443.66l20.87-83.308h43.153zm-47.294 0h-44.863l22.711-83.308h43.022zm-47.327 0h-44.731l24.518-83.308h42.923zm.624 6.74h44.994l-23.631 94.227H368.89zm22.02 100.967h47.295l-25.11 109.729h-49.694zm22.908 116.469h49.924l-24.979 120.513h-52.585zm25.701 127.253h52.816l-24.814 133.858h-55.741zm54.887 0h52.914l-21.889 133.858h-55.839zm54.886 0h52.981L609.01 926.629h-55.906zm54.887 0h53.079l-16.072 133.858h-55.971zm54.886 0h53.145l-13.147 133.858h-56.037zm54.919 0h53.178l-10.221 133.858h-56.103zm54.92 0h53.21l-7.296 133.858h-56.136zm54.886 0h53.276l-4.371 133.858h-56.201zm.362-6.74 6.606-120.513h50.482l-3.977 120.513zm58.732-120.513H959.1l-1.315 120.513h-53.144zm50.745 127.253h53.31l1.44 133.858h-56.196zm250.8-243.722h47.82l13.15 109.729h-50.19zm9.01 109.729h-50.29l-8.35-109.729h47.86zm40.62-109.729h47.75l15.55 109.729h-50.12zm49.66 0h47.66l17.94 109.729h-50.05zm49.66 0h47.59l20.35 109.729h-49.99zm49.66 0h47.49l22.71 109.729h-49.89zm28.73-100.967h45.19l21.59 94.227h-47.26zm17.35 94.227h-47.33l-17.48-94.227h45.29zm-49.4 0h-47.46l-15.41-94.227h45.39zm-49.43 0h-47.52l-13.38-94.227h45.49zm-49.43 0h-47.59l-11.31-94.227h45.52zm-49.43 0h-47.66l-9.26-94.227h45.61zm-49.43 0h-47.72l-7.2-94.227h45.65zm-49.43 0h-47.79l-5.13-94.227h45.72zm-43.12 116.469h-50.32l-3.58-109.729h47.92zm-4.27-109.729h47.88l8.38 109.729h-50.28zm56.79 116.469 9.2 120.513h-53.08l-6.57-120.513zm1.71 0h50.41l11.84 120.513h-53.05zm52.19 0h50.35l14.46 120.513h-52.98zm52.16 0h50.28l17.13 120.513h-52.92zm52.19 0h50.22l19.72 120.513h-52.82zm52.19 0h50.15l22.35 120.513h-52.75zm52.19 0h50.06l25.01 120.513h-52.69zm28.1-116.469h47.4l25.11 109.729h-49.8zm26.53-100.967h45.09l23.66 94.227h-47.16zm24.88-90.048h43.02l22.71 83.308h-44.86zm18.53 83.308h-44.96l-19.09-83.308h43.15zm-47.23 0h-45.06l-17.25-83.308h43.22zm-47.19 0h-45.16l-15.45-83.308h43.32zm-47.23 0h-45.26l-13.6-83.308h43.41zm-47.23 0h-45.32l-11.8-83.308h43.48zm-47.23 0h-45.39l-9.99-83.308h43.58zm-47.23 0h-45.45l-8.19-83.308h43.65zm-47.23 0h-45.52l-6.34-83.308h43.68zm-47.22 0h-45.56l-4.53-83.308h43.71zm-41.74 100.967h-47.79l-3.09-94.227h45.75zm-45.66 116.469h-50.35l-1.18-109.729h47.95zm-50.28 6.74h50.51l3.95 120.513h-53.15zm52.19 0h50.45l6.61 120.513H1069zm57.42 127.253 7.29 133.858h-56.16l-4.41-133.858zm1.67 0h53.25l10.19 133.858h-56.14zm54.96 0h53.17l13.15 133.858h-56.1zm54.95 0h53.14l16.04 133.858h-56.04zm54.95 0h53.08l18.96 133.858h-55.97zm54.99 0h52.98l21.88 133.858h-55.9zm54.95 0h52.91l24.82 133.858h-55.84zm54.98 0h52.82l27.74 133.858h-55.74zm28.6-127.253h49.92l27.64 120.513h-52.59zm25.53-116.469h47.3l27.51 109.729h-49.7zm24.32-100.967h45l25.7 94.227h-47.07zm22.91-90.048h42.92l24.52 83.308H1578zm22.22-78.994h41.08l22.88 72.254h-42.66zm18.73 72.254h-42.79l-19.72-72.254h41.22zm-45.25 0h-42.89l-18.15-72.254h41.32zm-45.26 0h-42.99l-16.56-72.254h41.41zm-45.22 0h-43.12l-14.99-72.254h41.54zm-45.26 0h-43.19l-13.41-72.254h41.61zm-45.26 0h-43.28l-11.83-72.254h41.7zm-45.25 0h-43.35l-10.26-72.254h41.77zm-45.26 0h-43.45l-8.68-72.254h41.87zm-45.26 0h-43.51l-7.1-72.254h41.94zm-45.29 0h-43.54l-5.53-72.254h41.97zm-45.25 0h-43.62l-3.94-72.254h42.03zm-40.4 90.048h-45.58l-2.73-83.308h43.78zm-43.94 100.967h-47.79l-1.05-94.227h45.79zm-46.8 243.722h-53.111l1.314-120.513h50.487zm-52.125-243.722h-47.788l3.057-94.227h45.782zM914.27 441.342h-45.585l4.536-83.308h43.777zm-42.364-90.048h-43.613l5.521-72.254h42.036zm-45.322 0h-43.548l7.099-72.254h41.97zm-45.323 0h-43.515l8.677-72.254h41.937zm-45.322 0H692.49l10.254-72.254h41.871zm-45.356 0h-43.35l11.832-72.254h41.773zm-45.322 0h-43.285l13.41-72.254h41.707zm-45.355 0H556.72l14.987-72.254h41.608zm-45.323 0h-43.12l16.565-72.254h41.542zm-45.355 0h-42.989l18.142-72.254h41.412zm-45.355 0h-42.891l19.72-72.254h41.313zm-45.356 0h-42.791l21.297-72.254h41.214zm-45.355 0h-42.66l22.875-72.254h41.082zm-45.355 0h-42.529l24.42-72.254h40.984zm.559 6.74h42.824l-24.551 83.308h-44.632zm18.865 90.048h44.895l-25.701 94.227h-46.933zm19.818 100.967h47.196l-27.509 109.729h-49.595zm20.377 116.469h49.825l-27.64 120.513h-52.455zm22.908 127.253h52.717l-27.706 133.858H379.67zm25.767 140.598h55.872L464.727 1080.3h-59.093zm57.943 0h55.971L525.957 1080.3h-59.159zm57.943 0h56.07L587.219 1080.3h-59.257zm57.976 0h56.135L648.449 1080.3h-59.323zm57.943 0h56.201L709.679 1080.3H650.29zm57.976 0h56.267L770.908 1080.3h-59.455zm57.976 0h56.299l-8.019 146.931H772.65zm57.975 0h56.333l-4.831 146.931h-59.521zm57.976 0h56.366l-1.611 146.931h-59.553zm.23-6.74 4.372-133.858h53.276l-1.446 133.858zm57.779 6.74h56.332l1.61 146.931h-59.552zm57.912-6.74-1.45-133.858h53.28l4.37 133.858zm56.43 6.74 4.8 146.931h-59.56l-1.61-146.931zm1.64 0h56.34l8.01 146.931h-59.52zm58.01 0h56.3l11.24 146.931h-59.52zm58.01 0h56.27l14.43 146.931h-59.46zm58.04 0h56.2l17.62 146.931h-59.39zm58.01 0h56.14l20.83 146.931h-59.32zm58.04 0h56.07l24.03 146.931h-59.26zm58.04 0h55.97l27.25 146.931h-59.16zm58.05 0h55.87l30.46 146.931h-59.09zm28.92-140.598h52.71l30.64 133.858h-55.65zm25.8-127.253h49.86l30.23 120.513h-52.45zm23-116.469h47.2l29.91 109.729h-49.6zm22.12-100.967h44.9l27.74 94.227h-46.94zm20.94-90.048h42.82l26.36 83.308h-44.63zm20.51-78.994h40.98l24.42 72.254h-42.53zm20.01-70.366h39.31l22.88 63.626h-40.69zm18.67 63.626h-40.82l-20.08-63.626h39.44zm-43.51 0h-40.92l-18.74-63.626h39.57zm-43.52 0h-41.05l-17.32-63.626h39.67zm-43.51 0h-41.15l-15.94-63.626h39.77zm-43.52 0h-41.28l-14.56-63.626h39.9zm-43.51 0h-41.38l-13.18-63.626h40zm-43.55 0h-41.45l-11.79-63.626h40.09zm-43.52 0h-41.54l-10.42-63.626h40.17zm-43.54 0h-41.61l-9.01-63.626h40.23zm-43.52 0h-41.71l-7.62-63.626h40.33zm-43.55 0h-41.77l-6.24-63.626h40.39zm-43.54 0h-41.84l-4.83-63.626h40.42zm-43.55 0h-41.87l-3.45-63.626h40.49zm-39.24 78.994h-43.62l-2.36-72.254h42.03zm-42.33 90.048h-45.62l-.92-83.308h43.81zm-44.9 217.436h-50.351l1.183-109.729h47.988zm-49.628-217.436h-45.618l2.728-83.308h43.81zm-44.336-90.048h-43.614l3.944-72.254h42.036zM876.211 272.3H834.34l4.864-63.626h40.458zm-43.613 0h-41.806l6.245-63.626h40.425zm-43.58 0h-41.773l7.625-63.626h40.392zm-43.614 0h-41.707l9.005-63.626h40.327zm-43.613 0h-41.609l10.386-63.626h40.228zm-43.614 0h-41.542l11.799-63.626h40.162zm-43.613 0H573.12l13.146-63.626h40.097zm-43.613 0h-41.379l14.56-63.626h39.998zm-43.614 0h-41.28l15.941-63.626h39.899zm-43.646 0h-41.148l17.32-63.626h39.768zm-43.613 0h-41.05l18.701-63.626h39.669zm-43.647 0h-40.918l20.081-63.626h39.571zm-43.613 0h-40.82l21.462-63.626h39.439zm-43.646 0h-40.688l22.874-63.626h39.308zm-43.614 0h-40.589l24.255-63.626H288.4zm.493 6.74h40.853l-24.452 72.254h-42.431zm16.927 78.994h42.693l-26.359 83.308h-44.501zm16.926 90.048h44.763l-27.772 94.227h-46.834zm17.583 100.967h47.097l-29.908 109.729h-49.464zM335.3 665.518h49.76l-30.27 120.513h-52.356zm20.147 127.253h52.619l-30.631 133.858h-55.544zm22.678 140.598h55.807L403.465 1080.3H344.47zm26.096 153.671h59.257l-28.889 155.84h-62.643zm61.328 0h59.323l-25.504 155.84H436.66zm61.295 0h59.422l-22.086 155.84h-62.807zm61.329 0h59.454l-18.668 155.84h-62.872zm61.295 0h59.553l-15.282 155.84H630.8zm61.328 0h59.586l-11.864 155.84h-63.005zm61.328 0h59.652l-8.512 155.84h-63.037zm61.329 0h59.685l-5.095 155.84h-63.07zm61.328 0h59.718l-1.709 155.84h-63.103zm61.361 0h59.688l1.71 155.84h-63.107zm61.328 0h59.72l5.09 155.84h-63.1zm61.36 0h59.69l8.51 155.84h-63.1zm61.36 0h59.65l11.9 155.84h-63.04zm61.4 0h59.58l15.29 155.84h-63.01zm61.36 0h59.55l18.67 155.84h-62.94zm61.39 0h59.46l22.12 155.84h-62.91zm61.36 0h59.42l25.48 155.84h-62.81zm61.4 0h59.32l28.89 155.84h-62.71zm61.39 0h59.26l32.27 155.84h-62.64zm29.55-153.671h55.77l33.69 146.931h-59zm25.86-140.598h52.62l33.56 133.858h-55.55zm23.01-127.253h49.76l32.86 120.513h-52.35zm20.47-116.469h47.1l32.28 109.729h-49.47zm19.92-100.967h44.77l29.84 94.227h-46.84zm19-90.048h42.69l28.17 83.308h-44.5zm18.76-78.994h40.86l26.03 72.254h-42.43zm18.51-70.366h39.17L1747 272.3h-40.59zm-2.43-6.741-18.15-50.281h37.96l19.23 50.281zm-2.93 0h-39.18l-17.02-50.281h38.06zm-42 0h-39.28l-15.94-50.281h38.19zm-41.97 0h-39.41l-14.82-50.281h38.29zm-42 0h-39.51l-13.74-50.281h38.42zm-41.97 0h-39.64l-12.62-50.281h38.52zm-41.97 0h-39.77l-11.51-50.281h38.62zm-42.01 0h-39.83l-10.45-50.281h38.75zm-42 0h-39.93l-9.34-50.281h38.85zm-42 0h-40l-8.25-50.281h38.91zm-41.97 0h-40.13l-7.14-50.281h39.02zm-42.01 0h-40.19l-6.05-50.281h39.08zm-42 0h-40.26l-4.93-50.281h39.14zm-42.04 0h-40.29l-3.84-50.281h39.2zm-42 0h-40.33l-2.76-50.281h39.25zm-38.19 70.367h-41.9l-2.07-63.626h40.49zm-40.98 78.994h-43.65l-.79-72.254h42.07zm-43.22 191.015h-47.789l1.019-94.227h45.75zm-47.362-191.015h-43.646l2.366-72.254h42.069zM919.792 272.3h-41.904l3.484-63.626h40.49zm-39.768-70.367h-40.327l3.846-50.281h39.242zm-42.036 0h-40.294l4.93-50.281h39.209zm-42.069 0h-40.261l6.048-50.281h39.143zm-42.068 0h-40.195l7.164-50.281h39.078zm-42.069 0h-40.129l8.249-50.281h39.012zm-42.101 0h-39.999l9.334-50.281h38.914zm-42.069 0H587.68l10.418-50.281h38.848zm-42.102 0h-39.833l11.536-50.281h38.749zm-42.068 0h-39.735l12.62-50.281h38.618zm-42.102 0h-39.636l13.738-50.281h38.519zm-42.101 0h-39.505l14.822-50.281h38.421zm-42.102 0h-39.406l15.94-50.281h38.289zm-42.101 0h-39.275l17.024-50.281h38.191zm-42.102 0h-39.176l18.142-50.281h38.059zm-42.101 0h-39.045l19.226-50.281h37.961zm-42.102 0h-38.914l20.312-50.281h37.829zm-2.564 6.741L221.912 272.3h-40.458l25.636-63.626zm-23.762 70.366h40.721l-26.03 72.254h-42.298zm15.184 78.994h42.595l-28.166 83.308h-44.403zm14.954 90.048h44.666l-29.843 94.227h-46.703zm15.382 100.967h46.998l-32.307 109.729h-49.365zm15.283 116.469h49.627l-32.899 120.513h-52.257zm17.386 127.253h52.52l-33.589 133.858h-55.446zm19.588 140.598h55.708L342.235 1080.3h-58.896zm22.743 153.671h59.159l-32.274 155.84h-62.544zm27.641 162.58h62.774l-31.749 171.06h-66.488zm64.845 0h62.873l-28.002 171.06h-66.62zm64.845 0h62.971l-24.288 171.06h-66.685zm64.845 0h63.037l-20.542 171.06h-66.751zm64.877 0h63.103l-16.827 171.06h-66.817zm64.878 0h63.136l-13.081 171.06h-66.882zm64.845 0h63.202l-9.334 171.06h-66.916zm64.878 0h63.234l-5.587 171.06h-66.981zm64.878 0h63.267l-1.874 171.06h-66.981zm64.91 0h63.233l1.88 171.06h-66.986zm64.873 0h63.27l5.59 171.06h-66.98zm64.92 0h63.23l9.33 171.06h-66.98zm64.91 0h63.2l13.05 171.06h-66.92zm64.91 0h63.13l16.83 171.06h-66.88zm64.91 0h63.1l20.54 171.06h-66.82zm64.94 0h63.04l24.25 171.06h-66.75zm64.91 0h62.97l28.01 171.06h-66.69zm64.95 0h62.87l31.75 171.06h-66.62zm64.94 0h62.77l35.47 171.06h-66.49zm31.25-162.58h59.16l35.66 155.84h-62.54zm26.2-153.671h55.71l36.87 146.931h-58.93zm22.77-140.598h52.53l36.51 133.858h-55.45zm20.28-127.253h49.63l35.53 120.513h-52.26zm17.92-116.469h46.99l34.68 109.729h-49.37zm17.71-100.967h44.67l31.88 94.227h-46.71zm17.02-90.048h42.6l29.97 83.308h-44.4zm17.06-78.994h40.72l27.61 72.254h-42.3zm16.96-70.366h39.08l25.63 63.626h-40.45zm-2.56-6.741-19.23-50.281h37.83l20.31 50.281zm3.15-96.383h36.71l16.73 39.362h-37.53zm12.72 39.362h-37.66l-15.06-39.362h36.85zm-40.72 0h-37.83l-14.16-39.362h36.94zm-40.75 0h-37.93l-13.31-39.362h37.07zm-40.72 0h-38.06l-12.46-39.362h37.21zm-40.76 0H1538l-11.6-39.362h37.31zm-40.72 0h-38.29l-10.71-39.362h37.4zm-40.75 0h-38.39l-9.86-39.362h37.53zm-40.72 0h-38.49l-9.04-39.362h37.63zm-40.76 0h-38.58l-8.15-39.362h37.69zm-40.75 0h-38.69l-7.29-39.362h37.83zm-40.76 0h-38.75l-6.44-39.362h37.9zm-40.75 0h-38.85l-5.59-39.362h38zm-40.75 0h-38.92l-4.73-39.362h38.06zm-40.76 0h-38.98l-3.88-39.362h38.13zm-40.75 0h-39.05l-3.02-39.362h38.19zm-40.79 0h-39.08l-2.17-39.362h38.26zm-37.66 57.021h-40.36l-1.65-50.281h39.28zm-41.81 6.741 2.1 63.626h-41.93l-.69-63.626zm-39.64 232.668h-45.615l.921-83.308h43.774zM963.372 272.3h-41.937l2.104-63.626h40.524zm-41.279-70.367h-40.36l2.728-50.281h39.275zm-38.947-57.021h-39.078l2.991-39.362h38.256zm-40.82 0h-39.045l3.879-39.362h38.19zm-40.819 0h-38.98l4.733-39.362h38.125zm-40.82 0h-38.914l5.588-39.362h38.059zm-40.82 0h-38.848l6.442-39.362h37.993zm-40.852 0h-38.75l7.297-39.362h37.894zm-40.82 0h-38.684l8.151-39.362h37.829zm-40.853 0h-38.585l9.006-39.362h37.73zm-40.852 0h-38.487l9.893-39.362h37.632zm-40.82 0h-38.388l10.715-39.362h37.533zm-40.853 0h-38.289l11.602-39.362h37.402zm-40.852 0h-38.158l12.456-39.362h37.303zm-40.853 0h-38.059l13.311-39.362h37.204zm-40.853 0h-37.927l14.165-39.362h37.073zm-40.852 0h-37.829l15.052-39.362h36.942zm-40.886 0h-37.664l15.907-39.362h36.81zm-40.852 0h-37.534l16.729-39.362h36.712zm-40.853 0h-37.435l17.617-39.362h36.58zm.427 6.74h37.731l-20.345 50.281h-38.782zm14.659 57.022L178.266 272.3h-40.327l27.016-63.626zm-25.176 70.366h40.623l-27.608 72.254h-42.2zm13.475 78.994h42.463l-29.974 83.308h-44.27zm12.982 90.048h44.534l-31.88 94.227h-46.572zm13.213 100.967h46.834l-34.674 109.729H181.29zm12.719 116.469h49.529l-35.528 120.513h-52.159zm14.592 127.253h52.422l-36.514 133.858h-55.314zm16.532 140.598h55.61L280.973 1080.3h-58.798zm19.391 153.671h59.06l-35.692 155.84h-62.446zm24.091 162.58h62.676l-35.463 171.06h-66.422zm25.8 177.8-37.731 182.12h-70.53l41.707-182.12zm2.169 0h66.653l-33.754 182.12H295.96zm68.723 0h66.751l-29.776 182.12H368.66zm68.756 0h66.817l-25.833 182.12h-70.794zm68.723 0h66.916l-21.856 182.12h-70.893zm68.756 0h66.948l-17.879 182.12h-70.925zm68.723 0h67.047l-13.902 182.12h-71.024zm68.756 0h67.08l-9.926 182.12h-71.056zm68.756 0h67.113l-5.949 182.12h-71.089zm68.756 0h67.146l-2.005 182.12h-71.09zm68.789 0h67.112l2.01 182.12h-71.127zm68.752 0h67.15l5.95 182.12h-71.09zm68.79 0h67.12l9.92 182.12h-71.06zm68.79 0h67.08l13.9 182.12h-71.05zm68.79 0h67.05l17.88 182.12h-71.03zm68.82 0h66.95l21.86 182.12h-70.93zm68.79 0h66.92l25.83 182.12h-70.89zm68.82 0h66.82l29.81 182.12h-70.79zm68.82 0h66.76l33.75 182.12h-70.73zm68.83 0h66.65l37.73 182.12h-70.63zm68.82 0H1707l41.71 182.12h-70.53zm-1.42-6.74-35.46-171.06h62.68l39.21 171.06zm-7.75-333.64h59.06l39.08 155.84h-62.45zm22.84-153.671h55.61l40.06 146.931H1691zm19.72-140.598h52.42l39.41 133.858h-55.32zm17.48-127.253h49.53l38.16 120.513h-52.16zm15.42-116.469h46.83l37.11 109.729h-49.27zm15.51-100.967h44.54l33.91 94.227h-46.57zm15.05-90.048h42.47l31.78 83.308h-44.27zm15.32-78.994h40.62l29.19 72.254h-42.2zm15.45-70.366h38.94l27.02 63.626h-40.33zm-2.73-6.741L1745 151.652h37.73l21.39 50.281zm1.05-96.383h36.58l17.62 39.362h-37.44zm22.35-39.497h35.56l15.38 32.757h-36.28zm11.21 32.757h-36.42l-13.93-32.757h35.69zm-39.74 0h-36.54l-13.22-32.757h35.83zm-39.7 0h-36.68l-12.52-32.757h35.95zm-39.74 0h-36.81l-11.79-32.757h36.08zm-39.73 0h-36.91l-11.08-32.757h36.19zm-39.74 0h-37.04l-10.35-32.757h36.32zm-39.7 0h-37.17l-9.66-32.757h36.45zm-39.73 0h-37.27l-8.94-32.757h36.54zm-39.74 0h-37.4l-8.22-32.757h36.68zm-39.73 0h-37.5l-7.5-32.757h36.75zm-39.77 0h-37.57l-6.8-32.757h36.88zm-39.74 0h-37.66l-6.08-32.757h36.97zm-39.73 0h-37.76l-5.36-32.757h37.04zm-39.74 0h-37.86l-4.63-32.757h37.1zm-39.77 0h-37.92l-3.91-32.757h37.2zm-39.73 0h-37.99l-3.22-32.757h37.27zm-39.77 0h-38.06l-2.5-32.757h37.34zm-39.77 0h-38.09l-1.77-32.757h37.37zm-37.23 46.102H1048l-1.28-39.362h38.26zm-38.92 57.021h-40.39l-.56-50.281h39.28zm-40.42 149.361h-43.649l.789-72.254h42.07zm-43.682-149.361h-40.392l1.676-50.281h39.275zm-40.162-57.021h-39.111l2.137-39.362h38.256zM885.677 98.81h-38.092l2.498-32.757h37.369zm-39.834 0h-38.026l3.221-32.757h37.336zm-39.801 0h-37.993l3.944-32.757h37.27zm-39.801 0h-37.927l4.634-32.757h37.204zm-39.833 0h-37.862l5.357-32.757h37.139zm-39.834 0h-37.763l6.08-32.757h37.04zm-39.834 0h-37.665l6.771-32.757h36.974zm-39.834 0h-37.599l7.527-32.757h36.876zm-39.834 0h-37.5l8.25-32.757h36.744zm-39.833 0h-37.402l8.94-32.757h36.678zm-39.867 0h-37.27l9.663-32.757h36.547zm-39.834 0H410.4l10.352-32.757h36.449zm-39.833 0h-37.041l11.076-32.757h36.317zm-39.867 0h-36.909l11.799-32.757h36.186zm-39.834 0h-36.81l12.522-32.757h36.087zm-39.866 0h-36.679l13.245-32.757h35.956zm-39.834 0h-36.547l13.935-32.757h35.824zm-39.867 0h-36.416l14.659-32.757h35.692zm-39.867 0h-36.284l15.382-32.757h35.561zm-39.833 0H92.584l16.071-32.757h35.463zm.394 6.74h36.449l-17.617 39.362H110.66zm19.26 46.102h37.566l-21.429 50.281h-38.684zm13.278 57.022L134.62 272.3H94.424l28.43-63.626zM135.08 279.04h40.458l-29.152 72.254h-42.069zm11.766 78.994h42.299l-31.782 83.308h-44.139zm11.01 90.048h44.402l-33.95 94.227h-46.473zm10.977 100.967h46.736l-37.073 109.729h-49.135zm10.189 116.469h49.398l-38.158 120.513h-52.027zm11.799 127.253h52.29l-39.407 133.858h-55.215zm13.475 140.598h55.478L219.71 1080.3h-58.699zm16.039 153.671h58.929l-39.078 155.84h-62.314zm20.541 162.58h62.577l-39.209 171.06H197.92zm21.823 177.8-41.707 182.12H150.56l45.684-182.12zm-40.984 188.86h70.695l-40.951 197.48h-75.001zm72.831 0h70.794l-36.613 197.48h-75.099zm72.865 0h70.859l-32.307 197.48h-75.165zm72.831 0H511.2l-28.002 197.48h-75.263zm72.864 0h71.024l-23.696 197.48h-75.33zm72.865 0h71.089l-19.391 197.48h-75.395zm72.864 0h71.155l-15.086 197.48h-75.46zm72.864 0h71.188l-10.747 197.48h-75.494zm72.897 0h71.221l-6.475 197.48h-75.526zm72.864 0h71.254l-2.169 197.48h-75.526zm72.897 0h71.253l2.14 197.48h-75.529zm72.893 0h71.26l6.44 197.48h-75.53zm72.9 0h71.22l10.78 197.48h-75.52zm72.93 0h71.19l15.05 197.48h-75.49zm72.9 0h71.15l19.4 197.48h-75.47zm72.93 0H1386l23.69 197.48h-75.39zm72.93 0h71.02l28 197.48h-75.32zm72.93 0h70.92l32.34 197.48h-75.26zm72.93 0h70.86l36.61 197.48h-75.16zm72.93 0h70.79l40.92 197.48h-75.1zm72.93 0h70.69l45.26 197.48h-75zm29.71-188.86h66.45l45.69 182.12h-70.43zm-1.55-6.74-39.2-171.06h62.57l42.96 171.06zm-15.01-333.64h58.92l42.47 155.84h-62.32zm19.48-153.671h55.48l43.29 146.931h-58.7zm16.64-140.598h52.32l42.33 133.858h-55.25zm14.72-127.253h49.4l40.78 120.513h-52.02zm12.85-116.469h46.74l39.47 109.729h-49.14zm13.31-100.967h44.4l36.02 94.227h-46.47zm13.11-90.048h42.34l33.58 83.308h-44.13zm13.61-78.994h40.46l30.76 72.254h-42.07zm13.87-70.366h38.82l28.42 63.626h-40.22zm-2.86-6.741-21.43-50.281h37.57l22.54 50.281zm-1.05-96.383h36.45l18.47 39.362h-37.3zm21.46-39.497h35.46l16.07 32.757h-36.15zm-3.15-6.74-13.32-28.443h34.68l13.93 28.443zm-3.55 0h-35.43L1773 30.87h34.84zm-38.88 0h-35.57l-12.06-28.443h34.94zm-38.85 0h-35.7l-11.47-28.443h35.07zm-38.88 0h-35.79L1657.9 30.87h35.2zm-38.85 0h-35.92l-10.26-28.443h35.33zm-38.88 0h-36.06l-9.59-28.443h35.43zm-38.85 0h-36.18l-8.98-28.443h35.56zm-38.88 0h-36.28l-8.39-28.443h35.7zm-38.88 0h-36.38l-7.76-28.443h35.79zm-38.85 0h-36.51l-7.13-28.443h35.89zm-38.88 0h-36.61l-6.51-28.443h35.99zm-38.88 0h-36.71L1351 30.87h36.08zm-38.88 0h-36.81l-5.26-28.443h36.19zm-38.88 0h-36.91l-4.63-28.443h36.28zm-38.88 0h-36.98l-4.04-28.443h36.38zm-38.88 0h-37.08l-3.38-28.443h36.42zm-38.92 0h-37.1l-2.8-28.443h36.52zm-38.88 0h-37.17l-2.17-28.443h36.55zm-38.91 0h-37.2l-1.55-28.443h36.58zm-38.52 6.74 1.78 32.757h-38.13l-1.05-32.757zm-36.48 78.859h-39.14l-.43-39.362h38.25zm-39.67-46.102-.36-32.757h37.43l1.09 32.757zm.26 173.49h-41.934l.69-63.626h40.554zM965.279 98.81h-38.158l1.085-32.757h37.434zm-.099 6.74-.427 39.362h-39.144l1.315-39.362zm-39.702-6.74h-38.125l1.775-32.757h37.402zm-37.665-39.497h-37.204l2.169-28.443h36.58zm-38.946 0h-37.172l2.794-28.443h36.547zm-38.947 0h-37.105L776.2 30.87h36.514zm-38.946 0h-37.073l4.043-28.443h36.448zm-38.979 0H695.02l4.635-28.443h36.382zm-38.947 0H656.14l5.258-28.443h36.285zm-38.979 0h-36.81l5.883-28.443h36.186zm-38.979 0h-36.712l6.508-28.443h36.087zm-38.979 0h-36.613l7.132-28.443h35.988zm-38.98 0h-36.514l7.757-28.443h35.889zm-38.979 0h-36.383l8.348-28.443h35.792zm-38.979 0h-36.284l8.972-28.443h35.693zm-38.979 0h-36.186l9.597-28.443h35.561zm-38.98 0H345.16l10.222-28.443h35.429zm-39.012 0H306.28l10.845-28.443h35.332zm-38.979 0h-35.791l11.437-28.443h35.2zm-38.979 0h-35.693l12.095-28.443h35.068zm-38.979 0h-35.562L202.39 30.87h34.936zm-39.013 0h-35.429l13.311-28.443h34.838zm-38.979 0h-35.298L125.91 30.87h34.674zm-39.012 0H73.094l14.56-28.443h34.575zm-3.287 6.74L88.87 98.81H52.85l16.794-32.757zm-15.71 39.497h36.318l-18.471 39.362H69.939zm18.241 46.102h37.435l-22.514 50.281H83.874zm11.898 57.022L91.006 272.3H50.91l29.81-63.626zm-27.97 70.366h40.327l-30.762 72.254H59.093zm10.025 78.994h42.2l-33.622 83.308H66.028zm9.038 90.048H154.8l-35.989 94.227H72.437zm8.775 100.967h46.637l-39.472 109.729H77.4zm7.658 116.469h49.266l-40.754 120.513H83.513zm9.038 127.253h52.159l-42.332 133.858H90.711zm10.419 140.598h55.346L158.448 1080.3H99.88zm12.653 153.671h58.831l-42.463 155.84h-62.249zm16.992 162.58h62.479l-42.924 171.06h-66.225zm17.846 177.8-45.684 182.12H77.86l49.661-182.12zm-45.026 188.86h70.596l-45.224 197.48H99.321zm26.063 204.22h75.164l-43.679 210.56h-79.733zm77.301 0h75.263L288.4 2031.06h-79.831zm77.334 0h75.296l-34.444 210.56h-79.93zm77.301 0h75.395l-29.875 210.56h-79.997zm77.301 0h75.494l-25.274 210.56h-80.095zm77.334 0h75.527l-20.673 210.56h-80.161zm77.301 0h75.593l-16.072 210.56h-80.193zm77.334 0h75.658l-11.503 210.56h-80.226zm77.335 0h75.69l-6.902 210.56h-80.292zm77.334 0h75.69l-2.3 210.56h-80.292zm77.334 0h75.727l2.3 210.56h-80.328zm77.367 0h75.69l6.9 210.56h-80.29zm77.37 0h75.65l11.51 210.56h-80.29zm77.33 0h75.66l16.1 210.56h-80.26zm77.37 0h75.62l20.68 210.56h-80.2zm77.4 0h75.52l25.31 210.56h-80.16zm77.36 0h75.5l29.87 210.56h-80.09zm77.4 0h75.4l34.48 210.56h-80zm77.4 0h75.3l39.08 210.56h-79.93zm77.37 0h75.26l43.65 210.56h-79.83zm77.4 0h75.17l48.24 210.56h-79.73zm30.63-204.22h70.6l49.53 197.48h-74.9zm25.57-188.86h66.36l49.66 182.12h-70.33zm-1.71-6.74-42.92-171.06h62.48l46.67 171.06zm-22.28-333.64h58.83l45.88 155.84h-62.25zm16.14-153.671h55.34l46.51 146.931h-58.57zm13.6-140.598H1836l45.26 133.858h-55.09zm11.93-127.253h49.27l43.42 120.513h-51.93zm10.29-116.469h46.64l41.87 109.729h-49.04zm11.11-100.967h44.3l38.06 94.227h-46.34zm11.14-90.048h42.2l35.43 83.308h-44.01zm11.9-78.994h40.33l32.34 72.254h-41.91zm12.36-70.366h38.68l29.81 63.626h-40.1zm-3.03-6.741-22.51-50.281h37.43l23.63 50.281zm-3.15-96.383h36.31l19.33 39.362h-37.17zm20.6-39.497h35.34l16.79 32.757h-36.02zm-3.28-6.74-13.97-28.443h34.57l14.56 28.443zm8.21-52.573 8.94 17.39h-34.41l-8.54-17.39zm-37.73 0 8.55 17.39h-34.51l-8.18-17.39zm-37.69 0 8.15 17.39h-34.64l-7.79-17.39zm-37.73 0 7.79 17.39h-34.78l-7.42-17.39zm-37.7 0 7.39 17.39h-34.9l-7.03-17.39zm-37.73 0 7.03 17.39h-35.03l-6.68-17.39zm-37.73 0 6.67 17.39h-35.17l-6.27-17.39zm-37.7 0 6.25 17.39h-35.27l-5.88-17.39zm-37.73 0 5.88 17.39h-35.39l-5.53-17.39zm-37.73 0 5.52 17.39h-35.53l-5.12-17.39zm-37.7 0 5.13 17.39h-35.66l-4.73-17.39zm-37.73 0 4.73 17.39H1426l-4.34-17.39zm-37.73 0 4.37 17.39h-35.85l-4.01-17.39zm-37.73 0 3.98 17.39h-35.96l-3.61-17.39zm-37.73 0 3.62 17.39h-36.06l-3.22-17.39zm-37.73 0 3.22 17.39h-36.15l-2.83-17.39zm-37.76 0 2.86 17.39h-36.22l-2.47-17.39zm-37.73 0 2.46 17.39h-36.28l-2.11-17.39zm-37.73 0 2.07 17.39h-36.35l-1.71-17.39zm-37.77 0 1.71 17.39h-36.41l-1.32-17.39zm-37.76 0 1.35 17.39h-36.48l-.96-17.39zm-34.9 52.573h-37.24l-.92-28.443h36.61zm-2.86-52.573.95 17.39h-36.48l-.56-17.39zm-36.06 52.573h-37.27l-.29-28.443h36.64zm-1.71-52.573.56 17.39h-36.48l-.2-17.39zm-73.912 0h36.152l.17 17.39h-36.486zm-.263 24.13h36.675l.3 28.443h-37.271zm-.361 35.183h37.406l.36 32.757h-38.128zm-.461 39.497h38.327l.42 39.362h-39.174zm38.817 46.102.56 50.281h-40.428l.558-50.281zM930.145 6.74h36.12l-.197 17.39h-36.482zm35.857 24.13-.296 28.443h-37.27l.92-28.443zm-73.62-24.13h36.087l-.559 17.39h-36.481zm35.298 24.13-.92 28.443h-37.238l1.545-28.443zM854.618 6.74h36.087l-.953 17.39h-36.481zm-37.763 0h36.022l-1.315 17.39h-36.416zm-1.775 0-1.709 17.39h-36.35l2.071-17.39zm-37.796 0-2.103 17.39h-36.284l2.465-17.39zm-37.829 0-2.465 17.39h-36.218l2.859-17.39zm-37.829 0L698.8 24.13h-36.153l3.221-17.39zm-37.796 0-3.253 17.39h-36.054l3.615-17.39zm-37.828 0-3.616 17.39h-35.955l3.976-17.39zm-37.829 0-4.01 17.39h-35.857l4.371-17.39zm-37.862 0-4.339 17.39h-35.758l4.733-17.39zm-37.829 0-4.733 17.39h-35.66l5.127-17.39zm-37.829 0-5.127 17.39h-35.529l5.522-17.39zm-37.829 0-5.522 17.39h-35.396l5.883-17.39zm-37.862 0-5.883 17.39h-35.298l6.277-17.39zm-37.829 0-6.277 17.39h-35.167l6.672-17.39zm-37.829 0-6.672 17.39h-35.035l7.033-17.39zm-37.862 0-7.033 17.39h-34.904L250.9 6.74zm-37.828 0-7.428 17.39h-34.773l7.79-17.39zm-37.862 0-7.79 17.39h-34.64l8.15-17.39zm-37.829 0-8.184 17.39H129.23l8.545-17.39zm-37.862 0-8.545 17.39H91.105l8.94-17.39zm-37.829 0-8.94 17.39H53.014l9.334-17.39zM14.954 24.13l9.663-17.39H58.37l-9.3 17.39zm34.477 6.74h34.41l-14.56 28.443H34.247zM13.114 98.81 30.63 66.053h35.2L49.036 98.81zm16.104 46.102 20.18-39.362h36.186l-19.359 39.362zm37.402 6.74h37.303l-23.598 50.281h-38.42zM7.428 272.3l31.157-63.626H77.17L47.36 272.3zm6.409 78.994 33.918-72.254h40.228l-32.34 72.254zm4.995 90.048 37.238-83.308h42.068l-35.43 83.308zm4.207 100.967 40.097-94.227h44.172l-38.026 94.227zm2.432 116.469L69.71 549.049h46.506L74.376 658.778zm3.32 127.253 46.045-120.513h49.168L80.588 786.031zm4.14 140.598 48.15-133.858h52.06L87.884 926.629zM38.75 1080.3l49.694-146.931h55.248L97.185 1080.3zm9.729 162.58 49.266-155.84h58.732l-45.881 155.84zm62.708 6.74h62.38l-46.67 171.06H60.77zM5.16 1609.54l53.638-182.12h66.258l-49.661 182.12zm16.992 204.22 53.867-197.48h70.498l-49.562 197.48zm22.612 217.3 52.848-210.56h75.067l-48.248 210.56zm113.848 230.65H73.85l51.271-223.91h79.898zm87.03 0h-84.861l46.407-223.91h79.964zm87.029 0h-84.959l41.51-223.91h80.062zm87.03 0h-85.058l36.613-223.91h80.161zm86.996 0h-85.123l31.749-223.91h80.226zm86.997 0h-85.156l26.852-223.91h80.292zm86.997 0h-85.222l21.987-223.91h80.325zm86.996 0h-85.254l17.09-223.91h80.391zm86.997 0h-85.288l12.194-223.91h80.423zm86.997 0H856.36l7.297-223.91h80.456zm1.643 0 2.432-223.91h80.454l2.43 223.91zm86.966 0-2.43-223.91h80.45l7.3 223.91zm86.99 0-7.32-223.91h80.42l12.19 223.91zm87 0-12.22-223.91h80.39l17.09 223.91zm87 0-17.09-223.91h80.32l21.99 223.91zm86.99 0-21.98-223.91h80.29l26.85 223.91zm87 0-26.85-223.91h80.23l31.74 223.91zm87 0-31.72-223.91h80.13l36.65 223.91zm87.03 0-36.62-223.91h80.07l41.51 223.91zm87.03 0-41.51-223.91h79.96l46.41 223.91zm171.79 0h-84.76l-46.41-223.91h79.9zm29.09-230.65h-79.67l-48.25-210.56h75.07zm22.61-217.3h-74.81l-49.56-197.48h70.5zm16.99-204.22h-70.24l-49.66-182.12h66.26zm-55.61-188.86h-66.13l-46.67-171.06h62.38zm12.29-177.8h-62.12l-45.88-155.84h58.73zm9.73-162.58h-58.44l-46.5-146.931h55.25zm5.82-153.671h-54.96l-45.25-133.858h52.06zm4.14-140.598h-51.8l-43.42-120.513h49.17zm3.32-127.253h-48.87l-41.88-109.729h46.51zm2.43-116.469h-46.24l-38.03-94.227h44.17zm4.21-100.967h-43.88l-35.43-83.308h42.07zm4.99-90.048h-41.8l-32.34-72.254h40.22zm6.41-78.994h-39.93l-29.81-63.626h38.58zm-34.48-70.367h-38.42l-23.59-50.281h37.3zm12.72-57.021h-37.04l-19.35-39.362h36.18zm16.08-46.102h-35.89l-16.83-32.757h35.2zm-21.14-39.497h-35.03l-14.56-28.443h34.41zm19.29-35.183h-34.11l-9.3-17.39h33.75z"/></svg>