<svg xmlns="http://www.w3.org/2000/svg" width="1920" height="3149" fill="none"><path fill="#D89BFF" d="m354.668-408.122-699.36-547.138a364.8 364.8 0 0 0-130.355-65.05l-336.363-90.12c-287.28-76.98-591.87 35.51-760.17 280.722-191.39 278.875-156.61 654.598 82.73 893.595l181.19 180.932c240.95 240.605 335.12 591.542 246.99 920.451-136.14 508.08 165.38 1030.33 673.465 1166.47l348.276 93.32a986.16 986.16 0 0 1 518.493 341.13l68.95 87.25c160.04 202.52 410.218 312.33 667.616 293.03 542.31-40.67 876.08-611.59 645.5-1104.11l-333.65-712.63c-84.11-179.67-284.76-273.37-476.52-222.53-286.848 76.04-557.006-168.322-510.038-461.342l65.795-410.474c39.188-244.477-57.539-490.941-252.549-643.506"/></svg>