<svg width="1920" height="3865" viewBox="0 0 1920 3865" fill="none" xmlns="http://www.w3.org/2000/svg">
<g opacity="0.32" filter="url(#filter0_d_4745_44183)">
<path d="M183.539 800.136C183.539 882.903 167.69 957.785 142.111 1011.94C116.496 1066.17 81.3051 1099.27 42.7694 1099.27C4.23375 1099.27 -30.9569 1066.17 -56.5725 1011.94C-82.1517 957.785 -98 882.903 -98 800.136C-98 717.37 -82.1517 642.488 -56.5725 588.335C-30.9569 534.105 4.23375 501 42.7694 501C81.3051 501 116.496 534.105 142.111 588.335C167.69 642.488 183.539 717.37 183.539 800.136Z" stroke="#312C2C" stroke-opacity="0.6" stroke-width="2"/>
<path d="M341.214 800.136C341.214 882.903 325.365 957.785 299.786 1011.94C274.17 1066.17 238.98 1099.27 200.444 1099.27C161.909 1099.27 126.718 1066.17 101.102 1011.94C75.5231 957.785 59.6748 882.903 59.6748 800.136C59.6748 717.37 75.5231 642.488 101.102 588.335C126.718 534.105 161.909 501 200.444 501C238.98 501 274.17 534.105 299.786 588.335C325.365 642.488 341.214 717.37 341.214 800.136Z" stroke="#312C2C" stroke-opacity="0.6" stroke-width="2"/>
<path d="M539 800.136C539 882.903 523.151 957.785 497.572 1011.94C471.957 1066.17 436.766 1099.27 398.23 1099.27C359.695 1099.27 324.504 1066.17 298.888 1011.94C273.309 957.785 257.461 882.903 257.461 800.136C257.461 717.37 273.309 642.488 298.888 588.335C324.504 534.105 359.695 501 398.23 501C436.766 501 471.957 534.105 497.572 588.335C523.151 642.488 539 717.37 539 800.136Z" stroke="#312C2C" stroke-opacity="0.6" stroke-width="2"/>
</g>
<path d="M155.5 1039L163.012 1075.54L192.46 1052.34L174.521 1085.11L212.126 1086.1L177.129 1099.78L205.296 1124.5L169.618 1112.68L175.166 1149.56L155.5 1117.77L135.834 1149.56L141.382 1112.68L105.704 1124.5L133.871 1099.78L98.8736 1086.1L136.479 1085.11L118.54 1052.34L147.988 1075.54L155.5 1039Z" fill="#EEDC3B"/>
<path d="M-292.594 2348.16L-1096.61 2725.01C-1141.03 2745.83 -1180.8 2775.4 -1213.52 2811.94L-1445.85 3071.33C-1644.28 3292.87 -1681.49 3615.44 -1538.72 3876.34C-1376.35 4173.05 -1025.42 4311.72 -704.094 4206.12L-460.833 4126.18C-137.342 4019.88 218.293 4094.36 471.939 4321.54C863.761 4672.49 1465.89 4639.34 1816.83 4247.52L2057.39 3978.94C2199.01 3820.82 2387.88 3712.61 2595.92 3670.41L2704.91 3648.3C2957.88 3596.98 3168.84 3423.37 3267.87 3185C3476.52 2682.8 3117.9 2127.14 2574.33 2110.43L1787.83 2086.24C1589.55 2080.14 1415.33 2216.84 1374.07 2410.88C1312.36 2701.15 972.326 2831.82 732.109 2657.57L395.602 2413.48C195.18 2268.1 -68.4006 2243.08 -292.594 2348.16Z" fill="#6D55E8"/>
<g opacity="0.32">
<path d="M1825.04 1725.14C1825.04 1807.96 1809.18 1882.92 1783.56 1937.15C1757.93 1991.42 1722.61 2024.77 1683.77 2024.77C1644.93 2024.77 1609.61 1991.42 1583.98 1937.15C1558.36 1882.92 1542.5 1807.96 1542.5 1725.14C1542.5 1642.31 1558.36 1567.35 1583.98 1513.12C1609.61 1458.85 1644.93 1425.5 1683.77 1425.5C1722.61 1425.5 1757.93 1458.85 1783.56 1513.12C1809.18 1567.35 1825.04 1642.31 1825.04 1725.14Z" stroke="white"/>
<path d="M1982.71 1725.14C1982.71 1807.96 1966.86 1882.92 1941.24 1937.15C1915.6 1991.42 1880.29 2024.77 1841.44 2024.77C1802.6 2024.77 1767.29 1991.42 1741.65 1937.15C1716.03 1882.92 1700.17 1807.96 1700.17 1725.14C1700.17 1642.31 1716.03 1567.35 1741.65 1513.12C1767.29 1458.85 1802.6 1425.5 1841.44 1425.5C1880.29 1425.5 1915.6 1458.85 1941.24 1513.12C1966.86 1567.35 1982.71 1642.31 1982.71 1725.14Z" stroke="white"/>
<path d="M2180.5 1725.14C2180.5 1807.96 2164.64 1882.92 2139.02 1937.15C2113.39 1991.42 2078.07 2024.77 2039.23 2024.77C2000.39 2024.77 1965.07 1991.42 1939.44 1937.15C1913.82 1882.92 1897.96 1807.96 1897.96 1725.14C1897.96 1642.31 1913.82 1567.35 1939.44 1513.12C1965.07 1458.85 2000.39 1425.5 2039.23 1425.5C2078.07 1425.5 2113.39 1458.85 2139.02 1513.12C2164.64 1567.35 2180.5 1642.31 2180.5 1725.14Z" stroke="white"/>
</g>
<path fill-rule="evenodd" clip-rule="evenodd" d="M1806.41 1975.8C1782.8 1975.76 1763.68 1956.61 1763.68 1933V1933H1763.68V1933C1763.68 1956.6 1744.58 1975.73 1721 1975.8C1744.58 1975.86 1763.68 1995 1763.68 2018.59H1763.68C1763.68 1994.98 1782.8 1975.84 1806.41 1975.8Z" fill="#4B2ED1"/>
<rect x="1791" y="1415.47" width="42.7042" height="42.7042" rx="4.06988" transform="rotate(-25.281 1791 1415.47)" fill="#DE9CFD"/>
<rect x="1847.85" y="1435.85" width="42.7042" height="42.7042" rx="4.06988" transform="rotate(-25.281 1847.85 1435.85)" fill="#DE9CFD"/>
<defs>
<filter id="filter0_d_4745_44183" x="-103" y="500" width="647" height="608.273" filterUnits="userSpaceOnUse" color-interpolation-filters="sRGB">
<feFlood flood-opacity="0" result="BackgroundImageFix"/>
<feColorMatrix in="SourceAlpha" type="matrix" values="0 0 0 0 0 0 0 0 0 0 0 0 0 0 0 0 0 0 127 0" result="hardAlpha"/>
<feOffset dy="4"/>
<feGaussianBlur stdDeviation="2"/>
<feComposite in2="hardAlpha" operator="out"/>
<feColorMatrix type="matrix" values="0 0 0 0 0 0 0 0 0 0 0 0 0 0 0 0 0 0 0.21 0"/>
<feBlend mode="normal" in2="BackgroundImageFix" result="effect1_dropShadow_4745_44183"/>
<feBlend mode="normal" in="SourceGraphic" in2="effect1_dropShadow_4745_44183" result="shape"/>
</filter>
</defs>
</svg>
