<svg xmlns="http://www.w3.org/2000/svg" width="331" height="75" fill="none"><mask id="a" width="331" height="74" x="0" y=".684" fill="#000" maskUnits="userSpaceOnUse"><path fill="#fff" d="M0 .684h331v74H0z"/><path fillRule="evenodd" d="m328.616 2.684-40.627 17.083L329 37.012v1.202l-41.011 17.245 39.452 16.589H2V2.684z" clipRule="evenodd"/></mask><path fill="#D89BFF" fillRule="evenodd" d="m328.616 2.684-40.627 17.083L329 37.012v1.202l-41.011 17.245 39.452 16.589H2V2.684z" clipRule="evenodd"/><path fill="#000" d="m287.989 19.767-.775-1.842-4.381 1.842 4.381 1.843zm40.627-17.083.775 1.842-.775-3.841zM329 37.012h1.999v-1.328l-1.224-.514zm0 1.202.775 1.842 1.224-.515v-1.327zm-41.011 17.245-.775-1.843-4.381 1.843 4.381 1.842zm39.452 16.589v1.998l.774-3.84zM2 72.048H.001v1.998H2zM2 2.684v-2H.001v2zM288.764 21.61l40.627-17.084-1.55-3.685-40.627 17.084zm41.011 13.56-41.011-17.245-1.55 3.685 41.011 17.245zm1.224 3.044v-1.202h-3.998v1.202zM288.764 57.3l41.011-17.245-1.55-3.685-41.011 17.245zm39.451 12.904-39.451-16.589-1.55 3.685 39.452 16.59zM2 74.046h325.441V70.05H2zM.001 2.685v69.364H4V2.684zm328.615-2H2v3.998h326.616z" mask="url(#a)"/><path fill="#000" d="M21.125 44.547V30.87h1.954v13.677zm5.72-14.165a1.1 1.1 0 0 1 .9.332q.37.372.37.899a2.4 2.4 0 0 1-.214.899l-.626 1.817h-1.074l.254-1.485a1.1 1.1 0 0 1-.684-.528 1.5 1.5 0 0 1-.176-.84q.059-.43.352-.762.312-.332.899-.332m16.647.488v13.677h-1.954V34.485l-4.474 4.943-4.475-4.943v10.062h-1.953V30.87h1.29l5.137 5.666 5.139-5.666zm21.305 13.677h-2.09l-1.27-3.068h-5.764l-1.27 3.068h-2.09l5.626-13.677h1.231zm-4.162-5.021-2.07-5.06-2.091 5.06zm22.383 3.048v1.953h-9.379V30.87h1.935v11.704zm3.808-9.77v3.732h16.979v1.954H86.826v4.103h18.698v1.954H84.873V30.87h.977v-.02h19.811v1.955zm33.941 3.928v.977q0 1.387-.508 2.637a7.2 7.2 0 0 1-1.406 2.189 6.9 6.9 0 0 1-2.091 1.543 6.9 6.9 0 0 1-2.579.684 6.7 6.7 0 0 1-2.657-.332 7.4 7.4 0 0 1-2.286-1.25 7.5 7.5 0 0 1-1.68-1.974 6.9 6.9 0 0 1-.84-2.56 7.05 7.05 0 0 1 .156-2.676 6.9 6.9 0 0 1 1.094-2.345 7.3 7.3 0 0 1 1.876-1.797 6.7 6.7 0 0 1 2.481-1.036 7 7 0 0 1 1.387-.137 7 7 0 0 1 2.267.372q1.093.37 1.992 1.055a7 7 0 0 1 1.563 1.66q.684.959.997 2.13h-2.052a5 5 0 0 0-.781-1.368 4.8 4.8 0 0 0-1.114-1.015 5.2 5.2 0 0 0-1.348-.665 4.8 4.8 0 0 0-1.504-.234q-.626 0-1.173.136a4.9 4.9 0 0 0-1.699.743 4.9 4.9 0 0 0-1.29 1.25 5.08 5.08 0 0 0-.957 3.439q.098.956.488 1.778a5.3 5.3 0 0 0 1.055 1.446q.645.626 1.485.996.84.371 1.798.43a4.8 4.8 0 0 0 1.836-.234 5.3 5.3 0 0 0 1.583-.84 5.1 5.1 0 0 0 1.192-1.33 4.7 4.7 0 0 0 .683-1.719h-4.747v-1.953zm11.201 5.88v1.954h-7.893v-.02h-.977V30.87h8.616v1.954h-6.662v3.966h4.963v1.954h-4.963v3.869zm13.23-11.742v13.677h-.918l-8.206-9.69v9.69h-1.934V30.87h1.113l7.991 9.437V30.87zm13.884 4.123a8.5 8.5 0 0 1 0 5.45 7.1 7.1 0 0 1-.841 1.623 5.9 5.9 0 0 1-1.23 1.309 5.5 5.5 0 0 1-1.622.86 6.3 6.3 0 0 1-2.032.312h-5.256V30.87h5.256q1.113 0 2.032.313a5.3 5.3 0 0 1 1.622.88q.722.546 1.23 1.308.528.743.841 1.622m-1.837 4.787a6.1 6.1 0 0 0 .352-2.052 6.4 6.4 0 0 0-.352-2.09 4.8 4.8 0 0 0-.567-1.094 3.7 3.7 0 0 0-.84-.9 3.7 3.7 0 0 0-1.113-.605 3.8 3.8 0 0 0-1.368-.234h-3.302v9.808h3.302q.762 0 1.387-.215a4 4 0 0 0 1.094-.606q.489-.39.84-.899.353-.527.567-1.113m4.798 2.09a1.1 1.1 0 0 1 .899.332 1.2 1.2 0 0 1 .371.88q-.02.45-.214.918l-.626 1.817h-1.074l.254-1.485a1.1 1.1 0 0 1-.684-.528 1.5 1.5 0 0 1-.176-.84q.058-.429.352-.762.313-.332.898-.332m10.788 2.677V30.87h1.954v13.677zm27.918-13.677-4.846 13.677h-.508l-3.204-7.815-3.224 7.815h-.508l-4.845-13.677h2.071l3.145 8.89 3.361-8.128 3.341 8.128 3.165-8.89zm11.543 13.677h-2.091l-1.27-3.068h-5.764l-1.27 3.068h-2.09l5.627-13.677h1.231zm-4.162-5.021-2.071-5.06-2.091 5.06zm5.988 5.02V30.87h1.817l17.076 11.04V30.87h1.954v13.677h-1.446l-17.467-11.273v11.273zm31.936-13.656v1.954H242.4v11.703h-1.954V32.844h-3.653V30.89zm8.861 13.657V30.87h1.953v13.677zm15.918-13.677v13.677h-.919l-8.206-9.69v9.69h-1.934V30.87h1.114l7.991 9.437V30.87z"/><path fill="#000" d="M21.125 44.547h-.601v.601h.601zm0-13.677v-.601h-.601v.601zm1.954 0h.602v-.601h-.602zm0 13.677v.601h.602v-.601zm-1.352 0V30.87h-1.203v13.677zm-.602-13.075h1.954v-1.203h-1.954zm1.353-.602v13.677h1.203V30.87zm.601 13.076h-1.954v1.202h1.954zm3.767-13.564v.601h.022l.022-.001zm.898.332-.425.425zm.372.899.6.025v-.025zm-.215.899-.548-.25-.012.027-.01.027zm-.626 1.817v.601h.43l.14-.406zm-1.074 0-.593-.102-.12.703h.713zm.254-1.485.593.101.09-.529-.515-.15zm-.684-.528-.533.28.006.01zm-.176-.84L25 31.395l-.002.013v.014zm.352-.762-.438-.412-.007.007-.006.007zm.943.268a.5.5 0 0 1 .429.157l.85-.85a1.7 1.7 0 0 0-1.368-.507zm.429.157c.134.134.195.28.195.474h1.203c0-.51-.187-.963-.547-1.324zm.196.449a1.8 1.8 0 0 1-.162.675l1.095.497q.244-.535.268-1.122zm-.183.728-.625 1.817 1.137.391.625-1.817zm-.057 1.411h-1.074v1.203h1.074zm-.481.703.254-1.485-1.186-.203-.254 1.485zm-.17-2.164c-.177-.05-.267-.133-.326-.24l-1.054.58a1.7 1.7 0 0 0 1.042.815zm-.32-.229a.9.9 0 0 1-.11-.506l-1.198-.11c-.037.41.05.806.242 1.174zm-.113-.48a.8.8 0 0 1 .207-.445l-.902-.796a2 2 0 0 0-.497 1.079zm.194-.43c.064-.07.186-.144.46-.144V29.78c-.506 0-.984.148-1.336.522zm17.107-.257h.6v-.601h-.6zm0 13.677v.601h.6v-.601zm-1.954 0h-.602v.601h.602zm0-10.062h.601v-1.56l-1.047 1.156zm-4.474 4.943-.446.404.445.492.446-.492zm-4.475-4.943.446-.404-1.047-1.157v1.56zm0 10.062v.601h.602v-.601zm-1.953 0h-.602v.601h.602zm0-13.677v-.601h-.602v.601zm1.29 0 .445-.404-.18-.197h-.266zm5.137 5.666-.445.404.445.492.446-.492zm5.139-5.666v-.601h-.267l-.178.197zm.688 0v13.677h1.203V30.87zm.602 13.076h-1.954v1.202h1.954zm-1.353.6V34.486h-1.203v10.062zm-1.047-10.465-4.474 4.943.891.807 4.475-4.943zm-3.583 4.943-4.474-4.943-.891.807 4.474 4.944zm-5.521-4.54v10.063h1.203V34.485zm.601 9.462h-1.953v1.202h1.953zm-1.352.6V30.87h-1.203v13.677zm-.601-13.074h1.29v-1.203h-1.29zm.844-.198 5.138 5.666.891-.808-5.138-5.666zm6.029 5.666 5.139-5.666-.892-.808-5.138 5.666zm4.693-5.468h1.29v-1.203h-1.29zm22.595 13.075v.601h.898l-.342-.83zm-2.09 0-.556.23.153.371h.402zm-1.27-3.068.555-.23-.154-.371h-.402zm-5.764 0v-.601h-.402l-.154.371zm-1.27 3.068v.601h.402l.153-.371zm-2.09 0-.557-.229-.342.83h.898zm5.626-13.677v-.601h-.403l-.153.373zm1.231 0 .556-.228-.153-.373h-.403zm1.465 8.656v.601h.896l-.34-.83zm-2.07-5.06.556-.228-.554-1.354-.559 1.352zm-2.091 5.06-.556-.23-.343.831h.899zm8.323 4.42h-2.09v1.202h2.09zm-1.535.37-1.27-3.067-1.111.46 1.27 3.068zm-1.826-3.438h-5.763v1.203h5.763zm-6.319.371-1.27 3.068 1.111.46 1.27-3.068zm-.714 2.697h-2.09v1.202h2.09zm-1.535.83 5.627-13.677-1.112-.457-5.627 13.676zm5.071-13.304h1.231v-1.203h-1.23zm.675-.373 5.627 13.677 1.112-.458-5.627-13.676zm2.578 8.199-2.071-5.06-1.113.455 2.07 5.06zm-3.184-5.062-2.09 5.06 1.112.46 2.09-5.061zm-1.534 5.891h4.161v-1.203h-4.161zm26.544 2.447h.601v-.602h-.601zm0 1.953v.602h.601v-.602zm-9.379 0h-.6v.602h.6zm0-13.657v-.601h-.6v.601zm1.935 0h.601v-.601h-.601zm0 11.704h-.602v.6h.602zm6.842 0v1.953h1.203v-1.953zm.602 1.352h-9.379v1.203h9.379zm-8.777.601V30.87h-1.203v13.657zm-.602-13.055h1.935v-1.203H73.64zm1.333-.602v11.704h1.203V30.87zm.602 12.305h7.444v-1.203h-7.444zm11.252-10.37v-.602h-.601v.602zm0 3.731h-.601v.602h.601zm16.979 0h.601v-.601h-.601zm0 1.954v.602h.601v-.602zm-16.979 0v-.601h-.601v.601zm0 4.103h-.601v.601h.601zm18.698 0h.602v-.601h-.602zm0 1.954v.601h.602v-.601zm-20.651 0h-.602v.601h.602zm0-13.677v-.601h-.602v.601zm.977 0v.602h.6v-.602zm0-.02v-.6h-.602v.6zm19.811 0h.601v-.6h-.601zm0 1.955v.601h.601v-.601zm-19.436 0v3.731h1.203v-3.731zm.601 4.333h16.979v-1.203H86.826zm16.377-.602v1.954h1.203v-1.954zm.602 1.353H86.826v1.203h16.979zm-17.58.601v4.103h1.203V38.49zm.601 4.704h18.698v-1.202H86.826zm18.097-.6v1.953h1.203v-1.954zm.601 1.352H84.873v1.202h20.651zm-20.05.6V30.87h-1.203v13.677zm-.601-13.074h.977v-1.203h-.977zm1.578-.602v-.02h-1.203v.02zm-.601.582h19.811V30.25H85.85zm19.21-.601v1.954h1.202V30.85zm.601 1.352H86.826v1.203h18.835zm15.106 4.529h.602v-.602h-.602zm-.508 3.614.556.23.002-.003zm-1.406 2.189-.439-.412-.004.005zm-2.091 1.543-.262-.541-.003.001zm-2.579.684.042.6zm-2.657-.332-.193.57zm-2.286-1.25-.382.464.004.003zm-1.68-1.974-.524.296.007.01zm-.84-2.56-.597.076zm.156-2.676-.582-.15zm1.094-2.345.488.352zm1.876-1.797.333.5.006-.004zm2.481-1.036.118.59h.003zm3.654.235-.194.57zm1.992 1.055-.364.478zm1.563 1.66-.497.339.008.011zm.997 2.13v.602h.783l-.202-.757zm-2.052 0-.561.216.148.386h.413zm-.781-1.368.468-.377zm-1.114-1.015-.341.495.011.007zm-4.025-.762.135.586.011-.003zm-1.699.742.333.5.009-.006zm-1.29 1.25.486.355.004-.006zm-.781 1.602-.578-.166zm-.176 1.837-.6.049.002.012zm.488 1.778-.543.258.005.01zm1.055 1.446-.418.431zm1.485.996.243-.55zm1.798.43-.037.6zm3.419-1.075-.369-.474zm1.192-1.328-.505-.328-.005.01zm.683-1.72.591.111.134-.712h-.725zm-4.747 0h-.602v.602h.602zm0-1.953v-.602h-.602v.602zm6.178 0v.977h1.203v-.977zm0 .977q0 1.273-.464 2.41l1.115.454a7.6 7.6 0 0 0 .552-2.864zm-.463 2.408a6.6 6.6 0 0 1-1.289 2.006l.877.823a7.8 7.8 0 0 0 1.524-2.37zm-1.293 2.01a6.3 6.3 0 0 1-1.91 1.41l.524 1.082a7.5 7.5 0 0 0 2.272-1.678zm-1.913 1.411a6.3 6.3 0 0 1-2.356.624l.084 1.2a7.5 7.5 0 0 0 2.802-.744zm-2.356.624a6.1 6.1 0 0 1-2.422-.302l-.386 1.14a7.3 7.3 0 0 0 2.892.362zm-2.422-.302a6.8 6.8 0 0 1-2.101-1.149l-.756.936A8 8 0 0 0 111.333 45zm-2.097-1.145a6.9 6.9 0 0 1-1.545-1.816l-1.034.614a8.1 8.1 0 0 0 1.815 2.13zm-1.539-1.806a6.3 6.3 0 0 1-.767-2.338l-1.193.151q.19 1.501.914 2.78zm-.767-2.338a6.5 6.5 0 0 1 .142-2.451l-1.164-.3a7.7 7.7 0 0 0-.171 2.902zm.142-2.451a6.3 6.3 0 0 1 1-2.143l-.975-.704a7.5 7.5 0 0 0-1.189 2.547zm1-2.143a6.6 6.6 0 0 1 1.721-1.649l-.667-1a7.9 7.9 0 0 0-2.029 1.945zm1.727-1.653a6.1 6.1 0 0 1 2.26-.942l-.236-1.18a7.3 7.3 0 0 0-2.703 1.13zm2.263-.943a6.3 6.3 0 0 1 1.266-.124v-1.203q-.78 0-1.508.15zm1.266-.124a6.4 6.4 0 0 1 2.073.34l.387-1.14a7.6 7.6 0 0 0-2.46-.403zm2.073.34q1.004.34 1.822.963l.729-.957a7.6 7.6 0 0 0-2.164-1.146zm1.822.963q.818.621 1.43 1.52l.995-.676a7.7 7.7 0 0 0-1.696-1.8zm1.438 1.532q.619.866.905 1.935l1.162-.31a7.1 7.1 0 0 0-1.088-2.324zm1.486 1.179h-2.052v1.203h2.052zm-1.49.385a5.7 5.7 0 0 0-.875-1.53l-.936.756q.427.529.688 1.206zm-.875-1.53a5.4 5.4 0 0 0-1.252-1.14l-.66 1.005q.544.357.976.89zm-1.241-1.133a5.8 5.8 0 0 0-1.503-.74l-.371 1.143q.64.208 1.193.588zm-1.503-.74a5.5 5.5 0 0 0-1.69-.265v1.203q.689 0 1.319.205zm-1.69-.265q-.692-.001-1.318.155l.291 1.167a4.2 4.2 0 0 1 1.027-.119zm-1.307.152a5.5 5.5 0 0 0-1.908.834l.685.99a4.3 4.3 0 0 1 1.492-.651zm-1.899.828a5.5 5.5 0 0 0-1.446 1.403l.98.697q.463-.651 1.133-1.099zm-1.442 1.397a5.7 5.7 0 0 0-.873 1.79l1.155.333q.226-.779.69-1.414zm-.873 1.79a5.7 5.7 0 0 0-.198 2.052l1.199-.098a4.5 4.5 0 0 1 .154-1.62zm-.196 2.064a6 6 0 0 0 .543 1.975l1.086-.517a4.8 4.8 0 0 1-.433-1.58zm.548 1.986a5.9 5.9 0 0 0 1.175 1.608l.837-.863a4.7 4.7 0 0 1-.936-1.283zm1.175 1.608q.724.702 1.66 1.115l.486-1.1a4.5 4.5 0 0 1-1.309-.878zm1.66 1.115a5.8 5.8 0 0 0 2.004.48l.073-1.2a4.6 4.6 0 0 1-1.591-.38zm2.004.48a5.4 5.4 0 0 0 2.063-.264l-.38-1.141a4.2 4.2 0 0 1-1.61.205zm2.063-.264a5.9 5.9 0 0 0 1.762-.936l-.738-.95q-.619.483-1.404.745zm1.762-.936a5.7 5.7 0 0 0 1.333-1.484l-1.02-.638q-.435.694-1.051 1.173zm1.327-1.475a5.3 5.3 0 0 0 .77-1.937l-1.182-.221a4.1 4.1 0 0 1-.597 1.502zm.179-2.649h-4.747v1.203h4.747zm-4.146.601v-1.953h-1.203v1.953zm-.601-1.352h6.779V36.13h-6.779zm17.98 5.28h.602v-.602h-.602zm0 1.953v.602h.602v-.602zm-7.893 0h-.601v.602h.601zm0-.02h.601v-.6h-.601zm-.977 0h-.601v.602h.601zm0-13.676v-.601h-.601v.601zm8.616 0h.602v-.601h-.602zm0 1.954v.602h.602v-.602zm-6.662 0v-.601h-.601v.601zm0 3.966h-.601v.602h.601zm4.963 0h.601v-.601h-.601zm0 1.954v.602h.601v-.602zm-4.963 0v-.601h-.601v.601zm0 3.869h-.601v.601h.601zm6.315 0v1.953h1.203v-1.953zm.601 1.352h-7.893v1.203h7.893zm-7.292.601v-.02h-1.202v.02zm-.601-.62h-.977v1.202h.977zm-.375.6V30.87h-1.203v13.677zm-.602-13.074h8.616v-1.203h-8.616zm8.015-.602v1.954h1.203V30.87zm.601 1.353h-6.662v1.203h6.662zm-7.263.601v3.966h1.202v-3.966zm.601 4.568h4.963v-1.203h-4.963zm4.361-.602v1.954h1.203V36.79zm.602 1.353h-4.963v1.203h4.963zm-5.564.601v3.869h1.202v-3.869zm.601 4.47h6.916v-1.203h-6.916zm20.146-12.344h.601v-.601h-.601zm0 13.677v.601h.601v-.601zm-.918 0-.459.389.18.212h.279zm-8.206-9.69.459-.39-1.061-1.252v1.641zm0 9.69v.601h.601v-.601zm-1.934 0h-.602v.601h.602zm0-13.677v-.601h-.602v.601zm1.113 0 .459-.388-.18-.213h-.279zm7.991 9.437-.459.389 1.061 1.252v-1.64zm0-9.437v-.601h-.601v.601zm1.353 0v13.677h1.202V30.87zm.601 13.076h-.918v1.202h.918zm-.459.212-8.206-9.69-.918.777 8.206 9.69zm-9.267-9.302v9.69h1.203v-9.69zm.602 9.09h-1.934v1.202h1.934zm-1.333.6V30.87h-1.203v13.677zm-.601-13.074h1.113v-1.203h-1.113zm.654-.213 7.991 9.437.918-.777-7.991-9.437zm9.052 9.048V30.87h-1.203v9.437zm-.602-8.835h1.954v-1.203h-1.954zm15.838 3.52.569-.192-.003-.009zm0 5.452.565.206.004-.013zm-.841 1.622-.494-.343-.002.003zm-1.23 1.309.369.474.002-.001zm-1.622.86.194.569zm-7.288.312h-.601v.601h.601zm0-13.677v-.601h-.601v.601zm7.288.313-.194.57zm1.622.88-.378.468.007.005.008.006zm1.23 1.308-.5.334.005.007.005.008zm-.996 6.409.565.207.002-.007zm0-4.142.568-.197-.003-.01zm-.567-1.094-.5.333.006.009zm-.84-.9-.375.47.005.005.006.005zm-1.113-.605-.218.56.011.005.011.004zm-4.67-.234v-.602h-.601v.602zm0 9.808h-.601v.601h.601zm4.689-.215.196.568.007-.002.008-.003zm1.094-.606.374.472.002-.002zm.84-.899.495.343.006-.01zm1.834-5.707q.418 1.234.418 2.542h1.202q0-1.505-.481-2.928zm.418 2.542q0 1.288-.418 2.523l1.139.386a9 9 0 0 0 .481-2.909zm-.414 2.51a6.5 6.5 0 0 1-.769 1.485l.989.685a7.8 7.8 0 0 0 .911-1.759zm-.771 1.488a5.3 5.3 0 0 1-1.105 1.175l.742.947a6.5 6.5 0 0 0 1.356-1.443zm-1.104 1.174q-.615.48-1.446.765l.388 1.139a6.1 6.1 0 0 0 1.797-.955zm-1.446.765a5.7 5.7 0 0 1-1.838.28v1.203c.799 0 1.543-.112 2.226-.344zm-1.838.28h-5.256v1.203h5.256zm-4.654.602V30.87H147.5v13.677zm-.602-13.075h5.256v-1.203h-5.256zm5.256 0q1.028.002 1.838.28l.388-1.138a6.9 6.9 0 0 0-2.226-.345zm1.838.28a4.7 4.7 0 0 1 1.438.779l.755-.937a5.9 5.9 0 0 0-1.805-.98zm1.453.79q.64.484 1.093 1.163l1.001-.667a6 6 0 0 0-1.369-1.455zm1.103 1.178q.479.672.764 1.474l1.133-.403a7.2 7.2 0 0 0-.916-1.768zm.061 6.26q.386-1.094.386-2.252h-1.203q0 .951-.317 1.852zm.386-2.252q0-1.176-.385-2.287l-1.136.393a5.8 5.8 0 0 1 .318 1.894zm-.388-2.297a5.5 5.5 0 0 0-.637-1.23l-.989.685q.307.444.496.959zm-.631-1.221a4.3 4.3 0 0 0-.977-1.044l-.728.958q.406.307.704.753zm-.965-1.035a4.3 4.3 0 0 0-1.294-.705l-.391 1.138q.531.183.934.506zm-1.272-.697a4.4 4.4 0 0 0-1.585-.275v1.203c.446 0 .827.069 1.15.194zm-1.585-.275h-3.302v1.203h3.302zm-3.903.602v9.808h1.202v-9.808zm.601 10.409h3.302v-1.203h-3.302zm3.302 0a4.9 4.9 0 0 0 1.583-.248l-.391-1.137a3.7 3.7 0 0 1-1.192.182zm1.598-.253q.705-.263 1.257-.697l-.747-.944a3.4 3.4 0 0 1-.932.515zm1.259-.7q.557-.444.959-1.025l-.989-.685q-.301.435-.721.771zm.965-1.034q.39-.585.631-1.24l-1.13-.414a4.6 4.6 0 0 1-.502.987zm4.864.643v.602h.023l.022-.002zm.899.332-.425.426zm.371.88.601.026.001-.013v-.014zm-.214.918-.556-.231-.007.017-.006.018zm-.626 1.817v.601h.429l.14-.405zm-1.074 0-.593-.102-.12.703h.713zm.254-1.485.593.101.09-.528-.515-.15zm-.684-.528-.533.28.006.01zm-.176-.84-.596-.08-.002.012-.001.014zm.352-.762-.438-.412-.007.007-.006.007zm.943.268a.5.5 0 0 1 .429.158l.85-.85a1.7 1.7 0 0 0-1.368-.508zm.429.158c.139.139.195.28.195.453h1.203c0-.504-.191-.948-.548-1.304zm.196.427c-.01.22-.063.458-.17.714l1.111.462c.154-.37.244-.745.26-1.123zm-.183.75-.625 1.816 1.137.392.625-1.817zm-.057 1.41h-1.074v1.203h1.074zm-.481.703.254-1.485-1.186-.202-.254 1.484zm-.171-2.163c-.176-.052-.266-.133-.325-.24l-1.054.58c.228.413.593.683 1.042.814zm-.319-.23a.9.9 0 0 1-.11-.506l-1.198-.11c-.037.411.049.806.242 1.175zm-.113-.48a.8.8 0 0 1 .207-.445l-.902-.796a2.03 2.03 0 0 0-.497 1.08zm.194-.43c.064-.07.186-.143.46-.143v-1.203c-.506 0-.984.147-1.336.521zm11.248 1.932h-.601v.601h.601zm0-13.677v-.601h-.601v.601zm1.954 0h.602v-.601h-.602zm0 13.677v.601h.602v-.601zm-1.352 0V30.87h-1.203v13.677zm-.602-13.075h1.954v-1.203h-1.954zm1.353-.602v13.677h1.203V30.87zm.601 13.076h-1.954v1.202h1.954zm25.964-13.076.566.201.285-.802h-.851zm-4.846 13.677v.601h.425l.142-.4zm-.508 0-.556.228.153.373h.403zm-3.204-7.815.556-.228-.554-1.353-.558 1.351zm-3.224 7.815v.601h.403l.153-.372zm-.508 0-.567.2.142.401h.425zm-4.845-13.677v-.601h-.851l.284.802zm2.071 0 .567-.2-.142-.401h-.425zm3.145 8.89-.566.2.523 1.48.599-1.45zm3.361-8.128.556-.228-.554-1.35-.558 1.349zm3.341 8.128-.556.229.596 1.45.527-1.477zm3.165-8.89v-.601h-.424l-.142.4zm1.485-.2-4.846 13.676 1.134.402 4.845-13.677zm-4.279 13.276h-.508v1.202h.508zm.049.373-3.205-7.815-1.112.456 3.204 7.815zm-4.317-7.817-3.224 7.816 1.112.458 3.224-7.815zm-2.668 7.444h-.508v1.202h.508zm.059.4-4.845-13.676-1.134.401 4.845 13.677zm-5.412-12.874h2.071v-1.203h-2.071zm1.504-.401 3.146 8.89 1.133-.401-3.145-8.89zm4.268 8.919 3.361-8.128-1.112-.46-3.36 8.128zm2.249-8.129 3.341 8.128 1.112-.457-3.341-8.128zm4.464 8.1 3.165-8.889-1.133-.403-3.166 8.89zm2.598-8.49h2.052V30.27h-2.052zm13.595 13.076v.601h.897l-.341-.83zm-2.091 0-.556.23.154.371h.402zm-1.27-3.068.556-.23-.154-.371h-.402zm-5.764 0v-.601h-.401l-.154.371zm-1.27 3.068v.601h.402l.154-.371zm-2.09 0-.556-.229-.342.83h.898zm5.627-13.677v-.601h-.403l-.153.373zm1.231 0 .556-.228-.153-.373h-.403zm1.465 8.656v.601h.896l-.339-.83zm-2.071-5.06.557-.228-.554-1.354-.559 1.352zm-2.091 5.06-.555-.23-.344.831h.899zm8.324 4.42h-2.091v1.202h2.091zm-1.535.37-1.27-3.067-1.112.46 1.27 3.068zm-1.826-3.438h-5.764v1.203h5.764zm-6.319.371-1.27 3.068 1.111.46 1.27-3.068zm-.715 2.697h-2.09v1.202h2.09zm-1.534.83 5.627-13.677-1.112-.457-5.627 13.676zm5.071-13.304h1.231v-1.203h-1.231zm.675-.373 5.626 13.677 1.113-.458-5.627-13.676zm2.578 8.199-2.071-5.06-1.114.455 2.071 5.06zm-3.184-5.062-2.09 5.06 1.111.46 2.091-5.061zm-1.535 5.891h4.162v-1.203h-4.162zm10.15 4.42h-.601v.601h.601zm0-13.677v-.601h-.601v.601zm1.817 0 .327-.505-.149-.096h-.178zm17.076 11.04-.326.504.928.6V41.91zm0-11.04v-.601h-.601v.601zm1.954 0h.601v-.601h-.601zm0 13.677v.601h.601v-.601zm-1.446 0-.326.505.149.096h.177zm-17.467-11.273.326-.506-.927-.598v1.103zm0 11.273v.601h.602v-.601zm-1.333 0V30.87h-1.202v13.677zm-.601-13.075h1.817v-1.203h-1.817zm1.491-.097 17.076 11.04.653-1.01-17.076-11.04zm18.004 10.534V30.87h-1.203v11.04zm-.602-10.437h1.954v-1.203h-1.954zm1.353-.602v13.677h1.202V30.87zm.601 13.076h-1.446v1.202h1.446zm-1.12.096-17.467-11.274-.652 1.01 17.467 11.274zm-18.394-10.769v11.274h1.203V33.274zm.601 10.673h-1.934v1.202h1.934zm30.002-13.056h.601v-.602h-.601zm0 1.954v.601h.601v-.601zm-3.654 0v-.602h-.601v.602zm0 11.703v.601h.601v-.601zm-1.954 0h-.601v.601h.601zm0-11.703h.602v-.602h-.602zm-3.653 0h-.602v.601h.602zm0-1.954v-.602h-.602v.602zm8.659 0v1.954h1.203V30.89zm.602 1.352H242.4v1.203h3.654zm-4.255.602v11.703h1.202V32.844zm.601 11.102h-1.954v1.202h1.954zm-1.352.6V32.845h-1.203v11.703zm-.602-12.304h-3.653v1.203h3.653zm-3.052.602V30.89h-1.203v1.954zm-.601-1.353h9.261v-1.203h-9.261zm18.122 13.056h-.602v.601h.602zm0-13.677v-.601h-.602v.601zm1.953 0h.602v-.601h-.602zm0 13.677v.601h.602v-.601zm-1.352 0V30.87h-1.203v13.677zm-.601-13.075h1.953v-1.203h-1.953zm1.352-.602v13.677h1.203V30.87zm.601 13.076h-1.953v1.202h1.953zm13.965-13.076h.601v-.601h-.601zm0 13.677v.601h.601v-.601zm-.919 0-.459.389.18.212h.279zm-8.206-9.69.459-.39-1.06-1.252v1.641zm0 9.69v.601h.602v-.601zm-1.934 0h-.601v.601h.601zm0-13.677v-.601h-.601v.601zm1.114 0 .459-.388-.18-.213h-.279zm7.991 9.437-.459.389 1.06 1.252v-1.64zm0-9.437v-.601h-.602v.601zm1.352 0v13.677h1.203V30.87zm.602 13.076h-.919v1.202h.919zm-.46.212-8.206-9.69-.918.777 8.206 9.69zm-9.266-9.302v9.69h1.203v-9.69zm.601 9.09h-1.934v1.202h1.934zm-1.333.6V30.87h-1.202v13.677zm-.601-13.074h1.114v-1.203h-1.114zm.655-.213 7.991 9.437.918-.777-7.991-9.437zm9.051 9.048V30.87h-1.203v9.437zm-.601-8.835h1.954v-1.203h-1.954z"/></svg>