<svg xmlns="http://www.w3.org/2000/svg" width="419" height="263" fill="none"><path fill="#fff" d="M363.713 122.966c.552-2.766.905-5.591.905-8.487 0-27.71-26.447-50.19-59.09-50.19-.092 0-.169.015-.261.015-9.02-16.758-27.044-28.2-47.861-28.2-1.457 0-2.884.1-4.31.216C247.619 15.84 228.521.703 205.726.703c-18.409 0-34.439 9.879-42.799 24.464-4.357-1.057-8.897-1.665-13.591-1.665-31.141 0-56.39 24.522-56.39 54.78 0 2.332.199 4.62.49 6.865-27.796.87-50.238 22.075-52.079 48.828C17.166 144.737.645 166.246.645 191.043c0 35.56 33.932 64.398 75.81 64.398 19.957 0 38.089-6.561 51.619-17.251 13.285 14.919 33.779 24.494 56.789 24.494 25.925 0 48.674-12.153 61.498-30.432 11.689 14.904 30.128 24.522 50.898 24.522 16.829 0 32.138-6.33 43.566-16.643 5.124 1.333 10.477 2.115 16.031 2.115 34.008 0 61.59-26.782 61.59-59.821 0-30.823-23.946-56.142-54.733-59.459"/><path fill="#fff" stroke="#040203" stroke-linecap="round" stroke-linejoin="round" stroke-miterlimit="10" strokeWidth=".373" d="M363.713 122.966c.552-2.766.905-5.591.905-8.487 0-27.71-26.447-50.19-59.09-50.19-.092 0-.169.015-.261.015-9.02-16.758-27.044-28.2-47.861-28.2-1.457 0-2.884.1-4.31.216C247.619 15.84 228.521.703 205.726.703c-18.409 0-34.439 9.879-42.799 24.464-4.357-1.057-8.897-1.665-13.591-1.665-31.141 0-56.39 24.522-56.39 54.78 0 2.332.199 4.62.49 6.865-27.796.87-50.238 22.075-52.079 48.828C17.166 144.737.645 166.246.645 191.043c0 35.56 33.932 64.398 75.81 64.398 19.957 0 38.089-6.561 51.619-17.251 13.285 14.919 33.779 24.494 56.789 24.494 25.925 0 48.674-12.153 61.498-30.432 11.689 14.904 30.128 24.522 50.898 24.522 16.829 0 32.138-6.33 43.566-16.643 5.124 1.333 10.477 2.115 16.031 2.115 34.008 0 61.59-26.782 61.59-59.821 0-30.823-23.946-56.142-54.733-59.459"/><path fill="#fff" d="M17.184 186.32c0 15.904 7.378 30.36 19.39 41.006z"/><path stroke="#040203" stroke-linecap="round" stroke-linejoin="round" stroke-miterlimit="10" strokeWidth=".373" d="M17.184 186.32c0 15.904 7.378 30.36 19.39 41.006"/><path fill="#fff" d="M349.849 101.901c-5.277-14.194-18.393-25.42-35.037-30.026z"/><path stroke="#040203" stroke-linecap="round" stroke-linejoin="round" stroke-miterlimit="10" strokeWidth=".373" d="M349.849 101.901c-5.277-14.194-18.393-25.42-35.037-30.026"/></svg>