<svg xmlns="http://www.w3.org/2000/svg" width="346" height="346" fill="none"><path fill="#fff" fillRule="evenodd" d="M85.637 258.28c47.147 48.139 124.393 48.943 172.532 1.795s48.943-124.393 1.795-172.532S135.571 38.6 87.432 85.748 38.489 210.14 85.637 258.28m99.942-57.471-.012-.013c4.98 17.156-6.21 38.53-26.939 56.759l-3.021-12.574-6.998-29.203-3.78-15.747-9.932-2.581-.323-.068-5.359-1.405.154.157c-3.247-.787-5.953-1.515-7.626-2.103l-33.78-8.782c5.259-5.712 10.768-10.673 16.332-14.716 10.168-7.399 20.554-11.787 30.14-12.245 3.773-.189 7.411.24 10.875 1.326 9.258-9.631 18.953-17.488 28.5-23.41 10.794-6.682 21.371-10.899 30.903-12.43a58 58 0 0 1 3.168-.39c5.274-.533 10.191-.18 14.557 1.097 5.316 19.872-8.371 50.141-36.859 76.328m-7.732-44.683 11.142 11.377 9.932-9.727-11.143-11.377z" clipRule="evenodd"/><circle cx="172.801" cy="172.918" r="108.229" stroke="#8D7AFF" strokeWidth="8.708" transform="rotate(45.596 172.801 172.918)"/></svg>