<svg xmlns="http://www.w3.org/2000/svg" width="1898" height="1301" fill="none"><g stroke="#230E51" opacity=".5"><g style="mix-blend-mode:plus-lighter"><path d="M4.727-196.316v834.515M67.371-196.316v834.515M130.018-196.316v834.515M192.662-196.316v834.515M255.312-196.316v834.515M317.957-196.316v834.515M380.602-196.316v834.515M443.248-196.316v834.515M505.902-196.316v834.515M568.551-196.316v834.515M631.197-196.316v834.515M693.842-196.316v834.515M756.487-196.316v834.515M819.137-196.316v834.515M881.778-196.316v834.515M944.428-196.316v834.515M945.223 31.871H-19.99M945.223 86.031H-19.99M945.223 140.195H-19.99M945.223 194.359H-19.99M945.223 248.523H-19.99M945.223 302.688l-965.213-.001M945.223 356.848H-19.99M945.223 411.016H-19.99M945.223 465.176H-19.99M945.223 519.34H-19.99M945.223 573.504H-19.99M945.223 627.668H-19.99"/></g><g style="mix-blend-mode:plus-lighter"><path d="M4.713 638.168v834.512M67.353 638.168v834.512M129.998 638.168v834.512M192.648 638.168v834.512M255.293 638.168v834.512M317.939 638.168v834.512M380.584 638.168v834.512M443.234 638.168v834.512M505.893 638.168v834.512M568.541 638.168v834.512M631.188 638.168l-.001 834.512M693.832 638.168v834.512M756.478 638.168l-.001 834.512M819.127 638.168v834.512M881.768 638.168v834.512M944.418 638.168v834.512M945.213 649.699H-20M945.213 703.863H-20M945.213 758.027H-20M945.213 812.191H-20M945.213 866.355H-20M945.213 920.516H-20M945.213 974.68H-20M945.213 1028.84H-20M945.213 1083.01H-20M945.213 1137.17H-20M945.213 1191.33H-20M945.213 1245.5H-20M945.213 1299.66H-20"/></g><g style="mix-blend-mode:plus-lighter"><path d="M0-.5h834.516" transform="matrix(0 1 1 0 1884.69 -196.316)"/><path d="M0-.5h834.516" transform="matrix(0 1 1 0 1822.04 -196.316)"/><path d="M0-.5h834.516" transform="matrix(0 1 1 0 1759.4 -196.316)"/><path d="M0-.5h834.516" transform="matrix(0 1 1 0 1696.75 -196.316)"/><path d="M0-.5h834.516" transform="matrix(0 1 1 0 1634.1 -196.316)"/><path d="M0-.5h834.516" transform="matrix(0 1 1 0 1571.46 -196.316)"/><path d="M0-.5h834.516" transform="matrix(0 1 1 0 1508.81 -196.316)"/><path d="M0-.5h834.516" transform="matrix(0 1 1 0 1446.17 -196.316)"/><path d="M0-.5h834.516" transform="matrix(0 1 1 0 1383.52 -196.316)"/><path d="M0-.5h834.516" transform="matrix(0 1 1 0 1320.88 -196.316)"/><path d="M0-.5h834.516" transform="matrix(0 1 1 0 1258.23 -196.316)"/><path d="M0-.5h834.516" transform="matrix(0 1 1 0 1195.58 -196.316)"/><path d="M0-.5h834.516" transform="matrix(0 1 1 0 1132.94 -196.316)"/><path d="M0-.5h834.516" transform="matrix(0 1 1 0 1070.29 -196.316)"/><path d="M0-.5h834.516" transform="matrix(0 1 1 0 1007.65 -196.316)"/><path d="M0-.5h965.213" transform="matrix(1 0 0 -1 943.701 31.371)"/><path d="M0-.5h965.213" transform="matrix(1 0 0 -1 943.701 85.531)"/><path d="M0-.5h965.213" transform="matrix(1 0 0 -1 943.701 139.695)"/><path d="M0-.5h965.213" transform="matrix(1 0 0 -1 943.701 193.859)"/><path d="M0-.5h965.213" transform="matrix(1 0 0 -1 943.701 248.023)"/><path d="M0-.5h965.213" transform="matrix(1 0 0 -1 943.701 302.188)"/><path d="M0-.5h965.213" transform="matrix(1 0 0 -1 943.701 356.348)"/><path d="M0-.5h965.213" transform="matrix(1 0 0 -1 943.701 410.516)"/><path d="M0-.5h965.213" transform="matrix(1 0 0 -1 943.701 464.676)"/><path d="M0-.5h965.213" transform="matrix(1 0 0 -1 943.701 518.84)"/><path d="M0-.5h965.213" transform="matrix(1 0 0 -1 943.701 573.004)"/><path d="M0-.5h965.213" transform="matrix(1 0 0 -1 943.701 627.168)"/></g><g style="mix-blend-mode:plus-lighter"><path d="M0-.5h834.516" transform="matrix(0 1 1 0 1884.77 638.168)"/><path d="M0-.5h834.516" transform="matrix(0 1 1 0 1822.12 638.168)"/><path d="M0-.5h834.516" transform="matrix(0 1 1 0 1759.48 638.168)"/><path d="M0-.5h834.516" transform="matrix(0 1 1 0 1696.83 638.168)"/><path d="M0-.5h834.516" transform="matrix(0 1 1 0 1634.18 638.168)"/><path d="M0-.5h834.516" transform="matrix(0 1 1 0 1571.54 638.168)"/><path d="M0-.5h834.516" transform="matrix(0 1 1 0 1508.89 638.168)"/><path d="M0-.5h834.516" transform="matrix(0 1 1 0 1446.25 638.168)"/><path d="M0-.5h834.516" transform="matrix(0 1 1 0 1383.6 638.168)"/><path d="M0-.5h834.516" transform="matrix(0 1 1 0 1320.96 638.168)"/><path d="M0-.5h834.516" transform="matrix(0 1 1 0 1258.31 638.168)"/><path d="M0-.5h834.516" transform="matrix(0 1 1 0 1195.67 638.168)"/><path d="M0-.5h834.516" transform="matrix(0 1 1 0 1133.02 638.168)"/><path d="M0-.5h834.516" transform="matrix(0 1 1 0 1070.37 638.168)"/><path d="M0-.5h834.516" transform="matrix(0 1 1 0 1007.73 638.168)"/><path d="M0-.5h965.213" transform="matrix(1 0 0 -1 943.763 649.199)"/><path d="M0-.5h965.213" transform="matrix(1 0 0 -1 943.763 703.363)"/><path d="M0-.5h965.213" transform="matrix(1 0 0 -1 943.763 757.527)"/><path d="M0-.5h965.213" transform="matrix(1 0 0 -1 943.763 811.691)"/><path d="M0-.5h965.213" transform="matrix(1 0 0 -1 943.763 865.855)"/><path d="M0-.5h965.213" transform="matrix(1 0 0 -1 943.763 920.016)"/><path d="M0-.5h965.213" transform="matrix(1 0 0 -1 943.763 974.18)"/><path d="M0-.5h965.213" transform="matrix(1 0 0 -1 943.763 1028.34)"/><path d="M0-.5h965.213" transform="matrix(1 0 0 -1 943.763 1082.51)"/><path d="M0-.5h965.213" transform="matrix(1 0 0 -1 943.763 1136.67)"/><path d="M0-.5h965.213" transform="matrix(1 0 0 -1 943.763 1190.83)"/><path d="M0-.5h965.213" transform="matrix(1 0 0 -1 943.763 1245)"/><path d="M0-.5h965.213" transform="matrix(1 0 0 -1 943.763 1299.16)"/></g></g></svg>