<svg xmlns="http://www.w3.org/2000/svg" width="1779" height="843" fill="none"><mask id="a" fill="#fff"><path fillRule="evenodd" d="M28.434.684C12.73.684 0 13.414 0 29.117v706.497c0 15.703 12.73 28.433 28.434 28.433h827.951c15.703 0 28.433-12.73 28.433-28.433V493.862h-37.059a6.009 6.009 0 1 1 0-12.018h37.059V312.405h-37.059a6.009 6.009 0 1 1 0-12.018h37.059V29.117c0-15.703-12.73-28.433-28.433-28.433zM894.18 493.862h39.874a6.009 6.009 0 1 0 0-12.018H894.18V312.405h39.874a6.009 6.009 0 1 0 0-12.018H894.18V107.754c0-15.704 12.73-28.434 28.433-28.434h827.947c15.71 0 28.44 12.73 28.44 28.434V814.25c0 15.704-12.73 28.434-28.44 28.434H922.613c-15.703 0-28.433-12.73-28.433-28.434z" clipRule="evenodd"/></mask><path fill="#FAFAF2" fillRule="evenodd" d="M28.434.684C12.73.684 0 13.414 0 29.117v706.497c0 15.703 12.73 28.433 28.434 28.433h827.951c15.703 0 28.433-12.73 28.433-28.433V493.862h-37.059a6.009 6.009 0 1 1 0-12.018h37.059V312.405h-37.059a6.009 6.009 0 1 1 0-12.018h37.059V29.117c0-15.703-12.73-28.433-28.433-28.433zM894.18 493.862h39.874a6.009 6.009 0 1 0 0-12.018H894.18V312.405h39.874a6.009 6.009 0 1 0 0-12.018H894.18V107.754c0-15.704 12.73-28.434 28.433-28.434h827.947c15.71 0 28.44 12.73 28.44 28.434V814.25c0 15.704-12.73 28.434-28.44 28.434H922.613c-15.703 0-28.433-12.73-28.433-28.434z" clipRule="evenodd"/><path fill="#696594" d="M884.818 493.862h2v-2h-2zm0-12.018v2h2v-2zm0-169.439h2v-2h-2zm0-12.018v2h2v-2zm9.362 193.475v-2h-2v2zm0-12.018h-2v2h2zm0-169.439v-2h-2v2zm0-12.018h-2v2h2zM2 29.117C2 14.518 13.835 2.684 28.434 2.684v-4C11.626-1.316-2 12.309-2 29.117zm0 706.497V29.117h-4v706.497zm26.434 26.433C13.834 762.047 2 750.213 2 735.614h-4c0 16.808 13.626 30.433 30.434 30.433zm827.951 0H28.434v4h827.951zm26.433-26.433c0 14.599-11.834 26.433-26.433 26.433v4c16.808 0 30.433-13.625 30.433-30.433zm0-241.752v241.752h4V493.862zm2-2h-37.059v4h37.059zm-37.059 0a4.01 4.01 0 0 1-4.009-4.009h-4a8.01 8.01 0 0 0 8.009 8.009zm-4.009-4.009a4.01 4.01 0 0 1 4.009-4.009v-4a8.01 8.01 0 0 0-8.009 8.009zm4.009-4.009h37.059v-4h-37.059zm35.059-171.439v169.439h4V312.405zm-35.059 2h37.059v-4h-37.059zm-8.009-8.009a8.01 8.01 0 0 0 8.009 8.009v-4a4.01 4.01 0 0 1-4.009-4.009zm8.009-8.009a8.01 8.01 0 0 0-8.009 8.009h4a4.01 4.01 0 0 1 4.009-4.009zm37.059 0h-37.059v4h37.059zm-2-269.27v271.27h4V29.117zM856.385 2.684c14.599 0 26.433 11.834 26.433 26.433h4c0-16.808-13.625-30.433-30.433-30.433zm-827.951 0h827.951v-4H28.434zm905.62 489.178H894.18v4h39.874zm4.009-4.009a4.01 4.01 0 0 1-4.009 4.009v4a8.01 8.01 0 0 0 8.009-8.009zm-4.009-4.009a4.01 4.01 0 0 1 4.009 4.009h4a8.01 8.01 0 0 0-8.009-8.009zm-39.874 0h39.874v-4H894.18zm-2-171.439v169.439h4V312.405zm41.874-2H894.18v4h39.874zm4.009-4.009a4.01 4.01 0 0 1-4.009 4.009v4a8.01 8.01 0 0 0 8.009-8.009zm-4.009-4.009a4.01 4.01 0 0 1 4.009 4.009h4a8.01 8.01 0 0 0-8.009-8.009zm-39.874 0h39.874v-4H894.18zm-2-194.633v192.633h4V107.754zm30.433-30.434c-16.808 0-30.433 13.626-30.433 30.434h4c0-14.6 11.834-26.434 26.433-26.434zm827.947 0H922.613v4h827.947zm30.44 30.434c0-16.808-13.63-30.434-30.44-30.434v4c14.6 0 26.44 11.835 26.44 26.434zm0 706.496V107.754h-4V814.25zm-30.44 30.434c16.81 0 30.44-13.626 30.44-30.434h-4c0 14.599-11.84 26.434-26.44 26.434zm-827.947 0h827.947v-4H922.613zM892.18 814.25c0 16.808 13.625 30.434 30.433 30.434v-4c-14.599 0-26.433-11.835-26.433-26.434zm0-320.388V814.25h4V493.862z" mask="url(#a)"/></svg>