<svg xmlns="http://www.w3.org/2000/svg" width="834" height="602" fill="none"><path fill="#8CC0FF" stroke="#fff" strokeWidth="5" d="M323.321 66.492A266.32 266.32 0 0 0 57 332.813a266.32 266.32 0 0 0 266.321 266.321v-87.999a178.322 178.322 0 0 1 0-356.643z"/><path fill="#92E9D9" stroke="#fff" strokeWidth="5" d="M323.321 599.134a266.32 266.32 0 0 0 266.321-266.321h-87.999a178.33 178.33 0 0 1-52.23 126.093 178.33 178.33 0 0 1-126.092 52.229z"/><path fill="#AEACFF" stroke="#fff" strokeWidth="5" d="M629.002 321.005a266.3 266.3 0 0 0-45.907-149.48l-72.831 49.392a178.3 178.3 0 0 1 30.738 100.088z"/><path fill="#6E6CE8" stroke="#fff" strokeWidth="5" d="M543.363 182.785a266.3 266.3 0 0 0-122.137-97.644l-32.35 81.838a178.33 178.33 0 0 1 81.779 65.379z"/><path stroke="#fff" strokeWidth="5" d="M423.45 86.032a266.3 266.3 0 0 0-100.379-19.54l.083 88a178.3 178.3 0 0 1 67.211 13.083z"/><path fill="#fff" d="M110.904 52.94a10 10 0 0 1 1.067-.149q.513-.04.999-.04 1.552 0 2.74.472t1.998 1.296q.81.81 1.215 1.917.419 1.094.419 2.35 0 1.578-.567 2.888a6.6 6.6 0 0 1-1.553 2.241 7.1 7.1 0 0 1-2.389 1.472q-1.377.513-3.024.513a8 8 0 0 1-1.836-.203 9.4 9.4 0 0 1-1.634-.54 9.6 9.6 0 0 1-1.404-.796 10 10 0 0 1-1.174-.972l1.296-1.728q.202-.27.472-.405.27-.15.581-.149.405 0 .756.23.365.216.783.486.432.256.999.472t1.404.216 1.431-.27q.594-.283.958-.756.378-.486.54-1.12.176-.648.176-1.377 0-1.431-.81-2.174-.81-.756-2.295-.756a7 7 0 0 0-2.592.5l-2.592-.702 1.674-9.842h10.071v1.728q0 .433-.135.783t-.432.621a2 2 0 0 1-.756.405q-.472.135-1.134.135h-4.698zm24.788 2.902q0 2.58-.553 4.469t-1.539 3.132q-.972 1.242-2.322 1.85a6.9 6.9 0 0 1-2.903.607 6.9 6.9 0 0 1-2.902-.608q-1.323-.607-2.295-1.85-.972-1.24-1.526-3.131-.54-1.89-.54-4.469 0-2.578.54-4.468.554-1.89 1.526-3.132t2.295-1.836a6.9 6.9 0 0 1 2.902-.608q1.566 0 2.903.608 1.35.594 2.322 1.836.986 1.242 1.539 3.132t.553 4.468m-4.32 0q0-2.038-.256-3.334-.257-1.31-.689-2.052-.418-.743-.958-1.013a2.3 2.3 0 0 0-1.094-.283q-.553 0-1.093.283-.526.27-.945 1.013-.405.742-.662 2.052-.243 1.296-.243 3.334 0 2.052.243 3.348.257 1.296.662 2.052.419.742.945 1.026.54.27 1.093.27.554 0 1.094-.27.54-.283.958-1.026.432-.756.689-2.052t.256-3.348m15.203-5.062q0 1.08-.391 1.97a5 5 0 0 1-1.04 1.54 4.6 4.6 0 0 1-1.512.985 4.6 4.6 0 0 1-1.782.351 5 5 0 0 1-1.89-.35 4.5 4.5 0 0 1-1.485-.986 4.7 4.7 0 0 1-.972-1.54 5.3 5.3 0 0 1-.351-1.97q0-1.12.351-2.025a4.6 4.6 0 0 1 .972-1.566 4.4 4.4 0 0 1 1.485-1 4.8 4.8 0 0 1 1.89-.364q1.026 0 1.89.365a4.2 4.2 0 0 1 1.499.999q.634.648.985 1.566.351.905.351 2.025m-3.213 0q0-.69-.121-1.134-.108-.46-.311-.73a1.1 1.1 0 0 0-.486-.377 1.6 1.6 0 0 0-.594-.108q-.324 0-.594.108t-.459.378-.297.729q-.108.445-.108 1.134 0 .648.108 1.08t.297.688.459.365.594.108.594-.108q.284-.108.486-.365.203-.255.311-.688.121-.432.121-1.08m9.396-4.145q.203-.23.5-.418.297-.203.823-.203h3.051L142.309 65.09a1.7 1.7 0 0 1-.513.432 1.5 1.5 0 0 1-.729.162h-3.132zm5.13 14.432q0 1.08-.391 1.984a5 5 0 0 1-1.04 1.54 4.6 4.6 0 0 1-1.512.985 4.6 4.6 0 0 1-1.782.35 5 5 0 0 1-1.89-.35 4.5 4.5 0 0 1-1.485-.986 4.7 4.7 0 0 1-.972-1.539 5.4 5.4 0 0 1-.351-1.984q0-1.12.351-2.025a4.6 4.6 0 0 1 .972-1.566 4.4 4.4 0 0 1 1.485-1 4.8 4.8 0 0 1 1.89-.364q1.026 0 1.89.365a4.2 4.2 0 0 1 1.499.999q.634.648.985 1.566.351.904.351 2.025m-3.213 0q0-.676-.121-1.12-.108-.46-.311-.73a1.1 1.1 0 0 0-.486-.378 1.6 1.6 0 0 0-.594-.108q-.324 0-.594.108t-.459.378-.297.73q-.108.444-.108 1.12 0 .648.108 1.08t.297.688.459.365.594.108.594-.108q.284-.108.486-.365.203-.255.311-.688.121-.432.121-1.08"/><path fill="#CECECE" d="M101.688 87.346v2.314H90.579V73.485h2.291v13.862zm1.48 2.338v-16.2h2.314v16.2zm17.977-13.979a8.5 8.5 0 0 1 1.735 2.778 8.7 8.7 0 0 1 .579 3.1q0 1.575-.579 3.102a8.5 8.5 0 0 1-1.735 2.777 8 8 0 0 1-2.06 1.597 7.8 7.8 0 0 1-2.453.81v2.754h-2.315l.024-2.754a8 8 0 0 1-2.477-.81 7.6 7.6 0 0 1-2.036-1.597 8.5 8.5 0 0 1-1.736-2.777 8.7 8.7 0 0 1-.579-3.101q0-1.574.579-3.102a8.5 8.5 0 0 1 1.736-2.777 7.75 7.75 0 0 1 2.569-1.851 7.6 7.6 0 0 1 3.078-.648q1.62 0 3.078.648a7.7 7.7 0 0 1 2.592 1.851m-1.667 10.183a6.1 6.1 0 0 0 1.25-2.013q.44-1.134.44-2.291t-.44-2.268a6.1 6.1 0 0 0-1.25-2.037 5.6 5.6 0 0 0-1.828-1.296 5.14 5.14 0 0 0-2.152-.463q-1.158 0-2.199.463-1.018.463-1.805 1.296a6.1 6.1 0 0 0-1.25 2.037 6.4 6.4 0 0 0-.416 2.268q0 1.157.416 2.29.417 1.112 1.25 2.014.579.601 1.296 1.018a5.8 5.8 0 0 0 1.551.602V84.5h2.314l-.023 3.008a5.4 5.4 0 0 0 1.527-.602 5.7 5.7 0 0 0 1.319-1.018m18.655-12.404v9.234q0 1.458-.44 2.777a7 7 0 0 1-1.273 2.314 6.4 6.4 0 0 1-2.036 1.574q-1.18.579-2.685.578-1.365 0-2.638-.601a7 7 0 0 1-1.481-.95 6.6 6.6 0 0 1-1.227-1.434 7.6 7.6 0 0 1-.81-1.898 9.4 9.4 0 0 1-.277-2.36v-9.234h2.314v9.234q0 .949.254 1.851.255.879.764 1.574.533.67 1.296 1.088.787.416 1.805.416 1.019 0 1.782-.416a3.9 3.9 0 0 0 1.296-1.088q.532-.695.787-1.574a6.3 6.3 0 0 0 .278-1.851v-9.234zm2.529 16.2v-16.2h2.314v16.2zm18.069-11.317a10.04 10.04 0 0 1 0 6.457 8.4 8.4 0 0 1-.995 1.92 7 7 0 0 1-1.458 1.551 6.5 6.5 0 0 1-1.921 1.018q-1.087.37-2.407.37h-6.225v-16.2h6.225q1.32 0 2.407.37a6.2 6.2 0 0 1 1.921 1.042 6.3 6.3 0 0 1 1.458 1.55q.625.88.995 1.922m-2.175 5.67a7.3 7.3 0 0 0 .416-2.43q0-1.273-.416-2.477a5.8 5.8 0 0 0-.671-1.295 4.4 4.4 0 0 0-.996-1.065 4.4 4.4 0 0 0-1.319-.718q-.717-.277-1.62-.277h-3.911v11.617h3.911q.903 0 1.643-.254a4.8 4.8 0 0 0 1.296-.718q.579-.462.996-1.064.416-.625.671-1.32m4.808 5.647v-16.2h2.314v16.2zm14.737-16.177v2.314h-4.328v13.863h-2.314V75.82h-4.328v-2.314zm13.641-.023v4.628q0 1.273-.348 2.453a7 7 0 0 1-.995 2.153 6.1 6.1 0 0 1-1.643 1.62q-.995.648-2.291.879v4.467h-2.314v-4.467q-1.296-.23-2.291-.88a6.6 6.6 0 0 1-1.644-1.62 7.5 7.5 0 0 1-1.018-2.152 9.2 9.2 0 0 1-.324-2.453v-4.628h2.314v4.628q0 .95.255 1.852.277.879.787 1.573.532.671 1.296 1.088.764.394 1.782.394.925 0 1.666-.37 1.041-.465 1.759-1.598.717-1.133.717-2.939v-4.628z"/><path fill="#fff" d="M344.235 13.94a10 10 0 0 1 1.067-.149q.513-.04.999-.04 1.552 0 2.74.472t1.998 1.296q.81.81 1.215 1.917.419 1.094.419 2.35 0 1.578-.567 2.888a6.6 6.6 0 0 1-1.553 2.241 7.1 7.1 0 0 1-2.389 1.472q-1.377.513-3.024.513a8 8 0 0 1-1.836-.203 9.4 9.4 0 0 1-1.634-.54 9.6 9.6 0 0 1-1.404-.796 10 10 0 0 1-1.174-.972l1.296-1.728q.202-.27.472-.405.27-.15.581-.149.405 0 .756.23.365.216.783.486.432.255.999.472t1.404.216q.837 0 1.431-.27.594-.283.958-.756.378-.486.54-1.12.176-.648.176-1.377 0-1.431-.81-2.174-.81-.756-2.295-.756a7 7 0 0 0-2.592.5l-2.592-.702 1.674-9.842h10.071v1.728q0 .433-.135.783t-.432.621a2 2 0 0 1-.756.405q-.472.135-1.134.135h-4.698zm20.009-2.16q0 1.08-.391 1.97a5 5 0 0 1-1.04 1.54 4.6 4.6 0 0 1-1.512.985 4.6 4.6 0 0 1-1.782.351 5 5 0 0 1-1.89-.35 4.5 4.5 0 0 1-1.485-.986 4.7 4.7 0 0 1-.972-1.54 5.3 5.3 0 0 1-.351-1.97q0-1.12.351-2.025a4.6 4.6 0 0 1 .972-1.566 4.4 4.4 0 0 1 1.485-1 4.8 4.8 0 0 1 1.89-.364q1.026 0 1.89.365a4.2 4.2 0 0 1 1.499.999q.634.648.985 1.566.351.905.351 2.025m-3.213 0q0-.69-.121-1.134-.108-.46-.311-.73a1.1 1.1 0 0 0-.486-.377 1.6 1.6 0 0 0-.594-.108q-.324 0-.594.108t-.459.378-.297.729q-.108.446-.108 1.134 0 .648.108 1.08t.297.688.459.365.594.108.594-.108q.284-.108.486-.365.203-.255.311-.688.121-.432.121-1.08m9.396-4.145q.203-.23.5-.418.297-.203.823-.203h3.051L359.978 26.09a1.7 1.7 0 0 1-.513.432 1.5 1.5 0 0 1-.729.162h-3.132zm5.13 14.432q0 1.08-.391 1.984a5 5 0 0 1-1.04 1.54 4.6 4.6 0 0 1-1.512.985 4.6 4.6 0 0 1-1.782.35 5 5 0 0 1-1.89-.35 4.5 4.5 0 0 1-1.485-.986 4.7 4.7 0 0 1-.972-1.539 5.4 5.4 0 0 1-.351-1.984q0-1.12.351-2.025a4.6 4.6 0 0 1 .972-1.566 4.4 4.4 0 0 1 1.485-1 4.8 4.8 0 0 1 1.89-.364q1.026 0 1.89.365a4.2 4.2 0 0 1 1.499.999q.634.648.985 1.566.351.905.351 2.025m-3.213 0q0-.675-.121-1.12-.108-.46-.311-.73a1.1 1.1 0 0 0-.486-.378 1.6 1.6 0 0 0-.594-.108q-.324 0-.594.108t-.459.378-.297.73q-.108.444-.108 1.12 0 .648.108 1.08t.297.688.459.365.594.108.594-.108q.284-.108.486-.365.203-.256.311-.688.121-.432.121-1.08"/><path fill="#CECECE" d="M321.572 44.134h2.36a8.3 8.3 0 0 1-1.134 2.916 8.6 8.6 0 0 1-2.06 2.222 8.4 8.4 0 0 1-2.707 1.342 8.2 8.2 0 0 1-3.078.301 8.6 8.6 0 0 1-3.009-.856 8.6 8.6 0 0 1-2.407-1.828 8.7 8.7 0 0 1-1.597-2.57 8.3 8.3 0 0 1-.578-3.077q0-1.62.578-3.055a8.3 8.3 0 0 1 1.597-2.57 8.6 8.6 0 0 1 2.407-1.827 8.3 8.3 0 0 1 3.009-.88 8.2 8.2 0 0 1 3.078.301 8.1 8.1 0 0 1 2.707 1.366 8.1 8.1 0 0 1 2.06 2.221 8 8 0 0 1 1.134 2.893h-2.36a5.7 5.7 0 0 0-.81-1.782 5.4 5.4 0 0 0-1.296-1.412 5.93 5.93 0 0 0-3.611-1.319 6 6 0 0 0-1.944.278q-.926.3-1.712.856-.787.555-1.366 1.342a6.3 6.3 0 0 0-.902 1.76 6.1 6.1 0 0 0-.278 1.966q.023.972.347 1.875t.926 1.69q.601.786 1.435 1.342a5.6 5.6 0 0 0 1.62.787 6.6 6.6 0 0 0 1.735.231q1.019 0 1.968-.324a7 7 0 0 0 1.735-.926 5.95 5.95 0 0 0 2.153-3.263m14.892 4.258v2.315h-9.35v-.023h-1.157v-16.2h10.206v2.314h-7.892v4.698h5.878v2.314h-5.878v4.582zm14.421 2.292h-2.777l-4.097-6.064-4.119 6.064h-2.777l5.508-8.1-5.508-8.1h2.777l4.119 6.063 4.097-6.063h2.777l-5.485 8.1zm20.261-2.338v2.315h-11.108V34.484h2.291v13.862zm1.48 2.338v-16.2h2.314v16.2zm10.548-9.674q.903.347 1.782.74a6.8 6.8 0 0 1 1.574.972q.694.58 1.111 1.412.416.81.416 2.037.023 1.157-.463 2.06a5 5 0 0 1-1.272 1.504 5.9 5.9 0 0 1-1.806.925q-1.017.301-2.059.301a7.1 7.1 0 0 1-2.176-.324 5.3 5.3 0 0 1-1.782-.949 4.6 4.6 0 0 1-1.18-1.55q-.417-.95-.417-2.175h2.315q0 .74.254 1.272.255.51.695.834.44.3 1.018.44.601.138 1.273.138t1.342-.185q.671-.209 1.18-.602.394-.324.579-.764.208-.44.185-.925 0-.626-.301-1.088a2.7 2.7 0 0 0-.764-.81 5.4 5.4 0 0 0-1.11-.602q-.602-.278-1.227-.509-.856-.347-1.689-.694a6.4 6.4 0 0 1-1.482-.903 4.1 4.1 0 0 1-1.041-1.296q-.393-.764-.393-1.874-.024-.88.347-1.667a4 4 0 0 1 1.041-1.388 5.6 5.6 0 0 1 1.574-.856q.879-.302 1.782-.278.925 0 1.828.3.903.302 1.597.857.717.555 1.134 1.365.44.81.417 1.829h-2.315a1.5 1.5 0 0 0-.162-.764 1.7 1.7 0 0 0-.463-.625 3.27 3.27 0 0 0-2.036-.648 2.83 2.83 0 0 0-1.875.579q-.601.51-.555 1.296 0 .532.254.925.279.394.718.695.44.3.995.532zm16.71-6.503v2.314h-4.328v13.863h-2.314V36.82h-4.328v-2.314zm1.467 16.177v-16.2h2.315v16.2zm18.139-16.2v16.2h-1.088l-9.72-11.48v11.48h-2.291v-16.2h1.319l9.466 11.178V34.484zm18.713 6.942v1.158q0 1.642-.601 3.124a8.5 8.5 0 0 1-1.667 2.592 8.1 8.1 0 0 1-2.476 1.828 8.2 8.2 0 0 1-3.055.81 8 8 0 0 1-3.147-.393 8.7 8.7 0 0 1-2.708-1.481 8.8 8.8 0 0 1-1.99-2.338 8.15 8.15 0 0 1-.995-3.032 8.4 8.4 0 0 1 .185-3.17 8.2 8.2 0 0 1 1.296-2.777 8.6 8.6 0 0 1 2.221-2.13 7.9 7.9 0 0 1 2.94-1.226 8 8 0 0 1 1.643-.162 8.3 8.3 0 0 1 2.684.44q1.296.44 2.361 1.25a8.3 8.3 0 0 1 1.851 1.967 7.7 7.7 0 0 1 1.181 2.522h-2.43a6 6 0 0 0-.926-1.62 5.8 5.8 0 0 0-1.319-1.203 6.2 6.2 0 0 0-1.597-.787 5.7 5.7 0 0 0-1.782-.278q-.741 0-1.389.162-1.11.255-2.013.88a5.8 5.8 0 0 0-1.528 1.48 6.03 6.03 0 0 0-1.134 4.074q.116 1.134.579 2.106a6.3 6.3 0 0 0 1.25 1.712 6 6 0 0 0 1.759 1.18 6.2 6.2 0 0 0 2.129.51 5.7 5.7 0 0 0 2.175-.278 6.3 6.3 0 0 0 1.875-.995 6 6 0 0 0 1.411-1.574 5.6 5.6 0 0 0 .81-2.036h-5.623v-2.315z"/><path fill="#fff" d="M540.099 88.66v3.024h-11.205V88.66h3.78v-9.923a21 21 0 0 1 .054-1.539l-2.241 1.863a1.4 1.4 0 0 1-.594.284 1.8 1.8 0 0 1-.54 0 1.5 1.5 0 0 1-.459-.176 1.1 1.1 0 0 1-.297-.27l-1.323-1.755 6.129-5.143h3.456V88.66zm16.593-6.818q0 2.58-.553 4.469t-1.539 3.132q-.972 1.242-2.322 1.85a6.9 6.9 0 0 1-2.903.607 6.9 6.9 0 0 1-2.902-.608q-1.323-.607-2.295-1.85-.972-1.24-1.526-3.131-.54-1.89-.54-4.469 0-2.578.54-4.468.554-1.89 1.526-3.132t2.295-1.836a6.9 6.9 0 0 1 2.902-.608q1.566 0 2.903.608 1.35.594 2.322 1.836.986 1.242 1.539 3.132t.553 4.468m-4.32 0q0-2.038-.256-3.334-.257-1.31-.689-2.052-.418-.743-.958-1.013a2.3 2.3 0 0 0-1.094-.283q-.553 0-1.093.283-.527.27-.945 1.013-.405.743-.662 2.052-.243 1.296-.243 3.334 0 2.052.243 3.348.257 1.296.662 2.052.418.743.945 1.026.54.27 1.093.27.554 0 1.094-.27.54-.283.958-1.026.432-.756.689-2.052t.256-3.348m15.203-5.062q0 1.08-.391 1.97a5 5 0 0 1-1.04 1.54 4.6 4.6 0 0 1-1.512.985 4.6 4.6 0 0 1-1.782.351 5 5 0 0 1-1.89-.35 4.5 4.5 0 0 1-1.485-.986 4.7 4.7 0 0 1-.972-1.54 5.3 5.3 0 0 1-.351-1.97q0-1.12.351-2.025a4.6 4.6 0 0 1 .972-1.566 4.4 4.4 0 0 1 1.485-1 4.8 4.8 0 0 1 1.89-.364q1.026 0 1.89.365a4.2 4.2 0 0 1 1.499.999q.634.648.985 1.566.351.904.351 2.025m-3.213 0q0-.69-.121-1.134-.108-.46-.311-.73a1.1 1.1 0 0 0-.486-.377 1.6 1.6 0 0 0-.594-.108q-.324 0-.594.108t-.459.378-.297.729q-.108.445-.108 1.134 0 .648.108 1.08t.297.688.459.365.594.108.594-.108q.284-.108.486-.365.203-.256.311-.688.121-.432.121-1.08m9.396-4.145q.203-.23.5-.418.297-.203.823-.203h3.051L563.309 91.09a1.7 1.7 0 0 1-.513.432 1.5 1.5 0 0 1-.729.162h-3.132zm5.13 14.432q0 1.08-.391 1.984a5 5 0 0 1-1.04 1.54 4.6 4.6 0 0 1-1.512.985 4.6 4.6 0 0 1-1.782.35 5 5 0 0 1-1.89-.35 4.5 4.5 0 0 1-1.485-.986 4.7 4.7 0 0 1-.972-1.539 5.4 5.4 0 0 1-.351-1.984q0-1.12.351-2.025a4.6 4.6 0 0 1 .972-1.566 4.4 4.4 0 0 1 1.485-1 4.8 4.8 0 0 1 1.89-.364q1.026 0 1.89.365a4.2 4.2 0 0 1 1.499.999q.634.648.985 1.566.351.904.351 2.025m-3.213 0q0-.675-.121-1.12-.108-.46-.311-.73a1.1 1.1 0 0 0-.486-.378 1.6 1.6 0 0 0-.594-.108q-.324 0-.594.108t-.459.378-.297.73q-.108.445-.108 1.12 0 .648.108 1.08t.297.688.459.365.594.108.594-.108q.283-.108.486-.365.203-.255.311-.688.121-.432.121-1.08"/><path fill="#CECECE" d="M497.609 104.367a10.04 10.04 0 0 1 0 6.457 8.4 8.4 0 0 1-.995 1.92 7 7 0 0 1-1.458 1.551 6.5 6.5 0 0 1-1.921 1.018q-1.088.37-2.407.371h-6.226v-16.2h6.226q1.319 0 2.407.37a6.3 6.3 0 0 1 1.921 1.041q.855.648 1.458 1.551a7.8 7.8 0 0 1 .995 1.921m-2.176 5.67a7.2 7.2 0 0 0 .417-2.43q0-1.273-.417-2.477a5.7 5.7 0 0 0-.671-1.296 4.4 4.4 0 0 0-.995-1.064 4.4 4.4 0 0 0-1.319-.718q-.717-.277-1.62-.277h-3.911v11.617h3.911q.903 0 1.643-.254a4.7 4.7 0 0 0 1.296-.718q.579-.462.995-1.064.417-.625.671-1.319m15.338 3.355v2.315h-9.349v-.023h-1.157v-16.2h10.206v2.314h-7.892v4.698h5.878v2.314h-5.878v4.582zm15.417-13.908-7.198 16.2h-.486l-7.197-16.2h2.522l4.93 11.085 4.929-11.085zm11.953 13.908v2.315h-9.35v-.023h-1.157v-16.2h10.206v2.314h-7.892v4.698h5.878v2.314h-5.878v4.582zm12.986-.046v2.314h-11.109V99.484h2.291v13.862zm13.693-11.641a8.5 8.5 0 0 1 1.736 2.777 8.7 8.7 0 0 1 .579 3.102 8.7 8.7 0 0 1-.579 3.101 8.5 8.5 0 0 1-1.736 2.777 7.7 7.7 0 0 1-2.592 1.851 7.5 7.5 0 0 1-3.078.648 7.6 7.6 0 0 1-3.078-.648 7.8 7.8 0 0 1-2.569-1.851 8.5 8.5 0 0 1-1.735-2.777 8.7 8.7 0 0 1-.579-3.101q0-1.574.579-3.102a8.5 8.5 0 0 1 1.735-2.777 7.8 7.8 0 0 1 2.569-1.851 7.6 7.6 0 0 1 3.078-.648q1.62 0 3.078.648a7.7 7.7 0 0 1 2.592 1.851m-1.666 10.183a6.1 6.1 0 0 0 1.25-2.013q.416-1.134.416-2.291t-.416-2.268a6.1 6.1 0 0 0-1.25-2.037 5.7 5.7 0 0 0-1.828-1.296 5.2 5.2 0 0 0-2.176-.463 5.3 5.3 0 0 0-2.175.463 5.7 5.7 0 0 0-1.805 1.296 6.4 6.4 0 0 0-1.273 2.037 6.4 6.4 0 0 0-.417 2.268q0 1.157.417 2.291.44 1.11 1.273 2.013a5.7 5.7 0 0 0 1.805 1.296 5.3 5.3 0 0 0 2.175.463 5.2 5.2 0 0 0 2.176-.463 5.6 5.6 0 0 0 1.828-1.296m17.636-9.002a6.47 6.47 0 0 1 0 4.443 6.2 6.2 0 0 1-.717 1.342 5 5 0 0 1-1.065 1.065 5.4 5.4 0 0 1-1.388.717 5.6 5.6 0 0 1-1.736.255h-4.397v4.976h-2.314V99.507h6.642a5.3 5.3 0 0 1 1.759.277q.81.255 1.434.718.625.44 1.065 1.064.44.602.717 1.32m-2.152 3.633a3.88 3.88 0 0 0 0-2.823q-.3-.81-1.018-1.343-.695-.532-1.805-.532h-4.328v6.596h4.397a2.86 2.86 0 0 0 1.69-.486 2.77 2.77 0 0 0 1.064-1.412m19.662-7.035v16.2h-2.314v-11.919l-5.3 5.855-5.3-5.855v11.919h-2.314v-16.2h1.527l6.087 6.711 6.087-6.711zm13.269 13.908v2.315h-9.349v-.023h-1.157v-16.2h10.206v2.314h-7.892v4.698h5.878v2.314h-5.878v4.582zm14.977-13.908v16.2h-1.088l-9.72-11.479v11.479h-2.291v-16.2h1.319l9.466 11.178V99.484zm12.418.023v2.314h-4.328v13.863h-2.314v-13.863h-4.328v-2.314z"/><path fill="#fff" d="M672.099 226.66v3.024h-11.205v-3.024h3.78v-9.923a21 21 0 0 1 .054-1.539l-2.241 1.863a1.4 1.4 0 0 1-.594.284 1.8 1.8 0 0 1-.54 0 1.5 1.5 0 0 1-.459-.176 1.1 1.1 0 0 1-.297-.27l-1.323-1.755 6.129-5.143h3.456v16.659zm16.593-6.818q0 2.579-.553 4.469t-1.539 3.132q-.972 1.242-2.322 1.849a6.9 6.9 0 0 1-2.903.608 6.9 6.9 0 0 1-2.902-.608q-1.323-.607-2.295-1.849t-1.526-3.132q-.54-1.89-.54-4.469 0-2.578.54-4.468.554-1.89 1.526-3.132t2.295-1.836a6.9 6.9 0 0 1 2.902-.608q1.566 0 2.903.608 1.35.594 2.322 1.836.986 1.242 1.539 3.132t.553 4.468m-4.32 0q0-2.038-.256-3.334-.257-1.31-.689-2.052-.418-.743-.958-1.013a2.3 2.3 0 0 0-1.094-.283q-.553 0-1.093.283-.527.27-.945 1.013-.405.742-.662 2.052-.243 1.296-.243 3.334 0 2.052.243 3.348.257 1.296.662 2.052.418.743.945 1.026.54.27 1.093.27.554 0 1.094-.27.54-.283.958-1.026.432-.756.689-2.052t.256-3.348m15.203-5.062q0 1.08-.391 1.971a5 5 0 0 1-1.04 1.539 4.6 4.6 0 0 1-1.512.985 4.6 4.6 0 0 1-1.782.351 5 5 0 0 1-1.89-.351 4.5 4.5 0 0 1-1.485-.985 4.7 4.7 0 0 1-.972-1.539 5.3 5.3 0 0 1-.351-1.971q0-1.12.351-2.025a4.6 4.6 0 0 1 .972-1.566 4.4 4.4 0 0 1 1.485-.999 4.8 4.8 0 0 1 1.89-.365q1.026 0 1.89.365a4.2 4.2 0 0 1 1.499.999q.634.648.985 1.566.351.905.351 2.025m-3.213 0q0-.689-.121-1.134-.108-.459-.311-.729a1.1 1.1 0 0 0-.486-.378 1.6 1.6 0 0 0-.594-.108q-.324 0-.594.108t-.459.378-.297.729q-.108.446-.108 1.134 0 .648.108 1.08t.297.688q.189.257.459.365t.594.108.594-.108q.284-.108.486-.365.203-.256.311-.688.121-.432.121-1.08m9.396-4.145q.203-.23.5-.418.297-.203.823-.203h3.051l-14.823 19.076a1.7 1.7 0 0 1-.513.432 1.5 1.5 0 0 1-.729.162h-3.132zm5.13 14.432q0 1.08-.391 1.984a5 5 0 0 1-1.04 1.539 4.6 4.6 0 0 1-1.512.986 4.6 4.6 0 0 1-1.782.351 5 5 0 0 1-1.89-.351 4.5 4.5 0 0 1-1.485-.986 4.7 4.7 0 0 1-.972-1.539 5.4 5.4 0 0 1-.351-1.984q0-1.12.351-2.025a4.6 4.6 0 0 1 .972-1.566 4.4 4.4 0 0 1 1.485-.999 4.8 4.8 0 0 1 1.89-.365q1.026 0 1.89.365a4.2 4.2 0 0 1 1.499.999q.634.648.985 1.566.351.905.351 2.025m-3.213 0q0-.675-.121-1.121-.108-.459-.311-.729a1.1 1.1 0 0 0-.486-.378 1.6 1.6 0 0 0-.594-.108q-.324 0-.594.108t-.459.378-.297.729a5 5 0 0 0-.108 1.121q0 .648.108 1.08t.297.688.459.365.594.108.594-.108q.283-.108.486-.365.203-.256.311-.688.121-.432.121-1.08"/><path fill="#CECECE" d="M641.016 239.705a8.5 8.5 0 0 1 1.736 2.777 8.7 8.7 0 0 1 .578 3.102 8.7 8.7 0 0 1-.578 3.101 8.5 8.5 0 0 1-1.736 2.777 7.7 7.7 0 0 1-2.592 1.851 7.5 7.5 0 0 1-3.078.648 7.6 7.6 0 0 1-3.078-.648 7.8 7.8 0 0 1-2.569-1.851 8.5 8.5 0 0 1-1.735-2.777 8.7 8.7 0 0 1-.579-3.101q0-1.574.579-3.102a8.5 8.5 0 0 1 1.735-2.777 7.8 7.8 0 0 1 2.569-1.851 7.6 7.6 0 0 1 3.078-.648q1.62 0 3.078.648a7.7 7.7 0 0 1 2.592 1.851m-1.666 10.183a6.1 6.1 0 0 0 1.25-2.013q.416-1.134.416-2.291t-.416-2.268a6.1 6.1 0 0 0-1.25-2.037 5.7 5.7 0 0 0-1.828-1.296 5.2 5.2 0 0 0-2.176-.463 5.3 5.3 0 0 0-2.175.463 5.7 5.7 0 0 0-1.805 1.296 6.4 6.4 0 0 0-1.273 2.037 6.4 6.4 0 0 0-.417 2.268q0 1.157.417 2.291.44 1.11 1.273 2.013a5.7 5.7 0 0 0 1.805 1.296 5.3 5.3 0 0 0 2.175.463 5.2 5.2 0 0 0 2.176-.463 5.6 5.6 0 0 0 1.828-1.296m17.636-9.002a6.47 6.47 0 0 1 0 4.443 6.2 6.2 0 0 1-.717 1.342 5 5 0 0 1-1.065 1.065 5.4 5.4 0 0 1-1.388.717 5.6 5.6 0 0 1-1.736.255h-4.397v4.976h-2.314v-16.177h6.642q.972 0 1.758.277.81.255 1.435.718.625.44 1.065 1.064.44.602.717 1.32m-2.152 3.633a3.88 3.88 0 0 0 0-2.823 2.9 2.9 0 0 0-1.018-1.343q-.695-.532-1.805-.532h-4.328v6.596h4.397a2.85 2.85 0 0 0 1.689-.486q.764-.533 1.065-1.412m14.964 6.873v2.315h-9.35v-.023h-1.157v-16.2h10.206v2.314h-7.892v4.698h5.879v2.314h-5.879v4.582zm13.495-6.063a5 5 0 0 1-1.157 1.898 5.1 5.1 0 0 1-1.851 1.18l3.286 5.277h-2.708l-3.101-4.976h-3.772v4.976h-2.314v-16.177h6.642q.972 0 1.758.277.81.255 1.435.718.626.44 1.065 1.064.44.602.717 1.32a6.47 6.47 0 0 1 0 4.443m-9.303 1.088h4.397a2.85 2.85 0 0 0 1.689-.486q.764-.533 1.065-1.412a3.88 3.88 0 0 0 0-2.823 2.9 2.9 0 0 0-1.018-1.343q-.695-.532-1.805-.532h-4.328zm25.326 7.267h-2.477l-1.504-3.634h-6.827l-1.504 3.634h-2.477l6.666-16.2h1.458zm-4.93-5.948-2.453-5.994-2.476 5.994zm13.971-10.229v2.314h-4.327v13.863h-2.315v-13.863h-4.327v-2.314zm1.468 16.177v-16.2h2.314v16.2zm17.977-13.979a8.5 8.5 0 0 1 1.736 2.777 8.7 8.7 0 0 1 .578 3.102 8.7 8.7 0 0 1-.578 3.101 8.5 8.5 0 0 1-1.736 2.777 7.7 7.7 0 0 1-2.592 1.851 7.5 7.5 0 0 1-3.078.648 7.6 7.6 0 0 1-3.078-.648 7.8 7.8 0 0 1-2.569-1.851 8.5 8.5 0 0 1-1.736-2.777 8.7 8.7 0 0 1-.578-3.101q0-1.574.578-3.102a8.5 8.5 0 0 1 1.736-2.777 7.8 7.8 0 0 1 2.569-1.851 7.6 7.6 0 0 1 3.078-.648q1.62 0 3.078.648a7.7 7.7 0 0 1 2.592 1.851m-1.666 10.183a6.1 6.1 0 0 0 1.249-2.013q.417-1.134.417-2.291a6.4 6.4 0 0 0-.417-2.268 6.1 6.1 0 0 0-1.249-2.037 5.7 5.7 0 0 0-1.829-1.296 5.2 5.2 0 0 0-2.175-.463q-1.134 0-2.176.463a5.8 5.8 0 0 0-1.805 1.296 6.4 6.4 0 0 0-1.273 2.037 6.4 6.4 0 0 0-.416 2.268q0 1.157.416 2.291.44 1.11 1.273 2.013a5.7 5.7 0 0 0 1.805 1.296q1.042.463 2.176.463 1.157 0 2.175-.463a5.6 5.6 0 0 0 1.829-1.296m19.117-12.404v16.2h-1.088l-9.72-11.479v11.479h-2.291v-16.2h1.319l9.466 11.178v-11.178zm8.23 6.526q.902.347 1.782.74a6.8 6.8 0 0 1 1.573.972 4.3 4.3 0 0 1 1.111 1.412q.417.81.417 2.037.023 1.157-.463 2.059a5 5 0 0 1-1.273 1.505 5.9 5.9 0 0 1-1.805.925 7.2 7.2 0 0 1-2.06.301 7.1 7.1 0 0 1-2.175-.324 5.3 5.3 0 0 1-1.782-.949 4.54 4.54 0 0 1-1.18-1.55q-.417-.95-.417-2.176h2.314q0 .74.255 1.273.255.51.694.833.44.302 1.018.44.603.14 1.273.139a5 5 0 0 0 1.343-.185q.67-.209 1.18-.602.393-.323.578-.764.208-.44.186-.925 0-.625-.301-1.088a2.7 2.7 0 0 0-.764-.81 5.5 5.5 0 0 0-1.111-.602 17 17 0 0 0-1.226-.509q-.856-.347-1.69-.694a6.5 6.5 0 0 1-1.481-.903 4.1 4.1 0 0 1-1.041-1.296q-.394-.764-.394-1.874-.023-.88.347-1.667a4 4 0 0 1 1.042-1.388 5.6 5.6 0 0 1 1.573-.856 5 5 0 0 1 1.782-.278q.927 0 1.829.301.902.3 1.597.856.717.555 1.134 1.365.44.81.416 1.829h-2.314a1.5 1.5 0 0 0-.162-.764 1.7 1.7 0 0 0-.463-.625 3.28 3.28 0 0 0-2.037-.648 2.82 2.82 0 0 0-1.874.579 1.5 1.5 0 0 0-.556 1.296q0 .532.255.925.277.394.717.695t.996.532z"/><path fill="#fff" d="M555.086 540.904q.675 0 1.067.378.391.365.391.972v2.43H542.72v-1.35q0-.391.162-.837t.567-.81l5.67-5.711q.729-.729 1.269-1.39.54-.662.891-1.296.351-.648.527-1.283a5.2 5.2 0 0 0 .175-1.363q0-1.175-.567-1.796-.554-.634-1.701-.634-.931 0-1.579.499a2.5 2.5 0 0 0-.878 1.215q-.283.743-.742.986-.46.243-1.31.108l-2.214-.392q.216-1.471.824-2.565a6.3 6.3 0 0 1 1.525-1.822 6.2 6.2 0 0 1 2.093-1.08 8.5 8.5 0 0 1 2.524-.365q1.458 0 2.619.432 1.174.419 1.998 1.175a5 5 0 0 1 1.256 1.809q.445 1.04.445 2.295a6.2 6.2 0 0 1-.31 1.998 7.8 7.8 0 0 1-.824 1.755q-.526.823-1.228 1.606-.689.77-1.472 1.566l-3.847 3.942q.742-.23 1.471-.351a8 8 0 0 1 1.35-.121zm8.48-8.964a10 10 0 0 1 1.067-.149q.513-.04.999-.04 1.552 0 2.74.472 1.188.473 1.998 1.296.81.81 1.215 1.917.419 1.094.419 2.349 0 1.58-.567 2.889a6.6 6.6 0 0 1-1.553 2.241 7.1 7.1 0 0 1-2.389 1.472q-1.377.513-3.024.513a8 8 0 0 1-1.836-.203 9.4 9.4 0 0 1-1.634-.54 9.6 9.6 0 0 1-1.404-.796 10 10 0 0 1-1.174-.972l1.296-1.728q.202-.27.472-.405.27-.149.581-.149.405 0 .756.23.364.216.783.486.432.256.999.472t1.404.216 1.431-.27q.594-.284.958-.756.378-.486.54-1.12.176-.648.176-1.377 0-1.431-.81-2.174-.81-.756-2.295-.756-1.323 0-2.592.5l-2.592-.702 1.674-9.842h10.071v1.728q0 .432-.135.783t-.432.621a2 2 0 0 1-.756.405q-.473.135-1.134.135h-4.698zm20.009-2.16q0 1.08-.391 1.971a5 5 0 0 1-1.04 1.539 4.6 4.6 0 0 1-1.512.985 4.6 4.6 0 0 1-1.782.351 5 5 0 0 1-1.89-.351 4.5 4.5 0 0 1-1.485-.985 4.7 4.7 0 0 1-.972-1.539 5.3 5.3 0 0 1-.351-1.971q0-1.12.351-2.025a4.6 4.6 0 0 1 .972-1.566 4.4 4.4 0 0 1 1.485-.999 4.8 4.8 0 0 1 1.89-.365q1.026 0 1.89.365a4.2 4.2 0 0 1 1.499.999q.634.648.985 1.566.351.904.351 2.025m-3.213 0q0-.688-.121-1.134-.108-.459-.311-.729a1.1 1.1 0 0 0-.486-.378 1.6 1.6 0 0 0-.594-.108q-.324 0-.594.108t-.459.378-.297.729q-.108.446-.108 1.134 0 .648.108 1.08t.297.688.459.365q.27.108.594.108t.594-.108q.284-.108.486-.365.203-.256.311-.688.121-.432.121-1.08m9.396-4.145q.203-.23.5-.418.297-.203.823-.203h3.051l-14.823 19.076a1.7 1.7 0 0 1-.513.432 1.5 1.5 0 0 1-.729.162h-3.132zm5.13 14.432q0 1.08-.391 1.984a5 5 0 0 1-1.04 1.539 4.6 4.6 0 0 1-1.512.986 4.6 4.6 0 0 1-1.782.351 5 5 0 0 1-1.89-.351 4.5 4.5 0 0 1-1.485-.986 4.7 4.7 0 0 1-.972-1.539 5.4 5.4 0 0 1-.351-1.984q0-1.12.351-2.025a4.6 4.6 0 0 1 .972-1.566 4.4 4.4 0 0 1 1.485-.999 4.8 4.8 0 0 1 1.89-.365q1.026 0 1.89.365a4.2 4.2 0 0 1 1.499.999q.634.648.985 1.566.351.904.351 2.025m-3.213 0q0-.675-.121-1.121-.108-.459-.311-.729a1.1 1.1 0 0 0-.486-.378 1.6 1.6 0 0 0-.594-.108q-.324 0-.594.108t-.459.378-.297.729a5 5 0 0 0-.108 1.121q0 .648.108 1.08t.297.688.459.365q.27.108.594.108t.594-.108q.283-.108.486-.365.203-.256.311-.688.121-.432.121-1.08"/><path fill="#CECECE" d="M531.307 552.484v16.2h-2.314v-11.919l-5.3 5.855-5.299-5.855v11.919h-2.315v-16.2h1.528l6.086 6.711 6.087-6.711zm16.232 16.2h-2.476l-1.505-3.634h-6.827l-1.504 3.634h-2.476l6.665-16.2h1.458zm-4.929-5.948-2.454-5.994-2.476 5.994zm18.016-2.407a5 5 0 0 1-1.157 1.898 5.1 5.1 0 0 1-1.852 1.18l3.287 5.277h-2.708l-3.101-4.976h-3.773v4.976h-2.314v-16.177h6.642q.972 0 1.759.277.81.255 1.435.718.624.44 1.064 1.064.44.602.718 1.32a6.5 6.5 0 0 1 0 4.443m-9.304 1.088h4.398a2.85 2.85 0 0 0 1.689-.486 2.78 2.78 0 0 0 1.065-1.412 3.89 3.89 0 0 0 0-2.823 2.9 2.9 0 0 0-1.019-1.343q-.694-.532-1.805-.532h-4.328zm16.856.671h-2.708v6.596h-2.314v-16.2h2.314v7.29h2.662l4.813-7.29h2.754l-5.554 8.4 6.087 7.8h-2.916zm19.995 4.304v2.315h-9.35v-.023h-1.157v-16.2h10.206v2.314h-7.892v4.698h5.879v2.314h-5.879v4.582zm11.574-13.885v2.314h-4.327v13.863h-2.315v-13.863h-4.327v-2.314zm1.468 16.177v-16.2h2.314v16.2zm18.139-16.2v16.2h-1.088l-9.72-11.479v11.479h-2.291v-16.2h1.319l9.466 11.178v-11.178zm18.713 6.942v1.158q0 1.642-.602 3.124a8.5 8.5 0 0 1-1.666 2.592 8.1 8.1 0 0 1-2.476 1.828 8.15 8.15 0 0 1-3.055.81 8 8 0 0 1-3.147-.393 8.7 8.7 0 0 1-2.708-1.481 8.9 8.9 0 0 1-1.99-2.338 8.2 8.2 0 0 1-.996-3.032 8.4 8.4 0 0 1 .186-3.17 8.2 8.2 0 0 1 1.296-2.777 8.6 8.6 0 0 1 2.221-2.129 7.9 7.9 0 0 1 2.939-1.227 8 8 0 0 1 1.644-.162q1.388 0 2.684.44a8.2 8.2 0 0 1 2.361 1.249 8.3 8.3 0 0 1 1.851 1.968q.81 1.134 1.18 2.522h-2.43a6 6 0 0 0-.925-1.62 5.8 5.8 0 0 0-1.319-1.203 6.1 6.1 0 0 0-1.597-.787 5.8 5.8 0 0 0-1.782-.278q-.741 0-1.389.162-1.11.255-2.013.88a5.8 5.8 0 0 0-1.528 1.481 6.03 6.03 0 0 0-1.134 4.073q.115 1.134.579 2.106.486.972 1.25 1.712a6 6 0 0 0 1.758 1.181 6.2 6.2 0 0 0 2.13.509 5.7 5.7 0 0 0 2.175-.278 6.3 6.3 0 0 0 1.875-.995 6 6 0 0 0 1.411-1.574 5.6 5.6 0 0 0 .81-2.036h-5.623v-2.315z"/></svg>