<svg width="410" height="247" viewBox="0 0 410 247" fill="none" xmlns="http://www.w3.org/2000/svg">
<path fillRule="evenodd" clipRule="evenodd" d="M0 63.3867V321C0 330.941 8.05888 339 18 339H793C800.732 339 807 332.732 807 325V63.3898L807.002 63.3863L807 63.3828V63.3736H806.996L776.862 0L752.458 51.3246L728.054 0L702.513 53.7153L676.971 0L648.501 59.8767L620.03 0L592.843 57.178L565.655 0L536.075 62.2098L506.495 0L482.093 51.3205L457.69 0L432.149 53.7153L406.608 0L378.136 59.8808L349.663 0L322.473 57.1821L295.284 0L268.315 56.7182L241.347 0.000408173L216.944 51.3209L192.542 0.000408173L167.003 53.7116L141.464 0.000408173L112.993 59.8771L84.5223 0.000408173L57.3309 57.1866L30.1395 0.000408173L0.00621968 63.3736H0V63.3867Z" fill="white"/>
</svg>
