<svg xmlns="http://www.w3.org/2000/svg" width="1900" height="322" fill="none"><g filter="url(#a)"><path fill="#fff" fillRule="evenodd" d="M0 87.818v360.869c0 9.941 8.059 18 18 18h1868c7.73 0 14-6.268 14-14V87.8h-.02L1829.04.684l-57.46 70.55-57.45-70.55-60.14 73.84-60.13-73.84-67.03 82.307L1459.8.684l-64.02 78.605L1331.77.684l-69.64 85.508L1192.49.684l-57.45 70.55-57.46-70.55-60.14 73.84L957.31.684 890.28 82.99 823.249.684l-64.015 78.605L695.218.684l-63.492 77.963L568.234.685l-57.456 70.55L453.322.686l-60.134 73.839L333.054.684l-67.031 82.31L198.992.683l-64.016 78.607L70.96.684.015 87.8H0z" clipRule="evenodd"/></g><defs><filter id="a" width="1910" height="476.004" x="0" y=".684" color-interpolation-filters="sRGB" filterUnits="userSpaceOnUse"><feFlood flood-opacity="0" result="BackgroundImageFix"/><feColorMatrix in="SourceAlpha" result="hardAlpha" values="0 0 0 0 0 0 0 0 0 0 0 0 0 0 0 0 0 0 127 0"/><feOffset dx="10" dy="10"/><feComposite in2="hardAlpha" operator="out"/><feColorMatrix values="0 0 0 0 0 0 0 0 0 0 0 0 0 0 0 0 0 0 1 0"/><feBlend in2="BackgroundImageFix" result="effect1_dropShadow_4477_43365"/><feBlend in="SourceGraphic" in2="effect1_dropShadow_4477_43365" result="shape"/></filter></defs></svg>