<svg xmlns="http://www.w3.org/2000/svg" width="79" height="79" fill="none"><path fill="#B894FB" d="M39.812 20.277c18.213 0 33.508 12.484 37.799 29.362a39 39 0 0 0 1.201-9.64C78.812 18.46 61.351 1 39.812 1c-21.538 0-39 17.46-39 39 0 3.327.418 6.555 1.202 9.639C6.304 32.76 21.6 20.277 39.812 20.277"/><path fill="#DE9CFD" d="M39.808 79c18.213 0 33.508-12.484 37.799-29.361C73.316 32.76 58.02 20.277 39.808 20.277 21.596 20.277 6.3 32.763 2.01 49.64 6.3 66.517 21.596 79 39.808 79"/><path fill="#fff" d="M33.066 9.93 10.282 32.71a9.67 9.67 0 0 0 0 13.675l22.784 22.78c3.777 3.776 9.9 3.776 13.677 0l22.785-22.78a9.67 9.67 0 0 0 0-13.675L46.743 9.93c-3.777-3.776-9.9-3.776-13.677 0"/><path fill="#452BC0" d="m33.688 12.616-20.72 20.717a8.793 8.793 0 0 0 0 12.436L33.69 66.486a8.796 8.796 0 0 0 12.438 0l20.72-20.717a8.793 8.793 0 0 0 0-12.436l-20.72-20.717a8.796 8.796 0 0 0-12.439 0"/><mask id="a" width="60" height="60" x="10" y="10" maskUnits="userSpaceOnUse" style="mask-type:luminance"><path fill="#fff" d="M33.69 12.622 12.97 33.34a8.793 8.793 0 0 0 0 12.436l20.721 20.717a8.797 8.797 0 0 0 12.438 0l20.72-20.717a8.793 8.793 0 0 0 0-12.436L46.13 12.622a8.797 8.797 0 0 0-12.439 0"/></mask><g fill="#A393FE" mask="url(#a)"><path d="M20.297 16.423c-3.317.338-6.293-1.094-9.567-1.204V5.355c3.318.277 5.935 2.623 9.366 2.01-.14 3.05-.116 6.024.2 9.059z"/><path d="M30.685 25.802c-3.4-1.162-6.865-.534-10.383-.402a42.5 42.5 0 0 0-.007-8.98c1.745-.256 3.445-.729 5.185-1.01 1.78-.288 3.38-.144 5.13.281.11 3.372.184 6.739.076 10.111"/><path d="M19.4 36.255c-1.605.171-3.01.047-4.551-.417-1.38-.416-2.665-.817-4.117-.894V25.08c3.199-.006 6.372.39 9.574.32-.409 3.593-1.093 7.228-.905 10.855M40.325 34.916c-3.29-.06-6.578-.033-9.868.02-.003-3.05.114-6.087.225-9.135 1.78.662 3.595 1.57 5.498 1.812 1.643.21 3.112-.556 4.531-1.287-.19 2.87-.396 5.71-.386 8.59M40.498 15.154c-1.421 1.005-2.769 1.918-4.571 1.785-1.812-.133-3.58-.78-5.321-1.246a311 311 0 0 1-.149-10.34c1.644 0 3.29.017 4.933 0 1.787-.018 3.223-.7 4.786-1.525-.083 3.786.102 7.547.322 11.326M49.694 25.082c-1.476 0-2.953-.011-4.43 0-1.712.013-3.022.473-4.542 1.248.239-3.73.002-7.451-.214-11.175 1.453-1.02 2.774-1.815 4.595-1.63 1.728.176 3.392.825 5.057 1.285.034 3.445.233 6.878-.466 10.273zM60.469 16.52c-1.78-.246-3.502-.74-5.267-1.058-1.69-.306-3.372-.248-5.05-.656a544 544 0 0 1-.03-10.175c1.687.672 3.419.664 5.142 1.162 1.847.533 3.603 1.31 5.48 1.741.19 3.05.176 5.966-.275 8.988z"/><path d="M69.708 25.077c-3.44 0-6.881.037-10.321.03.557-2.846.445-5.745.858-8.616 3.303.354 6.211-1.161 9.463-1.278zM58.095 35.069c-3.323-.044-6.642-.125-9.966-.125-.283-3.38.83-6.608 1.56-9.864 3.306 0 6.613.02 9.919.03-.717 3.317-1.74 6.526-1.513 9.959M50.119 44.804h-4.841c-1.718 0-3.221-.355-4.847-.89-.018-3-.078-6-.095-9 2.599.046 5.198.026 7.798.026.407 3.341 1.578 6.524 1.986 9.864zM30.516 44.294c-3.185.848-6.69.546-9.969.563-.224-2.89-.926-5.713-1.15-8.603 1.99-.288 3.94-.776 5.925-1.088 1.71-.268 3.413-.206 5.137-.228.01 3.119.047 6.238.056 9.357"/><path d="M69.703 44.805c-3.233-.002-6.465.004-9.698.005-.357-3.305-1.555-6.439-1.911-9.743 3.87.036 7.74-.111 11.61-.126zM59.114 54.837c-2.978-.064-5.946-.165-8.925-.165 0-3.266.193-6.609-.08-9.863q4.945.002 9.892.004c.222 3.356-.47 6.708-.887 10.025zM40.348 54.464c-3.337-.29-6.545-.163-9.877.1.02-3.423.049-6.846.044-10.27 1.66-.486 3.34-1.15 5.076-1.303 1.668-.147 3.27.408 4.831.926.013 3.516-.04 7.032-.075 10.547M20.002 54.716c-3.09.012-6.18-.038-9.27-.043v-9.864c3.273-.028 6.547.048 9.82.05.168 3.289-.285 6.585-.55 9.857"/><path d="M30.075 64.486c-3.21 1.097-6.607.32-9.912.12-.267-3.32-.412-6.566-.164-9.892 3.481-.018 7 .093 10.474-.15-.019 3.33-.066 6.605-.4 9.922zM50.234 64.783c-1.6.281-3.195.673-4.82.777-1.895.12-3.517-.537-5.234-1.28.135-3.272.145-6.54.175-9.815 3.276.281 6.557.207 9.843.207 0 3.37.004 6.74.036 10.11M69.683 64.536c-3.69-.028-7.387-.472-11.078-.332.199-3.123.156-6.258.516-9.368 3.52.06 7.042-.143 10.562-.164z"/><path d="M40.072 73.961c-1.507-1.001-3.53-2.678-5.485-2.308-1.766.335-3.3 1.697-4.78 2.627-.241-3.295-.063-6.515.268-9.797 1.57-.598 3.149-1.414 4.84-1.585 1.859-.188 3.603.656 5.261 1.38-.134 3.23-.195 6.45-.106 9.683zM20.546 74.48c-3.242-.269-6.561-.081-9.814-.081v-9.864c3.14.003 6.297-.058 9.433.072.266 3.3.36 6.564.38 9.874M58.702 73.66c-1.295.134-2.56.415-3.849.59-1.553.209-3.058.197-4.591.586.024-3.351.004-6.701-.028-10.052 2.719-.41 5.62-.452 8.375-.579-.203 3.18-.356 6.287.093 9.455"/></g><path fill="#1B2B33" d="M40 19.277c18.213 0 33.508 12.485 37.798 29.362A39 39 0 0 0 79 39.001C79 17.46 61.538 0 40 0S1 17.46 1 39c0 3.327.417 6.556 1.202 9.64C6.492 31.761 21.787 19.276 40 19.276"/><path fill="#DE9CFD" d="M40 78c18.212 0 33.507-12.485 37.798-29.363C73.508 31.76 58.212 19.275 40 19.275S6.492 31.761 2.2 48.64C6.491 65.516 21.787 78 40 78"/><path fill="#FDE6DC" d="M27.184 29.43c-2.218 2.11-3.868 4.488-5.252 7.688-3.246 7.505-4.568 14.517-3.154 22.548.401 2.278 1.053 4.545 2.26 6.533s3.016 3.686 5.241 4.468c1.455.51 3.214.57 4.42-.374.84-.656 1.277-1.69 1.522-2.713.286-1.192.357-2.433.21-3.65-.231-1.898-1.564-7.414-1.733-9.318-.659-7.461 1.587-10.712 3.675-15.366.841-1.873 1.34-3.824 1.448-5.867.134-2.532-.812-4.803-2.47-5.55-1.404-.632-3.892-.01-6.166 1.603"/><path fill="#1B2B33" d="M26.844 29.09a22.3 22.3 0 0 0-3.33 4c-1.048 1.618-1.85 3.362-2.571 5.138-1.483 3.647-2.573 7.447-3.006 11.355-.434 3.91-.213 7.946.692 11.78.844 3.57 2.635 7.159 5.99 9.065 1.501.854 3.404 1.404 5.121.878 1.883-.577 2.731-2.351 3.059-4.124.192-1.043.244-2.106.126-3.16a22 22 0 0 0-.247-1.564c-.255-1.364-.55-2.722-.828-4.082-.137-.67-.272-1.343-.396-2.017a37 37 0 0 1-.154-.88q-.03-.178-.054-.355l-.024-.165-.013-.098c-.008-.063.01.088 0-.005a24 24 0 0 1-.013-5.221 19 19 0 0 1 .975-4.22c.44-1.258.98-2.43 1.548-3.628.702-1.483 1.444-2.96 1.916-4.532.554-1.849.874-3.876.566-5.793-.238-1.483-.934-3.074-2.297-3.884-1.325-.789-3.039-.465-4.4.062-.912.352-1.765.817-2.56 1.377-.213.15-.322.409-.183.649.12.204.45.328.664.178 1.323-.932 2.963-1.787 4.638-1.783.622 0 1.125.136 1.625.525.485.377.863.95 1.119 1.523.696 1.558.62 3.354.337 4.996-.303 1.75-.937 3.379-1.689 4.985-1.134 2.42-2.329 4.818-2.895 7.438-.632 2.924-.61 5.982-.077 8.917.245 1.348.532 2.689.809 4.031.233 1.13.486 2.265.644 3.409.005.034.023.18.006.04q.022.178.037.356.032.38.037.76.01.741-.088 1.475c-.113.858-.33 1.754-.774 2.51-.39.664-.974 1.166-1.732 1.383-.77.221-1.599.178-2.372-.01-3.433-.832-5.733-3.976-6.84-7.078-.643-1.802-1.002-3.696-1.24-5.586a35 35 0 0 1-.246-5.7c.147-3.726.94-7.39 2.16-10.917 1.174-3.387 2.608-6.78 4.955-9.565a22 22 0 0 1 1.681-1.781c.449-.428-.23-1.108-.68-.68z"/><path fill="#1B2B33" d="M30.205 29.904c-4.04 4.632-7.272 11.173-7.442 18.44a6.74 6.74 0 0 0-3.677 1.457l2.382.48c.22.043.451.093.617.24.26.231.28.62.284.962a36.5 36.5 0 0 0 2.445 12.651c.778 2.015 1.885 4.116 3.884 5.022A90.8 90.8 0 0 1 26.51 50.36l3.458-.592-3.34-1.349c-.29-5.314.935-12.99 3.576-18.514"/><path fill="#FDE6DC" d="M52.548 29.946c-2.344 1.977-4.136 4.254-5.712 7.367-3.698 7.303-5.447 14.225-4.525 22.323.261 2.298.773 4.598 1.857 6.652 1.083 2.055 2.785 3.856 4.959 4.767 1.42.594 3.171.755 4.435-.116.878-.607 1.377-1.612 1.685-2.62.358-1.173.505-2.408.431-3.63-.114-1.908-1.108-7.493-1.16-9.403-.202-7.487 2.238-10.6 4.608-15.125.953-1.821 1.572-3.738 1.803-5.771.288-2.52-.518-4.842-2.126-5.683-1.363-.713-3.886-.238-6.254 1.24"/><path fill="#1B2B33" d="M52.229 29.586a22.4 22.4 0 0 0-3.568 3.799c-1.145 1.554-2.051 3.247-2.88 4.978-1.703 3.554-3.022 7.284-3.693 11.16s-.698 7.918-.028 11.8c.625 3.613 2.194 7.3 5.425 9.398 1.448.94 3.314 1.6 5.06 1.176 1.914-.466 2.87-2.188 3.304-3.938.255-1.03.373-2.088.319-3.147a22 22 0 0 0-.151-1.576c-.172-1.376-.382-2.75-.578-4.124a117 117 0 0 1-.273-2.036q-.054-.443-.1-.888-.019-.18-.033-.359l-.013-.165-.007-.1c-.005-.062.004.09 0-.004a24 24 0 0 1 .306-5.213 19 19 0 0 1 1.23-4.155c.517-1.23 1.127-2.368 1.767-3.532.79-1.439 1.621-2.869 2.189-4.41.667-1.814 1.11-3.818.92-5.751-.147-1.494-.745-3.123-2.056-4.012-1.276-.864-3.005-.64-4.395-.195-.932.3-1.812.713-2.64 1.226-.221.137-.347.389-.221.636.106.212.428.355.651.216 1.378-.852 3.068-1.61 4.74-1.51.62.038 1.113.201 1.589.619.46.404.804.999 1.024 1.585.6 1.596.415 3.385.032 5.007-.41 1.729-1.14 3.317-1.99 4.877-1.28 2.349-2.619 4.674-3.344 7.257-.809 2.88-.974 5.934-.62 8.896.161 1.36.366 2.715.56 4.072.165 1.142.347 2.288.436 3.44.002.035.01.18.004.041l.015.359a10.2 10.2 0 0 1-.187 2.228c-.165.85-.437 1.731-.926 2.461-.43.64-1.042 1.107-1.812 1.28-.782.175-1.607.084-2.367-.148-3.377-1.032-5.48-4.305-6.395-7.465-.532-1.836-.776-3.748-.897-5.648-.122-1.9-.09-3.81.101-5.704.374-3.712 1.39-7.322 2.824-10.772 1.378-3.313 3.017-6.617 5.53-9.26a23 23 0 0 1 1.787-1.681c.475-.4-.163-1.12-.637-.718z"/><path fill="#1B2B33" d="M55.99 31.553c-4.433 4.275-8.227 10.521-9.034 17.746a6.77 6.77 0 0 0-3.792 1.144l2.331.676c.215.063.441.131.594.292.24.252.223.639.197.982a36.4 36.4 0 0 0 1.325 12.81c.598 2.072 1.517 4.258 3.43 5.328a90.8 90.8 0 0 1-.53-18.91q1.75-.148 3.497-.299l-3.21-1.625c.179-5.318 2.074-12.863 5.19-18.146"/></svg>