<svg xmlns="http://www.w3.org/2000/svg" width="79" height="79" fill="none"><path fill="#B894FB" d="M39.812 20.277c18.213 0 33.508 12.484 37.799 29.362a39 39 0 0 0 1.201-9.64C78.812 18.46 61.351 1 39.812 1c-21.538 0-39 17.46-39 39 0 3.327.418 6.555 1.202 9.639C6.304 32.76 21.6 20.277 39.812 20.277"/><path fill="#DE9CFD" d="M39.808 79c18.213 0 33.508-12.484 37.799-29.361C73.316 32.76 58.02 20.277 39.808 20.277 21.596 20.277 6.3 32.763 2.01 49.64 6.3 66.517 21.596 79 39.808 79"/><path fill="#fff" d="M33.066 9.93 10.282 32.71a9.67 9.67 0 0 0 0 13.675l22.784 22.78c3.777 3.776 9.9 3.776 13.677 0l22.785-22.78a9.67 9.67 0 0 0 0-13.675L46.743 9.93c-3.777-3.776-9.9-3.776-13.677 0"/><path fill="#452BC0" d="m33.688 12.616-20.72 20.717a8.793 8.793 0 0 0 0 12.436L33.69 66.486a8.796 8.796 0 0 0 12.438 0l20.72-20.717a8.793 8.793 0 0 0 0-12.436l-20.72-20.717a8.796 8.796 0 0 0-12.439 0"/><mask id="a" width="60" height="60" x="10" y="10" maskUnits="userSpaceOnUse" style="mask-type:luminance"><path fill="#fff" d="M33.69 12.622 12.97 33.34a8.793 8.793 0 0 0 0 12.436l20.721 20.717a8.797 8.797 0 0 0 12.438 0l20.72-20.717a8.793 8.793 0 0 0 0-12.436L46.13 12.622a8.797 8.797 0 0 0-12.439 0"/></mask><g fill="#A393FE" mask="url(#a)"><path d="M20.297 16.423c-3.317.338-6.293-1.094-9.567-1.204V5.355c3.318.277 5.935 2.623 9.366 2.01-.14 3.05-.116 6.024.2 9.059z"/><path d="M30.685 25.802c-3.4-1.162-6.865-.534-10.383-.402a42.5 42.5 0 0 0-.007-8.98c1.745-.256 3.445-.729 5.185-1.01 1.78-.288 3.38-.144 5.13.281.11 3.372.184 6.739.076 10.111"/><path d="M19.4 36.255c-1.605.171-3.01.047-4.551-.417-1.38-.416-2.665-.817-4.117-.894V25.08c3.199-.006 6.372.39 9.574.32-.409 3.593-1.093 7.228-.905 10.855M40.325 34.916c-3.29-.06-6.578-.033-9.868.02-.003-3.05.114-6.087.225-9.135 1.78.662 3.595 1.57 5.498 1.812 1.643.21 3.112-.556 4.531-1.287-.19 2.87-.396 5.71-.386 8.59M40.498 15.154c-1.421 1.005-2.769 1.918-4.571 1.785-1.812-.133-3.58-.78-5.321-1.246a311 311 0 0 1-.149-10.34c1.644 0 3.29.017 4.933 0 1.787-.018 3.223-.7 4.786-1.525-.083 3.786.102 7.547.322 11.326M49.694 25.082c-1.476 0-2.953-.011-4.43 0-1.712.013-3.022.473-4.542 1.248.239-3.73.002-7.451-.214-11.175 1.453-1.02 2.774-1.815 4.595-1.63 1.728.176 3.392.825 5.057 1.285.034 3.445.233 6.878-.466 10.273zM60.469 16.52c-1.78-.246-3.502-.74-5.267-1.058-1.69-.306-3.372-.248-5.05-.656a544 544 0 0 1-.03-10.175c1.687.672 3.419.664 5.142 1.162 1.847.533 3.603 1.31 5.48 1.741.19 3.05.176 5.966-.275 8.988z"/><path d="M69.708 25.077c-3.44 0-6.881.037-10.321.03.557-2.846.445-5.745.858-8.616 3.303.354 6.211-1.161 9.463-1.278zM58.095 35.069c-3.323-.044-6.642-.125-9.966-.125-.283-3.38.83-6.608 1.56-9.864 3.306 0 6.613.02 9.919.03-.717 3.317-1.74 6.526-1.513 9.959M50.119 44.804h-4.841c-1.718 0-3.221-.355-4.847-.89-.018-3-.078-6-.095-9 2.599.046 5.198.026 7.798.026.407 3.341 1.578 6.524 1.986 9.864zM30.516 44.294c-3.185.848-6.69.546-9.969.563-.224-2.89-.926-5.713-1.15-8.603 1.99-.288 3.94-.776 5.925-1.088 1.71-.268 3.413-.206 5.137-.228.01 3.119.047 6.238.056 9.357"/><path d="M69.703 44.805c-3.233-.002-6.465.004-9.698.005-.357-3.305-1.555-6.439-1.911-9.743 3.87.036 7.74-.111 11.61-.126zM59.114 54.837c-2.978-.064-5.946-.165-8.925-.165 0-3.266.193-6.609-.08-9.863q4.945.002 9.892.004c.222 3.356-.47 6.708-.887 10.025zM40.348 54.464c-3.337-.29-6.545-.163-9.877.1.02-3.423.049-6.846.044-10.27 1.66-.486 3.34-1.15 5.076-1.303 1.668-.147 3.27.408 4.831.926.013 3.516-.04 7.032-.075 10.547M20.002 54.716c-3.09.012-6.18-.038-9.27-.043v-9.864c3.273-.028 6.547.048 9.82.05.168 3.289-.285 6.585-.55 9.857"/><path d="M30.075 64.486c-3.21 1.097-6.607.32-9.912.12-.267-3.32-.412-6.566-.164-9.892 3.481-.018 7 .093 10.474-.15-.019 3.33-.066 6.605-.4 9.922zM50.234 64.783c-1.6.281-3.195.673-4.82.777-1.895.12-3.517-.537-5.234-1.28.135-3.272.145-6.54.175-9.815 3.276.281 6.557.207 9.843.207 0 3.37.004 6.74.036 10.11M69.683 64.536c-3.69-.028-7.387-.472-11.078-.332.199-3.123.156-6.258.516-9.368 3.52.06 7.042-.143 10.562-.164z"/><path d="M40.072 73.961c-1.507-1.001-3.53-2.678-5.485-2.308-1.766.335-3.3 1.697-4.78 2.627-.241-3.295-.063-6.515.268-9.797 1.57-.598 3.149-1.414 4.84-1.585 1.859-.188 3.603.656 5.261 1.38-.134 3.23-.195 6.45-.106 9.683zM20.546 74.48c-3.242-.269-6.561-.081-9.814-.081v-9.864c3.14.003 6.297-.058 9.433.072.266 3.3.36 6.564.38 9.874M58.702 73.66c-1.295.134-2.56.415-3.849.59-1.553.209-3.058.197-4.591.586.024-3.351.004-6.701-.028-10.052 2.719-.41 5.62-.452 8.375-.579-.203 3.18-.356 6.287.093 9.455"/></g></svg>