<svg xmlns="http://www.w3.org/2000/svg" width="79" height="79" fill="none"><path fill="#B894FB" d="M39.812 20.277c18.213 0 33.508 12.484 37.799 29.362a39 39 0 0 0 1.201-9.64C78.812 18.46 61.351 1 39.812 1c-21.538 0-39 17.46-39 39 0 3.327.418 6.555 1.202 9.639C6.304 32.76 21.6 20.277 39.812 20.277"/><path fill="#DE9CFD" d="M39.808 79c18.213 0 33.508-12.484 37.799-29.361C73.316 32.76 58.02 20.277 39.808 20.277 21.596 20.277 6.3 32.763 2.01 49.64 6.3 66.517 21.596 79 39.808 79"/><path fill="#fff" d="M33.066 9.93 10.282 32.71a9.67 9.67 0 0 0 0 13.675l22.784 22.78c3.777 3.776 9.9 3.776 13.677 0l22.785-22.78a9.67 9.67 0 0 0 0-13.675L46.743 9.93c-3.777-3.776-9.9-3.776-13.677 0"/><path fill="#452BC0" d="m33.688 12.616-20.72 20.717a8.793 8.793 0 0 0 0 12.436L33.69 66.486a8.796 8.796 0 0 0 12.438 0l20.72-20.717a8.793 8.793 0 0 0 0-12.436l-20.72-20.717a8.796 8.796 0 0 0-12.439 0"/><mask id="a" width="60" height="60" x="10" y="10" maskUnits="userSpaceOnUse" style="mask-type:luminance"><path fill="#fff" d="M33.69 12.622 12.97 33.34a8.793 8.793 0 0 0 0 12.436l20.721 20.717a8.797 8.797 0 0 0 12.438 0l20.72-20.717a8.793 8.793 0 0 0 0-12.436L46.13 12.622a8.797 8.797 0 0 0-12.439 0"/></mask><g fill="#A393FE" mask="url(#a)"><path d="M20.297 16.423c-3.317.338-6.293-1.094-9.567-1.204V5.355c3.318.277 5.935 2.623 9.366 2.01-.14 3.05-.116 6.024.2 9.059z"/><path d="M30.685 25.802c-3.4-1.162-6.865-.534-10.383-.402a42.5 42.5 0 0 0-.007-8.98c1.745-.256 3.445-.729 5.185-1.01 1.78-.288 3.38-.144 5.13.281.11 3.372.184 6.739.076 10.111"/><path d="M19.4 36.255c-1.605.171-3.01.047-4.551-.417-1.38-.416-2.665-.817-4.117-.894V25.08c3.199-.006 6.372.39 9.574.32-.409 3.593-1.093 7.228-.905 10.855M40.325 34.916c-3.29-.06-6.578-.033-9.868.02-.003-3.05.114-6.087.225-9.135 1.78.662 3.595 1.57 5.498 1.812 1.643.21 3.112-.556 4.531-1.287-.19 2.87-.396 5.71-.386 8.59M40.498 15.154c-1.421 1.005-2.769 1.918-4.571 1.785-1.812-.133-3.58-.78-5.321-1.246a311 311 0 0 1-.149-10.34c1.644 0 3.29.017 4.933 0 1.787-.018 3.223-.7 4.786-1.525-.083 3.786.102 7.547.322 11.326M49.694 25.082c-1.476 0-2.953-.011-4.43 0-1.712.013-3.022.473-4.542 1.248.239-3.73.002-7.451-.214-11.175 1.453-1.02 2.774-1.815 4.595-1.63 1.728.176 3.392.825 5.057 1.285.034 3.445.233 6.878-.466 10.273zM60.469 16.52c-1.78-.246-3.502-.74-5.267-1.058-1.69-.306-3.372-.248-5.05-.656a544 544 0 0 1-.03-10.175c1.687.672 3.419.664 5.142 1.162 1.847.533 3.603 1.31 5.48 1.741.19 3.05.176 5.966-.275 8.988z"/><path d="M69.708 25.077c-3.44 0-6.881.037-10.321.03.557-2.846.445-5.745.858-8.616 3.303.354 6.211-1.161 9.463-1.278zM58.095 35.069c-3.323-.044-6.642-.125-9.966-.125-.283-3.38.83-6.608 1.56-9.864 3.306 0 6.613.02 9.919.03-.717 3.317-1.74 6.526-1.513 9.959M50.119 44.804h-4.841c-1.718 0-3.221-.355-4.847-.89-.018-3-.078-6-.095-9 2.599.046 5.198.026 7.798.026.407 3.341 1.578 6.524 1.986 9.864zM30.516 44.294c-3.185.848-6.69.546-9.969.563-.224-2.89-.926-5.713-1.15-8.603 1.99-.288 3.94-.776 5.925-1.088 1.71-.268 3.413-.206 5.137-.228.01 3.119.047 6.238.056 9.357"/><path d="M69.703 44.805c-3.233-.002-6.465.004-9.698.005-.357-3.305-1.555-6.439-1.911-9.743 3.87.036 7.74-.111 11.61-.126zM59.114 54.837c-2.978-.064-5.946-.165-8.925-.165 0-3.266.193-6.609-.08-9.863q4.945.002 9.892.004c.222 3.356-.47 6.708-.887 10.025zM40.348 54.464c-3.337-.29-6.545-.163-9.877.1.02-3.423.049-6.846.044-10.27 1.66-.486 3.34-1.15 5.076-1.303 1.668-.147 3.27.408 4.831.926.013 3.516-.04 7.032-.075 10.547M20.002 54.716c-3.09.012-6.18-.038-9.27-.043v-9.864c3.273-.028 6.547.048 9.82.05.168 3.289-.285 6.585-.55 9.857"/><path d="M30.075 64.486c-3.21 1.097-6.607.32-9.912.12-.267-3.32-.412-6.566-.164-9.892 3.481-.018 7 .093 10.474-.15-.019 3.33-.066 6.605-.4 9.922zM50.234 64.783c-1.6.281-3.195.673-4.82.777-1.895.12-3.517-.537-5.234-1.28.135-3.272.145-6.54.175-9.815 3.276.281 6.557.207 9.843.207 0 3.37.004 6.74.036 10.11M69.683 64.536c-3.69-.028-7.387-.472-11.078-.332.199-3.123.156-6.258.516-9.368 3.52.06 7.042-.143 10.562-.164z"/><path d="M40.072 73.961c-1.507-1.001-3.53-2.678-5.485-2.308-1.766.335-3.3 1.697-4.78 2.627-.241-3.295-.063-6.515.268-9.797 1.57-.598 3.149-1.414 4.84-1.585 1.859-.188 3.603.656 5.261 1.38-.134 3.23-.195 6.45-.106 9.683zM20.546 74.48c-3.242-.269-6.561-.081-9.814-.081v-9.864c3.14.003 6.297-.058 9.433.072.266 3.3.36 6.564.38 9.874M58.702 73.66c-1.295.134-2.56.415-3.849.59-1.553.209-3.058.197-4.591.586.024-3.351.004-6.701-.028-10.052 2.719-.41 5.62-.452 8.375-.579-.203 3.18-.356 6.287.093 9.455"/></g><path fill="#1B2B33" d="M40 19.277c18.213 0 33.508 12.485 37.798 29.362A39 39 0 0 0 79 39.001C79 17.46 61.538 0 40 0S1 17.46 1 39c0 3.327.417 6.556 1.202 9.64C6.492 31.761 21.787 19.276 40 19.276"/><path fill="#DE9CFD" d="M40 78c18.212 0 33.507-12.485 37.798-29.363C73.508 31.76 58.212 19.275 40 19.275S6.492 31.761 2.2 48.64C6.491 65.516 21.787 78 40 78"/><path fill="#FDE6DC" d="M27.184 29.43c-2.218 2.11-3.868 4.488-5.252 7.688-3.246 7.505-4.568 14.517-3.154 22.548.401 2.278 1.053 4.545 2.26 6.533s3.016 3.686 5.241 4.468c1.455.51 3.214.57 4.42-.374.84-.656 1.277-1.69 1.522-2.713.286-1.192.357-2.433.21-3.65-.231-1.898-1.564-7.414-1.733-9.318-.659-7.461 1.587-10.712 3.675-15.366.841-1.873 1.34-3.824 1.448-5.867.134-2.532-.812-4.803-2.47-5.55-1.404-.632-3.892-.01-6.166 1.603"/><path fill="#1B2B33" d="M26.844 29.09a22.3 22.3 0 0 0-3.33 4c-1.048 1.618-1.85 3.362-2.571 5.138-1.483 3.647-2.573 7.447-3.006 11.355-.434 3.91-.213 7.946.692 11.78.844 3.57 2.635 7.159 5.99 9.065 1.501.854 3.404 1.404 5.121.878 1.883-.577 2.731-2.351 3.059-4.124.192-1.043.244-2.106.126-3.16a22 22 0 0 0-.247-1.564c-.255-1.364-.55-2.722-.828-4.082-.137-.67-.272-1.343-.396-2.017a37 37 0 0 1-.154-.88q-.03-.178-.054-.355l-.024-.165-.013-.098c-.008-.063.01.088 0-.005a24 24 0 0 1-.013-5.221 19 19 0 0 1 .975-4.22c.44-1.258.98-2.43 1.548-3.628.702-1.483 1.444-2.96 1.916-4.532.554-1.849.874-3.876.566-5.793-.238-1.483-.934-3.074-2.297-3.884-1.325-.789-3.039-.465-4.4.062-.912.352-1.765.817-2.56 1.377-.213.15-.322.409-.183.649.12.204.45.328.664.178 1.323-.932 2.963-1.787 4.638-1.783.622 0 1.125.136 1.625.525.485.377.863.95 1.119 1.523.696 1.558.62 3.354.337 4.996-.303 1.75-.937 3.379-1.689 4.985-1.134 2.42-2.329 4.818-2.895 7.438-.632 2.924-.61 5.982-.077 8.917.245 1.348.532 2.689.809 4.031.233 1.13.486 2.265.644 3.409.005.034.023.18.006.04q.022.178.037.356.032.38.037.76.01.741-.088 1.475c-.113.858-.33 1.754-.774 2.51-.39.664-.974 1.166-1.732 1.383-.77.221-1.599.178-2.372-.01-3.433-.832-5.733-3.976-6.84-7.078-.643-1.802-1.002-3.696-1.24-5.586a35 35 0 0 1-.246-5.7c.147-3.726.94-7.39 2.16-10.917 1.174-3.387 2.608-6.78 4.955-9.565a22 22 0 0 1 1.681-1.781c.449-.428-.23-1.108-.68-.68z"/><path fill="#1B2B33" d="M30.205 29.904c-4.04 4.632-7.272 11.173-7.442 18.44a6.74 6.74 0 0 0-3.677 1.457l2.382.48c.22.043.451.093.617.24.26.231.28.62.284.962a36.5 36.5 0 0 0 2.445 12.651c.778 2.015 1.885 4.116 3.884 5.022A90.8 90.8 0 0 1 26.51 50.36l3.458-.592-3.34-1.349c-.29-5.314.935-12.99 3.576-18.514"/><path fill="#FDE6DC" d="M52.548 29.946c-2.344 1.977-4.136 4.254-5.712 7.367-3.698 7.303-5.447 14.225-4.525 22.323.261 2.298.773 4.598 1.857 6.652 1.083 2.055 2.785 3.856 4.959 4.767 1.42.594 3.171.755 4.435-.116.878-.607 1.377-1.612 1.685-2.62.358-1.173.505-2.408.431-3.63-.114-1.908-1.108-7.493-1.16-9.403-.202-7.487 2.238-10.6 4.608-15.125.953-1.821 1.572-3.738 1.803-5.771.288-2.52-.518-4.842-2.126-5.683-1.363-.713-3.886-.238-6.254 1.24"/><path fill="#1B2B33" d="M52.229 29.586a22.4 22.4 0 0 0-3.568 3.799c-1.145 1.554-2.051 3.247-2.88 4.978-1.703 3.554-3.022 7.284-3.693 11.16s-.698 7.918-.028 11.8c.625 3.613 2.194 7.3 5.425 9.398 1.448.94 3.314 1.6 5.06 1.176 1.914-.466 2.87-2.188 3.304-3.938.255-1.03.373-2.088.319-3.147a22 22 0 0 0-.151-1.576c-.172-1.376-.382-2.75-.578-4.124a117 117 0 0 1-.273-2.036q-.054-.443-.1-.888-.019-.18-.033-.359l-.013-.165-.007-.1c-.005-.062.004.09 0-.004a24 24 0 0 1 .306-5.213 19 19 0 0 1 1.23-4.155c.517-1.23 1.127-2.368 1.767-3.532.79-1.439 1.621-2.869 2.189-4.41.667-1.814 1.11-3.818.92-5.751-.147-1.494-.745-3.123-2.056-4.012-1.276-.864-3.005-.64-4.395-.195-.932.3-1.812.713-2.64 1.226-.221.137-.347.389-.221.636.106.212.428.355.651.216 1.378-.852 3.068-1.61 4.74-1.51.62.038 1.113.201 1.589.619.46.404.804.999 1.024 1.585.6 1.596.415 3.385.032 5.007-.41 1.729-1.14 3.317-1.99 4.877-1.28 2.349-2.619 4.674-3.344 7.257-.809 2.88-.974 5.934-.62 8.896.161 1.36.366 2.715.56 4.072.165 1.142.347 2.288.436 3.44.002.035.01.18.004.041l.015.359a10.2 10.2 0 0 1-.187 2.228c-.165.85-.437 1.731-.926 2.461-.43.64-1.042 1.107-1.812 1.28-.782.175-1.607.084-2.367-.148-3.377-1.032-5.48-4.305-6.395-7.465-.532-1.836-.776-3.748-.897-5.648-.122-1.9-.09-3.81.101-5.704.374-3.712 1.39-7.322 2.824-10.772 1.378-3.313 3.017-6.617 5.53-9.26a23 23 0 0 1 1.787-1.681c.475-.4-.163-1.12-.637-.718z"/><path fill="#1B2B33" d="M55.99 31.553c-4.433 4.275-8.227 10.521-9.034 17.746a6.77 6.77 0 0 0-3.792 1.144l2.331.676c.215.063.441.131.594.292.24.252.223.639.197.982a36.4 36.4 0 0 0 1.325 12.81c.598 2.072 1.517 4.258 3.43 5.328a90.8 90.8 0 0 1-.53-18.91q1.75-.148 3.497-.299l-3.21-1.625c.179-5.318 2.074-12.863 5.19-18.146"/><path fill="#0AB59C" d="M39.78 78.41c21.54 0 39-17.462 39-39.001 0-21.54-17.46-39-39-39s-39 17.46-39 39 17.46 39 39 39"/><path fill="#000" d="M34.591 29.38c-3.818-.14-6.423-.547-11.352-.56-5.575-.012-10.56.137-13.546 4.124-2.52 3.363-2.257 8.31-.178 11.982 2.08 3.673 5.658 6.232 9.414 8.06 8.028 3.904 17.145 4.924 26.028 4.596 5.363-.199 10.828-.901 15.638-3.318s8.906-6.793 9.915-12.158c.532-2.831.118-5.968-1.674-8.204-2.514-3.14-6.918-3.754-10.884-4.037a232 232 0 0 0-23.362-.486"/><path fill="#F30" d="M34.592 27.621c-4.856-.183-9.668-.697-14.537-.52-2.343.084-4.78.306-6.972 1.194-2.304.934-4.29 2.505-5.517 4.7C4.97 37.642 6.092 43.55 9.218 47.638c3.335 4.363 8.4 7.014 13.485 8.812 5.397 1.907 11.158 2.734 16.864 2.911 5.695.178 11.648-.066 17.142-1.694 5.076-1.505 9.685-4.372 12.76-8.742 2.942-4.18 4.198-10.109 1.64-14.78-2.576-4.704-8.195-5.676-13.062-6.03a229 229 0 0 0-18.731-.585q-2.364.022-4.724.091c-.95.027-1.759.789-1.759 1.759s.806 1.786 1.759 1.758c5.884-.17 11.772-.124 17.652.15 2.708.127 5.434.236 8.124.564.032.003.342.048.092.011l.373.056q.418.066.832.146c.579.113 1.154.249 1.719.417q.353.105.699.227c.047.016.663.258.426.156a10 10 0 0 1 1.501.807c.636.416 1.415 1.174 1.867 1.912.337.551.455.804.634 1.337.184.555.329 1.135.403 1.714-.028-.22.006.103.007.12q.016.197.03.396.023.445.015.892a9 9 0 0 1-.15 1.595q-.137.736-.355 1.455a13 13 0 0 1-.507 1.405c-.94 2.078-2.078 3.584-3.7 5.109-.871.817-1.462 1.282-2.444 1.928a22 22 0 0 1-3.112 1.69c-4.706 2.09-9.978 2.53-15.085 2.638-5.274.112-10.48-.259-15.584-1.502-4.665-1.136-9.65-3.033-13.268-6.02-1.821-1.503-3.221-3.1-4.2-5.23-.136-.294-.09-.187-.222-.55q-.13-.36-.24-.728a14 14 0 0 1-.374-1.636 13 13 0 0 1-.087-1.473q0-.378.027-.755.014-.188.032-.375c.035-.386-.028.074.04-.275.109-.55.237-1.09.427-1.618.137-.38.318-.756.625-1.251.326-.528.388-.6.774-1.014q.264-.284.551-.543.126-.111.256-.22c.272-.235-.15.082.175-.133 1.533-1.016 3.382-1.561 5.06-1.75 4.588-.519 9.276-.146 13.865.176 1.038.073 2.078.134 3.118.174.95.035 1.76-.834 1.76-1.76 0-.982-.806-1.722-1.76-1.758z"/><path fill="#fff" d="M16.754 31.365c1.209 3.124 3.504 6.545 5.903 8.85 1.767-2.781 3.391-6.08 4.675-9.125-3.346-.636-7.684-.224-10.578.275M47.61 31.527c1.517 2.705 3.428 6.131 4.945 8.836 2.008-2.534 4.805-5.654 6.814-8.189-3.657-.353-8.452-.457-11.76-.647M25.072 53.295c1.397-2.06 3.545-4.538 5.137-6.445.184-.221.432-.464.71-.398.212.05.34.262.447.455 1.4 2.559 2.709 5.497 3.58 8.288-.836.048-7.313-.9-9.874-1.9"/><path fill="#F7C927" d="M47.383 50.707c-3.827-4.355-12.847-7.354-18.28-5.5-4.522 1.542-8.17 5.259-12.82 6.337A12.18 12.18 0 0 1 8.005 50.5c-1.562-.809-3.807-1.805-4.733-.293-.632 1.032.07 2.373.867 3.283 1.055 1.203 2.331 2.234 3.805 2.823 4.24 1.696 8.94-.524 12.855-2.882s8.206-5.017 12.687-4.19c2.273.42 4.29 1.706 6.242 2.968 2.151 1.39 2.532 1.801 4.683 3.19.438-1.262 2.654-1.594 2.533-2.929-.12-1.335 1.696-2.14.402-2.392"/><path fill="#fff" d="M44.411 55.399c.886-2.565 1.94-5.636 2.899-8.175.109-.286.509-1.097.509-1.097s.499.699.637.902l5.042 7.385c-2.791.67-6.696.895-9.088.985"/><path fill="#57F0CD" d="M39.56 78.41c21.539 0 39-17.462 39-39.001 0-21.54-17.461-39-39-39S.558 17.868.558 39.408s17.46 39 39 39"/><path fill="#241715" d="M39.45 56.142c12.972 0 23.488-6.256 23.488-13.974 0-7.717-10.516-13.973-23.488-13.973s-23.487 6.256-23.487 13.973S26.479 56.142 39.45 56.142"/><path fill="red" d="M61.169 42.168c-.034 2.74-1.743 5.17-3.974 6.967-2.944 2.374-6.678 3.72-10.339 4.493-7.94 1.677-17.42.854-24.257-3.835-2.344-1.608-4.47-3.972-4.832-6.823-.318-2.5 1.016-5.05 3.003-6.942 2.654-2.528 6.197-4.028 9.698-4.945 4.348-1.139 8.916-1.372 13.376-.87 4.368.491 8.81 1.83 12.46 4.333 2.637 1.808 4.826 4.526 4.865 7.623.028 2.278 3.571 2.284 3.542 0-.108-8.518-9.394-13.208-16.593-14.807-9.093-2.018-20.26-1.135-27.949 4.583-3.032 2.254-5.461 5.313-5.91 9.162-.412 3.528 1.228 6.898 3.659 9.367 2.995 3.043 7.08 4.945 11.148 6.073 4.937 1.37 10.212 1.692 15.289 1.06 8.185-1.018 20.23-5.46 20.356-15.438.028-2.28-3.514-2.281-3.542 0"/><path fill="#fff" d="M33.792 30.295c-.084 1.199.061 2.508.253 3.694.111.684.303 1.419.848 1.838.324.25.736.355 1.139.414.643.094 1.3.084 1.94-.027.293-.05.59-.127.83-.303.22-.162.378-.398.496-.647.392-.825.378-1.784.284-2.694s-.26-1.826-.145-2.734l-3.928.158c-.585.024-1.188.051-1.718.302M32.296 30.508c-.29 1.33.16 2.977-.051 4.321-.045.289-.131.584-.329.796-.268.289-.684.368-1.071.432-.357.059-.726.118-1.076.027-.508-.131-.897-.563-1.111-1.047-.214-.482-.282-1.017-.345-1.542l-.182-1.49c-.011-.086-.02-.177.017-.255.044-.09.139-.141.229-.184 1.096-.524 2.71-.96 3.92-1.058M25.7 32.718l.565 2.778c.147.718.275 1.532-.147 2.13-.39.55-1.166.724-1.806.525-.639-.2-1.146-.71-1.498-1.286-.35-.576-.567-1.223-.806-1.854a8.6 8.6 0 0 1 3.654-2.415M40.861 29.985l.205 3.797c.022.408.045.825.188 1.207.288.773 1.062 1.308 1.875 1.4s1.64-.222 2.266-.755c.238-.203.456-.444.574-.738.134-.33.131-.699.128-1.056l-.035-3.065c0-.088-.004-.181-.055-.252-.05-.072-.138-.105-.221-.134-1.626-.558-3.224-.643-4.925-.404M48.509 31.223a20 20 0 0 0-.254 3.833c.011.358.038.735.24 1.03.28.415.814.548 1.3.653.355.075.733.149 1.074.02.225-.086.41-.252.568-.437.828-.973.905-2.371.893-3.655 0-.084-.004-.174-.051-.243-.046-.068-.127-.103-.202-.135l-1.69-.701c-.61-.253-1.25-.51-1.906-.445M54.99 33.758c-.33.8-.41 1.682-.485 2.546-.037.419-.064.876.171 1.223.177.261.473.41.76.54q.478.216.967.4c.304.114.636.22.945.122.417-.133.642-.583.78-1.003q.18-.552.27-1.126c.019-.123.034-.253-.005-.371-.04-.125-.136-.224-.23-.315a9.9 9.9 0 0 0-2.885-1.948M33.792 54.027c-.138-1.057-.105-2.373-.013-3.435.026-.307.064-.617.165-.908.272-.778 1.033-1.355 1.85-1.398.814-.044 1.633.448 1.984 1.193.253.537.27 1.153.281 1.75.02.968.038 2.271.057 3.24-1.225 0-2.981-.037-4.324-.441M32.321 53.666l-.018-1.768c-.009-.735-.02-1.491-.31-2.164s-.933-1.247-1.658-1.217c-.452.019-.874.27-1.176.611-.3.342-.49.77-.63 1.205a6.3 6.3 0 0 0-.289 2.038c.001.069.006.14.04.199.035.062.098.101.16.138 1.11.65 2.6 1.017 3.881.957M26.258 51.733a21 21 0 0 0 .314-1.975c.036-.335.064-.682-.04-1.003-.09-.285-.277-.526-.465-.758-.155-.19-.317-.384-.531-.504-.572-.32-1.328.01-1.707.548-.378.538-.474 1.223-.56 1.878a.55.55 0 0 0 .011.274.55.55 0 0 0 .172.2c.795.661 1.782 1.271 2.768 1.53M39.34 54.43c-.164-1.219-.108-2.565.094-3.778.118-.714.342-1.482.932-1.892.72-.5 1.768-.255 2.386.369.619.623.877 1.527.968 2.405s.039 1.767.15 2.644a19.3 19.3 0 0 1-4.528.253M45.622 53.99c-.292-1.11-.262-2.534-.048-3.661.055-.294.134-.593.314-.827.299-.386.839-.523 1.312-.425.473.1.885.401 1.215.76.33.357.596.784.72 1.256.167.63.076 1.305.228 1.94-1.196.412-2.481.86-3.742.957M50.656 52.525a17 17 0 0 1-.187-1.721c-.032-.57-.03-1.166.223-1.677.252-.511.823-.904 1.37-.768.257.064.476.23.683.399.53.43 1.063.928 1.245 1.59.073.267.085.546.096.821.003.08.005.166-.04.23-.038.055-.1.085-.16.113a27 27 0 0 1-3.256 1.243"/><path fill="#1B2B33" d="M35.574 6.799q.15 5.766.3 11.53.037 1.454.075 2.907c.02.768-.15 1.893.622 2.353.367.219.812.188 1.22.187l1.263-.005 2.886-.012c.93-.003.932-1.465 0-1.46l-2.526.01-1.263.005c-.21 0-.42.004-.631.003q-.11 0-.22-.002.15.25.123.046c.059-.07-.012-.447-.015-.562l-.018-.75-.035-1.313-.065-2.53-.27-10.407c-.024-.938-1.47-.943-1.445 0M30.213 11.867c-5.405-5.065-11.413.3-10.744 4.96 0 0 2.094-2.42 4.736-3.504 3.917-1.606 5.987-1.45 6.008-1.456"/><path fill="#F187B6" d="M11.24 32.143c2.608 0 4.722-2.138 4.722-4.775s-2.114-4.774-4.722-4.774-4.722 2.137-4.722 4.774 2.114 4.775 4.722 4.775M74.466 29.118c0 2.636-2.114 4.775-4.722 4.775s-4.722-2.137-4.722-4.775c0-2.637 2.114-4.774 4.722-4.774s4.722 2.137 4.722 4.774"/><path fill="#1B2B33" d="M44.318 11.19c5.405-5.066 11.413.3 10.744 4.958 0 0-2.094-2.42-4.736-3.503-3.917-1.606-5.987-1.45-6.008-1.455"/></svg>