<svg xmlns="http://www.w3.org/2000/svg" width="1894" height="844" fill="none"><g stroke="#C4BEDD" clip-path="url(#a)" opacity=".5" style="mix-blend-mode:plus-lighter"><path d="M1899 17.658H.002M1899 145.416H-.001M1899 273.172H-.001M1899 400.932H.002M1899 528.686-.001 528.685M1899 656.443H-.001M1899 784.197H-.001M1873.39 1808.39V-159.998M1750.14 1808.39V-159.998M1626.89 1808.39V-159.998M1503.64 1808.39V-159.996M1380.38 1808.39V-160M1257.13 1808.39V-159.996M1133.88 1808.39V-159.996M1010.62 1808.39l.01-1968.388M887.375 1808.39V-159.998M764.121 1808.39V-159.998M640.865 1808.39V-160M517.615 1808.39V-160M394.367 1808.39V-159.998M271.115 1808.39V-159.996M147.861 1808.39l.001-1968.388M24.607 1808.39 24.608-160"/></g><defs><clipPath id="a"><path fill="#fff" d="M0 0h1894v844H0z"/></clipPath></defs></svg>