<svg xmlns="http://www.w3.org/2000/svg" width="446" height="272" fill="none"><path fill="#fff" d="M353.036 204.666c.928-4.622 1.521-9.34 1.521-14.18 0-46.292-44.436-83.848-99.285-83.848-.154 0-.283.024-.438.024-15.155-27.998-45.441-47.114-80.417-47.114-2.448 0-4.846.169-7.243.362C157.973 25.694 125.883.407 87.582.407c-30.93 0-57.864 16.504-71.911 40.872C8.35 39.51.72 38.495-7.166 38.495c-52.322 0-94.748 40.968-94.748 91.519 0 3.896.335 7.719.825 11.47-46.704 1.452-84.412 36.879-87.505 81.573C-229.241 241.037-257 276.972-257 318.4c0 59.407 57.014 107.586 127.379 107.586 33.533 0 63.998-10.961 86.732-28.82 22.32 24.925 56.755 40.92 95.418 40.92 43.559 0 81.783-20.303 103.33-50.841 19.641 24.9 50.622 40.968 85.521 40.968 28.275 0 53.998-10.575 73.2-27.804 8.609 2.226 17.604 3.533 26.935 3.533 57.142 0 103.485-44.744 103.485-99.941 0-51.494-40.234-93.793-91.964-99.335"/><path fill="#fff" stroke="#040203" stroke-linecap="round" stroke-linejoin="round" stroke-miterlimit="10" d="M353.036 204.666c.928-4.622 1.521-9.34 1.521-14.18 0-46.292-44.436-83.848-99.285-83.848-.154 0-.283.024-.438.024-15.155-27.998-45.441-47.114-80.417-47.114-2.448 0-4.846.169-7.243.362C157.973 25.694 125.883.407 87.582.407c-30.93 0-57.864 16.504-71.911 40.872C8.35 39.51.72 38.495-7.166 38.495c-52.322 0-94.748 40.968-94.748 91.519 0 3.896.335 7.719.825 11.47-46.704 1.452-84.412 36.879-87.505 81.573C-229.241 241.037-257 276.972-257 318.4c0 59.407 57.014 107.586 127.379 107.586 33.533 0 63.998-10.961 86.732-28.82 22.32 24.925 56.755 40.92 95.418 40.92 43.559 0 81.783-20.303 103.33-50.841 19.641 24.9 50.622 40.968 85.521 40.968 28.275 0 53.998-10.575 73.2-27.804 8.609 2.226 17.604 3.533 26.935 3.533 57.142 0 103.485-44.744 103.485-99.941 0-51.494-40.234-93.793-91.964-99.335"/><path fill="#fff" d="M329.739 169.48c-8.867-23.715-30.904-42.468-58.87-50.164z"/><path stroke="#040203" stroke-linecap="round" stroke-linejoin="round" stroke-miterlimit="10" d="M329.739 169.48c-8.867-23.715-30.904-42.468-58.87-50.164"/></svg>