<svg xmlns="http://www.w3.org/2000/svg" width="261" height="271" fill="none"><path fill="#fff" d="M611.036 36.592c.928-4.622 1.521-9.34 1.521-14.18 0-46.292-44.436-83.848-99.285-83.848-.154 0-.283.024-.438.024-15.155-27.998-45.441-47.115-80.417-47.115-2.448 0-4.846.17-7.243.363-9.201-34.216-41.291-59.504-79.592-59.504-30.93 0-57.864 16.503-71.911 40.871-7.32-1.766-14.95-2.782-22.837-2.782-52.322 0-94.748 40.968-94.748 91.519 0 3.896.335 7.719.825 11.47-46.704 1.452-84.412 36.878-87.505 81.573C28.759 72.963 1 108.897 1 150.325c0 59.408 57.014 107.587 127.379 107.587 33.532 0 63.998-10.962 86.732-28.82 22.32 24.924 56.755 40.92 95.417 40.92 43.56 0 81.784-20.303 103.331-50.842 19.641 24.901 50.622 40.968 85.521 40.968 28.275 0 53.998-10.574 73.2-27.804 8.609 2.227 17.604 3.533 26.935 3.533 57.142 0 103.485-44.743 103.485-99.94 0-51.494-40.234-93.793-91.964-99.335"/><path fill="#fff" stroke="#040203" stroke-linecap="round" stroke-linejoin="round" stroke-miterlimit="10" d="M611.036 36.592c.928-4.622 1.521-9.34 1.521-14.18 0-46.292-44.436-83.848-99.285-83.848-.154 0-.283.024-.438.024-15.155-27.998-45.441-47.115-80.417-47.115-2.448 0-4.846.17-7.243.363-9.201-34.216-41.291-59.504-79.592-59.504-30.93 0-57.864 16.503-71.911 40.871-7.32-1.766-14.95-2.782-22.837-2.782-52.322 0-94.748 40.968-94.748 91.519 0 3.896.335 7.719.825 11.47-46.704 1.452-84.412 36.878-87.505 81.573C28.759 72.963 1 108.897 1 150.325c0 59.408 57.014 107.587 127.379 107.587 33.532 0 63.998-10.962 86.732-28.82 22.32 24.924 56.755 40.92 95.417 40.92 43.56 0 81.784-20.303 103.331-50.842 19.641 24.901 50.622 40.968 85.521 40.968 28.275 0 53.998-10.574 73.2-27.804 8.609 2.227 17.604 3.533 26.935 3.533 57.142 0 103.485-44.743 103.485-99.94 0-51.494-40.234-93.793-91.964-99.335"/><path fill="#fff" d="M28.785 142.438c0 26.57 12.398 50.72 32.58 68.506z"/><path stroke="#040203" stroke-linecap="round" stroke-linejoin="round" stroke-miterlimit="10" d="M28.785 142.438c0 26.57 12.398 50.72 32.58 68.506"/></svg>