<svg xmlns="http://www.w3.org/2000/svg" width="1902" height="1186" fill="none"><path fill="#7774F0" fillRule="evenodd" d="M1877.83 1185c12.8 0 23.17-10.37 23.17-23.17V82.189h-.01L1830.04 2l-57.46 64.938L1715.12 2l-60.13 67.962L1594.86 2l-67.03 75.759L1460.8 2l-64.02 72.35L1332.77 2l-69.64 78.704L1193.49 2l-57.46 64.938L1078.58 2l-60.14 67.962L958.312 2l-67.031 75.759L824.249 2l-64.015 72.35L696.218 2l-63.492 71.759L569.234 2l-57.457 64.938L454.32 2l-60.133 67.962L334.054 2 267.023 77.76 199.992 2l-64.016 72.35L71.96 2 1.01 82.19H1v1079.64c0 12.8 10.373 23.17 23.167 23.17z" clipRule="evenodd"/><path fill="#000" d="M1901 1161.83h1zm-23.17 23.17v1zM1901 186.242h1zm0-.071h-1v.003zm0-103.982h1v-1h-1zm-.01 0-.75.663.3.337h.45zM1830.04 2l.75-.663-.75-.846-.75.846zm-57.46 64.938-.75.663.75.846.75-.846zM1715.12 2l.75-.663-.75-.846-.74.846zm-60.13 67.962-.75.663.75.846.75-.846zM1594.86 2l.75-.663-.75-.846-.75.846zm-67.03 75.759-.75.663.75.846.75-.846zM1460.8 2l.75-.663-.75-.846-.75.846zm-64.02 72.35-.75.663.75.847.75-.847zM1332.77 2l.74-.663-.74-.846-.75.846zm-69.64 78.704-.75.662.75.847.75-.847zM1193.49 2l.75-.663-.75-.846-.75.846zm-57.46 64.938-.74.663.74.846.75-.846zM1078.58 2l.75-.663-.75-.846-.75.846zm-60.14 67.962-.74.663.74.846.75-.846zM958.312 2l.749-.663-.749-.846-.749.846zm-67.031 75.759-.749.663.749.846.749-.846zM824.249 2l.749-.663-.749-.846-.748.846zm-64.015 72.35-.749.663.749.847.749-.847zM696.218 2l.749-.663-.749-.846-.749.846zm-63.492 71.759-.749.663.749.846.749-.846zM569.234 2l.749-.663-.749-.846-.749.846zm-57.457 64.938-.749.663.749.846.749-.846zM454.32 2l.749-.663-.749-.846-.749.846zm-60.133 67.962-.749.663.749.846.749-.846zM334.054 2l.749-.663-.749-.846-.749.846zM267.023 77.76l-.749.662.749.847.749-.847zM199.992 2l.749-.663-.749-.846-.749.846zm-64.016 72.35-.749.663.749.847.749-.847zM71.96 2l.75-.663-.75-.846-.749.846zM1.01 82.19v1h.45l.298-.338zm-.01 0v-1H0v1zm0 .01H0zm0 330.726H0zm0 .116h1v-.006zM24.167 1185v1zM1900 1161.83c0 12.25-9.92 22.17-22.17 22.17v2c13.35 0 24.17-10.82 24.17-24.17zm0-975.588v975.588h2V186.242zm0-.068v.068h2v-.074zm0-103.985v103.982h2V82.189zm.99 1h.01v-2h-.01zm-71.7-80.526 70.95 80.19 1.5-1.326-70.95-80.19zM1773.33 67.6l57.46-64.938-1.5-1.326-57.46 64.938zm-58.95-64.938 57.45 64.938 1.5-1.326-57.46-64.938zm-58.64 67.962 60.13-67.962-1.49-1.326-60.14 67.963zm-61.63-67.962 60.13 67.962 1.5-1.325-60.13-67.963zm-65.53 75.759 67.03-75.76-1.5-1.325-67.03 75.76zm-68.53-75.76 67.03 75.76 1.5-1.326-67.03-75.759zm-62.52 72.351 64.02-72.35-1.5-1.326-64.02 72.351zm-65.51-72.35 64.01 72.35 1.5-1.325-64.02-72.35zm-68.14 78.703 69.63-78.703-1.49-1.326-69.64 78.704zm-71.14-78.703 69.64 78.703 1.5-1.325-69.64-78.704zM1136.78 67.6l57.46-64.938-1.5-1.326-57.45 64.938zm-58.95-64.938 57.46 64.938 1.49-1.326-57.45-64.938zm-58.64 67.962 60.14-67.962-1.5-1.326L1017.7 69.3zM957.563 2.663l60.137 67.962 1.49-1.325-60.129-67.963zM892.03 78.422l67.031-75.76-1.498-1.325-67.031 75.76zm-68.529-75.76 67.031 75.76 1.498-1.326-67.032-75.759zm-62.518 72.351 64.015-72.35-1.497-1.326-64.016 72.351zm-65.514-72.35 64.016 72.35 1.498-1.325-64.016-72.35zm-61.994 71.759 63.492-71.76-1.498-1.325-63.492 71.76zm-64.99-71.76 63.492 71.76 1.498-1.326-63.492-71.759zm-55.959 64.939 57.457-64.938-1.498-1.326-57.457 64.938zM453.571 2.663 511.028 67.6l1.498-1.326-57.457-64.938zm-58.635 67.962 60.133-67.962-1.498-1.326L393.438 69.3zM333.305 2.663l60.133 67.962 1.498-1.325-60.133-67.963zm-65.533 75.759 67.031-75.76-1.498-1.325-67.031 75.76zm-68.529-75.76 67.031 75.76 1.498-1.326-67.031-75.759zm-62.518 72.351 64.016-72.35-1.498-1.326-64.016 72.351zM71.211 2.663l64.016 72.35 1.498-1.325-64.016-72.35zM1.758 82.852l70.951-80.19-1.498-1.325-70.95 80.19zM1 83.189h.01v-2H1zm1-.99v-.01H0v.01zm0 330.727V82.2H0v330.726zm0 .11v-.11H0v.122zm0 748.794V413.042H0v748.788zM24.167 1184C11.925 1184 2 1174.07 2 1161.83H0c0 13.35 10.82 24.17 24.167 24.17zm1853.663 0H24.167v2H1877.83z"/></svg>