<svg xmlns="http://www.w3.org/2000/svg" width="385" height="384" fill="none"><g clip-path="url(#a)"><path fill="url(#b)" d="m243.859 188.248 1.686 43.912 10.875 10.875s-3.646 13.584-17.393 22.187c-6.018 3.77-13.971 6.58-24.434 6.854 14.92-24.659-.462-44.187-10.238-52.34 11.012-11.012 25.72-22.923 39.504-31.513z"/><path fill="url(#c)" d="M219.461 279.018c1.336 2.959-.074 12.561-7.029 20.814-6.967 8.79-19.465 16.244-40.491 27.106-.524.3-.999.549-1.486.837.275-.475.537-.962.824-1.474 10.763-20.776 18.192-33.149 27.057-40.091 8.328-6.93 18.091-8.453 21.125-7.192"/><path fill="url(#d)" d="M219.462 279.019c1.024 2.247-.05 9.539-5.331 15.819-5.282 6.68-14.783 12.336-30.765 20.601-.399.225-.749.425-1.136.637.212-.362.412-.736.637-1.111 8.178-15.794 13.821-25.184 20.551-30.465 6.318-5.269 13.747-6.43 16.057-5.469z" style="mix-blend-mode:screen"/><path fill="url(#e)" d="M219.45 279.007c.712 1.585-.05 6.692-3.746 11.087-3.708 4.682-10.375 8.652-21.587 14.446-.275.15-.525.299-.8.449.15-.249.288-.512.437-.786 5.744-11.088 9.702-17.668 14.409-21.376 4.445-3.696 9.651-4.507 11.262-3.845z" style="mix-blend-mode:screen"/><path fill="url(#f)" d="m257.668 240.738.099.1c4.333 4.382 7.055 9.526 7.442 13.434-5.843 9.789-16.793 21.064-24.834 28.755-5.319 5.269-9.901 7.279-19.34 11.674-1.474-2.572-3.996-6.318-7.517-9.814a48 48 0 0 0-9.813-7.516c4.395-9.439 6.405-14.022 11.674-19.341 7.728-8.078 19.065-19.065 28.866-24.896 3.908.437 9.053 3.209 13.41 7.616z"/><path fill="url(#g)" d="M270.379 227.977c1.449 2.997 2.685 13.872-5.181 26.282-.4-3.92-3.134-9.052-7.467-13.434l-.1-.1c-4.382-4.383-9.514-7.167-13.422-7.579 12.349-7.803 23.174-6.592 26.17-5.169"/><path fill="url(#h)" d="M221.036 294.7c-.237.113-.462.238-.699.35-.887.412-1.786.837-2.722 1.249-1.448-2.547-3.758-5.731-6.692-8.69l-.088-.088c-2.971-2.971-6.168-5.319-8.702-6.805.412-.936.836-1.835 1.236-2.709.1-.225.224-.424.337-.662 2.572 1.474 6.318 3.996 9.814 7.517a48 48 0 0 1 7.516 9.813z"/><path fill="#DAD7FF" d="M244.221 233.134c12.348-7.804 23.173-6.593 26.169-5.169.025.075.05.174.075.249a35.5 35.5 0 0 0-6.442.924l.025.025c-11.525 2.66-25.359 11.999-35.747 23.86-6.817 8.041-11.387 18.03-18.179 32.813-.1.224-.187.437-.287.661a43.4 43.4 0 0 0-7.679-5.756c.412-.936.837-1.835 1.236-2.709.1-.225.238-.437.338-.662 4.394-9.439 6.405-14.021 11.674-19.34 7.716-8.066 19.053-19.053 28.854-24.884z" style="mix-blend-mode:multiply"/><path fill="#CCC" d="m243.373 175.25.499 12.985c-10.101 9.451-23.623 23.098-32.725 36.171-7.017-5.844-14.658-8.216-14.658-8.216l46.884-40.915z"/><path fill="url(#i)" d="m142.137 128.755 10.875 10.875 43.913 1.685c-8.591 13.784-20.502 28.492-31.514 39.505-8.141-9.789-27.668-25.146-52.34-10.238.275-10.463 3.096-18.404 6.855-24.435 8.602-13.747 22.187-17.392 22.187-17.392z"/><path fill="url(#j)" d="M106.317 163.602c1.336 2.959-.075 12.561-7.03 20.814-6.967 8.79-19.465 16.244-40.49 27.106-.525.3-1 .549-1.486.837.275-.475.537-.962.824-1.474 10.762-20.776 18.191-33.149 27.056-40.091 8.328-6.93 18.092-8.453 21.126-7.192"/><path fill="url(#k)" d="M106.304 163.589c1.024 2.248-.05 9.539-5.331 15.819-5.282 6.68-14.783 12.336-30.765 20.602-.4.225-.75.424-1.136.637.212-.363.412-.737.636-1.112 8.179-15.794 13.822-25.183 20.552-30.465 6.318-5.269 13.747-6.43 16.056-5.468z" style="mix-blend-mode:screen"/><path fill="url(#l)" d="M106.292 163.577c.711 1.586-.05 6.692-3.746 11.087-3.708 4.682-10.376 8.653-21.588 14.446-.274.15-.524.3-.799.45.15-.25.287-.512.437-.787 5.744-11.087 9.702-17.667 14.409-21.376 4.445-3.695 9.651-4.507 11.262-3.845z" style="mix-blend-mode:screen"/><path fill="url(#m)" d="m144.497 125.32.1.1c4.333 4.383 7.055 9.527 7.442 13.435-5.831 9.776-16.781 21.051-24.822 28.742-5.319 5.269-9.901 7.279-19.34 11.674-1.473-2.572-3.996-6.318-7.517-9.814a48 48 0 0 0-9.813-7.516c4.395-9.439 6.405-14.022 11.674-19.341 7.728-8.078 19.065-19.065 28.867-24.896 3.908.437 9.052 3.209 13.409 7.616"/><path fill="url(#n)" d="M157.221 112.547c1.448 2.997 2.685 13.872-5.181 26.283-.4-3.921-3.134-9.053-7.467-13.435l-.1-.1c-4.382-4.382-9.514-7.167-13.422-7.579 12.348-7.803 23.174-6.592 26.17-5.169"/><path fill="url(#o)" d="M107.866 179.282c-.237.113-.462.238-.699.35-.887.412-1.786.837-2.722 1.249-1.448-2.547-3.746-5.719-6.692-8.69l-.088-.088c-2.959-2.984-6.168-5.319-8.702-6.804.412-.937.836-1.836 1.236-2.71.1-.225.237-.437.337-.662 2.572 1.474 6.318 3.996 9.814 7.517a48 48 0 0 1 7.516 9.813z"/><path fill="#DAD7FF" d="M131.051 117.716c12.348-7.804 23.173-6.593 26.17-5.169.024.075.049.174.074.249a35.5 35.5 0 0 0-6.442.924l.025.025c-11.524 2.66-25.359 11.999-35.747 23.86-6.817 8.041-11.387 18.03-18.179 32.813-.1.224-.187.437-.287.661a43.4 43.4 0 0 0-7.679-5.755c.412-.937.837-1.836 1.236-2.71.1-.225.238-.437.338-.662 4.395-9.439 6.405-14.021 11.674-19.34 7.716-8.066 19.065-19.065 28.854-24.884z" style="mix-blend-mode:multiply"/><path fill="url(#p)" d="M188.773 193.916c3.272 7.242-.187 30.777-17.23 51.016-17.055 21.55-47.683 39.817-99.21 66.424-1.274.724-2.448 1.373-3.647 2.048.687-1.187 1.324-2.348 2.035-3.609 26.383-50.929 44.562-81.219 66.287-98.249 20.389-16.993 44.324-20.727 51.765-17.63"/><path fill="url(#q)" d="M188.748 193.892c2.484 5.506-.138 23.385-13.085 38.755-12.948 16.369-36.234 30.241-75.389 50.467-.974.55-1.86 1.037-2.771 1.548.511-.911 1.01-1.785 1.548-2.746 20.039-38.693 33.873-61.717 50.367-74.665 15.495-12.922 33.686-15.756 39.33-13.384z" style="mix-blend-mode:screen"/><path fill="url(#r)" d="M188.723 193.866c1.748 3.87-.1 16.406-9.177 27.206-9.089 11.487-25.42 21.226-52.889 35.409-.674.375-1.311.737-1.948 1.099.362-.637.7-1.248 1.087-1.935 14.058-27.144 23.747-43.3 35.334-52.39 10.875-9.052 23.635-11.05 27.593-9.389" style="mix-blend-mode:screen"/><path fill="url(#s)" d="M282.352 100.111c.088.088.162.163.237.262 10.613 10.738 17.293 23.336 18.229 32.938-14.296 23.96-41.14 51.578-60.83 70.419-13.022 12.922-24.272 17.854-47.395 28.617-3.609-6.33-9.776-15.47-18.416-24.06-8.591-8.64-17.73-14.808-24.06-18.416 10.762-23.124 15.707-34.361 28.629-47.383 18.928-19.778 46.709-46.76 70.756-61.018 9.564 1.049 22.175 7.866 32.863 18.654z"/><path fill="url(#t)" d="M313.541 68.823c3.534 7.354 6.58 33.998-12.697 64.388-.974-9.589-7.679-22.187-18.304-32.912-.088-.087-.15-.175-.238-.262-10.712-10.763-23.335-17.543-32.899-18.566 30.265-19.153 56.797-16.144 64.138-12.648"/><path fill="url(#u)" d="M192.606 232.334c-.575.275-1.124.575-1.698.849a454 454 0 0 1-6.693 3.072c-3.571-6.243-9.189-14.034-16.393-21.263l-.213-.213c-7.266-7.316-15.095-13.022-21.325-16.655a597 597 0 0 1 3.034-6.63c.262-.562.549-1.074.811-1.611 6.331 3.608 15.47 9.776 24.06 18.416 8.64 8.59 14.808 17.73 18.417 24.06z"/><path fill="#DAD7FF" d="M249.291 81.583c30.265-19.128 56.784-16.131 64.138-12.648.063.162.138.412.188.587a93 93 0 0 0-15.795 2.235l.063.062c-28.23 6.505-62.141 29.379-87.612 58.471-16.681 19.702-27.893 44.174-44.549 80.407-.225.55-.474 1.074-.712 1.611-6.505-6.155-13.309-10.888-18.828-14.109a614 614 0 0 1 3.034-6.63c.262-.562.549-1.073.812-1.61 10.762-23.124 15.707-34.361 28.617-47.396 18.916-19.765 46.684-46.734 70.706-60.992h-.05z" style="mix-blend-mode:multiply"/><path fill="url(#v)" d="M238.764 138.325c-5.91-9.255-3.198-21.548 6.057-27.458 9.255-5.909 21.548-3.197 27.457 6.057s3.198 21.548-6.057 27.458c-9.255 5.909-21.548 3.198-27.457-6.057"/><path fill="#5845C9" d="M268.082 115.057c6.93 6.929 6.942 18.179 0 25.121s-18.179 6.942-25.121 0-6.942-18.179 0-25.121 18.179-6.942 25.121 0"/><path fill="#796AD9" d="M266.122 117.017c5.856 5.856 5.856 15.345 0 21.201s-15.345 5.855-21.2 0c-5.856-5.856-5.856-15.345 0-21.201s15.345-5.856 21.2 0"/><path fill="url(#w)" d="M266.122 117.017c5.856 5.856 5.856 15.345 0 21.201s-15.345 5.855-21.2 0c-5.856-5.856-5.856-15.345 0-21.201s15.345-5.856 21.2 0" opacity=".5" style="mix-blend-mode:screen"/><path fill="#F2F0FF" d="M266.795 122.612a3.901 3.901 0 1 1-5.517 5.518 3.901 3.901 0 0 1 5.517-5.518M264.56 131.939a1.936 1.936 0 0 1 0 2.747 1.936 1.936 0 0 1-2.747 0 1.94 1.94 0 0 1 0-2.747 1.936 1.936 0 0 1 2.747 0" opacity=".9"/><path fill="url(#x)" d="M235.281 147.857c7.766 7.766 7.766 20.352 0 28.118s-20.352 7.766-28.118 0-7.766-20.352 0-28.118 20.352-7.766 28.118 0"/><path fill="#5845C9" d="M203.77 158.633c1.814-9.641 11.099-15.987 20.741-14.174s15.987 11.098 14.174 20.74-11.099 15.987-20.74 14.174-15.988-11.098-14.175-20.74"/><path fill="#796AD9" d="M231.824 151.316c5.855 5.855 5.855 15.345 0 21.2-5.856 5.856-15.345 5.856-21.201 0s-5.856-15.345 0-21.2c5.856-5.856 15.345-5.856 21.201 0"/><path fill="url(#y)" d="M231.824 151.316c5.855 5.855 5.855 15.345 0 21.2-5.856 5.856-15.345 5.856-21.201 0s-5.856-15.345 0-21.2c5.856-5.856 15.345-5.856 21.201 0" opacity=".5" style="mix-blend-mode:screen"/><path fill="#F2F0FF" d="M232.497 156.909a3.903 3.903 0 0 1-5.519 5.518 3.903 3.903 0 0 1 5.519-5.518M230.25 166.248a1.94 1.94 0 0 1 0 2.747 1.94 1.94 0 0 1-2.747 0 1.936 1.936 0 0 1 0-2.747 1.936 1.936 0 0 1 2.747 0" opacity=".9"/></g><defs><linearGradient id="b" x1="252.412" x2="211.596" y1="253.335" y2="212.52" gradientUnits="userSpaceOnUse"><stop stop-color="#fff"/><stop offset=".25" stop-color="#F7F7FF"/><stop offset=".64" stop-color="#E2E1FF"/><stop offset="1" stop-color="#CAC8FF"/></linearGradient><linearGradient id="c" x1="170.543" x2="219.424" y1="327.862" y2="278.981" gradientUnits="userSpaceOnUse"><stop stop-color="#8400C5"/><stop offset="1" stop-color="#FF50C2"/></linearGradient><linearGradient id="d" x1="182.28" x2="371.562" y1="316.126" y2="126.844" gradientUnits="userSpaceOnUse"><stop stop-color="#8400C5"/><stop offset="1" stop-color="#FF50C2"/></linearGradient><linearGradient id="e" x1="193.367" x2="371.563" y1="305.039" y2="126.844" gradientUnits="userSpaceOnUse"><stop stop-color="#8400C5"/><stop offset="1" stop-color="#FF50C2"/></linearGradient><linearGradient id="f" x1="247.567" x2="222.47" y1="275.935" y2="250.839" gradientUnits="userSpaceOnUse"><stop stop-color="#fff"/><stop offset=".25" stop-color="#F7F7FF"/><stop offset=".64" stop-color="#E2E1FF"/><stop offset="1" stop-color="#CAC8FF"/></linearGradient><linearGradient id="g" x1="273.064" x2="252.013" y1="246.393" y2="225.343" gradientUnits="userSpaceOnUse"><stop stop-color="#745ED0"/><stop offset=".41" stop-color="#6C57CE"/><stop offset="1" stop-color="#5845C9"/></linearGradient><linearGradient id="h" x1="220.349" x2="203.019" y1="295.387" y2="278.057" gradientUnits="userSpaceOnUse"><stop stop-color="#745ED0"/><stop offset=".41" stop-color="#6C57CE"/><stop offset="1" stop-color="#5845C9"/></linearGradient><linearGradient id="i" x1="295.486" x2="254.671" y1="50.769" y2="9.954" gradientUnits="userSpaceOnUse"><stop stop-color="#fff"/><stop offset=".25" stop-color="#F7F7FF"/><stop offset=".64" stop-color="#E2E1FF"/><stop offset="1" stop-color="#CAC8FF"/></linearGradient><linearGradient id="j" x1="57.386" x2="106.267" y1="212.433" y2="163.552" gradientUnits="userSpaceOnUse"><stop stop-color="#8400C5"/><stop offset="1" stop-color="#FF50C2"/></linearGradient><linearGradient id="k" x1="69.122" x2="106.267" y1="200.696" y2="163.552" gradientUnits="userSpaceOnUse"><stop stop-color="#8400C5"/><stop offset="1" stop-color="#FF50C2"/></linearGradient><linearGradient id="l" x1="80.209" x2="106.267" y1="189.609" y2="163.552" gradientUnits="userSpaceOnUse"><stop stop-color="#8400C5"/><stop offset="1" stop-color="#FF50C2"/></linearGradient><linearGradient id="m" x1="134.396" x2="109.3" y1="160.517" y2="135.421" gradientUnits="userSpaceOnUse"><stop stop-color="#fff"/><stop offset=".25" stop-color="#F7F7FF"/><stop offset=".64" stop-color="#E2E1FF"/><stop offset="1" stop-color="#CAC8FF"/></linearGradient><linearGradient id="n" x1="159.906" x2="138.855" y1="130.964" y2="109.913" gradientUnits="userSpaceOnUse"><stop stop-color="#745ED0"/><stop offset=".41" stop-color="#6C57CE"/><stop offset="1" stop-color="#5845C9"/></linearGradient><linearGradient id="o" x1="107.192" x2="89.862" y1="179.957" y2="162.627" gradientUnits="userSpaceOnUse"><stop stop-color="#745ED0"/><stop offset=".41" stop-color="#6C57CE"/><stop offset="1" stop-color="#5845C9"/></linearGradient><linearGradient id="p" x1="68.874" x2="188.661" y1="313.591" y2="193.804" gradientUnits="userSpaceOnUse"><stop stop-color="#8400C5"/><stop offset="1" stop-color="#FF50C2"/></linearGradient><linearGradient id="q" x1="97.64" x2="188.66" y1="284.825" y2="193.804" gradientUnits="userSpaceOnUse"><stop stop-color="#8400C5"/><stop offset="1" stop-color="#FF50C2"/></linearGradient><linearGradient id="r" x1="124.797" x2="188.661" y1="257.668" y2="193.803" gradientUnits="userSpaceOnUse"><stop stop-color="#8400C5"/><stop offset="1" stop-color="#FF50C2"/></linearGradient><linearGradient id="s" x1="257.618" x2="196.114" y1="186.35" y2="124.845" gradientUnits="userSpaceOnUse"><stop stop-color="#fff"/><stop offset=".25" stop-color="#F7F7FF"/><stop offset=".64" stop-color="#E2E1FF"/><stop offset="1" stop-color="#CAC8FF"/></linearGradient><linearGradient id="t" x1="320.109" x2="268.518" y1="113.946" y2="62.355" gradientUnits="userSpaceOnUse"><stop stop-color="#745ED0"/><stop offset=".41" stop-color="#6C57CE"/><stop offset="1" stop-color="#5845C9"/></linearGradient><linearGradient id="u" x1="190.933" x2="148.456" y1="234.007" y2="191.531" gradientUnits="userSpaceOnUse"><stop stop-color="#745ED0"/><stop offset=".41" stop-color="#6C57CE"/><stop offset="1" stop-color="#5845C9"/></linearGradient><linearGradient id="v" x1="269.586" x2="241.468" y1="141.694" y2="113.576" gradientUnits="userSpaceOnUse"><stop stop-color="#E7EEFF"/><stop offset=".33" stop-color="#E1E6FF"/><stop offset=".83" stop-color="#D0D0FF"/><stop offset="1" stop-color="#CAC8FF"/></linearGradient><linearGradient id="w" x1="270.517" x2="240.539" y1="127.605" y2="127.617" gradientUnits="userSpaceOnUse"><stop stop-color="#2C00D4"/><stop offset="1" stop-color="#fff"/></linearGradient><linearGradient id="x" x1="291.404" x2="290.155" y1="232.098" y2="230.849" gradientUnits="userSpaceOnUse"><stop stop-color="#E7EEFF"/><stop offset=".33" stop-color="#E1E6FF"/><stop offset=".83" stop-color="#D0D0FF"/><stop offset="1" stop-color="#CAC8FF"/></linearGradient><linearGradient id="y" x1="236.206" x2="206.24" y1="161.916" y2="161.916" gradientUnits="userSpaceOnUse"><stop stop-color="#2C00D4"/><stop offset="1" stop-color="#fff"/></linearGradient><clipPath id="a"><path fill="#fff" d="M384.109 139.391 244.719.001 0 244.721l139.39 139.39z"/></clipPath></defs></svg>