<svg xmlns="http://www.w3.org/2000/svg" width="1901" height="378" fill="none"><g filter="url(#a)"><path fill="#57F0CD" d="M.5 87.135v360.868c0 9.941 8.059 18 18 18h1868c7.73 0 14-6.268 14-14V87.116h-.02L1829.54 0l-57.46 70.551L1714.63 0l-60.14 73.84L1594.36 0l-67.03 82.308L1460.3 0l-64.02 78.606L1332.27 0l-69.64 85.508L1192.99 0l-57.45 70.551L1078.08 0l-60.14 73.84L957.81 0l-67.03 82.308L823.749 0l-64.015 78.606L695.718 0l-63.492 77.964L568.734 0l-57.456 70.551L453.822.001l-60.134 73.84L333.554 0 266.523 82.31 199.492 0l-64.016 78.606L71.46 0 .515 87.116H.5z"/></g><defs><filter id="a" width="1910" height="476.004" x=".5" y="0" color-interpolation-filters="sRGB" filterUnits="userSpaceOnUse"><feFlood flood-opacity="0" result="BackgroundImageFix"/><feColorMatrix in="SourceAlpha" result="hardAlpha" values="0 0 0 0 0 0 0 0 0 0 0 0 0 0 0 0 0 0 127 0"/><feOffset dx="10" dy="10"/><feComposite in2="hardAlpha" operator="out"/><feColorMatrix values="0 0 0 0 0 0 0 0 0 0 0 0 0 0 0 0 0 0 1 0"/><feBlend in2="BackgroundImageFix" result="effect1_dropShadow_3866_34573"/><feBlend in="SourceGraphic" in2="effect1_dropShadow_3866_34573" result="shape"/></filter></defs></svg>