<svg xmlns="http://www.w3.org/2000/svg" width="175" height="60" fill="none"><g filter="url(#a)"><g filter="url(#b)"><mask id="c" width="165" height="54" x="2.9" y="0" fill="#000" maskUnits="userSpaceOnUse"><path fill="#fff" d="M2.9 0h165v54H2.9z"/><path fillRule="evenodd" d="m165.767 1-11.512 12.297L167.1 27.018v.953l-12.845 13.722 10.41 11.12H3.9V1z" clipRule="evenodd"/></mask><path fill="#7A64F4" fillRule="evenodd" d="m165.767 1-11.512 12.297L167.1 27.018v.953l-12.845 13.722 10.41 11.12H3.9V1z" clipRule="evenodd"/><path fill="#000" d="m154.255 13.297-.473-.442-.414.442.414.443zM165.767 1l.473.443 1.021-1.09h-1.494zm1.333 26.019h.648v-.256l-.175-.187zm0 .952.473.443.175-.187v-.256zm-12.845 13.722-.473-.443-.414.443.414.442zm10.41 11.12v.647h1.493l-1.021-1.09zm-160.765 0h-.648v.647H3.9zM3.9 1V.352h-.648V1zm150.828 12.74L166.24 1.443l-.946-.886-11.512 12.298zm12.845 12.836-12.845-13.721-.946.885 12.845 13.721zm.175 1.395v-.953h-1.295v.953zm-13.02 14.164 12.845-13.721-.946-.885-12.845 13.721zm10.409 10.235-10.409-11.12-.946.885 10.41 11.12zM3.9 53.46h160.765v-1.296H3.9zM3.252 1v51.812h1.296V1zM165.767.352H3.9v1.296h161.867z" mask="url(#c)"/></g><path fill="#fff" d="M48.765 24.542v3.88h4.27v1.695h-4.27v4.61H47.07V22.865h7.27v1.677zm12.309 10.185q-1.186 0-2.27-.441a5.6 5.6 0 0 1-1.882-1.322 5.8 5.8 0 0 1-1.27-1.948 6 6 0 0 1-.424-2.22q0-1.136.423-2.22a5.8 5.8 0 0 1 1.271-1.949 5.7 5.7 0 0 1 4.152-1.762h10.422q1.186 0 2.253.457 1.085.457 1.898 1.305a5.8 5.8 0 0 1 1.271 1.949q.423 1.085.424 2.22 0 1.135-.424 2.22a5.8 5.8 0 0 1-1.27 1.948 5.5 5.5 0 0 1-1.899 1.322 5.9 5.9 0 0 1-2.253.44zm10.422-1.644q.83 0 1.576-.322.762-.322 1.355-.915.61-.645.915-1.424a4.5 4.5 0 0 0 .305-1.626q0-.83-.305-1.627a4.2 4.2 0 0 0-.915-1.424 4.2 4.2 0 0 0-1.356-.915 3.9 3.9 0 0 0-1.575-.322H61.074q-.83 0-1.593.322-.745.322-1.339.915a4.2 4.2 0 0 0-.915 1.424 4.5 4.5 0 0 0-.305 1.627q0 .83.305 1.626.306.78.915 1.424.593.592 1.34.915.761.322 1.592.322zm15.968-.068v1.695H79.33V22.865h1.677v10.15zm9.726 0v1.695h-8.134V22.865h1.677v10.15zm10.535-8.524q.846.915 1.271 2.034.423 1.118.423 2.27 0 1.153-.423 2.271a6.2 6.2 0 0 1-1.271 2.034 5.6 5.6 0 0 1-1.898 1.355 5.5 5.5 0 0 1-2.254.475q-1.17 0-2.254-.475a5.7 5.7 0 0 1-1.88-1.355 6.2 6.2 0 0 1-1.272-2.034 6.4 6.4 0 0 1-.423-2.27q0-1.153.423-2.271a6.2 6.2 0 0 1 1.271-2.034 5.7 5.7 0 0 1 1.881-1.355 5.6 5.6 0 0 1 2.254-.475 5.5 5.5 0 0 1 2.254.475 5.6 5.6 0 0 1 1.898 1.355m-1.22 7.457q.609-.662.915-1.475a4.703 4.703 0 0 0 0-3.338 4.5 4.5 0 0 0-.915-1.491 4.15 4.15 0 0 0-1.339-.95 3.8 3.8 0 0 0-1.593-.338q-.831 0-1.593.339a4.2 4.2 0 0 0-1.322.949q-.61.66-.932 1.49a4.7 4.7 0 0 0-.305 1.662q0 .847.305 1.677.323.814.932 1.475.576.609 1.322.948a3.9 3.9 0 0 0 1.593.34q.848 0 1.593-.34a4.15 4.15 0 0 0 1.339-.948m18.364-9.083-4.202 11.862h-.441l-2.779-6.779-2.796 6.779h-.44l-4.203-11.862h1.796l2.729 7.71 2.914-7.05 2.898 7.05 2.745-7.71z"/><path fill="#fff" d="M48.765 24.542v-.478h-.479v.478zm0 3.88h-.479v.48h.479zm4.27 0h.479v-.478h-.479zm0 1.695v.479h.479v-.479zm-4.27 0v-.478h-.479v.478zm0 4.61v.478h.478v-.478zm-1.695 0h-.478v.478h.478zm0-11.862v-.479h-.478v.479zm7.27 0h.478v-.479h-.478zm0 1.677v.479h.478v-.479zm-6.054 0v3.88h.957v-3.88zm.479 4.36h4.27v-.958h-4.27zm3.792-.48v1.695h.956v-1.694zm.478 1.217h-4.27v.957h4.27zm-4.749.478v4.61h.957v-4.61zm.479 4.131H47.07v.957h1.695zm-1.216.479V22.865h-.957v11.862zm-.479-11.384h7.27v-.957h-7.27zm6.791-.478v1.677h.957v-1.677zm.479 1.199h-5.575v.957h5.575zm4.463 10.222-.188.44.008.003zm-1.88-1.322.348-.328-.007-.007zm-1.272-1.948.446-.175zm0-4.44-.445-.174zm1.271-1.949.342.335.003-.004zm1.881-1.305-.186-.44h-.002zm14.946 0-.188.44.002.001zm1.898 1.305-.345.331.003.004zm1.271 1.949.446-.174zm-1.27 6.388-.343-.335-.006.007zm-1.899 1.322.183.442.003-.001zm-.677-1.525-.187-.44h-.003zm1.355-.915.338.338.01-.01zm.915-1.424.446.175.001-.004zm0-3.253-.447.17zm-.915-1.424.343-.333-.005-.005zm-1.356-.915-.19.44.004.001zm-13.59 0-.186-.44-.004.001zm-1.339.915-.338-.338-.005.005zm-.915 1.424.447.17zm0 3.253-.446.171v.004zm.915 1.424-.347.329.01.01zm1.34.915-.19.44h.003zm1.592 1.487q-1.094 0-2.09-.405l-.36.886q1.171.477 2.45.476zm-2.082-.402a5.1 5.1 0 0 1-1.721-1.21l-.697.656a6.1 6.1 0 0 0 2.04 1.434zm-1.728-1.217a5.3 5.3 0 0 1-1.167-1.788l-.891.349q.461 1.178 1.375 2.11zm-1.167-1.788a5.6 5.6 0 0 1-.39-2.045h-.958q0 1.228.457 2.394zm-.39-2.045q0-1.043.39-2.046l-.891-.348a6.5 6.5 0 0 0-.457 2.394zm.39-2.046a5.3 5.3 0 0 1 1.167-1.788l-.683-.67a6.2 6.2 0 0 0-1.375 2.11zm1.17-1.792a5.2 5.2 0 0 1 1.725-1.196l-.377-.88a6.2 6.2 0 0 0-2.038 1.414zm1.722-1.195a5.3 5.3 0 0 1 2.085-.42v-.957a6.3 6.3 0 0 0-2.457.495zm2.085-.42h10.422v-.957H61.074zm10.422 0q1.09 0 2.065.419l.377-.88a6.1 6.1 0 0 0-2.442-.496zm2.067.42q.994.419 1.739 1.195l.69-.662a6.1 6.1 0 0 0-2.057-1.415zm1.742 1.199a5.3 5.3 0 0 1 1.167 1.788l.892-.348a6.2 6.2 0 0 0-1.375-2.11zm1.167 1.788q.392 1.003.391 2.046h.957a6.5 6.5 0 0 0-.456-2.394zm.391 2.046q0 1.042-.39 2.045l.89.349a6.5 6.5 0 0 0 .457-2.394zm-.39 2.045a5.3 5.3 0 0 1-1.168 1.788l.684.67a6.2 6.2 0 0 0 1.375-2.11zm-1.174 1.795a5.1 5.1 0 0 1-1.736 1.21l.372.88a6 6 0 0 0 2.06-1.434zm-1.732 1.208a5.4 5.4 0 0 1-2.071.404v.957q1.278 0 2.436-.477zm-2.071.404H61.074v.957h10.422zm0-.687q.927 0 1.765-.36l-.38-.88a3.5 3.5 0 0 1-1.385.283zm1.762-.36a4.7 4.7 0 0 0 1.507-1.017l-.676-.676a3.8 3.8 0 0 1-1.204.812zm1.516-1.026a4.9 4.9 0 0 0 1.014-1.578l-.891-.349q-.268.688-.817 1.269zm1.015-1.581a5 5 0 0 0 .337-1.798h-.957q.001.739-.274 1.455zm.337-1.798q0-.922-.337-1.798l-.894.342q.274.716.274 1.456zm-.337-1.798a4.6 4.6 0 0 0-1.019-1.586l-.686.667q.543.559.811 1.26zm-1.024-1.59a4.7 4.7 0 0 0-1.507-1.018l-.373.881q.676.284 1.204.813zm-1.504-1.017a4.4 4.4 0 0 0-1.765-.361v.957q.734 0 1.386.283zm-1.765-.361H61.074v.957h10.422zm-10.422 0q-.927 0-1.779.36l.372.881q.673-.284 1.407-.284zm-1.783.361a4.8 4.8 0 0 0-1.487 1.016l.677.677q.53-.53 1.19-.814zm-1.491 1.02q-.677.696-1.02 1.587l.894.342q.269-.703.811-1.26zm-1.02 1.587a5 5 0 0 0-.336 1.798h.957q0-.74.273-1.456zm-.336 1.798q0 .92.337 1.797l.893-.342a4 4 0 0 1-.273-1.455zm.338 1.8q.342.871 1.013 1.579l.695-.658a3.9 3.9 0 0 1-.817-1.269zm1.022 1.588a4.8 4.8 0 0 0 1.487 1.016l.38-.878q-.66-.284-1.19-.815zm1.491 1.018q.852.36 1.779.36v-.958q-.734 0-1.407-.284zm1.779.36h10.422v-.958H61.074zm26.39-.547h.478v-.478h-.478zm0 1.695v.478h.478v-.478zm-8.134 0h-.478v.478h.478zm0-11.845v-.479h-.478v.479zm1.677 0h.479v-.479h-.479zm0 10.15h-.478v.478h.478zm5.978 0v1.695h.957v-1.695zm.479 1.216H79.33v.957h8.134zm-7.656.479V22.865h-.957V34.71zm-.478-11.367h1.677v-.957H79.33zm1.2-.478v10.15h.956v-10.15zm.477 10.628h6.457v-.956h-6.457zm16.183-.478h.478v-.478h-.478zm0 1.695v.478h.478v-.478zm-8.134 0h-.479v.478h.479zm0-11.845v-.479h-.479v.479zm1.677 0h.479v-.479h-.479zm0 10.15h-.478v.478h.478zm5.978 0v1.695h.957v-1.695zm.479 1.216h-8.134v.957h8.134zm-7.656.479V22.865h-.957V34.71zm-.478-11.367h1.677v-.957h-1.677zm1.199-.478v10.15h.957v-10.15zm.478 10.628h6.457v-.956h-6.457zm16.992-9.002-.352.325h.001zm1.271 2.034-.448.17zm0 4.541-.448-.17zm-1.271 2.034-.351-.325h-.001zm-1.898 1.355-.192-.438-.003.001zm-4.508 0-.194.438h.002zm-1.88-1.355.35-.325zm-1.272-2.034-.447.17zm0-4.541-.447-.17zm1.271-2.034.351.326v-.001zm1.881-1.355-.192-.439-.002.002zm4.508 0-.195.437.003.001zm.678 8.812.347.328.004-.004zm.915-1.475.448.168.001-.003zm0-3.338-.449.165.001.003zm-.915-1.491.351-.325-.004-.004zm-1.339-.95-.198.436.004.002zm-3.186 0-.194-.436-.004.001zm-1.322.95-.348-.329-.003.004zm-.932 1.49-.446-.172-.002.005zm0 3.34-.449.164.004.011zm.932 1.474-.351.324.004.004zm1.322.948-.198.436.004.002zm3.186 0-.194-.437-.004.002zm2.208-8.08a5.8 5.8 0 0 1 1.174 1.878l.895-.339a6.7 6.7 0 0 0-1.367-2.189zm1.174 1.878a5.9 5.9 0 0 1 .393 2.102h.957q-.001-1.244-.455-2.44zm.393 2.102a5.9 5.9 0 0 1-.393 2.1l.895.34a6.9 6.9 0 0 0 .455-2.44zm-.393 2.1a5.8 5.8 0 0 1-1.174 1.879l.702.65a6.7 6.7 0 0 0 1.367-2.19zm-1.175 1.88a5.15 5.15 0 0 1-1.738 1.241l.384.877a6.1 6.1 0 0 0 2.057-1.47zm-1.741 1.242a5 5 0 0 1-2.059.434v.956q1.286 0 2.448-.515zm-2.059.434a5.1 5.1 0 0 1-2.062-.435l-.384.877q1.176.513 2.446.514zm-2.059-.434a5.2 5.2 0 0 1-1.724-1.243l-.703.65a6.15 6.15 0 0 0 2.038 1.468zm-1.725-1.243a5.7 5.7 0 0 1-1.174-1.878l-.895.339a6.7 6.7 0 0 0 1.367 2.189zm-1.174-1.878a5.9 5.9 0 0 1-.393-2.101h-.957q.001 1.242.455 2.44zm-.393-2.101q0-1.062.393-2.102l-.895-.339a6.8 6.8 0 0 0-.455 2.44zm.393-2.102q.389-1.027 1.174-1.877l-.702-.65a6.7 6.7 0 0 0-1.367 2.188zm1.175-1.878q.748-.81 1.724-1.243l-.389-.874a6.15 6.15 0 0 0-2.038 1.468zm1.721-1.242a5.1 5.1 0 0 1 2.062-.434v-.957q-1.27 0-2.446.515zm2.062-.434q1.086 0 2.059.433l.389-.874a6 6 0 0 0-2.448-.516zm2.062.434q.992.433 1.738 1.242l.703-.65a6.1 6.1 0 0 0-2.057-1.468zm1.221 8.698a5 5 0 0 0 1.012-1.63l-.896-.337a4 4 0 0 1-.819 1.318zm1.013-1.634a5.3 5.3 0 0 0 .334-1.842h-.957q0 .759-.275 1.512zm.334-1.842q0-.937-.335-1.83l-.896.337q.274.734.274 1.493zm-.334-1.826a4.9 4.9 0 0 0-1.013-1.65l-.703.648q.546.592.818 1.332zm-1.017-1.655a4.6 4.6 0 0 0-1.492-1.057l-.388.874q.674.3 1.185.84zm-1.488-1.056a4.3 4.3 0 0 0-1.791-.382v.957q.747.001 1.395.296zm-1.791-.382q-.933.001-1.787.38l.388.875a3.4 3.4 0 0 1 1.399-.298zm-1.791.382a4.7 4.7 0 0 0-1.471 1.056l.695.657a3.7 3.7 0 0 1 1.172-.842zm-1.475 1.06a5.1 5.1 0 0 0-1.027 1.643l.892.346q.29-.745.838-1.34zm-1.029 1.648a5.2 5.2 0 0 0-.335 1.829h.957q-.001-.758.274-1.493zm-.335 1.829q0 .935.334 1.842l.898-.33a4.4 4.4 0 0 1-.275-1.512zm.338 1.853q.356.899 1.026 1.623l.703-.649a4.3 4.3 0 0 1-.839-1.326zm1.03 1.627q.638.677 1.471 1.056l.396-.871a3.7 3.7 0 0 1-1.172-.842zm1.475 1.058q.855.38 1.787.38v-.957q-.728 0-1.399-.298zm1.787.38q.947 0 1.791-.382l-.396-.871a3.3 3.3 0 0 1-1.395.296zm1.787-.38a4.6 4.6 0 0 0 1.492-1.058l-.695-.657q-.51.54-1.185.84zm19.509-10.47.451.16.226-.638h-.677zm-4.202 11.863v.478h.338l.113-.319zm-.441 0-.442.181.121.297h.321zm-2.779-6.779.443-.181-.441-1.077-.444 1.076zm-2.796 6.779v.478h.32l.122-.296zm-.44 0-.451.16.112.318h.339zm-4.203-11.862v-.479h-.677l.226.638zm1.796 0 .451-.16-.112-.319h-.339zm2.729 7.71-.452.16.417 1.176.477-1.153zm2.914-7.05.443-.181-.442-1.074-.443 1.073zm2.898 7.05-.443.182.475 1.154.419-1.176zm2.745-7.71v-.479h-.337l-.114.318zm1.328-.16-4.202 11.862.902.32 4.202-11.863zm-3.751 11.543h-.441v.957h.441zm.002.297-2.779-6.778-.886.363 2.78 6.778zm-3.664-6.78-2.796 6.78.884.364 2.796-6.778zm-2.354 6.483h-.44v.957h.44zm.011.319-4.203-11.862-.902.32 4.203 11.861zm-4.654-11.224h1.796v-.957h-1.796zm1.345-.319 2.728 7.71.903-.319-2.729-7.71zm3.622 7.734 2.914-7.05-.884-.365-2.915 7.05zm2.03-7.05 2.897 7.049.885-.364-2.897-7.05zm3.791 7.027 2.745-7.71-.902-.32-2.745 7.71zm2.294-7.392h1.779v-.957h-1.779z"/></g><defs><filter id="a" width="169.677" height="58.291" x=".662" y=".352" color-interpolation-filters="sRGB" filterUnits="userSpaceOnUse"><feFlood flood-opacity="0" result="BackgroundImageFix"/><feColorMatrix in="SourceAlpha" result="hardAlpha" values="0 0 0 0 0 0 0 0 0 0 0 0 0 0 0 0 0 0 127 0"/><feOffset dy="2.591"/><feGaussianBlur stdDeviation="1.295"/><feComposite in2="hardAlpha" operator="out"/><feColorMatrix values="0 0 0 0 0 0 0 0 0 0 0 0 0 0 0 0 0 0 0.25 0"/><feBlend in2="BackgroundImageFix" result="effect1_dropShadow_4510_48741"/><feBlend in="SourceGraphic" in2="effect1_dropShadow_4510_48741" result="shape"/></filter><filter id="b" width="170.972" height="59.586" x="3.252" y=".352" color-interpolation-filters="sRGB" filterUnits="userSpaceOnUse"><feFlood flood-opacity="0" result="BackgroundImageFix"/><feColorMatrix in="SourceAlpha" result="hardAlpha" values="0 0 0 0 0 0 0 0 0 0 0 0 0 0 0 0 0 0 127 0"/><feOffset dx="6.477" dy="6.477"/><feComposite in2="hardAlpha" operator="out"/><feColorMatrix values="0 0 0 0 0 0 0 0 0 0 0 0 0 0 0 0 0 0 1 0"/><feBlend in2="BackgroundImageFix" result="effect1_dropShadow_4510_48741"/><feBlend in="SourceGraphic" in2="effect1_dropShadow_4510_48741" result="shape"/></filter></defs></svg>