<svg xmlns="http://www.w3.org/2000/svg" width="175" height="60" fill="none"><g filter="url(#a)"><g filter="url(#b)"><mask id="c" width="165" height="54" x="2.9" y="0" fill="#000" maskUnits="userSpaceOnUse"><path fill="#fff" d="M2.9 0h165v54H2.9z"/><path fillRule="evenodd" d="m165.767 1-11.512 12.297L167.1 27.018v.953l-12.845 13.722 10.41 11.12H3.9V1z" clipRule="evenodd"/></mask><path fill="#7A64F4" fillRule="evenodd" d="m165.767 1-11.512 12.297L167.1 27.018v.953l-12.845 13.722 10.41 11.12H3.9V1z" clipRule="evenodd"/><path fill="#000" d="m154.255 13.297-.473-.442-.414.442.414.443zM165.767 1l.473.443 1.021-1.09h-1.494zm1.333 26.019h.648v-.256l-.175-.187zm0 .952.473.443.175-.187v-.256zm-12.845 13.722-.473-.443-.414.443.414.442zm10.41 11.12v.647h1.493l-1.021-1.09zm-160.765 0h-.648v.647H3.9zM3.9 1V.352h-.648V1zm150.828 12.74L166.24 1.443l-.946-.886-11.512 12.298zm12.845 12.836-12.845-13.721-.946.885 12.845 13.721zm.175 1.395v-.953h-1.295v.953zm-13.02 14.164 12.845-13.721-.946-.885-12.845 13.721zm10.409 10.235-10.409-11.12-.946.885 10.41 11.12zM3.9 53.46h160.765v-1.296H3.9zM3.252 1v51.812h1.296V1zM165.767.352H3.9v1.296h161.867z" mask="url(#c)"/></g><path fill="#fff" d="M68.726 22.882v7.93q0 .915-.305 1.644a3.55 3.55 0 0 1-.848 1.237q-.541.492-1.288.762a5 5 0 0 1-1.643.255h-2.813v-1.695h2.813q1.101 0 1.745-.525.645-.526.644-1.678v-6.236H62.1v-1.694zm7.703 11.845q-1.186 0-2.271-.441a5.6 5.6 0 0 1-1.88-1.322 5.8 5.8 0 0 1-1.272-1.948 6 6 0 0 1-.424-2.22q0-1.136.424-2.22a5.8 5.8 0 0 1 1.271-1.949 5.7 5.7 0 0 1 4.152-1.762H86.85q1.186 0 2.254.457 1.085.457 1.898 1.305a5.8 5.8 0 0 1 1.27 1.949 6 6 0 0 1 .424 2.22 6 6 0 0 1-.423 2.22 5.8 5.8 0 0 1-1.271 1.948 5.5 5.5 0 0 1-1.898 1.322 5.9 5.9 0 0 1-2.254.44zm10.421-1.644q.832 0 1.576-.322.763-.322 1.356-.915a4.4 4.4 0 0 0 .915-1.424 4.5 4.5 0 0 0 .305-1.626q0-.83-.305-1.627a4.2 4.2 0 0 0-.915-1.424 4.2 4.2 0 0 0-1.356-.915 3.9 3.9 0 0 0-1.576-.322H76.43q-.831 0-1.593.322-.746.322-1.339.915a4.2 4.2 0 0 0-.915 1.424 4.5 4.5 0 0 0-.305 1.627q0 .83.305 1.626.304.78.915 1.424.593.592 1.339.915.763.322 1.593.322zm7.835 1.644V22.865h1.694v11.862zm13.79-11.862v11.862h-.797l-7.117-8.405v8.405h-1.678V22.865h.966l6.931 8.184v-8.184z"/><path fill="#fff" d="M68.726 22.882h.478v-.479h-.478zm-1.153 10.81.322.355.005-.005zm-1.288.763.155.453.009-.003zm-4.456.255h-.479v.478h.479zm0-1.695v-.478h-.479v.478zm4.558-.525.302.37zm.644-7.914h.478v-.478h-.478zm-4.931 0h-.479v.479h.479zm0-1.694v-.479h-.479v.479zm6.147 0v7.93h.957v-7.93zm0 7.93c0 .557-.093 1.04-.268 1.46l.883.369c.231-.553.342-1.165.342-1.829zm-.268 1.46a3.1 3.1 0 0 1-.733 1.072l.654.698q.62-.583.962-1.401zm-.727 1.066a3.4 3.4 0 0 1-1.13.668l.327.9q.827-.3 1.445-.859zm-1.121.665q-.66.226-1.49.228v.957q.968.002 1.799-.28zm-1.49.228H61.83v.957h2.813zm-2.334.479v-1.695h-.957v1.695zm-.478-1.217h2.813v-.956h-2.813zm2.813 0c.808 0 1.508-.193 2.047-.633l-.604-.741c-.32.26-.783.418-1.443.418zm2.047-.633c.58-.472.82-1.194.82-2.048h-.957c0 .683-.188 1.08-.467 1.307zm.82-2.048v-6.236h-.957v6.236zm-.478-6.714H62.1v.957h4.93zm-4.453.478v-1.694h-.957v1.694zM62.1 23.36h6.625v-.957H62.1zm12.058 10.926-.189.44.009.003zm-1.88-1.322.347-.328-.006-.007zm-1.272-1.948.446-.175zm0-4.44-.445-.174zm1.271-1.949.342.335.003-.004zm1.881-1.305-.186-.44h-.002zm14.946 0-.188.44.002.001zm1.898 1.305-.345.331.003.004zm1.27 1.949.447-.174zm-1.27 6.388-.342-.335-.007.007zm-1.898 1.322.183.442.003-.001zm-.678-1.525-.186-.44h-.003zm1.356-.915.338.338.01-.01zm.915-1.424.445.175.002-.004zm0-3.253-.447.17zm-.915-1.424.343-.333-.005-.005zm-1.356-.915-.19.44.004.001zm-13.59 0-.186-.44-.004.001zm-1.339.915-.338-.338-.005.005zm-.915 1.424.447.17zm0 3.253-.447.171.001.004zm.915 1.424-.347.329.009.01zm1.339.915-.19.44h.004zm1.593 1.487q-1.095 0-2.09-.405l-.361.886q1.172.477 2.45.476zm-2.082-.402a5.1 5.1 0 0 1-1.721-1.21l-.697.656a6.1 6.1 0 0 0 2.04 1.434zm-1.728-1.217a5.3 5.3 0 0 1-1.167-1.788l-.891.349q.46 1.178 1.374 2.11zm-1.167-1.788a5.6 5.6 0 0 1-.391-2.045h-.957q0 1.228.457 2.394zm-.391-2.045q0-1.043.39-2.046l-.89-.348a6.5 6.5 0 0 0-.457 2.394zm.39-2.046a5.3 5.3 0 0 1 1.168-1.788l-.684-.67a6.2 6.2 0 0 0-1.374 2.11zm1.171-1.792a5.2 5.2 0 0 1 1.725-1.196l-.377-.88a6.2 6.2 0 0 0-2.038 1.414zm1.722-1.195a5.3 5.3 0 0 1 2.085-.42v-.957q-1.282 0-2.457.495zm2.085-.42H86.85v-.957H76.43zm10.421 0q1.09 0 2.066.419l.377-.88a6.1 6.1 0 0 0-2.443-.496zm2.068.42q.994.419 1.739 1.195l.69-.662a6.1 6.1 0 0 0-2.057-1.415zm1.742 1.199a5.3 5.3 0 0 1 1.167 1.788l.892-.348a6.2 6.2 0 0 0-1.375-2.11zm1.167 1.788q.391 1.003.391 2.046h.957a6.5 6.5 0 0 0-.456-2.394zm.391 2.046q0 1.042-.39 2.045l.89.349a6.5 6.5 0 0 0 .457-2.394zm-.39 2.045a5.3 5.3 0 0 1-1.168 1.788l.684.67a6.2 6.2 0 0 0 1.375-2.11zm-1.175 1.795a5.1 5.1 0 0 1-1.735 1.21l.372.88a6 6 0 0 0 2.06-1.434zm-1.732 1.208a5.4 5.4 0 0 1-2.07.404v.957q1.276 0 2.436-.477zm-2.07.404H76.428v.957H86.85zm0-.687q.927 0 1.765-.36l-.38-.88a3.5 3.5 0 0 1-1.386.283zm1.761-.36a4.7 4.7 0 0 0 1.508-1.017l-.677-.676a3.8 3.8 0 0 1-1.203.812zm1.517-1.026a4.9 4.9 0 0 0 1.013-1.578l-.89-.349q-.268.688-.817 1.269zm1.015-1.581a5 5 0 0 0 .336-1.798h-.957q0 .739-.273 1.455zm.336-1.798q0-.922-.336-1.798l-.894.342q.274.716.273 1.456zm-.336-1.798a4.6 4.6 0 0 0-1.02-1.586l-.685.667q.544.559.811 1.26zm-1.024-1.59a4.7 4.7 0 0 0-1.508-1.018l-.372.881q.675.284 1.204.813zm-1.504-1.017a4.4 4.4 0 0 0-1.766-.361v.957q.733 0 1.387.283zm-1.766-.361H76.43v.957H86.85zm-10.421 0q-.927 0-1.78.36l.373.881q.674-.284 1.407-.284zm-1.783.361a4.8 4.8 0 0 0-1.487 1.016l.676.677q.531-.53 1.19-.814zm-1.492 1.02q-.676.696-1.019 1.587l.894.342q.269-.703.811-1.26zm-1.019 1.587a5 5 0 0 0-.336 1.798h.956q-.001-.74.274-1.456zm-.336 1.798q0 .92.336 1.797l.894-.342a4 4 0 0 1-.273-1.455zm.337 1.8a4.9 4.9 0 0 0 1.014 1.579l.694-.658a3.9 3.9 0 0 1-.816-1.269zm1.023 1.588a4.8 4.8 0 0 0 1.487 1.016l.38-.878q-.66-.284-1.19-.815zm1.49 1.018q.853.36 1.78.36v-.958q-.734 0-1.407-.284zm1.78.36H86.85v-.958H76.43zm18.256 1.165h-.479v.478h.479zm0-11.862v-.479h-.479v.479zm1.694 0h.479v-.479h-.479zm0 11.862v.478h.479v-.478zm-1.216 0V22.865h-.957v11.862zm-.478-11.384h1.694v-.957h-1.694zm1.216-.478v11.862h.957V22.865zm.478 11.383h-1.694v.957h1.694zm12.096-11.383h.478v-.479h-.478zm0 11.862v.478h.478v-.478zm-.797 0-.365.309.143.169h.222zm-7.117-8.405.365-.31-.843-.996v1.306zm0 8.405v.478h.478v-.478zm-1.678 0h-.478v.478h.478zm0-11.862v-.479h-.478v.479zm.966 0 .365-.31-.143-.169h-.222zm6.931 8.184-.365.31.843.996v-1.306zm0-8.184v-.479h-.478v.479zm1.216 0v11.862h.957V22.865zm.479 11.383h-.797v.957h.797zm-.432.17-7.117-8.406-.73.619 7.117 8.405zm-7.96-8.096v8.405h.956v-8.405zm.478 7.926h-1.678v.957h1.678zm-1.2.479V22.865h-.956v11.862zm-.478-11.384h.966v-.957h-.966zm.601-.17 6.931 8.186.73-.619-6.931-8.184zm7.774 7.876v-8.184h-.956v8.184zm-.478-7.706h1.695v-.957h-1.695z"/></g><defs><filter id="a" width="169.677" height="58.291" x=".662" y=".352" color-interpolation-filters="sRGB" filterUnits="userSpaceOnUse"><feFlood flood-opacity="0" result="BackgroundImageFix"/><feColorMatrix in="SourceAlpha" result="hardAlpha" values="0 0 0 0 0 0 0 0 0 0 0 0 0 0 0 0 0 0 127 0"/><feOffset dy="2.591"/><feGaussianBlur stdDeviation="1.295"/><feComposite in2="hardAlpha" operator="out"/><feColorMatrix values="0 0 0 0 0 0 0 0 0 0 0 0 0 0 0 0 0 0 0.25 0"/><feBlend in2="BackgroundImageFix" result="effect1_dropShadow_4510_48720"/><feBlend in="SourceGraphic" in2="effect1_dropShadow_4510_48720" result="shape"/></filter><filter id="b" width="170.972" height="59.586" x="3.252" y=".352" color-interpolation-filters="sRGB" filterUnits="userSpaceOnUse"><feFlood flood-opacity="0" result="BackgroundImageFix"/><feColorMatrix in="SourceAlpha" result="hardAlpha" values="0 0 0 0 0 0 0 0 0 0 0 0 0 0 0 0 0 0 127 0"/><feOffset dx="6.477" dy="6.477"/><feComposite in2="hardAlpha" operator="out"/><feColorMatrix values="0 0 0 0 0 0 0 0 0 0 0 0 0 0 0 0 0 0 1 0"/><feBlend in2="BackgroundImageFix" result="effect1_dropShadow_4510_48720"/><feBlend in="SourceGraphic" in2="effect1_dropShadow_4510_48720" result="shape"/></filter></defs></svg>