<svg xmlns="http://www.w3.org/2000/svg" width="175" height="60" fill="none"><g filter="url(#a)"><g filter="url(#b)"><mask id="c" width="165" height="54" x="2.9" y="0" fill="#000" maskUnits="userSpaceOnUse"><path fill="#fff" d="M2.9 0h165v54H2.9z"/><path fillRule="evenodd" d="m165.771 1-11.512 12.297L167.1 27.014v.962l-12.841 13.717 10.409 11.12H3.9V1z" clipRule="evenodd"/></mask><path fill="#7A64F4" fillRule="evenodd" d="m165.771 1-11.512 12.297L167.1 27.014v.962l-12.841 13.717 10.409 11.12H3.9V1z" clipRule="evenodd"/><path fill="#000" d="m154.259 13.297-.473-.442-.414.442.414.443zM165.771 1l.473.443 1.02-1.09h-1.493zm1.329 26.014h.648v-.255l-.175-.187zm0 .962.473.442.175-.187v-.255zm-12.841 13.717-.473-.443-.414.443.414.442zm10.409 11.12v.647h1.494l-1.021-1.09zm-160.768 0h-.648v.647H3.9zM3.9 1V.352h-.648V1zm150.832 12.74 11.512-12.297-.946-.886-11.512 12.298zm12.841 12.832-12.841-13.717-.946.885 12.841 13.717zm.175 1.404v-.962h-1.295v.962zm-13.016 14.16 12.841-13.718-.946-.885-12.841 13.717zm10.409 10.234-10.409-11.12-.946.885 10.41 11.12zM3.9 53.46h160.768v-1.296H3.9zM3.252 1v51.812h1.296V1zM165.771.352H3.9v1.296H165.77z" mask="url(#c)"/></g><path fill="#fff" d="M66.884 27.643q.66.254 1.305.543.645.288 1.152.711.509.424.814 1.034.305.593.305 1.491.017.848-.34 1.508-.355.645-.931 1.102-.576.441-1.322.678-.746.22-1.508.22-.847 0-1.593-.237a3.9 3.9 0 0 1-1.305-.695 3.3 3.3 0 0 1-.864-1.136q-.305-.695-.305-1.592h1.695q0 .542.186.932.186.372.508.61.323.22.746.322.44.101.932.101t.983-.135q.491-.153.864-.44.288-.238.424-.56.152-.322.135-.678 0-.457-.22-.796a2 2 0 0 0-.56-.593 4 4 0 0 0-.813-.44 13 13 0 0 0-.898-.374q-.627-.255-1.237-.508a4.7 4.7 0 0 1-1.084-.661 3 3 0 0 1-.763-.949q-.288-.56-.288-1.372-.017-.645.254-1.22.271-.594.763-1.017a4.1 4.1 0 0 1 1.152-.627q.644-.22 1.305-.204.678 0 1.339.22.66.222 1.169.628.525.406.83 1 .323.593.305 1.338h-1.694a1.1 1.1 0 0 0-.119-.56 1.24 1.24 0 0 0-.339-.457 2.4 2.4 0 0 0-1.491-.474 2.07 2.07 0 0 0-1.373.423q-.44.373-.406.95 0 .39.186.677.203.288.525.509.322.219.729.39zm12.744-4.761v1.694h-3.17v10.15h-1.694v-10.15h-3.168v-1.694zm9.906 11.845h-1.813l-1.101-2.66h-5l-1.1 2.66h-1.814l4.88-11.862h1.068zm-3.609-4.355-1.796-4.39-1.813 4.39zm13.7-1.763q-.27.796-.847 1.39a3.7 3.7 0 0 1-1.356.864l2.407 3.864h-1.983l-2.27-3.644h-2.763v3.644H91.12V22.882h4.863q.712 0 1.288.203.593.187 1.05.525.458.323.78.78.322.44.525.966a4.75 4.75 0 0 1 0 3.253m-6.812.797h3.22q.678.016 1.237-.356.56-.39.78-1.034a2.84 2.84 0 0 0 0-2.067 2.13 2.13 0 0 0-.746-.983q-.51-.39-1.322-.39h-3.169zm16.273-6.524v1.694h-3.168v10.15h-1.695v-10.15h-3.169v-1.694z"/><path fill="#fff" d="m66.884 27.643-.177.445.006.002zm1.305.543-.195.436zm1.966 1.745-.428.214.002.005zm.305 1.491h-.479v.01zm-.34 1.508.42.232.002-.005zm-.931 1.102.29.38.008-.005zm-1.322.678.136.459.01-.003zm-3.1-.017-.146.456zm-1.306-.695-.308.366.005.004zm-.864-1.136-.438.193.003.006.003.007zm-.305-1.592v-.479h-.478v.479zm1.695 0h.478v-.479h-.478zm.186.932-.432.206.004.008zm.508.61-.283.385.006.005.007.005zm.746.322-.112.465h.004zm1.915-.034.127.461.007-.002.008-.002zm.864-.44.293.378.005-.005.006-.005zm.424-.56-.433-.205-.004.01-.004.01zm.135-.678h-.478v.022zm-.22-.796-.41.246.004.007.005.008zm-.56-.593-.277.389zm-.813-.44-.2.433.01.005.01.004zm-.898-.374-.18.444.007.002.007.003zm-1.237-.508-.194.437.01.005zM63.19 27.1l.425-.22zm-.288-1.372h.479v-.013zm.254-1.22.433.203.002-.005zm.763-1.017-.293-.379-.01.008-.01.008zm1.152-.627-.155-.453-.004.001zm1.305-.204-.012.479h.012zm1.339.22.151-.453zm1.169.628-.299.373.006.005zm.83 1-.425.218.005.01zm.305 1.338v.479h.468l.01-.468zm-1.694 0-.478-.028-.03.507h.508zm-.119-.56-.438.193.005.01.005.012zm-.339-.457.31-.365-.015-.012-.014-.01zm-1.491-.474-.021.478h.031zm-1.373.423-.287-.382-.011.008-.01.01zm-.406.95h.478V25.7zm.186.677-.402.26.006.008.005.008zm.525.509.27-.395zm.729.39-.184.441.006.003zm.676.785q.649.25 1.28.532l.392-.873q-.656-.294-1.329-.552zm1.28.532q.588.264 1.042.643l.613-.735a5.4 5.4 0 0 0-1.263-.781zm1.042.643q.43.357.692.88l.856-.428a3.7 3.7 0 0 0-.935-1.187zm.694.885c.159.308.252.724.252 1.272h.957c0-.65-.11-1.227-.358-1.71zm.252 1.282c.01.493-.088.912-.281 1.271l.842.454c.281-.522.409-1.108.396-1.744zm-.279 1.267a3.2 3.2 0 0 1-.81.958l.595.75q.65-.517 1.053-1.245zm-.804.953q-.504.387-1.176.602l.29.912a4.8 4.8 0 0 0 1.468-.754zm-1.166.599q-.68.2-1.373.2v.957q.833 0 1.644-.24zm-1.373.2q-.779 0-1.448-.214l-.29.912a5.7 5.7 0 0 0 1.738.26zm-1.448-.214a3.4 3.4 0 0 1-1.147-.61l-.606.741q.637.519 1.463.78zm-1.141-.605a2.86 2.86 0 0 1-.74-.975l-.865.41c.242.51.571.945.988 1.297zm-.735-.962c-.172-.392-.264-.856-.264-1.4h-.957c0 .653.11 1.251.345 1.785zm-.743-.922h1.695v-.957h-1.695zm1.216-.478c0 .415.072.8.233 1.138l.864-.413c-.087-.18-.14-.418-.14-.725zm.237 1.146c.157.313.374.576.653.78l.567-.77a1.2 1.2 0 0 1-.364-.438zm.666.79q.404.274.904.393l.224-.93a1.8 1.8 0 0 1-.587-.252zm.908.394q.499.114 1.04.114v-.957q-.441 0-.824-.09zm1.04.114a4.2 4.2 0 0 0 1.11-.153l-.254-.922q-.432.118-.856.118zm1.125-.157a3.2 3.2 0 0 0 1.015-.52l-.585-.756q-.299.232-.714.362zm1.026-.529c.248-.203.438-.451.56-.742l-.881-.372a1 1 0 0 1-.287.376zm.552-.723q.203-.43.181-.906l-.956.046a.9.9 0 0 1-.09.45zm.182-.883c0-.385-.094-.744-.298-1.057l-.802.522c.09.138.143.31.143.535zm-.289-1.042a2.5 2.5 0 0 0-.691-.737l-.556.779c.19.135.328.286.427.45zm-.691-.737a4.5 4.5 0 0 0-.911-.494l-.361.886q.411.169.716.387zm-.891-.485q-.458-.211-.933-.387l-.332.897q.44.163.864.358zm-.919-.382a137 137 0 0 1-1.233-.507l-.368.884q.612.255 1.242.51zm-1.222-.502a4.2 4.2 0 0 1-.976-.594l-.607.74q.529.434 1.194.728zm-.976-.594a2.5 2.5 0 0 1-.64-.798l-.851.438q.332.645.884 1.1zm-.64-.798c-.149-.288-.235-.666-.235-1.154h-.957c0 .597.105 1.135.34 1.592zm-.236-1.166c-.009-.356.06-.688.21-1.004l-.867-.407a3.14 3.14 0 0 0-.3 1.436zm.211-1.009q.229-.498.64-.853l-.625-.725q-.57.493-.885 1.18zm.62-.837a3.6 3.6 0 0 1 1.019-.554l-.318-.903a4.6 4.6 0 0 0-1.286.7zm1.015-.553a3.2 3.2 0 0 1 1.138-.177l.024-.957a4.2 4.2 0 0 0-1.472.229zm1.15-.177q.598 0 1.187.195l.303-.907a4.7 4.7 0 0 0-1.49-.245zm1.187.195q.585.196 1.022.547l.598-.747a4.2 4.2 0 0 0-1.317-.707zm1.028.552q.441.341.698.84l.85-.437a3.44 3.44 0 0 0-.962-1.16zm.703.85c.17.314.257.677.247 1.1l.957.02a3.1 3.1 0 0 0-.363-1.577zm.725.632h-1.694v.957h1.694zm-1.217.506c.017-.28-.042-.55-.168-.801l-.856.428c.055.11.075.213.07.317zm-.158-.779a1.7 1.7 0 0 0-.468-.63l-.618.73q.135.111.21.284zm-.496-.653a2.87 2.87 0 0 0-1.782-.566l.02.957c.435-.009.83.115 1.2.384zm-1.75-.565a2.55 2.55 0 0 0-1.682.519l.574.765a1.6 1.6 0 0 1 1.065-.328zm-1.704.536a1.57 1.57 0 0 0-.575 1.343l.955-.057a.62.62 0 0 1 .238-.555zm-.576 1.314c0 .34.082.659.263.938l.804-.52a.74.74 0 0 1-.11-.418zm.274.954c.172.244.39.452.646.628l.54-.79a1.6 1.6 0 0 1-.404-.39zm.646.628q.368.25.815.436l.368-.883a3.6 3.6 0 0 1-.642-.343zm.821.439.848.338.355-.888-.847-.339zm13.769-4.867h.478v-.479h-.478zm0 1.694v.479h.478v-.479zm-3.17 0v-.478h-.478v.478zm0 10.15v.479h.48v-.478zm-1.694 0h-.478v.479h.478zm0-10.15h.479v-.478h-.479zm-3.168 0h-.479v.479h.478zm0-1.694v-.479h-.479v.479zm7.553 0v1.694h.957v-1.694zm.479 1.216h-3.17v.957h3.17zm-3.648.478v10.15h.957v-10.15zm.479 9.672h-1.695v.957h1.695zm-1.216.479v-10.15h-.957v10.15zm-.479-10.63h-3.168v.958h3.168zm-2.69.48v-1.695h-.957v1.694zm-.478-1.217h8.032v-.957h-8.032zm17.938 11.367v.478h.715l-.272-.66zm-1.813 0-.442.183.123.295h.32zm-1.101-2.66.442-.184-.122-.295h-.32zm-5 0v-.48h-.319l-.122.296zm-1.1 2.66v.478h.32l.121-.295zm-1.814 0-.442-.182-.272.66h.714zm4.88-11.862v-.479h-.32l-.122.297zm1.068 0 .443-.182-.122-.297h-.32zm1.271 7.507v.478h.713l-.27-.66zm-1.796-4.39.443-.18-.441-1.077-.444 1.075zm-1.813 4.39-.442-.183-.274.661h.716zm7.218 3.876h-1.813v.957h1.813zm-1.37.296-1.102-2.66-.884.365 1.101 2.66zm-1.544-2.956h-5v.957h5zm-5.441.295-1.102 2.66.885.367 1.1-2.66zm-.66 2.365h-1.813v.957h1.813zm-1.37.66 4.88-11.861-.885-.364-4.88 11.862zm4.438-11.565h1.067v-.957h-1.067zm.625-.296 4.88 11.862.885-.364-4.88-11.862zm2.156 7.143-1.796-4.389-.886.363 1.796 4.389zm-2.681-4.39-1.813 4.389.884.365 1.813-4.389zm-1.371 5.05h3.61v-.957h-3.61zm17.31-2.24-.45-.164-.004.009zm-.848 1.389.338.338.005-.005zm-1.356.864-.165-.449-.551.204.31.498zm2.407 3.864v.478h.861l-.455-.731zm-1.983 0-.406.253.14.225h.266zm-2.27-3.644.405-.253-.14-.225h-.266zm-2.763 0v-.478h-.478v.478zm0 3.644v.478h.479v-.478zm-1.694 0h-.479v.478h.479zm0-11.845v-.479h-.479v.479zm6.15.203-.158.451.007.003.008.002zm1.051.525-.284.385.01.006zm.78.78-.391.275.005.007zm.525.966.45-.163-.004-.01zm-6.812 4.05h-.478v.478h.478zm3.22 0 .012-.479h-.012zm1.237-.356.265.398.008-.006zm.78-1.034-.448-.169-.003.007-.002.007zm0-2.067-.45.166.002.003zm-.746-.983-.291.38.006.004zm-4.49-.39v-.478h-.48v.478zm6.358 3.879a3.2 3.2 0 0 1-.737 1.21l.686.667q.653-.672.957-1.569zm-.732 1.205a3.2 3.2 0 0 1-1.183.754l.331.898a4.2 4.2 0 0 0 1.528-.975zm-1.424 1.456 2.406 3.864.813-.506-2.406-3.864zm2.813 3.132h-1.983v.957h1.983zm-1.577.226-2.27-3.644-.813.506 2.271 3.644zm-2.677-3.87h-2.762v.958h2.762zm-3.24.48v3.643h.957v-3.644zm.478 3.164H91.12v.957h1.694zm-1.216.479V22.882h-.957v11.845zM91.12 23.36h4.863v-.957h-4.863zm4.863 0q.642.002 1.129.176l.318-.902a4.3 4.3 0 0 0-1.447-.23zm1.144.181q.523.166.91.454l.57-.77a4 4 0 0 0-1.193-.597zm.92.46q.39.274.663.664l.782-.55a3.7 3.7 0 0 0-.895-.896zm.668.671q.283.388.465.856l.892-.345a4.7 4.7 0 0 0-.585-1.075zm.461.846q.26.72.26 1.464h.957q0-.915-.317-1.79zm.26 1.464q0 .745-.26 1.465l.9.325q.317-.874.317-1.79zm-6.622 2.902h3.22v-.957h-3.22zm3.208 0a2.56 2.56 0 0 0 1.514-.436l-.53-.796c-.29.193-.606.284-.96.275zm1.522-.442a2.5 2.5 0 0 0 .96-1.271l-.906-.31c-.114.333-.311.595-.6.796zm.954-1.257c.3-.798.3-1.607 0-2.405l-.895.337c.218.58.218 1.15 0 1.73zm0-2.403a2.6 2.6 0 0 0-.908-1.2l-.57.768c.278.207.468.46.582.765zm-.902-1.196c-.443-.34-.994-.488-1.613-.488v.957c.466 0 .796.11 1.03.29zm-1.613-.488h-3.169v.957h3.169zm-3.647.478v4.83h.957v-4.83zm16.752-1.694h.478v-.479h-.478zm0 1.694v.479h.478v-.479zm-3.169 0v-.478h-.479v.478zm0 10.15v.479h.478v-.478zm-1.695 0h-.478v.479h.478zm0-10.15h.479v-.478h-.479zm-3.169 0h-.478v.479h.478zm0-1.694v-.479h-.478v.479zm7.554 0v1.694h.957v-1.694zm.479 1.216h-3.169v.957h3.169zm-3.648.478v10.15h.957v-10.15zm.479 9.672h-1.695v.957h1.695zm-1.216.479v-10.15h-.957v10.15zm-.479-10.63h-3.169v.958h3.169zm-2.69.48v-1.695h-.957v1.694zm-.479-1.217h8.033v-.957h-8.033z"/></g><defs><filter id="a" width="169.677" height="58.291" x=".662" y=".352" color-interpolation-filters="sRGB" filterUnits="userSpaceOnUse"><feFlood flood-opacity="0" result="BackgroundImageFix"/><feColorMatrix in="SourceAlpha" result="hardAlpha" values="0 0 0 0 0 0 0 0 0 0 0 0 0 0 0 0 0 0 127 0"/><feOffset dy="2.591"/><feGaussianBlur stdDeviation="1.295"/><feComposite in2="hardAlpha" operator="out"/><feColorMatrix values="0 0 0 0 0 0 0 0 0 0 0 0 0 0 0 0 0 0 0.25 0"/><feBlend in2="BackgroundImageFix" result="effect1_dropShadow_4510_48760"/><feBlend in="SourceGraphic" in2="effect1_dropShadow_4510_48760" result="shape"/></filter><filter id="b" width="170.972" height="59.586" x="3.252" y=".352" color-interpolation-filters="sRGB" filterUnits="userSpaceOnUse"><feFlood flood-opacity="0" result="BackgroundImageFix"/><feColorMatrix in="SourceAlpha" result="hardAlpha" values="0 0 0 0 0 0 0 0 0 0 0 0 0 0 0 0 0 0 127 0"/><feOffset dx="6.477" dy="6.477"/><feComposite in2="hardAlpha" operator="out"/><feColorMatrix values="0 0 0 0 0 0 0 0 0 0 0 0 0 0 0 0 0 0 1 0"/><feBlend in2="BackgroundImageFix" result="effect1_dropShadow_4510_48760"/><feBlend in="SourceGraphic" in2="effect1_dropShadow_4510_48760" result="shape"/></filter></defs></svg>