<svg xmlns="http://www.w3.org/2000/svg" width="61" height="61" fill="none"><path fill="#9C8DF2" d="M30.5 0C13.664 0 0 13.664 0 30.5S13.664 61 30.5 61 61 47.336 61 30.5 47.336 0 30.5 0m14.152 20.74c-1.617 9.76-2.44 16.531-3.447 21.93-.426 2.287-1.28 3.05-2.073 3.141-1.77.153-3.111-1.159-4.82-2.288-2.683-1.769-4.208-2.867-6.801-4.574-3.02-1.983-1.067-3.081.671-4.85.458-.457 8.266-7.564 8.418-8.204a.61.61 0 0 0-.153-.55c-.183-.152-.427-.091-.64-.06-.275.06-4.545 2.897-12.871 8.509-1.22.824-2.318 1.25-3.294 1.22-1.098-.03-3.172-.61-4.727-1.129-1.922-.61-3.416-.945-3.294-2.012.06-.55.823-1.099 2.256-1.678 8.907-3.873 14.824-6.436 17.782-7.655 8.479-3.538 10.218-4.148 11.377-4.148.243 0 .823.06 1.189.366.305.244.396.579.427.823-.03.183.03.732 0 1.159"/></svg>