<svg xmlns="http://www.w3.org/2000/svg" width="1901" height="936" fill="none"><path fill="#B5A5FF" d="M1901 0H0v2.561h19.802L10.456 9.17H0v2.56h6.844L0 16.597v2.766l10.772-7.632h33.046L29.18 22.537H0V25.1h25.727L8.84 37.545H0v2.561h5.354L0 44.05v2.818l9.188-6.762h34.725L24.46 55.063H0v2.561h21.133L0 73.861v2.817l24.808-19.054h35.866L36.848 76.73H0v2.56h33.648L3.58 103.468H0v2.561h.412l-.412.308v2.868l3.96-3.176h38.654L9.917 133.483H0v2.561h6.875L0 141.832v2.868l10.297-8.656h40.428l-35.897 31.655H0v2.561h11.913L0 180.76v2.92l15.24-13.42h42.455l-38.653 35.804H0v2.561h16.253L0 223.684v2.971l19.454-18.03h44.705L21.48 250.319H0v2.561h18.883L0 271.32v2.971l21.925-21.411h47.271l-44.388 45.792H0v2.561h22.337L0 324.283v3.073l25.283-26.123h50.06l-46.416 50.863H0v2.561h26.582L0 383.751v3.073l29.402-32.167h53.133L34.63 410.488H0v2.561h32.444L0 450.851v3.176l35.137-40.978h56.491l-47.493 59.212H0v2.561h42.076L0 527.222v3.227l44.674-55.627h60.039l-48.602 65H0v2.561h54.21L2.503 611.584H0v2.561h.57l-.57.768v3.329l3.073-4.097h67.834l-51.929 75.039H0v2.561h17.204L0 716.587v3.484l19.612-28.326H91.85l-50.947 80.008H0v2.561h39.256L0 836.036v3.534l41.537-65.256h76.927l-49.426 85.079H0v2.561h67.549l-43.026 73.964h2.186l42.994-73.964h81.87l-38.875 73.964h2.059l38.907-73.964h81.933l-34.788 73.964h1.964l34.82-73.964h82.028l-30.701 73.964h1.933l30.701-73.964h82.092l-26.614 73.964h1.837l26.614-73.964h82.187l-22.527 73.964h1.774l22.527-73.964h82.25l-18.408 73.964h1.711l18.408-73.964h82.313l-14.352 73.964h1.647l14.353-73.964h82.345l-10.234 73.964h1.648l10.202-73.964h82.376l-6.146 73.964h1.616l6.146-73.964h82.408l-2.059 73.964h1.584l2.06-73.964h82.376l2.06 73.964h1.584l-2.06-73.964h82.408l6.15 73.964h1.61l-6.14-73.964h82.37l10.21 73.964h1.64l-10.23-73.964h82.34l14.36 73.964h1.64l-14.35-73.964h82.31l18.41 73.964h1.71l-18.4-73.964h82.25l22.52 73.964h1.78l-22.53-73.964h82.19l26.61 73.964h1.84l-26.62-73.964h82.1l30.7 73.964h1.93l-30.7-73.964h82.03l34.82 73.964h1.96l-34.79-73.964h81.94l38.9 73.964h2.06l-38.87-73.964h81.87l42.99 73.964h2.19l-43.03-73.964H1901v-2.561h-69.04l-49.42-85.079h76.92L1901 839.57v-3.534l-39.26-61.722H1901v-2.561h-40.9l-50.95-80.008h72.24l19.61 28.326v-3.484l-17.2-24.842h17.2v-2.561h-18.98l-51.93-75.039h67.84l3.07 4.097v-3.329l-.57-.768h.57v-2.561h-2.5l-51.71-69.201H1901v-2.561h-56.11l-48.6-65h60.04l44.67 55.627v-3.227l-42.08-52.4H1901v-2.561h-44.13l-47.5-59.212h56.49l35.14 40.978v-3.176l-32.44-37.802H1901v-2.561h-34.63l-47.91-55.831h53.14l29.4 32.167v-3.073l-26.58-29.094H1901v-2.561h-28.93l-46.41-50.863h50.06l25.28 26.123v-3.073l-22.34-23.05H1901v-2.561h-24.81l-44.39-45.792h47.28l21.92 21.411v-2.971l-18.88-18.44H1901v-2.561h-21.48l-42.68-41.694h44.71l19.45 18.03v-2.971l-16.25-15.059H1901v-2.561h-19.04l-38.66-35.804h42.46l15.24 13.42v-2.92l-11.91-10.5H1901v-2.561h-14.83l-35.9-31.655h40.43l10.3 8.656v-2.868l-6.88-5.788h6.88v-2.561h-9.92l-32.69-27.455h38.65l3.96 3.176v-2.868l-.41-.308h.41v-2.561h-3.58l-30.07-24.176H1901V76.73h-36.85l-23.82-19.106h35.86L1901 76.678v-2.817l-21.13-16.237H1901v-2.561h-24.46l-19.45-14.957h34.72l9.19 6.762V44.05l-5.35-3.944h5.35v-2.56h-8.84l-16.89-12.447H1901v-2.562h-29.21l-14.61-10.807h33.05l10.77 7.632v-2.766l-6.84-4.866h6.84V9.169h-10.46l-9.34-6.608h19.8zm-60.1 2.561 8.99 6.608h-33.04l-8.62-6.608zM782.768 206.064h-46.004l8.935-35.804h44.008zm8.587-35.804h44.071l-4.942 35.804h-46.068zm-246.402 38.365h45.878l-17.299 41.694h-48.159zm-21.576 41.694h-48.095l21.893-41.694h45.782zm69.355-41.694h45.972l-14.986 41.694h-48.254zm47.81 0h46.036l-12.705 41.694h-48.317zm47.778 0h46.1l-10.392 41.694h-48.381zm47.811 0h46.13l-8.047 41.694h-48.476zm-1.078-2.561h-45.941l10.9-35.804h43.976zm-47.715 0h-45.877l12.895-35.804h43.881zm-47.715 0h-45.814l14.86-35.804h43.849zm-47.715 0h-45.751l16.856-35.804h43.755zm-47.747 0h-45.624l18.82-35.804h43.66zm-47.715 0h-45.561l20.816-35.804h43.565zm-47.747 0h-45.465l22.812-35.804h43.469zm.697 2.561h45.688l-21.893 41.694H425.19zm24.523 44.255h48.254l-21.576 45.792h-50.789zm50.218 0h48.349l-19.042 45.792h-50.851zm50.25 0h48.412l-16.507 45.792h-50.915zm50.25 0h48.475l-13.972 45.792h-51.01zm50.218 0h48.539l-11.406 45.792h-51.074zm50.25 0h48.602l-8.871 45.792h-51.137zm50.25 0h48.633l-6.336 45.792h-51.169zm.506-2.561 8.08-41.694h46.162l-5.734 41.694zm55.89-41.694h46.194l-3.453 41.694h-48.507zm47.81 0h46.226l-1.141 41.694h-48.539zm-1.394-2.561h-46.068l4.943-35.804h44.103zm-42.392-38.365h-43.913l6.146-31.655h42.171zm-45.561 0h-43.881l7.889-31.655h42.107zm-45.592 0h-43.818l9.631-31.655h42.076zm-45.593 0h-43.754l11.374-31.655h42.012zm-45.592 0h-43.691l13.148-31.655h41.917zm-45.592 0h-43.628l14.891-31.655h41.854zm-45.624 0h-43.533l16.665-31.655h41.759zm-45.593 0h-43.437l18.376-31.655h41.695zm-45.624 0h-43.311l20.119-31.655h41.6zm-45.592 0h-43.248l21.894-31.655h41.473zm-45.624 0h-43.121l23.636-31.655h41.378zm.602 2.561h43.375l-22.781 35.804h-45.37zm21.228 38.365h45.592l-24.206 41.694h-47.905zm22.083 44.255h48.127l-24.079 45.792h-50.693zm24.777 48.353h50.915l-23.921 50.863h-53.735zm52.911 0h51.01l-21.101 50.863h-53.83zm52.911 0h51.073l-18.281 50.863h-53.893zm52.911 0h51.169l-15.493 50.863H588.93zm52.911 0h51.232l-12.673 50.863h-54.02zm52.943 0h51.264l-9.854 50.863h-54.083zm52.943 0h51.295l-7.033 50.863h-54.116zm52.911 0h51.359l-4.214 50.863h-54.179zm.349-2.561 6.368-45.792h48.666l-3.834 45.792zm56.618-45.792h48.697l-1.267 45.792h-51.232zm48.919 48.353h51.39l1.394 50.863h-54.178zm241.775-92.608h46.1l12.67 41.694h-48.38zm8.68 41.694h-48.47l-8.05-41.694h46.13zm39.16-41.694h46.04l14.98 41.694h-48.31zm47.88 0h45.94l17.3 41.694h-48.26zm47.87 0h45.88l19.61 41.694h-48.19zm47.87 0h45.79l21.89 41.694h-48.1zm27.69-38.365h43.57l20.81 35.804h-45.56zm16.73 35.804h-45.62l-16.86-35.804h43.66zm-47.62 0h-45.75l-14.86-35.804h43.76zm-47.65 0h-45.81l-12.9-35.804h43.85zm-47.65 0h-45.88l-10.9-35.804h43.88zm-47.65 0h-45.94l-8.94-35.804h43.98zm-47.65 0h-46.01l-6.94-35.804h44.01zm-47.66 0h-46.06l-4.95-35.804h44.08zm-41.56 44.255h-48.51l-3.46-41.694h46.2zm-4.12-41.694h46.16l8.08 41.694h-48.48zm54.75 44.255 8.87 45.792h-51.17l-6.34-45.792zm1.64 0h48.61l11.4 45.792h-51.14zm50.32 0h48.54l13.94 45.792h-51.08zm50.28 0h48.47l16.51 45.792h-51.01zm50.31 0h48.41l19.01 45.792h-50.91zm50.31 0h48.35l21.55 45.792h-50.85zm50.32 0h48.25l24.11 45.792h-50.79zm27.09-44.255h45.68l24.21 41.694h-48zm25.56-38.365h43.47l22.82 35.804h-45.47zm23.99-34.216h41.47l21.9 31.655h-43.25zm17.87 31.655H1430l-18.41-31.655h41.6zm-45.53 0h-43.44l-16.63-31.655h41.66zm-45.5 0h-43.53l-14.89-31.655h41.76zm-45.53 0h-43.62l-13.12-31.655h41.85zm-45.53 0h-43.69l-11.37-31.655h41.92zm-45.52 0h-43.76l-9.63-31.655h42.01zm-45.53 0h-43.82l-7.89-31.655h42.07zm-45.53 0h-43.88l-6.12-31.655h42.11zm-45.53 0h-43.91l-4.38-31.655h42.14zm-40.24 38.365h-46.07l-2.98-35.804h44.11zm-44.01 44.255h-48.536l-1.141-41.694h46.227zm-48.473 2.561h48.693l3.81 45.792h-51.236zm50.313 0h48.63l6.37 45.792h-51.2zm55.35 48.353 7.03 50.863h-54.14l-4.25-50.863zm1.62 0h51.32l9.83 50.863h-54.12zm52.97 0h51.26l12.68 50.863h-54.09zm52.98 0h51.23l15.46 50.863h-54.02zm52.97 0h51.17l18.28 50.863h-53.96zm53.01 0h51.07l21.1 50.863h-53.89zm52.97 0h51.01l23.92 50.863h-53.83zm53.01 0h50.91l26.74 50.863h-53.73zm27.56-48.353h48.13l26.64 45.792h-50.69zm24.62-44.255h45.59l26.52 41.694H1478zm23.45-38.365h43.37l24.78 35.804h-45.37zm22.08-34.216h41.38l23.63 31.655h-43.12zm21.42-30.016h39.6l22.05 27.455h-41.12zm18.06 27.455h-41.26l-19.01-27.455h39.74zm-43.63 0h-41.35l-17.49-27.455h39.83zm-43.63 0h-41.44l-15.97-27.455h39.92zm-43.6 0h-41.56l-14.45-27.455h40.05zm-43.62 0h-41.64l-12.92-27.455h40.11zm-43.63 0h-41.73l-11.4-27.455h40.2zm-43.63 0h-41.79l-9.89-27.455h40.27zm-43.63 0h-41.88l-8.37-27.455h40.37zm-43.63 0h-41.94l-6.85-27.455h40.43zm-43.66 0h-41.98l-5.32-27.455h40.46zm-43.62 0h-42.05l-3.8-27.455h40.52zm-38.94 34.216h-43.95l-2.63-31.655h42.21zm-42.36 38.365h-46.07l-1.014-35.804h44.134zm-45.12 92.608h-51.2l1.267-45.792h48.666zm-50.25-92.608h-46.067l2.946-35.804h44.135zm-44.483-38.365h-43.945l4.372-31.655h42.203zm-40.84-34.216h-42.044l5.323-27.455h40.523zm-43.691 0h-41.981l6.844-27.455h40.46zm-43.691 0h-41.949l8.364-27.455h40.428zm-43.692 0h-41.885l9.885-27.455h40.365zm-43.723 0h-41.79l11.406-27.455h40.269zm-43.691 0h-41.727l12.927-27.455h40.206zm-43.723 0h-41.632l14.448-27.455h40.111zm-43.691 0h-41.569l15.968-27.455h40.048zm-43.723 0H449.46l17.489-27.455h39.921zm-43.723 0h-41.347l19.01-27.455h39.826zm-43.723 0h-41.252l20.531-27.455h39.731zm-43.723 0h-41.125l22.051-27.455h39.604zm-43.723 0h-40.999l23.541-27.455h39.509zm.538 2.561h41.284l-23.668 31.655h-43.026zm18.186 34.216h43.28l-24.777 35.804h-45.243zm19.105 38.365h45.498l-26.519 41.694h-47.81zm19.644 44.255h48.032l-26.646 45.792h-50.566zm22.083 48.353h50.82l-26.709 50.863h-53.671zm24.84 53.424h53.862l-26.266 55.831h-56.966zm55.858 0h53.957l-23.193 55.831h-57.03zm55.858 0h54.051l-20.087 55.831h-57.125zm55.889 0h54.115l-17.014 55.831h-57.188zm55.858 0h54.178l-13.909 55.831h-57.252zm55.889 0H754l-10.836 55.831h-57.315zm55.889 0h54.274l-7.731 55.831h-57.347zm55.89 0h54.305l-4.657 55.831h-57.379zm55.889 0h54.337l-1.552 55.831h-57.41zm.222-2.561 4.214-50.863h51.359l-1.394 50.863zm55.699 2.561h54.306l1.552 55.831h-57.41zm55.826-2.561-1.394-50.863h51.361l4.21 50.863zm54.397 2.561 4.63 55.831h-57.411l-1.552-55.831zm1.59 0h54.3l7.73 55.831h-57.37zm55.92 0h54.27l10.84 55.831h-57.38zm55.92 0h54.24l13.91 55.831h-57.31zm55.95 0h54.18l16.98 55.831h-57.25zm55.92 0h54.12l20.09 55.831h-57.19zm55.96 0h54.05l23.16 55.831h-57.13zm55.95 0h53.96l26.26 55.831h-57.03zm55.95 0h53.86l29.37 55.831H1453zm27.88-53.424h50.82l29.53 50.863h-53.64zm24.87-48.353h48.07l29.15 45.792h-50.57zm22.18-44.255h45.5l28.83 41.694h-47.81zm21.33-38.365h43.28l26.74 35.804h-45.25zm20.18-34.216h41.28l25.41 31.655h-43.02zm19.77-30.016h39.51l23.54 27.455h-41zm19.29-26.737h37.9l22.05 24.176h-39.23zm18 24.176h-39.35l-19.36-24.176h38.02zm-41.95 0h-39.44l-18.06-24.176h38.14zm-41.95 0h-39.57l-16.7-24.176h38.24zm-41.95 0h-39.66l-15.37-24.176h38.34zm-41.94 0h-39.8l-14.03-24.176h38.46zm-41.95 0h-39.89l-12.71-24.176h38.56zm-41.98 0h-39.96l-11.37-24.176h38.65zm-41.95 0h-40.05l-10.04-24.176h38.71zm-41.98 0h-40.11l-8.69-24.176h38.78zm-41.95 0h-40.21l-7.35-24.176h38.88zm-41.98 0h-40.27l-6.02-24.176h38.94zm-41.98 0h-40.34l-4.65-24.176h38.97zm-41.98 0h-40.37L1053 79.291h39.03zm-37.83 30.016h-42.05l-2.28-27.455h40.52zm-40.81 34.216h-43.978l-.887-31.655h42.235zm-43.281 82.62h-48.538l1.14-41.694h46.258zm-47.841-82.62h-43.977l2.63-31.655h42.234zm-42.741-34.216h-42.044l3.802-27.455h40.523zm-39.509-30.016h-40.365l4.689-24.176h39.002zm-42.044 0h-40.301l6.019-24.176h38.971zm-42.012 0h-40.27l7.351-24.176h38.939zm-42.044 0h-40.206l8.681-24.176h38.876zm-42.044 0h-40.111l10.012-24.176h38.78zm-42.044 0h-40.047l11.374-24.176h38.717zm-42.043 0h-39.953l12.673-24.176h38.654zm-42.044 0h-39.889l14.035-24.176h38.559zm-42.044 0h-39.794l15.366-24.176h38.464zm-42.075 0h-39.668l16.697-24.176h38.337zm-42.044 0h-39.573l18.028-24.176h38.242zm-42.076 0h-39.445l19.358-24.176h38.147zm-42.043 0H300.77l20.689-24.176h38.02zm-42.076 0h-39.224l22.052-24.176h37.893zm-42.044 0h-39.129l23.383-24.176h37.766zm.476 2.561h39.382l-23.572 27.455h-40.904zm16.316 30.016h41.157l-25.41 31.655h-42.899zm16.317 34.216h43.153l-26.772 35.804h-45.149zm16.951 38.365h45.402l-28.832 41.694h-47.683zm17.172 44.255h47.969l-29.18 45.792H291.55zm19.422 48.353h50.725l-29.529 50.863h-53.544zm21.862 53.424h53.798l-29.37 55.831h-56.872zm25.156 58.392h57.125l-27.849 59.212H358.56zm59.121 0h57.189l-24.586 59.212h-60.452zm59.09 0h57.283l-21.291 59.212h-60.547zm59.121 0h57.315l-17.996 59.212h-60.61zm59.089 0h57.411l-14.733 59.212h-60.674zm59.121 0h57.442l-11.437 59.212h-60.737zm59.121 0h57.506l-8.206 59.212h-60.769zm59.122 0h57.537l-4.911 59.212h-60.801zm59.121 0h57.568l-1.647 59.212h-60.832zm59.153 0h57.536l1.648 59.212h-60.832zm59.121 0h57.567l4.91 59.212H982.5zm59.157 0h57.53l8.21 59.212h-60.83zm59.15 0h57.5l11.47 59.212h-60.77zm59.18 0h57.44l14.74 59.212h-60.74zm59.16 0h57.41l17.99 59.212h-60.67zm59.18 0H1334l21.32 59.212h-60.64zm59.15 0h57.29l24.55 59.212h-60.55zm59.19 0h57.19l27.85 59.212h-60.46zm59.18 0h57.13l31.11 59.212h-60.39zm28.48-58.392h53.77l32.48 55.831h-56.87zm24.94-53.424h50.72l32.35 50.863h-53.54zm22.18-48.353h47.97l31.68 45.792h-50.47zm19.74-44.255h45.4l31.11 41.694h-47.68zm19.2-38.365h43.15l28.77 35.804h-45.15zm18.31-34.216h41.16l27.15 31.655h-42.9zm18.09-30.016h39.38l25.1 27.455h-40.91zm17.84-26.737h37.77l23.38 24.176H1645zm-2.35-2.561-17.49-19.106h36.6l18.53 19.106zm-2.82 0h-37.76l-16.41-19.106h36.69zm-40.49 0h-37.86l-15.36-19.106h36.81zm-40.46 0h-37.98l-14.29-19.106h36.91zm-40.49 0h-38.08l-13.24-19.106h37.03zm-40.46 0h-38.21l-12.16-19.106h37.13zm-40.46 0h-38.33l-11.09-19.106h37.22zm-40.49 0h-38.4l-10.07-19.106h37.35zm-40.49 0h-38.49l-9-19.106h37.45zm-40.49 0h-38.56l-7.95-19.106h37.51zm-40.46 0h-38.69l-6.87-19.106h37.61zm-40.49 0h-38.75l-5.83-19.106h37.67zm-40.49 0h-38.82l-4.75-19.106h37.74zm-40.53 0h-38.84l-3.71-19.106h37.8zm-40.49 0h-38.87l-2.66-19.106h37.83zm-36.81 26.737h-40.4l-2-24.176h39.04zm-39.51 30.016h-42.078l-.761-27.455h40.559zm-41.666 72.581h-46.068l.982-35.804h44.104zm-45.656-72.581h-42.075l2.281-27.455h40.554zm-41.188-30.016h-40.397l3.359-24.176h39.034zM848.353 76.73h-38.876l3.707-19.106h37.83zm-40.523 0h-38.844l4.753-19.106h37.798zm-40.555 0h-38.812l5.83-19.106h37.735zm-40.554 0h-38.749l6.907-19.106h37.671zm-40.555 0h-38.685l7.952-19.106h37.608zm-40.586 0h-38.559l8.998-19.106h37.513zm-40.555 0H566.53l10.043-19.106h37.45zm-40.586 0h-38.401l11.121-19.106h37.355zm-40.555 0h-38.305l12.166-19.106h37.228zm-40.586 0h-38.211l13.244-19.106h37.133zm-40.587 0h-38.083l14.289-19.106h37.038zm-40.586 0h-37.988l15.366-19.106h36.911zm-40.586 0h-37.862l16.412-19.106h36.816zm-40.587 0h-37.766l17.489-19.106h36.689zm-40.586 0h-37.64l18.535-19.106h36.594zm-40.587 0h-37.513l19.581-19.106h36.467zm-2.471 2.56-23.382 24.177h-39.002l24.713-24.176zm-22.907 26.738h39.256l-25.093 27.455h-40.777zm14.638 30.016H270.1l-27.152 31.655h-42.804zm14.416 34.216h43.057l-28.768 35.804h-45.022zm14.828 38.365h45.307l-31.145 41.694h-47.588zm14.732 44.255h47.842l-31.715 45.792h-50.376zm16.761 48.353h50.63l-32.381 50.863h-53.449zm18.883 53.424h53.703l-32.443 55.831h-56.777zm21.925 58.392h57.03l-31.113 59.212h-60.294zm26.646 61.773h60.515l-30.606 65h-64.096zm62.511 0h60.61l-26.994 65h-64.222zm62.511 0h60.705l-23.414 65h-64.285zm62.511 0h60.769l-19.802 65h-64.349zm62.543 0h60.832l-16.222 65h-64.412zm62.543 0h60.864l-12.61 65h-64.476zm62.511 0h60.927l-8.998 65h-64.507zm62.543 0h60.959l-5.386 65h-64.571zm62.543 0h60.99l-1.806 65h-64.57zm62.575 0h60.958l1.806 65h-64.57zm62.542 0h60.987l5.39 65h-64.57zm62.577 0h60.96l8.99 65h-64.57zm62.57 0h60.93l12.58 65h-64.51zm62.58 0h60.86l16.22 65h-64.47zm62.57 0h60.83l19.81 65h-64.42zm62.61 0h60.77l23.38 65h-64.35zm62.57 0h60.71l26.99 65h-64.28zm62.61 0h60.61l30.61 65h-64.23zm62.61 0h60.51l34.19 65h-64.1zm30.13-61.773h57.03l34.37 59.212h-60.29zm25.25-58.392h53.7l35.55 55.831h-56.81zm21.95-53.424h50.63l35.2 50.863h-53.45zm19.55-48.353h47.84l34.25 45.792h-50.37zm17.27-44.255h45.31l33.42 41.694h-47.58zm17.08-38.365h43.06l30.73 35.804h-45.02zm16.41-34.216h41.06l28.9 31.655h-42.81zm16.44-30.016h39.26l26.61 27.455h-40.77zm16.35-26.737h37.67l24.72 24.176h-39.01zm-2.47-2.561-18.53-19.106h36.46l19.58 19.106zm3.04-36.624h35.39l16.13 14.957h-36.18zm12.26 14.957h-36.31l-14.51-14.957h35.52zm-39.25 0h-36.47l-13.66-14.957h35.62zm-39.29 0h-36.56l-12.83-14.957h35.74zm-39.26 0h-36.68l-12.01-14.957h35.86zm-39.28 0h-36.79l-11.18-14.957h35.96zm-39.26 0h-36.91l-10.33-14.957H1469zm-39.29 0h-37l-9.51-14.957h36.19zm-39.25 0h-37.1l-8.72-14.957h36.28zm-39.29 0h-37.19l-7.86-14.957h36.34zm-39.29 0h-37.29l-7.03-14.957h36.47zm-39.28 0h-37.36l-6.21-14.957h36.53zm-39.29 0h-37.45l-5.39-14.957h36.63zm-39.29 0h-37.51l-4.56-14.957h36.69zm-39.29 0h-37.57l-3.74-14.957h36.75zm-39.28 0h-37.64l-2.92-14.957h36.82zm-39.32 0h-37.67l-2.09-14.957h36.88zM1051 76.73h-38.91l-1.58-19.106h37.86zm-40.3 2.56 2.03 24.177h-40.432l-.665-24.176zM972.488 167.7h-43.976l.887-31.655h42.202zm-43.786-64.232h-40.428l2.028-24.176h39.065zM888.908 76.73H850l2.63-19.106h37.862zm-37.545-21.667h-37.672l2.884-14.957h36.879zm-39.351 0h-37.64l3.739-14.957h36.816zm-39.351 0h-37.576l4.562-14.957H776.4zm-39.35 0h-37.513l5.386-14.957h36.689zm-39.351 0h-37.45l6.21-14.957h36.626zm-39.382 0h-37.355l7.034-14.957h36.531zm-39.351 0h-37.291l7.857-14.957h36.468zm-39.382 0h-37.197l8.682-14.957h36.372zm-39.383 0h-37.101l9.537-14.957h36.277zm-39.351 0h-37.006l10.329-14.957h36.182zm-39.382 0h-36.911l11.184-14.957h36.056zm-39.382 0h-36.785l12.008-14.957h35.961zm-39.383 0h-36.689l12.832-14.957h35.865zm-39.382 0h-36.563l13.656-14.957h35.739zm-39.382 0h-36.468l14.511-14.957h35.612zm-39.415 0h-36.309l15.335-14.957h35.485zm-39.382 0h-36.182l16.127-14.957h35.39zm-39.382 0h-36.088l16.983-14.957h35.263zm.412 2.561h36.372L199.193 76.73h-37.386zm14.13 21.667-24.713 24.176h-38.875l26.044-24.176zm-24.269 26.737h39.161l-26.614 27.455h-40.682zm12.99 30.016h40.935l-28.895 31.655h-42.678zm12.515 34.216h42.931l-30.733 35.804h-44.895zm12.737 38.365h45.148l-33.425 41.694h-47.494zm12.261 44.255h47.747l-34.25 45.792h-50.281zm14.068 48.353H287.4l-35.201 50.863h-53.323zm15.936 53.424h53.609l-35.549 55.831h-56.682zm18.693 58.392h56.935l-34.408 59.212h-60.198zm23.224 61.773h60.42l-34.186 65H256.92zm24.872 67.561-36.373 69.201h-67.992l40.206-69.201zm2.091 0h64.254l-32.539 69.201h-68.088zm66.25 0h64.349l-28.706 69.201h-68.182zm66.281 0h64.413l-24.904 69.201h-68.246zm66.25 0h64.507L563.9 611.584h-68.341zm66.282 0h64.539l-17.236 69.201h-68.373zm66.25 0h64.634l-13.403 69.201h-68.467zm66.281 0h64.666l-9.569 69.201h-68.499zm66.282 0h64.697l-5.735 69.201h-68.531zm66.281 0h64.729l-1.933 69.201h-68.531zm66.313 0h64.698l1.932 69.201h-68.562zm66.282 0h64.727l5.74 69.201h-68.534zm66.317 0h64.69l9.57 69.201h-68.5zm66.31 0h64.66l13.41 69.201h-68.5zm66.31 0h64.64l17.23 69.201h-68.47zm66.35 0h64.54l21.07 69.201h-68.38zm66.31 0h64.51l24.9 69.201h-68.34zm66.35 0h64.41l28.73 69.201h-68.24zm66.34 0h64.35l32.54 69.201h-68.18zm66.35 0h64.25l36.37 69.201h-68.09zm66.34 0h64.16l40.21 69.201h-68zm-1.36-2.561-34.19-65h60.42l37.8 65zm-7.48-126.773h56.94l37.67 59.212h-60.2zm22.02-58.392h53.61l38.62 55.831h-56.68zm19.01-53.424h50.54l37.98 50.863h-53.32zm16.86-48.353h47.74l36.79 45.792h-50.28zm14.86-44.255h45.14l35.77 41.694h-47.49zm14.95-38.365h42.93l32.7 35.804H1691zm14.51-34.216h40.94l30.63 31.655h-42.67zm14.77-30.016h39.16l28.13 27.455h-40.68zm14.89-26.737h37.54l26.05 24.176h-38.88zm-2.63-2.561-19.62-19.106h36.38l20.62 19.106zm1.01-36.624h35.26l16.99 14.957h-36.09zm21.55-15.007h34.28l14.82 12.446h-34.97zm10.8 12.446h-35.11L1686.63 25.1h34.41zm-38.31 0h-35.23L1648.9 25.1h34.53zm-38.27 0h-35.36L1611.16 25.1h34.66zm-38.3 0h-35.49L1573.43 25.1h34.78zm-38.31 0h-35.58L1535.72 25.1h34.89zm-38.3 0h-35.71l-9.98-12.446H1533zm-38.28 0h-35.83l-9.32-12.446h35.14zm-38.3 0h-35.93l-8.62-12.446h35.23zm-38.31 0h-36.05l-7.92-12.446h35.35zm-38.3 0h-36.15l-7.23-12.446h35.42zm-38.34 0h-36.21l-6.56-12.446h35.55zm-38.31 0h-36.3l-5.87-12.446h35.65zm-38.3 0h-36.4l-5.17-12.446h35.71zm-38.31 0h-36.5l-4.46-12.446h35.77zm-38.33 0h-36.57l-3.77-12.446h35.87zm-38.31 0h-36.62l-3.11-12.446h35.93zm-38.33 0h-36.69l-2.41-12.446h35.99zm-38.34 0h-36.72l-1.71-12.446h36.02zm-35.9 17.518h-37.73l-1.24-14.957h36.88zm-37.51 21.667h-38.941l-.538-19.106h37.859zm-38.972 56.753h-42.076l.761-27.455h40.554zM929.431 76.73h-38.939l1.616-19.106h37.861zm-38.717-21.667H853.01l2.06-14.957h36.879zm-36.912-17.518h-36.72l2.407-12.446h36.024zm-38.4 0h-36.657L781.85 25.1h35.992zm-38.368 0h-36.626L744.21 25.1h35.929zm-38.369 0h-36.562L706.57 25.1h35.866zm-38.4 0h-36.499L668.93 25.1h35.802zm-38.4 0h-36.404l5.861-12.446h35.707zm-38.4 0h-36.309l6.526-12.446h35.644zm-38.401 0h-36.245l7.255-12.446h35.549zm-38.4 0h-36.15l7.952-12.446h35.422zm-38.4 0h-36.056l8.618-12.446h35.359zm-38.432 0h-35.929l9.315-12.446h35.232zm-38.4 0H395.63l9.98-12.446h35.137zm-38.4 0h-35.707L368.002 25.1h35.01zm-38.432 0h-35.58L330.394 25.1h34.883zm-38.4 0h-35.486L292.786 25.1h34.788zm-38.432 0h-35.359L255.178 25.1h34.661zm-38.4 0h-35.232L217.569 25.1h34.535zm-38.432 0h-35.105l14.13-12.446h34.408zm-38.432 0h-34.979L142.353 25.1h34.282zm-38.4 0H89.252L104.745 25.1h34.186zm.38 2.561h35.137l-16.983 14.957h-35.96zm18.566 17.518h36.214L158.607 76.73h-37.292zm12.8 21.667-26.075 24.176H91.026l27.406-24.176zm-25.632 26.737h39.003l-28.103 27.455h-40.555zm11.343 30.016h40.777L151.7 167.699h-42.551zm10.614 34.216h42.804l-32.729 35.804h-44.8zm10.582 38.365h45.054l-35.739 41.694h-47.366zm9.822 44.255h47.62l-36.784 45.792H133.26zm11.374 48.353h50.409l-37.989 50.863h-53.228zm12.991 53.424h53.481l-38.622 55.831h-56.586zm15.461 58.392h56.808l-37.671 59.212H171.47zm19.802 61.773h60.325l-37.798 65h-63.937zm21.038 67.561-40.206 69.201h-67.898l44.04-69.201zm-39.509 71.762h68.151l-39.478 75.039h-72.301zm70.21 0h68.246l-35.295 75.039H244.5zm70.242 0h68.309l-31.144 75.039h-72.46zm70.21 0h68.405l-26.995 75.039h-72.554zm70.242 0h68.468l-22.844 75.039h-72.618zm70.242 0h68.531l-18.693 75.039h-72.682zm70.242 0h68.595l-14.543 75.039h-72.745zm70.242 0h68.626l-10.36 75.039h-72.777zm70.274 0h68.657l-6.241 75.039h-72.808zm70.242 0h68.689l-2.091 75.039h-72.808zm70.273 0h68.69l2.059 75.039h-72.808zm70.274 0h68.691l6.21 75.039h-72.81zm70.271 0h68.66l10.39 75.039h-72.81zm70.31 0h68.62l14.51 75.039h-72.77zm70.27 0h68.6l18.69 75.039h-72.75zm70.31 0h68.53l22.84 75.039h-72.68zm70.3 0h68.47l26.99 75.039h-72.61zm70.31 0h68.37l31.18 75.039h-72.56zm70.3 0h68.31l35.3 75.039h-72.46zm70.31 0h68.24l39.45 75.039h-72.4zm70.3 0h68.15l43.63 75.039h-72.3zm28.65-71.762h64.06l44.04 69.201h-67.9zm-1.49-2.561-37.8-65h60.32l41.41 65zm-14.48-126.773h56.8l40.94 59.212h-60.07zm18.78-58.392h53.49l41.72 55.831h-56.58zm16.04-53.424h50.44l40.8 50.863h-53.26zm14.19-48.353h47.62l39.32 45.792h-50.15zm12.39-44.255h45.05l38.05 41.694h-47.36zm12.83-38.365h42.8l34.73 35.804h-44.8zm12.64-34.216h40.81l32.38 31.655h-42.55zm13.12-30.016h39l29.66 27.455h-40.56zm13.37-26.737h37.42l27.4 24.176h-38.78zm-2.76-2.561-20.65-19.106h36.21l21.73 19.106zm-1.01-36.624h35.14l17.8 14.957h-35.96zm20.69-15.007h34.18l15.5 12.446h-34.85zm-3.04-2.562L1746.2 11.73h33.42l13.43 10.807zm-3.42 0h-34.16l-12.26-10.807h33.58zm-37.49 0h-34.28l-11.63-10.807h33.68zm-37.45 0h-34.4l-11.06-10.807h33.8zm-37.48 0h-34.5l-10.46-10.807h33.94zm-37.45 0h-34.63l-9.88-10.807h34.06zm-37.48 0h-34.75l-9.26-10.807h34.16zm-37.45 0h-34.88l-8.65-10.807h34.28zm-37.48 0h-34.98l-8.08-10.807h34.41zm-37.48 0h-35.07l-7.48-10.807h34.5zm-37.45 0h-35.2l-6.88-10.807h34.6zm-37.48 0h-35.3l-6.27-10.807h34.69zm-37.48 0h-35.39l-5.67-10.807h34.78zm-37.48 0h-35.49l-5.07-10.807h34.88zm-37.49 0h-35.58l-4.46-10.807h34.97zm-37.48 0h-35.64l-3.9-10.807h35.08zm-37.48 0h-35.74l-3.26-10.807h35.1zm-37.51 0h-35.77l-2.7-10.807h35.2zm-37.48 0h-35.84l-2.09-10.807h35.23zm-37.52 0h-35.86l-1.49-10.807h35.26zm-37.13 2.562 1.71 12.446h-36.75l-1.01-12.446zm-35.17 29.964h-37.733l-.412-14.957h36.875zm-38.24-17.518-.348-12.446h36.088l1.04 12.446zm.254 65.922h-40.428l.665-24.176h39.098zM930.54 37.545h-36.785l1.046-12.446h36.087zm-.096 2.561-.411 14.957h-37.735l1.267-14.957zm-38.273-2.56h-36.753l1.711-12.447h36.056zm-36.309-15.009h-35.866l2.091-10.807h35.264zm-37.545 0h-35.834l2.693-10.807h35.232zm-37.545 0h-35.77l3.263-10.807h35.2zm-37.544 0h-35.739l3.897-10.807h35.137zm-37.577 0h-35.644l4.468-10.807h35.073zm-37.545 0h-35.58l5.069-10.807h34.979zm-37.576 0h-35.485l5.671-10.807h34.883zm-37.576 0h-35.391l6.274-10.807h34.788zm-37.577 0h-35.295l6.875-10.807h34.693zm-37.576 0h-35.2l7.477-10.807h34.598zm-37.577 0h-35.073l8.047-10.807h34.504zm-37.576 0h-34.979l8.65-10.807h34.408zm-37.577 0h-34.883l9.252-10.807h34.281zm-37.576 0h-34.757l9.854-10.807h34.155zm-37.608 0h-34.63l10.455-10.807h34.06zm-37.577 0h-34.503l11.026-10.807h33.933zm-37.576 0h-34.408l11.659-10.807h33.806zm-37.576 0h-34.282l12.23-10.807h33.679zm-37.609 0h-34.154l12.832-10.807h33.584zm-37.576 0h-34.028l13.434-10.807h33.426zm-37.608 0H70.464L84.499 11.73h33.331zm-3.168 2.562L85.672 37.545H50.947L67.137 25.1zM86.052 40.106h35.01l-17.806 14.957H67.422zm17.584 17.518h36.087L118.02 76.73H80.856zm11.47 21.667-27.375 24.176H49.078l28.736-24.176zm-26.963 26.737h38.875l-29.655 27.455H56.967zm9.663 30.016h40.682l-32.412 31.655H63.652zm8.713 34.216h42.71l-34.694 35.804H69.83zm8.46 38.365h44.958l-38.051 41.694H74.614zm7.382 44.255h47.493l-39.287 45.792h-50.06zm8.713 48.353h50.281l-40.808 50.863H87.446zm10.044 53.424h53.354l-41.727 55.831h-56.46zm12.198 58.392h56.713l-40.935 59.212h-60.008zm16.38 61.773h60.23l-41.378 65h-63.842zm17.204 67.561-44.04 69.201H75.058l47.873-69.201zm-43.406 71.762h68.056l-43.597 75.039H95.747zm25.125 77.6h72.459l-42.107 80.008h-76.863zm74.519 0h72.555l-37.672 80.008h-76.959zm74.551 0h72.586l-33.204 80.008h-77.054zm74.519 0h72.682l-28.801 80.008h-77.117zm74.519 0h72.777l-24.365 80.008h-77.212zm74.551 0h72.808l-19.928 80.008h-77.276zm74.519 0h72.872l-15.493 80.008h-77.308zm74.551 0h72.935l-11.089 80.008h-77.339zm74.551 0h72.967l-6.654 80.008H753.81zm74.551 0h72.967l-2.218 80.008h-77.403zm74.551 0h72.998l2.218 80.008h-77.434zm74.582 0h72.967l6.65 80.008h-77.399zm74.587 0h72.93l11.09 80.008h-77.4zm74.55 0h72.93l15.53 80.008h-77.37zm74.58 0h72.9l19.93 80.008h-77.31zm74.61 0h72.81l24.4 80.008h-77.28zm74.59 0h72.77l28.8 80.008h-77.21zm74.61 0h72.68l33.24 80.008h-77.12zm74.61 0h72.59l37.67 80.008h-77.05zm74.59 0h72.55l42.08 80.008h-76.96zm74.61 0h72.46l46.51 80.008h-76.86zm29.53-77.6h68.06l47.74 75.039h-72.2zm24.65-71.762h63.97l47.87 69.201h-67.8zm-1.65-2.561-41.38-65h60.23l44.99 65zm-21.48-126.773h56.71l44.23 59.212h-60zm15.56-58.392h53.35l44.83 55.831h-56.46zm13.11-53.424h50.29l43.62 50.863h-53.1zm11.51-48.353h47.49l41.85 45.792h-50.06zm9.91-44.255h44.96l40.37 41.694h-47.28zm10.71-38.365h42.71l36.69 35.804h-44.67zm10.74-34.216h40.68l34.16 31.655h-42.43zm11.47-30.016h38.88l31.17 27.455h-40.39zm11.91-26.737h37.3l28.73 24.176h-38.65zm-2.91-2.561-21.7-19.106h36.08l22.78 19.106zm-3.04-36.624h35.01l18.63 14.957h-35.84zM1799.8 25.1h34.06l16.19 12.446h-34.72zm-3.16-2.562-13.47-10.807h33.33l14.04 10.807zm7.92-19.976 8.61 6.608H1780l-8.24-6.608zm-36.38 0 8.24 6.608h-33.27l-7.89-6.608zm-36.34 0 7.86 6.608h-33.39l-7.51-6.608zm-36.37 0 7.51 6.608h-33.52l-7.16-6.608zm-36.34 0 7.13 6.608h-33.65l-6.78-6.608zm-36.37 0 6.78 6.608h-33.78l-6.43-6.608zm-36.38 0 6.44 6.608h-33.9l-6.06-6.608zm-36.34 0 6.02 6.608h-33.99l-5.67-6.608zm-36.37 0 5.67 6.608h-34.12l-5.32-6.608zm-36.37 0 5.32 6.608h-34.25l-4.94-6.608zm-36.34 0 4.94 6.608h-34.38l-4.56-6.608zm-36.37 0 4.56 6.608h-34.47l-4.19-6.608zm-36.38 0 4.22 6.608h-34.57L1334 2.56zm-36.37 0 3.83 6.608h-34.66l-3.48-6.608zm-36.37 0 3.48 6.608h-34.75l-3.11-6.608zm-36.37 0 3.1 6.608h-34.85l-2.73-6.608zm-36.41 0 2.76 6.608h-34.92l-2.37-6.608zm-36.37 0 2.38 6.608h-34.98l-2.03-6.608zm-36.37 0 1.99 6.608h-35.04l-1.65-6.608zm-36.41 0 1.65 6.608h-35.11l-1.26-6.608zm-36.4 0 1.3 6.608h-35.17l-.92-6.608zm-33.65 19.976h-35.9l-.88-10.807H1042zm-2.76-19.976.92 6.608h-35.17l-.53-6.608zm-34.75 19.976h-35.931l-.286-10.807h35.327zm-1.65-19.976.54 6.608H969.7l-.19-6.608zm-71.256 0h34.852l.158 6.608h-35.168zm-.253 9.169h35.358l.285 10.807h-35.928zm-.349 13.369h36.056l.348 12.446h-36.752zm-.443 15.007h36.942l.412 14.957h-37.766zm37.418 17.518.538 19.106h-38.97l.538-19.106zM896.67 2.561h34.82l-.19 6.608h-35.169zm34.567 9.169-.286 10.807h-35.929l.888-10.807zM860.266 2.56h34.788l-.538 6.608h-35.169zm34.028 9.169-.887 10.807h-35.898l1.49-10.807zM823.862 2.56h34.788l-.919 6.608h-35.168zm-36.404 0h34.724l-1.267 6.608H785.81zm-1.711 0-1.648 6.608h-35.042l1.996-6.608zm-36.436 0-2.028 6.608h-34.978l2.376-6.608zm-36.468 0-2.376 6.608h-34.915l2.756-6.608zm-36.467 0-2.725 6.608h-34.852l3.105-6.608zm-36.436 0-3.137 6.608h-34.756l3.485-6.608zm-36.468 0-3.485 6.608h-34.661l3.833-6.608zm-36.467 0L563.14 9.17h-34.567l4.214-6.608zm-36.499 0-4.183 6.608h-34.471l4.562-6.608zm-36.468 0-4.562 6.608h-34.377l4.943-6.608zm-36.467 0-4.943 6.608h-34.25l5.323-6.608zm-36.468 0L415.78 9.17h-34.123l5.672-6.608zm-36.499 0-5.671 6.608h-34.028l6.051-6.608zm-36.468 0-6.051 6.608h-33.901l6.432-6.608zm-36.467 0-6.432 6.608h-33.774l6.78-6.608zm-36.499 0-6.781 6.608h-33.647l7.129-6.608zm-36.468 0-7.16 6.608h-33.521l7.509-6.608zm-36.499 0-7.509 6.608H161.3l7.857-6.608zm-36.467 0-7.89 6.608h-33.267l8.238-6.608zm-36.5 0-8.237 6.608H87.826l8.618-6.608zm-36.467 0L84.15 9.17H51.105l8.998-6.608zM14.416 9.17 23.73 2.56H56.27L47.303 9.17zm33.236 2.56h33.172L66.79 22.538H33.014zm-35.01 25.816L29.529 25.1h33.933l-16.19 12.446zm15.525 17.518L47.62 40.106h34.883L63.842 55.063zm36.055 2.561h35.961L77.434 76.73H40.396zM7.16 103.467l30.036-24.176h37.197l-28.737 24.176zm6.179 30.016 32.697-27.455h38.78L53.64 133.483zm4.816 34.216 35.897-31.655h40.554l-34.154 31.655zm4.055 38.365 38.654-35.804h42.582l-36.657 35.804zm2.345 44.255L67.2 208.625h44.832l-40.333 41.694zm3.2 48.353 44.388-45.792h47.398l-41.853 45.792zm3.992 53.424 46.416-50.863h50.186l-43.628 50.863zm5.608 58.392 47.905-55.831h53.26l-44.832 55.831zm9.378 61.773 47.493-59.212h56.618l-44.23 59.212zm60.452 2.561h60.135l-44.991 65H58.583zM4.975 611.584l51.707-69.201h63.873l-47.873 69.201zm16.38 77.6 51.929-75.039h67.96l-47.778 75.039zm21.798 82.569L94.1 691.745h72.364l-46.511 80.008zm109.751 87.64H71.192l49.426-85.079h77.023zm83.897 0h-81.806l44.737-85.079h77.085zm83.898 0h-81.902l40.016-85.079h77.181zm83.897 0H322.6l35.295-85.079h77.276zm83.866 0h-82.06l30.606-85.079h77.339zm83.866 0h-82.092l25.885-85.079h77.403zm83.865 0h-82.154l21.196-85.079h77.434zm83.866 0h-82.186l16.475-85.079h77.498zm83.866 0h-82.218l11.754-85.079h77.529zm83.866 0h-82.25l7.034-85.079h77.56zm1.584 0 2.345-85.079h77.56l2.345 85.079zm83.834 0-2.344-85.079h77.565l7.03 85.079zm83.861 0-7.06-85.079h77.53l11.75 85.079zm83.87 0-11.79-85.079h77.5l16.48 85.079zm83.87 0-16.48-85.079h77.44l21.19 85.079zm83.86 0-21.19-85.079h77.4l25.88 85.079zm83.87 0-25.89-85.079h77.34l30.61 85.079zm83.86 0-30.57-85.079h77.24l35.33 85.079zm83.9 0-35.29-85.079h77.18l40.01 85.079zm83.9 0-40.02-85.079h77.09l44.74 85.079zm165.61 0h-81.71l-44.74-85.079h77.02zm28.04-87.64h-76.8l-46.51-80.008h72.36zm21.8-82.569h-72.12l-47.77-75.039h67.96zm16.38-77.6h-67.71l-47.88-69.201h63.88zm-53.61-71.762h-63.75l-44.99-65h60.14zm11.85-67.561h-59.88l-44.23-59.212h56.61zm9.38-61.773h-56.34l-44.83-55.831h53.26zm5.6-58.392h-52.97l-43.63-50.863h50.19zm4-53.424h-49.94l-41.85-45.792h47.4zm3.2-48.353h-47.12l-40.36-41.694h44.83zm2.34-44.255h-44.58l-36.66-35.804h42.59zm4.06-38.365h-42.3l-34.16-31.655h40.56zm4.81-34.216h-40.3l-31.18-27.455h38.78zm6.18-30.016h-38.5l-28.73-24.176h37.19zM1860.6 76.73h-37.03l-22.75-19.106h35.96zm12.27-21.667h-35.71l-18.66-14.957h34.88zm15.49-17.518h-34.6L1837.54 25.1h33.93zm-20.37-15.008h-33.78l-14.03-10.807h33.17zm18.59-13.368h-32.88l-8.97-6.608h32.54z" opacity=".11"/></svg>