<svg width="410" height="1236" viewBox="0 0 410 1236" fill="none" xmlns="http://www.w3.org/2000/svg">
<path opacity="0.1" d="M1544 -31H-1133V-27.3934H-1105.11L-1118.28 -18.0883H-1133V-14.4817H-1123.36L-1133 -7.62916V-3.73402L-1117.83 -14.4817H-1071.3L-1091.91 0.73818H-1133V4.34479H-1096.77L-1120.55 21.8729H-1133V25.4795H-1125.46L-1133 31.0337V35.001L-1120.06 25.4795H-1071.16L-1098.56 46.5421H-1133V50.1488H-1103.24L-1133 73.0147V76.9819L-1098.07 50.1488H-1047.56L-1081.11 77.0541H-1133V80.6607H-1085.62L-1127.96 114.707H-1133V118.314H-1132.42L-1133 118.747V122.786L-1127.42 118.314H-1072.99L-1119.03 156.977H-1133V160.583H-1123.32L-1133 168.734V172.774L-1118.5 160.583H-1061.57L-1112.12 205.161H-1133V208.768H-1116.22L-1133 223.555V227.666L-1111.54 208.768H-1051.75L-1106.19 259.188H-1133V262.795H-1110.11L-1133 284.001V288.185L-1105.61 262.795H-1042.65L-1102.75 321.51H-1133V325.117H-1106.41L-1133 351.084V355.268L-1102.13 325.117H-1035.56L-1098.07 389.603H-1133V393.21H-1101.55L-1133 425.669V429.997L-1097.4 393.21H-1026.9L-1092.26 464.837H-1133V468.444H-1095.57L-1133 509.415V513.743L-1091.6 468.444H-1016.77L-1084.23 547.068H-1133V550.674H-1087.31L-1133 603.908V608.38L-1083.52 550.674H-1003.97L-1070.85 634.059H-1133V637.666H-1073.75L-1133 711.457V716.001L-1070.09 637.666H-985.542L-1053.98 729.202H-1133V732.808H-1056.66L-1129.48 830.259H-1133V833.865H-1132.2L-1133 834.947V839.636L-1128.67 833.865H-1033.15L-1106.27 939.539H-1133V943.146H-1108.77L-1133 978.13V983.035L-1105.38 943.146H-1003.66L-1075.4 1055.82H-1133V1059.42H-1077.72L-1133 1146.34V1151.32L-1074.51 1059.42H-966.178L-1035.78 1179.23H-1133V1182.84H-1037.88L-1098.47 1287H-1095.39L-1034.84 1182.84H-919.554L-974.299 1287H-971.398L-916.609 1182.84H-801.23L-850.22 1287H-847.453L-798.42 1182.84H-682.907L-726.141 1287H-723.419L-680.185 1182.84H-564.584L-602.062 1287H-599.474L-561.996 1182.84H-446.26L-477.983 1287H-475.484L-443.762 1182.84H-327.937L-353.859 1287H-351.45L-325.528 1182.84H-209.613L-229.825 1287H-227.505L-207.293 1182.84H-91.3347L-105.746 1287H-103.426L-89.0593 1182.84H26.9441L18.2885 1287H20.5638L29.2195 1182.84H145.267L142.367 1287H144.598L147.498 1182.84H263.502L266.402 1287H268.633L265.732 1182.84H381.781L390.436 1287H392.711L384.056 1182.84H500.059L514.426 1287H516.746L502.335 1182.84H618.293L638.505 1287H640.825L620.614 1182.84H736.527L762.45 1287H764.859L738.937 1182.84H854.762L886.484 1287H888.983L857.26 1182.84H972.996L1010.47 1287H1013.06L975.584 1182.84H1091.19L1134.42 1287H1137.14L1093.91 1182.84H1209.42L1258.45 1287H1261.22L1212.23 1182.84H1327.61L1382.4 1287H1385.3L1330.55 1182.84H1445.84L1506.39 1287H1509.47L1448.88 1182.84H1544V1179.23H1446.78L1377.18 1059.42H1485.51L1544 1151.32V1146.34L1488.72 1059.42H1544V1055.82H1486.4L1414.66 943.146H1516.38L1544 983.035V978.13L1519.77 943.146H1544V939.539H1517.27L1444.15 833.865H1539.67L1544 839.636V834.947L1543.2 833.865H1544V830.259H1540.48L1467.66 732.808H1544V729.202H1464.98L1396.54 637.666H1481.09L1544 716.001V711.457L1484.75 637.666H1544V634.059H1481.85L1414.97 550.674H1494.52L1544 608.38V603.908L1498.31 550.674H1544V547.068H1495.23L1427.77 468.444H1502.6L1544 513.743V509.415L1506.57 468.444H1544V464.837H1503.26L1437.9 393.21H1508.4L1544 429.997V425.669L1512.55 393.21H1544V389.603H1509.06L1446.56 325.117H1513.13L1544 355.268V351.084L1517.41 325.117H1544V321.51H1513.75L1453.65 262.795H1516.61L1544 288.185V284.001L1521.11 262.795H1544V259.188H1517.19L1462.75 208.768H1522.54L1544 227.666V223.555L1527.22 208.768H1544V205.161H1523.12L1472.57 160.583H1529.5L1544 172.774V168.734L1534.32 160.583H1544V156.977H1530.03L1483.99 118.314H1538.42L1544 122.786V118.747L1543.42 118.314H1544V114.707H1538.96L1496.62 80.6607H1544V77.0541H1492.11L1458.56 50.1488H1509.06L1544 76.9819V73.0147L1514.24 50.1488H1544V46.5421H1509.56L1482.16 25.4795H1531.06L1544 35.001V31.0337L1536.46 25.4795H1544V21.8729H1531.55L1507.77 4.34479H1544V0.73818H1502.86L1482.29 -14.4817H1528.83L1544 -3.73402V-7.62916L1534.36 -14.4817H1544V-18.0883H1529.28L1516.11 -27.3934H1544V-31ZM1459.36 -27.3934L1472.03 -18.0883H1425.5L1413.36 -27.3934H1459.36ZM-30.7007 259.188H-95.4841L-82.9021 208.768H-20.9296L-30.7007 259.188ZM-18.6095 208.768H43.4523L36.4921 259.188H-28.3806L-18.6095 208.768ZM-365.593 262.795H-300.988L-325.349 321.51H-393.166L-365.593 262.795ZM-395.977 321.51H-463.705L-432.875 262.795H-368.404L-395.977 321.51ZM-298.311 262.795H-233.573L-254.676 321.51H-322.628L-298.311 262.795ZM-230.985 262.795H-166.157L-184.048 321.51H-252.089L-230.985 262.795ZM-163.703 262.795H-98.7856L-113.42 321.51H-181.55L-163.703 262.795ZM-96.3763 262.795H-31.4146L-42.7472 321.51H-111.011L-96.3763 262.795ZM-97.8933 259.188H-162.588L-147.239 208.768H-85.3114L-97.8933 259.188ZM-165.086 259.188H-229.691L-211.532 208.768H-149.738L-165.086 259.188ZM-232.279 259.188H-296.794L-275.869 208.768H-214.12L-232.279 259.188ZM-299.471 259.188H-363.898L-340.162 208.768H-278.546L-299.471 259.188ZM-366.709 259.188H-430.957L-404.454 208.768H-342.973L-366.709 259.188ZM-433.901 259.188H-498.06L-468.747 208.768H-407.399L-433.901 259.188ZM-501.139 259.188H-565.164L-533.04 208.768H-471.826L-501.139 259.188ZM-500.157 262.795H-435.82L-466.65 321.51H-534.244L-500.157 262.795ZM-465.624 325.117H-397.673L-428.057 389.603H-499.577L-465.624 325.117ZM-394.907 325.117H-326.821L-353.636 389.603H-425.246L-394.907 325.117ZM-324.144 325.117H-255.97L-279.215 389.603H-350.914L-324.144 325.117ZM-253.382 325.117H-185.119L-204.795 389.603H-276.628L-253.382 325.117ZM-182.665 325.117H-114.312L-130.374 389.603H-202.296L-182.665 325.117ZM-111.903 325.117H-43.4611L-55.9537 389.603H-127.965L-111.903 325.117ZM-41.141 325.117H27.3457L18.4224 389.603H-53.6337L-41.141 325.117ZM-40.4271 321.51L-29.0499 262.795H35.9567L27.881 321.51H-40.4271ZM38.2766 262.795H103.328L98.4646 321.51H30.1565L38.2766 262.795ZM105.603 262.795H170.699L169.093 321.51H100.74L105.603 262.795ZM103.64 259.188H38.7675L45.7277 208.768H107.834L103.64 259.188ZM43.9431 205.161H-17.8958L-9.24011 160.583H50.1447L43.9431 205.161ZM-20.2157 205.161H-82.0099L-70.9003 160.583H-11.6047L-20.2157 205.161ZM-84.4191 205.161H-146.124L-132.561 160.583H-73.3096L-84.4191 205.161ZM-148.622 205.161H-210.238L-194.221 160.583H-135.059L-148.622 205.161ZM-212.826 205.161H-274.352L-255.836 160.583H-196.808L-212.826 205.161ZM-277.029 205.161H-338.466L-317.497 160.583H-258.558L-277.029 205.161ZM-341.277 205.161H-402.581L-379.112 160.583H-320.307L-341.277 205.161ZM-405.481 205.161H-466.65L-440.772 160.583H-382.057L-405.481 205.161ZM-469.729 205.161H-530.72L-502.388 160.583H-443.806L-469.729 205.161ZM-533.932 205.161H-594.834L-564.004 160.583H-505.6L-533.932 205.161ZM-598.18 205.161H-658.903L-625.619 160.583H-567.35L-598.18 205.161ZM-597.332 208.768H-536.252L-568.331 259.188H-632.223L-597.332 208.768ZM-567.439 262.795H-503.236L-537.323 321.51H-604.783L-567.439 262.795ZM-536.341 325.117H-468.569L-502.477 389.603H-573.864L-536.341 325.117ZM-501.451 393.21H-429.752L-463.438 464.837H-539.108L-501.451 393.21ZM-426.941 393.21H-355.108L-384.823 464.837H-460.627L-426.941 393.21ZM-352.431 393.21H-280.509L-306.253 464.837H-382.146L-352.431 393.21ZM-277.922 393.21H-205.866L-227.683 464.837H-303.665L-277.922 393.21ZM-203.412 393.21H-131.267L-149.113 464.837H-225.185L-203.412 393.21ZM-128.857 393.21H-56.6675L-70.5433 464.837H-146.704L-128.857 393.21ZM-54.3029 393.21H17.9315L8.02661 464.837H-68.1786L-54.3029 393.21ZM20.2069 393.21H92.5305L86.5966 464.837H10.302L20.2069 393.21ZM20.6976 389.603L29.6656 325.117H98.1969L92.7982 389.603H20.6976ZM100.428 325.117H169.004L167.219 389.603H95.0737L100.428 325.117ZM169.316 393.21H241.684L243.647 464.837H167.353L169.316 393.21ZM509.786 262.795H574.703L592.55 321.51H524.42L509.786 262.795ZM522.011 321.51H453.747L442.415 262.795H507.376L522.011 321.51ZM577.157 262.795H641.985L663.089 321.51H595.048L577.157 262.795ZM644.573 262.795H709.267L733.627 321.51H665.676L644.573 262.795ZM711.988 262.795H776.593L804.211 321.51H736.349L711.988 262.795ZM779.404 262.795H843.875L874.705 321.51H806.977L779.404 262.795ZM818.399 208.768H879.747L909.06 259.188H844.901L818.399 208.768ZM841.957 259.188H777.709L753.973 208.768H815.454L841.957 259.188ZM774.898 259.188H710.471L689.546 208.768H751.162L774.898 259.188ZM707.794 259.188H643.279L625.12 208.768H686.869L707.794 259.188ZM640.691 259.188H576.086L560.738 208.768H622.532L640.691 259.188ZM573.588 259.188H508.893L496.311 208.768H558.239L573.588 259.188ZM506.484 259.188H441.701L431.93 208.768H493.902L506.484 259.188ZM439.381 259.188H374.508L367.548 208.768H429.609L439.381 259.188ZM380.843 321.51H312.535L307.672 262.795H372.723L380.843 321.51ZM375.043 262.795H440.05L451.427 321.51H383.164L375.043 262.795ZM452.141 325.117L464.634 389.603H392.578L383.654 325.117H452.141ZM454.461 325.117H522.903L538.965 389.603H466.954L454.461 325.117ZM525.312 325.117H593.665L613.296 389.603H541.374L525.312 325.117ZM596.119 325.117H664.382L687.628 389.603H615.795L596.119 325.117ZM666.97 325.117H735.144L761.914 389.603H690.215L666.97 325.117ZM737.821 325.117H805.906L836.246 389.603H764.636L737.821 325.117ZM808.673 325.117H876.624L910.577 389.603H839.057L808.673 325.117ZM846.82 262.795H911.157L945.244 321.51H877.65L846.82 262.795ZM882.826 208.768H944.04L976.164 259.188H912.139L882.826 208.768ZM916.6 160.583H975.004L1005.83 205.161H944.932L916.6 160.583ZM941.764 205.161H880.729L854.806 160.583H913.388L941.764 205.161ZM877.65 205.161H816.481L793.057 160.583H851.728L877.65 205.161ZM813.581 205.161H752.277L731.307 160.583H790.112L813.581 205.161ZM749.466 205.161H688.029L669.558 160.583H728.497L749.466 205.161ZM685.352 205.161H623.826L607.808 160.583H666.836L685.352 205.161ZM621.238 205.161H559.622L546.059 160.583H605.221L621.238 205.161ZM557.124 205.161H495.419L484.309 160.583H543.56L557.124 205.161ZM493.01 205.161H431.216L422.605 160.583H481.9L493.01 205.161ZM428.896 205.161H367.057L360.9 160.583H420.24L428.896 205.161ZM372.232 259.188H307.36L303.166 208.768H365.272L372.232 259.188ZM310.26 321.51H241.907L240.301 262.795H305.397L310.26 321.51ZM241.996 325.117H310.572L315.926 389.603H243.781L241.996 325.117ZM312.848 325.117H381.334L390.302 389.603H318.202L312.848 325.117ZM390.793 393.21L400.698 464.837H324.448L318.469 393.21H390.793ZM393.068 393.21H465.347L479.179 464.837H402.973L393.068 393.21ZM467.668 393.21H539.857L557.704 464.837H481.543L467.668 393.21ZM542.267 393.21H614.412L636.185 464.837H560.113L542.267 393.21ZM616.866 393.21H688.922L714.665 464.837H638.683L616.866 393.21ZM691.509 393.21H763.431L793.146 464.837H717.253L691.509 393.21ZM766.108 393.21H837.941L871.627 464.837H795.823L766.108 393.21ZM840.752 393.21H912.451L950.108 464.837H874.438L840.752 393.21ZM879.568 325.117H947.341L984.864 389.603H913.477L879.568 325.117ZM914.236 262.795H978.439L1015.78 321.51H948.323L914.236 262.795ZM947.252 208.768H1008.33L1043.22 259.188H979.332L947.252 208.768ZM978.35 160.583H1036.62L1069.9 205.161H1009.18L978.35 160.583ZM1008.51 118.314H1064.28L1095.33 156.977H1037.42L1008.51 118.314ZM1033.94 156.977H975.851L949.081 118.314H1005.03L1033.94 156.977ZM972.505 156.977H914.28L889.652 118.314H945.735L972.505 156.977ZM911.068 156.977H852.709L830.223 118.314H886.439L911.068 156.977ZM849.675 156.977H791.138L770.793 118.314H827.189L849.675 156.977ZM788.238 156.977H729.612L711.408 118.314H767.893L788.238 156.977ZM726.801 156.977H668.041L651.979 118.314H708.598L726.801 156.977ZM665.364 156.977H606.515L592.594 118.314H649.302L665.364 156.977ZM603.927 156.977H544.943L533.165 118.314H590.006L603.927 156.977ZM542.49 156.977H483.417L473.78 118.314H530.711L542.49 156.977ZM481.008 156.977H421.891L414.395 118.314H471.371L481.008 156.977ZM419.571 156.977H360.364L355.01 118.314H412.075L419.571 156.977ZM364.737 205.161H302.854L299.15 160.583H358.58L364.737 205.161ZM305.084 259.188H240.212L238.784 208.768H300.935L305.084 259.188ZM241.55 389.603H169.45L171.234 325.117H239.766L241.55 389.603ZM170.788 259.188H105.916L110.065 208.768H172.216L170.788 259.188ZM108.146 205.161H46.2631L52.4202 160.583H111.85L108.146 205.161ZM50.6356 156.977H-8.5708L-1.0752 118.314H55.9895L50.6356 156.977ZM-10.8909 156.977H-70.0079L-60.3707 118.314H-3.39526L-10.8909 156.977ZM-72.4172 156.977H-131.49L-119.711 118.314H-62.78L-72.4172 156.977ZM-133.944 156.977H-192.927L-179.006 118.314H-122.165L-133.944 156.977ZM-195.515 156.977H-254.364L-238.302 118.314H-181.594L-195.515 156.977ZM-257.041 156.977H-315.801L-297.598 118.314H-240.979L-257.041 156.977ZM-318.612 156.977H-377.238L-356.893 118.314H-300.408L-318.612 156.977ZM-380.138 156.977H-438.675L-416.189 118.314H-359.793L-380.138 156.977ZM-441.709 156.977H-500.068L-475.44 118.314H-419.223L-441.709 156.977ZM-503.28 156.977H-561.505L-534.735 118.314H-478.652L-503.28 156.977ZM-564.851 156.977H-622.942L-594.031 118.314H-538.081L-564.851 156.977ZM-626.422 156.977H-684.335L-653.282 118.314H-597.511L-626.422 156.977ZM-687.993 156.977H-745.727L-712.577 118.314H-656.94L-687.993 156.977ZM-687.235 160.583H-629.099L-662.428 205.161H-723.017L-687.235 160.583ZM-661.625 208.768H-600.679L-635.569 259.188H-699.281L-661.625 208.768ZM-634.721 262.795H-570.652L-607.996 321.51H-675.322L-634.721 262.795ZM-607.059 325.117H-539.42L-576.943 389.603H-648.151L-607.059 325.117ZM-575.961 393.21H-504.396L-542.008 464.837H-617.588L-575.961 393.21ZM-540.981 468.444H-465.133L-502.12 547.068H-582.341L-540.981 468.444ZM-462.322 468.444H-386.34L-419 547.068H-499.31L-462.322 468.444ZM-383.663 468.444H-307.547L-335.834 547.068H-416.278L-383.663 468.444ZM-304.959 468.444H-228.754L-252.713 547.068H-333.246L-304.959 468.444ZM-226.3 468.444H-150.006L-169.592 547.068H-250.215L-226.3 468.444ZM-147.596 468.444H-71.2126L-86.4716 547.068H-167.183L-147.596 468.444ZM-68.8926 468.444H7.53589L-3.35059 547.068H-84.1068L-68.8926 468.444ZM9.8114 468.444H86.2842L79.7256 547.068H-1.0752L9.8114 468.444ZM88.515 468.444H165.033L162.846 547.068H82.0011L88.515 468.444ZM88.8274 464.837L94.7614 393.21H167.085L165.122 464.837H88.8274ZM167.263 468.444H243.736L245.923 547.068H165.077L167.263 468.444ZM245.878 464.837L243.915 393.21H316.239L322.172 464.837H245.878ZM322.485 468.444L328.999 547.068H248.153L245.967 468.444H322.485ZM324.716 468.444H401.189L412.075 547.068H331.274L324.716 468.444ZM403.464 468.444H479.892L495.151 547.068H414.351L403.464 468.444ZM482.213 468.444H558.596L578.183 547.068H497.471L482.213 468.444ZM561.005 468.444H637.3L661.215 547.068H580.592L561.005 468.444ZM639.754 468.444H715.959L744.246 547.068H663.713L639.754 468.444ZM718.547 468.444H794.663L827.278 547.068H746.834L718.547 468.444ZM797.34 468.444H873.322L910.309 547.068H830L797.34 468.444ZM876.133 468.444H951.981L993.341 547.068H913.12L876.133 468.444ZM915.396 393.21H986.961L1028.54 464.837H953.008L915.396 393.21ZM950.42 325.117H1018.1L1059.15 389.603H987.942L950.42 325.117ZM981.651 262.795H1045.72L1086.32 321.51H1019L981.651 262.795ZM1011.68 208.768H1072.62L1110.28 259.188H1046.57L1011.68 208.768ZM1040.1 160.583H1098.23L1134.02 205.161H1073.43L1040.1 160.583ZM1067.94 118.314H1123.58L1156.73 156.977H1098.99L1067.94 118.314ZM1095.11 80.6607H1148.47L1179.53 114.707H1124.29L1095.11 80.6607ZM1120.45 114.707H1065.04L1037.78 80.6607H1091.32L1120.45 114.707ZM1061.38 114.707H1005.83L980.402 80.6607H1034.12L1061.38 114.707ZM1002.31 114.707H946.583L923.07 80.6607H976.922L1002.31 114.707ZM943.237 114.707H887.376L865.737 80.6607H919.723L943.237 114.707ZM884.164 114.707H828.125L808.36 80.6607H862.525L884.164 114.707ZM825.092 114.707H768.919L751.028 80.6607H805.326L825.092 114.707ZM765.974 114.707H709.713L693.696 80.6607H748.128L765.974 114.707ZM706.902 114.707H650.507L636.363 80.6607H690.885L706.902 114.707ZM647.785 114.707H591.3L579.075 80.6607H633.686L647.785 114.707ZM588.713 114.707H532.094L521.743 80.6607H576.488L588.713 114.707ZM529.595 114.707H472.888L464.411 80.6607H519.244L529.595 114.707ZM470.478 114.707H413.681L407.123 80.6607H462.001L470.478 114.707ZM411.361 114.707H354.52L349.835 80.6607H404.803L411.361 114.707ZM358.089 156.977H298.883L295.67 118.314H352.735L358.089 156.977ZM300.623 205.161H238.695L237.446 160.583H296.919L300.623 205.161ZM239.676 321.51H171.324L172.93 262.795H238.07L239.676 321.51ZM172.305 205.161H110.377L114.08 160.583H173.554L172.305 205.161ZM112.117 156.977H52.9109L58.265 118.314H115.33L112.117 156.977ZM56.4803 114.707H-0.361328L6.24194 80.6607H61.165L56.4803 114.707ZM-2.72595 114.707H-59.4784L-51.0012 80.6607H3.8772L-2.72595 114.707ZM-61.8877 114.707H-118.595L-108.245 80.6607H-53.4105L-61.8877 114.707ZM-121.094 114.707H-177.713L-165.488 80.6607H-110.743L-121.094 114.707ZM-180.3 114.707H-236.785L-222.686 80.6607H-168.075L-180.3 114.707ZM-239.507 114.707H-295.902L-279.885 80.6607H-225.363L-239.507 114.707ZM-298.713 114.707H-354.975L-337.128 80.6607H-282.696L-298.713 114.707ZM-357.919 114.707H-414.092L-394.326 80.6607H-340.028L-357.919 114.707ZM-417.126 114.707H-473.164L-451.525 80.6607H-397.36L-417.126 114.707ZM-476.377 114.707H-532.237L-508.724 80.6607H-454.737L-476.377 114.707ZM-535.583 114.707H-591.309L-565.922 80.6607H-512.07L-535.583 114.707ZM-594.834 114.707H-650.382L-623.121 80.6607H-569.402L-594.834 114.707ZM-654.04 114.707H-709.454L-680.319 80.6607H-626.779L-654.04 114.707ZM-713.291 114.707H-768.526L-737.473 80.6607H-684.112L-713.291 114.707ZM-772.497 114.707H-827.599L-794.672 80.6607H-741.489L-772.497 114.707ZM-771.828 118.314H-716.37L-749.564 156.977H-807.164L-771.828 118.314ZM-748.851 160.583H-690.893L-726.676 205.161H-787.087L-748.851 160.583ZM-725.873 208.768H-665.105L-702.806 259.188H-766.385L-725.873 208.768ZM-702.003 262.795H-638.067L-678.668 321.51H-745.817L-702.003 262.795ZM-677.821 325.117H-610.271L-651.363 389.603H-722.437L-677.821 325.117ZM-650.471 393.21H-579.039L-620.622 464.837H-696.024L-650.471 393.21ZM-619.685 468.444H-543.926L-585.286 547.068H-665.373L-619.685 468.444ZM-584.26 550.674H-503.816L-543.034 634.059H-628.073L-584.26 550.674ZM-501.005 550.674H-420.472L-455.094 634.059H-540.223L-501.005 550.674ZM-417.795 550.674H-337.128L-367.11 634.059H-452.373L-417.795 550.674ZM-334.54 550.674H-253.829L-279.171 634.059H-364.523L-334.54 550.674ZM-251.33 550.674H-170.485L-191.231 634.059H-276.672L-251.33 550.674ZM-168.075 550.674H-87.1854L-103.292 634.059H-188.822L-168.075 550.674ZM-84.8207 550.674H-3.84143L-15.3971 634.059H-100.972L-84.8207 550.674ZM-1.56604 550.674H79.4579L72.5424 634.059H-13.0771L-1.56604 550.674ZM81.6887 550.674H162.757L160.437 634.059H74.7732L81.6887 550.674ZM164.988 550.674H246.012L248.332 634.059H162.668L164.988 550.674ZM248.243 550.674H329.311L336.227 634.059H250.563L248.243 550.674ZM331.542 550.674H412.566L424.122 634.059H338.458L331.542 550.674ZM414.841 550.674H495.821L511.972 634.059H426.397L414.841 550.674ZM498.185 550.674H579.075L599.822 634.059H514.292L498.185 550.674ZM581.485 550.674H662.33L687.672 634.059H602.231L581.485 550.674ZM664.829 550.674H745.54L775.567 634.059H690.171L664.829 550.674ZM748.128 550.674H828.795L863.373 634.059H778.11L748.128 550.674ZM831.472 550.674H912.005L951.223 634.059H866.094L831.472 550.674ZM914.816 550.674H995.26L1039.07 634.059H954.034L914.816 550.674ZM954.926 468.444H1030.64L1076.37 547.068H996.286L954.926 468.444ZM990.039 393.21H1061.47L1107.02 464.837H1031.62L990.039 393.21ZM1021.27 325.117H1088.82L1133.44 389.603H1062.36L1021.27 325.117ZM1049.07 262.795H1113L1156.82 321.51H1089.67L1049.07 262.795ZM1076.1 208.768H1136.87L1177.38 259.188H1113.81L1076.1 208.768ZM1101.89 160.583H1159.85L1198.09 205.161H1137.68L1101.89 160.583ZM1127.37 118.314H1182.83L1218.16 156.977H1160.56L1127.37 118.314ZM1152.49 80.6607H1205.67L1238.6 114.707H1183.5L1152.49 80.6607ZM1149.19 77.0541L1124.56 50.1488H1176.09L1202.19 77.0541H1149.19ZM1145.22 77.0541H1092.03L1068.92 50.1488H1120.59L1145.22 77.0541ZM1088.2 77.0541H1034.88L1013.24 50.1488H1065.08L1088.2 77.0541ZM1031.22 77.0541H977.725L957.603 50.1488H1009.58L1031.22 77.0541ZM974.2 77.0541H920.571L901.922 50.1488H954.078L974.2 77.0541ZM917.225 77.0541H863.417L846.285 50.1488H898.575L917.225 77.0541ZM860.25 77.0541H806.263L790.647 50.1488H843.072L860.25 77.0541ZM803.229 77.0541H749.154L734.966 50.1488H787.569L803.229 77.0541ZM746.209 77.0541H692L679.329 50.1488H732.066L746.209 77.0541ZM689.189 77.0541H634.891L623.692 50.1488H676.518L689.189 77.0541ZM632.214 77.0541H577.737L568.055 50.1488H621.015L632.214 77.0541ZM575.194 77.0541H520.628L512.418 50.1488H565.467L575.194 77.0541ZM518.173 77.0541H463.518L456.826 50.1488H509.964L518.173 77.0541ZM461.109 77.0541H406.409L401.189 50.1488H454.416L461.109 77.0541ZM404.089 77.0541H349.344L345.596 50.1488H398.869L404.089 77.0541ZM352.244 114.707H295.358L292.547 80.6607H347.515L352.244 114.707ZM296.607 156.977H237.356L236.285 118.314H293.395L296.607 156.977ZM237.936 259.188H173.064L174.447 208.768H236.553L237.936 259.188ZM173.644 156.977H114.393L117.605 118.314H174.714L173.644 156.977ZM115.642 114.707H58.7557L63.4852 80.6607H118.453L115.642 114.707ZM61.6559 77.0541H6.91125L12.1313 50.1488H65.4037L61.6559 77.0541ZM4.59119 77.0541H-50.1089L-43.4164 50.1488H9.8114L4.59119 77.0541ZM-52.5182 77.0541H-107.174L-98.9642 50.1488H-45.8257L-52.5182 77.0541ZM-109.628 77.0541H-164.194L-154.467 50.1488H-101.418L-109.628 77.0541ZM-166.737 77.0541H-221.214L-210.015 50.1488H-157.055L-166.737 77.0541ZM-223.891 77.0541H-278.189L-265.518 50.1488H-212.692L-223.891 77.0541ZM-281 77.0541H-335.209L-321.066 50.1488H-268.329L-281 77.0541ZM-338.154 77.0541H-392.229L-376.569 50.1488H-323.966L-338.154 77.0541ZM-395.263 77.0541H-449.205L-432.072 50.1488H-379.648L-395.263 77.0541ZM-452.417 77.0541H-506.225L-487.575 50.1488H-435.285L-452.417 77.0541ZM-509.571 77.0541H-563.201L-543.078 50.1488H-490.922L-509.571 77.0541ZM-566.725 77.0541H-620.221L-598.582 50.1488H-546.603L-566.725 77.0541ZM-623.879 77.0541H-677.196L-654.085 50.1488H-602.24L-623.879 77.0541ZM-681.033 77.0541H-734.216L-709.588 50.1488H-657.922L-681.033 77.0541ZM-738.187 77.0541H-791.192L-765.091 50.1488H-713.559L-738.187 77.0541ZM-795.341 77.0541H-848.167L-820.594 50.1488H-769.24L-795.341 77.0541ZM-798.821 80.6607L-831.748 114.707H-886.671L-851.87 80.6607H-798.821ZM-831.079 118.314H-775.799L-811.135 156.977H-868.557L-831.079 118.314ZM-810.466 160.583H-752.643L-790.879 205.161H-851.157L-810.466 160.583ZM-790.166 208.768H-729.531L-770.043 259.188H-833.444L-790.166 208.768ZM-769.285 262.795H-705.483L-749.341 321.51H-816.356L-769.285 262.795ZM-748.538 325.117H-681.167L-725.828 389.603H-796.769L-748.538 325.117ZM-724.936 393.21H-653.639L-699.237 464.837H-774.505L-724.936 393.21ZM-698.344 468.444H-622.719L-668.407 547.068H-748.36L-698.344 468.444ZM-667.47 550.674H-587.16L-630.973 634.059H-715.879L-667.47 550.674ZM-629.947 637.666H-544.729L-587.829 729.202H-678.088L-629.947 637.666ZM-541.918 637.666H-456.567L-494.58 729.202H-585.018L-541.918 637.666ZM-453.89 637.666H-368.404L-401.376 729.202H-491.903L-453.89 637.666ZM-365.861 637.666H-280.286L-308.172 729.202H-398.788L-365.861 637.666ZM-277.788 637.666H-192.124L-214.968 729.202H-305.673L-277.788 637.666ZM-189.714 637.666H-104.006L-121.763 729.202H-212.558L-189.714 637.666ZM-101.686 637.666H-15.8879L-28.5591 729.202H-119.399L-101.686 637.666ZM-13.6124 637.666H72.23L64.6451 729.202H-26.2836L-13.6124 637.666ZM74.4608 637.666H160.348L157.805 729.202H66.876L74.4608 637.666ZM162.579 637.666H248.421L250.964 729.202H160.036L162.579 637.666ZM250.652 637.666H336.539L344.124 729.202H253.195L250.652 637.666ZM338.77 637.666H424.612L437.284 729.202H346.355L338.77 637.666ZM426.888 637.666H512.686L530.399 729.202H439.559L426.888 637.666ZM515.006 637.666H600.714L623.558 729.202H532.763L515.006 637.666ZM603.124 637.666H688.788L716.673 729.202H625.967L603.124 637.666ZM691.286 637.666H776.861L809.788 729.202H719.172L691.286 637.666ZM779.404 637.666H864.89L902.903 729.202H812.376L779.404 637.666ZM867.567 637.666H952.918L996.018 729.202H905.58L867.567 637.666ZM955.729 637.666H1040.95L1089.09 729.202H998.829L955.729 637.666ZM998.16 550.674H1078.47L1126.88 634.059H1041.97L998.16 550.674ZM1033.72 468.444H1109.34L1159.4 547.068H1079.41L1033.72 468.444ZM1064.64 393.21H1135.94L1185.51 464.837H1110.24L1064.64 393.21ZM1092.17 325.117H1159.54L1207.77 389.603H1136.83L1092.17 325.117ZM1116.48 262.795H1180.28L1227.36 321.51H1160.34L1116.48 262.795ZM1140.53 208.768H1201.17L1244.44 259.188H1181.04L1140.53 208.768ZM1163.64 160.583H1221.47L1262.16 205.161H1201.88L1163.64 160.583ZM1186.8 118.314H1242.08L1279.56 156.977H1222.14L1186.8 118.314ZM1209.82 80.6607H1262.87L1297.67 114.707H1242.75L1209.82 80.6607ZM1206.34 77.0541L1180.24 50.1488H1231.59L1259.17 77.0541H1206.34ZM1210.62 25.4795H1260.46L1283.17 46.5421H1232.22L1210.62 25.4795ZM1227.89 46.5421H1176.76L1156.33 25.4795H1206.34L1227.89 46.5421ZM1172.61 46.5421H1121.26L1102.03 25.4795H1152.18L1172.61 46.5421ZM1117.29 46.5421H1065.8L1047.73 25.4795H1098.06L1117.29 46.5421ZM1062.01 46.5421H1010.34L993.43 25.4795H1043.94L1062.01 46.5421ZM1006.68 46.5421H954.881L939.132 25.4795H989.772L1006.68 46.5421ZM951.401 46.5421H899.423L884.878 25.4795H935.652L951.401 46.5421ZM896.077 46.5421H843.964L830.579 25.4795H881.532L896.077 46.5421ZM840.797 46.5421H788.551L776.281 25.4795H827.367L840.797 46.5421ZM785.472 46.5421H733.092L722.027 25.4795H773.202L785.472 46.5421ZM730.147 46.5421H677.634L667.729 25.4795H719.082L730.147 46.5421ZM674.823 46.5421H622.22L613.475 25.4795H664.918L674.823 46.5421ZM619.498 46.5421H566.761L559.176 25.4795H610.753L619.498 46.5421ZM564.173 46.5421H511.347L504.922 25.4795H556.589L564.173 46.5421ZM508.849 46.5421H455.933L450.669 25.4795H502.424L508.849 46.5421ZM453.524 46.5421H400.519L396.415 25.4795H448.259L453.524 46.5421ZM398.155 46.5421H345.106L342.161 25.4795H394.095L398.155 46.5421ZM347.024 77.0541H292.235L290.004 50.1488H343.321L347.024 77.0541ZM290.272 80.6607L293.127 114.707H236.196L235.259 80.6607H290.272ZM236.464 205.161H174.536L175.785 160.583H235.215L236.464 205.161ZM174.804 114.707H117.873L120.728 80.6607H175.741L174.804 114.707ZM118.765 77.0541H63.976L67.6791 50.1488H120.996L118.765 77.0541ZM65.8944 46.5421H12.8452L16.9054 25.4795H68.8391L65.8944 46.5421ZM10.4806 46.5421H-42.524L-37.2593 25.4795H14.5852L10.4806 46.5421ZM-44.9333 46.5421H-97.8488L-91.424 25.4795H-39.6686L-44.9333 46.5421ZM-100.347 46.5421H-153.173L-145.589 25.4795H-93.9225L-100.347 46.5421ZM-155.761 46.5421H-208.498L-199.753 25.4795H-148.176L-155.761 46.5421ZM-211.22 46.5421H-263.823L-253.918 25.4795H-202.475L-211.22 46.5421ZM-266.634 46.5421H-319.147L-308.082 25.4795H-256.729L-266.634 46.5421ZM-322.092 46.5421H-374.472L-362.247 25.4795H-311.027L-322.092 46.5421ZM-377.551 46.5421H-429.797L-416.367 25.4795H-365.281L-377.551 46.5421ZM-432.965 46.5421H-485.077L-470.532 25.4795H-419.58L-432.965 46.5421ZM-488.423 46.5421H-540.401L-524.652 25.4795H-473.878L-488.423 46.5421ZM-543.882 46.5421H-595.682L-578.772 25.4795H-528.132L-543.882 46.5421ZM-599.34 46.5421H-651.006L-632.936 25.4795H-582.43L-599.34 46.5421ZM-654.799 46.5421H-706.286L-687.056 25.4795H-636.729L-654.799 46.5421ZM-710.257 46.5421H-761.611L-741.176 25.4795H-691.027L-710.257 46.5421ZM-765.76 46.5421H-816.891L-795.296 25.4795H-745.326L-765.76 46.5421ZM-821.219 46.5421H-872.171L-849.461 25.4795H-799.624L-821.219 46.5421ZM-876.677 46.5421H-927.496L-903.581 25.4795H-853.923L-876.677 46.5421ZM-876.097 50.1488H-824.877L-852.495 77.0541H-905.143L-876.097 50.1488ZM-856.198 80.6607L-890.999 114.707H-945.744L-909.069 80.6607H-856.198ZM-890.375 118.314H-835.228L-872.706 156.977H-929.994L-890.375 118.314ZM-872.082 160.583H-814.437L-855.127 205.161H-915.226L-872.082 160.583ZM-854.458 208.768H-794.003L-837.281 259.188H-900.503L-854.458 208.768ZM-836.522 262.795H-772.944L-820.014 321.51H-886.894L-836.522 262.795ZM-819.256 325.117H-752.018L-800.249 389.603H-871.056L-819.256 325.117ZM-799.446 393.21H-728.282L-777.851 464.837H-852.941L-799.446 393.21ZM-777.004 468.444H-701.512L-751.572 547.068H-831.391L-777.004 468.444ZM-750.68 550.674H-670.504L-718.957 634.059H-803.729L-750.68 550.674ZM-717.976 637.666H-632.892L-681.033 729.202H-771.203L-717.976 637.666ZM-682.952 732.808L-734.172 830.259H-829.919L-773.3 732.808H-682.952ZM-680.007 732.808H-589.524L-635.346 830.259H-731.227L-680.007 732.808ZM-586.714 732.808H-496.097L-536.52 830.259H-632.535L-586.714 732.808ZM-493.375 732.808H-402.67L-437.738 830.259H-533.843L-493.375 732.808ZM-400.082 732.808H-309.242L-338.913 830.259H-435.151L-400.082 732.808ZM-306.744 732.808H-215.86L-240.131 830.259H-336.414L-306.744 732.808ZM-213.451 732.808H-122.432L-141.305 830.259H-237.722L-213.451 732.808ZM-120.112 732.808H-29.0499L-42.524 830.259H-138.985L-120.112 732.808ZM-26.7744 732.808H64.3328L56.2572 830.259H-40.2487L-26.7744 732.808ZM66.5636 732.808H157.716L154.994 830.259H58.488L66.5636 732.808ZM159.946 732.808H251.054L253.775 830.259H157.225L159.946 732.808ZM253.284 732.808H344.436L352.512 830.259H256.006L253.284 732.808ZM346.667 732.808H437.774L451.249 830.259H354.787L346.667 732.808ZM440.05 732.808H531.112L549.985 830.259H453.524L440.05 732.808ZM533.432 732.808H624.45L648.722 830.259H552.305L533.432 732.808ZM626.86 732.808H717.744L747.414 830.259H651.131L626.86 732.808ZM720.242 732.808H811.082L846.151 830.259H749.912L720.242 732.808ZM813.67 732.808H904.375L944.843 830.259H848.739L813.67 732.808ZM907.097 732.808H997.713L1043.53 830.259H947.52L907.097 732.808ZM1000.52 732.808H1091.01L1142.23 830.259H1046.35L1000.52 732.808ZM1093.95 732.808H1184.3L1240.92 830.259H1145.17L1093.95 732.808ZM1092.03 729.202L1043.89 637.666H1128.98L1182.2 729.202H1092.03ZM1081.5 550.674H1161.68L1214.73 634.059H1129.96L1081.5 550.674ZM1112.51 468.444H1188L1242.39 547.068H1162.57L1112.51 468.444ZM1139.28 393.21H1210.45L1263.94 464.837H1188.85L1139.28 393.21ZM1163.02 325.117H1230.26L1282.06 389.603H1211.25L1163.02 325.117ZM1183.94 262.795H1247.52L1297.89 321.51H1231.01L1183.94 262.795ZM1205 208.768H1265.46L1311.5 259.188H1248.28L1205 208.768ZM1225.44 160.583H1283.08L1326.23 205.161H1266.13L1225.44 160.583ZM1246.23 118.314H1301.37L1340.99 156.977H1283.71L1246.23 118.314ZM1267.2 80.6607H1320.07L1356.74 114.707H1302L1267.2 80.6607ZM1263.49 77.0541L1235.88 50.1488H1287.1L1316.14 77.0541H1263.49ZM1264.92 25.4795H1314.58L1338.5 46.5421H1287.68L1264.92 25.4795ZM1295.26 4.34479H1343.54L1364.42 21.8729H1315.16L1295.26 4.34479ZM1310.48 21.8729H1261.04L1242.12 4.34479H1290.58L1310.48 21.8729ZM1256.53 21.8729H1206.92L1188.99 4.34479H1237.62L1256.53 21.8729ZM1202.64 21.8729H1152.85L1135.85 4.34479H1184.66L1202.64 21.8729ZM1148.7 21.8729H1098.73L1082.71 4.34479H1131.7L1148.7 21.8729ZM1094.75 21.8729H1044.65L1029.61 4.34479H1078.74L1094.75 21.8729ZM1040.81 21.8729H990.53L976.476 4.34479H1025.78L1040.81 21.8729ZM986.916 21.8729H936.455L923.338 4.34479H972.817L986.916 21.8729ZM932.975 21.8729H882.379L870.244 4.34479H919.857L932.975 21.8729ZM879.033 21.8729H828.259L817.105 4.34479H866.897L879.033 21.8729ZM825.092 21.8729H774.184L764.011 4.34479H813.893L825.092 21.8729ZM771.105 21.8729H720.109L710.873 4.34479H760.933L771.105 21.8729ZM717.164 21.8729H666.033L657.779 4.34479H707.973L717.164 21.8729ZM663.222 21.8729H611.958L604.685 4.34479H654.968L663.222 21.8729ZM609.281 21.8729H557.882L551.591 4.34479H601.964L609.281 21.8729ZM555.295 21.8729H503.807L498.498 4.34479H549.004L555.295 21.8729ZM501.353 21.8729H449.776L445.404 4.34479H495.999L501.353 21.8729ZM447.367 21.8729H395.701L392.31 4.34479H442.995L447.367 21.8729ZM393.381 21.8729H341.67L339.261 4.34479H389.99L393.381 21.8729ZM342.83 46.5421H289.692L287.952 25.4795H339.885L342.83 46.5421ZM290.004 77.0541H235.17L234.412 50.1488H287.729L290.004 77.0541ZM235.125 156.977H175.874L176.945 118.314H234.055L235.125 156.977ZM175.83 77.0541H120.996L123.271 50.1488H176.588L175.83 77.0541ZM121.308 46.5421H68.2146L71.1146 25.4795H123.048L121.308 46.5421ZM69.33 21.8729H17.6193L21.01 4.34479H71.7391L69.33 21.8729ZM15.2544 21.8729H-36.3669L-31.9945 4.34479H18.6901L15.2544 21.8729ZM-38.7762 21.8729H-90.3531L-84.9991 4.34479H-34.4038L-38.7762 21.8729ZM-92.807 21.8729H-144.295L-138.004 4.34479H-87.4977L-92.807 21.8729ZM-146.882 21.8729H-198.281L-191.008 4.34479H-140.592L-146.882 21.8729ZM-200.958 21.8729H-252.222L-243.968 4.34479H-193.685L-200.958 21.8729ZM-255.033 21.8729H-306.164L-296.973 4.34479H-246.779L-255.033 21.8729ZM-309.109 21.8729H-360.15L-349.933 4.34479H-299.873L-309.109 21.8729ZM-363.184 21.8729H-414.092L-402.893 4.34479H-353.011L-363.184 21.8729ZM-417.259 21.8729H-468.033L-455.898 4.34479H-406.105L-417.259 21.8729ZM-471.38 21.8729H-521.975L-508.857 4.34479H-459.244L-471.38 21.8729ZM-525.455 21.8729H-575.872L-561.817 4.34479H-512.338L-525.455 21.8729ZM-579.53 21.8729H-629.813L-614.777 4.34479H-565.476L-579.53 21.8729ZM-633.65 21.8729H-683.755L-667.737 4.34479H-618.614L-633.65 21.8729ZM-687.726 21.8729H-737.696L-720.697 4.34479H-671.708L-687.726 21.8729ZM-741.846 21.8729H-791.638L-773.657 4.34479H-724.847L-741.846 21.8729ZM-795.921 21.8729H-845.535L-826.617 4.34479H-777.985L-795.921 21.8729ZM-850.041 21.8729H-899.476L-879.577 4.34479H-831.124L-850.041 21.8729ZM-904.161 21.8729H-953.418L-932.537 4.34479H-884.262L-904.161 21.8729ZM-958.237 21.8729H-1007.31L-985.497 4.34479H-937.356L-958.237 21.8729ZM-957.701 25.4795H-908.221L-932.136 46.5421H-982.776L-957.701 25.4795ZM-931.556 50.1488H-880.559L-909.649 77.0541H-962.163L-931.556 50.1488ZM-913.531 80.6607L-950.25 114.707H-1004.82L-966.223 80.6607H-913.531ZM-949.626 118.314H-894.702L-934.277 156.977H-991.387L-949.626 118.314ZM-933.653 160.583H-876.231L-919.375 205.161H-979.296L-933.653 160.583ZM-918.706 208.768H-858.429L-904.518 259.188H-967.606L-918.706 208.768ZM-903.804 262.795H-840.359L-890.687 321.51H-957.389L-903.804 262.795ZM-889.973 325.117H-822.914L-874.714 389.603H-945.342L-889.973 325.117ZM-873.956 393.21H-802.971L-856.466 464.837H-931.422L-873.956 393.21ZM-855.663 468.444H-780.35L-834.738 547.068H-914.423L-855.663 468.444ZM-833.89 550.674H-753.892L-806.941 634.059H-891.535L-833.89 550.674ZM-806.004 637.666H-721.054L-774.282 729.202H-864.318L-806.004 637.666ZM-776.379 732.808L-832.998 830.259H-928.611L-866.594 732.808H-776.379ZM-832.016 833.865H-736.046L-791.638 939.539H-893.453L-832.016 833.865ZM-733.145 833.865H-637.041L-686.744 939.539H-788.693L-733.145 833.865ZM-634.23 833.865H-538.037L-581.895 939.539H-683.933L-634.23 833.865ZM-535.36 833.865H-439.032L-477.046 939.539H-579.218L-535.36 833.865ZM-436.445 833.865H-340.028L-372.197 939.539H-474.458L-436.445 833.865ZM-337.529 833.865H-241.024L-267.347 939.539H-369.698L-337.529 833.865ZM-238.614 833.865H-142.019L-162.498 939.539H-264.938L-238.614 833.865ZM-139.699 833.865H-43.0594L-57.649 939.539H-160.134L-139.699 833.865ZM-40.7394 833.865H55.9449L47.1555 939.539H-55.3737L-40.7394 833.865ZM58.1758 833.865H154.905L151.96 939.539H49.4308L58.1758 833.865ZM157.135 833.865H253.864L256.765 939.539H154.235L157.135 833.865ZM256.095 833.865H352.824L361.569 939.539H259.04L256.095 833.865ZM355.055 833.865H451.739L466.374 939.539H363.844L355.055 833.865ZM454.059 833.865H550.699L571.134 939.539H468.649L454.059 833.865ZM553.019 833.865H649.614L675.938 939.539H573.498L553.019 833.865ZM652.024 833.865H748.529L780.698 939.539H678.347L652.024 833.865ZM751.028 833.865H847.445L885.458 939.539H783.197L751.028 833.865ZM850.032 833.865H946.315L990.218 939.539H888.046L850.032 833.865ZM949.037 833.865H1045.23L1094.93 939.539H992.895L949.037 833.865ZM1048.04 833.865H1144.15L1199.69 939.539H1097.74L1048.04 833.865ZM1147.05 833.865H1243.02L1304.45 939.539H1202.64L1147.05 833.865ZM1187.38 732.808H1277.59L1339.61 830.259H1244L1187.38 732.808ZM1185.28 729.202L1132.05 637.666H1217L1275.32 729.202H1185.28ZM1164.89 550.674H1244.89L1302.53 634.059H1217.94L1164.89 550.674ZM1191.35 468.444H1266.66L1325.42 547.068H1245.74L1191.35 468.444ZM1213.93 393.21H1284.96L1342.42 464.837H1267.42L1213.93 393.21ZM1233.91 325.117H1300.97L1356.34 389.603H1285.71L1233.91 325.117ZM1251.36 262.795H1314.8L1368.39 321.51H1301.69L1251.36 262.795ZM1269.43 208.768H1329.71L1378.61 259.188H1315.52L1269.43 208.768ZM1287.23 160.583H1344.7L1390.3 205.161H1330.38L1287.23 160.583ZM1305.7 118.314H1360.63L1402.39 156.977H1345.28L1305.7 118.314ZM1324.53 80.6607H1377.22L1415.82 114.707H1361.21L1324.53 80.6607ZM1320.65 77.0541L1291.56 50.1488H1342.56L1373.16 77.0541H1320.65ZM1319.22 25.4795H1368.7L1393.78 46.5421H1343.14L1319.22 25.4795ZM1348.36 4.34479H1396.5L1418.31 21.8729H1369.24L1348.36 4.34479ZM1344.07 0.73818L1326 -14.4817H1373.07L1391.99 0.73818H1344.07ZM1339.25 0.73818H1291.16L1273.89 -14.4817H1321.18L1339.25 0.73818ZM1286.47 0.73818H1238.2L1221.82 -14.4817H1269.25L1286.47 0.73818ZM1233.74 0.73818H1185.28L1169.71 -14.4817H1217.32L1233.74 0.73818ZM1180.95 0.73818H1132.37L1117.64 -14.4817H1165.43L1180.95 0.73818ZM1128.22 0.73818H1079.45L1065.53 -14.4817H1113.49L1128.22 0.73818ZM1075.44 0.73818H1026.49L1013.46 -14.4817H1061.56L1075.44 0.73818ZM1022.7 0.73818H973.576L961.396 -14.4817H1009.67L1022.7 0.73818ZM969.917 0.73818H920.661L909.283 -14.4817H957.737L969.917 0.73818ZM917.136 0.73818H867.745L857.216 -14.4817H905.803L917.136 0.73818ZM864.399 0.73818H814.83L805.148 -14.4817H853.869L864.399 0.73818ZM811.617 0.73818H761.914L753.08 -14.4817H801.936L811.617 0.73818ZM758.836 0.73818H708.999L701.013 -14.4817H750.002L758.836 0.73818ZM706.054 0.73818H656.084L648.945 -14.4817H698.068L706.054 0.73818ZM653.273 0.73818H603.168L596.877 -14.4817H646.134L653.273 0.73818ZM600.491 0.73818H550.298L544.81 -14.4817H594.2L600.491 0.73818ZM547.71 0.73818H497.382L492.787 -14.4817H542.222L547.71 0.73818ZM494.884 0.73818H444.511L440.719 -14.4817H490.288L494.884 0.73818ZM442.102 0.73818H391.641L388.696 -14.4817H438.31L442.102 0.73818ZM389.276 0.73818H338.77L336.673 -14.4817H386.331L389.276 0.73818ZM336.985 4.34479L339.395 21.8729H287.639L286.212 4.34479H336.985ZM287.461 46.5421H234.322L233.742 25.4795H285.676L287.461 46.5421ZM233.608 21.8729L233.118 4.34479H283.936L285.408 21.8729H233.608ZM233.965 114.707H177.035L177.971 80.6607H233.029L233.965 114.707ZM177.391 21.8729H125.592L127.064 4.34479H177.882L177.391 21.8729ZM177.258 25.4795L176.678 46.5421H123.539L125.324 25.4795H177.258ZM123.361 21.8729H71.6053L74.0146 4.34479H124.788L123.361 21.8729ZM72.23 0.73818H21.7239L24.6686 -14.4817H74.327L72.23 0.73818ZM19.3593 0.73818H-31.1022L-27.3098 -14.4817H22.304L19.3593 0.73818ZM-33.5116 0.73818H-83.8837L-79.2882 -14.4817H-29.7191L-33.5116 0.73818ZM-86.3822 0.73818H-136.71L-131.222 -14.4817H-81.7422L-86.3822 0.73818ZM-139.298 0.73818H-189.491L-183.2 -14.4817H-133.81L-139.298 0.73818ZM-192.168 0.73818H-242.273L-235.134 -14.4817H-185.877L-192.168 0.73818ZM-245.084 0.73818H-295.054L-287.068 -14.4817H-237.945L-245.084 0.73818ZM-297.999 0.73818H-347.836L-339.002 -14.4817H-290.013L-297.999 0.73818ZM-350.914 0.73818H-400.617L-390.936 -14.4817H-342.08L-350.914 0.73818ZM-403.83 0.73818H-453.399L-442.869 -14.4817H-394.148L-403.83 0.73818ZM-456.745 0.73818H-506.136L-494.803 -14.4817H-446.216L-456.745 0.73818ZM-509.661 0.73818H-558.917L-546.737 -14.4817H-498.283L-509.661 0.73818ZM-562.576 0.73818H-611.699L-598.671 -14.4817H-550.396L-562.576 0.73818ZM-615.491 0.73818H-664.436L-650.56 -14.4817H-602.463L-615.491 0.73818ZM-668.451 0.73818H-717.217L-702.494 -14.4817H-654.531L-668.451 0.73818ZM-721.367 0.73818H-769.954L-754.428 -14.4817H-706.643L-721.367 0.73818ZM-774.282 0.73818H-822.736L-806.317 -14.4817H-758.711L-774.282 0.73818ZM-827.197 0.73818H-875.473L-858.251 -14.4817H-810.823L-827.197 0.73818ZM-880.157 0.73818H-928.254L-910.184 -14.4817H-862.891L-880.157 0.73818ZM-933.073 0.73818H-980.991L-962.074 -14.4817H-915.003L-933.073 0.73818ZM-986.033 0.73818H-1033.77L-1014.01 -14.4817H-967.071L-986.033 0.73818ZM-990.494 4.34479L-1012.36 21.8729H-1061.26L-1038.46 4.34479H-990.494ZM-1011.82 25.4795H-962.52L-987.594 46.5421H-1038.06L-1011.82 25.4795ZM-987.059 50.1488H-936.241L-966.803 77.0541H-1019.14L-987.059 50.1488ZM-970.908 80.6607L-1009.46 114.707H-1063.89L-1023.42 80.6607H-970.908ZM-1008.88 118.314H-954.132L-995.893 156.977H-1052.78L-1008.88 118.314ZM-995.268 160.583H-937.981L-983.623 205.161H-1043.37L-995.268 160.583ZM-982.999 208.768H-922.856L-971.711 259.188H-1034.66L-982.999 208.768ZM-971.086 262.795H-907.775L-961.36 321.51H-1027.93L-971.086 262.795ZM-960.69 325.117H-893.81L-949.135 389.603H-1019.63L-960.69 325.117ZM-948.421 393.21H-877.614L-935.08 464.837H-1009.86L-948.421 393.21ZM-934.277 468.444H-859.143L-917.903 547.068H-997.41L-934.277 468.444ZM-917.1 550.674H-837.236L-894.881 634.059H-979.385L-917.1 550.674ZM-894.033 637.666H-809.217L-867.486 729.202H-957.389L-894.033 637.666ZM-869.806 732.808L-931.823 830.259H-1027.3L-959.887 732.808H-869.806ZM-930.931 833.865H-835.095L-896.487 939.539H-998.168L-930.931 833.865ZM-895.55 943.146H-793.512L-852.807 1055.82H-961.047L-895.55 943.146ZM-790.612 943.146H-688.44L-741.489 1055.82H-849.863L-790.612 943.146ZM-685.629 943.146H-583.412L-630.17 1055.82H-738.678L-685.629 943.146ZM-580.69 943.146H-478.34L-518.896 1055.82H-627.493L-580.69 943.146ZM-475.752 943.146H-373.267L-407.578 1055.82H-516.308L-475.752 943.146ZM-370.769 943.146H-268.24L-296.304 1055.82H-405.124L-370.769 943.146ZM-265.831 943.146H-163.212L-185.03 1055.82H-293.894L-265.831 943.146ZM-160.847 943.146H-58.1399L-73.7557 1055.82H-182.665L-160.847 943.146ZM-55.8645 943.146H46.8878L37.5183 1055.82H-71.4803L-55.8645 943.146ZM49.1187 943.146H151.871L148.748 1055.82H39.7491L49.1187 943.146ZM154.102 943.146H256.898L260.022 1055.82H150.978L154.102 943.146ZM259.129 943.146H361.881L371.251 1055.82H262.252L259.129 943.146ZM364.157 943.146H466.864L482.48 1055.82H373.482L364.157 943.146ZM469.14 943.146H571.847L593.71 1055.82H484.756L469.14 943.146ZM574.167 943.146H676.83L704.894 1055.82H596.03L574.167 943.146ZM679.24 943.146H781.769L816.124 1055.82H707.304L679.24 943.146ZM784.267 943.146H886.752L927.308 1055.82H818.578L784.267 943.146ZM889.34 943.146H991.69L1038.49 1055.82H929.896L889.34 943.146ZM994.412 943.146H1096.63L1149.68 1055.82H1041.17L994.412 943.146ZM1099.44 943.146H1201.61L1260.86 1055.82H1152.49L1099.44 943.146ZM1204.51 943.146H1306.55L1372.05 1055.82H1263.81L1204.51 943.146ZM1246.09 833.865H1341.93L1409.17 939.539H1307.49L1246.09 833.865ZM1280.81 732.808H1370.89L1438.3 830.259H1342.82L1280.81 732.808ZM1278.49 729.202L1220.22 637.666H1305.03L1368.39 729.202H1278.49ZM1248.24 550.674H1328.1L1390.38 634.059H1305.88L1248.24 550.674ZM1270.14 468.444H1345.28L1408.41 547.068H1328.9L1270.14 468.444ZM1288.61 393.21H1359.42L1420.86 464.837H1346.08L1288.61 393.21ZM1304.81 325.117H1371.69L1430.63 389.603H1360.13L1304.81 325.117ZM1318.78 262.795H1382.09L1438.93 321.51H1372.36L1318.78 262.795ZM1333.86 208.768H1394L1445.66 259.188H1382.76L1333.86 208.768ZM1348.98 160.583H1406.27L1454.36 205.161H1394.62L1348.98 160.583ZM1365.13 118.314H1419.88L1463.78 156.977H1406.89L1365.13 118.314ZM1381.91 80.6607H1434.42L1474.89 114.707H1420.46L1381.91 80.6607ZM1377.8 77.0541L1347.24 50.1488H1398.06L1430.14 77.0541H1377.8ZM1373.52 25.4795H1422.82L1449.06 46.5421H1398.59L1373.52 25.4795ZM1401.49 4.34479H1449.46L1472.26 21.8729H1423.36L1401.49 4.34479ZM1397.03 0.73818L1378.07 -14.4817H1425.01L1444.77 0.73818H1397.03ZM1408.19 -27.3934L1420.32 -18.0883H1373.61L1362.01 -27.3934H1408.19ZM1356.97 -27.3934L1368.57 -18.0883H1321.72L1310.61 -27.3934H1356.97ZM1305.79 -27.3934L1316.86 -18.0883H1269.83L1259.26 -27.3934H1305.79ZM1254.57 -27.3934L1265.15 -18.0883H1217.94L1207.86 -27.3934H1254.57ZM1203.4 -27.3934L1213.44 -18.0883H1166.05L1156.5 -27.3934H1203.4ZM1152.18 -27.3934L1161.72 -18.0883H1114.16L1105.11 -27.3934H1152.18ZM1100.96 -27.3934L1110.01 -18.0883H1062.27L1053.75 -27.3934H1100.96ZM1049.78 -27.3934L1058.26 -18.0883H1010.38L1002.4 -27.3934H1049.78ZM998.561 -27.3934L1006.55 -18.0883H958.495L951 -27.3934H998.561ZM947.341 -27.3934L954.837 -18.0883H906.606L899.646 -27.3934H947.341ZM896.166 -27.3934L903.126 -18.0883H854.717L848.292 -27.3934H896.166ZM844.946 -27.3934L851.371 -18.0883H802.828L796.938 -27.3934H844.946ZM793.726 -27.3934L799.66 -18.0883H750.983L745.54 -27.3934H793.726ZM742.506 -27.3934L747.905 -18.0883H699.094L694.186 -27.3934H742.506ZM691.286 -27.3934L696.194 -18.0883H647.25L642.877 -27.3934H691.286ZM640.066 -27.3934L644.439 -18.0883H595.36L591.523 -27.3934H640.066ZM588.802 -27.3934L592.683 -18.0883H543.516L540.17 -27.3934H588.802ZM537.582 -27.3934L540.928 -18.0883H491.671L488.816 -27.3934H537.582ZM486.362 -27.3934L489.173 -18.0883H439.827L437.507 -27.3934H486.362ZM435.097 -27.3934L437.417 -18.0883H387.982L386.198 -27.3934H435.097ZM383.833 -27.3934L385.662 -18.0883H336.138L334.844 -27.3934H383.833ZM336.45 0.73818H285.899L284.65 -14.4817H334.353L336.45 0.73818ZM332.568 -27.3934L333.862 -18.0883H284.338L283.579 -27.3934H332.568ZM283.624 0.73818H233.029L232.627 -14.4817H282.375L283.624 0.73818ZM281.304 -27.3934L282.062 -18.0883H232.538L232.27 -27.3934H281.304ZM180.961 -27.3934H230.039L230.262 -18.0883H180.738L180.961 -27.3934ZM180.604 -14.4817H230.396L230.798 0.73818H180.202L180.604 -14.4817ZM180.113 4.34479H230.887L231.378 21.8729H179.622L180.113 4.34479ZM179.489 25.4795H231.511L232.091 46.5421H178.908L179.489 25.4795ZM232.181 50.1488L232.939 77.0541H178.061L178.819 50.1488H232.181ZM129.696 -27.3934H178.73L178.462 -18.0883H128.938L129.696 -27.3934ZM178.373 -14.4817L177.971 0.73818H127.376L128.625 -14.4817H178.373ZM78.4316 -27.3934H127.421L126.662 -18.0883H77.1378L78.4316 -27.3934ZM126.35 -14.4817L125.101 0.73818H74.55L76.647 -14.4817H126.35ZM27.1671 -27.3934H76.1562L74.8624 -18.0883H25.3379L27.1671 -27.3934ZM-24.0974 -27.3934H24.8025L23.0178 -18.0883H-26.4175L-24.0974 -27.3934ZM-26.5067 -27.3934L-28.8268 -18.0883H-78.1729L-75.3619 -27.3934H-26.5067ZM-77.8158 -27.3934L-80.6713 -18.0883H-129.928L-126.582 -27.3934H-77.8158ZM-129.17 -27.3934L-132.516 -18.0883H-181.683L-177.802 -27.3934H-129.17ZM-180.523 -27.3934L-184.36 -18.0883H-233.439L-229.066 -27.3934H-180.523ZM-231.833 -27.3934L-236.25 -18.0883H-285.194L-280.286 -27.3934H-231.833ZM-283.186 -27.3934L-288.094 -18.0883H-336.905L-331.506 -27.3934H-283.186ZM-334.54 -27.3934L-339.983 -18.0883H-388.66L-382.726 -27.3934H-334.54ZM-385.939 -27.3934L-391.828 -18.0883H-440.371L-433.946 -27.3934H-385.939ZM-437.292 -27.3934L-443.717 -18.0883H-492.126L-485.166 -27.3934H-437.292ZM-488.646 -27.3934L-495.606 -18.0883H-543.837L-536.341 -27.3934H-488.646ZM-540 -27.3934L-547.495 -18.0883H-595.548L-587.561 -27.3934H-540ZM-591.398 -27.3934L-599.385 -18.0883H-647.303L-638.781 -27.3934H-591.398ZM-642.752 -27.3934L-651.274 -18.0883H-699.014L-689.956 -27.3934H-642.752ZM-694.106 -27.3934L-703.163 -18.0883H-750.724L-741.176 -27.3934H-694.106ZM-745.504 -27.3934L-755.052 -18.0883H-802.435L-792.396 -27.3934H-745.504ZM-796.858 -27.3934L-806.941 -18.0883H-854.146L-843.572 -27.3934H-796.858ZM-848.256 -27.3934L-858.831 -18.0883H-905.857L-894.792 -27.3934H-848.256ZM-899.61 -27.3934L-910.72 -18.0883H-957.567L-945.967 -27.3934H-899.61ZM-951.009 -27.3934L-962.609 -18.0883H-1009.32L-997.187 -27.3934H-951.009ZM-1002.36 -27.3934L-1014.5 -18.0883H-1061.03L-1048.36 -27.3934H-1002.36ZM-1112.7 -18.0883L-1099.58 -27.3934H-1053.76L-1066.39 -18.0883H-1112.7ZM-1065.9 -14.4817H-1019.18L-1038.95 0.73818H-1086.51L-1065.9 -14.4817ZM-1115.2 21.8729L-1091.42 4.34479H-1043.63L-1066.43 21.8729H-1115.2ZM-1093.34 46.5421L-1065.94 25.4795H-1016.82L-1043.1 46.5421H-1093.34ZM-1042.56 50.1488H-991.922L-1023.96 77.0541H-1076.11L-1042.56 50.1488ZM-1122.92 114.707L-1080.62 80.6607H-1028.24L-1068.71 114.707H-1122.92ZM-1114.22 156.977L-1068.17 118.314H-1013.56L-1057.46 156.977H-1114.22ZM-1107.43 205.161L-1056.88 160.583H-999.775L-1047.87 205.161H-1107.43ZM-1101.72 259.188L-1047.29 208.768H-987.327L-1038.95 259.188H-1101.72ZM-1098.42 321.51L-1038.37 262.795H-975.235L-1032.03 321.51H-1098.42ZM-1093.92 389.603L-1031.41 325.117H-964.661L-1023.6 389.603H-1093.92ZM-1088.29 464.837L-1022.93 393.21H-952.258L-1013.7 464.837H-1088.29ZM-1080.4 547.068L-1012.94 468.444H-937.936L-1001.07 547.068H-1080.4ZM-1067.19 634.059L-1000.31 550.674H-920.58L-982.865 634.059H-1067.19ZM-982.062 637.666H-897.379L-960.735 729.202H-1050.5L-982.062 637.666ZM-1126 830.259L-1053.18 732.808H-963.234L-1030.65 830.259H-1126ZM-1102.93 939.539L-1029.8 833.865H-934.099L-1001.38 939.539H-1102.93ZM-1072.23 1055.82L-1000.49 943.146H-898.584L-964.081 1055.82H-1072.23ZM-917.68 1179.23H-1032.75L-963.144 1059.42H-854.681L-917.68 1179.23ZM-799.535 1179.23H-914.735L-851.737 1059.42H-743.184L-799.535 1179.23ZM-681.39 1179.23H-796.724L-740.373 1059.42H-631.687L-681.39 1179.23ZM-563.245 1179.23H-678.713L-629.01 1059.42H-520.19L-563.245 1179.23ZM-445.145 1179.23H-560.702L-517.602 1059.42H-408.693L-445.145 1179.23ZM-327.045 1179.23H-442.646L-406.195 1059.42H-297.196L-327.045 1179.23ZM-208.944 1179.23H-324.635L-294.787 1059.42H-185.744L-208.944 1179.23ZM-90.8439 1179.23H-206.58L-183.379 1059.42H-74.2465L-90.8439 1179.23ZM27.2563 1179.23H-88.5238L-71.9711 1059.42H37.2059L27.2563 1179.23ZM145.357 1179.23H29.5319L39.4368 1059.42H148.658L145.357 1179.23ZM147.588 1179.23L150.889 1059.42H260.111L263.412 1179.23H147.588ZM265.643 1179.23L262.342 1059.42H371.563L381.468 1179.23H265.643ZM383.744 1179.23L373.794 1059.42H482.971L499.524 1179.23H383.744ZM501.844 1179.23L485.247 1059.42H594.379L617.579 1179.23H501.844ZM619.944 1179.23L596.744 1059.42H705.787L735.635 1179.23H619.944ZM738.044 1179.23L708.196 1059.42H817.194L853.646 1179.23H738.044ZM856.145 1179.23L819.693 1059.42H928.602L971.702 1179.23H856.145ZM974.245 1179.23L931.19 1059.42H1039.97L1089.71 1179.23H974.245ZM1092.39 1179.23L1042.69 1059.42H1151.37L1207.72 1179.23H1092.39ZM1210.53 1179.23L1154.18 1059.42H1262.74L1325.74 1179.23H1210.53ZM1443.75 1179.23H1328.68L1265.68 1059.42H1374.14L1443.75 1179.23ZM1483.23 1055.82H1375.08L1309.58 943.146H1411.49L1483.23 1055.82ZM1513.93 939.539H1412.38L1345.1 833.865H1440.8L1513.93 939.539ZM1537 830.259H1441.65L1374.23 732.808H1464.18L1537 830.259ZM1461.5 729.202H1371.74L1308.38 637.666H1393.06L1461.5 729.202ZM1478.19 634.059H1393.86L1331.58 550.674H1411.31L1478.19 634.059ZM1491.4 547.068H1412.07L1348.94 468.444H1423.94L1491.4 547.068ZM1499.29 464.837H1424.7L1363.26 393.21H1433.93L1499.29 464.837ZM1504.92 389.603H1434.6L1375.66 325.117H1442.41L1504.92 389.603ZM1509.42 321.51H1443.08L1386.24 262.795H1449.37L1509.42 321.51ZM1512.72 259.188H1449.95L1398.33 208.768H1458.29L1512.72 259.188ZM1518.43 205.161H1458.87L1410.77 160.583H1467.88L1518.43 205.161ZM1525.22 156.977H1468.46L1424.56 118.314H1479.17L1525.22 156.977ZM1533.92 114.707H1479.71L1439.24 80.6607H1491.62L1533.92 114.707ZM1487.11 77.0541H1434.96L1402.92 50.1488H1453.56L1487.11 77.0541ZM1504.38 46.5421H1454.1L1427.82 25.4795H1476.94L1504.38 46.5421ZM1526.2 21.8729H1477.48L1454.63 4.34479H1502.42L1526.2 21.8729ZM1497.51 0.73818H1449.95L1430.18 -14.4817H1476.9L1497.51 0.73818ZM1523.7 -18.0883H1477.39L1464.76 -27.3934H1510.58L1523.7 -18.0883Z" fill="#B5A5FF"/>
</svg>
