<svg xmlns="http://www.w3.org/2000/svg" width="837" height="827" fill="none"><g clip-path="url(#a)"><path fill="#fff" d="M.242 842c4.288-7.945 7.877-15.372 12.174-22.371 9.91-16.17 23.251-29.32 37.53-41.592 6.46-5.553 6.46-5.613 2.243-13.13-4.986-8.882-5.155-18.104-1.476-27.346 9.462-23.756 20.02-46.995 34-68.499 21.516-33.088 43.182-66.067 64.659-99.175 1.934-2.981 3.39-6.48 4.167-9.939 4.008-17.746 12.384-33.577 21.467-49.009 7.468-12.691 15.883-24.824 23.889-37.206.967-1.495 1.964-2.981 3.37-5.104-2.632-1.017-4.646-2.124-6.79-2.562-29.134-6.042-55.486-18.783-80.771-33.876-11.476-6.859-22.414-14.655-33.312-22.421-7.089-5.055-15.065-6.799-23.34-7.547-10.709-.967-20.82-3.469-30.38-8.594-3.86-2.073-8.406-2.931-12.703-4.117-6.352-1.745-11.496-4.835-12.314-11.963-.897-7.786.758-15.064 7.328-20.019 3.79-2.861 8.455-4.546 12.444-7.177 1.645-1.077 3.39-3.141 3.669-4.975 3.2-20.487 10.23-39.319 25.215-54.044 16.202-15.931 33.043-31.214 49.863-46.497 6.959-6.32 11.685-13.837 15.105-22.441 2.274-5.712 1.486-10.577-2.771-15.083-7-7.418-12.065-16.031-12.982-26.31-1.147-12.78-1.715-25.611-2.233-38.441-.25-6.111.458-12.253.289-18.374-.599-21.763 9.372-37.714 26.79-49.767 14.298-9.89 28.636-19.729 42.744-29.888 11.147-8.015 24.019-11.425 37.071-13.488 32.175-5.095 63.602-13.11 95.059-21.414 45.655-12.053 91.659-13.25 137.763-1.087 21.815 5.752 38.785 18.483 53.522 34.574 17.478 19.08 30.091 41.213 37.668 66.007 2.174 7.108 3.33 14.535 4.966 21.803.508 2.233 1.086 4.446 1.894 7.746 2.283-2.632 3.978-4.496 5.574-6.441 10.229-12.401 21.656-23.408 36.751-29.718 14.527-6.081 29.383-6.979 43.99-.489 12.712 5.643 20.24 16.43 25.375 28.792 10.22 24.584 9.033 49.547 1.167 74.461-4.577 14.475-10.739 28.143-21.008 39.688-13.411 15.073-31.328 21.354-50.122 25.362-8.804 1.884-18.077 1.545-27.718 2.253 1.316 6.211 2.811 12.751 4.078 19.33 4.895 25.382 9.781 50.764 14.447 76.186.339 1.824-1.047 3.978-1.635 5.972-1.685-1.187-4.048-2.004-4.926-3.629-5.454-10.019-10.579-20.208-16.451-31.593-2.662 7.836-4.347 14.685-7.259 20.955-5.055 10.907-3.788 21.963-1.884 33.089.289 1.714 2.064 3.798 3.689 4.566 12.373 5.862 23.261 13.309 30.46 25.421.808 1.356 3.579 1.845 5.524 2.154 22.005 3.519 44.618 4.566 63.741 18.413 15.465 11.206 29.862 23.608 39.952 39.818 14.168 22.78 27.24 46.237 40.55 69.546 2.184 3.828 3.739 8.205 4.647 12.531 1.645 7.876 5.563 14.316 10.349 20.607 29.543 38.88 56.603 79.495 80.652 121.925 12.772 22.54 22.603 46.756 33.67 70.264 2.712 5.762 1.007 11.474-1.366 16.838-2.403 5.443-5.334 10.647-8.265 16.429 6.76 8.664 14.327 17.606 13.769 30.576H.242zm687.788-53.206c.508-.17.897-.18 1.107-.389 2.303-2.153 4.596-4.307 6.849-6.51 14.667-14.366 29.822-27.665 52.465-26.14 3.39.23 4.108-2.552 3.4-5.243-.668-2.533-1.655-5.085-3.041-7.298-3.28-5.214-7.009-10.139-10.289-15.353-1.067-1.685-2.403-4.964-1.705-5.692 3.4-3.569 1.136-7.746 1.954-11.505.14-.658-.299-1.724-.828-2.203a570 570 0 0 0-13.49-11.604c-.568-.479-1.595-.399-2.841-.668 2.084 3.589 3.858 6.649 5.623 9.71-.459.439-.907.887-1.366 1.326-1.964-.947-4.357-1.466-5.803-2.921-4.427-4.476-8.285-9.511-12.742-13.957-13.72-13.708-27.519-27.346-41.497-40.785-3.959-3.798-8.645-6.839-12.992-10.228l-1.107.897c11.087 49.757 12.942 101.747 36.323 148.553zm-448.206-21.315c3.051-9.71 5.394-19.181 9.073-28.083 2.084-5.045 1.177-8.065-2.093-11.794-12.563-14.306-17.09-30.446-10.021-48.81 4.597-11.923 5.604-24.425 7.01-36.976.827-7.397-1.327-13.608-3.55-20.118-1.057-3.081-3.031-3.25-5.354-1.446-1.027.808-1.865 1.885-2.722 2.891-13.789 16.34-27.599 32.67-41.328 49.06-1.924 2.302-3.559 3.937-6.062.677 1.127-1.635 2.443-3.16 3.3-4.914.529-1.087.349-2.513.479-3.789-1.047.598-2.423.957-3.081 1.845-5.185 7.078-10.3 14.206-15.245 21.444-.848 1.236-.728 3.12-1.067 4.705.578.189 1.157.389 1.745.578 3.22-4.745 6.391-9.53 9.681-14.226 1.376-1.974 2.852-4.347 6.082-1.406-4.935 6.48-9.801 12.871-15.045 19.75 2.492 5.303-4.776 3.599-8.116 7.586 1.087.24 2.173.469 3.25.708-.399.618-.628 1.067-.927 1.456-6.591 8.613-7.518 12.252 4.566 15.622 18.476 5.154 34.638 14.664 48.796 27.694 6.76 6.231 13.999 11.934 20.619 17.526zm447.548-109.961c-4.736-4.058-8.645-7.418-13.42-11.505.358 6.929 6.47 11.874 13.42 11.505m-474.578-24.834c-3.061 3.709-6.042 7.328-9.671 11.714 6.56-1.426 12.014-8.454 9.671-11.714"/></g><g clip-path="url(#b)"><path fill="#000" d="M14.16 842c4.287-7.945 7.876-15.372 12.174-22.371 9.91-16.17 23.251-29.32 37.529-41.592 6.46-5.553 6.46-5.613 2.243-13.13-4.985-8.882-5.155-18.104-1.475-27.346 9.462-23.756 20.02-46.995 34-68.499 21.515-33.088 43.181-66.067 64.658-99.175 1.934-2.981 3.39-6.48 4.168-9.939 4.008-17.746 12.383-33.577 21.466-49.009 7.468-12.691 15.883-24.824 23.89-37.206.967-1.495 1.964-2.981 3.37-5.104-2.632-1.017-4.647-2.124-6.79-2.562-29.134-6.042-55.486-18.783-80.772-33.876-11.476-6.859-22.413-14.655-33.311-22.421-7.09-5.055-15.066-6.799-23.341-7.547-10.708-.967-20.819-3.469-30.38-8.594-3.859-2.073-8.405-2.931-12.703-4.117-6.351-1.745-11.496-4.835-12.313-11.963-.898-7.786.757-15.064 7.328-20.019 3.789-2.861 8.455-4.546 12.443-7.177 1.645-1.077 3.39-3.141 3.67-4.975 3.2-20.487 10.229-39.319 25.215-54.044 16.202-15.931 33.042-31.214 49.862-46.497 6.96-6.32 11.686-13.837 15.106-22.441 2.273-5.712 1.485-10.577-2.772-15.083-6.999-7.418-12.064-16.031-12.982-26.31-1.146-12.78-1.715-25.611-2.233-38.441-.249-6.111.459-12.253.289-18.374-.598-21.763 9.372-37.714 26.791-49.767 14.298-9.89 28.635-19.729 42.744-29.888 11.147-8.015 24.019-11.425 37.07-13.488 32.175-5.095 63.602-13.11 95.059-21.414 45.655-12.053 91.659-13.25 137.763-1.087 21.816 5.752 38.786 18.483 53.522 34.574 17.478 19.08 30.091 41.213 37.669 66.007 2.173 7.108 3.33 14.535 4.965 21.803.509 2.233 1.087 4.446 1.894 7.746 2.284-2.632 3.979-4.496 5.574-6.441 10.23-12.401 21.656-23.408 36.751-29.718 14.527-6.081 29.384-6.979 43.99-.489 12.713 5.643 20.241 16.43 25.375 28.792 10.22 24.584 9.034 49.547 1.167 74.461-4.576 14.475-10.738 28.143-21.008 39.688-13.41 15.073-31.327 21.354-50.122 25.362-8.804 1.884-18.076 1.545-27.718 2.253 1.316 6.211 2.812 12.751 4.078 19.33 4.895 25.382 9.781 50.764 14.447 76.186.339 1.824-1.047 3.978-1.635 5.972-1.685-1.187-4.048-2.004-4.925-3.629-5.454-10.019-10.579-20.208-16.452-31.593-2.662 7.836-4.347 14.685-7.258 20.955-5.055 10.907-3.789 21.963-1.885 33.089.289 1.714 2.064 3.798 3.689 4.566 12.374 5.862 23.262 13.309 30.46 25.421.808 1.356 3.58 1.845 5.524 2.154 22.005 3.519 44.618 4.566 63.742 18.413 15.464 11.206 29.862 23.608 39.952 39.818 14.168 22.78 27.239 46.237 40.55 69.546 2.183 3.828 3.739 8.205 4.646 12.531 1.645 7.876 5.564 14.316 10.35 20.607 29.542 38.88 56.602 79.495 80.651 121.925 12.773 22.54 22.603 46.756 33.671 70.264 2.712 5.762 1.007 11.474-1.366 16.838-2.403 5.443-5.334 10.647-8.266 16.429 6.76 8.664 14.328 17.606 13.77 30.576H14.16zm687.787-53.206c.509-.17.898-.18 1.107-.389 2.303-2.153 4.597-4.307 6.85-6.51 14.667-14.366 29.822-27.665 52.465-26.14 3.39.23 4.108-2.552 3.4-5.243-.668-2.533-1.655-5.085-3.041-7.298-3.28-5.214-7.009-10.139-10.29-15.353-1.067-1.685-2.403-4.964-1.705-5.692 3.4-3.569 1.137-7.746 1.955-11.505.139-.658-.3-1.724-.828-2.203a575 575 0 0 0-13.49-11.604c-.569-.479-1.596-.399-2.842-.668 2.084 3.589 3.859 6.649 5.624 9.71-.459.439-.908.887-1.366 1.326-1.965-.947-4.358-1.466-5.803-2.921-4.427-4.476-8.286-9.511-12.743-13.957-13.719-13.708-27.518-27.346-41.497-40.785-3.958-3.798-8.644-6.839-12.992-10.228l-1.106.897c11.087 49.757 12.941 101.747 36.322 148.553zm-448.205-21.315c3.051-9.71 5.394-19.181 9.073-28.083 2.084-5.045 1.176-8.065-2.094-11.794-12.563-14.306-17.089-30.446-10.02-48.81 4.596-11.923 5.603-24.425 7.009-36.976.828-7.397-1.326-13.608-3.549-20.118-1.057-3.081-3.032-3.25-5.355-1.446-1.027.808-1.864 1.885-2.722 2.891-13.789 16.34-27.598 32.67-41.327 49.06-1.925 2.302-3.56 3.937-6.063.677 1.127-1.635 2.443-3.16 3.301-4.914.528-1.087.349-2.513.478-3.789-1.047.598-2.423.957-3.081 1.845-5.184 7.078-10.299 14.206-15.245 21.444-.847 1.236-.727 3.12-1.066 4.705.578.189 1.156.389 1.744.578 3.221-4.745 6.392-9.53 9.682-14.226 1.376-1.974 2.851-4.347 6.082-1.406-4.936 6.48-9.801 12.871-15.046 19.75 2.493 5.303-4.776 3.599-8.116 7.586 1.087.24 2.174.469 3.251.708-.399.618-.629 1.067-.928 1.456-6.59 8.613-7.517 12.252 4.567 15.622 18.475 5.154 34.638 14.664 48.796 27.694 6.76 6.231 13.998 11.934 20.619 17.526zm447.547-109.961c-4.736-4.058-8.644-7.418-13.42-11.505.359 6.929 6.471 11.874 13.42 11.505m-474.577-24.834c-3.061 3.709-6.043 7.328-9.672 11.714 6.561-1.426 12.015-8.454 9.672-11.714"/><path fill="#545454" d="M298.712 184.915a65 65 0 0 1 7.221-5.235 56 56 0 0 1 8.484-4.242q4.513-1.895 9.658-2.888 5.234-1.083 11.282-1.083 8.484 0 15.253 2.256 6.86 2.257 11.643 6.499 4.784 4.151 7.311 10.109 2.618 5.866 2.618 13.087 0 6.86-1.896 11.914-1.895 4.964-4.783 8.665t-6.409 6.408a281 281 0 0 1-6.588 5.054q-3.069 2.257-5.416 4.513-2.256 2.257-2.888 5.055l-2.527 12.636H322.54l-1.985-14.532q-.723-4.422.902-7.672 1.624-3.34 4.423-5.957a49.4 49.4 0 0 1 6.408-5.054 71 71 0 0 0 6.589-5.145q3.069-2.798 5.144-6.137 2.167-3.43 2.167-8.123 0-5.416-3.611-8.575-3.52-3.249-9.747-3.249-4.785 0-8.033.993-3.16.993-5.506 2.256a102 102 0 0 0-3.971 2.166q-1.716.993-3.43.993-3.881 0-5.777-3.339zm16.608 105.331q0-3.25 1.173-6.048 1.264-2.798 3.339-4.874a15.9 15.9 0 0 1 5.055-3.249q2.887-1.263 6.318-1.263 3.339 0 6.228 1.263 2.888 1.174 5.054 3.249a14.4 14.4 0 0 1 3.34 4.874q1.263 2.798 1.263 6.048t-1.263 6.137a14.4 14.4 0 0 1-3.34 4.874q-2.166 2.076-5.054 3.249t-6.228 1.174q-3.43 0-6.318-1.174t-5.055-3.249q-2.075-2.076-3.339-4.874-1.173-2.888-1.173-6.137" opacity=".4"/></g><defs><clipPath id="a"><path fill="#fff" d="M.242 0H853.84v842H.242z"/></clipPath><clipPath id="b"><path fill="#fff" d="M14.16 0h853.598v842H14.16z"/></clipPath></defs></svg>