<svg xmlns="http://www.w3.org/2000/svg" width="330" height="325" fill="none"><g clip-path="url(#a)"><path fill="#000" d="M.343 325.089c1.655-3.067 3.04-5.935 4.7-8.637 3.827-6.243 8.977-11.32 14.49-16.058 2.494-2.144 2.494-2.167.866-5.069-1.925-3.43-1.99-6.99-.57-10.558 3.653-9.173 7.73-18.145 13.127-26.447 8.307-12.776 16.672-25.508 24.964-38.291a12 12 0 0 0 1.61-3.838c1.547-6.851 4.78-12.963 8.287-18.922 2.884-4.899 6.133-9.584 9.224-14.364.373-.578.758-1.151 1.301-1.971-1.016-.393-1.794-.82-2.621-.989-11.249-2.333-21.423-7.252-31.186-13.079-4.43-2.649-8.653-5.659-12.86-8.657-2.738-1.952-5.817-2.625-9.013-2.914-4.134-.373-8.037-1.339-11.73-3.318-1.489-.8-3.244-1.131-4.903-1.589-2.453-.674-4.439-1.867-4.755-4.619-.346-3.006.293-5.816 2.83-7.729 1.463-1.105 3.264-1.755 4.804-2.772.635-.415 1.309-1.212 1.417-1.92 1.235-7.91 3.95-15.181 9.735-20.866 6.256-6.151 12.758-12.051 19.252-17.952 2.687-2.44 4.511-5.343 5.832-8.664.877-2.206.573-4.084-1.07-5.824-2.703-2.864-4.658-6.19-5.013-10.158-.442-4.934-.662-9.888-.862-14.842-.096-2.36.177-4.73.112-7.094-.231-8.402 3.618-14.56 10.343-19.214 5.52-3.818 11.056-7.618 16.503-11.54 4.304-3.094 9.274-4.41 14.313-5.207 12.423-1.967 24.556-5.062 36.702-8.268 17.627-4.654 35.388-5.116 53.189-.42 8.422 2.221 14.974 7.136 20.664 13.349 6.748 7.367 11.618 15.912 14.544 25.484.839 2.745 1.285 5.612 1.917 8.418.196.863.419 1.717.731 2.991.882-1.016 1.536-1.736 2.152-2.486 3.949-4.789 8.361-9.038 14.189-11.474 5.609-2.348 11.345-2.695 16.984-.19 4.909 2.18 7.815 6.344 9.798 11.117 3.945 9.492 3.487 19.13.45 28.749-1.767 5.589-4.146 10.866-8.111 15.323-5.178 5.82-12.095 8.245-19.352 9.792-3.399.727-6.979.597-10.701.87.508 2.398 1.085 4.923 1.574 7.463 1.89 9.8 3.776 19.6 5.578 29.415.131.704-.404 1.536-.631 2.305-.651-.458-1.563-.773-1.902-1.401-2.106-3.868-4.084-7.802-6.352-12.197-1.028 3.025-1.678 5.669-2.802 8.09-1.952 4.211-1.463 8.48-.728 12.775.112.663.797 1.467 1.425 1.763 4.777 2.264 8.981 5.139 11.76 9.815.312.524 1.382.713 2.133.832 8.496 1.359 17.226 1.763 24.61 7.109 5.97 4.326 11.529 9.115 15.425 15.373 5.47 8.795 10.517 17.852 15.656 26.851.843 1.479 1.443 3.168 1.794 4.839.635 3.041 2.148 5.527 3.996 7.956 11.406 15.011 21.853 30.692 31.138 47.074 4.932 8.703 8.727 18.052 13 27.128 1.047 2.225.389 4.431-.527 6.501-.928 2.102-2.06 4.111-3.191 6.344 2.61 3.344 5.532 6.797 5.316 11.805H.343zm265.549-20.542c.196-.066.346-.069.427-.15.889-.832 1.775-1.663 2.645-2.514 5.662-5.546 11.514-10.681 20.256-10.092 1.309.089 1.586-.985 1.313-2.025-.258-.977-.639-1.963-1.175-2.817-1.266-2.013-2.706-3.915-3.972-5.928-.412-.65-.928-1.916-.659-2.197 1.313-1.378.439-2.991.755-4.442.054-.254-.116-.666-.32-.851a222 222 0 0 0-5.208-4.48c-.219-.185-.616-.154-1.097-.258.804 1.386 1.49 2.567 2.171 3.749q-.264.255-.527.512c-.759-.366-1.683-.566-2.241-1.128-1.709-1.728-3.199-3.672-4.92-5.389-5.296-5.292-10.624-10.558-16.021-15.746-1.529-1.467-3.338-2.641-5.016-3.949l-.428.346c4.281 19.211 4.997 39.284 14.024 57.355zm-173.049-8.229c1.178-3.749 2.083-7.406 3.503-10.843.805-1.948.455-3.114-.808-4.554-4.85-5.523-6.598-11.755-3.869-18.845 1.775-4.603 2.164-9.43 2.707-14.276.319-2.856-.513-5.254-1.371-7.767-.408-1.19-1.17-1.255-2.067-.559-.397.312-.72.728-1.051 1.117-5.324 6.308-10.656 12.613-15.956 18.941-.743.889-1.375 1.52-2.341.262.435-.632.943-1.22 1.274-1.898.204-.419.135-.97.185-1.463-.404.231-.935.37-1.19.713a307 307 0 0 0-5.885 8.279c-.328.477-.282 1.205-.412 1.817q.334.111.673.223c1.244-1.832 2.468-3.68 3.738-5.493.531-.762 1.101-1.678 2.348-.542l-5.808 7.625c.962 2.047-1.844 1.389-3.134 2.929q.631.136 1.255.273c-.154.239-.243.412-.358.562-2.545 3.326-2.903 4.731 1.763 6.031 7.133 1.99 13.373 5.662 18.84 10.693 2.61 2.406 5.404 4.608 7.96 6.767zm172.795-42.456c-1.829-1.566-3.338-2.863-5.182-4.442.139 2.676 2.498 4.585 5.182 4.442m-183.23-9.588c-1.183 1.432-2.334 2.829-3.735 4.523 2.533-.55 4.639-3.264 3.734-4.523"/><path fill="#545454" d="M111.65 86.335a42 42 0 0 1 4.681-3.394 36 36 0 0 1 5.5-2.75 31.6 31.6 0 0 1 6.261-1.873q3.394-.702 7.315-.702 5.5 0 9.889 1.463 4.447 1.463 7.548 4.213 3.102 2.693 4.74 6.554 1.697 3.803 1.697 8.484 0 4.448-1.229 7.724-1.229 3.219-3.101 5.618a23.3 23.3 0 0 1-4.155 4.154 181 181 0 0 1-4.271 3.277 35 35 0 0 0-3.511 2.926q-1.464 1.463-1.873 3.277l-1.638 8.192h-12.405l-1.288-9.421q-.468-2.867.585-4.974a13.1 13.1 0 0 1 2.868-3.862 32 32 0 0 1 4.154-3.277 46 46 0 0 0 4.272-3.335 18.8 18.8 0 0 0 3.335-3.979q1.405-2.224 1.405-5.266 0-3.51-2.341-5.56-2.282-2.105-6.32-2.106-3.1 0-5.207.644-2.049.645-3.57 1.463a66 66 0 0 0-2.575 1.404q-1.111.645-2.223.644-2.517 0-3.745-2.165zm10.766 68.287q0-2.107.761-3.921a10.6 10.6 0 0 1 2.165-3.16 10.3 10.3 0 0 1 3.277-2.106q1.873-.819 4.096-.819 2.164 0 4.038.819a10.3 10.3 0 0 1 3.276 2.106 9.3 9.3 0 0 1 2.165 3.16q.82 1.814.82 3.921t-.82 3.979a9.3 9.3 0 0 1-2.165 3.16 10.3 10.3 0 0 1-3.276 2.106q-1.874.76-4.038.761-2.224 0-4.096-.761a10.3 10.3 0 0 1-3.277-2.106 10.6 10.6 0 0 1-2.165-3.16 10.5 10.5 0 0 1-.761-3.979" opacity=".4"/></g><defs><clipPath id="a"><path fill="#fff" d="M.342 0H329.91v325.089H.342z"/></clipPath></defs></svg>