<svg xmlns="http://www.w3.org/2000/svg" fill="none" viewBox="0 0 581 821"><path stroke="#452BC0" d="M4.654-594.508-620.389 488.099M74.917-553.941-550.127 0M145.183-513.373-479.86 569.234M215.45-472.806-409.594 609.8M285.714-432.238-339.33 650.369M355.98-391.67-269.063 690.937M426.246-351.101-198.797 731.505M496.511-310.535-128.533 772.072M566.777-269.965-58.266 812.642M409.865 33.857-672.742-591.186M369.297 104.12-713.309-520.923M328.731 174.386-753.875-450.657M288.161 244.652-794.445-380.392M247.593 314.917-835.014-310.126M207.025 385.183-875.581-239.86M166.457 455.449-916.149-169.595M125.891 525.714-956.716-99.329M85.321 595.978-997.286-29.065M44.755 666.244-1037.85 41.2M4.187 736.509-1078.42 111.466"/></svg>