<svg xmlns="http://www.w3.org/2000/svg" width="355" height="202" fill="none"><path fill="#00AB96" d="M354.6 116.37c-4.846-19.975-14.171-38.656-27.445-54.976-13.273-16.32-30.234-29.961-49.915-40.143-19.681-10.181-41.695-16.704-64.787-19.197s-46.809-.905-69.797 4.67c-22.987 5.577-44.795 15.033-64.179 27.828-19.383 12.796-35.962 28.68-48.79 46.748C16.856 99.367 8.03 119.263 3.71 139.851s-4.05 41.466.795 61.441l64.19-15.571c-3.068-12.65-3.24-25.871-.503-38.91s8.326-25.638 16.45-37.08 18.624-21.502 30.899-29.605 26.087-14.092 40.644-17.623c14.558-3.531 29.578-4.536 44.202-2.958s28.566 5.71 41.03 12.158c12.463 6.447 23.205 15.086 31.611 25.422s14.312 22.166 17.38 34.816z"/></svg>