<svg xmlns="http://www.w3.org/2000/svg" width="723" height="690" fill="none"><path fill="#000" d="m598.723 50.849 10.256 35.744 25.666-26.598zM704.398 415.97c-50.697 191.864-245.147 305.664-434.26 254.278l-1.64 6.209c192.605 52.334 390.512-63.581 442.096-258.803zm-434.26 254.278C81.026 618.863-31.262 421.717 19.434 229.853l-6.196-1.684c-51.585 195.222 62.655 395.953 255.26 448.288zM617.185 73.256c83.327 87.799 120.587 216.409 87.213 342.714l6.196 1.684c33.963-128.534-3.955-259.441-88.78-348.819zM19.434 229.853c26.284-99.472 91.21-177.965 174.007-223.334L190.343.87C106.067 47.05 39.984 126.946 13.238 228.17z"/></svg>