<svg xmlns="http://www.w3.org/2000/svg" width="355" height="185" fill="none"><mask id="a" fill="#fff"><path d="M354.233 99.525c-4.845-19.975-14.17-38.656-27.444-54.977s-30.234-29.96-49.915-40.142-41.696-16.705-64.788-19.198c-23.091-2.492-46.808-.905-69.796 4.671-22.987 5.576-44.795 15.032-64.179 27.828-19.383 12.795-35.963 28.68-48.791 46.747C16.49 82.522 7.665 102.417 3.344 123.006s-4.05 41.465.795 61.44l64.19-15.57c-3.067-12.65-3.239-25.872-.502-38.91 2.736-13.039 8.326-25.639 16.45-37.08C92.4 81.443 102.9 71.383 115.176 63.28c12.275-8.103 26.086-14.092 40.644-17.623s29.578-4.536 44.202-2.958c14.624 1.579 28.566 5.71 41.029 12.158s23.206 15.086 31.612 25.422 14.311 22.166 17.38 34.816z"/></mask><path stroke="#4B2ED1" d="M354.233 99.525c-4.845-19.975-14.17-38.656-27.444-54.977s-30.234-29.96-49.915-40.142-41.696-16.705-64.788-19.198c-23.091-2.492-46.808-.905-69.796 4.671-22.987 5.576-44.795 15.032-64.179 27.828-19.383 12.795-35.963 28.68-48.791 46.747C16.49 82.522 7.665 102.417 3.344 123.006s-4.05 41.465.795 61.44l64.19-15.57c-3.067-12.65-3.239-25.872-.502-38.91 2.736-13.039 8.326-25.639 16.45-37.08C92.4 81.443 102.9 71.383 115.176 63.28c12.275-8.103 26.086-14.092 40.644-17.623s29.578-4.536 44.202-2.958c14.624 1.579 28.566 5.71 41.029 12.158s23.206 15.086 31.612 25.422 14.311 22.166 17.38 34.816z" mask="url(#a)"/></svg>