<svg xmlns="http://www.w3.org/2000/svg" width="271" height="164" fill="none"><path fill="#A393FE" d="M141.108 138.42c14.035-14.697 22.654-34.612 22.654-56.539s-8.619-41.841-22.654-56.54c12.938-10.997 29.7-17.632 48.011-17.632 40.964 0 74.172 33.208 74.172 74.172s-33.208 74.172-74.172 74.172c-18.311 0-35.073-6.635-48.011-17.633m-5.608 5.346c-17.313-15.013-28.262-37.17-28.262-61.885S118.187 35.01 135.5 19.996a83 83 0 0 1 5.608 5.346c-16.006 13.605-26.161 33.886-26.161 56.54 0 22.652 10.155 42.933 26.161 56.538a82 82 0 0 1-5.608 5.346m0 0c-14.365 12.457-33.112 19.996-53.619 19.996C36.66 163.762 0 127.103 0 81.882 0 36.658 36.66 0 81.881 0c20.507 0 39.254 7.539 53.619 19.996C149.865 7.54 168.612 0 189.119 0 234.34 0 271 36.66 271 81.881s-36.66 81.881-81.881 81.881c-20.507 0-39.254-7.539-53.619-19.996"/></svg>