<svg xmlns="http://www.w3.org/2000/svg" width="51" height="51" fill="none"><circle cx="25.189" cy="25.189" r="25.189" fill="#000"/><path fill="#57F0CD" d="M23.132 22.22q.447-.088.863-.12a10 10 0 0 1 .808-.033q1.257 0 2.218.382t1.617 1.049q.656.656.983 1.551.34.885.34 1.901 0 1.279-.46 2.338a5.4 5.4 0 0 1-1.256 1.814 5.7 5.7 0 0 1-1.934 1.19q-1.115.416-2.447.416a6.6 6.6 0 0 1-1.486-.164 7.6 7.6 0 0 1-1.322-.437 8 8 0 0 1-1.136-.645 8 8 0 0 1-.95-.786l1.048-1.399q.165-.218.382-.327a.96.96 0 0 1 .47-.12q.328 0 .612.185.295.176.634.393.35.208.808.383.46.174 1.136.175.678 0 1.158-.219.481-.23.776-.612.306-.393.437-.907.142-.524.142-1.114 0-1.158-.655-1.759-.655-.612-1.858-.612-1.07 0-2.097.405l-2.098-.569 1.355-7.964h8.15v1.398q0 .35-.11.634a1.3 1.3 0 0 1-.349.502 1.6 1.6 0 0 1-.612.328q-.382.11-.917.11H23.58z"/></svg>