<svg xmlns="http://www.w3.org/2000/svg" width="410" height="558" fill="none"><g stroke="#7A66E8" clip-path="url(#a)" opacity=".56"><path d="m20.094 740.575-25.358-93.828c-8.526-31.544-36.18-54.161-68.776-56.247a76.28 76.28 0 0 1-44.011-17.57l-29.587-24.703a79.2 79.2 0 0 0-39.727-17.631l-6.886-.968a64.93 64.93 0 0 1-47.166-31.794" opacity=".54"/><path d="m48.177 712.62-25.478-93.528c-8.588-31.525-36.232-54.124-68.822-56.262a76.5 76.5 0 0 1-43.983-17.582l-29.621-24.698a79.46 79.46 0 0 0-39.711-17.641l-6.894-.978a65.12 65.12 0 0 1-47.16-31.78" opacity=".54"/><path d="m82.118 688.542-25.359-93.828c-8.525-31.544-36.18-54.162-68.776-56.248a76.28 76.28 0 0 1-44.01-17.569l-29.588-24.703a79.2 79.2 0 0 0-39.727-17.631l-6.886-.968a64.93 64.93 0 0 1-47.165-31.794" opacity=".54"/><path d="m121.68 667.219-25.359-93.827c-8.525-31.545-36.18-54.162-68.775-56.248a76.27 76.27 0 0 1-44.01-17.57l-29.588-24.703a79.2 79.2 0 0 0-39.727-17.63l-6.886-.968a64.93 64.93 0 0 1-47.166-31.795" opacity=".5"/><path d="M156.746 643.298 129.38 542.043c-9.2-34.042-39.044-58.45-74.22-60.701a82.3 82.3 0 0 1-47.495-18.961l-31.93-26.658a85.44 85.44 0 0 0-42.872-19.026l-7.431-1.045a70.07 70.07 0 0 1-50.899-34.312" opacity=".54"/><path d="M210.282 620.985 182.915 519.73c-9.2-34.041-39.044-58.449-74.22-60.7A82.3 82.3 0 0 1 61.2 440.069L29.27 413.41A85.45 85.45 0 0 0-13.6 394.384l-7.432-1.044a70.07 70.07 0 0 1-50.9-34.312" opacity=".54"/><path d="m241.627 577.378-27.366-101.255c-9.201-34.042-39.045-58.45-74.22-60.701a82.3 82.3 0 0 1-47.495-18.96l-31.93-26.659a85.44 85.44 0 0 0-42.872-19.026l-7.431-1.045a70.07 70.07 0 0 1-50.9-34.311" opacity=".54"/></g><defs><clipPath id="a"><rect width="410" height="557" y=".32" fill="#fff" rx="20"/></clipPath></defs></svg>