<svg xmlns="http://www.w3.org/2000/svg" width="158" height="85" fill="none"><g fill="#A393FE"><path d="M86.341 59.204a21.1 21.1 0 0 1 1.12 6.813q0 3.455-1.12 6.764a17.7 17.7 0 0 1-2.092 4.039 14.6 14.6 0 0 1-3.066 3.26q-1.752 1.362-4.039 2.141-2.288.78-5.06.779h-13.09V48.936h13.09q2.772 0 5.06.779t4.04 2.19q1.8 1.362 3.065 3.26a16.5 16.5 0 0 1 2.092 4.039m-4.574 11.922q.876-2.48.876-5.11 0-2.677-.876-5.206a12 12 0 0 0-1.411-2.725 9.2 9.2 0 0 0-2.093-2.239 9.2 9.2 0 0 0-2.773-1.508q-1.508-.585-3.407-.584H63.86v24.428h8.224q1.899 0 3.455-.535 1.558-.584 2.725-1.509a10.5 10.5 0 0 0 2.093-2.238q.876-1.314 1.411-2.774M55.855 83h-5.207l-3.163-7.64H33.13L29.967 83H24.76l14.014-34.064h3.066zM45.49 70.494 40.332 57.89l-5.207 12.604zM26.3 56.09q.827 2.287.827 4.671t-.828 4.672a13 13 0 0 1-1.508 2.822 10.5 10.5 0 0 1-2.239 2.239q-1.264.924-2.92 1.508-1.653.535-3.649.535H6.737V83H1.871V48.985h13.966q2.044 0 3.698.584 1.704.536 3.017 1.508a9.2 9.2 0 0 1 2.239 2.239q.925 1.265 1.508 2.774m-4.526 7.64q1.119-2.97 0-5.937-.633-1.704-2.141-2.822-1.46-1.12-3.796-1.12h-9.1V67.72h9.246a6 6 0 0 0 3.552-1.022 5.83 5.83 0 0 0 2.239-2.968M155.409 31.182v4.866H135.75V36h-2.434V1.936h21.46v4.867h-16.593v9.878h12.36v4.866h-12.36v9.635zM127.508 1.936V36h-4.866V10.939L111.498 23.25 100.354 10.94v25.06h-4.866V1.937H98.7l12.798 14.112 12.798-14.112zM44.565 6.754v9.294h42.288v4.867H44.565v10.219h46.57V36H39.699V1.936h2.433v-.048h49.344v4.866zM33.89 1.936V36h-4.866V10.939L17.882 23.25 6.737 10.94v25.06H1.871V1.937h3.212L17.88 16.048 30.679 1.936z"/></g><g fill="#091F1A"><path d="M87.46 66.017a21.1 21.1 0 0 0-1.119-6.813 16.5 16.5 0 0 0-2.092-4.039 13.3 13.3 0 0 0-3.066-3.26q-1.752-1.411-4.039-2.19-2.288-.78-5.06-.779h-13.09V83h13.09q2.772 0 5.06-.779t4.039-2.141q1.8-1.411 3.066-3.26a17.7 17.7 0 0 0 2.092-4.04 21 21 0 0 0 1.12-6.763m-1.669 11.865a16.5 16.5 0 0 1-3.453 3.672l-.005.004c-1.346 1.048-2.88 1.856-4.585 2.436-1.746.594-3.64.879-5.665.879H57.12v-37.81h14.963c2.025 0 3.92.285 5.665.879 1.707.581 3.242 1.407 4.588 2.486a15.2 15.2 0 0 1 3.456 3.675 18.3 18.3 0 0 1 2.314 4.474l.005.013.004.014a23 23 0 0 1 1.218 7.413q0 3.767-1.218 7.364l-.006.02-.008.02a19.6 19.6 0 0 1-2.31 4.461m-3.148-11.865q0 2.628-.876 5.11a13.2 13.2 0 0 1-1.411 2.773 10.5 10.5 0 0 1-2.093 2.238q-1.168.926-2.725 1.509-1.557.535-3.455.535H63.86V53.754h8.224q1.897 0 3.407.584a9.2 9.2 0 0 1 2.773 1.508 9.2 9.2 0 0 1 2.093 2.239 12 12 0 0 1 1.411 2.725 15.8 15.8 0 0 1 .876 5.207m-16.91-10.39v20.682h6.35c1.079 0 2.013-.15 2.822-.425.865-.327 1.59-.734 2.192-1.211a8.7 8.7 0 0 0 1.71-1.826q.744-1.12 1.197-2.355.766-2.174.766-4.475c0-1.57-.255-3.093-.767-4.578a10.2 10.2 0 0 0-1.187-2.288l-.01-.014-.009-.013a7.3 7.3 0 0 0-1.667-1.787l-.019-.014-.018-.014a7.3 7.3 0 0 0-2.212-1.2l-.034-.012-.034-.013c-.756-.292-1.657-.457-2.73-.457z"/><path d="M55.855 83 41.84 48.936h-3.065L24.76 83h5.207l3.163-7.64h14.355L50.648 83zm-9.622-5.767 3.163 7.64h9.255l-15.556-37.81H37.52l-15.556 37.81h9.254l3.163-7.64zm-.743-6.74H35.125l5.207-12.603zm-2.79-1.872-2.376-5.806-2.399 5.806zM27.127 60.761q0-2.385-.828-4.671a12 12 0 0 0-1.508-2.774 9.2 9.2 0 0 0-2.239-2.239q-1.313-.972-3.017-1.508-1.654-.584-3.698-.584H1.871V83h4.866V72.537h9.246q1.995 0 3.65-.535 1.654-.584 2.92-1.508a10.5 10.5 0 0 0 2.238-2.239 13 13 0 0 0 1.508-2.822q.828-2.287.828-4.672M8.61 74.411v10.462H-.002V47.112h15.84c1.528 0 2.965.217 4.29.68 1.296.41 2.476.996 3.52 1.767q1.561 1.103 2.665 2.665a14 14 0 0 1 1.733 3.19l.008.019.007.02A15.5 15.5 0 0 1 29 60.76a15.5 15.5 0 0 1-.94 5.309l-.006.02-.008.019a15 15 0 0 1-1.723 3.224l-.01.014-.01.013A12.3 12.3 0 0 1 23.667 72l-.01.007c-1.007.736-2.146 1.32-3.4 1.762l-.024.009-.024.007c-1.314.425-2.728.626-4.226.626zm13.164-16.618q1.119 2.969 0 5.937a5.83 5.83 0 0 1-2.239 2.968 6 6 0 0 1-3.552 1.022H6.737V53.85h9.1q2.336 0 3.796 1.12 1.509 1.119 2.14 2.822M8.61 55.724h7.227c1.258 0 2.09.298 2.656.733l.012.009.012.009c.724.537 1.21 1.186 1.501 1.97l.003.009c.586 1.553.586 3.062 0 4.615l-.01.027-.01.027a3.96 3.96 0 0 1-1.52 2.027c-.743.49-1.542.72-2.451.697H8.61zM157.282 29.31v8.611h-23.406v-.048h-2.433V.063h25.206v8.612h-16.593v6.133h12.36v8.612h-12.36v5.89zm-19.099-7.763h12.36v-4.866h-12.36V6.803h16.593V1.936h-21.46V36h2.433v.048h19.66v-4.866h-17.226zM129.381.063v37.81h-8.612V15.799l-9.271 10.242-9.271-10.242v22.074h-8.612V.063h5.915l11.968 13.197L123.466.063zm-17.883 15.985L98.7 1.936h-3.212V36h4.866V10.939l11.144 12.311 11.144-12.311v25.06h4.866V1.937h-3.212zM88.726 14.175v8.613H46.438v6.473h46.57v8.612H37.826V.063h2.433V.015h53.09v8.612h-46.91v5.548zm-44.16-7.421h46.91V1.888H42.132v.048H39.7V36h51.436v-4.866h-46.57v-10.22h42.288v-4.866H44.565zM35.764.063v37.81H27.15V15.799l-9.27 10.242L8.61 15.8v22.074H-.003V.063h5.915L17.88 13.26 29.849.063zM17.88 16.048 5.083 1.936H1.87V36h4.866V10.939L17.881 23.25 29.025 10.94v25.06h4.866V1.937h-3.212z"/></g></svg>