<svg xmlns="http://www.w3.org/2000/svg" width="157" height="77" fill="none"><mask id="a" fill="#fff"><path d="M145.929 47.751a44.1 44.1 0 0 0-8.18-17.143c-3.956-5.09-9.011-9.343-14.877-12.518-5.865-3.175-12.427-5.209-19.309-5.986s-13.95-.282-20.802 1.456a59.4 59.4 0 0 0-19.128 8.678c-5.777 3.99-10.718 8.943-14.542 14.577s-6.454 11.838-7.742 18.258c-1.287 6.42-1.207 12.93.237 19.16l19.132-4.856c-.915-3.945-.966-8.068-.15-12.134.815-4.065 2.481-7.994 4.903-11.562 2.42-3.568 5.55-6.705 9.209-9.232a37.6 37.6 0 0 1 12.113-5.495 36.8 36.8 0 0 1 13.174-.923c4.359.492 8.514 1.78 12.229 3.791 3.714 2.01 6.916 4.705 9.421 7.928a27.9 27.9 0 0 1 5.18 10.856z"/></mask><path stroke="#4B2ED1" d="M145.929 47.751a44.1 44.1 0 0 0-8.18-17.143c-3.956-5.09-9.011-9.343-14.877-12.518-5.865-3.175-12.427-5.209-19.309-5.986s-13.95-.282-20.802 1.456a59.4 59.4 0 0 0-19.128 8.678c-5.777 3.99-10.718 8.943-14.542 14.577s-6.454 11.838-7.742 18.258c-1.287 6.42-1.207 12.93.237 19.16l19.132-4.856c-.915-3.945-.966-8.068-.15-12.134.815-4.065 2.481-7.994 4.903-11.562 2.42-3.568 5.55-6.705 9.209-9.232a37.6 37.6 0 0 1 12.113-5.495 36.8 36.8 0 0 1 13.174-.923c4.359.492 8.514 1.78 12.229 3.791 3.714 2.01 6.916 4.705 9.421 7.928a27.9 27.9 0 0 1 5.18 10.856z" mask="url(#a)"/><path fill="#00AB96" d="M115.339 70.155a44.1 44.1 0 0 0-8.18-17.143c-3.956-5.09-9.01-9.343-14.877-12.518-5.865-3.175-12.426-5.209-19.309-5.986-6.882-.777-13.95-.282-20.802 1.456a59.4 59.4 0 0 0-19.128 8.678c-5.777 3.99-10.718 8.943-14.542 14.577s-6.454 11.838-7.741 18.258c-1.288 6.42-1.208 12.93.236 19.16l19.132-4.856c-.915-3.945-.966-8.068-.15-12.133.815-4.066 2.481-7.995 4.903-11.563s5.55-6.705 9.209-9.232a37.6 37.6 0 0 1 12.114-5.495 36.8 36.8 0 0 1 13.173-.922c4.359.492 8.514 1.78 12.229 3.79 3.715 2.011 6.916 4.705 9.421 7.928a27.95 27.95 0 0 1 5.18 10.857z"/></svg>