<svg xmlns="http://www.w3.org/2000/svg" width="1900" height="1109" fill="none"><g stroke="#fff" stroke-opacity=".19" opacity=".34" style="mix-blend-mode:plus-lighter"><path d="M25.623 0v1109M148.938 0l-.001 1109M272.252 0v1109M395.572 0v1109M518.891 0v1109M642.211 0v1109M765.525 0v1109M888.842 0v1109M1012.16 0v1109M1135.47 0v1109M1258.79 0v1109M1382.11 0v1109M1505.43 0v1109M1628.75 0v1109M1752.06 0v1109M1875.38 0v1109M1900 15.16H0M1900 87.141H0M1900 159.121H0M1900 231.098H0M1900 303.076H0M1900 375.055H0M1900 447.031H0M1900 519.01H0M1900 590.99H0M1900 662.969H0M1900 734.945H0M1900 806.924H0M1900 878.902H0M1900 950.879H0M1900 1022.86H0M1900 1094.84H0"/></g></svg>