<svg xmlns="http://www.w3.org/2000/svg" width="248" height="98" fill="none"><g filter="url(#a)"><mask id="b" width="248" height="86" x="0" y="0" fill="#000" maskUnits="userSpaceOnUse"><path fill="#fff" d="M0 0h248v86H0z"/><path d="M31.916 21.985 4 43.516v.78l27.916 21.531L9.65 83h228.137l-22.264-17.172 27.464-21.183v-1.477l-27.464-21.183L240.138 3H7.302z"/></mask><path fill="#F68BFF" d="M31.916 21.985 4 43.516v.78l27.916 21.531L9.65 83h228.137l-22.264-17.172 27.464-21.183v-1.477l-27.464-21.183L240.138 3H7.302z"/><path fill="#000" d="m4 43.516-1.5-1.944-.955.737v1.207zm27.916-21.531 1.5 1.944 2.52-1.944-2.52-1.944zM4 44.296H1.545v1.207l.955.737zm27.916 21.531 1.5 1.945 2.52-1.945-2.52-1.944zM9.65 83l-1.5-1.944-5.703 4.4h7.203zm228.137 0v2.455h7.203l-5.704-4.4zm-22.264-17.172-1.5-1.944-2.52 1.944 2.52 1.944zm27.464-21.183 1.499 1.944.956-.737v-1.207zm0-1.477h2.455v-1.207l-.956-.737zm-27.464-21.183-1.5-1.944-2.52 1.944 2.52 1.944zM240.138 3l1.5 1.944 5.703-4.4h-7.203zM7.302 3V.545H.099l5.703 4.4zM5.5 45.46 33.415 23.93l-2.999-3.888L2.5 41.57zm.955-1.164v-.78h-4.91v.78zM2.5 46.24l27.916 21.532 3-3.889L5.5 42.352zm27.916 17.643L8.152 81.056l2.999 3.888 22.264-17.172zm207.372 16.662H9.651v4.91h228.137zm-23.764-12.773 22.264 17.172 2.999-3.888-22.264-17.172zm27.464-25.071-27.464 21.183 2.999 3.888 27.464-21.183zm-.956.467v1.477h4.911v-1.477zm-26.508-19.239 27.464 21.183 2.999-3.888-27.464-21.183zm24.615-22.873L214.024 20.04l2.999 3.888 24.615-18.985zM7.302 5.456h232.836V.544H7.302zM33.415 20.04 8.801 1.056 5.802 4.944 30.416 23.93z" mask="url(#b)"/></g><defs><filter id="a" width="247.243" height="96.91" x=".099" y=".545" color-interpolation-filters="sRGB" filterUnits="userSpaceOnUse"><feFlood flood-opacity="0" result="BackgroundImageFix"/><feColorMatrix in="SourceAlpha" result="hardAlpha" values="0 0 0 0 0 0 0 0 0 0 0 0 0 0 0 0 0 0 127 0"/><feOffset dy="12"/><feComposite in2="hardAlpha" operator="out"/><feColorMatrix values="0 0 0 0 0 0 0 0 0 0 0 0 0 0 0 0 0 0 1 0"/><feBlend in2="BackgroundImageFix" result="effect1_dropShadow_3259_16071"/><feBlend in="SourceGraphic" in2="effect1_dropShadow_3259_16071" result="shape"/></filter></defs></svg>