<svg xmlns="http://www.w3.org/2000/svg" width="247" height="98" fill="none"><g filter="url(#a)"><mask id="b" width="247" height="86" x="0" y=".28" fill="#000" maskUnits="userSpaceOnUse"><path fill="#fff" d="M0 .28h247v86H0z"/><path d="m239.138 3.28-24.614 18.985 27.464 21.183v1.477l-27.464 21.183 22.264 17.172H3v-80z"/></mask><path fill="#DE9CFD" d="m239.138 3.28-24.614 18.985 27.464 21.183v1.477l-27.464 21.183 22.264 17.172H3v-80z"/><path fill="#000" d="m214.524 22.265-1.5-1.944-2.52 1.944 2.52 1.944zM239.138 3.28l1.5 1.944 5.703-4.399h-7.203zm2.85 40.168h2.455v-1.207l-.956-.737zm0 1.477 1.499 1.944.956-.737v-1.207zm-27.464 21.183-1.5-1.944-2.52 1.944 2.52 1.944zm22.264 17.172v2.456h7.203l-5.704-4.4zM3 83.28H.545v2.456H3zm0-80V.825H.545V3.28zm213.023 20.93 24.615-18.986-2.999-3.888-24.615 18.985zm27.464 17.294-27.464-21.183-2.999 3.888 27.464 21.183zm.956 3.421v-1.477h-4.911v1.477zm-28.42 23.127 27.464-21.183-2.999-3.888-27.464 21.183zm22.264 13.284-22.264-17.172-2.999 3.888 22.264 17.172zM3 85.736h233.788v-4.91H3zM.545 3.28v80h4.91v-80zM239.138.825H3v4.91h236.138z" mask="url(#b)"/></g><defs><filter id="a" width="245.796" height="96.91" x=".545" y=".825" color-interpolation-filters="sRGB" filterUnits="userSpaceOnUse"><feFlood flood-opacity="0" result="BackgroundImageFix"/><feColorMatrix in="SourceAlpha" result="hardAlpha" values="0 0 0 0 0 0 0 0 0 0 0 0 0 0 0 0 0 0 127 0"/><feOffset dy="12"/><feComposite in2="hardAlpha" operator="out"/><feColorMatrix values="0 0 0 0 0 0 0 0 0 0 0 0 0 0 0 0 0 0 1 0"/><feBlend in2="BackgroundImageFix" result="effect1_dropShadow_3259_16038"/><feBlend in="SourceGraphic" in2="effect1_dropShadow_3259_16038" result="shape"/></filter></defs></svg>