<svg xmlns="http://www.w3.org/2000/svg" width="548" height="637" fill="none"><path stroke="#F0F0EA" d="M526.162 376.606c0 141.726-113.284 256.525-252.913 256.525S20.337 518.332 20.337 376.606 133.62 120.082 273.249 120.082s252.913 114.799 252.913 256.524Z"/><mask id="a" width="549" height="630" x="0" y="-1" maskUnits="userSpaceOnUse" style="mask-type:alpha"><path fill="#D9D9D9" stroke="#000" d="M274.5 628.386c151.311 0 273.886-140.807 273.886-314.386S425.811-.386 274.5-.386.614 140.42.614 314 123.189 628.386 274.5 628.386Z"/></mask><g mask="url(#a)"><path fill="#A393FE" d="M520 626.459q-.001.012-.014.013h-75.735c-7.577 0-9.447-10.517-2.41-13.325 3.366-1.342 4.598-4.83 2.561-7.827-9.275-13.641-35.707-47.218-52.665-67.099-6.762-7.928-13.248-4.514-11.011 5.663 2.505 11.388 5.616 22.647 7.931 34.071.887 4.406 1.483 8.419 5.345 11.35 1.266.962 2.134 3.042 2.379 4.727.841 5.955 1.311 11.974 1.989 17.956.109.981.263 2.355.905 2.822 3.979 2.923 1.646 6.111.66 9.317-1.067 3.472-3.898 2.776-6.304 2.785-19.353.055-38.716.092-58.07.009-16.957-.073-33.914-.43-50.871-.44-16.957 0-33.914.312-50.871.422-10.711.07-21.414.015-31.873.009-.922 0-2.417-.428-2.177-1.319 2.568-9.39-.488-20.283 7.389-28.299.714-.724.768-2.254.877-3.426 1.555-17.269 3.5-34.511 4.413-51.816.425-8.089-.796-16.334-1.926-24.415-.85-6.028-4.106-7.09-9.677-3.82a2000 2000 0 0 0-22.447 13.394c-22.618 13.705-45.598 26.86-67.665 41.436-11.097 7.329-20.511 17.25-30.658 26.045-1.432 1.243.007 3.682 1.897 3.836 32.723 2.662 62.083 15.026 91.897 26.197 1.147.429.916 2.205-.309 2.205-19.354.028-38.716.083-58.07 0-16.957-.073-33.914-.339-50.871-.449-2.849-.018-5.761.724-8.538.33-2.279-.32-4.965-1.255-6.457-2.876-2.632-2.859-5.507-1.668-7.244-.294-4.947 3.931-10.6 3.088-15.99 3.198-14.099.293-28.207.101-42.306.082-1.406 0-2.178-1.683-1.434-2.876 1.533-2.46 2.921-4.721 4.455-6.88 9.197-12.973 17.807-26.44 27.927-38.633 7.669-9.244 17.201-16.921 26.055-25.129 4.974-4.618 10.03-9.198 15.456-13.238 4.024-2.996 8.89-4.828 13.05-7.668 5.128-3.5 10.237-7.146 14.786-11.36 8.303-7.686 15.764-16.334 24.337-23.673 14.543-12.45 29.42-24.542 44.667-36.095 6.731-5.098 14.431-8.892 21.992-13.222 1.198-.686 1.964-2.332 1.106-3.414-3.952-5.021-3.681-6.752 1.737-10.343q7.08-4.7.823-10.233c-.679-.605-1.33-1.237-1.99-1.86-9.831-9.299-10.663-13.714-3.509-25.532 4.305-7.109 9.749-13.229 18.06-16.087 5.454-1.879 9.487.339 13.575 3.408 7.452 5.588 11.413 13.659 15.329 21.785.529 1.102 1.172 2.148 1.771 3.172.206.354.636.573 1.015.419 9.08-3.829 10.572-10.783 8.076-19.605-2.134-7.549-3.835-15.226-5.942-22.784-1.067-3.82-3.843-5.524-7.768-6.523-30.243-7.704-58.233-20.347-82.652-40.3-16.604-13.567-30.215-29.544-37.115-50.478-1.221-3.71-2.261-7.521-2.894-11.369-.67-4.049-2.37-6.156-6.548-7.384-14.497-4.251-27.511-11.552-34.927-25.312-10.427-19.33-6.475-29.6 4.848-45.266 9.586-13.274 22.916-17.699 38.418-17.387 2.405.045 4.847.293 7.207-.046 1.438-.202 3.356-.971 4.025-2.107 10.319-17.59 26.01-29.261 42.768-39.595 12.67-7.815 26.2-14.273 38.463-22.647 7.588-5.176 13.873-12.495 20.131-19.43 8.185-9.08 18.133-14.054 29.935-16.014 2.677-.44 5.427-1.74 7.66-3.335 3.381-2.395 6.113-3.326 8.523-2.68 4.089 1.094 8.174 2.901 12.124 1.38 6.232-2.41 12.427 1.328 13.277 8.025.334 2.629 1.004 3.92 3.988 4.26 4.576.522 7.443 4.397 7.732 9.225.507 8.382 6.412 15.161 14.516 17.37 5.028 1.374 9.875 3.471 14.813 5.203 7.896 2.776 15.782 5.57 23.722 8.218 1.176.393 2.605.045 3.907-.019 6.168-.311 12.345-.54 18.495-1.053 1.763-.147 3.527-.99 5.191-1.75 8.438-3.866 16.875-5.469 26.399-3.921 7.913 1.292 16.097.504 23.749 4.049 10.798 5.002 21.506 10.829 27.619 21.126 9.668 16.288 16.288 33.741 12.39 53.721-2.831 14.539-9.053 26.586-20.755 35.591-.471.367-1.266.806-1.266 1.21.036 4.937-.199 9.93.524 14.767.253 1.668 2.749 3.372 4.576 4.361 8.492 4.581 16.053 10.16 21.217 18.616 2.93 4.8 2.614 7.658-1.103 11.983-1.999 2.326-3.618 3.966-.308 7.677 6.078 6.806 3.907 13.018-3.174 17.268-11.839 7.119-24.048 13.596-35.967 20.586-17.889 10.489-35.732 21.043-53.431 31.853-6.394 3.903-12.607 8.263-18.305 13.137-2.677 2.291-4.928 6.065-5.661 9.528-2.071 9.729-3.229 19.66-4.82 29.508-.588 3.655 1.103 5.607 4.223 6.999 2.442 1.09 5.426 2.08 6.837 4.086 1.655 2.355 2.315 5.717 2.578 8.722.235 2.61.651 4.324 3.409 4.974 7.362 1.75 14.642 3.93 22.058 5.369 6.937 1.346 10.871 5.725 11.657 12.889.38 3.472 1.692 7.128 3.509 10.105 5.996 9.839 12.589 19.294 18.649 29.096 9.695 15.684 19.046 31.588 28.75 47.272 2.378 3.838 5.372 7.329 8.383 10.709 18.567 20.787 35.199 43.03 50.031 66.712 4.322 6.897 9.62 13.172 14.964 20.398zM217.277 405.421q-.008-.006-.013.002c-1.274 3.019-2.619 5.609-3.423 8.363-.772 2.644 3.02 6.402 4.992 4.48 1.067-1.035 1.438-3.445 1.167-5.094-.407-2.482-1.646-4.818-2.722-7.749z"/></g></svg>