<svg xmlns="http://www.w3.org/2000/svg" width="457" height="457" fill="none"><path fill="#00FFC4" stroke="#000" d="m339.657 143.539 2.19-3.975-4.386 1.169-54.028 14.395-1.118-55.902-.091-4.538-3.214 3.205-39.592 39.48-28.92-47.853-2.347-3.885-1.181 4.382-14.548 53.988-48.972-26.983-3.975-2.19 1.169 4.385 14.395 54.029-55.902 1.118-4.538.091 3.205 3.214 39.481 39.592-47.854 28.92-3.885 2.347 4.383 1.181 53.987 14.548-26.983 48.971-2.19 3.975 4.386-1.168 54.028-14.395 1.118 55.902.091 4.538 3.214-3.205 39.592-39.481 28.92 47.854 2.347 3.884 1.181-4.382 14.548-53.988 48.972 26.983 3.975 2.191-1.169-4.386-14.395-54.029 55.902-1.118 4.538-.09-3.205-3.214-39.481-39.593 47.854-28.919 3.884-2.347-4.382-1.181-53.987-14.548z"/><path fill="#000" d="M217.536 179.238a8.36 8.36 0 0 1-1.015 5.641 8 8 0 0 1-1.217 1.54 6.4 6.4 0 0 1-1.595 1.108 7 7 0 0 1-1.926.593 7.2 7.2 0 0 1-2.262-.073l-5.581-1.004-1.137 6.316-2.938-.529 3.696-20.535 8.431 1.518q1.234.222 2.169.754a6.2 6.2 0 0 1 1.658 1.238q.692.702 1.108 1.595a7.4 7.4 0 0 1 .609 1.838m-3.562 4.121a5 5 0 0 0 .645-3.584 3.75 3.75 0 0 0-.986-1.937q-.76-.833-2.17-1.088l-5.493-.988-1.507 8.372 5.582 1.005q1.17.24 2.255-.231a3.57 3.57 0 0 0 1.674-1.549m21.072 4.853a6.45 6.45 0 0 1-1.903 2.145 6.5 6.5 0 0 1-2.619 1.075l2.966 7.449-3.437-.619-2.8-7.024-4.789-.862-1.136 6.316-2.938-.528 3.695-20.535 8.432 1.517q1.233.222 2.169.755a6.2 6.2 0 0 1 1.657 1.238q.694.7 1.108 1.595a7.4 7.4 0 0 1 .61 1.838q.25 1.47-.008 2.91a8.4 8.4 0 0 1-1.007 2.73m-12.058-.744 5.581 1.004q1.17.242 2.256-.231a3.6 3.6 0 0 0 1.674-1.548 5 5 0 0 0 .645-3.584 3.74 3.74 0 0 0-.986-1.937q-.76-.834-2.17-1.088l-5.494-.989zm20.387-5.036-1.01 5.611 25.529 4.594-.529 2.938-25.529-4.594-1.11 6.169 28.114 5.06-.529 2.937-31.051-5.588 3.7-20.564 1.469.265.006-.03 29.788 5.361-.529 2.938zm-38.537 28.082q1.067.647 2.093 1.347a8.7 8.7 0 0 1 1.776 1.593 5.6 5.6 0 0 1 1.087 2.046q.345 1.123.064 2.68-.235 1.474-1.058 2.509a6.4 6.4 0 0 1-1.959 1.619 7.6 7.6 0 0 1-2.503.762q-1.362.15-2.683-.088a9.2 9.2 0 0 1-2.688-.908 6.9 6.9 0 0 1-2.045-1.612 5.9 5.9 0 0 1-1.144-2.238q-.312-1.299-.032-2.856l2.938.528q-.17.94.032 1.674.207.705.691 1.216.49.483 1.192.791a7.3 7.3 0 0 0 1.584.467q.852.153 1.746.072a4.8 4.8 0 0 0 1.636-.495q.573-.321.909-.837.365-.51.446-1.133.143-.793-.133-1.449a3.5 3.5 0 0 0-.784-1.203 7 7 0 0 0-1.273-1.017 22 22 0 0 0-1.441-.927q-1.008-.636-1.986-1.267a8.3 8.3 0 0 1-1.674-1.484 5.3 5.3 0 0 1-1.026-1.883q-.324-1.059-.071-2.469a4.7 4.7 0 0 1 .821-2.036 5.2 5.2 0 0 1 1.64-1.525 7.2 7.2 0 0 1 2.193-.727 6.5 6.5 0 0 1 2.325.054 7.4 7.4 0 0 1 2.252.8 6.6 6.6 0 0 1 1.832 1.451 5.2 5.2 0 0 1 1.127 1.993q.373 1.128.112 2.416l-2.938-.529q.119-.495-.031-1.007a2.2 2.2 0 0 0-.445-.898q-1.022-1.064-2.437-1.288a3.64 3.64 0 0 0-2.512.306q-.88.508-1.001 1.518-.122.676.112 1.233.262.564.752 1.046t1.141.903zm24.7 17.122-3.143-.566-1.079-4.956-8.667-1.559-2.739 4.268-3.143-.565 12.161-19.042 1.85.333zm-4.898-8.676-1.745-8.169-4.513 7.043zm22.28 8.74-.529 2.938-14.101-2.538 3.695-20.534 2.909.523-3.167 17.597zm16.115 2.961-.528 2.938-11.869-2.136.006-.029-1.469-.265 3.7-20.564 12.956 2.332-.529 2.938-10.018-1.803-1.073 5.963 7.462 1.343-.529 2.938-7.461-1.343-1.047 5.817zm-85.088 17.156 3.701-20.564 2.937.529-3.7 20.564zm16.481-9.711q1.065.647 2.092 1.347a8.7 8.7 0 0 1 1.776 1.593 5.6 5.6 0 0 1 1.088 2.046q.343 1.123.063 2.68-.234 1.474-1.058 2.509a6.4 6.4 0 0 1-1.959 1.619 7.6 7.6 0 0 1-2.503.763 9.3 9.3 0 0 1-2.683-.089 9.2 9.2 0 0 1-2.688-.908 6.9 6.9 0 0 1-2.045-1.612 5.9 5.9 0 0 1-1.144-2.238q-.312-1.299-.032-2.856l2.938.529q-.17.94.032 1.673.207.704.691 1.217.49.482 1.192.79a7.3 7.3 0 0 0 1.584.467 6.5 6.5 0 0 0 1.746.072 4.8 4.8 0 0 0 1.636-.494q.573-.322.909-.837.365-.511.446-1.133.143-.793-.133-1.45a3.5 3.5 0 0 0-.784-1.202 7 7 0 0 0-1.273-1.018 22 22 0 0 0-1.441-.926 293 293 0 0 1-1.986-1.268 8.3 8.3 0 0 1-1.674-1.484 5.2 5.2 0 0 1-1.025-1.883q-.326-1.059-.072-2.469a4.7 4.7 0 0 1 .822-2.036 5.2 5.2 0 0 1 1.639-1.525 7.2 7.2 0 0 1 2.193-.727 6.5 6.5 0 0 1 2.325.054 7.4 7.4 0 0 1 2.253.8 6.6 6.6 0 0 1 1.831 1.452 5.2 5.2 0 0 1 1.128 1.992q.372 1.129.111 2.416l-2.938-.529a1.9 1.9 0 0 0-.031-1.006 2.2 2.2 0 0 0-.445-.899 4.22 4.22 0 0 0-2.437-1.288 3.64 3.64 0 0 0-2.512.306q-.88.51-1.001 1.519-.122.675.112 1.233.263.562.752 1.045.49.483 1.141.903zm32.757 15.509-.529 2.938-14.101-2.538 3.696-20.535 2.908.524-3.167 17.597zm2.226 3.464 3.7-20.564 2.938.528-3.7 20.564zm28.165-16.162-12.837 18.92-.617-.111-5.436-22.208 3.203.576 3.725 15.198 8.789-12.946zm12.877 20.545-.529 2.937-11.868-2.135.005-.03-1.469-.264 3.701-20.564 12.955 2.331-.529 2.938-10.017-1.803-1.073 5.964 7.461 1.343-.528 2.937-7.462-1.342-1.047 5.816zm-73.644-2.014-3.7 20.564-1.381-.249-9.716-16.791-2.622 14.571-2.909-.524 3.701-20.563 1.674.301 9.462 16.351 2.554-14.189zm9.86 23.004a10.55 10.55 0 0 1-3.799-1.472 9.8 9.8 0 0 1-2.849-2.879 10.1 10.1 0 0 1-1.595-3.774 10.7 10.7 0 0 1-.042-3.981 10.7 10.7 0 0 1 1.427-3.716 10.1 10.1 0 0 1 2.811-2.982 10 10 0 0 1 3.668-1.675 10.2 10.2 0 0 1 4.08-.085l18.066 3.251a10 10 0 0 1 3.765 1.496 9.95 9.95 0 0 1 2.883 2.855 10.1 10.1 0 0 1 1.595 3.774q.396 2.013.042 3.981a10.7 10.7 0 0 1-1.427 3.716 10.1 10.1 0 0 1-2.811 2.982 9.7 9.7 0 0 1-3.703 1.699 10.3 10.3 0 0 1-4.044.061zm18.58.401a6.9 6.9 0 0 0 2.832-.066 7.5 7.5 0 0 0 2.636-1.163 7.7 7.7 0 0 0 2.03-2.183 8 8 0 0 0 1.037-2.725 8 8 0 0 0-.022-2.915 7.3 7.3 0 0 0-1.142-2.753 7.4 7.4 0 0 0-2.065-2.009 6.9 6.9 0 0 0-2.631-1.05l-18.067-3.251a7.1 7.1 0 0 0-2.862.061 7.5 7.5 0 0 0-2.606 1.168 7.3 7.3 0 0 0-2.031 2.183 8 8 0 0 0-1.036 2.725 7.9 7.9 0 0 0 .021 2.915 7.7 7.7 0 0 0 1.142 2.753 7.6 7.6 0 0 0 2.036 2.004 7.1 7.1 0 0 0 2.661 1.055zm40.085-11.074-10.986 19.253-.764-.137-2.703-12.618-6.962 10.878-.764-.137-3.584-21.875 3.114.56 2.324 14.218 7.252-11.312 2.824 13.125 7.165-12.51z"/><path fill="#000" d="m217.536 179.238.889-.151-.002-.01-.002-.01zm-1.015 5.641.77.469.005-.009.005-.008zm-1.217 1.54.622.652.006-.005.006-.006zm-1.595 1.108.395.81.005-.002zm-1.926.593.121.894.012-.002.012-.002zm-7.843-1.077.159-.888-.887-.159-.16.887zm-1.137 6.316-.16.887.888.16.159-.888zm-2.938-.529-.887-.16-.159.888.887.159zm3.696-20.535.159-.887-.887-.159-.16.887zm10.6 2.272-.446.784.014.007.014.008zm1.658 1.238-.657.618.008.008.007.008zm1.108 1.595-.818.38.004.007.003.008zm-2.953 5.959-.774-.462-.007.011-.007.013zm.645-3.584-.887.159.001.005zm-.986-1.937-.666.607.004.006.005.005zm-7.663-2.076.159-.887-.887-.16-.159.887zm-1.507 8.372-.887-.159-.16.887.887.16zm5.582 1.005.182-.883-.012-.003-.011-.002zm2.255-.231.36.827.008-.004.009-.004zm4.347-5.518a7.4 7.4 0 0 1-.006 2.599l1.774.319a9.3 9.3 0 0 0 .01-3.221zm-.006 2.599a7.5 7.5 0 0 1-.9 2.438l1.56.904q.826-1.425 1.114-3.023zm-.89 2.421a7.1 7.1 0 0 1-1.081 1.368l1.268 1.282a9 9 0 0 0 1.353-1.712zm-1.069 1.356a5.5 5.5 0 0 1-1.373.953l.8 1.616a7.3 7.3 0 0 0 1.817-1.264zm-1.367.95a6 6 0 0 1-1.677.515l.29 1.779a7.8 7.8 0 0 0 2.176-.673zm-1.653.511a6.4 6.4 0 0 1-1.981-.067l-.319 1.774c.882.159 1.731.19 2.542.08zm-1.981-.067-5.582-1.005-.319 1.775 5.582 1.004zm-6.629-.277-1.136 6.316 1.774.319 1.137-6.316zm-.089 5.588-2.938-.528-.319 1.774 2.937.529zm-2.21.519 3.695-20.535-1.775-.319-3.695 20.534zm2.648-19.807 8.431 1.517.32-1.775-8.432-1.517zm8.431 1.517c.738.133 1.362.354 1.883.651l.892-1.567c-.726-.413-1.549-.695-2.455-.859zm1.911.666c.566.296 1.036.65 1.419 1.057l1.313-1.235a7.1 7.1 0 0 0-1.896-1.42zm1.434 1.073q.583.59.932 1.341l1.635-.76a6.5 6.5 0 0 0-1.284-1.848zm.939 1.356q.368.753.535 1.615l1.77-.343a8.3 8.3 0 0 0-.684-2.062zm-1.368 6.026a5.9 5.9 0 0 0 .758-4.21l-1.773.328a4.1 4.1 0 0 1-.533 2.958zm.758-4.205a4.64 4.64 0 0 0-1.216-2.395l-1.314 1.235c.411.437.656.925.756 1.478zm-1.206-2.385c-.673-.738-1.595-1.173-2.677-1.368l-.319 1.775c.798.143 1.322.433 1.663.807zm-2.677-1.368-5.494-.988-.319 1.774 5.494.989zm-6.54-.261-1.507 8.373 1.774.319 1.507-8.372zm-.78 9.42 5.582 1.004.319-1.775-5.581-1.004zm5.56 1c.96.197 1.901.102 2.797-.287l-.719-1.654a2.77 2.77 0 0 1-1.714.175zm2.814-.295a4.48 4.48 0 0 0 2.085-1.93l-1.576-.876c-.295.53-.709.913-1.262 1.168zm22.369 2.485-.78-.452-.004.008-.005.007zm-1.903 2.145.515.74.011-.007zm-2.619 1.075-.158-.887-1.089.193.409 1.028zm2.966 7.449-.16.887 1.598.288-.601-1.509zm-3.437-.619-.838.334.186.465.492.089zm-2.8-7.024.837-.334-.185-.465-.492-.088zm-4.789-.862.16-.887-.887-.16-.16.888zm-1.136 6.316-.16.888.887.159.16-.887zm-2.938-.528-.887-.16-.16.887.887.16zm3.695-20.535.16-.887-.887-.16-.16.887zm10.601 2.272-.446.783.014.008.014.007zm1.657 1.238-.656.618.007.008.008.008zm1.108 1.595-.817.38.003.007.004.007zm.61 1.838.888-.152-.001-.01-.002-.009zm-13.073 4.896-.887-.16-.16.887.887.16zm5.581 1.004.182-.883-.011-.002-.011-.002zm2.256-.231.359.827.009-.004.008-.003zm1.674-1.548-.774-.463-.007.012-.007.012zm.645-3.584-.888.159.001.004zm-.986-1.937-.667.607.005.005.005.005zm-7.664-2.077.16-.887-.887-.159-.16.887zm9.763 8.68a5.5 5.5 0 0 1-1.639 1.849l1.051 1.466a7.35 7.35 0 0 0 2.165-2.441zm-1.628 1.842a5.65 5.65 0 0 1-2.263.928l.316 1.775a7.4 7.4 0 0 0 2.976-1.223zm-2.943 2.149 2.966 7.448 1.675-.667-2.966-7.448zm3.964 6.228-3.438-.619-.319 1.775 3.437.618zm-2.76-.065-2.8-7.025-1.675.668 2.8 7.024zm-3.477-7.578-4.789-.862-.319 1.774 4.788.862zm-5.836-.134-1.136 6.316 1.774.319 1.137-6.316zm-.09 5.588-2.937-.529-.32 1.775 2.938.529zm-2.21.518 3.696-20.534-1.775-.32-3.695 20.535zm2.649-19.807 8.431 1.518.319-1.775-8.431-1.517zm8.431 1.518c.738.132 1.362.353 1.883.65l.892-1.567c-.726-.413-1.549-.695-2.456-.858zm1.911.665a5.4 5.4 0 0 1 1.419 1.058l1.313-1.236a7.1 7.1 0 0 0-1.896-1.419zm1.434 1.074q.583.589.932 1.341l1.635-.76a6.6 6.6 0 0 0-1.284-1.849zm.939 1.355a6.5 6.5 0 0 1 .535 1.615l1.77-.342a8.3 8.3 0 0 0-.684-2.062zm.531 1.596a7.5 7.5 0 0 1-.006 2.598l1.774.32a9.3 9.3 0 0 0 .009-3.222zm-.006 2.598a7.5 7.5 0 0 1-.9 2.438l1.56.904a9.3 9.3 0 0 0 1.114-3.022zm-12.338 3.033 5.582 1.005.319-1.775-5.582-1.004zm5.56 1a4.57 4.57 0 0 0 2.796-.287l-.718-1.653a2.78 2.78 0 0 1-1.715.174zm2.813-.294a4.48 4.48 0 0 0 2.086-1.93l-1.576-.877a2.68 2.68 0 0 1-1.262 1.168zm2.072-1.906a5.9 5.9 0 0 0 .757-4.21l-1.773.327a4.1 4.1 0 0 1-.532 2.958zm.758-4.206a4.64 4.64 0 0 0-1.216-2.394l-1.314 1.234c.411.438.656.925.755 1.479zm-1.207-2.384c-.672-.738-1.594-1.173-2.676-1.368l-.32 1.774c.799.144 1.323.434 1.663.808zm-2.676-1.368-5.494-.989-.319 1.775 5.493.988zm-6.541-.261-1.506 8.372 1.774.32 1.507-8.373zm19.768 3.496.159-.887-.887-.159-.16.887zm-1.01 5.611-.887-.159-.16.887.887.16zm25.529 4.594.887.16.159-.887-.887-.16zm-.529 2.938-.16.887.888.16.159-.887zm-25.529-4.594.16-.887-.887-.16-.16.887zm-1.11 6.169-.887-.159-.16.887.887.16zm28.114 5.06.887.159.16-.887-.887-.16zm-.529 2.937-.159.887.887.16.16-.887zm-31.051-5.588-.887-.159-.16.887.887.16zm3.7-20.564.16-.887-.887-.159-.16.887zm1.469.265-.159.887.887.16.159-.888zm.006-.03.159-.887-.887-.16-.16.888zm29.788 5.361.887.16.16-.888-.888-.159zm-.529 2.938-.16.887.888.16.159-.888zm-29.207-5.256-1.009 5.611 1.774.319 1.01-5.611zm-.282 6.658 25.529 4.594.319-1.775-25.528-4.594zm24.801 3.547-.528 2.937 1.774.32.529-2.938zm.519 2.21-25.529-4.594-.319 1.774 25.528 4.594zm-26.576-3.867-1.11 6.17 1.774.319 1.111-6.169zm-.383 7.217 28.114 5.059.32-1.775-28.114-5.059zm27.387 4.012-.529 2.938 1.775.319.528-2.938zm.518 2.21-31.052-5.588-.319 1.775 31.052 5.587zm-30.324-4.541 3.701-20.564-1.775-.319-3.7 20.564zm2.654-19.836 1.469.264.319-1.774-1.469-.265zm2.515-.464.006-.029-1.775-.319-.005.029zm-1.041.699 29.788 5.36.319-1.774-29.788-5.361zm29.061 4.313-.529 2.938 1.774.319.529-2.937zm.518 2.21-28.32-5.096-.319 1.775 28.319 5.096zm-67.016 23.873-.477.764.01.006zm2.093 1.347-.508.744zm2.863 3.639-.865.254.003.009zm.064 2.68-.887-.16-.002.009-.001.009zm-1.058 2.509.699.569.007-.008zm-1.959 1.619.412.801.007-.003.007-.004zm-2.503.762.098.896.009-.001.01-.001zm-5.371-.996-.421.797zm-2.045-1.612-.694.575.008.011zm-1.144-2.238-.877.211.003.013.004.013zm-.032-2.856.16-.888-.888-.159-.159.887zm2.938.528.887.16.16-.887-.888-.16zm.032 1.674-.869.239.002.007.002.008zm.691 1.216-.655.62.011.011.011.011zm1.192.791-.362.826.007.003zm3.33.539.082.897.015-.001.014-.002zm1.636-.495.416.8.013-.006.012-.007zm.909-.837-.734-.524-.011.016-.011.017zm.446-1.133-.887-.159-.004.021-.002.021zm-.133-1.449-.843.32.006.015.006.015zm-.784-1.203-.646.629zm-1.273-1.017-.517.738.017.012.017.011zm-1.441-.927-.481.763.011.007.012.007zm-1.986-1.267-.506.746.009.006.009.006zm-2.7-3.367.862-.264zm-.071-2.469.887.159.003-.011.001-.012zm.821-2.036.735.522.006-.008zm1.64-1.525-.417-.799-.021.011-.021.012zm2.193-.727-.136-.892-.008.002zm2.325.054-.182.883.011.002.012.002zm2.252.8.432-.792zm1.832 1.451-.679.593.005.006.004.005zm1.127 1.993-.862.263.003.01.003.01zm.112 2.416-.16.887.867.156.176-.864zm-2.938-.529-.876-.212-.225.93.941.169zm-.031-1.007-.877.21.005.022.007.022zm-.445-.898.695-.575-.022-.026-.023-.024zm-2.437-1.288-.199.879.028.007.03.004zm-2.512.306-.405-.806-.023.012-.023.014zm-1.001 1.518.887.16.005-.026.003-.026zm.112 1.233-.832.348.007.017.008.017zm.752 1.046.632-.642zm1.141.903-.488.757.011.007zm.896 1.622q1.046.635 2.052 1.321l1.016-1.489a46 46 0 0 0-2.133-1.373zm2.052 1.321q.93.636 1.593 1.428l1.382-1.158a9.6 9.6 0 0 0-1.959-1.759zm1.593 1.428c.417.497.722 1.068.914 1.721l1.729-.508a6.5 6.5 0 0 0-1.261-2.371zm.916 1.73c.176.573.209 1.314.039 2.257l1.774.32c.204-1.133.195-2.179-.088-3.104zm.036 2.275c-.136.85-.433 1.536-.873 2.09l1.411 1.122c.657-.826 1.064-1.812 1.242-2.928zm-.867 2.082a5.5 5.5 0 0 1-1.687 1.394l.853 1.588a7.3 7.3 0 0 0 2.232-1.844zm-1.672 1.386a6.7 6.7 0 0 1-2.208.67l.234 1.788a8.5 8.5 0 0 0 2.798-.855zm-2.189.668a8.4 8.4 0 0 1-2.426-.08l-.319 1.775a10.2 10.2 0 0 0 2.941.097zm-2.426-.08a8.3 8.3 0 0 1-2.426-.818l-.842 1.595q1.353.713 2.949.998zm-2.426-.818a6 6 0 0 1-1.781-1.4l-1.371 1.172a7.8 7.8 0 0 0 2.31 1.823zm-1.772-1.389a5 5 0 0 1-.968-1.899l-1.74.473c.263.967.701 1.83 1.32 2.576zm-.962-1.873c-.174-.725-.19-1.549-.021-2.487l-1.774-.319c-.205 1.138-.2 2.219.042 3.227zm-1.068-1.759 2.938.528.319-1.774-2.937-.529zm2.21-.518c-.13.726-.127 1.424.051 2.072l1.738-.478c-.091-.33-.109-.748-.014-1.275zm.055 2.087c.176.6.476 1.133.901 1.582l1.31-1.239a2.05 2.05 0 0 1-.481-.851zm.923 1.604c.413.407.905.73 1.463.974l.724-1.65a3 3 0 0 1-.921-.608zm1.47.978q.835.356 1.779.525l.32-1.774a6.4 6.4 0 0 1-1.389-.409zm1.779.525a7.4 7.4 0 0 0 1.988.082l-.164-1.795a5.6 5.6 0 0 1-1.504-.061zm2.017.079a5.7 5.7 0 0 0 1.941-.589l-.832-1.599a3.9 3.9 0 0 1-1.33.399zm1.966-.602c.5-.281.915-.658 1.224-1.132l-1.512-.983c-.139.213-.33.394-.594.542zm1.201-1.1a3.36 3.36 0 0 0 .607-1.539l-1.787-.235a1.6 1.6 0 0 1-.287.726zm.601-1.497c.121-.677.07-1.34-.19-1.959l-1.662.7c.108.256.146.559.077.94zm-.178-1.929a4.4 4.4 0 0 0-.982-1.512l-1.291 1.258a2.6 2.6 0 0 1 .587.894zm-.982-1.512a8 8 0 0 0-1.436-1.15l-.965 1.523q.656.418 1.11.885zm-1.401-1.127q-.73-.51-1.5-.964l-.916 1.553q.71.418 1.382.888zm-1.477-.95q-1.003-.635-1.978-1.263l-.977 1.516a252 252 0 0 0 1.993 1.272zm-1.96-1.251a7.4 7.4 0 0 1-1.494-1.322l-1.373 1.168a9.2 9.2 0 0 0 1.854 1.646zm-1.494-1.322a4.4 4.4 0 0 1-.851-1.563l-1.723.528a6.1 6.1 0 0 0 1.201 2.203zm-.851-1.563c-.164-.535-.197-1.207-.046-2.046l-1.774-.319c-.187 1.041-.173 2.016.097 2.893zm-.042-2.069c.094-.61.315-1.157.665-1.65l-1.469-1.045a5.6 5.6 0 0 0-.978 2.422zm.671-1.658a4.3 4.3 0 0 1 1.357-1.263l-.917-1.552a6.1 6.1 0 0 0-1.921 1.787zm1.316-1.24a6.3 6.3 0 0 1 1.919-.636l-.287-1.78a8 8 0 0 0-2.466.818zm1.912-.635a5.6 5.6 0 0 1 2.007.046l.365-1.766a7.5 7.5 0 0 0-2.644-.063zm2.03.05a6.5 6.5 0 0 1 1.979.704l.864-1.583a8.3 8.3 0 0 0-2.524-.895zm1.979.704a5.7 5.7 0 0 1 1.585 1.253l1.358-1.186a7.5 7.5 0 0 0-2.079-1.65zm1.594 1.264c.434.481.745 1.029.935 1.652l1.724-.527a6.1 6.1 0 0 0-1.32-2.332zm.941 1.672c.195.587.231 1.232.084 1.953l1.767.359c.203-.995.164-1.961-.139-2.878zm1.127 1.245-2.938-.528-.319 1.774 2.938.529zm-2.221.57c.119-.49.1-.986-.042-1.472l-1.73.508c.058.198.06.373.02.541zm-.031-1.427a3.1 3.1 0 0 0-.626-1.264l-1.39 1.149c.126.152.213.326.263.534zm-.671-1.314a5.13 5.13 0 0 0-2.946-1.554l-.282 1.781c.743.118 1.379.45 1.928 1.022zm-2.888-1.542a4.55 4.55 0 0 0-3.116.379l.81 1.612a2.74 2.74 0 0 1 1.908-.233zm-3.162.405c-.833.481-1.331 1.236-1.445 2.191l1.79.215c.047-.392.216-.648.557-.846zm-1.437 2.139c-.108.597-.064 1.187.167 1.74l1.663-.695c-.079-.191-.11-.423-.056-.726zm.182 1.774c.225.482.541.917.936 1.306l1.265-1.284a2.7 2.7 0 0 1-.567-.785zm.936 1.306q.564.555 1.286 1.018l.977-1.515a6.2 6.2 0 0 1-.998-.787zm1.297 1.025 1.363.852.955-1.529-1.363-.852zm26.54 17.21-.159.887 1.324.238-.283-1.315zm-3.143-.566-.881.192.128.589.593.106zm-1.079-4.956.88-.192-.128-.588-.593-.107zm-8.667-1.559.16-.888-.593-.106-.325.507zm-2.739 4.268-.16.887.593.107.326-.507zm-3.143-.565-.76-.486-.725 1.134 1.325.239zm12.161-19.042.159-.887-.594-.107-.325.509zm1.85.333.882-.19-.128-.59-.594-.107zm-.138 13.411-.16.887 1.322.238-.281-1.314zm-1.745-8.169.882-.189-.458-2.144-1.183 1.846zm-4.513 7.043-.759-.487-.727 1.135 1.327.239zm11.316 8.914-3.143-.565-.32 1.774 3.144.566zm-2.422.13-1.08-4.956-1.761.384 1.079 4.956zm-1.801-5.651-8.666-1.56-.319 1.775 8.666 1.559zm-9.584-1.159-2.74 4.268 1.518.974 2.739-4.268zm-1.821 3.868-3.144-.566-.319 1.775 3.143.565zm-2.544.807 12.161-19.042-1.519-.97-12.161 19.041zm11.242-18.64 1.851.333.319-1.774-1.851-.333zm1.129-.364 4.76 22.087 1.763-.38-4.76-22.087zm1.624 13.032-1.744-8.169-1.764.377 1.745 8.169zm-3.385-8.467-4.513 7.043 1.519.973 4.512-7.043zm-3.913 8.417 6.257 1.126.319-1.774-6.257-1.127zm28.697 8.979.887.16.16-.887-.888-.16zm-.529 2.938-.16.887.888.16.159-.887zM232.29 228.1l-.887-.159-.16.887.887.16zm3.695-20.534.16-.887-.887-.16-.16.887zm2.909.523.887.16.16-.887-.888-.16zm-3.167 17.597-.887-.159-.16.887.887.159zm10.305 1.855-.528 2.937 1.774.32.529-2.938zm.519 2.21-14.101-2.538-.32 1.775 14.101 2.537zm-13.374-1.491 3.696-20.534-1.775-.32-3.695 20.535zm2.649-19.807 2.908.524.319-1.775-2.908-.523zm2.18-.523-3.166 17.597 1.774.319 3.167-17.597zm-2.439 18.643 11.193 2.015.319-1.775-11.192-2.014zm27.468 4.088.888.16.159-.887-.887-.16zm-.528 2.938-.16.887.887.16.16-.888zm-11.869-2.136-.887-.16-.159.888.887.159zm.006-.029.887.159.16-.887-.888-.16zm-1.469-.265-.887-.159-.16.887.887.16zm3.7-20.564.16-.887-.887-.159-.16.887zm12.956 2.332.887.159.16-.887-.888-.159zm-.529 2.938-.16.887.888.159.159-.887zm-10.018-1.803.16-.887-.887-.16-.16.887zm-1.073 5.963-.887-.159-.16.887.888.16zm7.462 1.343.887.16.16-.887-.887-.16zm-.529 2.938-.159.887.887.16.16-.888zm-7.461-1.343.159-.887-.887-.16-.16.887zm-1.047 5.817-.887-.16-.16.887.887.16zm9.512 1.711-.529 2.938 1.775.319.529-2.937zm.518 2.211-11.868-2.136-.319 1.774 11.868 2.136zm-11.14-1.089.005-.03-1.775-.319-.005.029zm-.723-1.077-1.468-.264-.32 1.775 1.469.264zm-.741.783 3.701-20.564-1.775-.319-3.7 20.564zm2.654-19.836 12.955 2.331.319-1.774-12.955-2.332zm12.227 1.284-.528 2.938 1.774.319.529-2.938zm.519 2.21-10.018-1.802-.319 1.774 10.017 1.803zm-11.065-1.075-1.073 5.964 1.775.319 1.073-5.964zm-.345 7.011 7.461 1.342.32-1.774-7.462-1.343zm6.734.295-.529 2.938 1.775.319.528-2.937zm.518 2.211-7.462-1.343-.319 1.774 7.462 1.343zm-8.509-.616-1.046 5.817 1.774.319 1.047-5.816zm-.319 6.864 10.4 1.871.319-1.774-10.399-1.872zm-74.529 18.14-.887-.159-.16.887.888.16zm3.701-20.564.159-.887-.887-.159-.159.887zm2.937.529.888.16.159-.887-.887-.16zm-3.7 20.564-.16.887.887.16.16-.887zm-2.051-.369 3.701-20.564-1.774-.319-3.701 20.564zm2.654-19.836 2.938.528.319-1.774-2.938-.529zm2.21-.519-3.7 20.564 1.774.32 3.701-20.564zm-2.653 19.837-2.938-.529-.319 1.775 2.937.528zm13.383-9.353-.478.764.01.007zm2.092 1.347-.508.745zm2.864 3.639-.865.254.003.01zm.063 2.68-.887-.159-.002.009-.001.008zm-1.058 2.509.699.569.007-.008zm-1.959 1.619.412.802.007-.004.008-.004zm-2.503.763.098.896.009-.001.01-.001zm-5.371-.997-.421.797zm-2.045-1.612-.694.576.009.01zm-1.144-2.238-.877.211.003.013.004.013zm-.032-2.856.16-.887-.888-.16-.159.887zm2.938.529.887.159.16-.887-.888-.16zm.032 1.673-.869.239.002.008.002.007zm.691 1.217-.655.619.011.012.011.011zm1.192.79-.362.826.007.003zm3.33.539.082.898.015-.002.014-.001zm1.636-.494.416.799.013-.006.012-.007zm.909-.837-.733-.525-.012.016-.011.017zm.446-1.133-.887-.16-.004.021-.002.021zm-.133-1.45-.843.32.006.015.006.015zm-.784-1.202-.646.629zm-1.273-1.018-.517.739.017.011.017.011zm-1.441-.926-.481.762.012.007.011.007zm-1.986-1.268-.506.746.009.006.009.006zm-2.699-3.367.861-.264zm-.072-2.469.888.16.002-.012.001-.012zm.822-2.036.734.522.006-.008zm1.639-1.525-.417-.799-.021.011-.021.012zm2.193-.727-.136-.891-.007.001zm2.325.054-.182.883.011.003.012.002zm2.253.8.432-.791zm1.831 1.452-.679.593.005.005.005.005zm1.128 1.992-.863.264.003.009.004.01zm.111 2.416-.16.887.867.156.176-.863zm-2.938-.529-.876-.211-.225.929.941.169zm-.031-1.006-.877.209.005.023.007.022zm-.445-.899.695-.574-.022-.026-.023-.025zm-2.437-1.288-.199.879.029.007.029.004zm-2.512.306-.404-.805-.024.012-.023.013zm-1.001 1.519.887.159.005-.026.003-.026zm.112 1.233-.832.348.007.017.008.016zm.752 1.045.633-.642zm1.141.903-.488.758.011.006zm.896 1.623q1.045.634 2.052 1.321l1.016-1.49a47 47 0 0 0-2.133-1.373zm2.052 1.321q.93.635 1.593 1.428l1.382-1.159a9.6 9.6 0 0 0-1.959-1.759zm1.593 1.428c.417.497.722 1.067.914 1.72l1.73-.508a6.5 6.5 0 0 0-1.262-2.371zm.917 1.73c.175.572.208 1.313.038 2.257l1.774.319c.204-1.132.195-2.179-.088-3.104zm.035 2.274c-.135.85-.433 1.537-.873 2.09l1.411 1.122c.657-.826 1.065-1.812 1.242-2.928zm-.867 2.082a5.5 5.5 0 0 1-1.687 1.394l.854 1.588a7.3 7.3 0 0 0 2.231-1.844zm-1.672 1.386a6.7 6.7 0 0 1-2.208.671l.234 1.788a8.5 8.5 0 0 0 2.798-.855zm-2.189.669a8.4 8.4 0 0 1-2.426-.08l-.319 1.774q1.452.262 2.941.098zm-2.426-.08a8.3 8.3 0 0 1-2.426-.818l-.842 1.594q1.353.713 2.949.998zm-2.426-.818a6 6 0 0 1-1.781-1.4l-1.37 1.171a7.8 7.8 0 0 0 2.309 1.823zm-1.772-1.39a5 5 0 0 1-.968-1.899l-1.74.473c.263.967.701 1.83 1.32 2.576zm-.962-1.873c-.174-.725-.189-1.549-.021-2.486l-1.774-.32c-.205 1.139-.2 2.219.042 3.227zm-1.068-1.759 2.938.529.319-1.775-2.937-.528zm2.211-.518c-.131.726-.128 1.424.05 2.072l1.738-.477c-.09-.331-.109-.749-.014-1.276zm.054 2.087c.176.601.476 1.133.901 1.582l1.31-1.239a2.05 2.05 0 0 1-.481-.851zm.923 1.605c.413.407.906.729 1.463.974l.725-1.651a3 3 0 0 1-.922-.608zm1.47.977q.835.356 1.78.526l.319-1.775a6.4 6.4 0 0 1-1.389-.408zm1.78.526q.976.174 1.987.082l-.164-1.796a5.6 5.6 0 0 1-1.504-.061zm2.016.079a5.7 5.7 0 0 0 1.941-.59l-.832-1.599a3.9 3.9 0 0 1-1.33.399zm1.966-.603c.501-.28.915-.657 1.224-1.132l-1.512-.983c-.138.213-.33.394-.594.542zm1.201-1.099a3.36 3.36 0 0 0 .607-1.54l-1.787-.235a1.6 1.6 0 0 1-.286.726zm.601-1.498c.122-.677.07-1.34-.19-1.958l-1.662.699c.108.256.146.56.077.94zm-.178-1.928a4.4 4.4 0 0 0-.982-1.513l-1.291 1.259c.281.288.471.586.587.893zm-.982-1.513a8 8 0 0 0-1.435-1.149l-.966 1.522c.439.278.806.574 1.11.886zm-1.401-1.127q-.729-.51-1.5-.964l-.916 1.553q.711.419 1.382.889zm-1.476-.95q-1.004-.633-1.979-1.262l-.977 1.515a252 252 0 0 0 1.993 1.272zm-1.961-1.251a7.4 7.4 0 0 1-1.494-1.322l-1.373 1.169a9.2 9.2 0 0 0 1.854 1.645zm-1.494-1.322a4.3 4.3 0 0 1-.851-1.563l-1.723.529a6.1 6.1 0 0 0 1.201 2.203zm-.851-1.563c-.164-.535-.196-1.207-.045-2.045l-1.775-.32c-.187 1.042-.173 2.016.097 2.894zm-.042-2.069a3.8 3.8 0 0 1 .665-1.65l-1.469-1.044a5.6 5.6 0 0 0-.978 2.422zm.671-1.658a4.3 4.3 0 0 1 1.357-1.262l-.917-1.553a6.1 6.1 0 0 0-1.921 1.787zm1.316-1.239a6.3 6.3 0 0 1 1.919-.637l-.286-1.78a8.1 8.1 0 0 0-2.467.818zm1.912-.636a5.7 5.7 0 0 1 2.007.046l.365-1.765a7.4 7.4 0 0 0-2.644-.063zm2.03.051a6.5 6.5 0 0 1 1.979.703l.865-1.582a8.3 8.3 0 0 0-2.525-.896zm1.979.703a5.7 5.7 0 0 1 1.585 1.254l1.358-1.186a7.5 7.5 0 0 0-2.078-1.65zm1.595 1.264c.433.481.744 1.029.934 1.653l1.725-.528a6.1 6.1 0 0 0-1.321-2.332zm.941 1.672c.194.588.23 1.232.083 1.953l1.767.36c.203-.996.165-1.962-.139-2.879zm1.126 1.246-2.937-.529-.32 1.774 2.938.529zm-2.221.57c.119-.491.1-.987-.042-1.472l-1.73.508c.058.198.06.373.02.541zm-.03-1.428a3.1 3.1 0 0 0-.627-1.263l-1.39 1.148c.126.152.213.326.263.534zm-.672-1.314c-.813-.846-1.802-1.372-2.946-1.553l-.282 1.78c.743.118 1.379.451 1.928 1.022zm-2.888-1.542a4.54 4.54 0 0 0-3.115.38l.809 1.611a2.75 2.75 0 0 1 1.908-.233zm-3.162.405c-.832.481-1.331 1.237-1.445 2.191l1.79.215c.047-.391.216-.648.557-.845zm-1.437 2.139c-.108.597-.064 1.188.167 1.741l1.663-.696c-.079-.191-.11-.422-.056-.726zm.182 1.774c.225.482.541.917.936 1.306l1.266-1.284a2.7 2.7 0 0 1-.568-.784zm.936 1.306q.565.554 1.286 1.019l.977-1.516a6.2 6.2 0 0 1-.997-.787zm1.297 1.025 1.363.852.955-1.529-1.363-.852zm34.598 15.597.887.159.16-.887-.887-.159zm-.529 2.938-.159.887.887.159.16-.887zm-14.101-2.538-.887-.16-.16.888.888.159zm3.696-20.535.159-.887-.887-.159-.16.887zm2.908.524.887.159.16-.887-.887-.159zm-3.167 17.597-.887-.16-.16.887.888.16zm10.306 1.854-.529 2.938 1.775.319.528-2.938zm.518 2.21-14.101-2.537-.319 1.774 14.101 2.538zm-13.373-1.49 3.695-20.535-1.775-.319-3.695 20.534zm2.648-19.807 2.908.523.32-1.774-2.909-.524zm2.181-.524-3.167 17.597 1.775.319 3.166-17.597zm-2.439 18.644 11.192 2.014.32-1.774-11.193-2.015zm13.578 4.591-.887-.16-.16.887.887.16zm3.7-20.564.16-.888-.887-.159-.16.887zm2.938.528.887.16.16-.887-.887-.16zm-3.7 20.564-.16.887.887.16.16-.887zm-2.051-.369 3.701-20.564-1.775-.319-3.7 20.564zm2.654-19.836 2.937.529.32-1.775-2.938-.529zm2.21-.518-3.701 20.564 1.775.319 3.7-20.564zm-2.654 19.836-2.937-.529-.32 1.775 2.938.528zm25.068-15.803.746.506.779-1.147-1.366-.246zm-12.837 18.92-.16.887.577.104.329-.485zm-.617-.111-.876.214.14.569.576.104zm-5.436-22.208.16-.887-1.365-.246.33 1.347zm3.203.576.875-.214-.139-.569-.577-.104zm3.725 15.198-.876.214.483 1.969 1.138-1.677zm8.789-12.946.16-.887-.577-.104-.329.485zm2.427.065-12.837 18.92 1.492 1.012 12.837-18.92zm-11.931 18.539-.617-.111-.32 1.774.617.111zm.099.562-5.436-22.208-1.751.428 5.435 22.208zm-6.471-21.107 3.202.576.319-1.774-3.202-.576zm2.486-.096 3.725 15.197 1.751-.429-3.725-15.197zm5.346 15.489 8.79-12.945-1.492-1.013-8.789 12.945zm7.884-12.565 3.173.571.319-1.774-3.172-.571zm16.21 20.229.887.159.16-.887-.888-.16zm-.529 2.937-.16.888.888.159.159-.887zm-11.868-2.135-.888-.16-.159.887.887.16zm.005-.03.887.16.16-.887-.887-.16zm-1.469-.264-.887-.16-.16.888.887.159zm3.701-20.564.159-.887-.887-.16-.159.887zm12.955 2.331.887.16.16-.887-.887-.16zm-.529 2.938-.159.887.887.16.16-.887zm-10.017-1.803.159-.887-.887-.159-.159.887zm-1.073 5.964-.888-.16-.159.888.887.159zm7.461 1.343.888.159.159-.887-.887-.159zm-.528 2.937-.16.888.887.159.16-.887zm-7.462-1.342.16-.888-.888-.159-.159.887zm-1.047 5.816-.887-.159-.16.887.888.16zm9.512 1.712-.528 2.938 1.774.319.529-2.938zm.519 2.21-11.869-2.136-.319 1.775 11.868 2.136zm-11.141-1.089.005-.029-1.774-.319-.006.029zm-.722-1.076-1.469-.264-.32 1.774 1.469.265zm-.742.783 3.701-20.564-1.774-.32-3.701 20.564zm2.654-19.837 12.955 2.332.32-1.775-12.956-2.331zm12.228 1.285-.529 2.937 1.775.32.528-2.938zm.518 2.21-10.018-1.803-.319 1.775 10.018 1.802zm-11.064-1.075-1.074 5.963 1.775.32 1.073-5.964zm-.346 7.01 7.462 1.343.319-1.774-7.462-1.343zm6.734.296-.529 2.938 1.775.319.529-2.938zm.518 2.21-7.461-1.343-.32 1.775 7.462 1.343zm-8.508-.615-1.047 5.817 1.774.319 1.047-5.817zm-.319 6.864 10.399 1.871.319-1.775-10.399-1.871zm-63.085-1.03.888.159.159-.887-.887-.16zm-3.7 20.564-.16.887.887.159.16-.887zm-1.381-.249-.78.452.209.361.411.074zm-9.716-16.791.78-.452-1.232-2.129-.435 2.421zm-2.622 14.571-.16.887.887.16.16-.888zm-2.909-.524-.887-.159-.16.887.888.16zm3.701-20.563.16-.888-.888-.159-.159.887zm1.674.301.781-.452-.21-.361-.411-.074zm9.462 16.351-.78.452 1.232 2.129.435-2.421zm2.554-14.189.159-.887-.887-.16-.16.887zm2.05.369-3.7 20.564 1.774.319 3.701-20.564zm-2.654 19.836-1.38-.248-.32 1.774 1.381.249zm-.76.188-9.716-16.792-1.56.903 9.716 16.792zm-11.383-16.5-2.623 14.571 1.775.319 2.622-14.571zm-1.576 13.844-2.908-.524-.319 1.775 2.908.523zm-2.18.523 3.7-20.564-1.774-.319-3.701 20.564zm2.653-19.836 1.675.301.319-1.774-1.674-.302zm1.054-.135 9.462 16.352 1.561-.903-9.462-16.352zm11.129 16.06 2.554-14.189-1.775-.32-2.553 14.189zm1.507-13.462 2.938.529.319-1.775-2.938-.528zm9.158 21.174-.496.752.007.005.007.005zm-2.849-2.879.756-.491-.005-.008-.005-.008zm-1.595-3.774.885-.175zm1.385-7.697-.768-.472zm2.811-2.982.522.735.008-.005zm3.668-1.675-.197-.88-.005.001zm25.911 4.662-.496.753.004.003zm2.883 2.855-.751.499.006.008zm1.595 3.774.885-.174zm-4.196 10.679-.522-.735-.007.005-.008.006zm-3.703 1.699.191.881.007-.001zm-.699-2.855-.198-.88-.007.002zm2.636-1.163.514.74.01-.007.01-.007zm2.03-2.183.768.472.004-.005zm1.015-5.64-.885.168zm-1.142-2.753.747-.504-.007-.011zm-2.065-2.009-.498.751.006.004zm-23.56-4.24-.198-.88-.007.002zm-2.606 1.168-.515-.74-.01.007zm-2.031 2.183.772.466zm-1.015 5.64-.885.168.001.007zm1.142 2.753-.753.494.006.011.007.01zm2.036 2.004-.499.751.007.004zm2.308 3.018a9.7 9.7 0 0 1-3.477-1.347l-.964 1.524a11.4 11.4 0 0 0 4.121 1.597zm-3.463-1.338a8.9 8.9 0 0 1-2.589-2.617l-1.511.983a10.7 10.7 0 0 0 3.108 3.139zm-2.599-2.633a9.2 9.2 0 0 1-1.456-3.442l-1.769.349a11 11 0 0 0 1.734 4.108zm-1.456-3.442a9.8 9.8 0 0 1-.04-3.646l-1.774-.32a11.5 11.5 0 0 0 .045 4.315zm-.04-3.646a9.8 9.8 0 0 1 1.309-3.405l-1.537-.943a11.6 11.6 0 0 0-1.546 4.028zm1.309-3.405a9.2 9.2 0 0 1 2.564-2.718l-1.043-1.47a11 11 0 0 0-3.058 3.245zm2.572-2.723a9.1 9.1 0 0 1 3.341-1.527l-.405-1.757a10.9 10.9 0 0 0-3.995 1.824zm3.336-1.526a9.3 9.3 0 0 1 3.722-.077l.319-1.774a11.1 11.1 0 0 0-4.436.092zm3.722-.077 18.067 3.251.319-1.774-18.067-3.251zm18.067 3.251a9.1 9.1 0 0 1 3.428 1.362l.992-1.505a10.9 10.9 0 0 0-4.101-1.631zm3.432 1.365a9 9 0 0 1 2.624 2.598l1.502-.999a10.85 10.85 0 0 0-3.142-3.11zm2.63 2.606a9.2 9.2 0 0 1 1.456 3.442l1.769-.349a11.1 11.1 0 0 0-1.735-4.108zm1.456 3.442a9.8 9.8 0 0 1 .039 3.646l1.774.32a11.6 11.6 0 0 0-.044-4.315zm.039 3.646a9.8 9.8 0 0 1-1.308 3.405l1.537.943a11.6 11.6 0 0 0 1.545-4.028zm-1.308 3.405a9.2 9.2 0 0 1-2.565 2.718l1.044 1.47a11.05 11.05 0 0 0 3.058-3.245zm-2.58 2.729a8.85 8.85 0 0 1-3.363 1.544l.395 1.759a10.65 10.65 0 0 0 4.042-1.855zm-3.356 1.542a9.4 9.4 0 0 1-3.694.055l-.32 1.774q2.227.401 4.395-.067zm-3.694.055-18.067-3.251-.32 1.774 18.067 3.251zm.193-1.075a7.8 7.8 0 0 0 3.197-.076l-.41-1.756a6 6 0 0 1-2.468.057zm3.19-.075a8.4 8.4 0 0 0 2.952-1.302l-1.029-1.481a6.5 6.5 0 0 1-2.319 1.025zm2.972-1.316a8.6 8.6 0 0 0 2.264-2.437l-1.536-.944a6.8 6.8 0 0 1-1.797 1.928zm2.268-2.442a8.9 8.9 0 0 0 1.152-3.032l-1.775-.319a7 7 0 0 1-.92 2.418zm1.152-3.032a8.9 8.9 0 0 0-.023-3.243l-1.771.336c.166.879.172 1.739.019 2.588zm-.023-3.243a8.2 8.2 0 0 0-1.281-3.089l-1.494 1.008q.76 1.128 1.004 2.417zm-1.288-3.1a8.3 8.3 0 0 0-2.313-2.25l-.984 1.511a6.55 6.55 0 0 1 1.817 1.768zm-2.306-2.246a7.8 7.8 0 0 0-2.971-1.185l-.319 1.774a6 6 0 0 1 2.293.914zm-2.971-1.185-18.067-3.252-.319 1.775 18.067 3.251zm-18.067-3.252a8 8 0 0 0-3.219.069l.396 1.759a6.2 6.2 0 0 1 2.504-.053zm-3.226.071a8.5 8.5 0 0 0-2.916 1.306l1.029 1.481a6.6 6.6 0 0 1 2.297-1.031zm-2.926 1.313a8.2 8.2 0 0 0-2.277 2.449l1.543.933a6.4 6.4 0 0 1 1.783-1.915zm-2.277 2.449a8.8 8.8 0 0 0-1.152 3.032l1.774.319a7 7 0 0 1 .921-2.418zm-1.152 3.032a8.8 8.8 0 0 0 .023 3.243l1.771-.336a7.1 7.1 0 0 1-.02-2.588zm.024 3.25a8.6 8.6 0 0 0 1.273 3.072l1.507-.988a6.8 6.8 0 0 1-1.011-2.434zm1.286 3.093a8.5 8.5 0 0 0 2.277 2.24l.997-1.502a6.6 6.6 0 0 1-1.793-1.767zm2.284 2.244a8 8 0 0 0 2.993 1.188l.319-1.775a6.2 6.2 0 0 1-2.328-.923zm2.993 1.188 18.067 3.251.319-1.775-18.067-3.251zm58.312-8.711.783.447.632-1.108-1.255-.226zm-10.986 19.253-.16.887.627.113.316-.553zm-.764-.137-.881.188.126.592.596.107zm-2.703-12.618.882-.189-.46-2.144-1.181 1.847zm-6.962 10.878-.159.887.593.107.326-.508zm-.764-.137-.889.146.103.628.627.113zm-3.584-21.875.159-.887-1.255-.226.206 1.259zm3.114.56.889-.145-.103-.629-.627-.113zm2.324 14.218-.89.145.38 2.321 1.269-1.98zm7.252-11.312.881-.189-.46-2.138-1.18 1.841zm2.824 13.125-.881.19.495 2.299 1.168-2.041zm7.165-12.51.159-.887-.626-.113-.316.552zm2.301.108-10.986 19.253 1.566.894 10.986-19.253zm-10.043 18.813-.764-.138-.319 1.775.763.137zm-.042.561-2.703-12.618-1.763.378 2.703 12.617zm-4.344-12.915-6.962 10.878 1.519.972 6.961-10.878zm-6.043 10.477-.764-.137-.319 1.774.764.137zm-.034.604-3.585-21.875-1.779.292 3.585 21.875zm-4.634-20.842 3.114.56.319-1.774-3.114-.56zm2.384-.181 2.324 14.217 1.779-.291-2.324-14.217zm3.973 14.558 7.252-11.311-1.518-.973-7.252 11.311zm5.612-11.608 2.824 13.125 1.762-.379-2.824-13.125zm4.487 13.383 7.165-12.51-1.565-.896-7.164 12.51zm6.223-12.071 3.085.555.319-1.774-3.085-.555z"/></svg>