<svg xmlns="http://www.w3.org/2000/svg" width="457" height="457" fill="none"><path fill="#00FFC4" stroke="#000" d="m339.712 143.57 2.261-4.105-4.528 1.207-53.951 14.374-1.116-55.822-.094-4.685-3.318 3.309-39.536 39.424-28.878-47.785-2.423-4.01-1.22 4.524-14.527 53.91-48.901-26.944-4.104-2.261 1.206 4.528 14.374 53.951-55.822 1.116-4.684.094 3.308 3.318 39.424 39.536-47.785 28.878-4.01 2.423 4.524 1.219 53.911 14.527-26.945 48.902-2.261 4.104 4.528-1.206 53.951-14.375 1.116 55.822.094 4.685 3.318-3.308 39.536-39.425 28.878 47.786 2.424 4.01 1.219-4.525 14.527-53.91 48.901 26.944 4.104 2.262-1.206-4.528-14.374-53.951 55.822-1.117 4.685-.093-3.309-3.318-39.424-39.536 47.785-28.878 4.01-2.424-4.524-1.219-53.911-14.527z"/><path fill="#000" d="M181.246 231.942q1.304.841 1.945 2.17.674 1.305.326 3.243-.26 1.44-1.024 2.485a5.9 5.9 0 0 1-1.783 1.65 6.3 6.3 0 0 1-2.361.819 7.9 7.9 0 0 1-2.6-.043 8.2 8.2 0 0 1-2.429-.832 6.7 6.7 0 0 1-1.874-1.55 6.1 6.1 0 0 1-1.066-2.163q-.298-1.207-.045-2.617l2.908.524a2.76 2.76 0 0 0 .217 1.828q.42.864 1.273 1.351a4.9 4.9 0 0 0 2.957.593 3.4 3.4 0 0 0 1.286-.405 3.3 3.3 0 0 0 1.032-.846q.428-.53.571-1.322.17-.94-.096-1.656a2.76 2.76 0 0 0-.785-1.202 3.8 3.8 0 0 0-1.309-.812 7.3 7.3 0 0 0-1.584-.467l.528-2.938a7.3 7.3 0 0 0 1.496.118 3.9 3.9 0 0 0 1.353-.272 2.6 2.6 0 0 0 1.05-.782q.458-.524.612-1.376.132-.735-.067-1.316a2.8 2.8 0 0 0-.605-1.019 3.4 3.4 0 0 0-.992-.724 4.3 4.3 0 0 0-1.202-.398 3.8 3.8 0 0 0-1.482-.024 2.56 2.56 0 0 0-1.496.731 2.5 2.5 0 0 0-.716 1.448l-2.908-.523q.238-1.322.898-2.295a5.6 5.6 0 0 1 1.645-1.554 6 6 0 0 1 2.169-.762 7.3 7.3 0 0 1 2.419.041q1.263.227 2.335.845a5.7 5.7 0 0 1 1.791 1.505q.75.892 1.053 2.07.34 1.152.095 2.504-.317 1.762-1.271 2.682-.924.926-2.264 1.291m20.641-6.536-.317 1.763-11.398 17.328-3.173-.571 10.687-16.243-9.782-1.761.528-2.937zm20.892 14.405q-.402 2.233-1.485 4.039a10.3 10.3 0 0 1-2.694 3.003q-1.605 1.167-3.662 1.646-2.024.455-4.373.032-1.851-.333-3.294-1.078a10.3 10.3 0 0 1-2.489-1.843 9.5 9.5 0 0 1-1.668-2.362 12.6 12.6 0 0 1-.902-2.741 11.9 11.9 0 0 1-.026-4.402 12.2 12.2 0 0 1 1.565-4.146 11.7 11.7 0 0 1 1.83-2.249 9.2 9.2 0 0 1 2.392-1.662 10.4 10.4 0 0 1 2.945-.865q1.618-.225 3.469.108 2.32.418 4.077 1.614a9.8 9.8 0 0 1 2.853 2.848 10.3 10.3 0 0 1 1.478 3.754q.386 2.071-.016 4.304m-4.101 2.567a9.1 9.1 0 0 0 1.163-3.096 9.4 9.4 0 0 0-.006-3.337 8 8 0 0 0-.681-1.942 5.9 5.9 0 0 0-1.186-1.67 7 7 0 0 0-1.764-1.318q-1.024-.548-2.346-.786-1.704-.307-3.196.062a6.9 6.9 0 0 0-2.616 1.227 7.6 7.6 0 0 0-1.908 2.174 9.2 9.2 0 0 0-1.044 2.936 9.1 9.1 0 0 0-.045 3.116q.28 1.476 1.03 2.703a7.1 7.1 0 0 0 2.03 2.033q1.275.835 2.979 1.143 1.321.237 2.472.081 1.18-.153 2.108-.592a7.3 7.3 0 0 0 1.723-1.145 7.2 7.2 0 0 0 1.287-1.589m26.089-.733q1.067.647 2.093 1.347a8.7 8.7 0 0 1 1.776 1.593 5.6 5.6 0 0 1 1.087 2.046q.344 1.123.064 2.68-.236 1.474-1.058 2.509a6.4 6.4 0 0 1-1.96 1.619 7.6 7.6 0 0 1-2.503.762q-1.361.15-2.683-.088a9.2 9.2 0 0 1-2.687-.908 6.9 6.9 0 0 1-2.046-1.612 5.9 5.9 0 0 1-1.144-2.238q-.312-1.299-.031-2.856l2.937.528q-.169.94.033 1.674.207.705.691 1.216.489.483 1.192.791a7.3 7.3 0 0 0 1.584.467q.852.153 1.746.072a4.8 4.8 0 0 0 1.636-.494 2.56 2.56 0 0 0 .909-.838 2.5 2.5 0 0 0 .446-1.132q.143-.793-.133-1.45a3.5 3.5 0 0 0-.785-1.203 7 7 0 0 0-1.272-1.017 22 22 0 0 0-1.441-.927q-1.008-.636-1.986-1.267a8.3 8.3 0 0 1-1.674-1.484 5.3 5.3 0 0 1-1.026-1.883q-.325-1.059-.071-2.469a4.7 4.7 0 0 1 .821-2.036 5.2 5.2 0 0 1 1.639-1.525 7.2 7.2 0 0 1 2.194-.727 6.5 6.5 0 0 1 2.325.054 7.4 7.4 0 0 1 2.252.8 6.6 6.6 0 0 1 1.831 1.451q.784.87 1.128 1.993.374 1.129.111 2.416l-2.938-.529q.12-.494-.031-1.006a2.2 2.2 0 0 0-.444-.899q-1.023-1.063-2.438-1.288a3.64 3.64 0 0 0-2.511.306q-.88.508-1.001 1.518-.121.676.111 1.234.263.562.752 1.045.49.482 1.142.903zm27.188-.749a10.95 10.95 0 0 1 1.569 3.922q.386 2.071.026 4.069t-1.443 3.804a11 11 0 0 1-2.837 3.129 9.9 9.9 0 0 1-3.714 1.758 9.7 9.7 0 0 1-4.055.119 9.8 9.8 0 0 1-3.759-1.525 10 10 0 0 1-2.838-2.937 10.95 10.95 0 0 1-1.569-3.922 11.2 11.2 0 0 1-.026-4.069q.36-1.998 1.443-3.804a10.9 10.9 0 0 1 2.838-3.129 10 10 0 0 1 3.684-1.763 9.8 9.8 0 0 1 4.055-.12 9.7 9.7 0 0 1 3.759 1.526 9.9 9.9 0 0 1 2.867 2.942m-4.441 12.545a7.9 7.9 0 0 0 2.046-2.27 8.5 8.5 0 0 0 1.052-2.813 8.3 8.3 0 0 0-.01-2.974 7.8 7.8 0 0 0-1.122-2.871 7.3 7.3 0 0 0-2.024-2.063 6.7 6.7 0 0 0-2.656-1.084 6.8 6.8 0 0 0-2.867.091 7.4 7.4 0 0 0-2.588 1.232 8.2 8.2 0 0 0-2.081 2.295 8.3 8.3 0 0 0-1.046 2.784 8.5 8.5 0 0 0 .005 3.003 8.3 8.3 0 0 0 1.156 2.847 7.4 7.4 0 0 0 1.995 2.057q1.216.825 2.656 1.085a6.7 6.7 0 0 0 2.867-.091 7.3 7.3 0 0 0 2.617-1.228m22.289 5.922-.528 2.938-14.101-2.538 3.695-20.534 2.908.523-3.166 17.597zm-97.087 4.109a6.45 6.45 0 0 1-1.903 2.145 6.5 6.5 0 0 1-2.619 1.075l2.966 7.449-3.437-.619-2.8-7.024-4.789-.862-1.136 6.316-2.938-.528 3.695-20.535 8.432 1.517q1.233.222 2.169.755a6.2 6.2 0 0 1 1.657 1.238q.693.7 1.108 1.595.421.864.61 1.838.25 1.47-.008 2.91a8.4 8.4 0 0 1-1.007 2.73m-12.058-.744 5.581 1.004q1.17.242 2.256-.231a3.58 3.58 0 0 0 1.674-1.549 5 5 0 0 0 .645-3.584 3.74 3.74 0 0 0-.986-1.936q-.76-.834-2.17-1.088l-5.494-.989zm31.369 15.168-3.143-.566-1.08-4.955-8.666-1.56-2.739 4.269-3.144-.566 12.161-19.041 1.851.333zm-4.898-8.676-1.745-8.169-4.513 7.043zm7.644 9.17 3.701-20.564 2.938.529-3.701 20.564zm16.481-9.711q1.066.647 2.093 1.347a8.7 8.7 0 0 1 1.775 1.593 5.6 5.6 0 0 1 1.088 2.046q.343 1.123.063 2.68-.234 1.474-1.058 2.509a6.4 6.4 0 0 1-1.959 1.619 7.6 7.6 0 0 1-2.503.763 9.3 9.3 0 0 1-2.683-.089 9.2 9.2 0 0 1-2.688-.908 6.9 6.9 0 0 1-2.045-1.612 5.9 5.9 0 0 1-1.144-2.238q-.311-1.299-.032-2.856l2.938.528q-.17.94.032 1.674.208.705.691 1.216a3.9 3.9 0 0 0 1.193.791 7.3 7.3 0 0 0 1.584.467q.852.153 1.746.072a4.8 4.8 0 0 0 1.635-.494q.575-.322.909-.838a2.5 2.5 0 0 0 .447-1.132q.142-.793-.134-1.45a3.5 3.5 0 0 0-.784-1.203 7 7 0 0 0-1.273-1.017 22 22 0 0 0-1.44-.927q-1.008-.636-1.986-1.267a8.3 8.3 0 0 1-1.674-1.484 5.2 5.2 0 0 1-1.026-1.883q-.326-1.059-.071-2.469a4.7 4.7 0 0 1 .821-2.036 5.2 5.2 0 0 1 1.639-1.525 7.2 7.2 0 0 1 2.193-.727 6.5 6.5 0 0 1 2.326.054 7.4 7.4 0 0 1 2.252.8 6.6 6.6 0 0 1 1.831 1.452 5.2 5.2 0 0 1 1.128 1.992q.374 1.128.111 2.416l-2.938-.529q.12-.494-.031-1.006a2.2 2.2 0 0 0-.445-.899q-1.021-1.063-2.437-1.288a3.65 3.65 0 0 0-2.512.306q-.88.509-1.001 1.518-.122.676.112 1.234.263.562.752 1.045a7 7 0 0 0 1.142.903zm21.463 13.537-.529 2.938-11.868-2.136.005-.03-1.469-.264 3.701-20.564 12.955 2.332-.528 2.937-10.018-1.802-1.073 5.963 7.462 1.343-.529 2.938-7.462-1.343-1.047 5.816zm21.866-7.893a12.97 12.97 0 0 1-1.475 8.196 11 11 0 0 1-1.702 2.211 9 9 0 0 1-2.205 1.635 8.4 8.4 0 0 1-2.671.854q-1.466.222-3.14-.08l-7.902-1.422 3.7-20.564 7.903 1.422q1.674.301 2.97 1.02a8 8 0 0 1 2.201 1.761 8.2 8.2 0 0 1 1.496 2.301q.592 1.259.825 2.666m-4.057 6.7a9.4 9.4 0 0 0 1.084-2.989 9.7 9.7 0 0 0 .037-3.239 7.4 7.4 0 0 0-.556-1.798 5.6 5.6 0 0 0-1.02-1.579 5.6 5.6 0 0 0-1.511-1.212q-.847-.516-1.993-.723l-4.964-.893-2.654 14.747 4.964.894q1.146.206 2.144.052a6.1 6.1 0 0 0 1.809-.615 6.4 6.4 0 0 0 1.507-1.124 8 8 0 0 0 1.153-1.521"/><path fill="#000" d="m181.246 231.942-.238-.869-1.949.532 1.698 1.095zm1.945 2.17-.812.392.005.011.006.011zm-.698 5.728-.727-.532-.006.008zm-1.783 1.65.463.774zm-2.361.819-.129-.892-.007.001zm-5.029-.875-.443.785.008.005.009.005zm-1.874-1.55-.712.553.009.012.011.012zm-1.066-2.163-.876.216.003.01.002.009zm-.045-2.617.159-.887-.887-.16-.159.888zm2.908.524.882.186.192-.909-.914-.165zm.217 1.828-.811.395zm1.273 1.351-.447.783.006.004zm4.243.188-.419-.799-.011.006-.011.006zm1.032-.846.7.568zm.475-2.978-.856.285.005.015.006.014zm-.785-1.202-.625.649.011.011.012.01zm-1.309-.812-.355.829.018.007.018.007zm-1.584-.467-.888-.16-.159.887.887.16zm.528-2.938.16-.887-.887-.16-.16.888zm1.496.118.024.901zm1.353-.272.338.835zm1.05-.782-.679-.593-.011.012-.01.014zm.545-2.692.853-.291zm-1.597-1.743-.408.804.011.005zm-1.202-.398-.196.879.018.004.018.004zm-1.482-.024.12.893.015-.002.016-.003zm-1.496.731-.632-.643-.005.005zm-.716 1.448-.159.888.918.165.134-.924zm-2.908-.523-.887-.16-.16.888.887.159zm.898-2.295-.734-.523-.006.008-.006.009zm1.645-1.554-.459-.776-.006.004-.007.004zm6.923.124-.45.781.009.005.009.005zm1.791 1.505-.711.554.01.013.01.012zm1.053 2.07-.873.225.004.014.004.015zm-1.176 5.186-.626-.648-.006.005-.006.006zm-2.753 2.049c.738.476 1.271 1.075 1.622 1.804l1.624-.783c-.503-1.044-1.267-1.89-2.269-2.536zm1.633 1.826c.332.642.449 1.506.24 2.67l1.774.319c.256-1.422.155-2.719-.413-3.817zm.24 2.67c-.152.842-.445 1.539-.864 2.112l1.455 1.064c.6-.821.989-1.78 1.183-2.857zm-.87 2.12a5 5 0 0 1-1.512 1.401l.925 1.547a6.8 6.8 0 0 0 2.054-1.9zm-1.512 1.401a5.4 5.4 0 0 1-2.028.7l.258 1.784a7.2 7.2 0 0 0 2.695-.937zm-2.035.701a7 7 0 0 1-2.305-.04l-.319 1.775a8.8 8.8 0 0 0 2.896.047zm-2.305-.04a7.3 7.3 0 0 1-2.162-.738l-.852 1.589q1.242.664 2.695.924zm-2.144-.728a5.8 5.8 0 0 1-1.625-1.343l-1.385 1.154a7.6 7.6 0 0 0 2.123 1.758zm-1.606-1.319a5.2 5.2 0 0 1-.908-1.846l-1.741.471a7 7 0 0 0 1.225 2.481zm-.903-1.827c-.165-.663-.183-1.406-.033-2.24l-1.774-.319c-.189 1.046-.177 2.047.056 2.992zm-1.08-1.512 2.908.523.32-1.775-2.909-.523zm2.186-.551a3.67 3.67 0 0 0 .288 2.41l1.622-.789a1.86 1.86 0 0 1-.146-1.248zm.288 2.41a4 4 0 0 0 1.637 1.739l.894-1.565a2.2 2.2 0 0 1-.909-.963zm1.643 1.743a5.8 5.8 0 0 0 1.82.651l.32-1.775a4 4 0 0 1-1.258-.449zm1.82.651q.838.15 1.683.05l-.211-1.79q-.58.068-1.152-.035zm1.683.05a4.3 4.3 0 0 0 1.622-.514l-.882-1.573c-.27.151-.583.253-.951.297zm1.6-.502q.767-.403 1.313-1.076l-1.401-1.135a2.4 2.4 0 0 1-.75.614zm1.313-1.076c.398-.491.641-1.08.758-1.731l-1.774-.319c-.073.407-.211.7-.385.915zm.758-1.731c.135-.746.108-1.467-.138-2.128l-1.69.627c.108.292.145.674.054 1.182zm-.128-2.099a3.67 3.67 0 0 0-1.037-1.589l-1.205 1.341c.247.223.422.49.531.817zm-1.015-1.568a4.7 4.7 0 0 0-1.616-1.005L178.07 234c.407.154.737.362 1.003.618zm-1.579-.991a8.2 8.2 0 0 0-1.78-.525l-.319 1.774q.759.137 1.389.409zm-1.052.522.529-2.938-1.775-.319-.529 2.937zm-.518-2.211a8.2 8.2 0 0 0 1.679.132l-.049-1.803a6.4 6.4 0 0 1-1.311-.103zm1.679.132a4.8 4.8 0 0 0 1.667-.338l-.677-1.671a2.9 2.9 0 0 1-1.039.206zm1.667-.338a3.5 3.5 0 0 0 1.413-1.049l-1.401-1.135a1.7 1.7 0 0 1-.689.513zm1.391-1.024c.436-.499.696-1.119.82-1.809l-1.775-.32c-.08.446-.228.743-.403.943zm.82-1.809c.109-.609.091-1.207-.101-1.767l-1.706.582c.073.215.099.494.032.865zm-.101-1.767a3.7 3.7 0 0 0-.798-1.342l-1.32 1.228c.182.196.319.425.412.696zm-.798-1.342a4.3 4.3 0 0 0-1.254-.919l-.795 1.618c.3.148.539.325.729.529zm-1.244-.914a5.3 5.3 0 0 0-1.45-.482l-.32 1.775q.523.095.954.315zm-1.413-.474a4.7 4.7 0 0 0-1.829-.033l.301 1.777c.418-.07.794-.061 1.135.015zm-1.798-.038a3.47 3.47 0 0 0-2.009.982l1.264 1.286c.278-.273.597-.429.984-.481zm-2.014.987a3.4 3.4 0 0 0-.971 1.957l1.785.258c.055-.386.209-.688.46-.939zm.081 1.199-2.908-.523-.32 1.774 2.909.524zm-2.181.524c.14-.775.397-1.418.757-1.949l-1.492-1.012c-.52.767-.861 1.653-1.039 2.641zm.745-1.932a4.7 4.7 0 0 1 1.383-1.309l-.944-1.536a6.5 6.5 0 0 0-1.907 1.799zm1.369-1.301a5.1 5.1 0 0 1 1.847-.647l-.272-1.782a6.9 6.9 0 0 0-2.492.877zm1.847-.647a6.4 6.4 0 0 1 2.123.037l.319-1.774a8.2 8.2 0 0 0-2.714-.045zm2.123.037a6.3 6.3 0 0 1 2.045.739l.9-1.563a8.1 8.1 0 0 0-2.626-.95zm2.063.749a4.8 4.8 0 0 1 1.512 1.268l1.422-1.108a6.6 6.6 0 0 0-2.07-1.743zm1.532 1.293c.41.488.701 1.056.871 1.716l1.746-.451a6.1 6.1 0 0 0-1.235-2.424zm.879 1.745c.181.616.214 1.307.073 2.09l1.775.319c.183-1.018.152-1.997-.118-2.917zm.073 2.09c-.189 1.053-.551 1.751-1.01 2.194l1.252 1.297c.813-.784 1.299-1.874 1.533-3.172zm-1.022 2.205c-.498.499-1.112.854-1.864 1.059l.475 1.739a5.9 5.9 0 0 0 2.665-1.523zm19.015-4.608.887.16.16-.888-.887-.159zm-.317 1.763.753.495.102-.154.032-.182zm-11.398 17.328-.16.887.586.106.327-.497zm-3.173-.571-.753-.495-.751 1.141 1.345.241zm10.687-16.243.753.495.751-1.141-1.344-.241zm-9.782-1.761-.887-.159-.16.887.887.16zm.528-2.937.16-.888-.887-.159-.16.887zM201 225.246l-.317 1.763 1.774.319.317-1.762zm-.183 1.427-11.398 17.329 1.506.991 11.398-17.329zm-10.485 16.937-3.173-.571-.319 1.774 3.172.571zm-2.58.812 10.687-16.244-1.506-.991-10.687 16.244zm10.094-17.626-9.783-1.761-.319 1.775 9.783 1.76zm-9.055-.714.529-2.938-1.775-.319-.528 2.938zm-.518-2.21 13.454 2.421.32-1.774-13.455-2.422zm33.021 19.978-.773-.463zm-2.694 3.003.53.729.008-.005zm-3.662 1.646.197.88.007-.002zm-7.667-1.046-.428.794.007.003.007.004zm-2.489-1.843-.65.625.007.007zm-1.668-2.362-.818.378.005.011.006.012zm-.902-2.741-.885.171.002.011zm1.539-8.548-.765-.478-.004.006-.004.007zm1.83-2.249-.625-.65zm2.392-1.662-.382-.817-.01.005zm2.945-.865-.123-.893-.006.001zm7.546 1.722-.508.745.01.006zm2.853 2.848-.756.491zm1.478 3.754-.886.165zm-4.117 6.871-.774-.462-.001.001zm1.157-6.433.888-.159-.003-.013-.003-.014zm-.681-1.942-.815.385.004.01.005.009zm-1.186-1.67-.65.625.007.008.008.007zm-1.764-1.318.425-.795zm-5.542-.724.208.877.009-.002zm-2.616 1.227-.547-.717v.001zm-1.908 2.174-.775-.461-.004.007-.004.008zm-1.089 6.052-.89.146.002.011.002.011zm1.03 2.703-.769.47.007.011.007.011zm2.03 2.033-.5.75.006.004zm5.451 1.224-.115-.895-.007.001zm2.108-.592.386.815.005-.002zm1.723-1.145.602.67.006-.005.006-.005zm4.501-4.316q-.377 2.082-1.371 3.736l1.546.927c.783-1.305 1.314-2.756 1.599-4.344zm-1.371 3.736a9.4 9.4 0 0 1-2.458 2.742l1.075 1.448a11.2 11.2 0 0 0 2.929-3.263zm-2.451 2.737c-.966.703-2.075 1.203-3.337 1.497l.409 1.756c1.481-.345 2.814-.941 3.988-1.795zm-3.33 1.495c-1.215.274-2.55.289-4.016.025l-.319 1.774c1.667.3 3.248.294 4.73-.039zm-4.016.025c-1.159-.209-2.169-.543-3.04-.992l-.827 1.602c1.054.544 2.239.929 3.548 1.164zm-3.026-.985a9.4 9.4 0 0 1-2.273-1.681l-1.286 1.264q1.156 1.172 2.704 2.005zm-2.266-1.674a8.6 8.6 0 0 1-1.51-2.139l-1.615.803a10.4 10.4 0 0 0 1.825 2.586zm-1.499-2.115a11.6 11.6 0 0 1-.838-2.544l-1.766.363q.313 1.52.967 2.937zm-.835-2.533a11 11 0 0 1-.025-4.072l-1.775-.32a12.9 12.9 0 0 0 .029 4.733zm-.025-4.072q.367-2.039 1.45-3.842l-1.545-.929a13.1 13.1 0 0 0-1.68 4.451zm1.442-3.829a11 11 0 0 1 1.69-2.076l-1.249-1.3a12.7 12.7 0 0 0-1.97 2.421zm1.69-2.076a8.3 8.3 0 0 1 2.159-1.5l-.783-1.624a10.1 10.1 0 0 0-2.625 1.824zm2.15-1.496a9.5 9.5 0 0 1 2.693-.789l-.259-1.784q-1.712.246-3.198.94zm2.687-.788c.971-.135 2.031-.105 3.185.103l.319-1.775c-1.313-.236-2.566-.279-3.751-.114zm3.185.103c1.436.258 2.674.752 3.729 1.471l1.015-1.491c-1.286-.875-2.767-1.457-4.425-1.755zm3.739 1.477a8.9 8.9 0 0 1 2.595 2.588l1.513-.981a10.7 10.7 0 0 0-3.113-3.11zm2.595 2.588a9.4 9.4 0 0 1 1.348 3.428l1.773-.33a11.2 11.2 0 0 0-1.608-4.079zm1.348 3.428q.356 1.896-.017 3.979l1.774.319q.431-2.382.016-4.628zm-2.458 7.169a10 10 0 0 0 1.278-3.399l-1.775-.32a8.3 8.3 0 0 1-1.05 2.794zm1.278-3.399a10.3 10.3 0 0 0-.006-3.656l-1.775.317a8.5 8.5 0 0 1 .006 3.019zm-.012-3.683a9 9 0 0 0-.758-2.161l-1.611.809a7 7 0 0 1 .605 1.724zm-.749-2.142a6.8 6.8 0 0 0-1.365-1.923l-1.27 1.279q.636.632 1.006 1.415zm-1.35-1.909a8 8 0 0 0-1.989-1.488l-.851 1.59a6.1 6.1 0 0 1 1.54 1.148zm-1.989-1.488c-.777-.416-1.651-.705-2.611-.878l-.32 1.774c.803.145 1.493.379 2.08.694zm-2.611-.878c-1.245-.224-2.44-.206-3.572.074l.433 1.75c.856-.212 1.792-.235 2.819-.05zm-3.563.072a7.8 7.8 0 0 0-2.956 1.387l1.093 1.435a6 6 0 0 1 2.278-1.068zm-2.956 1.388a8.5 8.5 0 0 0-2.136 2.429l1.55.922a6.65 6.65 0 0 1 1.68-1.918zm-2.144 2.444a10 10 0 0 0-1.148 3.223l1.774.319a8.3 8.3 0 0 1 .94-2.649zm-1.148 3.223a10 10 0 0 0-.048 3.421l1.78-.292a8.2 8.2 0 0 1 .042-2.81zm-.044 3.443a8.9 8.9 0 0 0 1.147 3.005l1.538-.941a7.1 7.1 0 0 1-.913-2.4zm1.161 3.027a8 8 0 0 0 2.285 2.291l1-1.5a6.2 6.2 0 0 1-1.775-1.776zm2.291 2.295c.964.632 2.074 1.053 3.313 1.276l.32-1.775c-1.033-.185-1.909-.527-2.645-1.009zm3.313 1.276c.96.173 1.88.206 2.754.087l-.244-1.787c-.66.09-1.388.07-2.19-.075zm2.747.088c.866-.112 1.662-.331 2.379-.671l-.771-1.629a6.1 6.1 0 0 1-1.838.511zm2.384-.673a8.2 8.2 0 0 0 1.934-1.288l-1.204-1.341a6.4 6.4 0 0 1-1.512 1.004zm1.946-1.298a8 8 0 0 0 1.447-1.787l-1.549-.923a6.3 6.3 0 0 1-1.126 1.39zm26.762-2.982-.478.764.011.006zm2.093 1.347-.508.744zm2.863 3.639-.865.254.003.01zm.064 2.68-.888-.159-.001.008-.002.009zm-1.058 2.509.699.569.006-.008zm-1.96 1.619.412.802.008-.004.007-.004zm-2.503.762.099.897.009-.001.009-.002zm-5.37-.996-.421.797zm-2.046-1.612-.694.575.009.011zm-1.144-2.238-.876.211.003.013.004.013zm-.031-2.856.159-.888-.887-.159-.16.887zm2.937.528.888.16.159-.887-.887-.16zm.033 1.674-.87.239.002.008.003.007zm.691 1.216-.655.62.011.011.011.011zm1.192.791-.363.826.008.003zm3.33.539.082.898.014-.002.014-.002zm1.636-.494.416.799.012-.006.012-.007zm.909-.838-.734-.524-.011.016-.011.017zm.446-1.132-.887-.16-.004.021-.003.021zm-.133-1.45-.843.32.005.015.007.015zm-.785-1.203-.645.63zm-1.272-1.017-.517.739.017.011.017.011zm-1.441-.927-.481.763.011.007.012.007zm-1.986-1.267-.506.746.008.006.009.006zm-2.7-3.367.862-.264zm-.071-2.469.887.159.002-.011.002-.012zm.821-2.036.735.522.006-.008zm1.639-1.525-.417-.799-.021.011-.02.012zm2.194-.727-.137-.891-.007.001zm2.325.054-.182.883.011.002.011.002zm2.252.8.432-.791zm1.831 1.451-.678.594.004.005.005.005zm1.128 1.993-.862.264.003.009.003.01zm.111 2.416-.159.887.867.156.176-.864zm-2.938-.529-.876-.211-.224.929.941.169zm-.031-1.006-.877.209.006.022.006.023zm-.444-.899.694-.574-.021-.027-.023-.024zm-2.438-1.288-.199.879.029.007.029.004zm-2.511.306-.405-.805-.024.011-.023.014zm-1.001 1.518.887.16.004-.026.004-.026zm.111 1.234-.831.348.007.016.007.017zm.752 1.045.633-.642zm1.142.903-.489.757.011.007zm.896 1.622q1.046.635 2.052 1.321l1.016-1.489a48 48 0 0 0-2.133-1.373zm2.052 1.321q.93.636 1.593 1.428l1.381-1.158a9.6 9.6 0 0 0-1.958-1.759zm1.593 1.428c.417.498.721 1.068.913 1.721l1.73-.508a6.5 6.5 0 0 0-1.262-2.371zm.916 1.731c.175.572.208 1.313.038 2.257l1.775.319c.204-1.133.194-2.179-.089-3.104zm.035 2.274c-.135.85-.433 1.537-.873 2.09l1.411 1.122c.658-.826 1.065-1.812 1.243-2.928zm-.867 2.082a5.5 5.5 0 0 1-1.686 1.394l.853 1.588a7.3 7.3 0 0 0 2.232-1.844zm-1.672 1.386a6.7 6.7 0 0 1-2.207.671l.233 1.787a8.5 8.5 0 0 0 2.798-.854zm-2.189.668a8.4 8.4 0 0 1-2.425-.079l-.319 1.774q1.452.26 2.941.098zm-2.425-.079a8.3 8.3 0 0 1-2.426-.818l-.842 1.594c.9.476 1.886.807 2.949.998zm-2.426-.818a6 6 0 0 1-1.781-1.4l-1.371 1.171a7.8 7.8 0 0 0 2.31 1.823zm-1.772-1.39a5 5 0 0 1-.969-1.899l-1.739.473c.262.967.701 1.83 1.319 2.576zm-.962-1.873c-.174-.725-.19-1.549-.021-2.487l-1.775-.319c-.205 1.139-.199 2.219.043 3.227zm-1.068-1.759 2.938.529.319-1.775-2.938-.529zm2.21-.518c-.131.726-.128 1.424.05 2.072l1.739-.478c-.091-.33-.109-.748-.014-1.275zm.055 2.087c.176.601.476 1.133.901 1.582l1.31-1.239a2.04 2.04 0 0 1-.481-.851zm.923 1.604c.413.408.905.73 1.463.975l.724-1.651a3 3 0 0 1-.922-.608zm1.47.978q.835.356 1.779.525l.319-1.774a6.4 6.4 0 0 1-1.388-.408zm1.779.525a7.4 7.4 0 0 0 1.988.083l-.164-1.796a5.6 5.6 0 0 1-1.505-.061zm2.016.079a5.7 5.7 0 0 0 1.942-.589l-.832-1.599a3.9 3.9 0 0 1-1.331.399zm1.966-.602a3.45 3.45 0 0 0 1.224-1.132l-1.511-.983c-.139.213-.33.394-.594.542zm1.202-1.1c.329-.46.533-.978.607-1.539l-1.788-.235a1.6 1.6 0 0 1-.286.726zm.6-1.497c.122-.677.071-1.34-.189-1.959l-1.662.7c.108.256.145.559.077.94zm-.177-1.928a4.4 4.4 0 0 0-.982-1.513l-1.291 1.259c.281.288.47.586.587.893zm-.982-1.513a8 8 0 0 0-1.436-1.15l-.965 1.523q.655.417 1.11.886zm-1.402-1.127q-.73-.51-1.499-.964l-.916 1.553q.71.418 1.382.889zm-1.476-.95q-1.004-.634-1.978-1.262l-.978 1.515q.982.633 1.994 1.272zm-1.961-1.251a7.4 7.4 0 0 1-1.493-1.322l-1.374 1.168a9.2 9.2 0 0 0 1.855 1.646zm-1.493-1.322a4.3 4.3 0 0 1-.851-1.563l-1.724.529c.252.82.653 1.557 1.201 2.202zm-.851-1.563c-.164-.535-.197-1.207-.046-2.046l-1.774-.319c-.188 1.041-.173 2.016.096 2.894zm-.042-2.069c.093-.61.314-1.156.665-1.65l-1.47-1.044a5.6 5.6 0 0 0-.977 2.421zm.671-1.658a4.3 4.3 0 0 1 1.357-1.263l-.917-1.552a6.1 6.1 0 0 0-1.921 1.787zm1.315-1.24a6.3 6.3 0 0 1 1.92-.636l-.287-1.78a8 8 0 0 0-2.467.818zm1.913-.635a5.6 5.6 0 0 1 2.007.046l.364-1.766a7.4 7.4 0 0 0-2.644-.062zm2.029.05a6.5 6.5 0 0 1 1.98.704l.864-1.582a8.3 8.3 0 0 0-2.524-.896zm1.98.704a5.7 5.7 0 0 1 1.585 1.254l1.357-1.187a7.5 7.5 0 0 0-2.078-1.649zm1.594 1.264c.434.481.744 1.029.935 1.653l1.724-.528a6.1 6.1 0 0 0-1.32-2.332zm.941 1.672c.194.588.231 1.232.084 1.953l1.767.359c.202-.995.164-1.961-.139-2.878zm1.127 1.245-2.938-.528-.319 1.774 2.938.529zm-2.221.571c.118-.491.1-.987-.043-1.472l-1.73.508c.058.198.061.372.02.541zm-.031-1.428a3.1 3.1 0 0 0-.627-1.263l-1.389 1.148c.125.152.213.326.262.534zm-.671-1.314c-.814-.846-1.803-1.372-2.946-1.553l-.283 1.78c.744.118 1.379.451 1.928 1.022zm-2.889-1.542a4.54 4.54 0 0 0-3.115.38l.809 1.611a2.75 2.75 0 0 1 1.908-.233zm-3.162.405c-.832.481-1.33 1.236-1.445 2.191l1.791.215c.047-.392.216-.648.557-.845zm-1.437 2.139c-.107.597-.064 1.188.168 1.741l1.663-.696c-.08-.191-.111-.423-.056-.726zm.182 1.774c.225.482.542.917.937 1.306l1.265-1.284a2.7 2.7 0 0 1-.568-.785zm.937 1.306q.564.555 1.285 1.018l.978-1.515a6 6 0 0 1-.998-.787zm1.296 1.025 1.363.852.956-1.529-1.363-.852zm29.029-.661-.76.485.001.001zm1.569 3.922-.886.165zm-1.417 7.873-.773-.464zm-2.837 3.129-.543-.72-.001.001zm-3.714 1.758-.209-.877-.005.001zm-7.814-1.406-.506.746.004.002zm-2.838-2.937.76-.485v-.001zm-1.569-3.922-.886.165zm1.417-7.873-.773-.464zm2.838-3.129.542.72.001-.001zm3.684-1.763-.21-.877-.005.001zm7.814 1.406-.506.746.004.003zm-1.574 15.487.535.726.009-.006zm2.046-2.27.775.461.003-.005zm1.042-5.787-.888.156.001.006zm-1.122-2.871.761-.484-.006-.009zm-2.024-2.063-.513.742.007.004zm-5.523-.993-.215-.876-.007.002zm-2.588 1.232-.535-.725-.008.006zm-2.081 2.295-.769-.47-.005.009zm-1.041 5.787-.888.156.002.011.002.011zm1.156 2.847-.76.484.005.009zm1.995 2.057-.512.742.006.004zm5.523.994-.214-.876-.008.002zm6.299-13.287a10.05 10.05 0 0 1 1.442 3.601l1.772-.33a11.9 11.9 0 0 0-1.695-4.242zm1.442 3.601q.355 1.916.025 3.744l1.774.319q.389-2.166-.027-4.393zm.025 3.744a10.3 10.3 0 0 1-1.329 3.5l1.546.928a12.1 12.1 0 0 0 1.557-4.109zm-1.329 3.5a10.05 10.05 0 0 1-2.607 2.873l1.085 1.44a11.8 11.8 0 0 0 3.068-3.385zm-2.608 2.874a9 9 0 0 1-3.379 1.6l.419 1.754a10.8 10.8 0 0 0 4.047-1.916zm-3.384 1.601a8.8 8.8 0 0 1-3.681.108l-.319 1.774c1.493.269 2.972.226 4.429-.131zm-3.681.108a8.9 8.9 0 0 1-3.417-1.387l-1.004 1.497a10.7 10.7 0 0 0 4.102 1.664zm-3.413-1.384a9.1 9.1 0 0 1-2.584-2.676l-1.52.969a10.9 10.9 0 0 0 3.092 3.199zm-2.584-2.677a10 10 0 0 1-1.442-3.601l-1.773.33a11.8 11.8 0 0 0 1.696 4.242zm-1.442-3.601a10.3 10.3 0 0 1-.025-3.744l-1.775-.319a12.1 12.1 0 0 0 .027 4.393zm-.025-3.744a10.3 10.3 0 0 1 1.328-3.501l-1.546-.927a12.1 12.1 0 0 0-1.557 4.109zm1.328-3.501c.66-1.1 1.526-2.057 2.607-2.872l-1.085-1.44a11.8 11.8 0 0 0-3.068 3.385zm2.608-2.873a9.1 9.1 0 0 1 3.355-1.607l-.429-1.751a10.9 10.9 0 0 0-4.013 1.92zm3.35-1.605a8.9 8.9 0 0 1 3.686-.109l.319-1.775a10.7 10.7 0 0 0-4.424.13zm3.686-.109a8.75 8.75 0 0 1 3.413 1.384l1.012-1.492a10.6 10.6 0 0 0-4.106-1.667zm3.417 1.387a9 9 0 0 1 2.609 2.678l1.52-.969a10.8 10.8 0 0 0-3.125-3.207zm-.528 15.458a8.8 8.8 0 0 0 2.277-2.529l-1.55-.922a7 7 0 0 1-1.815 2.012zm2.28-2.534a9.4 9.4 0 0 0 1.162-3.109l-1.775-.32a7.6 7.6 0 0 1-.943 2.517zm1.162-3.109a9.2 9.2 0 0 0-.012-3.296l-1.773.324q.246 1.349.01 2.652zm-.01-3.29a8.7 8.7 0 0 0-1.249-3.199l-1.521.969q.756 1.187.994 2.542zm-1.255-3.208a8.2 8.2 0 0 0-2.273-2.315l-1.012 1.491a6.4 6.4 0 0 1 1.776 1.81zm-2.267-2.311a7.6 7.6 0 0 0-3.008-1.23l-.32 1.774a5.8 5.8 0 0 1 2.303.939zm-3.008-1.23a7.7 7.7 0 0 0-3.242.102l.429 1.751a5.9 5.9 0 0 1 2.493-.079zm-3.249.104a8.3 8.3 0 0 0-2.901 1.381l1.071 1.451a6.5 6.5 0 0 1 2.274-1.085zm-2.909 1.387a9.1 9.1 0 0 0-2.307 2.544l1.539.939a7.3 7.3 0 0 1 1.855-2.045zm-2.312 2.553a9.2 9.2 0 0 0-1.16 3.085l1.775.319a7.4 7.4 0 0 1 .934-2.482zm-1.16 3.085a9.4 9.4 0 0 0 .005 3.319l1.776-.312a7.6 7.6 0 0 1-.006-2.688zm.009 3.341a9.2 9.2 0 0 0 1.28 3.153l1.52-.969a7.4 7.4 0 0 1-1.032-2.54zm1.285 3.162a8.3 8.3 0 0 0 2.238 2.306l1.025-1.484a6.5 6.5 0 0 1-1.754-1.809zm2.244 2.31a7.7 7.7 0 0 0 3.002 1.226l.32-1.775a5.9 5.9 0 0 1-2.31-.943zm3.002 1.226a7.6 7.6 0 0 0 3.249-.104l-.444-1.748a5.8 5.8 0 0 1-2.485.077zm3.241-.102a8.2 8.2 0 0 0 2.938-1.378l-1.071-1.451a6.4 6.4 0 0 1-2.295 1.077zm24.692 3.818.887.16.16-.887-.887-.16zm-.528 2.938-.16.887.887.16.16-.887zm-14.101-2.538-.888-.159-.159.887.887.16zm3.695-20.534.16-.887-.888-.16-.159.887zm2.908.523.887.16.16-.887-.887-.16zm-3.166 17.597-.888-.16-.159.888.887.159zm10.305 1.855-.529 2.937 1.775.32.528-2.938zm.518 2.21-14.101-2.538-.319 1.775 14.101 2.537zm-13.373-1.491 3.695-20.534-1.774-.32-3.696 20.535zm2.648-19.807 2.909.523.319-1.774-2.908-.523zm2.181-.523-3.167 17.596 1.775.32 3.166-17.597zm-2.439 18.643 11.193 2.014.319-1.774-11.193-2.014zm-85.735 5.236-.78-.452-.004.008-.005.007zm-1.903 2.145.515.74.011-.007zm-2.619 1.075-.158-.887-1.089.193.409 1.028zm2.966 7.449-.16.887 1.598.288-.601-1.509zm-3.437-.619-.838.334.186.465.492.089zm-2.8-7.024.837-.334-.185-.465-.492-.088zm-4.789-.862.16-.887-.887-.16-.16.887zm-1.136 6.316-.16.887.887.16.16-.887zm-2.938-.528-.887-.16-.16.887.887.16zm3.695-20.535.16-.887-.887-.16-.16.887zm10.601 2.272-.446.783.014.008.014.007zm1.657 1.238-.656.618.007.008.008.008zm1.108 1.595-.817.38.003.007.004.007zm.61 1.838.888-.152-.001-.01-.002-.009zm-13.073 4.896-.887-.16-.16.887.887.16zm5.581 1.004.182-.883-.011-.002-.011-.002zm2.256-.231.359.827.009-.004.008-.004zm1.674-1.549-.774-.462-.007.012-.007.012zm.645-3.584-.888.16.001.004zm-.986-1.936-.667.607.005.005.005.005zm-7.664-2.077.16-.887-.887-.16-.16.888zm9.763 8.68a5.5 5.5 0 0 1-1.639 1.849l1.051 1.466a7.35 7.35 0 0 0 2.165-2.441zm-1.628 1.842a5.65 5.65 0 0 1-2.263.928l.315 1.775a7.4 7.4 0 0 0 2.977-1.223zm-2.943 2.149 2.966 7.448 1.675-.667-2.966-7.448zm3.964 6.228-3.438-.619-.319 1.775 3.437.618zm-2.76-.065-2.8-7.025-1.675.668 2.8 7.024zm-3.477-7.578-4.789-.862-.319 1.774 4.788.862zm-5.836-.135-1.136 6.317 1.774.319 1.137-6.316zm-.09 5.589-2.937-.529-.32 1.775 2.938.528zm-2.21.518 3.696-20.534-1.775-.32-3.695 20.535zm2.649-19.807 8.431 1.517.319-1.774-8.431-1.517zm8.431 1.517c.738.133 1.362.354 1.883.651l.892-1.567c-.726-.413-1.549-.695-2.456-.858zm1.911.666a5.4 5.4 0 0 1 1.419 1.058l1.313-1.236a7.1 7.1 0 0 0-1.896-1.419zm1.434 1.074q.583.589.932 1.341l1.635-.76a6.5 6.5 0 0 0-1.285-1.849zm.939 1.355a6.5 6.5 0 0 1 .535 1.615l1.77-.342a8.3 8.3 0 0 0-.684-2.062zm.531 1.596q.225 1.318-.007 2.598l1.775.32a9.3 9.3 0 0 0 .009-3.222zm-.007 2.598a7.5 7.5 0 0 1-.899 2.438l1.56.904a9.3 9.3 0 0 0 1.114-3.022zm-12.337 3.033 5.582 1.004.319-1.774-5.582-1.004zm5.56 1a4.57 4.57 0 0 0 2.796-.287l-.718-1.654a2.77 2.77 0 0 1-1.715.175zm2.813-.295a4.48 4.48 0 0 0 2.086-1.929l-1.576-.877a2.68 2.68 0 0 1-1.262 1.168zm2.072-1.905a5.9 5.9 0 0 0 .757-4.21l-1.773.327a4.1 4.1 0 0 1-.532 2.958zm.758-4.206a4.64 4.64 0 0 0-1.216-2.394l-1.314 1.234c.411.437.656.925.755 1.479zm-1.207-2.384c-.672-.738-1.594-1.174-2.676-1.368l-.32 1.774c.798.144 1.323.434 1.663.808zm-2.676-1.368-5.494-.989-.319 1.775 5.493.988zm-6.541-.261-1.506 8.372 1.774.319 1.507-8.372zm30.75 23.7-.159.887 1.324.239-.284-1.316zm-3.143-.566-.881.192.128.589.593.107zm-1.08-4.955.881-.192-.128-.589-.593-.107zm-8.666-1.56.16-.887-.593-.107-.326.507zm-2.739 4.269-.16.887.593.107.325-.508zm-3.144-.566-.759-.485-.725 1.134 1.325.238zm12.161-19.041.16-.888-.594-.107-.325.509zm1.851.333.881-.19-.127-.591-.594-.107zm-.138 13.41-.16.887 1.322.238-.281-1.313zm-1.745-8.169.881-.188-.458-2.144-1.182 1.846zm-4.513 7.043-.759-.486-.727 1.135 1.327.238zm11.316 8.915-3.143-.566-.32 1.775 3.144.565zm-2.422.129-1.08-4.955-1.761.383 1.079 4.956zm-1.801-5.651-8.666-1.559-.32 1.774 8.667 1.56zm-9.585-1.159-2.739 4.269 1.517.973 2.74-4.268zm-1.821 3.868-3.143-.565-.319 1.774 3.143.566zm-2.543.807 12.161-19.041-1.519-.971-12.161 19.042zm11.242-18.639 1.851.333.319-1.775-1.851-.333zm1.129-.364 4.76 22.086 1.762-.38-4.76-22.086zm1.624 13.032-1.745-8.169-1.763.376 1.745 8.169zm-3.385-8.467-4.513 7.043 1.518.972 4.513-7.043zm-3.913 8.416 6.257 1.126.319-1.774-6.257-1.126zm14.061 9.409-.887-.159-.159.887.887.159zm3.701-20.564.16-.887-.887-.16-.16.888zm2.938.529.887.16.16-.888-.888-.159zm-3.701 20.564-.159.887.887.16.159-.887zm-2.05-.369 3.7-20.564-1.774-.319-3.701 20.564zm2.653-19.836 2.938.528.319-1.774-2.937-.529zm2.211-.519-3.701 20.564 1.774.32 3.701-20.564zm-2.654 19.837-2.938-.529-.319 1.774 2.938.529zm13.383-9.353-.478.764.01.006zm2.093 1.347-.508.745zm2.863 3.639-.865.254.003.01zm.063 2.68-.887-.159-.001.008-.002.009zm-1.058 2.509.7.569.006-.008zm-1.959 1.619.412.802.008-.004.007-.004zm-2.503.763.098.896.01-.001.009-.002zm-5.371-.997-.421.797zm-2.045-1.612-.694.575.009.011zm-1.144-2.238-.876.211.003.013.003.013zm-.032-2.856.16-.888-.887-.159-.16.887zm2.938.528.887.16.16-.887-.887-.16zm.032 1.674-.869.239.002.008.002.007zm.691 1.216-.654.62.01.011.012.012zm1.193.791-.363.826.007.003zm3.33.539.082.898.014-.002.014-.001zm1.635-.494.417.799.012-.006.012-.007zm.909-.838-.733-.524-.012.016-.01.017zm.447-1.132-.887-.16-.004.021-.003.021zm-.134-1.45-.843.32.006.015.006.015zm-.784-1.203-.646.63zm-1.273-1.017-.516.739.016.011.018.011zm-1.44-.927-.482.763.012.007.012.007zm-1.986-1.267-.507.746.009.006.009.006zm-2.7-3.367.862-.264zm-.071-2.469.887.159.002-.011.002-.012zm.821-2.036.735.522.005-.008zm1.639-1.525-.417-.799-.021.011-.02.012zm2.193-.727-.136-.891-.007.001zm2.326.054-.183.883.012.002.011.003zm2.252.8.432-.791zm1.831 1.452-.679.593.005.005.005.005zm1.128 1.992-.862.264.003.009.003.01zm.111 2.416-.16.887.868.156.175-.863zm-2.938-.529-.876-.211-.224.929.941.169zm-.031-1.006-.877.209.006.022.006.023zm-.445-.899.695-.574-.021-.026-.024-.025zm-2.437-1.288-.199.879.029.007.029.004zm-2.512.306-.404-.805-.024.011-.023.014zm-1.001 1.518.888.16.004-.026.003-.026zm.112 1.234-.832.348.007.016.008.017zm.752 1.045.633-.642zm1.142.903-.489.757.011.007zm.895 1.622q1.047.635 2.053 1.322l1.016-1.49a47 47 0 0 0-2.134-1.373zm2.053 1.322q.93.635 1.593 1.428l1.381-1.159a9.6 9.6 0 0 0-1.958-1.759zm1.593 1.428a4.7 4.7 0 0 1 .913 1.72l1.73-.508a6.5 6.5 0 0 0-1.262-2.371zm.916 1.73c.175.572.208 1.313.038 2.257l1.775.319c.203-1.133.194-2.179-.089-3.104zm.035 2.274c-.135.85-.433 1.537-.873 2.09l1.411 1.122c.657-.826 1.065-1.812 1.243-2.928zm-.867 2.082a5.5 5.5 0 0 1-1.687 1.394l.854 1.588a7.3 7.3 0 0 0 2.232-1.844zm-1.672 1.386a6.7 6.7 0 0 1-2.208.671l.234 1.787a8.5 8.5 0 0 0 2.798-.854zm-2.189.668a8.4 8.4 0 0 1-2.425-.079l-.32 1.774q1.453.26 2.941.098zm-2.425-.079a8.3 8.3 0 0 1-2.426-.818l-.843 1.594q1.353.713 2.949.998zm-2.426-.818a6 6 0 0 1-1.781-1.4l-1.371 1.171a7.8 7.8 0 0 0 2.309 1.823zm-1.773-1.39a5 5 0 0 1-.968-1.899l-1.74.473a6.8 6.8 0 0 0 1.32 2.576zm-.961-1.873c-.174-.725-.19-1.549-.021-2.487l-1.775-.319c-.205 1.139-.199 2.219.043 3.227zm-1.068-1.759 2.937.529.32-1.775-2.938-.529zm2.21-.518c-.131.726-.128 1.424.05 2.072l1.739-.477c-.091-.331-.11-.749-.015-1.276zm.054 2.087c.177.601.477 1.133.902 1.582l1.309-1.239a2.06 2.06 0 0 1-.481-.851zm.924 1.605c.413.407.905.729 1.462.974l.725-1.651a3 3 0 0 1-.922-.608zm1.469.977a8.2 8.2 0 0 0 1.78.525l.319-1.774a6.4 6.4 0 0 1-1.388-.408zm1.78.525a7.4 7.4 0 0 0 1.988.083l-.164-1.796a5.6 5.6 0 0 1-1.505-.061zm2.016.08a5.7 5.7 0 0 0 1.942-.59l-.833-1.599a3.9 3.9 0 0 1-1.33.399zm1.966-.603a3.46 3.46 0 0 0 1.224-1.132l-1.511-.983c-.139.213-.33.394-.594.542zm1.202-1.1c.329-.46.533-.978.607-1.539l-1.788-.235a1.6 1.6 0 0 1-.286.726zm.6-1.497c.122-.677.071-1.34-.19-1.959l-1.662.7c.108.256.146.559.078.94zm-.178-1.928a4.4 4.4 0 0 0-.981-1.513l-1.292 1.259c.282.288.471.586.587.893zm-.981-1.513a8 8 0 0 0-1.436-1.149l-.965 1.522q.656.418 1.109.886zm-1.402-1.127q-.729-.51-1.5-.964l-.915 1.553q.71.418 1.382.889zm-1.476-.95q-1.004-.633-1.979-1.262l-.977 1.515q.982.633 1.993 1.272zm-1.961-1.251a7.4 7.4 0 0 1-1.494-1.322l-1.373 1.168a9.2 9.2 0 0 0 1.854 1.646zm-1.494-1.322a4.35 4.35 0 0 1-.85-1.563l-1.724.529c.252.82.652 1.557 1.201 2.202zm-.85-1.563c-.164-.535-.197-1.207-.046-2.046l-1.775-.319c-.187 1.041-.172 2.016.097 2.894zm-.042-2.069c.093-.61.314-1.156.665-1.65l-1.47-1.044a5.6 5.6 0 0 0-.978 2.422zm.67-1.658a4.3 4.3 0 0 1 1.357-1.263l-.916-1.552a6.1 6.1 0 0 0-1.922 1.787zm1.316-1.24a6.3 6.3 0 0 1 1.92-.636l-.287-1.78a8 8 0 0 0-2.467.818zm1.912-.635a5.6 5.6 0 0 1 2.007.046l.365-1.766a7.4 7.4 0 0 0-2.644-.062zm2.03.051a6.5 6.5 0 0 1 1.98.703l.864-1.582a8.3 8.3 0 0 0-2.525-.896zm1.98.703a5.7 5.7 0 0 1 1.584 1.254l1.358-1.187a7.5 7.5 0 0 0-2.078-1.649zm1.594 1.264c.434.481.744 1.029.935 1.653l1.724-.528a6.1 6.1 0 0 0-1.32-2.332zm.941 1.672c.194.588.23 1.232.084 1.953l1.766.36c.203-.996.165-1.962-.138-2.879zm1.127 1.246-2.938-.529-.319 1.774 2.937.529zm-2.221.57a2.83 2.83 0 0 0-.043-1.472l-1.73.508c.058.198.06.373.02.541zm-.031-1.428a3.1 3.1 0 0 0-.627-1.263l-1.39 1.148c.126.152.214.326.263.534zm-.672-1.314c-.813-.846-1.802-1.372-2.946-1.553l-.282 1.78c.744.118 1.379.451 1.928 1.022zm-2.888-1.542a4.54 4.54 0 0 0-3.115.38l.809 1.611a2.74 2.74 0 0 1 1.908-.233zm-3.162.405c-.832.481-1.33 1.236-1.445 2.191l1.79.215c.047-.391.217-.648.558-.845zm-1.437 2.139c-.107.597-.064 1.188.167 1.741l1.664-.696c-.08-.191-.111-.423-.056-.726zm.182 1.774c.225.482.542.917.936 1.306l1.266-1.284a2.7 2.7 0 0 1-.568-.785zm.936 1.306q.565.555 1.286 1.018l.977-1.515a6.2 6.2 0 0 1-.997-.787zm1.297 1.025 1.363.852.956-1.529-1.364-.852zm23.304 13.625.887.16.16-.888-.887-.159zm-.529 2.938-.159.887.887.159.16-.887zm-11.868-2.136-.887-.16-.16.887.887.16zm.005-.03.888.16.159-.887-.887-.16zm-1.469-.264-.887-.16-.159.888.887.159zm3.701-20.564.16-.887-.888-.16-.159.888zm12.955 2.332.888.159.159-.887-.887-.16zm-.528 2.937-.16.887.887.16.16-.887zm-10.018-1.802.16-.888-.888-.159-.159.887zm-1.073 5.963-.887-.16-.16.888.887.159zm7.462 1.343.887.16.16-.888-.888-.159zm-.529 2.938-.16.887.888.159.159-.887zm-7.462-1.343.16-.887-.887-.16-.16.887zm-1.047 5.816-.887-.159-.159.887.887.16zm9.513 1.712-.529 2.938 1.775.319.528-2.937zm.518 2.21-11.868-2.135-.32 1.774 11.869 2.136zm-11.141-1.089.006-.029-1.775-.319-.005.029zm-.722-1.076-1.469-.264-.319 1.774 1.469.265zm-.741.783 3.7-20.564-1.774-.319-3.701 20.563zm2.653-19.837 12.956 2.332.319-1.775-12.955-2.331zm12.228 1.285-.529 2.938 1.775.319.529-2.938zm.518 2.21-10.017-1.803-.32 1.775 10.018 1.802zm-11.064-1.075-1.073 5.963 1.774.32 1.073-5.964zm-.346 7.01 7.462 1.343.319-1.774-7.461-1.343zm6.734.296-.528 2.938 1.774.319.529-2.937zm.519 2.21-7.462-1.342-.319 1.774 7.461 1.343zm-8.509-.615-1.047 5.817 1.775.319 1.046-5.817zm-.319 6.864 10.399 1.871.32-1.774-10.4-1.872zm32.425-6.909.891-.133-.002-.014zm-1.475 8.196.779.453.005-.009.005-.009zm-1.702 2.211-.639-.636-.003.003zm-2.205 1.635.418.798.003-.001zm-2.671.854.135.891zm-11.042-1.502-.888-.16-.159.888.887.159zm3.7-20.564.16-.887-.887-.16-.16.887zm10.873 2.442-.437.788zm2.201 1.761-.681.591.009.01.009.01zm1.496 2.301-.827.359.006.013.006.012zm-3.232 9.366.778.455.006-.009zm1.121-6.228.89-.139-.001-.008-.001-.008zm-.556-1.798-.827.359.003.007.004.008zm-1.02-1.579-.679.593.007.009.008.008zm-1.511-1.212-.469.77.015.009.015.008zm-6.957-1.616.159-.887-.887-.16-.16.887zm-2.654 14.747-.887-.159-.16.887.887.16zm7.108.946.138.891.012-.002.012-.002zm1.809-.615.426.795.004-.002zm1.507-1.124.638.637.006-.006.005-.006zm4.318-8.088a12 12 0 0 1-.06 3.941l1.774.32q.408-2.261.069-4.527zm-.06 3.941a12 12 0 0 1-1.313 3.686l1.579.871a13.7 13.7 0 0 0 1.508-4.237zm-1.303 3.669a10 10 0 0 1-1.561 2.028l1.277 1.272a11.8 11.8 0 0 0 1.843-2.394zm-1.564 2.031a8 8 0 0 1-1.985 1.471l.843 1.594a9.9 9.9 0 0 0 2.426-1.799zm-1.982 1.47c-.707.371-1.5.626-2.387.76l.27 1.783a9.3 9.3 0 0 0 2.954-.947zm-2.387.76c-.866.131-1.812.111-2.845-.075l-.32 1.774c1.2.216 2.347.249 3.435.084zm-2.845-.075-7.903-1.422-.319 1.774 7.902 1.422zm-7.175-.375 3.701-20.564-1.775-.32-3.701 20.564zm2.654-19.837 7.902 1.422.319-1.774-7.902-1.422zm7.902 1.422c1.033.186 1.927.497 2.693.921l.874-1.576c-.962-.534-2.048-.903-3.248-1.119zm2.693.921a7.1 7.1 0 0 1 1.957 1.564l1.362-1.182a8.9 8.9 0 0 0-2.445-1.958zm1.975 1.584a7.3 7.3 0 0 1 1.332 2.049l1.654-.718a9 9 0 0 0-1.661-2.553zm1.344 2.074q.538 1.143.75 2.428l1.779-.293a11 11 0 0 0-.898-2.903zm-1.633 9.428a10.3 10.3 0 0 0 1.187-3.276l-1.774-.319a8.5 8.5 0 0 1-.98 2.703zm1.187-3.276a10.6 10.6 0 0 0 .04-3.537l-1.781.279a8.8 8.8 0 0 1-.033 2.939zm.038-3.553a8.3 8.3 0 0 0-.624-2.017l-1.64.748a6.5 6.5 0 0 1 .488 1.58zm-.617-2.003a6.5 6.5 0 0 0-1.183-1.829l-1.328 1.22q.528.575.857 1.328zm-1.168-1.812a6.5 6.5 0 0 0-1.75-1.406l-.879 1.574q.752.422 1.271 1.018zm-1.721-1.389c-.674-.411-1.447-.686-2.302-.84l-.319 1.775c.673.121 1.228.328 1.683.605zm-2.302-.84-4.965-.893-.319 1.774 4.965.894zm-6.012-.166-2.653 14.748 1.774.319 2.654-14.747zm-1.926 15.795 4.965.893.319-1.774-4.965-.894zm4.965.893c.847.152 1.663.176 2.441.056l-.275-1.782c-.553.085-1.167.074-1.847-.048zm2.465.052a7 7 0 0 0 2.073-.707l-.851-1.589a5.3 5.3 0 0 1-1.546.522zm2.077-.709a7.4 7.4 0 0 0 1.715-1.28l-1.277-1.273a5.6 5.6 0 0 1-1.297.968zm1.726-1.292a9 9 0 0 0 1.282-1.691l-1.556-.91a7.2 7.2 0 0 1-1.025 1.351z"/><path fill="#6145FF" d="M204.671 178.393a5.9 5.9 0 0 1-.714 3.968 5.7 5.7 0 0 1-.857 1.083q-.489.467-1.122.78a4.9 4.9 0 0 1-1.355.417 5 5 0 0 1-1.591-.051l-3.927-.707-.8 4.444-2.066-.372 2.599-14.447 5.932 1.067a4.8 4.8 0 0 1 1.526.531q.683.357 1.166.871.487.493.78 1.122.296.609.429 1.294m-2.506 2.899a3.52 3.52 0 0 0 .453-2.522 2.63 2.63 0 0 0-.693-1.362q-.535-.588-1.527-.766l-3.865-.695-1.06 5.89 3.927.707a2.58 2.58 0 0 0 1.587-.163 2.52 2.52 0 0 0 1.178-1.089m14.825 3.414a4.54 4.54 0 0 1-1.339 1.509 4.6 4.6 0 0 1-1.843.757l2.087 5.24-2.418-.435-1.97-4.942-3.369-.606-.8 4.443-2.066-.372 2.599-14.447 5.932 1.068a4.8 4.8 0 0 1 1.526.53q.683.358 1.166.872.488.493.78 1.122.296.608.429 1.293.175 1.035-.006 2.047a5.9 5.9 0 0 1-.708 1.921m-8.484-.524 3.927.707a2.6 2.6 0 0 0 1.587-.162 2.52 2.52 0 0 0 1.178-1.09 3.52 3.52 0 0 0 .453-2.522 2.63 2.63 0 0 0-.693-1.362q-.535-.586-1.527-.765l-3.865-.696zm19.793 8.15-.372 2.067-8.35-1.503.004-.021-1.034-.186 2.604-14.467 9.114 1.64-.372 2.067-7.047-1.269-.755 4.196 5.249.945-.372 2.067-5.249-.945-.737 4.092zm15.824-3.959q.75.454 1.472.948.722.492 1.25 1.121.526.627.765 1.439.242.79.045 1.886-.166 1.036-.745 1.765a4.5 4.5 0 0 1-1.378 1.138 5.3 5.3 0 0 1-1.761.537 6.6 6.6 0 0 1-1.888-.062 6.5 6.5 0 0 1-1.891-.639 4.9 4.9 0 0 1-1.439-1.134 4.1 4.1 0 0 1-.805-1.574q-.219-.915-.022-2.01l2.067.372q-.12.661.023 1.177.145.496.486.856.344.34.838.556a5 5 0 0 0 1.115.329q.599.108 1.228.05a3.4 3.4 0 0 0 1.151-.347 1.8 1.8 0 0 0 .64-.589q.256-.36.314-.797a1.78 1.78 0 0 0-.094-1.02 2.5 2.5 0 0 0-.552-.846 5 5 0 0 0-.895-.716q-.494-.345-1.014-.652-.709-.448-1.397-.892a5.8 5.8 0 0 1-1.178-1.044 3.7 3.7 0 0 1-.722-1.324q-.228-.745-.05-1.738a3.3 3.3 0 0 1 .578-1.432q.461-.664 1.153-1.073a5 5 0 0 1 1.543-.512 4.6 4.6 0 0 1 1.636.039q.828.148 1.585.562t1.288 1.022q.551.61.794 1.401.263.794.078 1.7l-2.067-.372a1.34 1.34 0 0 0-.022-.708 1.5 1.5 0 0 0-.313-.632 2.97 2.97 0 0 0-1.715-.906 2.56 2.56 0 0 0-1.767.215 1.36 1.36 0 0 0-.704 1.068q-.086.475.079.868.184.396.529.735.344.34.803.635zm17.378 12.046-2.212-.398-.759-3.487-6.098-1.097-1.927 3.003-2.211-.398 8.556-13.396 1.302.234zm-3.447-6.104-1.227-5.747-3.175 4.955zm15.675 6.149-.372 2.067-9.921-1.785 2.6-14.447 2.046.368-2.228 12.38zm11.338 2.084-.372 2.066-8.35-1.502.004-.021-1.033-.186 2.603-14.468 9.115 1.641-.372 2.067-7.048-1.269-.755 4.196 5.25.945-.372 2.066-5.25-.944-.736 4.092zm-72.946 9.226-.372 2.067-8.35-1.503.003-.021-1.033-.186 2.604-14.467 9.114 1.64-.372 2.067-7.048-1.269-.755 4.196 5.25.945-.372 2.067-5.25-.945-.736 4.092zm16.23-9.903-2.604 14.467-.971-.174-6.836-11.814-1.845 10.251-2.046-.368 2.604-14.467 1.178.212 6.657 11.503 1.796-9.982zm13.902 7.004a9.1 9.1 0 0 1-1.038 5.766 7.7 7.7 0 0 1-1.197 1.556q-.68.688-1.552 1.15a5.9 5.9 0 0 1-1.879.601q-1.03.156-2.209-.056l-5.56-1.001 2.604-14.468 5.56 1.001q1.178.211 2.09.717a5.7 5.7 0 0 1 1.548 1.239q.66.717 1.053 1.619.416.886.58 1.876m-2.854 4.714a6.6 6.6 0 0 0 .762-2.103 6.8 6.8 0 0 0 .026-2.279 5.2 5.2 0 0 0-.391-1.265 4 4 0 0 0-.718-1.111 4 4 0 0 0-1.062-.853 4.1 4.1 0 0 0-1.403-.508l-3.492-.628-1.868 10.375 3.493.628a4.6 4.6 0 0 0 1.509.037q.706-.129 1.272-.432a4.5 4.5 0 0 0 1.06-.791q.473-.49.812-1.07m13.778 5.573-.372 2.067-8.35-1.503.004-.02-1.033-.186 2.603-14.468 9.115 1.64-.372 2.067-7.048-1.268-.755 4.195 5.25.945-.372 2.067-5.25-.945-.736 4.093zm15.384-5.553a9.1 9.1 0 0 1-1.038 5.766 7.7 7.7 0 0 1-1.197 1.556q-.68.688-1.552 1.15a5.9 5.9 0 0 1-1.879.601q-1.03.156-2.209-.056l-5.559-1.001 2.603-14.467 5.56 1q1.178.213 2.09.718.912.506 1.548 1.238a5.8 5.8 0 0 1 1.053 1.62q.417.885.58 1.875m-2.854 4.714a6.6 6.6 0 0 0 .762-2.103 6.8 6.8 0 0 0 .026-2.279 5.2 5.2 0 0 0-.391-1.265 4 4 0 0 0-.718-1.111 4 4 0 0 0-1.062-.852 4.1 4.1 0 0 0-1.402-.509l-3.493-.628-1.867 10.375 3.492.629a4.6 4.6 0 0 0 1.509.036q.706-.129 1.273-.432a4.5 4.5 0 0 0 1.059-.791q.473-.49.812-1.07"/><path fill="#6145FF" d="m204.671 178.393.888-.152-.001-.01-.002-.01zm-.714 3.968.769.469.006-.009.005-.008zm-.857 1.083.622.653.006-.006.006-.006zm-1.122.78.395.811.005-.003zm-1.355.417.121.894.012-.002.012-.002zm-5.518-.758.16-.887-.888-.16-.159.888zm-.8 4.444-.159.887.887.16.16-.887zm-2.066-.372-.888-.16-.159.887.887.16zm2.599-14.447.16-.887-.887-.16-.16.887zm7.458 1.598-.446.784.014.007.014.008zm1.166.871-.656.618.008.008.007.008zm.78 1.122-.817.38.003.008.003.007zm-2.077 4.193-.774-.463-.007.012-.007.012zm.453-2.522-.887.159.001.005zm-.693-1.362-.667.607.005.005.005.005zm-5.392-1.461.16-.888-.887-.159-.16.887zm-1.06 5.89-.887-.16-.16.888.888.159zm3.927.707.182-.883-.011-.002-.011-.002zm1.587-.163.359.827.009-.004.008-.004zm2.795-3.837a5 5 0 0 1-.004 1.736l1.774.32a6.8 6.8 0 0 0 .007-2.359zm-.004 1.736a5 5 0 0 1-.601 1.629l1.56.904a6.8 6.8 0 0 0 .815-2.213zm-.591 1.612a4.7 4.7 0 0 1-.721.911l1.268 1.282a6.5 6.5 0 0 0 .992-1.255zm-.709.9a3.6 3.6 0 0 1-.899.624l.799 1.616q.75-.37 1.344-.935zm-.894.621a4 4 0 0 1-1.106.339l.29 1.779a5.7 5.7 0 0 0 1.605-.497zm-1.082.335c-.39.053-.825.042-1.31-.045l-.32 1.774c.645.116 1.27.139 1.872.058zm-1.31-.045-3.927-.707-.32 1.774 3.927.707zm-4.974.021-.8 4.443 1.775.32.799-4.444zm.247 3.716-2.067-.372-.319 1.774 2.067.372zm-1.339.675 2.6-14.447-1.775-.32-2.6 14.447zm1.553-13.72 5.931 1.068.32-1.775-5.932-1.067zm5.931 1.068c.495.089.904.235 1.24.427l.892-1.567a5.7 5.7 0 0 0-1.812-.635zm1.268.442c.374.196.68.427.928.69l1.313-1.236a5.3 5.3 0 0 0-1.404-1.051zm.943.706q.377.382.604.868l1.635-.76a4.9 4.9 0 0 0-.956-1.375zm.61.883q.244.497.355 1.07l1.77-.343a6.1 6.1 0 0 0-.503-1.516zm-.492 4.26c.58-.972.771-2.035.566-3.148l-1.773.328c.126.682.015 1.3-.341 1.895zm.567-3.143a3.54 3.54 0 0 0-.924-1.821l-1.314 1.235c.255.271.403.568.463.904zm-.915-1.81c-.522-.574-1.23-.901-2.033-1.046l-.319 1.774c.519.094.829.277 1.019.486zm-2.033-1.046-3.865-.696-.319 1.775 3.865.695zm-4.912.032-1.06 5.89 1.775.32 1.06-5.891zm-.332 6.937 3.927.707.319-1.774-3.927-.707zm3.904.703c.729.15 1.447.077 2.128-.219l-.718-1.654a1.68 1.68 0 0 1-1.046.107zm2.145-.227a3.4 3.4 0 0 0 1.589-1.47l-1.575-.877c-.18.324-.428.554-.766.709zm15.627 1.506-.78-.452-.005.008-.004.007zm-1.339 1.509.515.74.01-.007zm-1.843.757-.158-.888-1.089.194.41 1.027zm2.087 5.24-.16.887 1.598.288-.601-1.509zm-2.418-.435-.838.334.186.464.492.089zm-1.97-4.942.837-.334-.185-.465-.492-.088zm-3.369-.606.16-.888-.888-.159-.159.887zm-.8 4.443-.159.887.887.16.16-.887zm-2.066-.372-.888-.159-.159.887.887.159zm2.599-14.447.16-.887-.887-.16-.16.888zm7.458 1.598-.446.784.014.008.014.007zm1.166.872-.656.618.007.008.008.007zm.78 1.122-.817.38.003.007.003.007zm.429 1.293.888-.152-.001-.01-.002-.009zm-9.198 3.444-.887-.159-.16.887.888.16zm3.927.707.182-.883-.011-.002-.011-.002zm1.587-.162.359.826.009-.003.008-.004zm1.178-1.09-.774-.462-.007.011-.007.013zm.453-2.522-.887.16.001.004zm-.693-1.362-.667.607.005.005.005.005zm-5.392-1.461.16-.887-.887-.16-.16.887zm6.635 5.977q-.409.738-1.075 1.213l1.05 1.466a5.4 5.4 0 0 0 1.602-1.805zm-1.064 1.206a3.7 3.7 0 0 1-1.487.609l.316 1.775a5.5 5.5 0 0 0 2.2-.904zm-2.166 1.83 2.086 5.241 1.675-.668-2.086-5.24zm3.084 4.02-2.419-.435-.319 1.774 2.418.435zm-1.741.118-1.97-4.942-1.675.668 1.97 4.942zm-2.647-5.495-3.369-.607-.32 1.775 3.369.606zm-4.416.121-.8 4.444 1.775.319.799-4.444zm.247 3.716-2.067-.372-.319 1.774 2.067.372zm-1.339.675 2.6-14.447-1.775-.319-2.6 14.447zm1.553-13.719 5.931 1.067.32-1.774-5.932-1.068zm5.931 1.067c.495.089.904.235 1.24.427l.892-1.567a5.7 5.7 0 0 0-1.812-.634zm1.268.442c.374.196.68.428.928.691l1.313-1.236a5.3 5.3 0 0 0-1.404-1.052zm.943.706q.377.382.604.869l1.634-.76a4.9 4.9 0 0 0-.955-1.376zm.61.883q.244.497.355 1.07l1.77-.342a6.1 6.1 0 0 0-.503-1.517zm.351 1.051a5 5 0 0 1-.004 1.736l1.774.319q.21-1.171.007-2.359zm-.004 1.736a5 5 0 0 1-.601 1.628l1.56.904a6.8 6.8 0 0 0 .815-2.213zm-8.464 2.444 3.926.706.32-1.774-3.927-.707zm3.904.702c.729.15 1.447.077 2.128-.219l-.718-1.653a1.7 1.7 0 0 1-1.046.106zm2.145-.226a3.4 3.4 0 0 0 1.589-1.471l-1.575-.876c-.18.323-.428.553-.766.708zm1.575-1.447a4.42 4.42 0 0 0 .567-3.147l-1.773.327c.126.682.015 1.3-.341 1.896zm.568-3.143a3.54 3.54 0 0 0-.924-1.82l-1.314 1.234c.255.272.403.568.463.905zm-.915-1.81c-.522-.573-1.23-.901-2.033-1.046l-.319 1.775c.519.093.829.276 1.019.485zm-2.033-1.046-3.865-.695-.319 1.774 3.865.696zm-4.912.032-1.06 5.891 1.774.319 1.06-5.89zm19.62 14.2.887.159.16-.887-.888-.16zm-.372 2.067-.16.887.887.159.16-.887zm-8.35-1.503-.887-.16-.16.887.887.16zm.004-.021.887.16.16-.887-.888-.16zm-1.034-.186-.887-.159-.16.887.888.16zm2.604-14.467.159-.888-.887-.159-.159.887zm9.114 1.64.888.16.159-.888-.887-.159zm-.372 2.067-.159.887.887.16.16-.888zm-7.047-1.269.159-.887-.887-.159-.16.887zm-.755 4.196-.888-.16-.159.888.887.159zm5.249.945.888.159.159-.887-.887-.16zm-.372 2.067-.159.887.887.159.16-.887zm-5.249-.945.159-.887-.887-.16-.16.887zm-.737 4.092-.887-.16-.16.888.888.159zm6.429 1.157-.371 2.067 1.774.319.372-2.067zm.675 1.339-8.349-1.502-.32 1.774 8.35 1.503zm-7.622-.455.004-.021-1.775-.319-.003.02zm-.724-1.068-1.033-.186-.319 1.775 1.033.185zm-.306.861 2.604-14.468-1.774-.319-2.604 14.468zm1.557-13.74 9.115 1.64.319-1.774-9.115-1.641zm8.387.593-.372 2.067 1.775.319.372-2.066zm.675 1.339-7.048-1.268-.319 1.775 7.048 1.268zm-8.095-.54-.755 4.195 1.775.32.755-4.196zm-.027 5.242 5.25.945.319-1.775-5.25-.944zm4.522-.102-.372 2.067 1.775.319.372-2.067zm.675 1.339-5.25-.944-.319 1.774 5.25.945zm-6.297-.217-.736 4.092 1.774.32.737-4.093zm-.008 5.139 7.316 1.317.319-1.775-7.316-1.316zm23.3-3.529-.478.764.01.007zm1.472.948-.508.744zm2.015 2.56-.865.254.003.01zm.045 1.886-.888-.16-.001.009-.002.009zm-.745 1.765.699.569.007-.008zm-1.378 1.138.412.802.007-.004.007-.003zm-1.761.537.098.896.009-.001.01-.001zm-3.779-.701-.421.797zm-1.439-1.134-.694.575.009.011zm-.805-1.574-.876.21.003.013.003.013zm-.022-2.01.16-.887-.888-.16-.159.887zm2.067.372.887.159.16-.887-.888-.159zm.023 1.177-.87.239.002.008.003.007zm.486.856-.655.62.011.011.011.011zm.838.556-.362.826.007.003zm2.343.379.082.898.015-.001.014-.002zm1.151-.347.416.799.013-.006.012-.007zm.64-.589-.734-.525-.011.017-.011.016zm.314-.797-.888-.16-.003.021-.003.021zm-.094-1.02-.843.319.006.016.006.015zm-.552-.846-.646.629zm-.895-.716-.517.739.017.011.017.011zm-1.014-.652-.481.762.011.008.012.007zm-1.397-.892-.506.746.008.006.009.006zm-1.9-2.368.862-.265zm-.05-1.738.888.16.002-.012.001-.011zm.578-1.432.735.522.006-.008zm1.153-1.073-.417-.799-.021.011-.02.012zm1.543-.512-.136-.891-.007.001zm1.636.039-.182.883.011.002.012.002zm1.585.562.432-.791zm1.288 1.022-.679.593.005.005.005.005zm.794 1.401-.862.264.003.01.003.009zm.078 1.7-.16.887.867.156.176-.863zm-2.067-.372-.876-.211-.225.929.941.169zm-.022-.708-.877.209.006.023.006.022zm-.313-.632.695-.575-.021-.026-.024-.024zm-1.715-.906-.198.879.028.006.029.005zm-1.767.215-.404-.806-.024.012-.023.014zm-.704 1.068.887.16.005-.026.003-.027zm.079.868-.832.348.007.017.008.016zm.529.735.633-.642zm.803.635-.489.758.011.007zm.491 1.371q.73.442 1.432.921l1.016-1.489a33 33 0 0 0-1.513-.974zm1.432.921q.626.428 1.067.956l1.381-1.159a7 7 0 0 0-1.432-1.286zm1.067.956c.269.321.466.689.591 1.114l1.73-.508a4.85 4.85 0 0 0-.94-1.765zm.594 1.124c.107.35.134.826.019 1.462l1.775.319c.148-.825.145-1.606-.07-2.309zm.016 1.48c-.089.558-.282.997-.559 1.345l1.411 1.123c.494-.622.797-1.36.929-2.185zm-.553 1.338a3.6 3.6 0 0 1-1.106.913l.853 1.589a5.4 5.4 0 0 0 1.651-1.365zm-1.091.906c-.434.223-.92.373-1.466.444l.234 1.788a6.2 6.2 0 0 0 2.056-.629zm-1.448.442a5.7 5.7 0 0 1-1.629-.054l-.32 1.775q1.061.19 2.146.071zm-1.629-.054a5.6 5.6 0 0 1-1.63-.548l-.842 1.594c.66.349 1.38.59 2.152.729zm-1.63-.548a4 4 0 0 1-1.174-.923l-1.371 1.172a5.7 5.7 0 0 0 1.703 1.345zm-1.166-.912a3.2 3.2 0 0 1-.629-1.236l-1.74.473a5 5 0 0 0 .981 1.913zm-.622-1.21c-.112-.468-.125-1.01-.012-1.64l-1.774-.319c-.15.831-.147 1.629.033 2.38zm-1.059-.912 2.067.372.319-1.774-2.066-.372zm1.34-.675c-.098.541-.098 1.073.04 1.576l1.739-.477c-.051-.186-.066-.438-.005-.78zm.045 1.591c.135.462.367.874.696 1.222l1.31-1.24a1.17 1.17 0 0 1-.276-.49zm.718 1.244c.316.312.691.556 1.109.74l.725-1.651a1.9 1.9 0 0 1-.568-.373zm1.116.743q.618.263 1.31.387l.32-1.774a4.2 4.2 0 0 1-.919-.27zm1.31.387a5.5 5.5 0 0 0 1.47.061l-.164-1.795q-.512.046-.986-.04zm1.499.058a4.3 4.3 0 0 0 1.456-.443l-.832-1.599q-.36.19-.845.253zm1.481-.456c.387-.217.712-.511.954-.884l-1.511-.983a.9.9 0 0 1-.325.294zm.932-.851c.257-.36.417-.766.475-1.204l-1.788-.235a.84.84 0 0 1-.154.39zm.468-1.162c.094-.52.056-1.04-.15-1.529l-1.662.7a.87.87 0 0 1 .037.51zm-.138-1.499a3.4 3.4 0 0 0-.749-1.155l-1.292 1.258c.175.18.287.359.355.536zm-.749-1.155a5.8 5.8 0 0 0-1.059-.849l-.965 1.523q.438.28.732.584zm-1.025-.826a17 17 0 0 0-1.072-.69l-.916 1.554q.491.289.955.614zm-1.049-.675q-.705-.446-1.39-.887l-.977 1.515q.693.446 1.405.896zm-1.372-.875a5 5 0 0 1-.997-.883l-1.373 1.169q.58.679 1.358 1.205zm-.997-.883a2.8 2.8 0 0 1-.547-1.005l-1.723.529q.28.919.897 1.645zm-.547-1.005c-.1-.325-.125-.753-.024-1.313l-1.775-.319c-.137.762-.13 1.493.076 2.161zm-.021-1.336c.06-.389.2-.734.422-1.047l-1.47-1.044a4.2 4.2 0 0 0-.734 1.818zm.428-1.055q.348-.502.871-.811l-.917-1.552a4.5 4.5 0 0 0-1.435 1.335zm.829-.787q.6-.314 1.27-.422l-.287-1.78a6 6 0 0 0-1.817.603zm1.262-.42a3.7 3.7 0 0 1 1.318.03l.365-1.766a5.5 5.5 0 0 0-1.955-.047zm1.341.034q.679.122 1.312.467l.864-1.583a6.1 6.1 0 0 0-1.857-.658zm1.312.467c.418.228.762.503 1.041.823l1.358-1.186a5.5 5.5 0 0 0-1.535-1.22zm1.051.833c.279.31.478.661.601 1.062l1.724-.527a4.6 4.6 0 0 0-.986-1.742zm.607 1.081c.12.365.145.771.05 1.237l1.767.36c.151-.741.124-1.469-.105-2.163zm1.093.53-2.066-.372-.32 1.774 2.067.372zm-1.35.727c.095-.393.08-.79-.033-1.174l-1.73.508a.46.46 0 0 1 .011.243zm-.021-1.129a2.45 2.45 0 0 0-.495-.998l-1.39 1.149c.062.075.106.16.131.267zm-.54-1.048a3.87 3.87 0 0 0-2.223-1.172l-.283 1.781c.464.074.859.279 1.206.64zm-2.166-1.161a3.47 3.47 0 0 0-2.37.289l.809 1.612a1.67 1.67 0 0 1 1.164-.142zm-2.417.315a2.26 2.26 0 0 0-1.148 1.741l1.79.214a.47.47 0 0 1 .261-.395zm-1.14 1.689c-.084.464-.051.932.134 1.375l1.663-.696a.63.63 0 0 1-.023-.36zm.149 1.408c.173.371.415.703.713.996l1.266-1.284a1.6 1.6 0 0 1-.345-.474zm.713.996q.42.412.947.751l.978-1.515a4 4 0 0 1-.659-.52zm.958.758.959.599.956-1.529-.959-.599zm18.815 11.881-.16.887 1.324.239-.283-1.316zm-2.212-.398-.881.192.128.589.593.106zm-.759-3.487.88-.191-.128-.589-.593-.107zm-6.098-1.097.16-.887-.593-.107-.325.507zm-1.927 3.003-.16.888.593.106.326-.507zm-2.211-.398-.76-.485-.724 1.134 1.324.239zm8.556-13.396.159-.887-.594-.107-.325.509zm1.302.234.881-.19-.127-.59-.595-.107zm-.098 9.435-.16.887 1.322.238-.28-1.313zm-1.227-5.747.881-.188-.458-2.144-1.182 1.845zm-3.175 4.955-.759-.486-.727 1.134 1.326.239zm8.008 6.009-2.211-.398-.32 1.774 2.212.398zm-1.49.297-.76-3.486-1.761.383.759 3.487zm-1.481-4.182-6.097-1.097-.319 1.774 6.097 1.098zm-7.015-.697-1.928 3.003 1.518.974 1.927-3.003zm-1.009 2.603-2.212-.398-.319 1.775 2.211.398zm-1.612.975 8.556-13.397-1.519-.97-8.556 13.396zm7.637-12.995 1.302.234.319-1.774-1.302-.234zm.58-.463 3.349 15.539 1.763-.38-3.349-15.539zm1.666 9.057-1.228-5.747-1.763.376 1.227 5.747zm-2.868-6.046-3.175 4.956 1.518.972 3.175-4.955zm-2.576 6.329 4.402.792.32-1.774-4.403-.792zm20.237 6.054.887.16.16-.887-.887-.16zm-.372 2.067-.16.888.888.159.159-.887zm-9.921-1.785-.887-.16-.16.888.888.159zm2.6-14.447.16-.887-.887-.16-.16.887zm2.046.368.888.16.159-.887-.887-.16zm-2.228 12.38-.887-.159-.159.887.887.16zm6.988 1.258-.372 2.067 1.774.319.372-2.067zm.675 1.339-9.921-1.785-.319 1.774 9.92 1.786zm-9.193-.738 2.599-14.447-1.774-.32-2.6 14.447zm1.553-13.72 2.046.369.319-1.775-2.046-.368zm1.318-.678-2.228 12.38 1.775.319 2.228-12.38zm-1.5 13.427 7.874 1.417.32-1.775-7.875-1.417zm19.372 2.613.887.159.16-.887-.887-.16zm-.372 2.066-.159.888.887.159.159-.887zm-8.35-1.502-.887-.16-.16.887.888.16zm.004-.021.887.16.16-.888-.887-.159zm-1.033-.186-.888-.16-.159.888.887.159zm2.603-14.468.16-.887-.887-.159-.16.887zm9.115 1.641.887.159.16-.887-.888-.16zm-.372 2.067-.16.887.887.159.16-.887zm-7.048-1.269.16-.887-.888-.16-.159.888zm-.755 4.196-.887-.16-.16.887.887.16zm5.25.945.887.159.16-.887-.888-.16zm-.372 2.066-.16.888.887.159.16-.887zm-5.25-.944.16-.888-.888-.159-.159.887zm-.736 4.092-.888-.16-.159.887.887.16zm6.429 1.157-.372 2.067 1.774.319.372-2.067zm.675 1.339-8.35-1.503-.319 1.775 8.35 1.503zm-7.622-.456.003-.02-1.774-.32-.004.021zm-.724-1.067-1.034-.186-.319 1.774 1.033.186zm-.306.861 2.603-14.468-1.774-.319-2.604 14.467zm1.556-13.74 9.115 1.64.319-1.775-9.114-1.64zm8.388.593-.372 2.067 1.774.319.372-2.067zm.674 1.339-7.047-1.268-.32 1.774 7.048 1.269zm-8.094-.54-.755 4.195 1.774.319.755-4.195zm-.028 5.242 5.25.945.319-1.775-5.249-.944zm4.522-.102-.372 2.067 1.775.319.372-2.067zm.675 1.339-5.249-.945-.32 1.775 5.25.945zm-6.296-.217-.737 4.092 1.775.32.736-4.093zm-.009 5.139 7.316 1.317.32-1.775-7.317-1.316zm-65.47 9.656.887.159.159-.887-.887-.159zm-.372 2.067-.16.887.887.159.16-.887zm-8.35-1.503-.887-.16-.16.888.887.159zm.003-.021.888.16.159-.887-.887-.16zm-1.033-.186-.887-.159-.16.887.887.16zm2.604-14.467.159-.888-.887-.159-.16.887zm9.114 1.64.887.16.16-.888-.887-.159zm-.372 2.067-.159.887.887.16.159-.888zm-7.048-1.269.16-.887-.887-.159-.16.887zm-.755 4.196-.887-.16-.159.888.887.159zm5.25.945.887.159.16-.887-.887-.159zm-.372 2.067-.159.887.887.159.159-.887zm-5.25-.945.16-.887-.887-.16-.16.887zm-.736 4.092-.887-.16-.16.888.887.159zm6.429 1.157-.372 2.067 1.775.319.372-2.067zm.675 1.339-8.35-1.502-.319 1.774 8.35 1.503zm-7.622-.455.004-.021-1.775-.319-.003.02zm-.724-1.068-1.033-.186-.32 1.775 1.034.186zm-.306.861 2.604-14.468-1.775-.319-2.603 14.468zm1.557-13.74 9.115 1.64.319-1.774-9.115-1.641zm8.387.593-.372 2.067 1.774.319.372-2.066zm.675 1.34-7.048-1.269-.319 1.775 7.048 1.268zm-8.095-.541-.755 4.195 1.775.32.755-4.196zm-.027 5.242 5.249.945.32-1.774-5.25-.945zm4.522-.102-.372 2.067 1.774.319.372-2.067zm.675 1.339-5.25-.944-.319 1.774 5.25.945zm-6.297-.217-.736 4.092 1.774.32.737-4.092zm-.009 5.139 7.317 1.317.319-1.774-7.316-1.317zm23.707-9.473.887.159.16-.887-.887-.159zm-2.604 14.467-.159.888.887.159.16-.887zm-.971-.174-.78.451.209.362.411.074zm-6.836-11.814.78-.451-1.231-2.129-.436 2.42zm-1.845 10.251-.159.888.887.159.16-.887zm-2.046-.368-.887-.159-.16.887.888.159zm2.604-14.467.159-.888-.887-.159-.159.887zm1.178.212.78-.452-.209-.362-.412-.074zm6.657 11.503-.781.452 1.232 2.129.436-2.421zm1.796-9.982.16-.887-.888-.16-.159.887zm1.18.212-2.604 14.468 1.775.319 2.603-14.468zm-1.557 13.74-.971-.175-.32 1.775.972.175zm-.351.261-6.836-11.813-1.56.903 6.836 11.813zm-8.503-11.522-1.845 10.252 1.775.319 1.844-10.251zm-.798 9.524-2.046-.368-.319 1.774 2.046.369zm-1.319.679 2.604-14.468-1.774-.319-2.604 14.468zm1.557-13.74 1.178.212.319-1.775-1.178-.212zm.558-.224 6.656 11.504 1.561-.903-6.657-11.504zm8.324 11.212 1.796-9.983-1.774-.319-1.797 9.983zm.749-9.255 2.067.372.32-1.774-2.067-.372zm16.129 6.489.891-.133-.002-.014zm-1.038 5.766.779.453.005-.009.005-.008zm-1.197 1.556-.639-.637-.004.004zm-1.552 1.15.419.798.003-.001zm-1.879.601.135.891zm-7.769-1.057-.887-.16-.159.888.887.159zm2.604-14.468.16-.887-.888-.159-.159.887zm7.65 1.718-.437.789zm1.548 1.239-.681.591.009.01.009.01zm1.053 1.619-.827.36.005.012.006.012zm-2.274 6.59.778.455.005-.009zm.788-4.382.891-.139-.002-.008-.001-.008zm-.391-1.265-.827.359.003.007.004.008zm-.718-1.111-.679.593.008.009.007.008zm-1.062-.853-.47.77.015.009.015.009zm-4.895-1.136.159-.888-.887-.159-.16.887zm-1.868 10.375-.887-.16-.159.887.887.16zm5.002.665.137.891.012-.002.013-.002zm1.272-.432.426.794.004-.002zm1.06-.791.639.636.005-.005.006-.006zm2.774-5.651a8.2 8.2 0 0 1-.041 2.686l1.775.319q.293-1.633.049-3.271zm-.041 2.686a8.2 8.2 0 0 1-.894 2.512l1.578.871a10 10 0 0 0 1.091-3.064zm-.884 2.494a6.7 6.7 0 0 1-1.057 1.372l1.277 1.273a8.5 8.5 0 0 0 1.338-1.739zm-1.061 1.376a5.4 5.4 0 0 1-1.33.986l.843 1.594a7.2 7.2 0 0 0 1.772-1.315zm-1.327.985c-.47.246-.999.417-1.596.507l.27 1.783a6.8 6.8 0 0 0 2.163-.694zm-1.596.507a5.8 5.8 0 0 1-1.914-.052l-.32 1.775c.869.156 1.706.181 2.504.06zm-1.914-.052-5.56-1-.319 1.774 5.559 1.001zm-4.832.047 2.603-14.468-1.774-.319-2.604 14.467zm1.556-13.74 5.56 1 .319-1.774-5.559-1.001zm5.56 1c.702.127 1.303.336 1.813.619l.874-1.577a7.6 7.6 0 0 0-2.368-.816zm1.813.619q.781.435 1.304 1.041l1.362-1.182a6.6 6.6 0 0 0-1.792-1.436zm1.322 1.061q.556.603.889 1.368l1.653-.719a6.7 6.7 0 0 0-1.217-1.871zm.9 1.392a6.2 6.2 0 0 1 .506 1.638l1.779-.293a8 8 0 0 0-.654-2.112zm-.675 6.652a7.5 7.5 0 0 0 .866-2.39l-1.774-.319a5.7 5.7 0 0 1-.659 1.817zm.866-2.39a7.7 7.7 0 0 0 .03-2.577l-1.782.278a5.9 5.9 0 0 1-.022 1.98zm.027-2.593a6 6 0 0 0-.459-1.484l-1.64.748a4.3 4.3 0 0 1 .323 1.047zm-.452-1.469a4.9 4.9 0 0 0-.881-1.362l-1.328 1.22q.342.37.555.86zm-.866-1.345a4.9 4.9 0 0 0-1.302-1.047l-.879 1.575c.329.183.6.403.823.658zm-1.272-1.029a4.9 4.9 0 0 0-1.712-.626l-.319 1.774c.446.081.805.216 1.092.391zm-1.712-.626-3.493-.629-.319 1.775 3.493.628zm-4.54.099-1.867 10.375 1.775.32 1.867-10.376zm-1.139 11.422 3.493.629.319-1.775-3.493-.628zm3.493.629c.621.111 1.225.13 1.805.04l-.275-1.782a3.7 3.7 0 0 1-1.211-.033zm1.83.036a5.2 5.2 0 0 0 1.536-.525l-.851-1.589c-.286.153-.62.269-1.009.34zm1.54-.527q.706-.381 1.269-.947l-1.277-1.272a3.6 3.6 0 0 1-.851.634zm1.28-.958a6.6 6.6 0 0 0 .94-1.24l-1.556-.911q-.284.486-.683.901zm13.94 3.878.887.16.16-.887-.887-.16zm-.372 2.067-.159.887.887.16.16-.887zm-8.35-1.503-.887-.159-.159.887.887.16zm.004-.02.887.159.16-.887-.887-.16zm-1.033-.186-.888-.16-.159.887.887.16zm2.603-14.468.16-.887-.887-.16-.16.887zm9.115 1.64.887.16.16-.887-.887-.16zm-.372 2.067-.16.887.887.16.16-.887zm-7.048-1.268.16-.887-.887-.16-.16.887zm-.755 4.195-.887-.159-.16.887.887.16zm5.25.945.887.16.16-.887-.888-.16zm-.372 2.067-.16.887.887.16.16-.887zm-5.25-.945.16-.887-.887-.16-.16.888zm-.736 4.093-.887-.16-.16.887.887.16zm6.429 1.156-.372 2.067 1.775.32.371-2.067zm.675 1.34-8.35-1.503-.319 1.775 8.35 1.502zm-7.622-.456.003-.021-1.774-.319-.004.021zm-.724-1.068-1.034-.186-.319 1.775 1.033.186zm-.306.861 2.603-14.467-1.774-.32-2.604 14.468zm1.557-13.74 9.114 1.641.32-1.775-9.115-1.64zm8.387.594-.372 2.066 1.774.32.372-2.067zm.675 1.339-7.048-1.268-.32 1.774 7.048 1.268zm-8.095-.541-.755 4.196 1.774.319.755-4.196zm-.028 5.243 5.25.944.319-1.774-5.249-.945zm4.523-.103-.372 2.067 1.774.32.372-2.067zm.675 1.34-5.25-.945-.319 1.774 5.249.945zm-6.297-.217-.736 4.092 1.774.319.736-4.092zm-.009 5.139 7.317 1.316.319-1.774-7.317-1.317zm22.86-5.124.891-.133-.002-.014zm-1.038 5.766.779.454.005-.009.005-.009zm-1.197 1.556-.639-.636-.003.003zm-1.552 1.15.419.799.003-.002zm-1.879.601.135.891zm-7.768-1.057-.888-.159-.159.887.887.16zm2.603-14.467.16-.888-.887-.159-.16.887zm7.65 1.718-.437.788zm1.548 1.238-.681.591.009.011.009.01zm1.053 1.62-.827.359.005.012.006.012zm-2.274 6.589.778.455.005-.009zm.788-4.382.891-.139-.001-.008-.002-.008zm-.391-1.265-.827.359.003.008.004.007zm-.718-1.111-.678.594.007.008.008.008zm-1.062-.852-.469.77.014.008.015.009zm-4.895-1.137.159-.887-.887-.16-.16.887zm-1.867 10.375-.888-.16-.159.888.887.159zm5.001.665.137.891.013-.002.012-.002zm1.273-.432.425.795.004-.002zm1.059-.791.639.637.006-.006.005-.006zm2.774-5.651a8.2 8.2 0 0 1-.041 2.686l1.775.32a10 10 0 0 0 .049-3.272zm-.041 2.686a8.2 8.2 0 0 1-.894 2.512l1.578.871a10 10 0 0 0 1.091-3.063zm-.884 2.494q-.435.748-1.057 1.373l1.277 1.272a8.5 8.5 0 0 0 1.338-1.738zm-1.06 1.376a5.4 5.4 0 0 1-1.331.986l.843 1.594a7.2 7.2 0 0 0 1.772-1.314zm-1.328.985a5 5 0 0 1-1.596.508l.27 1.782a6.8 6.8 0 0 0 2.163-.693zm-1.596.508c-.576.087-1.212.074-1.914-.052l-.319 1.774c.868.156 1.705.181 2.503.06zm-1.914-.052-5.56-1.001-.319 1.775 5.56 1zm-4.832.046 2.603-14.468-1.774-.319-2.604 14.468zm1.556-13.74 5.56 1 .319-1.774-5.559-1.001zm5.56 1c.702.127 1.303.337 1.813.619l.874-1.577a7.6 7.6 0 0 0-2.368-.816zm1.813.619q.781.436 1.304 1.041l1.362-1.181a6.6 6.6 0 0 0-1.792-1.437zm1.322 1.062q.556.603.889 1.367l1.654-.719a6.7 6.7 0 0 0-1.217-1.871zm.9 1.391q.363.77.506 1.639l1.779-.294a8 8 0 0 0-.654-2.112zm-.675 6.652a7.5 7.5 0 0 0 .867-2.39l-1.775-.319a5.7 5.7 0 0 1-.659 1.817zm.867-2.39a7.7 7.7 0 0 0 .029-2.577l-1.781.279q.155.992-.023 1.979zm.026-2.593a6 6 0 0 0-.459-1.484l-1.64.748q.227.498.323 1.047zm-.452-1.469a4.9 4.9 0 0 0-.881-1.361l-1.327 1.219q.34.37.554.86zm-.866-1.345a4.8 4.8 0 0 0-1.302-1.046l-.879 1.574c.329.183.601.403.824.659zm-1.272-1.029a4.9 4.9 0 0 0-1.712-.626l-.319 1.775c.446.08.805.215 1.093.391zm-1.712-.626-3.493-.628-.319 1.774 3.493.629zm-4.54.099-1.867 10.375 1.775.32 1.867-10.376zm-1.139 11.422 3.493.629.319-1.775-3.493-.628zm3.493.629a5.4 5.4 0 0 0 1.805.04l-.275-1.782a3.7 3.7 0 0 1-1.211-.033zm1.83.036a5.2 5.2 0 0 0 1.536-.524l-.851-1.59a3.4 3.4 0 0 1-1.009.341zm1.54-.526q.706-.383 1.269-.947l-1.277-1.273a3.6 3.6 0 0 1-.851.634zm1.28-.959q.546-.567.94-1.24l-1.556-.91q-.284.484-.683.9z"/></svg>