<svg xmlns="http://www.w3.org/2000/svg" width="63" height="453" fill="none" viewBox="0 0 62 453"><path fill="#DF4070" d="M61.434 15 47 .566 32.566 15 47 29.434zM3 15v-2.5H.5V15zm0 423H.5v3.5H3zm44 0-25-14.434v28.868zm-11.647-2.5h-6.04v5h6.04zm-14.667 0h-6.039v5h6.04zm-14.666 0H3v5h3.02zM5.5 438v-3.629h-5V438zm0-13.996v-7.258h-5v7.258zm0-17.625v-7.258h-5v7.258zm0-17.625v-7.258h-5v7.258zm0-17.625v-7.258h-5v7.258zm0-17.625v-7.258h-5v7.258zm0-17.625v-7.258h-5v7.258zm0-17.625v-7.258h-5v7.258zm0-17.625v-7.258h-5v7.258zm0-17.625v-7.258h-5v7.258zm0-17.625v-7.258h-5v7.258zm0-17.625v-7.258h-5v7.258zm0-17.625V226.5h-5v3.629zm0-3.629v-3.629h-5v3.629zm0-13.996v-7.258h-5v7.258zm0-17.625v-7.258h-5v7.258zm0-17.625v-7.258h-5v7.258zm0-17.625v-7.258h-5v7.258zm0-17.625v-7.258h-5v7.258zm0-17.625v-7.258h-5v7.258zm0-17.625v-7.258h-5v7.258zm0-17.625V81.87h-5v7.258zm0-17.625v-7.258h-5v7.258zm0-17.625V46.62h-5v7.258zm0-17.625v-7.258h-5v7.258zm0-17.625V15h-5v3.629zM3 17.5h3.02v-5H3zm11.647 0h6.04v-5h-6.04zm14.667 0h6.039v-5h-6.04zm14.666 0H47v-5h-3.02z"/></svg>