<svg xmlns="http://www.w3.org/2000/svg" width="51" height="51" fill="none"><circle cx="25.189" cy="25.189" r="25.189" fill="#000"/><path fill="#57F0CD" d="M24.596 30.031q.524 0 .972-.196.459-.197.787-.536.328-.35.513-.808.197-.47.197-1.016 0-.612-.186-1.093a2.2 2.2 0 0 0-.502-.808 2.2 2.2 0 0 0-.798-.503 2.9 2.9 0 0 0-1.027-.175q-.513 0-.94.186a2.1 2.1 0 0 0-.742.514 2.5 2.5 0 0 0-.481.808 3 3 0 0 0-.175 1.06q0 .59.142 1.06t.437.808.743.524q.448.175 1.06.175m-.547-7.298a4.9 4.9 0 0 1 1.705-.284q.862 0 1.704.284t1.508.874 1.07 1.497q.416.896.416 2.12 0 1.114-.415 2.119a5.3 5.3 0 0 1-1.18 1.748 5.6 5.6 0 0 1-1.825 1.18q-1.071.437-2.37.437-1.334 0-2.393-.415a5.2 5.2 0 0 1-1.803-1.18 5.15 5.15 0 0 1-1.126-1.803 6.7 6.7 0 0 1-.382-2.305q0-2.35 1.814-4.775l3.583-4.84q.252-.316.721-.546.48-.23 1.093-.23h3.015l-4.72 5.638z"/></svg>