<svg xmlns="http://www.w3.org/2000/svg" width="421" height="294" fill="none"><g filter="url(#a)"><path fill="#fff" stroke="#81E1C4" d="m32.852 3.591 370.945 48.712-29.51 224.721L3.342 228.313z"/><path fill="#000" d="m107.802 93.001-6.879-.903-2.505 19.074-3.57-.468 2.505-19.075-6.894-.905.392-2.988 17.343 2.278zm21.876 11.055q-.322 2.451-1.39 4.415-1.07 1.964-2.721 3.274-1.636 1.297-3.784 1.872-2.133.578-4.615.251-2.467-.324-4.394-1.434-1.911-1.108-3.172-2.785-1.258-1.693-1.783-3.866t-.203-4.624 1.39-4.415 2.721-3.274a10.4 10.4 0 0 1 3.785-1.888q2.15-.575 4.615-.25 2.483.326 4.394 1.433 1.927 1.11 3.17 2.801 1.259 1.693 1.784 3.866t.203 4.624m-3.662-.481q.249-1.9-.072-3.485-.307-1.583-1.133-2.767a6.4 6.4 0 0 0-2.1-1.928q-1.29-.746-2.99-.969-1.686-.222-3.123.167a6.5 6.5 0 0 0-2.542 1.318q-1.104.93-1.824 2.379-.721 1.448-.97 3.348-.252 1.914.07 3.5t1.148 2.769a6.6 6.6 0 0 0 2.118 1.915q1.291.73 2.976.952 1.701.223 3.137-.15a6.5 6.5 0 0 0 2.525-1.305q1.104-.93 1.808-2.38.72-1.449.972-3.364m22.961-5.167-6.879-.903-2.505 19.074-3.57-.468 2.505-19.075-6.894-.905.392-2.988 17.344 2.278zm11.172 12.455-1.975-8.457q-.245-.984-.439-2.474-.262.699-.543 1.285-.278.571-.506 1.009l-4.09 7.645zm5.701 9.164-2.773-.364q-.475-.062-.736-.33a1.6 1.6 0 0 1-.366-.656l-1.198-5.114-9.499-1.247-2.479 4.631a1.5 1.5 0 0 1-.503.51q-.34.22-.8.16l-2.774-.364 11.646-20.913 3.631.476zm15.716-.99-.394 3.002-12.747-1.673 2.897-22.063 3.585.471-2.503 19.059zm23.33-12.491a1.5 1.5 0 0 1-.407.368.8.8 0 0 1-.475.062q-.291-.038-.627-.332a10 10 0 0 0-.818-.653 6.8 6.8 0 0 0-1.169-.714q-.685-.355-1.681-.486-.92-.121-1.655.016a3.4 3.4 0 0 0-1.248.491 2.74 2.74 0 0 0-.849.886 3.1 3.1 0 0 0-.389 1.18q-.11.843.259 1.468.372.61 1.04 1.103.683.495 1.577.924.897.413 1.818.878.936.465 1.814 1.017.879.552 1.512 1.305.648.756.968 1.764t.141 2.372a7.5 7.5 0 0 1-.868 2.691 6.6 6.6 0 0 1-1.766 2.059q-1.075.825-2.557 1.192-1.467.368-3.259.133a10 10 0 0 1-2.04-.486q-.97-.33-1.841-.819a10 10 0 0 1-1.58-1.142 8.7 8.7 0 0 1-1.268-1.382l1.267-1.58q.166-.196.397-.29a.96.96 0 0 1 .491-.061q.353.047.737.44.387.378.932.855a9 9 0 0 0 1.376.913q.816.435 2.011.592 1.946.255 3.128-.556 1.197-.809 1.416-2.479.123-.934-.245-1.575a3.6 3.6 0 0 0-1.049-1.151 8.2 8.2 0 0 0-1.566-.891 97 97 0 0 1-1.823-.832 22 22 0 0 1-1.804-.985 6.5 6.5 0 0 1-1.525-1.322 5.3 5.3 0 0 1-.943-1.839q-.312-1.07-.114-2.571a6.1 6.1 0 0 1 .763-2.253 6 6 0 0 1 1.623-1.797q1.019-.755 2.405-1.102 1.386-.349 3.071-.127 1.9.25 3.4 1.054a8 8 0 0 1 2.519 2.061zm11.871 17.222q1.272.167 2.324-.131a4.8 4.8 0 0 0 1.858-.972 5.2 5.2 0 0 0 1.314-1.697q.51-1.04.683-2.358l1.746-13.298 3.57.469-1.746 13.298q-.255 1.946-1.101 3.518a8.2 8.2 0 0 1-2.154 2.632q-1.32 1.043-3.081 1.512-1.744.458-3.827.183-2.084-.273-3.665-1.167-1.564-.906-2.572-2.254a8.4 8.4 0 0 1-1.416-3.101q-.396-1.736-.14-3.681l1.746-13.298 3.585.47-1.744 13.284q-.173 1.317.052 2.453.227 1.122.813 1.993a4.8 4.8 0 0 0 1.529 1.416q.954.563 2.226.729m21.854-5.188q1.196.157 2.139-.03.96-.186 1.63-.659a3.6 3.6 0 0 0 1.098-1.243 5 5 0 0 0 .54-1.737q.126-.965-.079-1.771a3.3 3.3 0 0 0-.718-1.419q-.526-.615-1.41-1.012-.866-.41-2.091-.57l-3.279-.431-1.109 8.442zm1.477-11.245q2.16.283 3.672.996 1.527.716 2.433 1.769a5.6 5.6 0 0 1 1.259 2.394q.339 1.338.136 2.886-.207 1.578-.917 2.825a6.2 6.2 0 0 1-1.889 2.043q-1.18.795-2.828 1.125-1.632.315-3.715.042l-3.279-.431-1.048 7.982-3.585-.47 2.897-22.062zm17.226 13.701q1.194.157 2.139-.03.96-.186 1.629-.659a3.6 3.6 0 0 0 1.098-1.243q.412-.756.54-1.737.127-.966-.079-1.772a3.3 3.3 0 0 0-.717-1.419q-.528-.614-1.411-1.011-.865-.41-2.091-.57l-3.279-.431-1.108 8.442zm1.476-11.245q2.16.283 3.672.996 1.527.715 2.433 1.769a5.6 5.6 0 0 1 1.26 2.394q.338 1.338.135 2.886-.207 1.578-.916 2.825a6.2 6.2 0 0 1-1.89 2.043q-1.18.795-2.828 1.125-1.631.315-3.715.042l-3.278-.431-1.049 7.982-3.585-.47 2.897-22.063zm22.083 22.288-.394 3.003-12.747-1.674 2.897-22.063 3.585.471-2.503 19.059zm9.837-4.444-1.134 8.641-3.57-.469 1.134-8.641-6.296-14.479 3.141.412q.476.063.72.329.246.266.384.642l3.481 8.499q.228.639.403 1.207.189.57.321 1.117.239-.514.552-1.003.315-.504.701-1.061l5.527-7.316q.194-.286.516-.493.326-.224.785-.162l3.157.414zm38.041 2.564q-.322 2.451-1.391 4.415t-2.721 3.274q-1.635 1.297-3.783 1.872-2.134.578-4.615.251-2.467-.323-4.394-1.434-1.911-1.108-3.172-2.785-1.258-1.693-1.783-3.866-.526-2.173-.204-4.624t1.391-4.415q1.068-1.964 2.721-3.274a10.4 10.4 0 0 1 3.785-1.888q2.149-.575 4.615-.251 2.482.327 4.394 1.435 1.927 1.11 3.17 2.8 1.258 1.693 1.783 3.866t.204 4.624m-3.662-.481q.249-1.9-.072-3.485-.307-1.582-1.133-2.767a6.4 6.4 0 0 0-2.1-1.928q-1.29-.746-2.99-.969-1.686-.221-3.123.167a6.5 6.5 0 0 0-2.543 1.318q-1.104.93-1.824 2.379t-.969 3.348q-.251 1.915.07 3.5t1.148 2.769a6.6 6.6 0 0 0 2.118 1.915q1.29.73 2.976.952 1.7.223 3.137-.15a6.5 6.5 0 0 0 2.524-1.304q1.104-.931 1.809-2.381.72-1.449.972-3.364m12.258-6.666-.927 7.063 8.625 1.133-.38 2.896-8.626-1.133-1.209 9.208-3.6-.473 2.897-22.062 13.758 1.807-.38 2.895zm-231.627 30.59-.761 5.794-21.468-2.819.76-5.794 7.243.951L94 132.764q.096-.725.216-1.445.125-.747.275-1.49l-4.762 3.005q-.627.365-1.21.394a3.5 3.5 0 0 1-1.034-.136 2.9 2.9 0 0 1-.835-.452q-.355-.31-.502-.592l-2.093-3.695 13.037-8.313 6.621.87-4.19 31.917zm33.507-8.887q-.65 4.94-2.185 8.423-1.536 3.481-3.736 5.613-2.175 2.135-4.914 2.959-2.714.828-5.714.434t-5.408-1.894q-2.382-1.497-3.932-4.121t-2.135-6.385q-.56-3.756.09-8.697.648-4.94 2.159-8.425 1.536-3.482 3.71-5.617t4.859-2.94q2.714-.828 5.714-.434t5.408 1.894q2.438 1.478 3.987 4.102 1.576 2.628 2.161 6.388.584 3.76-.064 8.7m-8.277-1.086q.513-3.906.348-6.454-.162-2.573-.803-4.104-.615-1.529-1.582-2.181-.963-.68-2.024-.819t-2.166.268q-1.077.385-2.065 1.703-.963 1.32-1.784 3.765-.792 2.421-1.304 6.327-.517 3.932-.377 6.476.165 2.547.751 4.098.615 1.527 1.552 2.203.968.654 2.027.793a4.7 4.7 0 0 0 2.163-.243q1.107-.407 2.095-1.724 1.018-1.34 1.835-3.758.818-2.419 1.334-6.35m8.768 26.83q-.507-.54-.419-1.212.033-.259.255-.546.219-.26.508-.459.35-.27.826-.681.471-.385.957-.874.484-.49.906-1.091.447-.6.723-1.3a4.5 4.5 0 0 1-1.546-.65 4.2 4.2 0 0 1-1.119-1.094 4.5 4.5 0 0 1-.625-1.451 4.9 4.9 0 0 1-.064-1.718 3.8 3.8 0 0 1 .511-1.486 3.6 3.6 0 0 1 1.042-1.126q.667-.465 1.483-.673a5 5 0 0 1 1.826-.076q1.164.153 1.963.679.803.5 1.28 1.273.48.747.62 1.686.17.917.04 1.9-.17 1.293-.777 2.713a13.8 13.8 0 0 1-1.625 2.76 17 17 0 0 1-2.398 2.632 16.8 16.8 0 0 1-3.133 2.219zm41.944-20.171q-.65 4.94-2.185 8.422-1.536 3.481-3.737 5.613-2.175 2.135-4.914 2.96-2.713.827-5.714.433-3-.393-5.408-1.894-2.382-1.496-3.931-4.121-1.55-2.624-2.135-6.384-.56-3.757.09-8.697.649-4.94 2.158-8.426 1.536-3.481 3.711-5.617 2.175-2.134 4.859-2.94 2.714-.828 5.714-.434 3 .395 5.408 1.895 2.438 1.477 3.987 4.101 1.575 2.628 2.16 6.388t-.063 8.701m-8.277-1.087q.513-3.906.347-6.453-.162-2.574-.802-4.105-.615-1.527-1.582-2.181-.963-.679-2.024-.818-1.06-.14-2.166.268-1.077.385-2.066 1.702-.962 1.32-1.783 3.765-.792 2.422-1.305 6.328-.516 3.931-.376 6.475.165 2.548.751 4.098.615 1.528 1.552 2.204.966.653 2.027.792 1.06.14 2.163-.242 1.106-.408 2.095-1.725 1.017-1.34 1.835-3.758t1.334-6.35m38.284 5.027q-.649 4.94-2.185 8.422t-3.736 5.614q-2.175 2.135-4.914 2.959-2.714.828-5.714.434t-5.408-1.894q-2.382-1.497-3.932-4.121t-2.135-6.385q-.559-3.756.09-8.697.648-4.94 2.159-8.425 1.536-3.483 3.71-5.617 2.175-2.136 4.859-2.94 2.714-.828 5.714-.434t5.408 1.894q2.438 1.478 3.987 4.102 1.576 2.628 2.161 6.388t-.064 8.7m-8.277-1.086q.513-3.906.348-6.454-.162-2.573-.803-4.104-.615-1.529-1.582-2.181-.963-.68-2.023-.819t-2.167.268q-1.077.385-2.065 1.702-.963 1.321-1.784 3.766-.792 2.421-1.304 6.327-.517 3.932-.377 6.476.166 2.547.751 4.098.615 1.528 1.552 2.203.968.654 2.028.792a4.7 4.7 0 0 0 2.163-.242q1.106-.407 2.094-1.724 1.018-1.34 1.835-3.759.818-2.418 1.334-6.349m38.284 5.027q-.648 4.94-2.184 8.422t-3.737 5.613q-2.175 2.136-4.914 2.96-2.714.827-5.714.433t-5.408-1.894q-2.382-1.496-3.932-4.121-1.55-2.624-2.134-6.384-.56-3.757.089-8.697t2.159-8.426q1.536-3.481 3.711-5.617 2.174-2.135 4.859-2.94 2.713-.827 5.714-.434 3 .395 5.408 1.895 2.436 1.478 3.987 4.101 1.575 2.628 2.16 6.388t-.064 8.701m-8.276-1.087q.513-3.906.347-6.453-.162-2.574-.803-4.105-.615-1.527-1.581-2.181-.964-.679-2.024-.818-1.06-.14-2.167.268-1.076.385-2.065 1.702-.963 1.32-1.783 3.765-.792 2.422-1.305 6.328-.516 3.931-.377 6.475.166 2.548.751 4.098.615 1.528 1.553 2.204.966.653 2.027.792 1.06.14 2.163-.242 1.105-.408 2.094-1.725 1.019-1.34 1.836-3.758t1.334-6.35m8.768 26.831q-.508-.54-.42-1.213.034-.258.256-.545.218-.26.507-.46.352-.268.827-.681.471-.384.956-.874a8 8 0 0 0 .907-1.091q.447-.599.723-1.3a4.4 4.4 0 0 1-1.546-.65 4.2 4.2 0 0 1-1.119-1.094 4.5 4.5 0 0 1-.626-1.45 4.9 4.9 0 0 1-.063-1.719 3.7 3.7 0 0 1 .511-1.485q.405-.684 1.042-1.126.666-.465 1.483-.674a5 5 0 0 1 1.825-.076q1.165.153 1.963.679.803.5 1.28 1.273a4.2 4.2 0 0 1 .621 1.687q.17.916.04 1.899-.17 1.293-.777 2.714a13.8 13.8 0 0 1-1.626 2.759 17 17 0 0 1-2.398 2.632 16.8 16.8 0 0 1-3.133 2.22zm41.943-20.172q-.649 4.94-2.185 8.422t-3.736 5.614q-2.175 2.135-4.914 2.959-2.714.827-5.714.434-3-.394-5.408-1.894-2.382-1.497-3.932-4.121t-2.135-6.385q-.559-3.756.09-8.697.648-4.94 2.159-8.425 1.536-3.483 3.711-5.617 2.174-2.136 4.858-2.94 2.714-.828 5.714-.434t5.408 1.894q2.437 1.477 3.987 4.102 1.576 2.628 2.161 6.388t-.064 8.7m-8.277-1.087q.513-3.905.348-6.453-.162-2.573-.803-4.104-.615-1.529-1.582-2.181-.963-.68-2.023-.819t-2.167.268q-1.077.385-2.065 1.702-.962 1.321-1.784 3.765-.792 2.422-1.304 6.328-.516 3.931-.377 6.476.166 2.547.751 4.098.615 1.527 1.552 2.203.967.653 2.028.792a4.7 4.7 0 0 0 2.163-.242q1.106-.407 2.094-1.724 1.018-1.34 1.836-3.759.817-2.418 1.333-6.35m38.284 5.028q-.648 4.94-2.184 8.422-1.536 3.481-3.737 5.613-2.175 2.135-4.914 2.96-2.714.827-5.714.433t-5.408-1.894q-2.382-1.496-3.932-4.121-1.55-2.624-2.134-6.384-.56-3.757.089-8.697t2.159-8.426q1.536-3.481 3.711-5.617 2.175-2.134 4.859-2.94 2.713-.828 5.714-.434 3 .394 5.408 1.895 2.437 1.477 3.987 4.101 1.575 2.628 2.16 6.388t-.064 8.701m-8.276-1.087q.512-3.906.347-6.453-.161-2.574-.803-4.105-.615-1.529-1.581-2.181-.963-.679-2.024-.818-1.06-.14-2.166.268-1.077.385-2.066 1.702-.963 1.32-1.783 3.765-.792 2.423-1.305 6.327-.516 3.932-.377 6.476.166 2.547.751 4.098.615 1.528 1.553 2.204.966.653 2.027.792 1.06.14 2.163-.242 1.105-.408 2.095-1.725 1.017-1.34 1.835-3.758t1.334-6.35m38.284 5.027q-.65 4.94-2.185 8.422t-3.736 5.614q-2.175 2.135-4.915 2.959-2.713.827-5.713.434-3.001-.394-5.408-1.894-2.382-1.497-3.932-4.121t-2.135-6.385q-.56-3.756.09-8.697.648-4.94 2.159-8.425 1.535-3.483 3.71-5.617 2.175-2.136 4.859-2.94 2.714-.828 5.714-.434t5.408 1.894q2.438 1.477 3.987 4.102 1.576 2.628 2.161 6.388.584 3.76-.064 8.7m-8.277-1.087q.513-3.904.348-6.453-.162-2.573-.803-4.104-.615-1.529-1.582-2.181-.963-.68-2.024-.819t-2.166.268q-1.077.385-2.065 1.702-.963 1.321-1.784 3.765-.792 2.422-1.305 6.328-.516 3.932-.376 6.476.165 2.547.751 4.098.615 1.528 1.552 2.203.967.653 2.027.792a4.7 4.7 0 0 0 2.163-.242q1.107-.407 2.095-1.724 1.017-1.34 1.835-3.759t1.334-6.35"/><path fill="#000" d="m107.802 93.001-.056.425.425.055.056-.424zm-6.879-.903.056-.425-.425-.055-.056.424zm-2.505 19.074-.056.425.425.056.056-.425zm-3.57-.468-.424-.056-.056.424.425.056zm2.505-19.075.425.056.055-.425-.424-.056zm-6.894-.905-.425-.056-.056.424.425.056zm.392-2.988.056-.425-.425-.055-.055.424zm17.343 2.278.425.055.056-.424-.425-.056zm-.336 2.563-6.879-.904-.112.85 6.879.903zm-7.36-.535-2.504 19.075.849.111 2.505-19.074zm-2.024 18.706-3.57-.469-.111.849 3.57.469zm-3.201.011 2.505-19.074-.85-.112-2.504 19.075zm2.136-19.555-6.895-.905-.111.85 6.894.905zm-6.526-.425.393-2.987-.85-.112-.392 2.988zm-.088-2.618 17.344 2.277.111-.849-17.343-2.278zm16.975 1.797-.392 2.987.849.112.392-2.988zm20.518 18.513.376.205zm-2.721 3.274-.266-.335h-.001zm-3.784 1.872-.111-.413h-.001zm-9.009-1.183-.215.371h.001zm-3.172-2.785-.344.255.002.002zm-.596-12.905-.376-.205zm2.721-3.274.266.335zm3.785-1.888-.11-.413h-.001zm9.009 1.183-.215.37.001.001zm3.17 2.801-.345.254.002.002zm1.784 3.866.416-.1zm-3.531.658-.421.082.001.003zm-1.133-2.767-.353.242.002.003zm-2.1-1.928-.215.371zm-6.113-.802.111.413zm-2.542 1.318-.276-.328zm-1.824 2.379-.384-.191zm-.9 6.848-.419.085zm1.148 2.769-.351.245.002.003zm2.118 1.915-.215.37.004.002zm6.113.802.107.415.004-.001zm2.525-1.305-.276-.327h-.001zm1.808-2.38-.383-.191-.002.004zm4.209-2.939q-.313 2.38-1.342 4.266l.753.41q1.109-2.041 1.438-4.564zm-1.342 4.266q-1.029 1.891-2.61 3.144l.532.671q1.724-1.37 2.831-3.405zm-2.611 3.144q-1.56 1.239-3.628 1.794l.222.827q2.229-.596 3.939-1.95zm-3.629 1.794c-1.361.368-2.841.451-4.447.24l-.112.849q2.556.338 4.783-.262zm-4.447.24c-1.596-.21-3.005-.672-4.236-1.381l-.428.742c1.339.772 2.859 1.266 4.552 1.488zm-4.235-1.38q-1.84-1.068-3.045-2.673l-.684.515q1.316 1.75 3.299 2.899zm-3.043-2.671q-1.205-1.617-1.711-3.71l-.833.201q.544 2.253 1.856 4.02zm-1.711-3.71q-.506-2.088-.195-4.468l-.849-.112q-.333 2.522.211 4.781zm-.195-4.468q.314-2.38 1.342-4.267l-.752-.409q-1.109 2.041-1.439 4.564zm1.342-4.267q1.03-1.89 2.611-3.143l-.532-.67q-1.725 1.367-2.831 3.404zm2.611-3.143a10 10 0 0 1 3.631-1.81l-.223-.826a10.8 10.8 0 0 0-3.94 1.965zm3.63-1.809c1.372-.367 2.853-.45 4.449-.24l.111-.85c-1.693-.222-3.289-.137-4.781.263zm4.449-.24c1.606.21 3.015.673 4.234 1.38l.43-.741q-1.997-1.154-4.553-1.488zm4.235 1.38q1.854 1.069 3.039 2.684l.69-.507q-1.3-1.766-3.301-2.919zm3.041 2.686q1.204 1.618 1.71 3.71l.833-.2q-.544-2.254-1.856-4.021zm1.71 3.71q.507 2.088.195 4.468l.849.112q.333-2.523-.211-4.78zm-2.617 4.099c.171-1.305.148-2.515-.078-3.626l-.839.17c.204 1.003.229 2.116.067 3.344zm-.077-3.622q-.32-1.664-1.202-2.931l-.702.49c.513.735.869 1.6 1.063 2.604zm-1.2-2.928a6.8 6.8 0 0 0-2.239-2.056l-.429.741a5.95 5.95 0 0 1 1.962 1.8zm-2.239-2.056c-.915-.53-1.967-.868-3.148-1.024l-.112.85c1.086.142 2.028.45 2.831.915zM119.777 94c-1.172-.153-2.271-.097-3.291.178l.223.827c.897-.242 1.881-.297 2.956-.155zm-3.291.178a6.96 6.96 0 0 0-2.706 1.404l.552.655a6.1 6.1 0 0 1 2.377-1.232zm-2.706 1.404q-1.178.996-1.932 2.516l.767.381c.457-.92 1.03-1.664 1.717-2.242zm-1.932 2.516c-.505 1.015-.839 2.178-1.011 3.483l.85.111q.243-1.84.928-3.213zm-1.011 3.483c-.172 1.315-.15 2.53.076 3.641l.839-.17q-.308-1.503-.065-3.36zm.076 3.641c.224 1.107.628 2.086 1.216 2.929l.702-.49c-.513-.736-.875-1.603-1.079-2.609zm1.218 2.932a7.06 7.06 0 0 0 2.252 2.037l.429-.741a6.2 6.2 0 0 1-1.982-1.792zm2.256 2.039c.915.518 1.961.85 3.132 1.004l.111-.849c-1.077-.141-2.015-.444-2.821-.9zm3.132 1.004c1.179.155 2.281.105 3.299-.159l-.215-.829c-.896.232-1.885.282-2.973.139zm3.303-.16a6.9 6.9 0 0 0 2.69-1.391l-.553-.655a6.05 6.05 0 0 1-2.36 1.219zm2.69-1.391c.787-.663 1.425-1.507 1.918-2.521l-.771-.374q-.67 1.377-1.699 2.24zm1.916-2.518c.505-1.015.84-2.183 1.013-3.498l-.85-.112c-.162 1.239-.475 2.313-.93 3.229zm23.549-8.72-.056.424.425.055.056-.424zm-6.879-.904.056-.425-.425-.055-.055.424zm-2.505 19.074-.055.425.424.056.056-.425zm-3.57-.468-.424-.056-.056.424.425.056zm2.505-19.075.425.056.056-.425-.425-.055zm-6.894-.905-.425-.056-.055.424.424.056zm.392-2.988.056-.424-.425-.056-.055.424zm17.344 2.278.424.055.056-.424-.425-.056zm-.337 2.563-6.879-.904-.112.85 6.879.903zm-7.359-.535-2.505 19.075.849.111 2.505-19.074zm-2.025 18.706-3.57-.469-.111.849 3.57.469zm-3.201.011 2.505-19.074-.849-.112-2.505 19.075zm2.136-19.554-6.894-.906-.112.85 6.895.905zm-6.526-.426.393-2.987-.849-.112-.393 2.988zm-.088-2.618 17.344 2.277.111-.849-17.343-2.277zm16.975 1.797-.392 2.987.849.112.392-2.988zm11.204 15.498-.055.424.613.081-.141-.603zm-1.975-8.457.417-.098-.001-.006zm-.439-2.474.425-.055-.826-.096zm-.543 1.285.386.187.001-.003zm-.506 1.009.377.202.002-.004zm-4.09 7.645-.378-.202-.292.546.614.081zm13.254 10.156-.056.425.625.082-.154-.611zm-3.509-.694-.316.289.009.01zm-.366-.656-.417.098.003.01.003.01zm-1.198-5.114.416-.097-.067-.289-.294-.038zm-9.499-1.247.055-.424-.293-.039-.14.261zm-2.479 4.631.374.209.004-.007zm-.503.51.232.36zm-3.574-.204-.374-.208-.306.55.625.083zm11.646-20.913.056-.425-.289-.038-.141.254zm3.631.476.415-.104-.071-.282-.288-.038zm.567 13.949-1.975-8.457-.834.195 1.975 8.457zm-1.976-8.463q-.237-.95-.43-2.425l-.85.11q.196 1.505.448 2.522zm-1.256-2.52a16 16 0 0 1-.528 1.251l.773.368q.288-.605.557-1.318zm-.527 1.248q-.275.567-.501.997l.759.397q.233-.444.513-1.02zm-.499.994-4.09 7.645.756.404 4.089-7.645zm-3.768 8.272 7.554.991.111-.849-7.553-.992zm13.366 9.307-2.773-.364-.112.849 2.773.364zm-2.773-.364c-.249-.033-.395-.112-.485-.205l-.614.598c.258.265.602.405.987.456zm-.476-.195q-.19-.209-.27-.485l-.823.236q.134.468.461.827zm-.265-.465-1.199-5.113-.833.195 1.198 5.114zm-1.56-5.44-9.499-1.247-.111.849 9.499 1.247zm-9.932-1.025-2.478 4.631.755.404 2.478-4.631zm-2.474 4.623a1.06 1.06 0 0 1-.363.361l.465.719a1.9 1.9 0 0 0 .645-.661zm-.363.361c-.129.083-.291.124-.512.095l-.111.849c.392.051.764-.015 1.088-.225zm-.512.095-2.773-.365-.111.85 2.773.364zm-2.454.268 11.645-20.913-.748-.417-11.646 20.914zm11.215-20.697 3.631.477.112-.85-3.631-.476zm3.272.157 5.851 23.211.83-.209-5.851-23.211zm21.982 22.116.425.055.055-.424-.424-.056zm-.394 3.002-.056.425.425.056.055-.425zm-12.747-1.673-.425-.056-.056.424.425.056zm2.897-22.063.056-.424-.425-.056-.056.425zm3.585.471.425.056.055-.425-.424-.055zm-2.503 19.059-.424-.055-.056.424.424.056zm8.737 1.148-.394 3.003.849.111.395-3.003zm.086 2.634-12.747-1.674-.111.849 12.747 1.674zm-12.378-1.194 2.897-22.062-.849-.111L168 120.31zm2.417-21.693 3.585.47.112-.848-3.585-.471zm3.216-.01-2.502 19.06.849.111 2.503-19.06zm-2.134 19.54 9.162 1.203.112-.849-9.162-1.203zm32.548-11.712.333.269.011-.013.009-.014zm-.407.368.19.384.01-.005.011-.006zm-1.102-.27-.288.317.006.005zm-.818-.653-.263.338.005.004.006.005zm-1.169-.714-.196.38.007.004zm-3.336-.47-.078-.42h-.003zm-1.248.491-.237-.357zm-.849.886-.368-.22-.003.005zm-.13 2.648-.368.218.003.005zm1.04 1.103-.255.344.004.003zm1.577.924-.185.386.006.003zm1.818.878-.193.382.002.001zm1.814 1.017.228-.362zm1.512 1.305-.328.276.003.003zm.968 1.764.409-.13zm-.727 5.063.375.207zm-1.766 2.059-.261-.34zm-2.557 1.192-.103-.416h-.001zm-5.299-.353.142-.404-.004-.002zm-1.841-.819-.217.37.007.004zm-2.848-2.524-.334-.268-.205.255.193.265zm1.267-1.58-.327-.276-.007.008zm.397-.29.162.396zm1.228.379-.306.3.007.006zm.932.855-.282.322.01.008zm1.376.913-.207.375.006.003zm5.139.036-.24-.355-.003.002zm1.171-4.054-.374.208.003.005zm-1.049-1.151-.254.345.003.002zm-3.389-1.723-.188.385.006.003zm-1.804-.985-.227.363.005.003zm-1.525-1.322-.334.268.006.007zm-.943-1.839-.411.12.001.003zm.649-4.824-.369-.217-.002.004zm1.623-1.797.255.344zm2.405-1.102-.104-.416zm6.471.927-.203.377.001.001zm2.519 2.061.353.242.18-.262-.199-.248zm-1.432 1.332a1 1 0 0 1-.284.263l.421.747c.197-.111.372-.276.529-.472zm-.263.252a.4.4 0 0 1-.23.022l-.112.849c.247.033.495.009.721-.102zm-.23.022c-.078-.01-.21-.062-.401-.229l-.564.644c.257.225.542.394.853.434zm-.395-.224a10 10 0 0 0-.854-.682l-.504.693q.485.353.782.623zm-.843-.673a7 7 0 0 0-1.242-.761l-.379.768q.657.325 1.095.668zm-1.235-.758c-.512-.265-1.123-.438-1.823-.53l-.111.849c.629.083 1.138.234 1.541.442zm-1.823-.53c-.647-.085-1.245-.081-1.788.021l.157.841c.437-.081.941-.088 1.52-.013zm-1.791.021a3.8 3.8 0 0 0-1.404.554l.473.714a3 3 0 0 1 1.094-.427zm-1.404.554a3.2 3.2 0 0 0-.98 1.023l.735.44q.269-.451.718-.749zm-.983 1.028q-.347.604-.443 1.339l.85.112a2.7 2.7 0 0 1 .334-1.021zm-.443 1.339c-.084.64.012 1.229.316 1.742l.737-.436c-.19-.321-.267-.71-.203-1.194zm.319 1.747c.281.461.668.868 1.15 1.224l.509-.689a3.5 3.5 0 0 1-.928-.981zm1.154 1.227q.72.52 1.643.963l.37-.772a9.8 9.8 0 0 1-1.511-.885zm1.649.966a58 58 0 0 1 1.804.871l.385-.765a61 61 0 0 0-1.83-.884zm1.806.872q.917.457 1.777.997l.456-.725a21 21 0 0 0-1.852-1.039zm1.777.997q.825.517 1.412 1.218l.656-.551a6.9 6.9 0 0 0-1.612-1.392zm1.415 1.221q.59.685.885 1.614l.817-.259a5.4 5.4 0 0 0-1.052-1.913zm.885 1.614c.189.597.238 1.322.124 2.187l.849.111c.126-.953.08-1.81-.156-2.557zm.124 2.187a7.1 7.1 0 0 1-.818 2.54l.75.414a8 8 0 0 0 .917-2.843zm-.818 2.54a6.1 6.1 0 0 1-1.652 1.926l.521.68a7 7 0 0 0 1.881-2.192zm-1.652 1.926q-.994.766-2.399 1.116l.206.831q1.559-.383 2.714-1.267zm-2.4 1.116c-.917.231-1.948.275-3.099.124l-.112.849c1.238.163 2.38.119 3.419-.142zm-3.099.124a9.7 9.7 0 0 1-1.954-.465l-.285.807q1.026.363 2.127.507zm-1.958-.467a10.6 10.6 0 0 1-1.77-.786l-.419.747q.907.507 1.913.85zm-1.762-.782a10 10 0 0 1-1.514-1.094l-.566.642a10.6 10.6 0 0 0 1.646 1.19zm-1.514-1.094a8.2 8.2 0 0 1-1.205-1.314l-.692.505a9 9 0 0 0 1.331 1.451zm-1.217-.793 1.267-1.58-.668-.536-1.267 1.58zm1.26-1.571a.6.6 0 0 1 .232-.171l-.324-.793q-.33.136-.562.411zm.232-.171a.5.5 0 0 1 .273-.032l.112-.849a1.4 1.4 0 0 0-.709.088zm.273-.032c.1.013.263.085.487.314l.612-.598c-.289-.296-.618-.517-.987-.565zm.494.321q.398.389.949.871l.564-.644a24 24 0 0 1-.915-.839zm.959.879q.601.495 1.441.958l.414-.75a8.6 8.6 0 0 1-1.311-.869zm1.447.961c.601.32 1.323.529 2.156.638l.112-.849c-.761-.1-1.378-.285-1.865-.545zm2.156.638c1.363.179 2.523-.007 3.426-.627l-.485-.706c-.673.462-1.598.646-2.829.484zm3.423-.625c.917-.62 1.442-1.566 1.602-2.778l-.849-.112c-.134 1.014-.553 1.721-1.232 2.18zm1.602-2.778c.09-.69.005-1.316-.299-1.844l-.742.426c.187.326.265.75.192 1.306zm-.296-1.84a4 4 0 0 0-1.172-1.289l-.502.694c.411.298.716.636.926 1.012zm-1.169-1.287a8.7 8.7 0 0 0-1.646-.938l-.348.783q.863.383 1.486.845zm-1.646-.938a90 90 0 0 1-1.816-.828l-.363.776q.929.435 1.831.835zm-1.81-.825a21 21 0 0 1-1.768-.966l-.445.732q.897.546 1.838 1.004zm-1.763-.963a6 6 0 0 1-1.425-1.235l-.656.551a6.9 6.9 0 0 0 1.626 1.41zm-1.419-1.227a4.9 4.9 0 0 1-.866-1.693l-.821.245c.223.75.562 1.414 1.019 1.984zm-.866-1.69c-.186-.64-.227-1.434-.101-2.396l-.849-.111c-.136 1.04-.101 1.96.128 2.746zm-.101-2.396q.146-1.11.711-2.096l-.743-.426a6.5 6.5 0 0 0-.817 2.411zm.708-2.091a5.6 5.6 0 0 1 1.509-1.671l-.509-.688a6.45 6.45 0 0 0-1.738 1.924zm1.509-1.671q.942-.7 2.254-1.031l-.208-.831q-1.46.364-2.556 1.174zm2.254-1.031c.863-.217 1.832-.259 2.912-.117l.111-.85c-1.167-.153-2.246-.111-3.231.136zm2.912-.117q1.83.241 3.252 1.006l.405-.754q-1.577-.844-3.546-1.102zm3.253 1.007q1.442.77 2.387 1.951l.668-.536a8.4 8.4 0 0 0-2.652-2.171zm2.368 1.441-1.099 1.601.706.484 1.099-1.601zm13.449 18.934-.114-.413-.003.001zm1.858-.972-.275-.328-.004.003zm1.314-1.697.383.19.001-.002zm2.429-15.656.056-.425-.424-.055-.056.424zm3.57.469.425.055.056-.424-.425-.056zm-2.847 16.816-.377-.203-.002.003zm-2.154 2.632.266.336.002-.002zm-3.081 1.512.108.414h.002zm-7.492-.984-.215.371.004.002zm-2.572-2.254-.345.254.002.002zm-1.416-3.101-.418.095.001.004zm1.606-16.979.056-.425-.425-.056-.056.425zm3.585.47.425.056.055-.424-.424-.056zm-1.692 15.737-.42.084v.001zm.813 1.993-.355.239.002.004zm1.529 1.416-.219.368.002.001zm2.17 1.154c.896.117 1.73.073 2.497-.144l-.234-.824c-.636.18-1.351.224-2.151.119zm2.495-.143a5.2 5.2 0 0 0 2.021-1.059l-.557-.651a4.36 4.36 0 0 1-1.693.884zm2.017-1.056a5.6 5.6 0 0 0 1.423-1.836l-.767-.381a4.8 4.8 0 0 1-1.205 1.56zm1.424-1.838q.544-1.111.724-2.49l-.849-.111q-.167 1.257-.644 2.224zm.724-2.49 1.746-13.298-.849-.112-1.746 13.299zm1.266-12.93 3.569.469.112-.849-3.57-.469zm3.201-.011-1.747 13.298.849.112 1.747-13.299zm-1.747 13.298q-.248 1.875-1.053 3.371l.754.406q.885-1.648 1.148-3.665zm-1.055 3.374a7.8 7.8 0 0 1-2.042 2.497l.535.669a8.7 8.7 0 0 0 2.265-2.766zm-2.04 2.496q-1.245.984-2.927 1.434l.221.828q1.839-.49 3.237-1.59zm-2.925 1.434c-1.1.288-2.319.349-3.662.173l-.112.849c1.435.188 2.767.127 3.991-.194zm-3.662.173c-1.344-.177-2.511-.551-3.511-1.116l-.421.746c1.109.627 2.385 1.03 3.82 1.219zm-3.507-1.113q-1.492-.867-2.443-2.141l-.686.513q1.065 1.421 2.7 2.369zm-2.441-2.139a8 8 0 0 1-1.345-2.944l-.833.197a8.9 8.9 0 0 0 1.488 3.256zm-1.344-2.941q-.378-1.653-.133-3.53l-.849-.112q-.265 2.015.147 3.832zm-.133-3.53 1.747-13.299-.85-.111-1.746 13.298zm1.266-12.93 3.585.471.112-.849-3.585-.471zm3.217-.009-1.745 13.283.849.111 1.745-13.283zm-1.745 13.283c-.12.918-.104 1.783.057 2.593l.84-.167q-.212-1.057-.048-2.315zm.057 2.594q.241 1.198.878 2.147l.711-.478a5 5 0 0 1-.75-1.839zm.88 2.151q.646.936 1.663 1.541l.438-.735a4.4 4.4 0 0 1-1.395-1.292zm1.665 1.542c.693.408 1.492.667 2.387.785l.112-.849c-.8-.105-1.485-.333-2.065-.674zm26.436-4.858-.081-.421-.002.001zm1.63-.659.247.35v-.001zm1.098-1.243-.376-.204zm.461-3.508-.417.098.002.007zm-.718-1.419.325-.279zm-1.41-1.012-.183.387.008.004zm-5.37-1.001.056-.425-.425-.055-.056.424zm-1.109 8.442-.424-.056-.056.425.425.055zm8.428-9.819-.183.388h.001zm2.433 1.769-.325.279.004.005zm1.259 2.394-.415.104v.001zm-.781 5.711.372.213v-.001zm-1.889 2.043.24.355.002-.002zm-2.828 1.125.081.42h.003zm-6.994-.389.056-.424-.425-.056-.055.425zm-1.048 7.982-.056.425.425.056.056-.425zm-3.585-.47-.425-.056-.055.425.424.055zm2.897-22.062.056-.425-.425-.056-.055.425zm5.331 12.571c.832.109 1.594.101 2.279-.035l-.167-.84c-.574.114-1.239.126-2 .026zm2.277-.035c.688-.133 1.29-.373 1.795-.729l-.494-.7c-.389.274-.873.474-1.464.588zm1.795-.73a4 4 0 0 0 1.227-1.388l-.752-.408a3.2 3.2 0 0 1-.97 1.097zm1.227-1.388a5.4 5.4 0 0 0 .589-1.885l-.85-.112a4.5 4.5 0 0 1-.491 1.589zm.589-1.885c.09-.689.064-1.335-.089-1.933l-.83.211c.122.477.148 1.012.069 1.61zm-.087-1.926a3.76 3.76 0 0 0-.81-1.599l-.65.557q.46.534.626 1.239zm-.81-1.599c-.399-.466-.924-.838-1.559-1.123l-.351.781c.542.243.957.546 1.26.899zm-1.552-1.12c-.627-.297-1.369-.496-2.219-.608l-.111.849c.785.103 1.437.284 1.964.533zm-2.219-.608-3.278-.431-.112.85 3.279.43zm-3.759-.062-1.108 8.442.849.112 1.109-8.442zm-.739 8.922 3.278.431.112-.849-3.279-.431zm4.755-10.815c1.409.185 2.588.508 3.545.96l.365-.775c-1.057-.499-2.327-.84-3.798-1.034zm3.546.96c.975.456 1.733 1.012 2.29 1.66l.649-.558c-.65-.757-1.514-1.381-2.576-1.877zm2.294 1.665q.854.961 1.165 2.214l.831-.207a6 6 0 0 0-1.355-2.575zm1.165 2.215q.318 1.248.126 2.725l.849.112q.215-1.62-.145-3.047zm.126 2.725q-.199 1.503-.864 2.669l.744.424q.755-1.33.969-2.981zm-.863 2.668a5.76 5.76 0 0 1-1.76 1.903l.484.706a6.6 6.6 0 0 0 2.019-2.183zm-1.757 1.901c-.732.494-1.62.85-2.673 1.06l.168.84c1.144-.229 2.142-.623 2.984-1.19zm-2.671 1.059c-1.032.2-2.222.216-3.577.038l-.112.849c1.423.187 2.709.175 3.852-.046zm-3.577.038-3.279-.43-.111.849 3.278.43zm-3.759-.061-1.049 7.982.85.111 1.048-7.982zm-.568 7.613-3.585-.471-.112.849 3.585.471zm-3.216.009 2.897-22.062-.849-.111-2.898 22.062zm2.416-21.693 6.864.901.112-.849-6.864-.901zm26.285 14.148-.082-.421-.002.001zm1.629-.659.247.35.001-.001zm1.098-1.243-.376-.204zm.461-3.509-.417.099.002.007zm-.717-1.419.325-.278zm-1.411-1.011-.183.387.008.004zm-5.37-1.001.056-.425-.424-.055-.056.424zm-1.108 8.442-.425-.056-.056.425.425.055zm8.427-9.819-.182.388h.001zm2.433 1.769-.325.279.005.005zm1.26 2.394-.416.104.001.001zm-.781 5.711.371.213.001-.001zm-1.89 2.043.24.355.003-.002zm-2.828 1.125.081.42h.003zm-6.993-.389.055-.424-.424-.056-.056.424zm-1.049 7.982-.055.425.424.056.056-.425zm-3.585-.47-.424-.056-.056.424.425.056zm2.897-22.063.056-.424-.424-.056-.056.425zm5.332 12.572c.832.109 1.593.101 2.278-.035l-.167-.84c-.573.114-1.238.126-2 .026zm2.276-.035c.688-.133 1.29-.373 1.795-.729l-.494-.7c-.388.274-.872.474-1.464.588zm1.796-.73a4.05 4.05 0 0 0 1.227-1.388l-.753-.408a3.2 3.2 0 0 1-.969 1.097zm1.227-1.388a5.4 5.4 0 0 0 .588-1.885l-.849-.112a4.5 4.5 0 0 1-.492 1.589zm.588-1.885c.09-.689.064-1.335-.089-1.933l-.83.211q.185.714.07 1.61zm-.087-1.926a3.76 3.76 0 0 0-.809-1.599l-.65.557q.459.534.626 1.239zm-.809-1.599c-.4-.466-.925-.838-1.56-1.123l-.351.781c.542.243.957.546 1.261.899zm-1.552-1.12c-.627-.297-1.37-.497-2.219-.608l-.112.849c.785.103 1.437.284 1.964.533zm-2.219-.608-3.279-.431-.111.85 3.278.43zm-3.759-.062-1.109 8.442.849.112 1.109-8.442zm-.74 8.922 3.279.431.111-.849-3.278-.431zm4.755-10.815c1.409.185 2.588.508 3.546.96l.365-.775c-1.058-.499-2.327-.841-3.799-1.034zm3.547.96c.974.456 1.732 1.012 2.289 1.66l.65-.558c-.651-.757-1.515-1.381-2.576-1.878zm2.294 1.665a5.17 5.17 0 0 1 1.164 2.214l.831-.207a6 6 0 0 0-1.355-2.575zm1.165 2.215c.21.833.255 1.74.126 2.725l.849.111q.213-1.618-.145-3.046zm.126 2.725q-.2 1.503-.865 2.669l.745.424q.753-1.329.969-2.982zm-.864 2.668a5.75 5.75 0 0 1-1.76 1.903l.485.706a6.6 6.6 0 0 0 2.018-2.183zm-1.757 1.901c-.732.493-1.619.85-2.673 1.06l.168.84c1.145-.229 2.143-.623 2.984-1.19zm-2.67 1.059c-1.032.2-2.223.216-3.578.038l-.111.849c1.423.187 2.709.175 3.851-.046zm-3.578.038-3.279-.43-.111.849 3.279.43zm-3.759-.062-1.048 7.983.849.111 1.048-7.982zm-.568 7.614-3.585-.471-.111.849 3.585.471zm-3.216.009 2.897-22.062-.849-.111-2.897 22.062zm2.417-21.693 6.863.901.112-.849-6.864-.901zm29.002 22.765.425.055.055-.424-.424-.056zm-.394 3.003-.056.424.425.056.055-.425zm-12.747-1.674-.425-.056-.056.424.425.056zm2.897-22.063.056-.424-.425-.056-.056.425zm3.585.471.425.056.055-.425-.424-.055zm-2.503 19.059-.424-.055-.056.424.424.056zm8.737 1.148-.394 3.003.849.111.395-3.003zm.086 2.634-12.747-1.674-.111.849 12.747 1.674zm-12.378-1.194 2.897-22.062-.849-.111-2.897 22.062zm2.417-21.693 3.585.471.112-.849-3.585-.471zm3.216-.01-2.502 19.06.849.111 2.503-19.059zm-2.134 19.54 9.162 1.203.112-.849-9.162-1.203zm19.055-3.665-.335-.266-.074.093-.015.117zm-1.134 8.641-.056.425.424.055.056-.424zm-3.57-.469-.425-.055-.056.424.425.056zm1.134-8.641.425.056.015-.118-.047-.108zm-6.296-14.479.056-.425-.75-.098.301.694zm3.861.741.315-.291zm.384.642-.403.147.003.008.003.008zm3.481 8.499.403-.144-.003-.009-.004-.009zm.403 1.207-.41.125.004.01zm.321 1.117-.417.1.286 1.197.519-1.116zm.552-1.003.361.231.002-.004zm.701-1.061-.342-.258-.006.007-.005.008zm5.527-7.316.341.258.007-.009.007-.009zm.516-.493.231.36.011-.007zm3.942.252.335.267.47-.593-.75-.098zm-10.246 12.307-1.135 8.641.849.112 1.135-8.641zm-.655 8.273-3.569-.469-.112.849 3.57.469zm-3.201.011 1.135-8.641-.849-.111-1.135 8.641zm1.103-8.867-6.296-14.48-.786.342 6.297 14.479zm-6.745-13.885 3.141.413.112-.849-3.141-.413zm3.141.413c.25.033.385.111.462.194l.629-.581c-.251-.272-.596-.412-.979-.462zm.462.194q.183.196.295.499l.805-.294a2.3 2.3 0 0 0-.471-.786zm.301.515 3.482 8.499.792-.325-3.481-8.499zm3.475 8.481q.225.629.396 1.187l.819-.251a28 28 0 0 0-.409-1.225zm.4 1.197q.184.554.31 1.082l.833-.199q-.135-.567-.331-1.154zm1.115 1.163q.226-.488.525-.953l-.721-.462q-.33.513-.581 1.054zm.527-.957q.31-.494.69-1.045l-.705-.486q-.39.564-.711 1.077zm.679-1.03 5.527-7.316-.683-.516-5.527 7.316zm5.541-7.334q.136-.208.392-.373l-.461-.721q-.392.249-.641.614zm.403-.38c.115-.078.266-.12.488-.091l.111-.849c-.391-.051-.763.015-1.082.233zm.488-.091 3.156.415.111-.849-3.156-.415zm2.876-.276-9.821 12.363.671.532 9.821-12.362zm27.164 19.608.377.205zm-2.721 3.274-.266-.335zm-3.783 1.872-.111-.413h-.001zm-9.009-1.183-.215.371h.001zm-3.172-2.785-.344.255.002.002zm-.596-12.905-.377-.205zm2.721-3.274.266.335zm3.785-1.888-.111-.413h-.001zm9.009 1.184-.215.37.001.001zm3.17 2.8-.345.254.001.002zm1.783 3.866.417-.101zm-3.53.658-.421.082.001.004zm-1.133-2.767-.353.243.002.002zm-2.1-1.928-.215.371zm-6.113-.802.111.413zm-2.543 1.318-.275-.328zm-1.824 2.379-.383-.191zm-.899 6.848-.42.085zm1.148 2.769-.351.245.002.003zm2.118 1.915-.215.37.004.002zm6.113.802.107.415.004-.001zm2.524-1.304-.275-.328h-.001zm1.809-2.381-.383-.191-.002.004zm4.209-2.939q-.313 2.38-1.342 4.267l.753.409q1.108-2.041 1.438-4.564zm-1.342 4.267q-1.03 1.89-2.611 3.143l.532.671q1.724-1.369 2.832-3.405zm-2.611 3.143q-1.56 1.239-3.628 1.794l.221.827q2.23-.596 3.939-1.95zm-3.629 1.794c-1.361.368-2.841.451-4.448.24l-.111.849q2.556.338 4.783-.262zm-4.448.24q-2.391-.316-4.235-1.381l-.428.742q2.01 1.156 4.552 1.488zm-4.234-1.38q-1.84-1.068-3.045-2.672l-.684.514q1.316 1.75 3.299 2.899zm-3.043-2.671q-1.205-1.617-1.711-3.71l-.833.201q.544 2.253 1.856 4.02zm-1.711-3.71q-.507-2.089-.195-4.468l-.849-.112q-.332 2.522.211 4.781zm-.195-4.468q.313-2.38 1.342-4.266l-.753-.41q-1.107 2.041-1.438 4.564zm1.342-4.266q1.03-1.891 2.611-3.144l-.533-.671q-1.724 1.37-2.831 3.405zm2.611-3.144a10 10 0 0 1 3.631-1.809l-.224-.827a10.8 10.8 0 0 0-3.94 1.965zm3.63-1.809c1.372-.367 2.853-.45 4.449-.24l.111-.849q-2.542-.336-4.782.262zm4.449-.24q2.407.318 4.234 1.38l.43-.741q-1.997-1.155-4.553-1.488zm4.235 1.381q1.854 1.069 3.039 2.683l.69-.507q-1.3-1.767-3.301-2.919zm3.04 2.685q1.205 1.617 1.711 3.71l.833-.201q-.544-2.253-1.856-4.02zm1.711 3.71q.506 2.088.195 4.468l.849.112q.333-2.522-.211-4.781zm-2.618 4.099q.26-1.959-.077-3.626l-.839.171c.203 1.002.229 2.116.067 3.344zm-.076-3.622c-.214-1.107-.613-2.087-1.202-2.931l-.702.49c.512.735.869 1.6 1.063 2.604zm-1.2-2.928a6.8 6.8 0 0 0-2.239-2.056l-.429.741a5.96 5.96 0 0 1 1.962 1.8zm-2.239-2.056c-.915-.53-1.967-.868-3.148-1.023l-.112.849c1.086.142 2.027.45 2.831.915zm-3.148-1.023c-1.172-.154-2.271-.098-3.291.177l.223.827q1.344-.365 2.956-.155zm-3.291.177a7 7 0 0 0-2.706 1.404l.551.655a6.1 6.1 0 0 1 2.378-1.232zm-2.706 1.404q-1.178.996-1.932 2.516l.767.381c.457-.919 1.03-1.663 1.716-2.242zm-1.932 2.516c-.505 1.015-.839 2.178-1.011 3.483l.849.112q.244-1.84.929-3.214zm-1.011 3.483c-.172 1.315-.15 2.53.075 3.641l.84-.17q-.308-1.503-.066-3.359zm.075 3.641q.336 1.664 1.217 2.929l.702-.49q-.771-1.102-1.079-2.609zm1.219 2.932a7.04 7.04 0 0 0 2.252 2.037l.429-.741a6.2 6.2 0 0 1-1.983-1.791zm2.256 2.039q1.374.776 3.131 1.004l.112-.849c-1.077-.141-2.015-.444-2.821-.9zm3.131 1.004c1.18.155 2.282.105 3.3-.159l-.215-.829c-.896.233-1.886.282-2.973.139zm3.304-.16a6.9 6.9 0 0 0 2.69-1.391l-.553-.655a6.05 6.05 0 0 1-2.36 1.219zm2.689-1.391c.787-.663 1.425-1.507 1.918-2.521l-.77-.374q-.671 1.377-1.699 2.24zm1.917-2.518q.755-1.524 1.012-3.498l-.849-.111c-.162 1.238-.475 2.312-.93 3.228zm12.846-10.22.056-.424-.425-.056-.055.425zm-.927 7.063-.425-.055-.056.424.425.056zm8.625 1.133.425.056.056-.425-.425-.056zm-.38 2.896-.056.424.425.056.056-.425zm-8.626-1.133.056-.425-.424-.055-.056.424zm-1.209 9.208-.055.424.424.056.056-.424zm-3.6-.473-.425-.056-.055.425.424.056zm2.897-22.062.056-.425-.425-.055-.056.424zm13.758 1.807.425.055.056-.424-.425-.056zm-.38 2.895-.056.425.425.056.056-.425zm-10.582-1.389-.928 7.063.849.111.928-7.063zm-.559 7.543 8.626 1.133.111-.85-8.626-1.132zm8.257.652-.38 2.896.849.111.38-2.895zm.1 2.527-8.626-1.133-.111.85 8.625 1.132zm-9.106-.764-1.209 9.208.849.112 1.209-9.208zm-.729 8.839-3.6-.473-.112.85 3.601.472zm-3.232.008 2.898-22.062-.85-.112-2.897 22.062zm2.417-21.694 13.759 1.807.111-.849-13.758-1.807zm13.39 1.327-.381 2.895.85.112.38-2.896zm.1 2.527-10.158-1.334-.112.849 10.158 1.334zm-241.841 29.68.424.056.056-.424-.425-.056zm-.761 5.794-.056.425.425.055.055-.424zm-21.468-2.819-.425-.056-.055.425.424.056zm.76-5.794.056-.424-.424-.056-.056.425zm7.243.951-.056.425.425.056.055-.425zm2.712-20.455.423.07zm.275-1.49.42.084.198-.981-.846.534zm-4.762 3.005.215.37.007-.004.006-.004zm-1.21.394.005.428h.016zm-1.034-.136-.142.404.01.004.01.003zm-.835-.452-.282.323.007.006.008.007zm-.502-.592.38-.198-.003-.006-.004-.007zm-2.093-3.695-.23-.361-.343.218.2.354zm13.037-8.313.056-.424-.155-.02-.131.083zm6.621.87.425.056.056-.425-.425-.056zm-4.19 31.917-.425-.056-.056.425.424.056zm5.782.76-.761 5.793.849.112.761-5.794zm-.28 5.425-21.468-2.82-.112.85 21.468 2.819zm-21.1-2.339.761-5.794-.849-.111-.76 5.793zm.281-5.425 7.242.951.112-.849-7.243-.951zm7.722.582 2.497-19.011-.85-.111-2.496 19.011zm2.497-19.011q.094-.716.214-1.43l-.845-.141q-.122.728-.218 1.46zm.214-1.43q.123-.74.272-1.476l-.84-.169q-.15.75-.277 1.504zm-.376-1.923-4.763 3.006.457.724 4.763-3.005zm-4.75 2.998c-.373.217-.71.321-1.015.336l.042.856c.472-.024.941-.182 1.404-.452zm-.999.336a3 3 0 0 1-.908-.119l-.242.822a3.9 3.9 0 0 0 1.16.153zm-.887-.112a2.4 2.4 0 0 1-.711-.383l-.533.671q.42.331.96.52zm-.696-.37c-.213-.187-.338-.343-.403-.468l-.76.396c.132.252.34.49.6.717zm-.41-.481-2.093-3.695-.745.422 2.093 3.695zm-2.236-3.123 13.037-8.313-.46-.722-13.037 8.313zm12.751-8.249 6.622.869.111-.849-6.621-.869zm6.253.389-4.192 31.917.85.112 4.191-31.917zm-3.823 32.398 6.208.815.111-.849-6.207-.815zm37.586-.074-.392-.173zm-3.736 5.613-.298-.308-.002.002zm-4.914 2.959-.124-.41-.001.001zm-11.122-1.46-.228.362.001.001zm-3.932-4.121-.369.218zm-2.135-6.385-.423.063v.003zm2.249-17.122-.392-.173-.001.003zm3.71-5.617-.3-.306zm4.859-2.94.123.41.002-.001zm11.122 1.46-.226.364.004.002zm3.987 4.102-.369.218.002.002zm2.161 6.388-.423.066zm-7.993 1.16-.428.027v.001zm-.803-4.104-.397.16.002.005zm-1.582-2.181-.247.35.007.004zm-4.19-.551.144.404.004-.002zm-2.065 1.703-.343-.258-.003.005zm-1.784 3.765-.406-.137-.001.004zm-1.681 12.803-.428.023.001.004zm.751 4.098-.401.151.004.009zm1.552 2.203-.25.348.011.007zm4.19.55.141.405.007-.003zm2.095-1.724-.341-.259-.001.002zm1.835-3.758-.405-.138zm9.186-5.319c-.428 3.265-1.148 6.03-2.152 8.305l.784.345c1.045-2.368 1.781-5.217 2.218-8.539zm-2.152 8.305c-1.006 2.282-2.223 4.104-3.642 5.478l.596.616c1.515-1.468 2.789-3.389 3.83-5.749zm-3.644 5.48q-2.105 2.065-4.738 2.855l.247.82c1.897-.57 3.595-1.595 5.091-3.063zm-4.739 2.856c-1.747.532-3.59.674-5.533.418l-.112.85q3.087.406 5.894-.449zm-5.533.418q-2.915-.383-5.238-1.833l-.453.727q2.493 1.551 5.579 1.956zm-5.237-1.832c-1.525-.958-2.789-2.28-3.79-3.976l-.738.436c1.065 1.803 2.422 3.228 4.073 4.265zm-3.79-3.976c-1-1.693-1.697-3.766-2.081-6.232l-.846.131c.396 2.548 1.122 4.73 2.189 6.537zm-2.08-6.23q-.55-3.68.09-8.578l-.849-.112q-.656 4.984-.088 8.816zm.09-8.578c.429-3.266 1.141-6.033 2.128-8.311l-.786-.34q-1.539 3.555-2.191 8.539zm2.126-8.308c1.008-2.284 2.217-4.107 3.619-5.485l-.6-.611c-1.496 1.47-2.761 3.391-3.802 5.75zm3.619-5.485c1.405-1.379 2.965-2.32 4.682-2.835l-.246-.82c-1.861.558-3.541 1.577-5.036 3.044zm4.684-2.836c1.747-.532 3.59-.674 5.533-.418l.112-.85q-3.086-.406-5.895.449zm5.533-.418q2.914.383 5.238 1.833l.453-.727q-2.493-1.551-5.579-1.956zm5.242 1.835c1.56.946 2.841 2.261 3.84 3.954l.738-.436c-1.067-1.806-2.444-3.226-4.134-4.25zm3.842 3.956c1.016 1.695 1.721 3.769 2.105 6.234l.846-.132c-.397-2.549-1.132-4.733-2.217-6.542zm2.105 6.234c.382 2.456.363 5.314-.066 8.579l.85.111c.436-3.322.46-6.265.062-8.822zm-7.493 7.603q.518-3.929.35-6.536l-.855.055c.108 1.66-.004 3.781-.344 6.37zm.35-6.536c-.109-1.739-.382-3.16-.835-4.243l-.79.331c.401.959.664 2.275.77 3.966zm-.833-4.237c-.429-1.067-1-1.877-1.739-2.376l-.48.709c.551.372 1.034 1.016 1.425 1.987zm-1.732-2.371c-.693-.489-1.432-.79-2.215-.893l-.111.849c.631.083 1.241.327 1.832.744zm-2.215-.893c-.782-.103-1.574-.002-2.37.291l.296.803c.679-.25 1.331-.328 1.963-.245zm-2.366.289c-.825.295-1.575.931-2.264 1.849l.685.514c.63-.84 1.256-1.338 1.867-1.556zm-2.267 1.853c-.678.93-1.29 2.231-1.844 3.881l.812.273c.54-1.609 1.118-2.818 1.724-3.649zm-1.845 3.885c-.539 1.649-.978 3.787-1.322 6.404l.849.112q.512-3.883 1.287-6.25zm-1.322 6.404q-.52 3.954-.38 6.555l.855-.047q-.138-2.487.374-6.396zm-.379 6.559c.111 1.721.366 3.133.777 4.222l.802-.303c-.37-.978-.616-2.298-.725-3.974zm.781 4.231c.428 1.063.986 1.877 1.699 2.391l.501-.695c-.537-.387-1.014-1.042-1.406-2.016zm1.71 2.398c.694.469 1.432.76 2.211.862l.111-.849c-.635-.083-1.248-.321-1.843-.723zm2.211.862a5.1 5.1 0 0 0 2.358-.262l-.28-.809c-.678.234-1.332.305-1.967.222zm2.366-.265c.84-.309 1.6-.95 2.29-1.869l-.685-.514c-.629.837-1.266 1.346-1.901 1.58zm2.288-1.867c.717-.944 1.347-2.244 1.9-3.88l-.811-.275c-.537 1.589-1.131 2.794-1.771 3.637zm1.9-3.88c.558-1.649 1.007-3.796 1.353-6.432l-.849-.111c-.343 2.607-.783 4.693-1.315 6.268zm9.696 20.343.324-.28-.006-.006-.006-.007zm-.164-1.758-.328-.275-.005.007-.005.006zm.508-.459.243.353.009-.007.009-.006zm.826-.681-.271-.332-.009.008zm.957-.874.304.302zm.906-1.091-.343-.257-.008.011zm.723-1.3.399.157.184-.466-.49-.109zm-1.546-.65.24-.355zm-1.119-1.094-.357.236.006.008zm-.625-1.451-.418.094.001.005zm.447-3.204.365.224.003-.005zm1.042-1.126.245.352h.001zm1.483-.673-.101-.416-.004.001zm3.789.603-.235.357.009.006zm1.28 1.273-.365.225.005.006zm.62 1.686-.423.063.001.008.001.007zm-.737 4.613.393.17.001-.001zm-1.625 2.76-.343-.257-.004.005zm-2.398 2.632.286.318zm-3.133 2.219-.324.281.227.262.304-.168zm-.922-1.718c-.26-.276-.347-.556-.307-.864l-.849-.111c-.077.589.115 1.118.532 1.562zm-.307-.864c.01-.073.051-.185.17-.338l-.677-.525c-.177.229-.306.481-.342.752zm.16-.326q.18-.215.422-.381l-.486-.706a3 3 0 0 0-.593.537zm.44-.394q.365-.281.845-.697l-.56-.648q-.469.406-.807.665zm.836-.689q.49-.402.99-.904l-.608-.604q-.471.475-.924.844zm.99-.904a9 9 0 0 0 .953-1.148l-.702-.491a8 8 0 0 1-.859 1.035zm.945-1.137q.482-.645.779-1.399l-.797-.314a5.1 5.1 0 0 1-.668 1.2zm.473-1.974a4 4 0 0 1-1.399-.587l-.479.71a4.9 4.9 0 0 0 1.692.713zm-1.399-.587a3.8 3.8 0 0 1-1.007-.984l-.703.489q.49.705 1.231 1.205zm-1.002-.976a4 4 0 0 1-.565-1.312l-.834.197q.204.86.685 1.588zm-.564-1.307a4.5 4.5 0 0 1-.057-1.57l-.849-.111a5.3 5.3 0 0 0 .07 1.868zm-.057-1.57q.099-.744.451-1.317l-.73-.447a4.2 4.2 0 0 0-.57 1.653zm.454-1.322q.36-.605.919-.993l-.489-.703a4 4 0 0 0-1.166 1.259zm.92-.993q.6-.42 1.343-.61l-.211-.83a5 5 0 0 0-1.623.737zm1.339-.609a4.5 4.5 0 0 1 1.668-.068l.112-.849a5.4 5.4 0 0 0-1.983.085zm1.668-.068c.726.096 1.316.304 1.784.612l.47-.715c-.597-.393-1.317-.637-2.142-.746zm1.793.618q.72.45 1.142 1.135l.728-.45a4.3 4.3 0 0 0-1.418-1.412zm1.146 1.141q.429.665.557 1.518l.847-.126a4.7 4.7 0 0 0-.684-1.855zm.559 1.533q.157.845.037 1.766l.849.112a6.5 6.5 0 0 0-.043-2.033zm.037 1.766c-.108.817-.354 1.684-.747 2.601l.788.337q.627-1.465.808-2.826zm-.746 2.599a13.4 13.4 0 0 1-1.575 2.673l.686.513a14.2 14.2 0 0 0 1.675-2.846zm-1.579 2.678a16.6 16.6 0 0 1-2.338 2.566l.573.636a17.5 17.5 0 0 0 2.458-2.698zm-2.338 2.566a16.4 16.4 0 0 1-3.053 2.163l.414.749a17.2 17.2 0 0 0 3.212-2.276zm-2.522 2.257-1.234-1.425-.648.561 1.234 1.425zm38.201-12.894-.392-.173zm-3.737 5.613-.298-.307-.002.002zm-4.914 2.96-.123-.41h-.002zm-11.122-1.461-.228.363.002.001zm-3.931-4.121-.369.218zm-2.135-6.384-.424.063.001.003zm2.248-17.123-.391-.173-.002.003zm3.711-5.617-.3-.305zm4.859-2.94.123.41h.002zm11.122 1.461-.226.363.004.003zm3.987 4.101-.369.218.002.003zm2.16 6.388-.423.066zm-7.993 1.161-.427.027v.001zm-.802-4.105-.398.16.003.005zm-1.582-2.181-.247.35.007.005zm-4.19-.55.144.403.004-.001zm-2.066 1.702-.342-.257-.004.005zm-1.783 3.765-.406-.136-.001.003zm-1.681 12.803-.428.024v.004zm.751 4.098-.401.151.003.009zm1.552 2.204-.25.347.01.007zm4.19.55.14.405.008-.003zm2.095-1.725-.341-.259-.002.002zm1.835-3.758-.406-.137zm9.186-5.319q-.645 4.896-2.152 8.305l.784.346c1.044-2.368 1.781-5.217 2.217-8.539zm-2.152 8.305c-1.007 2.283-2.224 4.104-3.643 5.479l.596.615c1.515-1.468 2.79-3.388 3.831-5.748zm-3.645 5.481c-1.403 1.378-2.982 2.326-4.737 2.855l.247.82q2.846-.858 5.09-3.064zm-4.739 2.855q-2.618.8-5.533.419l-.111.849q3.086.406 5.894-.449zm-5.533.419q-2.914-.384-5.237-1.833l-.453.727q2.492 1.55 5.579 1.955zm-5.236-1.832c-1.525-.959-2.789-2.281-3.791-3.976l-.737.435c1.065 1.803 2.422 3.229 4.072 4.266zm-3.791-3.976c-.999-1.693-1.696-3.767-2.08-6.233l-.846.132c.396 2.547 1.122 4.73 2.189 6.536zm-2.08-6.23c-.365-2.455-.338-5.313.091-8.579l-.849-.111c-.436 3.321-.469 6.262-.089 8.816zm.091-8.579q.645-4.896 2.127-8.311l-.786-.34q-1.538 3.555-2.19 8.54zm2.126-8.308c1.007-2.283 2.216-4.107 3.619-5.484l-.6-.611c-1.497 1.469-2.762 3.39-3.802 5.749zm3.619-5.484c1.405-1.379 2.965-2.321 4.682-2.836l-.246-.82c-1.862.558-3.541 1.577-5.036 3.045zm4.684-2.836q2.619-.8 5.533-.419l.112-.849q-3.087-.406-5.895.449zm5.533-.419q2.914.383 5.238 1.833l.452-.727c-1.66-1.034-3.522-1.685-5.578-1.955zm5.242 1.836c1.56.946 2.84 2.26 3.84 3.953l.738-.435c-1.067-1.806-2.445-3.226-4.134-4.251zm3.842 3.956c1.016 1.694 1.721 3.768 2.104 6.233l.847-.131c-.397-2.549-1.132-4.734-2.217-6.543zm2.104 6.233c.382 2.457.364 5.314-.065 8.579l.849.112c.436-3.322.46-6.265.063-8.822zm-7.493 7.604c.344-2.618.463-4.8.351-6.537l-.855.056q.163 2.487-.345 6.369zm.351-6.536c-.11-1.74-.383-3.161-.835-4.243l-.79.33c.401.96.664 2.275.77 3.967zm-.833-4.238c-.429-1.066-1.001-1.877-1.739-2.376l-.48.71c.55.372 1.034 1.015 1.424 1.986zm-1.732-2.371c-.693-.488-1.433-.79-2.215-.893l-.112.849c.632.083 1.242.327 1.833.744zm-2.215-.893c-.783-.103-1.575-.002-2.37.291l.296.804c.679-.25 1.331-.329 1.962-.246zm-2.366.29c-.825.294-1.576.931-2.264 1.848l.685.514c.63-.839 1.256-1.337 1.867-1.556zm-2.268 1.853c-.678.93-1.289 2.231-1.843 3.881l.812.272c.54-1.609 1.118-2.818 1.723-3.649zm-1.844 3.884c-.539 1.649-.979 3.787-1.322 6.405l.849.111c.34-2.59.77-4.67 1.287-6.25zm-1.322 6.405c-.346 2.634-.475 4.822-.38 6.555l.855-.047c-.091-1.66.031-3.789.374-6.397zm-.38 6.559c.112 1.72.367 3.133.778 4.221l.801-.302c-.37-.979-.615-2.298-.724-3.975zm.781 4.23c.428 1.063.987 1.877 1.7 2.391l.5-.695c-.537-.387-1.013-1.042-1.405-2.016zm1.71 2.398q1.043.707 2.211.863l.112-.85q-.952-.122-1.843-.722zm2.211.863a5.1 5.1 0 0 0 2.359-.263l-.28-.809c-.678.235-1.332.306-1.967.222zm2.367-.265c.84-.31 1.599-.951 2.289-1.87l-.685-.514c-.628.838-1.265 1.346-1.9 1.58zm2.288-1.868c.717-.944 1.347-2.244 1.9-3.88l-.812-.274c-.537 1.589-1.13 2.794-1.77 3.636zm1.9-3.88c.557-1.649 1.006-3.796 1.352-6.431l-.849-.112c-.342 2.607-.782 4.693-1.315 6.269zm37.027 6.962-.391-.172zm-3.736 5.614-.298-.308-.002.002zm-4.914 2.959-.124-.41-.001.001zm-11.122-1.46-.228.362.001.001zm-3.932-4.121-.369.218zm-2.135-6.385-.423.063v.003zm2.249-17.122-.392-.173-.001.002zm3.71-5.617-.3-.306zm4.859-2.94.123.41.002-.001zm11.122 1.46-.226.364.004.002zm3.987 4.102-.369.218.002.002zm2.161 6.388-.423.066zm-7.993 1.16-.428.027v.001zm-.803-4.104-.397.16.002.005zm-1.582-2.181-.247.35.008.004zm-4.19-.551.144.404.004-.002zm-2.065 1.702-.343-.257-.003.005zm-1.784 3.766-.406-.137-.001.003zm-1.681 12.803-.428.023.001.004zm.751 4.098-.401.151.004.008zm1.552 2.203-.25.348.011.007zm4.191.55.14.405.008-.003zm2.094-1.724-.341-.259-.001.002zm1.835-3.759-.405-.137zm9.186-5.318c-.428 3.264-1.148 6.03-2.151 8.305l.783.345c1.045-2.368 1.781-5.217 2.218-8.539zm-2.151 8.305c-1.007 2.282-2.224 4.104-3.643 5.478l.596.615c1.515-1.467 2.789-3.388 3.83-5.748zm-3.645 5.48q-2.105 2.065-4.738 2.855l.247.82c1.897-.571 3.595-1.595 5.091-3.064zm-4.739 2.856q-2.62.8-5.533.418l-.112.849q3.086.407 5.895-.448zm-5.533.418q-2.914-.383-5.238-1.833l-.453.727q2.493 1.551 5.579 1.955zm-5.236-1.832c-1.526-.958-2.79-2.28-3.791-3.976l-.738.436c1.065 1.803 2.422 3.228 4.073 4.265zm-3.791-3.976c-1-1.693-1.697-3.766-2.081-6.233l-.846.132c.396 2.548 1.123 4.73 2.189 6.537zm-2.08-6.23q-.55-3.681.09-8.578l-.849-.112q-.656 4.984-.088 8.816zm.09-8.578c.429-3.266 1.141-6.033 2.128-8.311l-.786-.341q-1.539 3.557-2.191 8.54zm2.127-8.308c1.007-2.284 2.216-4.107 3.618-5.485l-.6-.611c-1.496 1.47-2.761 3.391-3.802 5.75zm3.618-5.485c1.405-1.379 2.965-2.32 4.682-2.835l-.246-.821c-1.861.559-3.54 1.578-5.036 3.045zm4.684-2.836q2.62-.8 5.533-.418l.112-.85q-3.087-.406-5.894.449zm5.533-.418q2.914.383 5.238 1.833l.453-.727q-2.493-1.552-5.579-1.956zm5.242 1.835c1.56.946 2.841 2.261 3.841 3.954l.737-.436c-1.067-1.806-2.444-3.226-4.134-4.25zm3.842 3.956c1.016 1.695 1.721 3.769 2.105 6.234l.846-.132c-.397-2.549-1.132-4.733-2.217-6.542zm2.105 6.234c.382 2.456.363 5.314-.066 8.579l.85.111c.436-3.322.46-6.265.062-8.822zm-7.493 7.603q.518-3.929.35-6.536l-.855.055c.108 1.66-.004 3.781-.344 6.37zm.35-6.536c-.109-1.739-.382-3.16-.835-4.243l-.79.331c.401.959.664 2.275.77 3.966zm-.833-4.237c-.429-1.067-1-1.877-1.739-2.376l-.479.709c.55.372 1.033 1.016 1.424 1.987zm-1.732-2.371c-.693-.489-1.432-.79-2.215-.893l-.111.849c.631.083 1.241.327 1.833.744zm-2.215-.893c-.782-.103-1.574-.002-2.37.291l.296.803c.679-.25 1.331-.328 1.963-.245zm-2.366.289c-.824.295-1.575.931-2.264 1.848l.685.515c.63-.84 1.256-1.338 1.867-1.556zm-2.267 1.853c-.678.93-1.29 2.231-1.844 3.881l.812.273c.541-1.609 1.118-2.818 1.724-3.649zm-1.845 3.884c-.539 1.65-.978 3.788-1.322 6.405l.849.112q.511-3.883 1.287-6.25zm-1.322 6.405q-.52 3.954-.38 6.555l.855-.047q-.138-2.487.374-6.396zm-.379 6.559c.111 1.721.366 3.133.777 4.222l.802-.303c-.37-.978-.616-2.298-.725-3.974zm.781 4.23c.428 1.064.986 1.878 1.699 2.391l.501-.694c-.537-.387-1.014-1.042-1.406-2.016zm1.71 2.399c.694.469 1.432.76 2.211.862l.111-.849c-.635-.083-1.248-.321-1.843-.723zm2.211.862a5.1 5.1 0 0 0 2.359-.262l-.28-.809a4.3 4.3 0 0 1-1.968.222zm2.367-.265c.839-.309 1.599-.95 2.289-1.869l-.685-.514c-.629.837-1.266 1.346-1.9 1.579zm2.287-1.867c.717-.944 1.347-2.244 1.9-3.88l-.811-.275c-.537 1.589-1.131 2.794-1.771 3.637zm1.9-3.88c.558-1.649 1.007-3.796 1.353-6.432l-.849-.111q-.516 3.907-1.315 6.268zm37.028 6.962-.392-.173zm-3.737 5.613-.298-.307-.002.002zm-4.914 2.96-.123-.41h-.002zm-11.122-1.461-.228.363.002.001zm-3.932-4.121-.368.218zm-2.134-6.384-.424.063v.003zm2.248-17.123-.392-.173-.001.003zm3.711-5.617-.3-.305zm4.859-2.94.123.41h.002zm11.122 1.461-.227.363.005.003zm3.987 4.101-.369.218.001.003zm2.16 6.388-.423.066zm-7.993 1.161-.427.027v.001zm-.803-4.105-.397.16.002.005zm-1.581-2.181-.247.35.007.005zm-4.191-.55.145.403.003-.001zm-2.065 1.702-.342-.257-.004.005zm-1.783 3.765-.406-.136-.001.003zm-1.682 12.803-.427.024v.004zm.751 4.098-.4.151.003.009zm1.553 2.204-.251.347.011.007zm4.19.55.14.405.008-.003zm2.094-1.725-.341-.259-.001.002zm1.836-3.758-.406-.137zm9.186-5.319c-.429 3.265-1.149 6.031-2.152 8.305l.783.346c1.045-2.368 1.782-5.217 2.218-8.539zm-2.152 8.305c-1.007 2.283-2.224 4.104-3.643 5.479l.596.615c1.515-1.468 2.789-3.388 3.83-5.748zm-3.645 5.481c-1.404 1.378-2.982 2.326-4.737 2.855l.246.82q2.846-.859 5.091-3.064zm-4.739 2.855q-2.619.8-5.533.419l-.112.849q3.087.406 5.895-.449zm-5.533.419q-2.915-.384-5.237-1.833l-.453.727q2.492 1.55 5.578 1.955zm-5.236-1.832c-1.525-.959-2.79-2.281-3.791-3.976l-.737.435c1.065 1.803 2.422 3.229 4.072 4.266zm-3.791-3.976c-1-1.693-1.697-3.767-2.08-6.233l-.847.132c.397 2.547 1.123 4.73 2.19 6.536zm-2.08-6.23c-.365-2.455-.338-5.313.091-8.579l-.849-.111c-.436 3.321-.469 6.262-.089 8.816zm.091-8.579q.645-4.896 2.127-8.311l-.786-.34c-1.026 2.369-1.754 5.219-2.19 8.54zm2.126-8.308c1.007-2.283 2.216-4.107 3.619-5.484l-.6-.611c-1.497 1.469-2.762 3.39-3.803 5.749zm3.619-5.484c1.404-1.379 2.965-2.321 4.682-2.836l-.246-.82c-1.862.558-3.541 1.577-5.036 3.045zm4.684-2.836q2.618-.8 5.533-.419l.111-.849q-3.086-.406-5.894.449zm5.533-.419q2.914.383 5.237 1.833l.453-.727q-2.492-1.55-5.579-1.955zm5.242 1.836c1.56.946 2.84 2.26 3.84 3.953l.737-.435c-1.066-1.806-2.444-3.226-4.133-4.251zm3.841 3.956c1.016 1.694 1.722 3.768 2.105 6.233l.846-.131c-.396-2.549-1.131-4.734-2.216-6.543zm2.105 6.233c.382 2.457.364 5.314-.065 8.579l.849.112c.436-3.322.46-6.265.062-8.822zm-7.493 7.604c.344-2.618.463-4.8.35-6.537l-.854.056q.163 2.487-.345 6.369zm.351-6.536c-.11-1.74-.383-3.161-.836-4.243l-.79.33c.402.96.664 2.275.771 3.967zm-.833-4.238c-.43-1.066-1.001-1.876-1.74-2.376l-.479.71c.55.372 1.033 1.015 1.424 1.986zm-1.733-2.371c-.693-.488-1.432-.79-2.214-.893l-.112.849c.632.083 1.242.327 1.833.744zm-2.214-.893c-.783-.102-1.575-.002-2.37.291l.295.804c.679-.25 1.332-.329 1.963-.246zm-2.367.29c-.824.294-1.575.931-2.263 1.848l.685.514c.63-.839 1.256-1.337 1.867-1.556zm-2.267 1.853c-.678.93-1.289 2.231-1.843 3.881l.811.272c.541-1.609 1.119-2.818 1.724-3.649zm-1.844 3.884c-.54 1.649-.979 3.787-1.323 6.405l.85.111c.34-2.59.77-4.67 1.287-6.25zm-1.323 6.405c-.345 2.634-.474 4.822-.379 6.555l.855-.047c-.091-1.66.031-3.789.374-6.397zm-.379 6.559c.112 1.72.367 3.133.778 4.221l.801-.302c-.37-.979-.616-2.298-.724-3.975zm.781 4.23c.428 1.063.986 1.877 1.699 2.391l.501-.695c-.537-.387-1.013-1.042-1.405-2.016zm1.71 2.398q1.042.707 2.211.863l.112-.85q-.953-.123-1.843-.722zm2.211.863a5.1 5.1 0 0 0 2.359-.262l-.28-.81c-.678.235-1.332.306-1.967.222zm2.367-.265c.84-.31 1.599-.951 2.289-1.87l-.685-.514c-.628.838-1.265 1.346-1.9 1.58zm2.287-1.868c.718-.944 1.348-2.244 1.901-3.88l-.812-.274c-.537 1.589-1.13 2.794-1.771 3.636zm1.901-3.88c.557-1.649 1.006-3.796 1.352-6.431l-.849-.112c-.342 2.607-.782 4.693-1.315 6.269zm9.696 20.344.323-.28-.005-.007-.006-.006zm-.164-1.758-.328-.275-.006.006-.005.007zm.507-.46.243.353.009-.006.009-.007zm.827-.681-.272-.331-.009.008zm.956-.874.304.302zm.907-1.091-.344-.256-.007.011zm.723-1.3.398.158.184-.467-.489-.109zm-1.546-.65.24-.355zm-1.119-1.094-.357.237.005.007zm-.626-1.45-.417.094.001.004zm.447-3.204.366.223.003-.005zm1.043-1.126.244.352.001-.001zm1.483-.674-.101-.416-.005.001zm3.788.603-.235.358.009.006zm1.28 1.273-.364.225.004.007zm.621 1.687-.424.063.001.007.002.007zm-.737 4.613.392.17.001-.002zm-1.626 2.759-.343-.256-.003.004zm-2.398 2.632.287.318zm-3.133 2.22-.323.28.227.263.303-.168zm-.921-1.718c-.26-.277-.348-.556-.307-.864l-.85-.112c-.077.589.115 1.118.533 1.562zm-.307-.864c.009-.074.051-.186.169-.339l-.677-.524c-.177.229-.306.48-.342.751zm.159-.326q.18-.215.422-.382l-.485-.706a3 3 0 0 0-.593.538zm.44-.395q.364-.28.846-.697l-.561-.647q-.468.405-.806.665zm.836-.689q.492-.401.99-.904l-.608-.603q-.471.475-.923.844zm.99-.904q.513-.516.954-1.148l-.702-.49a8 8 0 0 1-.86 1.035zm.946-1.137q.481-.645.778-1.398l-.797-.315a5.1 5.1 0 0 1-.668 1.201zm.473-1.974a4 4 0 0 1-1.399-.587l-.48.71q.751.506 1.693.714zm-1.399-.587a3.8 3.8 0 0 1-1.008-.983l-.703.488q.492.706 1.231 1.205zm-1.002-.975a4 4 0 0 1-.566-1.313l-.833.197a4.9 4.9 0 0 0 .685 1.589zm-.565-1.308a4.5 4.5 0 0 1-.057-1.569l-.849-.112a5.3 5.3 0 0 0 .071 1.869zm-.057-1.569q.1-.744.452-1.318l-.731-.446a4.2 4.2 0 0 0-.57 1.652zm.455-1.323q.36-.605.918-.992l-.488-.704a4 4 0 0 0-1.167 1.259zm.919-.993a4.1 4.1 0 0 1 1.344-.61l-.212-.83a5 5 0 0 0-1.622.738zm1.339-.609a4.5 4.5 0 0 1 1.669-.067l.111-.849a5.4 5.4 0 0 0-1.982.084zm1.669-.067c.726.095 1.315.304 1.783.612l.471-.716c-.598-.393-1.317-.637-2.143-.745zm1.792.618q.72.448 1.142 1.134l.729-.45a4.3 4.3 0 0 0-1.418-1.411zm1.146 1.141c.286.444.472.947.557 1.518l.847-.126a4.6 4.6 0 0 0-.684-1.855zm.56 1.532q.157.847.036 1.767l.849.111a6.5 6.5 0 0 0-.043-2.033zm.036 1.767q-.16 1.225-.746 2.6l.787.337q.628-1.465.808-2.826zm-.745 2.598a13.3 13.3 0 0 1-1.576 2.674l.686.513a14 14 0 0 0 1.675-2.846zm-1.579 2.678a16.6 16.6 0 0 1-2.338 2.566l.573.636a17.5 17.5 0 0 0 2.458-2.698zm-2.338 2.566a16.4 16.4 0 0 1-3.054 2.163l.414.75a17.2 17.2 0 0 0 3.213-2.277zm-2.523 2.258-1.234-1.425-.647.56 1.234 1.425zm38.201-12.895-.391-.172zm-3.736 5.614-.298-.308-.002.002zm-4.914 2.959-.124-.41-.001.001zm-11.122-1.46-.228.362.001.001zm-3.932-4.121-.369.217zm-2.135-6.385-.423.063v.003zm2.249-17.122-.392-.173-.001.002zm3.711-5.617-.3-.306zm4.859-2.94.123.41.001-.001zm11.121 1.46-.226.364.004.002zm3.987 4.102-.368.218.001.002zm2.161 6.388-.423.066zm-7.993 1.16-.428.027v.001zm-.803-4.104-.397.159.002.006zm-1.582-2.181-.246.35.007.004zm-4.19-.551.144.404.004-.002zm-2.065 1.702-.343-.257-.003.005zm-1.784 3.765-.406-.136-.001.003zm-1.681 12.804-.428.023.001.004zm.751 4.098-.401.151.004.008zm1.552 2.203-.25.348.011.007zm4.191.55.14.405.008-.003zm2.094-1.724-.341-.259-.001.002zm1.836-3.759-.406-.137zm9.186-5.318c-.429 3.264-1.149 6.03-2.152 8.305l.783.345c1.045-2.368 1.781-5.217 2.218-8.539zm-2.152 8.305c-1.007 2.282-2.224 4.104-3.643 5.478l.596.615c1.515-1.467 2.789-3.388 3.83-5.748zm-3.645 5.48q-2.105 2.065-4.738 2.855l.247.82q2.846-.859 5.091-3.064zm-4.739 2.856q-2.62.8-5.533.418l-.112.849q3.086.407 5.895-.448zm-5.533.418q-2.915-.383-5.238-1.833l-.453.727q2.492 1.551 5.579 1.955zm-5.236-1.832c-1.526-.958-2.79-2.28-3.791-3.976l-.738.435c1.065 1.804 2.422 3.229 4.073 4.266zm-3.791-3.976c-1-1.693-1.697-3.766-2.081-6.233l-.846.132c.396 2.548 1.123 4.73 2.189 6.536zm-2.08-6.23q-.55-3.682.091-8.578l-.85-.112q-.656 4.984-.088 8.816zm.091-8.578c.428-3.266 1.14-6.033 2.127-8.311l-.786-.341c-1.027 2.37-1.754 5.219-2.191 8.54zm2.126-8.309c1.007-2.283 2.216-4.106 3.619-5.484l-.6-.611c-1.497 1.47-2.762 3.391-3.803 5.75zm3.619-5.484c1.404-1.379 2.964-2.32 4.682-2.835l-.247-.821c-1.861.559-3.54 1.578-5.035 3.045zm4.683-2.836q2.62-.8 5.534-.419l.111-.849q-3.087-.406-5.894.449zm5.534-.419q2.913.384 5.237 1.834l.453-.727q-2.492-1.552-5.579-1.956zm5.241 1.836c1.561.946 2.841 2.261 3.841 3.954l.737-.436c-1.067-1.806-2.444-3.226-4.134-4.25zm3.842 3.956c1.016 1.694 1.721 3.769 2.105 6.234l.846-.132c-.396-2.549-1.132-4.733-2.216-6.542zm2.105 6.234q.575 3.683-.065 8.579l.849.111c.436-3.322.46-6.265.062-8.822zm-7.493 7.603c.344-2.618.463-4.8.35-6.536l-.855.055c.108 1.66-.004 3.78-.344 6.37zm.35-6.536c-.109-1.74-.382-3.161-.835-4.243l-.79.331c.402.959.664 2.275.77 3.966zm-.833-4.237c-.429-1.067-1-1.877-1.739-2.376l-.479.709c.55.372 1.033 1.016 1.424 1.986zm-1.732-2.371c-.693-.489-1.432-.791-2.215-.893l-.111.849c.631.083 1.241.327 1.833.744zm-2.215-.893c-.782-.103-1.574-.003-2.37.29l.296.804c.679-.25 1.331-.328 1.963-.245zm-2.366.289c-.824.295-1.575.931-2.264 1.848l.685.514c.63-.839 1.256-1.337 1.867-1.555zm-2.267 1.853c-.678.93-1.29 2.231-1.844 3.881l.812.273c.541-1.609 1.118-2.819 1.724-3.649zm-1.845 3.884c-.539 1.65-.978 3.788-1.322 6.405l.849.112q.512-3.883 1.287-6.25zm-1.322 6.405q-.52 3.954-.38 6.555l.856-.047q-.138-2.487.373-6.396zm-.379 6.559c.111 1.721.366 3.133.777 4.222l.802-.303c-.37-.978-.616-2.298-.725-3.974zm.781 4.23c.428 1.064.986 1.878 1.699 2.391l.501-.694c-.537-.387-1.014-1.043-1.406-2.016zm1.71 2.399c.694.469 1.432.76 2.211.862l.111-.849a4.26 4.26 0 0 1-1.843-.723zm2.211.862a5.1 5.1 0 0 0 2.359-.262l-.28-.809a4.3 4.3 0 0 1-1.968.222zm2.367-.265c.839-.309 1.599-.95 2.289-1.869l-.685-.514c-.629.837-1.266 1.346-1.9 1.579zm2.287-1.867c.717-.944 1.347-2.245 1.9-3.88l-.811-.275c-.537 1.589-1.131 2.794-1.771 3.637zm1.9-3.88c.558-1.65 1.007-3.797 1.353-6.432l-.849-.111q-.516 3.907-1.315 6.268zm37.028 6.962-.392-.173zm-3.737 5.613-.298-.307-.002.002zm-4.914 2.96-.123-.41h-.002zm-11.122-1.461-.228.363.002.001zm-3.932-4.121-.368.218zm-2.134-6.384-.424.063.001.003zm2.248-17.123-.392-.173-.001.003zm3.711-5.617-.3-.305zm4.859-2.94.123.41h.002zm11.122 1.461-.227.363.005.003zm3.987 4.101-.369.218.001.003zm2.16 6.388-.423.066zm-7.993 1.161-.427.027v.001zm-.803-4.105-.397.16.002.005zm-1.581-2.181-.247.35.007.005zm-4.19-.55.144.403.004-.001zm-2.066 1.702-.342-.257-.004.005zm-1.783 3.765-.406-.136-.001.003zm-1.682 12.803-.427.024v.004zm.751 4.098-.4.151.003.009zm1.553 2.204-.251.347.011.007zm4.19.55.14.405.008-.003zm2.095-1.725-.341-.259-.002.002zm1.835-3.758-.406-.137zm9.186-5.319c-.429 3.265-1.149 6.031-2.152 8.305l.784.346c1.044-2.368 1.781-5.217 2.217-8.539zm-2.152 8.305c-1.007 2.283-2.224 4.104-3.643 5.479l.596.615c1.515-1.468 2.789-3.388 3.831-5.748zm-3.645 5.481c-1.403 1.378-2.982 2.326-4.737 2.855l.246.82q2.846-.858 5.091-3.064zm-4.739 2.855q-2.619.8-5.533.419l-.112.849q3.087.406 5.895-.449zm-5.533.419q-2.915-.385-5.237-1.833l-.453.727q2.492 1.55 5.578 1.955zm-5.236-1.832c-1.525-.959-2.789-2.281-3.791-3.977l-.737.436c1.065 1.803 2.422 3.229 4.072 4.266zm-3.791-3.977c-1-1.692-1.697-3.766-2.08-6.232l-.846.132c.396 2.547 1.122 4.73 2.189 6.536zm-2.08-6.229c-.365-2.456-.338-5.313.091-8.579l-.849-.111c-.436 3.321-.469 6.262-.089 8.816zm.091-8.579q.645-4.896 2.127-8.311l-.786-.34q-1.538 3.555-2.19 8.54zm2.126-8.308c1.007-2.283 2.216-4.107 3.619-5.484l-.6-.611c-1.497 1.469-2.762 3.39-3.803 5.749zm3.619-5.484c1.405-1.379 2.965-2.321 4.682-2.836l-.246-.82c-1.862.558-3.541 1.577-5.036 3.045zm4.684-2.836q2.618-.8 5.533-.419l.111-.849q-3.086-.406-5.894.448zm5.533-.419q2.914.383 5.237 1.833l.453-.727q-2.492-1.55-5.579-1.955zm5.242 1.836c1.56.946 2.84 2.26 3.84 3.953l.737-.435c-1.066-1.806-2.444-3.226-4.133-4.251zm3.841 3.956c1.016 1.694 1.722 3.768 2.105 6.233l.846-.132c-.396-2.548-1.131-4.733-2.216-6.542zm2.105 6.233c.382 2.457.364 5.314-.065 8.579l.849.112c.436-3.323.46-6.265.062-8.823zm-7.493 7.604q.518-3.93.351-6.537l-.855.056q.163 2.487-.345 6.369zm.351-6.536c-.11-1.74-.383-3.161-.836-4.243l-.79.33c.402.96.664 2.275.771 3.967zm-.833-4.238c-.43-1.066-1.001-1.877-1.74-2.376l-.479.71c.55.372 1.033 1.015 1.424 1.986zm-1.733-2.371c-.693-.488-1.432-.79-2.214-.893l-.112.849c.632.083 1.242.327 1.833.744zm-2.214-.893c-.783-.103-1.575-.002-2.37.291l.296.804c.679-.25 1.331-.329 1.962-.246zm-2.367.29c-.824.294-1.575.931-2.263 1.848l.685.514c.63-.839 1.256-1.338 1.867-1.556zm-2.267 1.853c-.678.93-1.289 2.231-1.843 3.881l.812.272c.54-1.609 1.118-2.818 1.723-3.649zm-1.844 3.884c-.54 1.649-.979 3.787-1.322 6.405l.849.111c.34-2.59.77-4.67 1.287-6.25zm-1.322 6.405c-.346 2.634-.475 4.822-.38 6.555l.855-.047c-.091-1.66.031-3.789.374-6.397zm-.38 6.559c.112 1.72.367 3.133.778 4.221l.801-.302c-.37-.979-.616-2.298-.724-3.975zm.781 4.23c.428 1.063.987 1.877 1.7 2.391l.5-.695c-.537-.387-1.013-1.042-1.405-2.016zm1.71 2.398q1.043.707 2.211.863l.112-.85c-.635-.083-1.249-.321-1.843-.722zm2.211.863c.779.102 1.567.011 2.359-.263l-.28-.809c-.678.235-1.332.306-1.967.222zm2.367-.265c.84-.31 1.599-.951 2.289-1.87l-.685-.514c-.628.838-1.265 1.346-1.9 1.58zm2.288-1.868c.717-.944 1.347-2.244 1.9-3.88l-.812-.274c-.537 1.589-1.13 2.794-1.77 3.636zm1.9-3.88c.557-1.649 1.006-3.796 1.352-6.431l-.849-.112c-.342 2.607-.782 4.693-1.315 6.269zm37.027 6.962-.392-.172zm-3.736 5.614-.298-.308-.002.002zm-4.915 2.959-.123-.41-.002.001zm-11.122-1.46-.227.362.001.001zm-3.931-4.121-.369.217zm-2.135-6.385-.424.063.001.003zm2.249-17.122-.392-.173-.001.002zm3.71-5.617-.3-.306zm4.859-2.94.123.41.002-.001zm11.122 1.46-.226.364.004.002zm3.987 4.102-.369.218.002.002zm2.161 6.388-.423.066zm-7.993 1.16-.428.027v.001zm-.803-4.104-.398.159.003.006zm-1.582-2.181-.247.35.007.004zm-4.19-.551.144.404.004-.002zm-2.065 1.702-.343-.257-.003.005zm-1.784 3.765-.406-.136-.001.003zm-1.681 12.804-.428.023v.004zm.751 4.098-.401.151.004.008zm1.552 2.203-.25.348.01.007zm4.19.55.14.405.008-.003zm2.095-1.724-.341-.259-.002.002zm1.835-3.759-.405-.137zm9.186-5.318c-.428 3.264-1.148 6.03-2.152 8.305l.784.345c1.044-2.368 1.781-5.217 2.217-8.539zm-2.152 8.305c-1.007 2.282-2.223 4.104-3.642 5.478l.595.615c1.516-1.467 2.79-3.388 3.831-5.748zm-3.644 5.48q-2.106 2.065-4.738 2.855l.247.82c1.897-.571 3.594-1.595 5.091-3.064zm-4.74 2.856q-2.618.8-5.533.418l-.111.849q3.087.407 5.894-.448zm-5.533.418q-2.913-.383-5.237-1.833l-.453.727q2.493 1.551 5.579 1.955zm-5.236-1.832c-1.525-.958-2.789-2.28-3.791-3.976l-.737.435c1.065 1.804 2.422 3.229 4.073 4.266zm-3.791-3.976c-.999-1.693-1.696-3.766-2.08-6.233l-.846.132c.396 2.548 1.122 4.73 2.189 6.536zm-2.079-6.23c-.366-2.455-.339-5.313.09-8.578l-.849-.112c-.436 3.322-.469 6.262-.088 8.816zm.09-8.578c.429-3.266 1.141-6.033 2.127-8.311l-.785-.341q-1.539 3.557-2.191 8.54zm2.126-8.309c1.008-2.283 2.216-4.106 3.619-5.484l-.6-.611c-1.497 1.47-2.762 3.391-3.802 5.75zm3.619-5.484c1.405-1.379 2.965-2.32 4.682-2.835l-.246-.821c-1.862.559-3.541 1.578-5.036 3.045zm4.684-2.836q2.62-.8 5.533-.419l.112-.849q-3.086-.406-5.895.449zm5.533-.419q2.914.385 5.238 1.834l.453-.727q-2.493-1.552-5.579-1.956zm5.242 1.836c1.56.946 2.84 2.261 3.84 3.954l.738-.436c-1.067-1.806-2.445-3.226-4.134-4.25zm3.842 3.956c1.016 1.694 1.721 3.769 2.105 6.234l.846-.132c-.397-2.549-1.132-4.733-2.217-6.542zm2.105 6.234c.382 2.456.363 5.314-.066 8.579l.849.111c.437-3.322.461-6.265.063-8.822zm-7.493 7.603c.343-2.618.463-4.8.35-6.536l-.855.055c.108 1.66-.005 3.78-.345 6.37zm.35-6.536c-.11-1.74-.382-3.161-.835-4.243l-.79.331c.401.959.664 2.275.77 3.966zm-.833-4.237c-.429-1.067-1-1.877-1.739-2.376l-.48.709c.55.372 1.034 1.016 1.424 1.986zm-1.732-2.371c-.693-.489-1.432-.791-2.215-.893l-.111.849c.631.083 1.241.327 1.832.744zm-2.215-.893c-.782-.103-1.574-.003-2.37.29l.296.804c.679-.25 1.331-.328 1.963-.245zm-2.366.289c-.825.295-1.576.931-2.264 1.848l.685.514c.63-.839 1.256-1.337 1.867-1.555zm-2.267 1.853c-.678.93-1.29 2.231-1.844 3.881l.812.273c.54-1.609 1.118-2.819 1.724-3.649zm-1.845 3.884c-.539 1.65-.978 3.788-1.322 6.405l.849.112q.512-3.883 1.287-6.25zm-1.322 6.405q-.52 3.954-.38 6.555l.855-.047q-.138-2.487.374-6.396zm-.38 6.559c.112 1.721.367 3.133.778 4.222l.801-.303c-.369-.978-.615-2.298-.724-3.974zm.782 4.23c.428 1.064.986 1.878 1.699 2.391l.501-.694c-.537-.387-1.014-1.043-1.406-2.016zm1.709 2.399c.695.469 1.433.76 2.212.862l.111-.849a4.26 4.26 0 0 1-1.843-.723zm2.212.862a5.1 5.1 0 0 0 2.358-.262l-.28-.809c-.678.234-1.332.305-1.967.222zm2.366-.265c.84-.309 1.6-.95 2.289-1.869l-.685-.514c-.628.837-1.265 1.346-1.9 1.579zm2.288-1.867c.717-.944 1.347-2.245 1.9-3.88l-.811-.275c-.537 1.589-1.131 2.794-1.771 3.637zm1.9-3.88c.557-1.65 1.007-3.797 1.353-6.432l-.85-.111q-.514 3.907-1.314 6.268z"/></g><defs><filter id="a" width="420.7" height="292.942" x=".208" y=".457" color-interpolation-filters="sRGB" filterUnits="userSpaceOnUse"><feFlood flood-opacity="0" result="BackgroundImageFix"/><feColorMatrix in="SourceAlpha" result="hardAlpha" values="0 0 0 0 0 0 0 0 0 0 0 0 0 0 0 0 0 0 127 0"/><feOffset dx="13.974" dy="13.239"/><feComposite in2="hardAlpha" operator="out"/><feColorMatrix values="0 0 0 0 0.442692 0 0 0 0 0.367882 0 0 0 0 0.796598 0 0 0 1 0"/><feBlend in2="BackgroundImageFix" result="effect1_dropShadow_2505_5524"/><feBlend in="SourceGraphic" in2="effect1_dropShadow_2505_5524" result="shape"/></filter></defs></svg>