<svg xmlns="http://www.w3.org/2000/svg" width="51" height="51" fill="none"><circle cx="25.189" cy="25.189" r="25.189" fill="#000"/><path fill="#57F0CD" d="M19.242 21.16q.175-1.191.667-2.076a5.1 5.1 0 0 1 1.234-1.475 5 5 0 0 1 1.694-.874 6.9 6.9 0 0 1 2.043-.295q1.18 0 2.098.339a4.6 4.6 0 0 1 1.55.895q.635.57.962 1.323.328.743.328 1.573 0 .753-.153 1.333-.153.568-.459.994a2.8 2.8 0 0 1-.743.71q-.437.285-1.005.48 2.644.93 2.644 3.606 0 1.267-.459 2.207a4.5 4.5 0 0 1-1.234 1.563 5.3 5.3 0 0 1-1.781.94 7.3 7.3 0 0 1-2.12.305q-1.136 0-2.02-.24a4.8 4.8 0 0 1-1.574-.765A5.2 5.2 0 0 1 19.7 30.37q-.512-.809-.896-1.923l1.508-.612q.59-.23 1.092-.12.503.109.721.503.492.906 1.038 1.322.558.404 1.3.404.57 0 .984-.186.426-.197.7-.491.283-.306.425-.689t.142-.776q0-.513-.076-.917a1.18 1.18 0 0 0-.394-.71q-.328-.295-.994-.448-.656-.165-1.835-.164v-2.338q.994 0 1.606-.153.611-.153.94-.415.338-.274.447-.656.11-.382.11-.841 0-.94-.46-1.442-.447-.514-1.376-.514-.754 0-1.278.404-.515.393-.71.984-.23.6-.601.797-.372.196-1.06.088z"/></svg>