<svg xmlns="http://www.w3.org/2000/svg" width="848" height="696" fill="none"><path fill="#fff" fill-opacity=".36" d="M789.283 347.451a5.243 5.243 0 1 0 10.487.001 5.243 5.243 0 0 0-10.487-.001m-161.24 0a5.244 5.244 0 1 0 10.488 0 5.244 5.244 0 0 0-10.488 0m166.483-.983H633.287v1.966h161.239zM216.096 288.818a5.243 5.243 0 1 0 10.487.001 5.243 5.243 0 0 0-10.487-.001m-161.24 0a5.244 5.244 0 1 0 10.488 0 5.244 5.244 0 0 0-10.488 0m166.483-.983H60.099v1.967h161.24zM788.79 470.838a5.243 5.243 0 1 0 10.487 0 5.243 5.243 0 0 0-10.487 0m-150.916 0a5.243 5.243 0 1 0 10.487 0 5.243 5.243 0 0 0-10.487 0m156.159-.983H643.117v1.966h150.916zM205.772 389.594a5.243 5.243 0 1 0 10.487 0 5.243 5.243 0 0 0-10.487 0m-150.916 0a5.243 5.243 0 1 0 10.486 0 5.243 5.243 0 0 0-10.486 0m156.16-.983H60.1v1.966h150.916zM205.772 483.977a5.243 5.243 0 1 0 10.487 0 5.243 5.243 0 0 0-10.487 0m-150.916 0a5.243 5.243 0 1 0 10.486 0 5.243 5.243 0 0 0-10.486 0m156.16-.984H60.1v1.967h150.916zM836.966 637.484a5.244 5.244 0 1 0 10.488 0 5.244 5.244 0 0 0-10.488 0m5.244 52.6v.983h.983v-.983zm-351.319 0a5.243 5.243 0 1 0 10.487 0 5.243 5.243 0 0 0-10.487 0m350.336-52.6v52.6h1.966v-52.6zm.983 51.617H496.135v1.966H842.21zM11.268 634.895a5.244 5.244 0 1 1-10.487-.001 5.244 5.244 0 0 1 10.487.001m-5.243 27.037v.983H5.04v-.983zm351.318 0a5.243 5.243 0 1 1-10.487 0 5.243 5.243 0 0 1 10.487 0M7.008 634.895v27.037H5.042v-27.037zm-.983 26.053H352.1v1.967H6.025z"/><path fill="#fff" fill-opacity=".72" d="M501.679 120.473a5.244 5.244 0 1 0-10.488 0 5.244 5.244 0 0 0 10.488 0M496.435 6.031v-.983h-.983v.983zm297.23 0a5.243 5.243 0 1 0-10.486-.001 5.243 5.243 0 0 0 10.486.001M497.418 120.473V6.031h-1.966v114.442zm-.983-113.459h291.987V5.048H496.435z"/></svg>