<svg xmlns="http://www.w3.org/2000/svg" width="51" height="51" fill="none"><circle cx="25.189" cy="25.189" r="25.189" fill="#000"/><path fill="#57F0CD" d="M28.944 29.474q.546 0 .863.306.317.295.317.787v1.966H18.936v-1.092q0-.317.131-.678.131-.36.46-.655l4.588-4.622q.59-.59 1.027-1.125.437-.536.721-1.049.285-.525.426-1.038.142-.524.142-1.103 0-.95-.459-1.453-.447-.514-1.376-.514-.754 0-1.279.404-.513.393-.71.984-.23.6-.6.797-.372.196-1.06.088l-1.792-.317q.174-1.191.666-2.076a5.1 5.1 0 0 1 1.235-1.475 5 5 0 0 1 1.693-.874 6.9 6.9 0 0 1 2.043-.295q1.18 0 2.12.35a4.7 4.7 0 0 1 1.617.95q.666.612 1.016 1.464.36.84.36 1.857 0 .874-.25 1.617-.241.745-.667 1.42a10 10 0 0 1-.994 1.3q-.558.624-1.191 1.268l-3.114 3.19q.6-.185 1.19-.284a6.7 6.7 0 0 1 1.093-.098z"/></svg>