<svg xmlns="http://www.w3.org/2000/svg" width="139" height="85" fill="none"><path fill="#ECEAE3" d="M97.934-459.465 51.107-320.917 6.528-158.551A183 183 0 0 0 0-110.127v41.439C0 35.238 101.488 108.856 200.278 76.592a152.8 152.8 0 0 0 60.769-37.359l94.551-94.807a269.53 269.53 0 0 1 190.849-79.205c148.86 0 269.535-120.675 269.535-269.535v-166.781a377.8 377.8 0 0 1 50.547-188.789l32.492-56.328a221.39 221.39 0 0 0 21.91-168.525c-45.581-168.193-258.619-220.223-376.602-91.983l-98.76 107.353c-41.021 44.589-51.647 109.28-27.045 164.648 41.198 92.718-18.264 199.004-118.833 212.41l-48.173 6.421c-71.084 9.476-130.623 58.486-153.584 126.423"/></svg>