<svg xmlns="http://www.w3.org/2000/svg" width="239" height="290" fill="none"><path fill="#000" d="M.795 290.09c1.477-2.738 2.714-5.296 4.194-7.708 3.415-5.571 8.01-10.101 12.93-14.329 2.226-1.913 2.226-1.934.773-4.523-1.718-3.061-1.776-6.238-.509-9.422 3.26-8.185 6.898-16.191 11.714-23.599 7.413-11.4 14.877-22.762 22.277-34.169a10.7 10.7 0 0 0 1.435-3.424c1.381-6.114 4.267-11.568 7.396-16.885 2.573-4.372 5.472-8.552 8.23-12.818.334-.515.677-1.027 1.162-1.759-.907-.35-1.601-.731-2.34-.882-10.037-2.082-19.116-6.471-27.827-11.671-3.954-2.363-7.722-5.049-11.477-7.725-2.442-1.741-5.19-2.342-8.041-2.6-3.69-.333-7.173-1.195-10.467-2.961-1.33-.714-2.896-1.009-4.376-1.418-2.189-.601-3.961-1.666-4.243-4.122-.309-2.682.261-5.189 2.525-6.896 1.305-.986 2.913-1.567 4.287-2.473.567-.371 1.168-1.082 1.264-1.714 1.103-7.059 3.524-13.547 8.687-18.62 5.582-5.488 11.384-10.754 17.18-16.019 2.397-2.178 4.025-4.767 5.203-7.731.784-1.969.512-3.645-.954-5.197-2.412-2.555-4.157-5.523-4.473-9.064-.395-4.403-.59-8.824-.77-13.244-.085-2.106.159-4.221.1-6.33-.206-7.498 3.23-12.994 9.23-17.146 4.926-3.407 9.866-6.797 14.727-10.297 3.84-2.762 8.275-3.937 12.771-4.647 11.085-1.756 21.912-4.517 32.75-7.378 15.729-4.153 31.579-4.565 47.463-.375 7.516 1.982 13.362 6.368 18.439 11.912 6.022 6.574 10.367 14.199 12.978 22.74.749 2.45 1.147 5.009 1.711 7.512.175.77.374 1.532.652 2.67.787-.908 1.371-1.55 1.921-2.22 3.524-4.272 7.461-8.064 12.661-10.238 5.005-2.096 10.124-2.405 15.156-.169 4.38 1.944 6.973 5.66 8.742 9.92 3.521 8.47 3.112 17.07.402 25.653-1.576 4.987-3.699 9.696-7.238 13.674-4.62 5.193-10.793 7.357-17.268 8.737-3.033.65-6.228.533-9.549.777.453 2.14.968 4.393 1.405 6.659 1.686 8.745 3.37 17.49 4.977 26.248.117.629-.361 1.371-.563 2.058-.581-.409-1.395-.691-1.697-1.251-1.879-3.451-3.645-6.962-5.668-10.884-.917 2.7-1.498 5.059-2.501 7.22-1.741 3.757-1.305 7.566-.649 11.399.1.591.711 1.309 1.271 1.573 4.263 2.02 8.014 4.586 10.494 8.759.278.467 1.233.635 1.903.742 7.581 1.212 15.372 1.573 21.961 6.344 5.328 3.86 10.288 8.133 13.764 13.718 4.881 7.848 9.385 15.93 13.971 23.96.752 1.319 1.288 2.827 1.6 4.317.567 2.714 1.917 4.932 3.566 7.1 10.178 13.395 19.501 27.388 27.786 42.006 4.401 7.766 7.788 16.108 11.601 24.207.934 1.986.347 3.954-.471 5.801-.828 1.876-1.838 3.669-2.848 5.661 2.329 2.985 4.937 6.065 4.744 10.534H.795zm236.959-18.331c.175-.058.309-.062.381-.134.794-.742 1.584-1.484 2.36-2.243 5.053-4.949 10.275-9.531 18.076-9.006 1.168.079 1.415-.879 1.171-1.806-.23-.873-.57-1.752-1.048-2.514-1.13-1.797-2.415-3.493-3.545-5.29-.367-.58-.828-1.71-.587-1.961 1.171-1.23.392-2.669.673-3.964.048-.226-.103-.594-.285-.759a201 201 0 0 0-4.648-3.998c-.195-.164-.549-.137-.979-.23.718 1.237 1.33 2.291 1.938 3.346q-.235.228-.471.456c-.677-.326-1.501-.504-1.999-1.006-1.525-1.542-2.855-3.277-4.39-4.808-4.727-4.723-9.481-9.422-14.297-14.052-1.364-1.308-2.978-2.356-4.476-3.524l-.381.31c3.82 17.142 4.459 35.054 12.514 51.18zm-154.417-7.343c1.05-3.346 1.858-6.609 3.126-9.676.718-1.738.405-2.778-.722-4.063-4.328-4.929-5.888-10.49-3.452-16.816 1.584-4.108 1.93-8.415 2.415-12.739.285-2.549-.457-4.689-1.223-6.932-.364-1.061-1.044-1.119-1.845-.498-.354.279-.642.65-.937.996-4.751 5.63-9.509 11.256-14.239 16.902-.663.794-1.226 1.357-2.088.234.388-.563.841-1.089 1.136-1.693.183-.375.12-.866.165-1.305-.36.206-.834.329-1.061.635a276 276 0 0 0-5.252 7.388c-.292.426-.251 1.075-.368 1.621q.299.1.601.199c1.11-1.635 2.202-3.283 3.336-4.901.474-.68.982-1.497 2.095-.484-1.7 2.232-3.376 4.434-5.183 6.804.858 1.827-1.646 1.24-2.797 2.614q.564.121 1.12.244c-.137.212-.216.367-.32.501-2.27 2.968-2.59 4.221 1.574 5.382 6.365 1.776 11.934 5.053 16.811 9.542 2.33 2.146 4.823 4.111 7.104 6.038zm154.19-37.885c-1.631-1.398-2.978-2.555-4.623-3.963.123 2.387 2.229 4.09 4.623 3.963m-163.503-8.556c-1.055 1.278-2.082 2.525-3.332 4.036 2.26-.491 4.14-2.912 3.332-4.036"/></svg>