<svg xmlns="http://www.w3.org/2000/svg" width="1322" height="596" fill="none"><g stroke="#7A66E8" clip-path="url(#a)" opacity=".56"><path d="m1221-58.732-218.17 219.115c-73.345 73.665-91.669 185.834-45.568 278.956a242.65 242.65 0 0 1 21.6 149.202l-20.996 120.812a251.9 251.9 0 0 0 14.618 137.496l8.287 20.512c23.789 58.892 19.157 125.47-12.573 180.519" opacity=".54"/><path d="M1099.32-91.639 882.165 127.328c-73.195 73.806-91.486 185.918-45.536 279.107A243.37 243.37 0 0 1 858.15 555.58l-20.926 120.896a252.75 252.75 0 0 0 14.565 137.469l8.269 20.549c23.698 58.89 19.076 125.408-12.54 180.486" opacity=".54"/><path d="M978.993-146.847 760.824 72.268c-73.347 73.665-91.671 185.834-45.569 278.956a242.65 242.65 0 0 1 21.599 149.202l-20.995 120.812a251.9 251.9 0 0 0 14.617 137.496l8.288 20.512c23.793 58.892 19.156 125.47-12.574 180.521" opacity=".54"/><path d="M857.311-221.931 639.142-2.816c-73.347 73.665-91.67 185.834-45.569 278.956a242.64 242.64 0 0 1 21.599 149.202l-20.995 120.812a251.9 251.9 0 0 0 14.618 137.496l8.287 20.512c23.793 58.892 19.156 125.47-12.574 180.521" opacity=".5"/><path d="M735.629-280.491 500.189-44.03c-79.153 79.497-98.927 200.546-49.177 301.04a261.85 261.85 0 0 1 23.31 161.013l-22.658 130.376a271.85 271.85 0 0 0 15.775 148.381l8.943 22.136c25.678 63.554 20.673 135.403-13.568 194.812" opacity=".54"/><path d="M589-392.491 353.56-156.03c-79.153 79.497-98.927 200.546-49.176 301.04a261.86 261.86 0 0 1 23.309 161.013l-22.658 130.376A271.85 271.85 0 0 0 320.81 584.78l8.944 22.136c25.677 63.554 20.672 135.403-13.569 194.812" opacity=".54"/><path d="M419-409.491 183.56-173.03c-79.153 79.497-98.927 200.546-49.176 301.04a261.86 261.86 0 0 1 23.309 161.013l-22.658 130.376A271.85 271.85 0 0 0 150.81 567.78l8.944 22.136c25.677 63.554 20.672 135.403-13.569 194.812" opacity=".54"/></g><defs><clipPath id="a"><rect width="1322" height="595" y=".281" fill="#fff" rx="70"/></clipPath></defs></svg>