<svg xmlns="http://www.w3.org/2000/svg" width="410" height="648" fill="none"><g stroke="#B200C2" clip-path="url(#a)" opacity=".56"><path d="m20.094 740.254-25.358-93.828c-8.526-31.544-36.18-54.162-68.776-56.248a76.28 76.28 0 0 1-44.011-17.569l-29.587-24.703a79.2 79.2 0 0 0-39.727-17.631l-6.886-.968a64.93 64.93 0 0 1-47.166-31.795" opacity=".54"/><path d="m48.177 712.3-25.478-93.527c-8.588-31.526-36.232-54.125-68.822-56.263a76.5 76.5 0 0 1-43.983-17.582l-29.621-24.697a79.45 79.45 0 0 0-39.711-17.641l-6.894-.979a65.12 65.12 0 0 1-47.16-31.779" opacity=".54"/><path d="m82.118 688.221-25.359-93.827c-8.525-31.545-36.18-54.162-68.776-56.248a76.27 76.27 0 0 1-44.01-17.57l-29.588-24.703a79.2 79.2 0 0 0-39.727-17.63l-6.886-.968a64.93 64.93 0 0 1-47.165-31.795" opacity=".54"/><path d="M121.68 666.898 96.321 573.07c-8.525-31.544-36.18-54.161-68.775-56.247a76.27 76.27 0 0 1-44.01-17.57l-29.588-24.703a79.2 79.2 0 0 0-39.727-17.631l-6.886-.967a64.93 64.93 0 0 1-47.166-31.795" opacity=".5"/><path d="M156.746 642.978 129.38 541.722c-9.2-34.041-39.044-58.449-74.22-60.7a82.3 82.3 0 0 1-47.495-18.961l-31.93-26.658a85.45 85.45 0 0 0-42.872-19.027l-7.431-1.044a70.07 70.07 0 0 1-50.899-34.312" opacity=".54"/><path d="M210.282 620.665 182.915 519.41c-9.2-34.042-39.044-58.449-74.22-60.701a82.3 82.3 0 0 1-47.495-18.96L29.27 413.09A85.44 85.44 0 0 0-13.6 394.064l-7.432-1.045a70.07 70.07 0 0 1-50.9-34.311" opacity=".54"/><path d="m241.627 577.059-27.366-101.256c-9.201-34.041-39.045-58.449-74.22-60.7a82.3 82.3 0 0 1-47.495-18.961l-31.93-26.658a85.45 85.45 0 0 0-42.872-19.027l-7.431-1.044a70.07 70.07 0 0 1-50.9-34.312" opacity=".54"/></g><defs><clipPath id="a"><rect width="410" height="648" fill="#fff" rx="20"/></clipPath></defs></svg>