<svg xmlns="http://www.w3.org/2000/svg" width="353" height="475" fill="none"><mask id="a" width="353" height="475" x=".25" y=".283" fill="#000" maskUnits="userSpaceOnUse"><path fill="#fff" d="M.25.283h353v475H.25z"/><path fillRule="evenodd" d="m3.25 32.527 22.681-17.125c17.682-13.35 41.92-13.897 60.186-1.356a51.5 51.5 0 0 0 56.15 1.4l5.116-3.149a60.74 60.74 0 0 1 62.845-.504l9.08 5.39a46.4 46.4 0 0 0 51.483-2.748c16.849-12.608 40.073-12.297 56.579.758l22.527 17.816v435.525l-22.681-17.126c-17.682-13.35-41.921-13.896-60.187-1.356a51.5 51.5 0 0 1-56.15 1.401l-5.116-3.149a60.74 60.74 0 0 0-62.844-.505l-9.081 5.391a46.4 46.4 0 0 1-51.482-2.748c-16.85-12.608-40.074-12.297-56.58.757L3.25 469.015z" clipRule="evenodd"/></mask><path fill="#FAFAF2" fillRule="evenodd" d="m3.25 32.527 22.681-17.125c17.682-13.35 41.92-13.897 60.186-1.356a51.5 51.5 0 0 0 56.15 1.4l5.116-3.149a60.74 60.74 0 0 1 62.845-.504l9.08 5.39a46.4 46.4 0 0 0 51.483-2.748c16.849-12.608 40.073-12.297 56.579.758l22.527 17.816v435.525l-22.681-17.126c-17.682-13.35-41.921-13.896-60.187-1.356a51.5 51.5 0 0 1-56.15 1.401l-5.116-3.149a60.74 60.74 0 0 0-62.844-.505l-9.081 5.391a46.4 46.4 0 0 1-51.482-2.748c-16.85-12.608-40.074-12.297-56.58.757L3.25 469.015z" clipRule="evenodd"/><path fill="#000" d="m25.931 15.402-1.59-2.107zM3.25 32.527l-1.59-2.106-1.05.792v1.314zm82.867-18.481-1.494 2.176zm56.15 1.4 1.384 2.248zm5.116-3.149L146 10.05zm62.845-.504-1.348 2.27zm9.08 5.39 1.348-2.27zm51.483-2.748 1.581 2.113zm56.579.758 1.638-2.07zm22.527 17.816h2.639V31.73l-1.002-.793zm0 435.525-1.591 2.106 4.23 3.194v-5.3zm-22.681-17.126 1.59-2.106zm-60.187-1.356 1.494 2.176zm-56.15 1.401-1.383 2.248zm-5.116-3.149 1.384-2.248zm-62.844-.505 1.347 2.27zm-9.081 5.391-1.347-2.27zm-51.482-2.748-1.581 2.113zm-56.58.757-1.637-2.07zM3.25 469.015H.61v5.452l4.277-3.382zm21.09-455.72L1.66 30.421l3.18 4.212 22.681-17.125zm63.271-1.425C68.41-1.314 42.93-.74 24.341 13.295l3.18 4.213C44.297 4.842 67.294 4.324 84.623 16.222zm53.273 1.329a48.86 48.86 0 0 1-53.273-1.33l-2.988 4.353a54.14 54.14 0 0 0 59.028 1.472zm5.116-3.15-5.116 3.15 2.767 4.495 5.116-3.149zm65.575-.526A63.38 63.38 0 0 0 146 10.05l2.767 4.495a58.1 58.1 0 0 1 60.113-.483zm9.081 5.39-9.081-5.39-2.695 4.54 9.081 5.39zm48.553-2.591a43.76 43.76 0 0 1-48.553 2.592l-2.695 4.539a49.04 49.04 0 0 0 54.411-2.905zm59.799.8c-17.445-13.797-41.991-14.125-59.799-.8l3.163 4.226c15.891-11.89 37.794-11.597 53.361.715zm22.526 17.816-22.526-17.816-3.275 4.14L348.26 35.08zm1.002 437.596V33.009h-5.279v435.525zm-26.911-15.019 22.681 17.125 3.181-4.213-22.681-17.125zm-57.102-1.287c17.33-11.898 40.326-11.38 57.102 1.287l3.181-4.213c-18.588-14.035-44.069-14.609-63.271-1.426zm-59.027 1.473a54.14 54.14 0 0 0 59.027-1.473l-2.988-4.352a48.86 48.86 0 0 1-53.272 1.33zm-5.116-3.149 5.116 3.149 2.767-4.495-5.116-3.15zm-60.114-.483a58.1 58.1 0 0 1 60.114.483l2.767-4.496a63.38 63.38 0 0 0-65.576-.526zm-9.081 5.391 9.081-5.391-2.695-4.539-9.08 5.39zm-54.41-2.905a49.04 49.04 0 0 0 54.41 2.905l-2.694-4.54a43.76 43.76 0 0 1-48.554-2.592zm-53.361.714c15.566-12.311 37.47-12.605 53.36-.714l3.163-4.227c-17.808-13.325-42.353-12.996-59.798.801zM4.887 471.085l22.527-17.816-3.275-4.14-22.526 17.816zM.611 32.527v436.488h5.278V32.527z" mask="url(#a)"/></svg>