<svg xmlns="http://www.w3.org/2000/svg" width="1215" height="548" fill="none"><mask id="a" width="1214" height="547" x=".5" y=".941" fill="#000" maskUnits="userSpaceOnUse"><path fill="#fff" d="M.5.941h1214v547H.5z"/><path fillRule="evenodd" d="m3.5 54.813 76.752-28.371a318.66 318.66 0 0 1 212.017-3.16 318.66 318.66 0 0 0 193.479 3.054l20.058-6.044A384.4 384.4 0 0 1 724 19.214l36.733 10.676a281.2 281.2 0 0 0 175.215-5.987 281.21 281.21 0 0 1 198.272 1.812l77.28 29.922v486.598l-76.75-28.371a318.67 318.67 0 0 0-212.019-3.16 318.65 318.65 0 0 1-193.48 3.054l-20.057-6.044A384.4 384.4 0 0 0 491 506.637l-36.733 10.675a281.2 281.2 0 0 1-175.215-5.987 281.22 281.22 0 0 0-198.274 1.812L3.5 543.059z" clipRule="evenodd"/></mask><path fill="#FAFAF2" fillRule="evenodd" d="m3.5 54.813 76.752-28.371a318.66 318.66 0 0 1 212.017-3.16 318.66 318.66 0 0 0 193.479 3.054l20.058-6.044A384.4 384.4 0 0 1 724 19.214l36.733 10.676a281.2 281.2 0 0 0 175.215-5.987 281.21 281.21 0 0 1 198.272 1.812l77.28 29.922v486.598l-76.75-28.371a318.67 318.67 0 0 0-212.019-3.16 318.65 318.65 0 0 1-193.48 3.054l-20.057-6.044A384.4 384.4 0 0 0 491 506.637l-36.733 10.675a281.2 281.2 0 0 1-175.215-5.987 281.22 281.22 0 0 0-198.274 1.812L3.5 543.059z" clipRule="evenodd"/><path fill="#000" d="m80.252 26.442 1.04 2.813zM3.5 54.812 2.46 52l-1.96.724v2.09zm288.769-31.53-.956 2.844zm193.479 3.054.866 2.872zm20.058-6.044-.866-2.873zM724 19.214l.837-2.88zm36.733 10.676.838-2.88zm175.215-5.987-1.032-2.817zm198.272 1.812-1.08 2.797zm77.28 29.922h3V53.58l-1.92-.742zm0 486.598-1.04 2.814 4.04 1.493v-4.307zm-76.75-28.371-1.04 2.814zm-212.019-3.16-.956-2.843zm-193.48 3.054.866-2.872zm-20.057-6.044-.865 2.872zM491 506.637l-.837-2.881zm-36.733 10.675.837 2.881zm-175.215-5.987-1.032 2.817zm-198.274 1.812 1.084 2.798zM3.5 543.059h-3v4.378l4.083-1.581zM79.212 23.628 2.46 51.998l2.08 5.629 76.752-28.372zm214.013-3.19a321.66 321.66 0 0 0-214.014 3.19l2.08 5.627a315.66 315.66 0 0 1 210.022-3.13zm191.658 3.026a315.66 315.66 0 0 1-191.658-3.025l-1.912 5.687a321.66 321.66 0 0 0 195.301 3.082zm20.057-6.045-20.057 6.045 1.731 5.744 20.057-6.044zm219.897-1.085a387.4 387.4 0 0 0-219.897 1.085l1.731 5.745a381.4 381.4 0 0 1 216.492-1.069zm36.734 10.675-36.734-10.675-1.674 5.761 36.733 10.676zm173.345-5.923a278.2 278.2 0 0 1-173.345 5.923l-1.675 5.762a284.2 284.2 0 0 0 177.084-6.05zm200.384 1.831a284.2 284.2 0 0 0-200.384-1.83l2.064 5.633a278.22 278.22 0 0 1 196.16 1.792zm77.28 29.922-77.28-29.922-2.16 5.595 77.28 29.922zm1.92 489.396V55.637h-6v486.598zm-80.79-25.557 76.75 28.371 2.08-5.628-76.75-28.371zm-210.023-3.13a315.66 315.66 0 0 1 210.023 3.13l2.08-5.628a321.66 321.66 0 0 0-214.015-3.189zm-195.301 3.083a321.66 321.66 0 0 0 195.301-3.083l-1.912-5.687a315.66 315.66 0 0 1-191.658 3.025zm-20.057-6.045 20.057 6.045 1.731-5.745-20.057-6.045zm-216.492-1.069a381.4 381.4 0 0 1 216.492 1.069l1.731-5.745a387.4 387.4 0 0 0-219.897-1.085zm-36.733 10.676 36.733-10.676-1.674-5.761-36.734 10.675zm-177.084-6.051a284.22 284.22 0 0 0 177.084 6.051l-1.675-5.762a278.2 278.2 0 0 1-173.345-5.923zm-196.158 1.793a278.22 278.22 0 0 1 196.158-1.793l2.064-5.634a284.22 284.22 0 0 0-200.389 1.831zM4.583 545.856l77.279-29.921-2.167-5.596-77.278 29.922zM.5 54.813v488.246h6V54.813z" mask="url(#a)"/></svg>