<svg xmlns="http://www.w3.org/2000/svg" width="1900" height="1109" fill="none"><g stroke="#C4BEDD" opacity=".1" style="mix-blend-mode:plus-lighter"><path d="M1899.5 86.416H.5M1899.5 214.172H.5M1899.5 341.932H.504M1899.5 469.686l-1899-.001M1899.5 597.443H.5M1899.5 725.197H.5M1899.5 852.951H.504M1899.5 980.711H.504M1899.5 1108.47H.5M1873.89 1749.39V-218.998M1750.64 1749.39V-218.998M1627.39 1749.39V-218.998M1504.14 1749.39V-218.996M1380.88 1749.39l.01-1968.39M1257.63 1749.39V-218.996M1134.38 1749.39V-218.996M1011.13 1749.39V-218.998M887.877 1749.39V-218.998M764.623 1749.39V-218.998M641.367 1749.39V-219M518.117 1749.39V-219M394.869 1749.39V-218.996M271.617 1749.4V-218.994M148.363 1749.39l.001-1968.388M25.109 1749.39 25.11-219"/></g></svg>