<svg xmlns="http://www.w3.org/2000/svg" width="410" height="1265" fill="none"><mask id="a" fill="#fff"><path fillRule="evenodd" d="M410 714.999c0-11.046-8.954-20-20-20H249.184v22.183a3.224 3.224 0 0 1-6.449 0v-22.183h-90.916v22.183a3.223 3.223 0 1 1-6.448 0v-22.183H20c-11.046 0-20 8.954-20 20V1245c0 11.04 8.954 20 20 20h370c11.046 0 20-8.96 20-20zM145.371 691.32H20c-11.046 0-20-8.954-20-20v-651c0-11.045 8.954-20 20-20h370c11.046 0 20 8.955 20 20v651c0 11.046-8.954 20-20 20H249.184v-22.775a3.225 3.225 0 0 0-6.449 0v22.775h-90.916v-22.775a3.224 3.224 0 1 0-6.448 0z" clipRule="evenodd"/></mask><path fill="#FAFAF2" fillRule="evenodd" d="M410 714.999c0-11.046-8.954-20-20-20H249.184v22.183a3.224 3.224 0 0 1-6.449 0v-22.183h-90.916v22.183a3.223 3.223 0 1 1-6.448 0v-22.183H20c-11.046 0-20 8.954-20 20V1245c0 11.04 8.954 20 20 20h370c11.046 0 20-8.96 20-20zM145.371 691.32H20c-11.046 0-20-8.954-20-20v-651c0-11.045 8.954-20 20-20h370c11.046 0 20 8.955 20 20v651c0 11.046-8.954 20-20 20H249.184v-22.775a3.225 3.225 0 0 0-6.449 0v22.775h-90.916v-22.775a3.224 3.224 0 1 0-6.448 0z" clipRule="evenodd"/><path fill="#222" d="M410 714.999h-1.592zm-160.816-20v-1.592h-1.593v1.592zm0 22.183h-1.593zm-6.449 0h-1.592zm0-22.183h1.592v-1.592h-1.592zm-90.916 0v-1.592h-1.592v1.592zm-6.448 0h1.592v-1.592h-1.592zM20 1265v-1.59zm370 0v1.59zm20-20h1.592zM145.371 691.32v1.593h1.592v-1.593zM0 671.32h-1.592zm0-651h1.592zm390 671v1.593zm-140.816 0h-1.593v1.593h1.593zm0-22.775h1.592zm-6.449 0h1.592zm0 22.775v1.593h1.592v-1.593zm-90.916 0h-1.592v1.593h1.592zM390 696.591c10.166 0 18.408 8.242 18.408 18.408h3.184c0-11.925-9.667-21.592-21.592-21.592zm-140.816 0H390v-3.184H249.184zm1.592 20.591v-22.183h-3.185v22.183zm-4.817 4.816a4.817 4.817 0 0 0 4.817-4.816h-3.185c0 .901-.73 1.632-1.632 1.632zm-4.816-4.816a4.816 4.816 0 0 0 4.816 4.816v-3.184a1.63 1.63 0 0 1-1.632-1.632zm0-22.183v22.183h3.184v-22.183zm-89.324 1.592h90.916v-3.184h-90.916zm-1.592-1.592v22.183h3.185v-22.183zm0 22.183c0 .901-.731 1.632-1.632 1.632v3.184a4.817 4.817 0 0 0 4.817-4.816zm-1.632 1.632a1.63 1.63 0 0 1-1.632-1.632h-3.184a4.816 4.816 0 0 0 4.816 4.816zm-1.632-1.632v-22.183h-3.184v22.183zM20 696.591h125.371v-3.184H20zM1.592 714.999c0-10.166 8.242-18.408 18.408-18.408v-3.184c-11.925 0-21.592 9.667-21.592 21.592zm0 530.001V714.999h-3.184V1245zM20 1263.41c-10.166 0-18.408-8.24-18.408-18.41h-3.184c0 11.92 9.667 21.59 21.592 21.59zm370 0H20v3.18h370zm18.408-18.41c0 10.17-8.242 18.41-18.408 18.41v3.18c11.925 0 21.592-9.67 21.592-21.59zm0-530.001V1245h3.184V714.999zM20 692.913h125.371v-3.185H20zM-1.592 671.32c0 11.925 9.667 21.593 21.592 21.593v-3.185c-10.166 0-18.408-8.241-18.408-18.408zm0-651v651h3.184v-651zM20-1.272C8.075-1.272-1.592 8.395-1.592 20.32h3.184C1.592 10.154 9.834 1.913 20 1.913zm370 0H20v3.185h370zm21.592 21.592c0-11.925-9.667-21.592-21.592-21.592v3.185c10.166 0 18.408 8.241 18.408 18.407zm0 651v-651h-3.184v651zM390 692.913c11.925 0 21.592-9.668 21.592-21.593h-3.184c0 10.167-8.242 18.408-18.408 18.408zm-140.816 0H390v-3.185H249.184zm-1.593-24.368v22.775h3.185v-22.775zm-1.632-1.632c.902 0 1.632.73 1.632 1.632h3.185a4.817 4.817 0 0 0-4.817-4.817zm-1.632 1.632c0-.902.731-1.632 1.632-1.632v-3.185a4.816 4.816 0 0 0-4.816 4.817zm0 22.775v-22.775h-3.184v22.775zm-92.508 1.593h90.916v-3.185h-90.916zm-1.592-24.368v22.775h3.185v-22.775zm-1.632-1.632c.901 0 1.632.73 1.632 1.632h3.185a4.817 4.817 0 0 0-4.817-4.817zm-1.632 1.632c0-.902.731-1.632 1.632-1.632v-3.185a4.816 4.816 0 0 0-4.816 4.817zm0 22.775v-22.775h-3.184v22.775z" mask="url(#a)"/></svg>