<svg xmlns="http://www.w3.org/2000/svg" width="414" height="111" fill="none"><path fill="#8B77FF" fillRule="evenodd" d="M283 102.416V110H0V2h283v6.673c.506-2.736.774-5.539.786-8.392.13 30.518 29.569 55.228 65.881 55.263-36.312.036-65.751 24.746-65.881 55.263a47 47 0 0 0-.786-8.391" clipRule="evenodd"/><mask id="a" width="224" height="79" x="37" y="19" fill="#000" maskUnits="userSpaceOnUse"><path fill="#fff" d="M37 19h224v79H37z"/><path d="M65.81 95.215q-12.249 0-19.233-7.288-6.985-7.29-6.985-20.853V23.142h9.616v42.414q0 10.122 4.15 15.69t12.451 5.567q8.605 0 12.856-5.365 4.251-5.466 4.251-15.892V23.142h9.313V66.67q0 8.909-3.34 15.386-3.24 6.378-9.212 9.82-5.871 3.34-13.868 3.34m60.727 0q-7.39 0-13.463-1.924-6.074-2.025-10.224-5.263l4.859-8.098q3.644 3.036 8.199 4.96 4.556 1.923 10.629 1.923 7.288 0 11.539-3.037 4.252-3.036 4.252-8.199 0-2.936-1.215-5.162-1.215-2.329-4.758-4.454-3.441-2.227-10.223-4.758-7.288-2.835-11.641-5.669-4.353-2.935-6.276-6.58-1.822-3.745-1.822-8.806t2.733-9.11q2.834-4.15 8.199-6.58 5.467-2.53 13.159-2.53 6.276 0 11.236 1.316 5.062 1.215 9.819 3.542l-3.543 8.2q-3.44-2.025-8.098-3.34-4.554-1.418-9.616-1.418-6.68 0-10.528 2.632-3.846 2.631-3.846 6.782 0 2.633 1.113 4.656 1.114 2.025 4.353 3.948 3.34 1.923 9.92 4.353 7.896 2.935 12.451 6.175 4.656 3.239 6.58 7.085 1.923 3.745 1.923 8.605 0 6.579-3.341 11.236-3.239 4.656-9.11 7.085-5.77 2.43-13.26 2.43M166.456 94V23.345q4.15-.507 9.11-.709a174 174 0 0 1 10.426-.304q8.807 0 14.982 2.835 6.174 2.733 9.414 7.592 3.239 4.858 3.239 11.134 0 7.593-3.746 12.856-3.745 5.265-10.426 8.098-6.68 2.733-15.487 2.733-4.252 0-7.896-.303V94zm18.726-34.417q9.01 0 13.97-4.049t4.96-10.83q0-6.58-4.758-10.427T185.79 30.43q-2.733 0-5.163.102a86 86 0 0 0-4.555.303v28.242q1.62.203 3.948.405 2.328.102 5.162.101m52.262 35.632q-5.973 0-10.831-1.519-4.758-1.518-7.896-3.947l3.847-7.592q2.632 2.226 6.58 3.745 4.048 1.417 8.604 1.417 5.668 0 8.503-1.822 2.935-1.923 2.935-4.859 0-2.125-1.113-3.745-1.012-1.62-3.847-3.138-2.834-1.62-8.199-3.442-7.39-2.53-11.135-5.972-3.644-3.543-3.644-9.718 0-6.074 5.264-10.223 5.364-4.252 14.779-4.252 5.061 0 9.009 1.114 3.947 1.012 7.085 2.631l-2.53 7.491q-2.733-1.62-6.276-2.632-3.442-1.012-7.693-1.012-5.264 0-7.997 2.126t-2.733 4.656q0 2.43 2.126 4.15t8.3 3.746q10.021 3.34 13.969 7.39 3.948 4.048 3.948 10.122 0 7.085-5.77 11.236-5.669 4.049-15.285 4.049"/></mask><path fill="#FAFAF2" d="M65.81 95.215q-12.249 0-19.233-7.288-6.985-7.29-6.985-20.853V23.142h9.616v42.414q0 10.122 4.15 15.69t12.451 5.567q8.605 0 12.856-5.365 4.251-5.466 4.251-15.892V23.142h9.313V66.67q0 8.909-3.34 15.386-3.24 6.378-9.212 9.82-5.871 3.34-13.868 3.34m60.727 0q-7.39 0-13.463-1.924-6.074-2.025-10.224-5.263l4.859-8.098q3.644 3.036 8.199 4.96 4.556 1.923 10.629 1.923 7.288 0 11.539-3.037 4.252-3.036 4.252-8.199 0-2.936-1.215-5.162-1.215-2.329-4.758-4.454-3.441-2.227-10.223-4.758-7.288-2.835-11.641-5.669-4.353-2.935-6.276-6.58-1.822-3.745-1.822-8.806t2.733-9.11q2.834-4.15 8.199-6.58 5.467-2.53 13.159-2.53 6.276 0 11.236 1.316 5.062 1.215 9.819 3.542l-3.543 8.2q-3.44-2.025-8.098-3.34-4.554-1.418-9.616-1.418-6.68 0-10.528 2.632-3.846 2.631-3.846 6.782 0 2.633 1.113 4.656 1.114 2.025 4.353 3.948 3.34 1.923 9.92 4.353 7.896 2.935 12.451 6.175 4.656 3.239 6.58 7.085 1.923 3.745 1.923 8.605 0 6.579-3.341 11.236-3.239 4.656-9.11 7.085-5.77 2.43-13.26 2.43M166.456 94V23.345q4.15-.507 9.11-.709a174 174 0 0 1 10.426-.304q8.807 0 14.982 2.835 6.174 2.733 9.414 7.592 3.239 4.858 3.239 11.134 0 7.593-3.746 12.856-3.745 5.265-10.426 8.098-6.68 2.733-15.487 2.733-4.252 0-7.896-.303V94zm18.726-34.417q9.01 0 13.97-4.049t4.96-10.83q0-6.58-4.758-10.427T185.79 30.43q-2.733 0-5.163.102a86 86 0 0 0-4.555.303v28.242q1.62.203 3.948.405 2.328.102 5.162.101m52.262 35.632q-5.973 0-10.831-1.519-4.758-1.518-7.896-3.947l3.847-7.592q2.632 2.226 6.58 3.745 4.048 1.417 8.604 1.417 5.668 0 8.503-1.822 2.935-1.923 2.935-4.859 0-2.125-1.113-3.745-1.012-1.62-3.847-3.138-2.834-1.62-8.199-3.442-7.39-2.53-11.135-5.972-3.644-3.543-3.644-9.718 0-6.074 5.264-10.223 5.364-4.252 14.779-4.252 5.061 0 9.009 1.114 3.947 1.012 7.085 2.631l-2.53 7.491q-2.733-1.62-6.276-2.632-3.442-1.012-7.693-1.012-5.264 0-7.997 2.126t-2.733 4.656q0 2.43 2.126 4.15t8.3 3.746q10.021 3.34 13.969 7.39 3.948 4.048 3.948 10.122 0 7.085-5.77 11.236-5.669 4.049-15.285 4.049"/><path fill="#FAFAF2" d="m46.577 87.927 1.461-1.401zm-6.985-64.785v-2.024h-2.025v2.024zm9.616 0h2.025v-2.024h-2.025zm4.15 58.104 1.624-1.21zm25.307.202 1.587 1.257.005-.007.006-.007zm4.251-58.306v-2.024h-2.024v2.024zm9.313 0h2.025v-2.024h-2.025zm-3.34 58.913-1.8-.927-.005.01zm-9.212 9.82 1.001 1.759.01-.006zM65.81 93.19c-7.74 0-13.576-2.287-17.77-6.664l-2.924 2.801c5.117 5.34 12.103 7.912 20.694 7.912zm-17.77-6.664c-4.186-4.368-6.423-10.748-6.423-19.452h-4.049c0 9.381 2.42 16.903 7.548 22.253zm-6.423-19.452V23.142h-4.049v43.932zm-2.024-41.907h9.616v-4.05h-9.616zm7.592-2.025v42.414h4.049V23.142zm0 42.414c0 6.992 1.429 12.71 4.551 16.9l3.247-2.42c-2.411-3.235-3.75-7.976-3.75-14.48zm4.551 16.9c3.226 4.327 8.042 6.382 14.074 6.382v-4.05c-5.035 0-8.52-1.656-10.827-4.752zm14.074 6.382c6.18 0 11.128-1.95 14.443-6.133l-3.174-2.514c-2.354 2.97-5.977 4.597-11.269 4.597zm14.454-6.147c3.22-4.14 4.678-9.951 4.678-17.135h-4.05c0 6.717-1.375 11.5-3.824 14.65zm4.678-17.135V23.142h-4.05v42.414zm-2.025-40.39h9.313v-4.048h-9.313zm7.289-2.024V66.67h4.049V23.142zm0 43.527c0 5.687-1.066 10.483-3.116 14.459l3.6 1.855c2.403-4.663 3.565-10.123 3.565-16.314zm-3.121 14.47c-1.989 3.915-4.79 6.89-8.418 8.981l2.022 3.508c4.335-2.498 7.675-6.068 10.006-10.656zm-8.408 8.976c-3.557 2.023-7.822 3.075-12.867 3.075v4.05c5.618 0 10.598-1.176 14.87-3.606zm34.398 3.176-.641 1.921.015.005.014.005zm-10.224-5.263-1.736-1.042-.922 1.536 1.412 1.102zm4.859-8.098 1.296-1.556-1.816-1.513-1.216 2.027zm30.367 3.846 1.177 1.648zm3.037-13.361-1.795.936.009.017.009.016zm-4.758-4.454-1.099 1.7.028.018.03.018zm-10.223-4.758-.734 1.887.013.005.013.005zm-11.641-5.669-1.132 1.679.013.009.014.009zm-6.276-6.58-1.821.886.015.03.015.03zm.911-17.916-1.672-1.142-.006.01zm8.199-6.58.835 1.844.008-.003.008-.004zm24.395-1.214-.519 1.956.024.006.023.006zm9.819 3.542 1.859.803.766-1.772-1.735-.85zm-3.543 8.2-1.026 1.745 1.976 1.162.909-2.104zm-8.098-3.34-.601 1.932.025.008.026.007zm-22.877 12.652-1.774.976zm4.353 3.948-1.033 1.74.011.008.012.007zm9.92 4.353L132 50.7l-.005-.001zm12.451 6.175-1.173 1.65.008.005.009.006zm6.58 7.085-1.811.906.005.01.005.01zm-1.418 19.84-1.645-1.18-.008.012-.009.012zm-9.11 7.086-.774-1.87-.012.004zm-13.26.405c-4.752 0-9.03-.618-12.852-1.829l-1.223 3.86c4.276 1.354 8.973 2.018 14.075 2.018zm-12.823-1.82c-3.876-1.291-7.068-2.948-9.619-4.938l-2.491 3.192c2.983 2.328 6.607 4.18 10.829 5.588zm-9.128-2.3 4.859-8.099-3.472-2.083-4.859 8.098zm1.827-7.585c2.589 2.158 5.495 3.913 8.707 5.27l1.575-3.73q-4.288-1.814-7.69-4.65zm8.707 5.27c3.336 1.408 7.157 2.083 11.417 2.083v-4.05c-3.839 0-7.104-.608-9.842-1.763zm11.417 2.083c5.118 0 9.427-1.065 12.716-3.414l-2.353-3.295c-2.38 1.7-5.765 2.66-10.363 2.66zm12.716-3.414c3.359-2.4 5.099-5.742 5.099-9.847h-4.049c0 2.779-1.094 4.902-3.403 6.552zm5.099-9.847c0-2.242-.466-4.306-1.462-6.132l-3.554 1.939c.623 1.143.967 2.521.967 4.193zm-1.444-6.099c-1.055-2.021-2.997-3.745-5.511-5.253l-2.083 3.472c2.209 1.325 3.439 2.571 4.004 3.654zm-5.453-5.217c-2.477-1.603-6.044-3.249-10.616-4.955l-1.415 3.794c4.471 1.668 7.72 3.194 9.832 4.56zm-10.59-4.945c-4.787-1.861-8.527-3.693-11.27-5.478l-2.209 3.393c3.061 1.993 7.081 3.941 12.012 5.859zm-11.242-5.46c-2.699-1.82-4.528-3.782-5.618-5.846l-3.581 1.89c1.475 2.794 3.83 5.22 6.935 7.313zm-5.588-5.787c-1.054-2.168-1.618-4.789-1.618-7.92h-4.049c0 3.615.652 6.865 2.026 9.691zm-1.618-7.92c0-2.987.799-5.626 2.387-7.979l-3.356-2.265c-2.057 3.047-3.08 6.48-3.08 10.243zm2.381-7.97c1.646-2.41 4.065-4.383 7.362-5.877l-1.67-3.688c-3.856 1.746-6.904 4.16-9.036 7.282zm7.378-5.884c3.314-1.534 7.395-2.343 12.308-2.343v-4.049c-5.344 0-10.036.878-14.009 2.718zm12.308-2.343c4.046 0 7.613.425 10.717 1.248l1.039-3.913c-3.509-.931-7.434-1.384-11.756-1.384zm10.764 1.26a45.5 45.5 0 0 1 9.401 3.393l1.78-3.637a49.5 49.5 0 0 0-10.236-3.693zm8.433.771-3.543 8.2 3.717 1.606 3.543-8.2zm-.658 7.258c-2.471-1.454-5.337-2.63-8.574-3.544l-1.101 3.896c2.971.84 5.504 1.892 7.622 3.138zm-8.523-3.529c-3.243-1.009-6.652-1.509-10.218-1.509v4.05c3.183 0 6.184.445 9.015 1.325zm-10.218-1.509c-4.693 0-8.653.921-11.671 2.986l2.287 3.342c2.11-1.444 5.169-2.279 9.384-2.279zm-11.671 2.986c-3.036 2.078-4.728 4.927-4.728 8.453h4.049c0-2.008.874-3.68 2.966-5.111zm-4.728 8.453c0 2.048.436 3.944 1.364 5.632l3.548-1.951c-.556-1.012-.863-2.22-.863-3.681zm1.364 5.632c.994 1.807 2.799 3.35 5.094 4.713l2.067-3.482c-2.025-1.202-3.122-2.29-3.613-3.182zm5.117 4.727c2.375 1.367 5.807 2.864 10.229 4.497l1.402-3.798c-4.351-1.607-7.532-3.011-9.611-4.208zm10.225 4.495c5.172 1.923 9.143 3.908 11.983 5.927l2.346-3.3c-3.234-2.3-7.563-4.43-12.918-6.422zm12 5.94c2.912 2.025 4.835 4.149 5.925 6.329l3.621-1.811c-1.474-2.949-3.937-5.549-7.234-7.842zm5.935 6.348c1.114 2.17 1.699 4.712 1.699 7.68h4.049c0-3.512-.696-6.705-2.147-9.53zm1.699 7.68c0 4.028-1.016 7.344-2.961 10.055l3.29 2.36c2.51-3.497 3.72-7.67 3.72-12.416zm-2.978 10.08c-1.912 2.748-4.622 4.88-8.222 6.37l1.548 3.742c4.228-1.75 7.591-4.34 9.998-7.8zm-8.234 6.375c-3.554 1.497-7.698 2.271-12.474 2.271v4.05c5.211 0 9.907-.846 14.046-2.589zM166.456 94h-2.025v2.025h2.025zm0-70.655-.245-2.01-1.78.217v1.793zm9.11-.709.083 2.023h.019l.019-.002zm25.408 2.53-.845 1.84.013.006.012.006zm9.414 7.593-1.685 1.123zm-.507 23.99 1.65 1.174zm-10.426 8.098.767 1.874.012-.005.012-.005zm-23.383 2.43.168-2.018-2.192-.183v2.2zm0 26.723v2.025h2.025V94zm23.08-38.466-1.281-1.568zm-18.525-25.002-.084-2.023zm-4.555.303-.192-2.015-1.832.174v1.841zm0 28.242h-2.024v1.787l1.773.222zm3.948.405-.175 2.017.043.004.044.002zM168.48 94V23.345h-4.049V94zm-1.779-68.646q4.056-.495 8.948-.695l-.166-4.046q-5.028.205-9.272.722zm8.986-.697q4.998-.3 10.305-.3v-4.05q-5.422 0-10.547.308zm10.305-.3c5.663 0 10.352.912 14.137 2.65l1.689-3.68c-4.447-2.042-9.746-3.02-15.826-3.02zm14.162 2.661c3.821 1.691 6.635 3.992 8.549 6.864l3.369-2.246c-2.404-3.607-5.867-6.368-10.279-8.32zm8.549 6.864c1.921 2.881 2.899 6.196 2.899 10.011h4.049c0-4.552-1.181-8.66-3.579-12.257zm2.899 10.011c0 4.717-1.158 8.573-3.37 11.682l3.299 2.348c2.781-3.91 4.12-8.623 4.12-14.03zm-3.37 11.682c-2.254 3.168-5.414 5.646-9.567 7.408l1.581 3.728c4.755-2.017 8.545-4.938 11.285-8.788zm-9.543 7.398c-4.164 1.704-9.057 2.583-14.721 2.583v4.049c6.077 0 11.509-.943 16.254-2.884zm-14.721 2.583q-4.18 0-7.728-.297l-.336 4.035q3.74.311 8.064.31zm-9.92 1.72V94h4.049V67.277zm2.024 24.7h-9.616v4.049h9.616zm9.11-30.368c6.286 0 11.459-1.411 15.25-4.505l-2.561-3.137c-2.823 2.305-6.962 3.593-12.689 3.593zm15.25-4.505c3.809-3.11 5.704-7.312 5.704-12.4h-4.049c0 3.955-1.411 6.974-4.216 9.263zm5.704-12.4c0-4.945-1.822-9.02-5.509-12l-2.546 3.148c2.657 2.148 4.006 5.024 4.006 8.852zm-5.509-12c-3.661-2.96-8.701-4.297-14.837-4.297v4.049c5.606 0 9.609 1.227 12.291 3.396zm-14.837-4.297q-2.77 0-5.247.103l.169 4.045q2.382-.099 5.078-.099zm-5.247.103a88 88 0 0 0-4.663.311l.384 4.03a84 84 0 0 1 4.448-.296zm-6.495 2.326v28.242h4.049V30.835zm1.773 30.251q1.67.21 4.024.413l.35-4.034a106 106 0 0 1-3.872-.397zm4.111.419q2.381.103 5.25.103v-4.05q-2.799 0-5.074-.099zm46.681 32.191-.616 1.929.012.004zm-7.896-3.947-1.806-.915-.756 1.492 1.323 1.023zm3.847-7.592 1.308-1.546-1.956-1.655-1.158 2.286zm6.58 3.745-.727 1.89.029.01.029.01zm17.107-.405 1.094 1.703.008-.005.007-.004zm1.822-8.604-1.717 1.073.023.037.025.037zm-3.847-3.138-1.004 1.758.024.013.024.014zm-8.199-3.442-.656 1.916.005.001zm-11.135-5.972-1.411 1.452.02.02.021.019zm1.62-19.941 1.253 1.59.004-.004zm23.788-3.138-.55 1.948.023.007.024.006zm7.085 2.631 1.918.648.557-1.648-1.546-.799zm-2.53 7.491-1.032 1.742 2.15 1.274.8-2.368zm-6.276-2.632-.571 1.942.007.003.008.002zm-15.69 1.114 1.243 1.598zm-.607 8.806-1.274 1.574zm8.3 3.746.64-1.921-.009-.003zm13.969 7.39-1.449 1.412zm-1.822 21.358 1.177 1.647.005-.004zm-15.285 2.024c-3.811 0-7.214-.484-10.227-1.426l-1.208 3.865c3.465 1.082 7.283 1.61 11.435 1.61zm-10.216-1.422c-3.002-.958-5.408-2.178-7.271-3.62l-2.479 3.201c2.32 1.797 5.178 3.21 8.519 4.276zm-6.705-1.105 3.847-7.591-3.612-1.83-3.847 7.591zm.733-6.96c1.962 1.66 4.364 3.013 7.161 4.088l1.453-3.779c-2.466-.948-4.451-2.091-5.998-3.4zm7.219 4.11c2.927 1.024 6.022 1.53 9.273 1.53v-4.048c-2.824 0-5.464-.439-7.936-1.304zm9.273 1.53c3.931 0 7.227-.62 9.597-2.143l-2.189-3.406c-1.409.906-3.781 1.5-7.408 1.5zm9.612-2.153c2.399-1.571 3.851-3.771 3.851-6.552h-4.049c0 1.134-.506 2.173-2.021 3.166zm3.851-6.552c0-1.791-.477-3.447-1.47-4.892l-3.337 2.294c.492.714.758 1.556.758 2.598zm-1.422-4.818c-.949-1.52-2.594-2.771-4.607-3.85l-1.912 3.57c1.766.946 2.686 1.785 3.086 2.426zm-4.558-3.823c-2.055-1.174-4.929-2.37-8.553-3.6l-1.302 3.833c3.529 1.199 6.121 2.297 7.846 3.283zm-8.548-3.599c-4.789-1.64-8.211-3.516-10.421-5.548l-2.74 2.982c2.784 2.557 6.785 4.663 11.849 6.397zm-10.38-5.509c-1.955-1.9-3.031-4.57-3.031-8.266h-4.049c0 4.538 1.354 8.347 4.258 11.17zm-3.031-8.266c0-3.359 1.413-6.205 4.493-8.634l-2.507-3.18c-3.938 3.106-6.035 7.075-6.035 11.814zm4.497-8.637c3.106-2.46 7.533-3.813 13.522-3.813v-4.05c-6.564 0-11.989 1.482-16.037 4.69zm13.522-3.813c3.229 0 6.042.355 8.459 1.037l1.099-3.897c-2.846-.803-6.04-1.19-9.558-1.19zm8.506 1.05c2.506.642 4.722 1.47 6.66 2.47l1.857-3.599c-2.246-1.159-4.754-2.087-7.512-2.794zm5.67.023-2.53 7.49 3.836 1.296 2.53-7.49zm.42 6.396c-1.993-1.18-4.249-2.121-6.752-2.836l-1.112 3.893c2.221.635 4.148 1.448 5.8 2.427zm-6.737-2.832c-2.51-.738-5.271-1.095-8.264-1.095v4.05c2.675 0 5.043.318 7.122.93zm-8.264-1.095c-3.737 0-6.92.748-9.24 2.553l2.486 3.196c1.324-1.03 3.472-1.7 6.754-1.7zm-9.24 2.553c-2.121 1.65-3.515 3.732-3.515 6.254h4.049c0-.852.429-1.874 1.952-3.058zm-3.515 6.254c0 2.313 1.052 4.247 2.877 5.724l2.547-3.147c-1.01-.818-1.375-1.65-1.375-2.577zm2.877 5.724c1.735 1.405 4.827 2.746 8.943 4.095l1.262-3.847c-4.117-1.35-6.559-2.506-7.658-3.395zm8.934 4.092c6.597 2.2 10.874 4.538 13.16 6.882l2.899-2.826c-2.978-3.055-8.014-5.642-14.779-7.897zm13.16 6.882c2.234 2.292 3.372 5.146 3.372 8.71h4.049c0-4.534-1.493-8.429-4.522-11.536zm3.372 8.71c0 4.07-1.607 7.204-4.927 9.592l2.364 3.287c4.374-3.146 6.612-7.502 6.612-12.88zm-4.922 9.588c-3.327 2.377-7.962 3.672-14.108 3.672v4.05c6.676 0 12.231-1.405 16.462-4.427z" mask="url(#a)"/><path fill="#8B77FF" d="m385.927 27.5 7.518 20.319 20.319 7.518-20.319 7.518-7.518 20.319-7.519-20.319-20.318-7.518 20.318-7.519z"/></svg>