<svg xmlns="http://www.w3.org/2000/svg" width="1900" height="1031" fill="none"><mask id="a" fill="#fff"><path fillRule="evenodd" d="M30.368.28C13.596.28 0 13.876 0 30.648v968.265c0 16.767 13.596 30.367 30.368 30.367h884.264c16.772 0 30.368-13.6 30.368-30.367V665.08h-37.9a8.1 8.1 0 0 1 0-16.2H945v-228.4h-37.9a8.1 8.1 0 0 1 0-16.2H945V30.648C945 13.876 931.404.28 914.632.28zM955 665.08h40.9c4.47 0 8.1-3.627 8.1-8.1 0-4.474-3.63-8.1-8.1-8.1H955v-228.4h40.9c4.47 0 8.1-3.626 8.1-8.1 0-4.473-3.63-8.1-8.1-8.1H955V31.648c0-16.772 13.596-30.368 30.368-30.368h884.262c16.77 0 30.37 13.596 30.37 30.368v968.265c0 16.767-13.6 30.367-30.37 30.367H985.368c-16.772 0-30.368-13.6-30.368-30.367z" clipRule="evenodd"/></mask><path fill="#FAFAF2" fillRule="evenodd" d="M30.368.28C13.596.28 0 13.876 0 30.648v968.265c0 16.767 13.596 30.367 30.368 30.367h884.264c16.772 0 30.368-13.6 30.368-30.367V665.08h-37.9a8.1 8.1 0 0 1 0-16.2H945v-228.4h-37.9a8.1 8.1 0 0 1 0-16.2H945V30.648C945 13.876 931.404.28 914.632.28zM955 665.08h40.9c4.47 0 8.1-3.627 8.1-8.1 0-4.474-3.63-8.1-8.1-8.1H955v-228.4h40.9c4.47 0 8.1-3.626 8.1-8.1 0-4.473-3.63-8.1-8.1-8.1H955V31.648c0-16.772 13.596-30.368 30.368-30.368h884.262c16.77 0 30.37 13.596 30.37 30.368v968.265c0 16.767-13.6 30.367-30.37 30.367H985.368c-16.772 0-30.368-13.6-30.368-30.367z" clipRule="evenodd"/><path fill="#000" d="M945 665.08h4v-4h-4zm0-16.2v4h4v-4zm0-228.4h4v-4h-4zm0-16.2v4h4v-4zm10 260.8v-4h-4v4zm0-16.2h-4v4h4zm0-228.4v-4h-4v4zm0-16.2h-4v4h4zM4 30.648C4 16.085 15.805 4.28 30.368 4.28v-8C11.387-3.72-4 11.667-4 30.648zm0 968.265V30.648h-8v968.265zm26.368 26.367C15.805 1025.28 4 1013.48 4 998.913h-8c0 18.977 15.387 34.367 34.368 34.367zm884.264 0H30.368v8h884.264zM941 998.913c0 14.567-11.805 26.367-26.368 26.367v8c18.981 0 34.368-15.39 34.368-34.367zm0-333.833v333.833h8V665.08zm4-4h-37.9v8H945zm-37.9 0a4.1 4.1 0 0 1-4.1-4.1h-8c0 6.682 5.417 12.1 12.1 12.1zm-4.1-4.1a4.1 4.1 0 0 1 4.1-4.1v-8c-6.683 0-12.1 5.417-12.1 12.1zm4.1-4.1H945v-8h-37.9zm33.9-232.4v228.4h8v-228.4zm-33.9 4H945v-8h-37.9zm-12.1-12.1c0 6.683 5.417 12.1 12.1 12.1v-8a4.1 4.1 0 0 1-4.1-4.1zm12.1-12.1c-6.683 0-12.1 5.418-12.1 12.1h8a4.1 4.1 0 0 1 4.1-4.1zm37.9 0h-37.9v8H945zm-4-369.632V404.28h8V30.648zM914.632 4.28C929.195 4.28 941 16.085 941 30.648h8c0-18.98-15.387-34.368-34.368-34.368zm-884.264 0h884.264v-8H30.368zM995.9 661.08H955v8h40.9zm4.1-4.1a4.1 4.1 0 0 1-4.1 4.1v8c6.68 0 12.1-5.418 12.1-12.1zm-4.1-4.1a4.1 4.1 0 0 1 4.1 4.1h8c0-6.683-5.42-12.1-12.1-12.1zm-40.9 0h40.9v-8H955zm-4-232.4v228.4h8v-228.4zm44.9-4H955v8h40.9zm4.1-4.1a4.1 4.1 0 0 1-4.1 4.1v8c6.68 0 12.1-5.417 12.1-12.1zm-4.1-4.1a4.1 4.1 0 0 1 4.1 4.1h8c0-6.682-5.42-12.1-12.1-12.1zm-40.9 0h40.9v-8H955zm-4-376.632V404.28h8V31.648zM985.368-2.72C966.387-2.72 951 12.667 951 31.648h8c0-14.563 11.805-26.368 26.368-26.368zm884.262 0H985.368v8h884.262zM1904 31.648c0-18.98-15.39-34.368-34.37-34.368v8c14.56 0 26.37 11.805 26.37 26.368zm0 968.265V31.648h-8v968.265zm-34.37 34.367c18.98 0 34.37-15.39 34.37-34.367h-8c0 14.567-11.81 26.367-26.37 26.367zm-884.262 0h884.262v-8H985.368zM951 999.913c0 18.977 15.387 34.367 34.368 34.367v-8c-14.563 0-26.368-11.8-26.368-26.367zm0-334.833v334.833h8V665.08z" mask="url(#a)"/></svg>