<svg xmlns="http://www.w3.org/2000/svg" width="73" height="74" fill="none"><circle cx="36.541" cy="37.053" r="35.555" fill="#5923AF" stroke="#fff" strokeWidth="1.336"/><path fill="#57F0CD" fillRule="evenodd" d="M57.406 15.906a2.176 2.176 0 0 1 1.953 1.956c.573 5.8-3.385 13.876-10.968 20.988q-.002 0-.002.002c1.193 3.976-.574 8.764-4.347 13.282-1.439 1.723-4.1.927-4.644-1.251l-2.597-10.382a2.98 2.98 0 0 0-2.173-2.168l-1.276-.317c-1.6-.351-3.023-.685-3.78-.937l-5.197-1.288c-2.184-.54-2.983-3.209-1.252-4.647 3.853-3.2 7.897-4.946 11.465-4.65 1.127.094 2.295-.185 3.1-.98 6.795-6.704 14.264-10.157 19.718-9.608m-6.65 11.66a2.053 2.053 0 0 0 0-2.904l-.415-.415a2.053 2.053 0 1 0-2.904 2.904l.415.415a2.053 2.053 0 0 0 2.904 0" clipRule="evenodd"/><path fill="#57F0CD" fillRule="evenodd" d="m25.153 48.719 1.017 1.016-4.993 4.993.764.765 5.499-5.499 1.016 1.017-6.515 6.515-4.464-4.464.287-.287-.006-.006 6.269-6.268 1.017 1.017-5.54 5.538.656.656zm-4.992 5.435 4.992-4.993zm3.866-7.21v-.001L18.2 52.769l.005.006-.287.287 4.022 4.022-4.02-4.022.287-.287-.006-.006zm3.413 3.492zl-5.498 5.498zm7.596-8.025 1.017 1.017-2.764 2.763-.006-.006-.287.288-4.464-4.465 2.976-2.976 1.017 1.017-1.96 1.96.725.724 1.46-1.46 1.016 1.017-1.46 1.46.696.695zm-1.712-.121-1.46 1.46v-.001zm-1.241-2.24-1.96 1.958 1.96-1.96zm.913 5.98-4.022-4.022zl.287-.288.006.006 2.322-2.321-2.322 2.32-.006-.005zm-1.26 1.26-2.96-2.958zm-3.206 3.207-4.022-4.022.379-.38-.38.38zm-.466-4.246-.155-3.178.38-.379-.38.38zm-7.383 12.093-2.959-2.959v.003l2.958 2.957zm-3.448-4.595-.378.378.155 3.178h-.001l-.155-3.177zm-3.401 3.401-.379.379 4.022 4.021-.001.001-4.022-4.022zm1.259.867 2.768.138zm17.662-11.3-4.465-4.465-.698.698.145 2.972-2.971-.145-.698.698 4.464 4.464 1.017-1.017-2.607-2.606 2.304.115-.114-2.304 2.606 2.606zM21.697 57.77l-4.464-4.465-.699.699.145 2.971-2.97-.145-.7.698 4.465 4.465 1.017-1.017-2.606-2.607 2.304.115-.115-2.304 2.606 2.607z" clipRule="evenodd"/></svg>