<svg xmlns="http://www.w3.org/2000/svg" width="74" height="73" fill="none"><rect width="71.483" height="70.815" x="1.168" y="1.498" fill="#000" rx="35.408"/><rect width="71.483" height="70.815" x="1.168" y="1.498" stroke="#fff" strokeWidth="1.336" rx="35.408"/><path fill="url(#a)" d="M50.872 27.903a1.35 1.35 0 0 1-.898.356H18.468c-1.119 0-1.683-1.279-.91-2.027l5.176-4.99c.24-.231.56-.364.894-.369h31.63c1.13 0 1.683 1.29.898 2.041z"/><path fill="url(#b)" d="M50.872 33.278a1.35 1.35 0 0 0-.898-.344H18.468c-1.119 0-1.683 1.267-.91 2.015l5.176 5.003c.244.225.563.352.894.356h31.63c1.13 0 1.683-1.279.898-2.027z"/><path fill="url(#c)" d="M50.872 52.015a1.35 1.35 0 0 1-.898.344H18.468c-1.119 0-1.683-1.268-.91-2.016l5.176-5.003a1.3 1.3 0 0 1 .894-.356h31.63c1.13 0 1.683 1.28.898 2.027z"/><defs><linearGradient id="a" x1="17.203" x2="57.526" y1="130.882" y2="130.512" gradientUnits="userSpaceOnUse"><stop stop-color="#599DB0"/><stop offset="1" stop-color="#47F8C3"/></linearGradient><linearGradient id="b" x1="19.465" x2="55.001" y1="36.621" y2="36.621" gradientUnits="userSpaceOnUse"><stop stop-color="#778CBF"/><stop offset="1" stop-color="#5DCDC9"/></linearGradient><linearGradient id="c" x1="17.203" x2="57.268" y1="30.19" y2="29.883" gradientUnits="userSpaceOnUse"><stop stop-color="#C44FE2"/><stop offset="1" stop-color="#73B0D0"/></linearGradient></defs></svg>