<svg xmlns="http://www.w3.org/2000/svg" width="406" height="191" fill="none"><path fill="#fff" d="M405.407 160.014c.722-3.598 1.184-7.271 1.184-11.039 0-36.038-34.593-65.275-77.292-65.275-.12 0-.221.02-.341.02-11.799-21.797-35.375-36.68-62.604-36.68-1.906 0-3.772.133-5.638.284C253.552 20.686 228.571 1 198.754 1c-24.079 0-45.047 12.848-55.983 31.818-5.698-1.375-11.638-2.166-17.778-2.166-40.732 0-73.76 31.893-73.76 71.246 0 3.033.261 6.01.642 8.93-36.358 1.13-65.714 28.709-68.122 63.504C-47.89 188.328-69.5 216.303-69.5 248.555c0 46.248 44.385 83.755 99.163 83.755 26.105 0 49.822-8.534 67.52-22.436 17.377 19.403 44.184 31.855 74.282 31.855 33.91 0 63.667-15.805 80.442-39.579 15.29 19.384 39.408 31.893 66.577 31.893 22.011 0 42.037-8.232 56.985-21.645 6.702 1.733 13.705 2.75 20.969 2.75 44.484 0 80.562-34.832 80.562-77.802 0-40.088-31.322-73.018-71.593-77.332"/><path fill="#fff" stroke="#040203" stroke-linecap="round" stroke-linejoin="round" stroke-miterlimit="10" strokeWidth=".373" d="M405.407 160.014c.722-3.598 1.184-7.271 1.184-11.039 0-36.038-34.593-65.275-77.292-65.275-.12 0-.221.02-.341.02-11.799-21.797-35.375-36.68-62.604-36.68-1.906 0-3.772.133-5.638.284C253.552 20.686 228.571 1 198.754 1c-24.079 0-45.047 12.848-55.983 31.818-5.698-1.375-11.638-2.166-17.778-2.166-40.732 0-73.76 31.893-73.76 71.246 0 3.033.261 6.01.642 8.93-36.358 1.13-65.714 28.709-68.122 63.504C-47.89 188.328-69.5 216.303-69.5 248.555c0 46.248 44.385 83.755 99.163 83.755 26.105 0 49.822-8.534 67.52-22.436 17.377 19.403 44.184 31.855 74.282 31.855 33.91 0 63.667-15.805 80.442-39.579 15.29 19.384 39.408 31.893 66.577 31.893 22.011 0 42.037-8.232 56.985-21.645 6.702 1.733 13.705 2.75 20.969 2.75 44.484 0 80.562-34.832 80.562-77.802 0-40.088-31.322-73.018-71.593-77.332"/><path fill="#fff" d="M387.271 132.624c-6.903-18.461-24.059-33.061-45.83-39.052z"/><path stroke="#040203" stroke-linecap="round" stroke-linejoin="round" stroke-miterlimit="10" strokeWidth=".373" d="M387.271 132.624c-6.903-18.461-24.059-33.061-45.83-39.052"/></svg>