<svg xmlns="http://www.w3.org/2000/svg" width="997" height="484" fill="none"><path fill="#fff" d="M723.703 396.997c-.535-8.332-1.69-16.641-3.919-24.823-21.329-78.267-115.013-116.979-209.293-86.386-.265.087-.476.199-.742.286-38.95-38.883-99.816-54.312-159.936-34.803-4.209 1.366-8.252 2.989-12.283 4.653-31.581-52.718-98.391-77.574-164.227-56.21-53.165 17.252-91.86 60.179-104.778 109.213-13.396 1.097-26.978 3.634-40.535 8.033-89.938 29.185-143.987 122.115-120.696 207.583 1.795 6.587 4.133 12.864 6.703 18.932-79.611 28.506-128.105 109.436-112.829 186.728-61.584 53.07-92.743 129.31-73.655 199.354C-245.116 1030-124.916 1079.66-3.966 1040.41c57.64-18.71 104.957-54.234 135.805-97.108 49.851 29.69 116.411 37.527 182.868 15.962 74.874-24.297 131.222-79.944 154.19-143.595 45.233 31.145 105.89 41.03 165.877 21.564 48.602-15.771 87.945-47.998 113.014-87.839 15.823-1.038 31.887-3.846 47.925-9.05 98.223-31.873 157.267-133.371 131.835-226.694-23.725-87.064-112.373-136.138-203.845-116.653"/><path fill="#fff" stroke="#040203" stroke-linecap="round" stroke-linejoin="round" stroke-miterlimit="10" strokeWidth=".373" d="M723.703 396.997c-.535-8.332-1.69-16.641-3.919-24.823-21.329-78.267-115.013-116.979-209.293-86.386-.265.087-.476.199-.742.286-38.95-38.883-99.816-54.312-159.936-34.803-4.209 1.366-8.252 2.989-12.283 4.653-31.581-52.718-98.391-77.574-164.227-56.21-53.165 17.252-91.86 60.179-104.778 109.213-13.396 1.097-26.978 3.634-40.535 8.033-89.938 29.185-143.987 122.115-120.696 207.583 1.795 6.587 4.133 12.864 6.703 18.932-79.611 28.506-128.105 109.436-112.829 186.728-61.584 53.07-92.743 129.31-73.655 199.354C-245.116 1030-124.916 1079.66-3.966 1040.41c57.64-18.71 104.957-54.234 135.805-97.108 49.851 29.69 116.411 37.527 182.868 15.962 74.874-24.297 131.222-79.944 154.19-143.595 45.233 31.145 105.89 41.03 165.877 21.564 48.602-15.771 87.945-47.998 113.014-87.839 15.823-1.038 31.887-3.846 47.925-9.05 98.223-31.873 157.267-133.371 131.835-226.694-23.725-87.064-112.373-136.138-203.845-116.653"/><path fill="#fff" d="M663.4 352.184c-26.225-35.268-72.849-54.75-124.58-52.153z"/><path stroke="#040203" stroke-linecap="round" stroke-linejoin="round" stroke-miterlimit="10" strokeWidth=".373" d="M663.4 352.184c-26.225-35.268-72.849-54.75-124.58-52.153"/></svg>