<svg xmlns="http://www.w3.org/2000/svg" width="1902" height="1355" fill="none"><path fill="#57F0CD" fillRule="evenodd" d="M1877.83 1354c12.8 0 23.17-10.38 23.17-23.17V93.64h-.01l-70.95-91.644-57.46 74.216-57.46-74.215-60.13 77.67-60.13-77.67-67.03 86.581-67.03-86.581-64.02 82.686-64.01-82.686-69.64 89.947-69.64-89.947-57.46 74.215-57.45-74.215-60.14 77.67-60.128-77.67-67.031 86.581L824.25 1.997l-64.016 82.686-64.016-82.687-63.492 82.01-63.492-82.01-57.457 74.216L454.32 1.997l-60.133 77.67-60.133-77.67-67.031 86.581-67.031-86.581-64.016 82.686L71.961 1.997 1.01 93.64H1v1237.19c0 12.79 10.372 23.17 23.167 23.17z" clipRule="evenodd"/><path fill="#000" d="M1901 1330.83h1zm-23.17 23.17v1zM1901 209.249h1zm0-.071h-1v.003zm0-115.538h1v-1h-1zm-.01 0-.79.612.3.388h.49zm-70.95-91.644.79-.612-.79-1.021-.79 1.021zm-57.46 74.216-.79.612.79 1.021.79-1.021zm-57.46-74.215.8-.613-.8-1.02-.79 1.02zm-60.13 77.67-.79.613.79 1.021.79-1.021zm-60.13-77.67.79-.613-.79-1.02-.79 1.02zm-67.03 86.581-.79.612.79 1.022.79-1.022zM1460.8 1.997l.79-.613-.79-1.021-.79 1.021zm-64.02 82.686-.79.612.79 1.022.79-1.022zm-64.01-82.686.79-.613-.79-1.021-.8 1.021zm-69.64 89.947-.79.612.79 1.021.79-1.021zm-69.64-89.947.79-.613-.79-1.021-.79 1.021zm-57.46 74.215-.79.612.79 1.021.8-1.021zm-57.45-74.215.79-.613-.79-1.021-.79 1.021zm-60.14 77.67-.79.613.79 1.021.8-1.021zm-60.128-77.67.791-.613-.791-1.021-.791 1.021zm-67.031 86.581-.791.612.791 1.022.791-1.022zM824.25 1.997l.79-.613-.79-1.021-.791 1.021zm-64.016 82.686-.791.612.791 1.022.791-1.022zM696.218 1.996l.791-.612-.791-1.021-.79 1.021zm-63.492 82.01-.79.613.79 1.021.791-1.021zm-63.492-82.01.791-.612-.791-1.02-.791 1.02zm-57.457 74.216-.791.612.791 1.021.791-1.021zM454.32 1.997l.791-.613-.791-1.02-.791 1.02zm-60.133 77.67-.791.613.791 1.021.791-1.021zm-60.133-77.67.791-.613-.791-1.021-.79 1.021zm-67.031 86.581-.791.612.791 1.022.791-1.022zM199.992 1.997l.791-.613-.791-1.021-.791 1.021zm-64.016 82.686-.79.612.79 1.022.791-1.022zM71.961 1.997l.79-.613-.79-1.021-.791 1.021zM1.01 93.64v1h.49l.3-.388zm-.01 0v-1H0v1zm0 .013h1zm0 380.543H0zm0 .116h1v-.007zm0 856.518H0zM24.167 1354v1zM1900 1330.83c0 12.24-9.92 22.17-22.17 22.17v2c13.35 0 24.17-10.82 24.17-24.17zm0-1121.581V1330.83h2V209.249zm0-.068v.068h2v-.074zm0-115.542v115.539h2V93.64zm.99 1h.01v-2h-.01zm-71.74-92.03 70.95 91.643 1.58-1.225-70.95-91.643zm-55.88 74.215 57.46-74.215-1.58-1.225-57.46 74.215zm-59.04-74.215 57.46 74.215 1.58-1.225-57.45-74.215zm-58.55 77.67 60.14-77.67-1.59-1.225-60.13 77.672zm-61.71-77.67 60.13 77.67 1.58-1.224-60.13-77.67zm-65.45 86.581 67.03-86.581-1.58-1.225-67.03 86.582zM1460.01 2.61l67.03 86.581 1.58-1.224-67.03-86.582zm-62.44 82.686 64.02-82.686-1.58-1.225-64.02 82.687zm-65.6-82.686 64.02 82.686 1.58-1.224-64.01-82.687zm-68.05 89.947 69.64-89.947-1.59-1.225-69.63 89.947zM1192.7 2.609l69.64 89.947 1.58-1.225-69.64-89.947zm-55.87 74.215 57.45-74.215-1.58-1.225-57.46 74.215zm-59.04-74.215 57.45 74.215 1.59-1.225-57.46-74.215zm-58.55 77.67 60.13-77.67-1.58-1.225-60.14 77.672zM957.521 2.61l60.129 77.67 1.59-1.224-60.137-77.67zM892.072 89.19 959.103 2.61l-1.582-1.225-67.031 86.582zM823.459 2.61 890.49 89.19l1.582-1.224L825.04 1.384zm-62.434 82.686L825.04 2.61l-1.581-1.225-64.016 82.687zM695.428 2.61l64.015 82.686 1.582-1.224-64.016-82.687zm-61.911 82.01 63.492-82.01-1.581-1.225-63.492 82.01zm-65.074-82.01 63.493 82.01 1.581-1.224-63.492-82.01zm-55.875 74.215 57.457-74.215-1.582-1.225L510.986 75.6zM453.529 2.609l57.457 74.215 1.582-1.225-57.457-74.215zm-58.551 77.67 60.133-77.67-1.582-1.225-60.133 77.672zM333.264 2.61l60.132 77.67 1.582-1.224-60.133-77.67zm-65.45 86.581L334.845 2.61l-1.581-1.225-67.032 86.582zM199.201 2.61l67.031 86.581 1.582-1.224-67.031-86.582zm-62.434 82.686L200.783 2.61l-1.582-1.225-64.015 82.687zM71.17 2.61l64.016 82.686 1.581-1.224L72.751 1.384zM1.802 94.252l70.95-91.643-1.582-1.225L.22 93.027zM1 94.64h.01v-2H1zm1-.987v-.014H0v.014zm0 380.543V93.653H0v380.543zm0 .109v-.109H0v.122zm0 856.525V474.312H0v856.518zM24.168 1353C11.925 1353 2 1343.07 2 1330.83H0c0 13.35 10.82 24.17 24.168 24.17zm1853.662 0H24.168v2H1877.83z"/></svg>