<svg xmlns="http://www.w3.org/2000/svg" width="1901" height="881" fill="none"><g fill="#000" opacity=".3"><path d="M2695.25 577.748v90.446c-23.57-3.678-47.15-7.308-70.75-10.89a17376 17376 0 0 0-366.37-51.595c-61.22-7.961-122.51-15.6-183.86-22.915-30.65-3.654-61.44-7.246-92.2-10.752a17748.395 17748.395 0 0 0-462.63-46.573l46.55 3.543 46.48 3.409q46.5 3.347 93.06 6.455a17997 17997 0 0 0 373.35 21.047l46.78 2.093 23.4 1.002 23.36.963a18262.834 18262.834 0 0 0 522.83 13.767M2271.17 1027.3H2122.2c-2.31-1.7-4.62-3.39-6.94-5.08a9943 9943 0 0 0-124.52-89.404c-167.29-118.197-340.89-233.154-519.65-344.136 45.52 27.339 91.21 54.344 137.34 81.169q69.165 40.224 139.41 79.764 70.23 39.543 141.51 78.393l35.71 19.379 35.77 19.258c23.89 12.806 47.87 25.554 71.93 38.246a12310 12310 0 0 0 238.41 122.411M2695.27 880.152v89.935a13979 13979 0 0 0-220.71-85.58 14182 14182 0 0 0-162.03-60.126 14442 14442 0 0 0-163.65-58.465 14596 14596 0 0 0-247.92-84.395c-27.7-9.159-55.45-18.236-83.34-27.267a15584 15584 0 0 0 343.9 94.915c28.88 7.616 57.82 15.162 86.81 22.636 29 7.47 58.06 14.875 87.09 22.18 58.09 14.619 116.4 28.945 174.92 42.975a16248 16248 0 0 0 176.2 41.202zM1791.42 1027.31h-35.45l-4.05-5.58c-52.77-72.283-107.34-143.958-163.67-214.988a7274 7274 0 0 0 46.38 51.93 7096 7096 0 0 0 47.03 51.679 7700 7700 0 0 0 95.98 102.549c4.59 4.81 9.18 9.61 13.78 14.41M1507.29 1027.3h-46.61c-2.85-16.7-5.78-33.386-8.81-50.064-3.59-19.766-7.3-39.518-11.14-59.256a4719 4719 0 0 0-11.92-59.28 4905 4905 0 0 0-55.19-236.231 5287 5287 0 0 0 17.1 58.748l8.82 29.318 8.99 29.271a5127 5127 0 0 0 37.87 116.905 5149 5149 0 0 0 40.9 116.598 5173 5173 0 0 0 19.99 53.991M1261.3 612.773a6709 6709 0 0 0-80.87 107.746 6677 6677 0 0 0-39.44 54.213 6641 6641 0 0 0-38.68 54.348c-46.19 65.6-90.91 131.681-134.113 198.23h-63.674c62.352-67.213 122.957-134.992 181.817-203.314a7370 7370 0 0 0 44.72-52.42l22.13-26.321 21.96-26.393a6964 6964 0 0 0 86.15-106.089M1263.08 842.262a4834 4834 0 0 0-31.32 185.048h-21.06c6.81-22.43 13.46-44.861 19.94-67.331 11.32-39.2 22.13-78.441 32.44-117.717M970.051 748.934c-85.576 57.963-169.758 116.853-252.51 176.651a9815 9815 0 0 0-138.217 101.725h-86.16c21.268-11.73 42.465-23.52 63.592-35.355q70.47-39.47 139.858-79.619a11317 11317 0 0 0 137.702-80.965l34.115-20.471 34.012-20.573a11081 11081 0 0 0 67.608-41.393M1179.28 561.223a14503 14503 0 0 0-328.756 114.539 14262 14262 0 0 0-81.349 29.726l-40.498 15.01-40.374 15.107a13949 13949 0 0 0-160.622 61.5 13820 13820 0 0 0-159.191 63.217 13595 13595 0 0 0-79.046 32.248l-39.339 16.267-39.214 16.36A13433 13433 0 0 0-14 1021.86V893.796c407.616-96.504 806.247-207.635 1193.28-332.573M1162.59 489.779c-30.89-2.97-61.8-5.86-92.74-8.668l-46.4-4.155-46.376-4.024a17915.375 17915.375 0 0 0-465.469-33.663l-46.714-2.711-46.664-2.58A18165 18165 0 0 0-14 415.828v-91.555q38.939 6.853 77.935 13.536c30.181 5.17 60.384 10.257 90.614 15.269a17182.616 17182.616 0 0 0 273.214 43.009 17325 17325 0 0 0 182.806 26.279q45.759 6.327 91.584 12.416l45.89 6.037 45.955 5.924a17574 17574 0 0 0 368.592 43.036M819.27 563.418a17487 17487 0 0 0-367.665 46.598l-45.83 6.365-45.765 6.479a17237.061 17237.061 0 0 0-273.615 41.358A17312 17312 0 0 0-14 680.527v-64.771c29.12-1.15 58.222-2.373 87.315-3.661l46.756-2.135 46.8-2.262a18075 18075 0 0 0 93.53-4.887 17975.868 17975.868 0 0 0 372.92-24.324l46.475-3.582 46.513-3.706q46.517-3.771 92.961-7.781M870.361 355.663C581.498 265.884 286.356 183.709-14 109.471V14.773l1.961.84q39.08 16.62 78.347 33.031a13777 13777 0 0 0 157.805 64.785 13916 13916 0 0 0 159.256 63.079l40.038 15.5 40.162 15.407a14282 14282 0 0 0 80.671 30.518 14339 14339 0 0 0 326.121 117.73M1214.1 427.344c-22.11-14.06-44.32-28.068-66.61-42.021l-33.52-20.888-33.62-20.785a11161 11161 0 0 0-135.724-82.236 11369 11369 0 0 0-137.908-80.897 11256 11256 0 0 0-69.758-39.942 11544 11544 0 0 0-70.251-39.58A11811 11811 0 0 0 465.594-8.816h135.534a9553 9553 0 0 0 108.88 82.685c81.078 60.672 163.575 120.428 247.552 179.314a10322 10322 0 0 0 256.54 174.161M1312.64 395.536A4950 4950 0 0 0 1283 277.553a4998 4998 0 0 0-32.6-117.531 5073 5073 0 0 0-52.25-168.838h46.06c7 55.798 14.98 111.507 23.96 167.132a4842 4842 0 0 0 44.47 237.22M1106.42 207.373a7181 7181 0 0 0-88.68-105.276L995.141 75.91l-22.753-26.117a7340 7340 0 0 0-45.982-52.006 4341 4341 0 0 0-5.906-6.603h33.167a6411 6411 0 0 0 74.413 107.649 6592 6592 0 0 0 78.34 108.54M1494.64-8.816a5118 5118 0 0 0-23.87 69.502l-9.69 29.191-9.52 29.24a5141 5141 0 0 0-18.48 58.592c14.6-62.022 27.97-124.2 40.1-186.525zM1807.91-8.816l-3.99 4.02a7312 7312 0 0 0-49.75 50.652 7559 7559 0 0 0-49.12 50.918 7627 7627 0 0 0-96.21 102.517 7505 7505 0 0 0-93.51 103.415 7357 7357 0 0 0-45.78 52.107 6963 6963 0 0 0-45.14 52.358c57.99-70.463 114.23-141.578 168.68-213.319l20.32-26.905 20.13-26.939a6530 6530 0 0 0 39.76-54.047A6498 6498 0 0 0 1741-8.816zM2695.28 30.922v122.3a16386 16386 0 0 0-151.73 33.698 16095.464 16095.464 0 0 0-176.25 41.068 16069 16069 0 0 0-175.07 42.861 15735 15735 0 0 0-173.77 44.629c-28.83 7.577-57.7 15.255-86.5 23.002-28.79 7.746-57.54 15.566-86.23 23.457a15386 15386 0 0 0-341.47 98.183 14714.992 14714.992 0 0 0 167.52-53.333 14601 14601 0 0 0 166.22-55.09 14575 14575 0 0 0 164.93-56.852c27.4-9.629 54.64-19.299 81.85-29.052 27.22-9.75 54.37-19.576 81.48-29.471 108.4-39.587 215.9-80.334 322.45-122.227 26.67-10.479 53.15-20.996 79.63-31.595 26.46-10.6 52.86-21.268 79.21-32.01 15.93-6.496 31.84-13.016 47.73-19.568M2241.52-8.816c-7.69 3.975-15.37 7.96-23.05 11.95l-36.24 18.926-36.18 19.047a11959 11959 0 0 0-143.42 77.077 11752 11752 0 0 0-141.32 78.458 11448 11448 0 0 0-139.26 79.878c144.72-92.587 285.93-187.834 422.99-285.336zM2695.25 363.805v63.869c-27.78.594-55.56 1.254-83.32 1.976q-46.83 1.218-93.63 2.673l-23.4.743-23.44.777-46.85 1.647a18116 18116 0 0 0-373.97 17.48 18321 18321 0 0 0-93.23 5.567l-46.58 2.963-46.63 3.095a17664 17664 0 0 0 369.49-39.856c30.74-3.644 61.45-7.367 92.15-11.17 30.7-3.799 61.42-7.688 92-11.639 61.21-7.912 122.35-16.146 183.41-24.697 31.36-4.39 62.69-8.866 94-13.428"/></g></svg>