<svg xmlns="http://www.w3.org/2000/svg" width="356" height="98" fill="none"><g filter="url(#a)"><mask id="b" width="356" height="86" x="-.5" y=".184" fill="#000" maskUnits="userSpaceOnUse"><path fill="#fff" d="M-.5.184h356v86H-.5z"/><path fillRule="evenodd" d="M348.151 3.184 323.569 22.17 351 43.357v1.47l-27.431 21.186 22.231 17.17H2.5v-80z" clipRule="evenodd"/></mask><path fill="#fff" fillRule="evenodd" d="M348.151 3.184 323.569 22.17 351 43.357v1.47l-27.431 21.186 22.231 17.17H2.5v-80z" clipRule="evenodd"/><path fill="#fff" d="m323.569 22.17-1.5-1.943-2.516 1.943 2.516 1.943zm24.582-18.986 1.5 1.943 5.695-4.399h-7.195zM351 43.357h2.455V42.15l-.954-.738zm0 1.47 1.501 1.943.954-.738v-1.205zm-27.431 21.186-1.5-1.943-2.516 1.943 2.516 1.944zm22.231 17.17v2.456h7.195L347.3 81.24zm-343.3 0H.045v2.456H2.5zm0-80V.729H.045v2.456zm322.57 20.93 24.581-18.986-3.001-3.887-24.581 18.987zm27.431 17.3L325.07 20.227l-3.001 3.886 27.43 21.187zm.954 3.414v-1.47h-4.91v1.47zm-28.385 23.13 27.431-21.187-3.002-3.887-27.43 21.187zM347.3 81.24l-22.23-17.17-3.001 3.886 22.23 17.17zM2.5 85.639h343.3v-4.91H2.5zM.045 3.184v80h4.91v-80zM348.15.728H2.5v4.91h345.651z" mask="url(#b)"/></g><defs><filter id="a" width="355.301" height="96.914" x=".045" y=".727" color-interpolation-filters="sRGB" filterUnits="userSpaceOnUse"><feFlood flood-opacity="0" result="BackgroundImageFix"/><feColorMatrix in="SourceAlpha" result="hardAlpha" values="0 0 0 0 0 0 0 0 0 0 0 0 0 0 0 0 0 0 127 0"/><feOffset dy="12"/><feComposite in2="hardAlpha" operator="out"/><feColorMatrix values="0 0 0 0 0 0 0 0 0 0 0 0 0 0 0 0 0 0 1 0"/><feBlend in2="BackgroundImageFix" result="effect1_dropShadow_4477_45270"/><feBlend in="SourceGraphic" in2="effect1_dropShadow_4477_45270" result="shape"/></filter></defs></svg>