<svg width="410" height="1481" viewBox="0 0 410 1481" fill="none" xmlns="http://www.w3.org/2000/svg">
<g opacity="0.3">
<path d="M279.018 -363.646L344.4 -363.646C341.741 -346.611 339.117 -329.565 336.528 -312.506C323.174 -224.488 310.735 -136.16 299.231 -47.6643C293.476 -3.41037 287.954 40.8944 282.666 85.2462C280.024 107.401 277.428 129.661 274.894 151.897C272.357 174.142 269.88 196.398 267.464 218.662C257.789 307.722 249.044 396.955 241.227 486.324L243.788 452.674L246.252 419.07C247.865 396.661 249.421 374.236 250.918 351.8C253.917 306.923 256.683 261.992 259.22 217.013C261.754 172.031 264.061 126.997 266.133 81.9168L267.646 48.0977L268.37 31.1842L269.067 14.2981C269.983 -8.22052 270.842 -30.751 271.643 -53.2892C274.849 -143.446 277.128 -233.771 278.486 -324.23C278.684 -337.363 278.861 -350.505 279.018 -363.646Z" fill="black"/>
<path d="M603.982 -67.0866L603.982 40.5986C602.758 42.2711 601.535 43.9437 600.312 45.6202C578.604 75.3656 557.06 105.37 535.684 135.632C450.241 256.561 367.141 382.053 286.914 511.273C306.677 478.367 326.199 445.339 345.59 411.994C364.974 378.661 384.195 345.069 403.25 311.222C422.307 277.376 441.196 243.274 459.918 208.923L473.927 183.11L487.848 157.25C497.106 139.98 506.321 122.647 515.496 105.252C545.446 48.4639 574.943 -8.98622 603.982 -67.0866Z" fill="black"/>
<path d="M497.622 -363.662L562.634 -363.662C541.617 -310.799 520.998 -257.614 500.77 -204.112C493.425 -184.68 486.13 -165.205 478.887 -145.69C471.644 -126.172 464.461 -106.634 457.306 -86.983C443.008 -47.7115 428.919 -8.27539 415.043 31.3173C401.167 70.91 387.503 110.66 374.051 150.562C367.327 170.515 360.654 190.503 354.035 210.53C347.414 230.558 340.853 250.613 334.324 270.773C358.032 188.572 380.906 105.697 402.937 22.1791C408.442 1.30166 413.897 -19.6189 419.3 -40.5786C424.7 -61.5383 430.053 -82.5489 435.333 -103.528C445.901 -145.526 456.257 -187.676 466.399 -229.98C476.543 -272.287 486.469 -314.743 496.184 -357.348C496.663 -359.451 497.142 -361.559 497.622 -363.662Z" fill="black"/>
<path d="M603.993 655.107L603.993 688.796C591.922 690.857 579.858 692.98 567.802 695.169C553.514 697.762 539.236 700.446 524.967 703.219C510.682 705.996 496.388 708.875 482.115 711.836C425.015 723.693 368.084 736.991 311.348 751.73C325.511 747.704 339.667 743.583 353.815 739.376L375.009 732.999L396.168 726.497C424.373 717.735 452.545 708.609 480.677 699.122C508.812 689.631 536.906 679.776 564.963 669.56C577.983 664.821 590.991 660.003 603.993 655.107Z" fill="black"/>
<path d="M304.34 832.927C330.192 852.739 356.155 872.23 382.227 891.392C395.262 900.973 408.325 910.475 421.417 919.895C434.507 929.312 447.579 938.619 460.704 947.863C508.125 981.251 555.893 1013.57 603.999 1044.81L603.999 1090.84C555.414 1045.76 506.418 1001.95 457.029 959.406C444.424 948.548 431.793 937.772 419.135 927.079L400.108 911.082L381.029 895.203C355.566 874.11 330 853.35 304.34 832.927Z" fill="black"/>
<path d="M402.766 1043.47C444.667 1105.33 487.237 1166.18 530.464 1226C554.776 1259.64 579.285 1292.95 603.999 1325.92L603.999 1388.2C595.516 1372.83 586.995 1357.5 578.441 1342.23C559.419 1308.27 540.235 1274.57 520.886 1241.13C501.538 1207.69 482.029 1174.51 462.358 1141.59L447.56 1116.93L432.688 1092.34C422.754 1075.98 412.78 1059.69 402.766 1043.47Z" fill="black"/>
<path d="M267.07 892.221C293.827 972.077 321.43 1051.31 349.869 1129.87C356.979 1149.52 364.142 1169.12 371.357 1188.68L382.208 1217.95L393.128 1247.14C407.738 1286.01 422.558 1324.72 437.586 1363.25C452.613 1401.78 467.845 1440.14 483.284 1478.33C491.004 1497.42 498.773 1516.46 506.595 1535.47L518.354 1563.9L530.181 1592.25C553.05 1646.82 576.344 1701.01 600.059 1754.82L507.481 1754.82C437.72 1460.16 357.386 1172 267.07 892.221Z" fill="black"/>
<path d="M215.423 904.282C213.275 926.612 211.186 948.959 209.156 971.325L206.153 1004.87L203.244 1038.39C199.424 1083.1 195.834 1127.87 192.473 1172.71C189.113 1217.54 185.982 1262.44 183.084 1307.4C181.633 1329.87 180.242 1352.36 178.909 1374.87L176.949 1408.64L175.084 1442.37C170.233 1532.32 166.301 1622.49 163.295 1712.82C162.828 1726.81 162.387 1740.82 161.965 1754.82L95.7812 1754.82C99.0843 1736.05 102.345 1717.28 105.566 1698.48C109.303 1676.67 112.981 1654.83 116.603 1632.98C120.228 1611.1 123.801 1589.18 127.311 1567.25C134.337 1523.39 141.133 1479.47 147.694 1435.48C154.257 1391.49 160.589 1347.44 166.691 1303.33C169.739 1281.28 172.733 1259.21 175.666 1237.13L180.03 1203.95L184.312 1170.73C195.609 1082.12 205.98 993.291 215.423 904.282Z" fill="black"/>
<path d="M268.652 1152.46C278.953 1241.26 290.181 1329.86 302.337 1418.24L306.938 1451.37L311.622 1484.46C314.77 1506.48 317.976 1528.49 321.241 1550.48C327.77 1594.46 334.529 1638.39 341.519 1682.25C345.379 1706.46 349.309 1730.65 353.308 1754.82L306.486 1754.82C305.655 1733.77 304.771 1712.73 303.84 1691.7L302.297 1657.9L300.662 1624.07C299.541 1601.52 298.365 1578.98 297.129 1556.46C294.66 1511.42 291.961 1466.43 289.03 1421.5C286.099 1376.57 282.936 1331.69 279.545 1286.88L276.956 1253.29L274.277 1219.66C272.46 1197.25 270.585 1174.85 268.652 1152.46Z" fill="black"/>
<path d="M118.474 1115.53C53.5737 1324.35 -5.82878 1537.7 -59.494 1754.82L-127.949 1754.82L-127.343 1753.4C-119.333 1734.57 -111.374 1715.69 -103.465 1696.77C-87.651 1658.92 -72.0396 1620.89 -56.6328 1582.69C-41.2286 1544.49 -26.0291 1506.12 -11.0343 1467.57L0.170625 1438.63L11.3081 1409.59C18.7131 1390.2 26.0657 1370.76 33.3684 1351.28C62.574 1273.35 90.9458 1194.76 118.474 1115.53Z" fill="black"/>
<path d="M170.293 867.054C160.129 883.036 150.003 899.087 139.916 915.206L124.816 939.432L109.792 963.737C89.8161 996.177 70.0003 1028.88 50.3443 1061.85C30.6908 1094.82 11.197 1128.05 -8.13441 1161.54C-17.8014 1178.29 -27.4259 1195.09 -37.008 1211.97C-46.5901 1228.84 -56.1447 1245.79 -65.6195 1262.75C-92.4109 1310.7 -118.875 1359.17 -145 1408.13L-145 1310.16C-124.945 1284.14 -105.021 1257.9 -85.228 1231.45C-41.3696 1172.84 1.82715 1113.2 44.3948 1052.5C87.0274 991.7 128.998 929.879 170.293 867.054Z" fill="black"/>
<path d="M147.299 795.816C118.844 802.593 90.4152 809.737 62.011 817.246C33.6418 824.743 5.34241 832.589 -22.9495 840.807C-63.6996 852.644 -104.387 865.237 -145 878.582L-145 845.288C-104.664 840.227 -64.3936 834.453 -24.1828 827.963C33.13 818.695 90.2979 807.979 147.299 795.816Z" fill="black"/>
<path d="M11.2794 944.89C-14.1863 965.924 -39.5546 987.295 -64.823 1009L-83.7525 1025.33L-102.632 1041.78C-115.19 1052.78 -127.721 1063.86 -140.226 1075.02C-141.819 1076.44 -143.41 1077.86 -145 1079.29L-145 1055.31C-132.195 1046.65 -119.434 1037.93 -106.657 1029.1C-93.4719 1019.99 -80.3147 1010.8 -67.1823 1001.52C-40.9202 982.971 -14.7655 964.091 11.2794 944.89Z" fill="black"/>
<path d="M-145 437.792C-144.031 438.756 -143.063 439.719 -142.094 440.679C-129.943 452.728 -117.719 464.733 -105.478 476.645C-93.2372 488.56 -80.9688 500.397 -68.6704 512.148C-44.0785 535.658 -19.3743 558.838 5.43731 581.698C30.2489 604.553 55.1703 627.087 80.1941 649.293C92.6947 660.386 105.278 671.439 117.861 682.391C130.451 693.351 143.067 704.224 155.71 715.016C104.773 673.096 53.3652 632.442 1.50511 593.08L-17.9437 578.392L-37.4175 563.84C-50.4124 554.181 -63.4374 544.6 -76.4873 535.101C-99.2417 518.541 -122.078 502.226 -145 486.163L-145 437.792Z" fill="black"/>
<path d="M-116.273 -363.673L-27.8651 -363.673C-19.9033 -327.006 -11.7843 -290.441 -3.50543 -253.986C1.32307 -232.728 6.22146 -211.436 11.1698 -190.194C16.1206 -168.952 21.1239 -147.746 26.1821 -126.578C36.2959 -84.24 46.6245 -42.0581 57.1653 -0.0290603C67.7061 42 78.4591 83.8764 89.4269 125.588C94.9045 146.43 100.454 167.3 106.054 188.119C111.654 208.933 117.307 229.713 123.012 250.449C145.831 333.395 169.494 415.691 193.986 497.297C187.654 476.991 181.288 456.792 174.864 436.611C168.44 416.435 161.964 396.294 155.433 376.196C142.373 335.992 129.098 295.937 115.609 256.039C102.122 216.145 88.4232 176.403 74.512 136.818C67.5513 117.01 60.5608 97.3194 53.5103 77.6445C46.4623 57.9734 39.3593 38.3416 32.2064 18.749C3.59 -59.61 -25.8653 -137.323 -56.1495 -214.346C-63.7243 -233.621 -71.3265 -252.768 -78.9887 -271.906C-86.6509 -291.036 -94.363 -310.124 -102.128 -329.168C-106.824 -340.684 -111.537 -352.188 -116.273 -363.673Z" fill="black"/>
<path d="M-145 104.347C-142.126 109.906 -139.245 115.46 -136.362 121.006L-122.68 147.207L-108.911 173.36C-90.5059 208.171 -71.9335 242.726 -53.1937 277.035C-34.454 311.34 -15.5494 345.39 3.52236 379.189C22.6017 412.997 41.8083 446.491 61.2646 479.863C-5.66526 375.249 -74.5175 273.165 -145 174.089L-145 104.347Z" fill="black"/>
<path d="M124.363 -363.648L170.534 -363.648C170.963 -343.562 171.44 -323.483 171.962 -303.413C172.548 -280.843 173.192 -258.281 173.894 -235.728L174.431 -218.818L174.993 -201.873L176.183 -168.003C177.826 -122.852 179.701 -77.7483 181.808 -32.6914C183.916 12.3694 186.252 57.3792 188.819 102.334C190.105 124.814 191.445 147.278 192.843 169.73L194.986 203.4L197.223 237.109C188.549 147.92 178.945 58.8715 168.411 -29.9928C165.777 -52.2098 163.086 -74.415 160.337 -96.6086C157.591 -118.794 154.78 -141.004 151.924 -163.107C146.204 -207.357 140.252 -251.552 134.07 -295.696C130.897 -318.36 127.661 -341.012 124.363 -363.648Z" fill="black"/>
</g>
</svg>
