<svg width="13" height="9" viewBox="0 0 13 9" fill="none" xmlns="http://www.w3.org/2000/svg">
<path d="M12.037 4.58772C12.037 4.76854 11.9652 4.94195 11.8373 5.06981C11.7094 5.19768 11.536 5.26954 11.3552 5.26954H1.35516C1.17433 5.26954 1.0009 5.19768 0.87304 5.06981C0.745172 4.94195 0.67334 4.76854 0.67334 4.58772C0.67334 4.4069 0.745172 4.23345 0.87304 4.10559C1.0009 3.97772 1.17433 3.9059 1.35516 3.9059H11.3552C11.536 3.9059 11.7094 3.97772 11.8373 4.10559C11.9652 4.23345 12.037 4.4069 12.037 4.58772ZM1.35516 1.63318H11.3552C11.536 1.63318 11.7094 1.56131 11.8373 1.43347C11.9652 1.3056 12.037 1.13218 12.037 0.951349C12.037 0.770518 11.9652 0.597095 11.8373 0.469231C11.7094 0.341363 11.536 0.269531 11.3552 0.269531H1.35516C1.17433 0.269531 1.0009 0.341363 0.87304 0.469231C0.745172 0.597095 0.67334 0.770518 0.67334 0.951349C0.67334 1.13218 0.745172 1.3056 0.87304 1.43347C1.0009 1.56131 1.17433 1.63318 1.35516 1.63318ZM11.3552 7.54227H1.35516C1.17433 7.54227 1.0009 7.61409 0.87304 7.74195C0.745172 7.86981 0.67334 8.04327 0.67334 8.22409C0.67334 8.4049 0.745172 8.57831 0.87304 8.70618C1.0009 8.83404 1.17433 8.9059 1.35516 8.9059H11.3552C11.536 8.9059 11.7094 8.83404 11.8373 8.70618C11.9652 8.57831 12.037 8.4049 12.037 8.22409C12.037 8.04327 11.9652 7.86981 11.8373 7.74195C11.7094 7.61409 11.536 7.54227 11.3552 7.54227Z" fill="#00B68B"/>
</svg>
