<svg width="13" height="14" viewBox="0 0 13 14" fill="none" xmlns="http://www.w3.org/2000/svg">
<path d="M11.6562 2.34375H6.96875V1.40625C6.96875 1.28193 6.91936 1.1627 6.83146 1.07479C6.74355 0.986886 6.62432 0.9375 6.5 0.9375C6.37568 0.9375 6.25645 0.986886 6.16854 1.07479C6.08064 1.1627 6.03125 1.28193 6.03125 1.40625V2.34375H1.34375C1.09511 2.34375 0.856653 2.44252 0.680837 2.61834C0.505022 2.79415 0.40625 3.03261 0.40625 3.28125V10.3125C0.40625 10.5611 0.505022 10.7996 0.680837 10.9754C0.856653 11.1512 1.09511 11.25 1.34375 11.25H3.65L2.38379 12.832C2.30609 12.9292 2.27015 13.0532 2.28389 13.1768C2.29763 13.3004 2.35991 13.4135 2.45703 13.4912C2.55416 13.5689 2.67817 13.6048 2.80179 13.5911C2.92541 13.5774 3.03851 13.5151 3.11621 13.418L4.85 11.25H8.15L9.88379 13.418C9.92226 13.4661 9.96983 13.5061 10.0238 13.5358C10.0777 13.5655 10.137 13.5843 10.1982 13.5911C10.2594 13.5979 10.3214 13.5926 10.3805 13.5754C10.4397 13.5583 10.4949 13.5297 10.543 13.4912C10.5911 13.4527 10.6311 13.4052 10.6608 13.3512C10.6905 13.2973 10.7093 13.238 10.7161 13.1768C10.7229 13.1156 10.7176 13.0536 10.7004 12.9945C10.6833 12.9353 10.6547 12.8801 10.6162 12.832L9.35 11.25H11.6562C11.9049 11.25 12.1433 11.1512 12.3192 10.9754C12.495 10.7996 12.5938 10.5611 12.5938 10.3125V3.28125C12.5938 3.03261 12.495 2.79415 12.3192 2.61834C12.1433 2.44252 11.9049 2.34375 11.6562 2.34375Z" fill="white"/>
</svg>
