<svg width="34" height="27" viewBox="0 0 34 27" fill="none" xmlns="http://www.w3.org/2000/svg">
<path d="M28.8012 2.2613C26.5714 1.19104 24.2125 0.430568 21.7868 0C21.4847 0.560385 21.1316 1.31411 20.8882 1.91373C18.2729 1.5103 15.6816 1.5103 13.1143 1.91373C12.871 1.31424 12.51 0.560385 12.2051 0C9.77697 0.430767 7.41605 1.19317 5.18525 2.26688C0.746131 9.1486 -0.457283 15.8592 0.144358 22.4748C3.08868 24.7304 5.94202 26.1006 8.74728 26.9973C9.44446 26.0137 10.0608 24.9724 10.5898 23.8842C9.58258 23.4908 8.61159 23.006 7.68837 22.4356C7.93132 22.2508 8.16856 22.0583 8.39971 21.8583C13.994 24.5426 20.0726 24.5426 25.6003 21.8583C25.8324 22.057 26.0696 22.2495 26.3115 22.4356C25.3868 23.0075 24.414 23.4933 23.4047 23.887C23.9368 24.9797 24.552 26.022 25.2472 27C28.0552 26.1035 30.9112 24.7333 33.8555 22.4748C34.5615 14.8057 32.6495 8.15672 28.8012 2.2613ZM11.352 18.4063C9.67259 18.4063 8.29532 16.7979 8.29532 14.8394C8.29532 12.8808 9.64324 11.2697 11.352 11.2697C13.0609 11.2697 14.438 12.878 14.4087 14.8394C14.4113 16.7979 13.0609 18.4063 11.352 18.4063ZM22.6478 18.4063C20.9684 18.4063 19.5913 16.7979 19.5913 14.8394C19.5913 12.8808 20.9391 11.2697 22.6478 11.2697C24.3567 11.2697 25.7339 12.878 25.7045 14.8394C25.7045 16.7979 24.3567 18.4063 22.6478 18.4063Z" fill="#5865F2"/>
</svg>
