<svg width="277" height="2077" viewBox="0 0 277 2077" fill="none" xmlns="http://www.w3.org/2000/svg">
<path d="M1407 0H0V5.68201H14.6562L7.7385 20.3416H0V26.0236H5.0652L0 36.8194V42.956L7.973 26.0236H32.4314L21.5975 50.0017H0V55.6837H19.0414L6.54255 83.2982H0V88.9802H3.96305L0 97.7305V103.981L6.8005 88.9802H32.5017L18.1034 122.163H0V127.845H15.6412L0 163.869V170.119L18.3613 127.845H44.9067L27.2724 170.233H0V175.915H24.9039L2.64985 229.553H0V235.235H0.30485L0 235.917V242.281L2.93125 235.235H31.5403L7.33985 296.146H0V301.828H5.08865L0 314.67V321.033L7.62125 301.828H37.5434L10.9746 372.058H0V377.74H8.8172L0 401.036V407.514L11.2795 377.74H42.7024L14.0935 457.174H0V462.856H12.0299L0 496.267V502.858L14.3983 462.856H47.4863L15.8991 555.359H0V561.041H13.9762L0 601.952V608.543L16.2274 561.041H51.2148L18.3613 662.636H0V668.318H16.5323L0 719.456V726.274L18.7131 668.318H55.7641L21.4099 781.162H0V786.844H19.6746L0 851.392V858.21L21.7616 786.844H61.0872L25.6309 910.712H0V916.394H24.0128L0 1000.26V1007.31L26.0061 916.394H67.8174L32.6659 1047.76H0V1053.44H31.1416L0 1169.7V1176.86L33.0645 1053.44H77.5023L41.5299 1197.65H0V1203.34H40.123L1.85255 1356.86H0V1362.55H0.4221L0 1364.25V1371.64L2.27465 1362.55H52.4811L14.0465 1529.03H0V1534.71H12.7333L0 1589.83V1597.55L14.5156 1534.71H67.9816L30.274 1712.22H0V1717.9H29.0546L0 1854.83V1862.68L30.743 1717.9H87.6796L51.0976 1906.65H0V1912.34H49.9954L18.1503 2076.43H19.7684L51.59 1912.34H112.185L83.4117 2076.43H84.9359L113.732 1912.34H174.374L148.626 2076.43H150.08L175.852 1912.34H236.564L213.841 2076.43H215.271L237.994 1912.34H298.753L279.055 2076.43H280.415L300.113 1912.34H360.942L344.269 2076.43H345.583L362.256 1912.34H423.132L409.507 2076.43H410.774L424.398 1912.34H485.321L474.698 2076.43H475.918L486.541 1912.34H547.487L539.913 2076.43H541.132L548.683 1912.34H609.653L605.104 2076.43H606.3L610.849 1912.34H671.843L670.318 2076.43H671.491L673.015 1912.34H733.985L735.509 2076.43H736.682L735.158 1912.34H796.151L800.7 2076.43H801.896L797.347 1912.34H858.317L865.868 2076.43H867.087L859.513 1912.34H920.459L931.082 2076.43H932.302L921.679 1912.34H982.602L996.226 2076.43H997.493L983.868 1912.34H1044.74L1061.42 2076.43H1062.73L1046.06 1912.34H1106.89L1126.58 2076.43H1127.95L1108.25 1912.34H1169.01L1191.73 2076.43H1193.16L1170.44 1912.34H1231.15L1256.92 2076.43H1258.37L1232.63 1912.34H1293.27L1322.06 2076.43H1323.59L1294.82 1912.34H1355.41L1387.23 2076.43H1388.85L1357 1912.34H1407V1906.65H1355.9L1319.32 1717.9H1376.26L1407 1862.68V1854.83L1377.95 1717.9H1407V1712.22H1376.73L1339.02 1534.71H1392.48L1407 1597.55V1589.83L1394.27 1534.71H1407V1529.03H1392.95L1354.52 1362.55H1404.73L1407 1371.64V1364.25L1406.58 1362.55H1407V1356.86H1405.15L1366.88 1203.34H1407V1197.65H1365.47L1329.5 1053.44H1373.94L1407 1176.86V1169.7L1375.86 1053.44H1407V1047.76H1374.33L1339.18 916.394H1380.99L1407 1007.31V1000.26L1382.99 916.394H1407V910.712H1381.37L1345.91 786.844H1385.24L1407 858.21V851.392L1387.33 786.844H1407V781.162H1385.59L1351.24 668.318H1388.29L1407 726.274V719.456L1390.47 668.318H1407V662.636H1388.64L1355.79 561.041H1390.77L1407 608.543V601.952L1393.02 561.041H1407V555.359H1391.1L1359.51 462.856H1392.6L1407 502.858V496.267L1394.97 462.856H1407V457.174H1392.91L1364.3 377.74H1395.72L1407 407.514V401.036L1398.18 377.74H1407V372.058H1396.03L1369.46 301.828H1399.38L1407 321.033V314.67L1401.91 301.828H1407V296.146H1399.66L1375.46 235.235H1404.07L1407 242.281V235.917L1406.7 235.235H1407V229.553H1404.35L1382.1 175.915H1407V170.233H1379.73L1362.09 127.845H1388.64L1407 170.119V163.869L1391.36 127.845H1407V122.163H1388.9L1374.5 88.9802H1400.2L1407 103.981V97.7305L1403.04 88.9802H1407V83.2982H1400.46L1387.96 55.6837H1407V50.0017H1385.38L1374.57 26.0236H1399.03L1407 42.956V36.8194L1401.93 26.0236H1407V20.3416H1399.26L1392.34 5.68201H1407V0ZM1362.52 5.68201L1369.18 20.3416H1344.72L1338.34 5.68201H1362.52ZM579.356 457.174H545.306L551.919 377.74H584.491L579.356 457.174ZM585.711 377.74H618.33L614.671 457.174H580.575L585.711 377.74ZM403.34 462.856H437.296L424.492 555.359H388.848L403.34 462.856ZM387.371 555.359H351.773L367.977 462.856H401.863L387.371 555.359ZM438.703 462.856H472.729L461.637 555.359H425.922L438.703 462.856ZM474.089 462.856H508.161L498.758 555.359H462.997L474.089 462.856ZM509.451 462.856H543.571L535.879 555.359H500.071L509.451 462.856ZM544.837 462.856H578.98L573.024 555.359H537.146L544.837 462.856ZM544.04 457.174H510.038L518.104 377.74H550.653L544.04 457.174ZM508.724 457.174H474.769L484.313 377.74H516.791L508.724 457.174ZM473.409 457.174H439.5L450.498 377.74H482.953L473.409 457.174ZM438.093 457.174H404.231L416.707 377.74H449.091L438.093 457.174ZM402.754 457.174H368.986L382.915 377.74H415.229L402.754 457.174ZM367.438 457.174H333.717L349.124 377.74H381.367L367.438 457.174ZM332.099 457.174H298.448L315.332 377.74H347.506L332.099 457.174ZM332.615 462.856H366.43L350.226 555.359H314.699L332.615 462.856ZM350.765 561.041H386.479L370.51 662.636H332.92L350.765 561.041ZM387.933 561.041H423.718L409.625 662.636H371.987L387.933 561.041ZM425.125 561.041H460.957L448.739 662.636H411.055L425.125 561.041ZM462.317 561.041H498.195L487.854 662.636H450.099L462.317 561.041ZM499.485 561.041H535.41L526.968 662.636H489.167L499.485 561.041ZM536.677 561.041H572.649L566.083 662.636H528.235L536.677 561.041ZM573.868 561.041H609.864L605.174 662.636H567.302L573.868 561.041ZM574.244 555.359L580.223 462.856H614.39L610.146 555.359H574.244ZM615.609 462.856H649.799L647.243 555.359H611.342L615.609 462.856ZM650.995 462.856H685.209L684.365 555.359H648.439L650.995 462.856ZM649.964 457.174H615.867L619.526 377.74H652.168L649.964 457.174ZM618.588 372.058H586.086L590.635 301.828H621.847L618.588 372.058ZM584.866 372.058H552.388L558.227 301.828H589.392L584.866 372.058ZM551.122 372.058H518.691L525.819 301.828H556.961L551.122 372.058ZM517.377 372.058H484.993L493.411 301.828H524.506L517.377 372.058ZM483.633 372.058H451.295L461.027 301.828H492.051L483.633 372.058ZM449.888 372.058H417.598L428.619 301.828H459.597L449.888 372.058ZM416.12 372.058H383.9L396.235 301.828H427.142L416.12 372.058ZM382.376 372.058H350.226L363.827 301.828H394.687L382.376 372.058ZM348.608 372.058H316.552L331.442 301.828H362.232L348.608 372.058ZM314.863 372.058H282.854L299.058 301.828H329.754L314.863 372.058ZM281.095 372.058H249.18L266.673 301.828H297.299L281.095 372.058ZM281.541 377.74H313.644L296.783 457.174H263.203L281.541 377.74ZM297.252 462.856H330.997L313.081 555.359H277.625L297.252 462.856ZM313.597 561.041H349.217L331.395 662.636H293.875L313.597 561.041ZM331.935 668.318H369.619L351.914 781.162H312.143L331.935 668.318ZM371.096 668.318H408.851L393.233 781.162H353.392L371.096 668.318ZM410.258 668.318H448.059L434.529 781.162H394.64L410.258 668.318ZM449.419 668.318H487.291L475.824 781.162H435.889L449.419 668.318ZM488.581 668.318H526.499L517.119 781.162H477.137L488.581 668.318ZM527.766 668.318H565.708L558.415 781.162H518.386L527.766 668.318ZM566.951 668.318H604.916L599.71 781.162H559.658L566.951 668.318ZM606.112 668.318H644.125L641.006 781.162H600.906L606.112 668.318ZM606.37 662.636L611.084 561.041H647.103L644.265 662.636H606.37ZM648.275 561.041H684.318L683.38 662.636H645.461L648.275 561.041ZM684.482 668.318H722.518L723.55 781.162H683.45L684.482 668.318ZM863.429 462.856H897.549L906.929 555.359H871.121L863.429 462.856ZM869.854 555.359H833.976L828.02 462.856H862.163L869.854 555.359ZM898.839 462.856H932.911L944.003 555.359H908.242L898.839 462.856ZM934.271 462.856H968.274L981.078 555.359H945.363L934.271 462.856ZM969.704 462.856H1003.66L1018.18 555.359H982.508L969.704 462.856ZM1005.14 462.856H1039.02L1055.23 555.359H1019.63L1005.14 462.856ZM1025.63 377.74H1057.88L1073.28 457.174H1039.56L1025.63 377.74ZM1038.01 457.174H1004.25L991.771 377.74H1024.08L1038.01 457.174ZM1002.77 457.174H968.907L957.909 377.74H990.293L1002.77 457.174ZM967.5 457.174H933.591L924.047 377.74H956.502L967.5 457.174ZM932.231 457.174H898.276L890.209 377.74H922.687L932.231 457.174ZM896.963 457.174H862.96L856.347 377.74H888.896L896.963 457.174ZM861.694 457.174H827.644L822.509 377.74H855.081L861.694 457.174ZM826.425 457.174H792.329L788.67 377.74H821.289L826.425 457.174ZM795.659 555.359H759.757L757.201 462.856H791.391L795.659 555.359ZM792.61 462.856H826.777L832.756 555.359H796.878L792.61 462.856ZM833.132 561.041L839.698 662.636H801.826L797.136 561.041H833.132ZM834.351 561.041H870.323L878.765 662.636H840.917L834.351 561.041ZM871.59 561.041H907.515L917.833 662.636H880.032L871.59 561.041ZM908.805 561.041H944.683L956.901 662.636H919.146L908.805 561.041ZM946.043 561.041H981.875L995.945 662.636H958.261L946.043 561.041ZM983.282 561.041H1019.07L1035.01 662.636H997.375L983.282 561.041ZM1020.52 561.041H1056.23L1074.08 662.636H1036.49L1020.52 561.041ZM1040.57 462.856H1074.39L1092.3 555.359H1056.77L1040.57 462.856ZM1059.49 377.74H1091.67L1108.55 457.174H1074.9L1059.49 377.74ZM1077.25 301.828H1107.94L1124.15 372.058H1092.14L1077.25 301.828ZM1090.47 372.058H1058.39L1044.77 301.828H1075.56L1090.47 372.058ZM1056.77 372.058H1024.62L1012.31 301.828H1043.15L1056.77 372.058ZM1023.1 372.058H990.88L979.858 301.828H1010.77L1023.1 372.058ZM989.402 372.058H957.112L947.404 301.828H978.381L989.402 372.058ZM955.705 372.058H923.367L914.949 301.828H945.973L955.705 372.058ZM922.007 372.058H889.623L882.494 301.828H913.589L922.007 372.058ZM888.309 372.058H855.878L850.039 301.828H881.181L888.309 372.058ZM854.612 372.058H822.134L817.608 301.828H848.773L854.612 372.058ZM820.914 372.058H788.412L785.176 301.828H816.365L820.914 372.058ZM791.133 457.174H757.036L754.832 377.74H787.474L791.133 457.174ZM758.561 555.359H722.635L721.791 462.856H756.005L758.561 555.359ZM722.682 561.041H758.725L761.539 662.636H723.62L722.682 561.041ZM759.921 561.041H795.916L800.63 662.636H762.735L759.921 561.041ZM800.888 668.318L806.094 781.162H766.018L762.875 668.318H800.888ZM802.084 668.318H840.073L847.342 781.162H807.29L802.084 668.318ZM841.292 668.318H879.234L888.614 781.162H848.585L841.292 668.318ZM880.501 668.318H918.419L929.863 781.162H889.881L880.501 668.318ZM919.709 668.318H957.581L971.111 781.162H931.176L919.709 668.318ZM958.941 668.318H996.742L1012.36 781.162H972.472L958.941 668.318ZM998.149 668.318H1035.9L1053.61 781.162H1013.77L998.149 668.318ZM1037.38 668.318H1075.07L1094.86 781.162H1055.09L1037.38 668.318ZM1057.78 561.041H1093.4L1113.12 662.636H1075.6L1057.78 561.041ZM1076 462.856H1109.75L1129.38 555.359H1093.92L1076 462.856ZM1093.36 377.74H1125.46L1143.8 457.174H1110.22L1093.36 377.74ZM1109.7 301.828H1140.33L1157.82 372.058H1125.9L1109.7 301.828ZM1125.55 235.235H1154.87L1171.19 296.146H1140.75L1125.55 235.235ZM1138.92 296.146H1108.39L1094.32 235.235H1123.72L1138.92 296.146ZM1106.63 296.146H1076.03L1063.08 235.235H1092.56L1106.63 296.146ZM1074.34 296.146H1043.67L1031.85 235.235H1061.39L1074.34 296.146ZM1042.07 296.146H1011.3L1000.61 235.235H1030.25L1042.07 296.146ZM1009.78 296.146H978.967L969.4 235.235H999.087L1009.78 296.146ZM977.49 296.146H946.606L938.164 235.235H967.922L977.49 296.146ZM945.199 296.146H914.269L906.952 235.235H936.757L945.199 296.146ZM912.909 296.146H881.908L875.717 235.235H905.592L912.909 296.146ZM880.618 296.146H849.57L844.505 235.235H874.427L880.618 296.146ZM848.304 296.146H817.232L813.293 235.235H843.239L848.304 296.146ZM816.013 296.146H784.895L782.081 235.235H812.073L816.013 296.146ZM787.193 372.058H754.668L752.722 301.828H783.957L787.193 372.058ZM755.84 457.174H721.744L720.994 377.74H753.66L755.84 457.174ZM722.448 662.636H684.552L685.49 561.041H721.51L722.448 662.636ZM685.256 457.174H651.16L653.34 377.74H686.006L685.256 457.174ZM652.332 372.058H619.807L623.043 301.828H654.279L652.332 372.058ZM622.105 296.146H590.987L594.927 235.235H624.919L622.105 296.146ZM589.768 296.146H558.696L563.761 235.235H593.707L589.768 296.146ZM557.43 296.146H526.382L532.573 235.235H562.495L557.43 296.146ZM525.092 296.146H494.091L501.408 235.235H531.283L525.092 296.146ZM492.731 296.146H461.801L470.243 235.235H500.048L492.731 296.146ZM460.394 296.146H429.51L439.078 235.235H468.836L460.394 296.146ZM428.033 296.146H397.22L407.913 235.235H437.6L428.033 296.146ZM395.695 296.146H364.929L376.748 235.235H406.389L395.695 296.146ZM363.334 296.146H332.662L345.606 235.235H375.153L363.334 296.146ZM330.973 296.146H300.371L314.441 235.235H343.918L330.973 296.146ZM298.612 296.146H268.08L283.276 235.235H312.682L298.612 296.146ZM266.251 296.146H235.813L252.134 235.235H281.447L266.251 296.146ZM233.89 296.146H203.546L220.969 235.235H250.212L233.89 296.146ZM234.289 301.828H264.844L247.327 372.058H215.482L234.289 301.828ZM247.749 377.74H279.782L261.444 457.174H227.957L247.749 377.74ZM261.89 462.856H295.564L275.936 555.359H240.55L261.89 462.856ZM276.429 561.041H311.979L292.257 662.636H254.831L276.429 561.041ZM292.773 668.318H330.387L310.619 781.162H270.894L292.773 668.318ZM311.158 786.844H351.023L331.583 910.712H289.42L311.158 786.844ZM352.5 786.844H392.436L375.27 910.712H333.06L352.5 786.844ZM393.843 786.844H433.848L418.981 910.712H376.701L393.843 786.844ZM435.209 786.844H475.261L462.669 910.712H420.341L435.209 786.844ZM476.551 786.844H516.65L506.356 910.712H463.982L476.551 786.844ZM517.917 786.844H558.063L550.043 910.712H507.622L517.917 786.844ZM559.283 786.844H599.452L593.731 910.712H551.286L559.283 786.844ZM600.648 786.844H640.842L637.394 910.712H594.927L600.648 786.844ZM642.014 786.844H682.231L681.082 910.712H638.59L642.014 786.844ZM642.178 781.162L645.297 668.318H683.31L682.278 781.162H642.178ZM683.403 786.844H723.597L724.746 910.712H682.254L683.403 786.844ZM724.722 781.162L723.69 668.318H761.703L764.822 781.162H724.722ZM764.986 786.844L768.41 910.712H725.918L724.769 786.844H764.986ZM766.158 786.844H806.352L812.073 910.712H769.606L766.158 786.844ZM807.548 786.844H847.718L855.737 910.712H813.269L807.548 786.844ZM848.937 786.844H889.083L899.378 910.712H856.957L848.937 786.844ZM890.35 786.844H930.449L943.018 910.712H900.644L890.35 786.844ZM931.739 786.844H971.791L986.659 910.712H944.332L931.739 786.844ZM973.152 786.844H1013.16L1030.3 910.712H988.019L973.152 786.844ZM1014.56 786.844H1054.5L1073.94 910.712H1031.73L1014.56 786.844ZM1055.98 786.844H1095.84L1117.58 910.712H1075.42L1055.98 786.844ZM1076.61 668.318H1114.23L1136.08 781.162H1096.38L1076.61 668.318ZM1095.02 561.041H1130.59L1152.17 662.636H1114.74L1095.02 561.041ZM1111.44 462.856H1145.11L1166.45 555.359H1131.06L1111.44 462.856ZM1127.22 377.74H1159.25L1179.04 457.174H1145.56L1127.22 377.74ZM1142.16 301.828H1172.71L1191.52 372.058H1159.67L1142.16 301.828ZM1156.79 235.235H1186.03L1203.45 296.146H1173.11L1156.79 235.235ZM1171.07 175.915H1199.12L1215.44 229.553H1186.41L1171.07 175.915ZM1184.39 229.553H1155.26L1140.94 175.915H1169.08L1184.39 229.553ZM1153.34 229.553H1124.15L1110.78 175.915H1139.01L1153.34 229.553ZM1122.29 229.553H1093L1080.65 175.915H1108.95L1122.29 229.553ZM1091.25 229.553H1061.89L1050.51 175.915H1078.89L1091.25 229.553ZM1060.2 229.553H1030.74L1020.36 175.915H1048.82L1060.2 229.553ZM1029.15 229.553H999.627L990.223 175.915H1018.76L1029.15 229.553ZM998.079 229.553H968.508L960.09 175.915H988.699L998.079 229.553ZM967.031 229.553H937.39L929.957 175.915H958.613L967.031 229.553ZM935.96 229.553H906.272L899.847 175.915H928.55L935.96 229.553ZM904.912 229.553H875.154L869.714 175.915H898.487L904.912 229.553ZM873.841 229.553H844.036L839.58 175.915H868.4L873.841 229.553ZM842.77 229.553H812.918L809.471 175.915H838.314L842.77 229.553ZM811.698 229.553H781.823L779.361 175.915H808.251L811.698 229.553ZM783.699 296.146H752.581L750.892 235.235H780.885L783.699 296.146ZM753.495 372.058H720.947L720.29 301.828H751.549L753.495 372.058ZM721.463 555.359H685.537L686.382 462.856H720.618L721.463 555.359ZM686.053 372.058H653.505L655.451 301.828H686.71L686.053 372.058ZM654.419 296.146H623.301L626.115 235.235H656.108L654.419 296.146ZM625.177 229.553H595.302L598.772 175.915H627.639L625.177 229.553ZM594.059 229.553H564.23L568.686 175.915H597.529L594.059 229.553ZM562.964 229.553H533.159L538.6 175.915H567.42L562.964 229.553ZM531.846 229.553H502.088L508.513 175.915H537.286L531.846 229.553ZM500.728 229.553H471.04L478.45 175.915H507.153L500.728 229.553ZM469.61 229.553H439.969L448.387 175.915H477.043L469.61 229.553ZM438.492 229.553H408.921L418.301 175.915H446.91L438.492 229.553ZM407.373 229.553H377.85L388.238 175.915H416.777L407.373 229.553ZM376.255 229.553H346.802L358.175 175.915H386.644L376.255 229.553ZM345.114 229.553H315.754L328.112 175.915H356.487L345.114 229.553ZM313.995 229.553H284.706L298.049 175.915H326.354L313.995 229.553ZM282.854 229.553H253.659L267.987 175.915H296.22L282.854 229.553ZM251.736 229.553H222.611L237.924 175.915H266.064L251.736 229.553ZM220.594 229.553H191.563L207.884 175.915H235.93L220.594 229.553ZM189.476 229.553H160.515L177.821 175.915H205.774L189.476 229.553ZM189.828 235.235H218.976L201.529 296.146H171.255L189.828 235.235ZM201.904 301.828H232.366L213.559 372.058H181.808L201.904 301.828ZM213.981 377.74H245.92L226.105 457.174H192.689L213.981 377.74ZM226.527 462.856H260.131L238.791 555.359H203.499L226.527 462.856ZM239.237 561.041H274.74L253.143 662.636H215.787L239.237 561.041ZM253.612 668.318H291.155L269.3 781.162H229.669L253.612 668.318ZM269.792 786.844H309.61L287.872 910.712H245.779L269.792 786.844ZM288.412 916.394H330.692L310.079 1047.76H265.384L288.412 916.394ZM332.169 916.394H374.496L356.299 1047.76H311.557L332.169 916.394ZM375.904 916.394H418.301L402.543 1047.76H357.73L375.904 916.394ZM419.661 916.394H462.082L448.763 1047.76H403.903L419.661 916.394ZM463.395 916.394H505.887L494.983 1047.76H450.076L463.395 916.394ZM507.153 916.394H549.668L541.203 1047.76H496.249L507.153 916.394ZM550.911 916.394H593.473L587.399 1047.76H542.422L550.911 916.394ZM594.669 916.394H637.254L633.619 1047.76H588.618L594.669 916.394ZM638.426 916.394H681.035L679.815 1047.76H634.792L638.426 916.394ZM682.207 916.394H724.793L726.012 1047.76H680.988L682.207 916.394ZM725.965 916.394H768.574L772.208 1047.76H727.185L725.965 916.394ZM769.746 916.394H812.331L818.405 1047.76H773.381L769.746 916.394ZM813.527 916.394H856.089L864.578 1047.76H819.601L813.527 916.394ZM857.332 916.394H899.847L910.751 1047.76H865.797L857.332 916.394ZM901.113 916.394H943.605L956.924 1047.76H912.017L901.113 916.394ZM944.918 916.394H987.339L1003.12 1047.76H958.237L944.918 916.394ZM988.699 916.394H1031.1L1049.27 1047.76H1004.46L988.699 916.394ZM1032.5 916.394H1074.83L1095.44 1047.76H1050.7L1032.5 916.394ZM1076.31 916.394H1118.59L1141.62 1047.76H1096.92L1076.31 916.394ZM1097.39 786.844H1137.18L1161.22 910.712H1119.13L1097.39 786.844ZM1115.84 668.318H1153.39L1177.33 781.162H1137.7L1115.84 668.318ZM1132.26 561.041H1167.76L1191.21 662.636H1153.86L1132.26 561.041ZM1146.87 462.856H1180.47L1203.5 555.359H1168.21L1146.87 462.856ZM1161.08 377.74H1193.02L1214.31 457.174H1180.9L1161.08 377.74ZM1174.63 301.828H1205.1L1225.19 372.058H1193.44L1174.63 301.828ZM1188.02 235.235H1217.17L1235.74 296.146H1205.47L1188.02 235.235ZM1201.23 175.915H1229.18L1246.48 229.553H1217.52L1201.23 175.915ZM1199.49 170.233L1186.55 127.845H1213.63L1227.35 170.233H1199.49ZM1197.4 170.233H1169.45L1157.3 127.845H1184.46L1197.4 170.233ZM1167.43 170.233H1139.41L1128.04 127.845H1155.29L1167.43 170.233ZM1137.49 170.233H1109.37L1098.8 127.845H1126.12L1137.49 170.233ZM1107.52 170.233H1079.33L1069.53 127.845H1096.94L1107.52 170.233ZM1077.57 170.233H1049.29L1040.29 127.845H1067.77L1077.57 170.233ZM1047.63 170.233H1019.25L1011.05 127.845H1038.6L1047.63 170.233ZM1017.66 170.233H989.238L981.781 127.845H1009.43L1017.66 170.233ZM987.691 170.233H959.199L952.539 127.845H980.257L987.691 170.233ZM957.721 170.233H929.183L923.297 127.845H951.062L957.721 170.233ZM927.776 170.233H899.143L894.055 127.845H921.89L927.776 170.233ZM897.807 170.233H869.127L864.813 127.845H892.695L897.807 170.233ZM867.838 170.233H839.111L835.594 127.845H863.523L867.838 170.233ZM837.845 170.233H809.095L806.352 127.845H834.328L837.845 170.233ZM807.876 170.233H779.103L777.133 127.845H805.132L807.876 170.233ZM780.627 229.553H750.728L749.251 175.915H778.141L780.627 229.553ZM751.385 296.146H720.243L719.68 235.235H749.697L751.385 296.146ZM720.548 457.174H686.452L687.179 377.74H719.821L720.548 457.174ZM686.757 296.146H655.615L657.303 235.235H687.32L686.757 296.146ZM656.272 229.553H626.373L628.859 175.915H657.749L656.272 229.553ZM627.897 170.233H599.124L601.868 127.845H629.867L627.897 170.233ZM597.905 170.233H569.155L572.672 127.845H600.648L597.905 170.233ZM567.889 170.233H539.162L543.477 127.845H571.406L567.889 170.233ZM537.873 170.233H509.193L514.305 127.845H542.188L537.873 170.233ZM507.857 170.233H479.224L485.11 127.845H512.945L507.857 170.233ZM477.817 170.233H449.279L455.938 127.845H483.703L477.817 170.233ZM447.801 170.233H419.309L426.743 127.845H454.461L447.801 170.233ZM417.762 170.233H389.34L397.571 127.845H425.219L417.762 170.233ZM387.746 170.233H359.395L368.4 127.845H395.953L387.746 170.233ZM357.706 170.233H329.426L339.228 127.845H366.711L357.706 170.233ZM327.667 170.233H299.48L310.056 127.845H337.469L327.667 170.233ZM297.627 170.233H269.511L280.884 127.845H308.203L297.627 170.233ZM267.588 170.233H239.565L251.712 127.845H278.961L267.588 170.233ZM237.549 170.233H209.596L222.541 127.845H249.696L237.549 170.233ZM207.509 170.233H179.65L193.369 127.845H220.453L207.509 170.233ZM177.47 170.233H149.705L164.197 127.845H191.188L177.47 170.233ZM175.641 175.915L158.334 229.553H129.467L147.758 175.915H175.641ZM158.686 235.235H187.741L169.168 296.146H138.988L158.686 235.235ZM169.52 301.828H199.911L179.815 372.058H148.134L169.52 301.828ZM180.19 377.74H212.058L190.766 457.174H157.443L180.19 377.74ZM191.164 462.856H224.698L201.647 555.359H166.425L191.164 462.856ZM202.069 561.041H237.478L214.005 662.636H176.719L202.069 561.041ZM214.474 668.318H251.947L227.981 781.162H188.421L214.474 668.318ZM228.45 786.844H268.198L244.185 910.712H202.162L228.45 786.844ZM244.677 916.394H286.887L263.859 1047.76H219.234L244.677 916.394ZM264.399 1053.44H309.188L286.536 1197.65H239.096L264.399 1053.44ZM310.666 1053.44H355.525L335.546 1197.65H288.013L310.666 1053.44ZM356.932 1053.44H401.863L384.533 1197.65H336.953L356.932 1053.44ZM403.199 1053.44H448.176L433.52 1197.65H385.893L403.199 1053.44ZM449.49 1053.44H494.514L482.507 1197.65H434.833L449.49 1053.44ZM495.78 1053.44H540.827L531.494 1197.65H483.773L495.78 1053.44ZM542.047 1053.44H587.141L580.481 1197.65H532.737L542.047 1053.44ZM588.337 1053.44H633.455L629.468 1197.65H581.677L588.337 1053.44ZM634.627 1053.44H679.769L678.432 1197.65H630.641L634.627 1053.44ZM680.941 1053.44H726.059L727.396 1197.65H679.604L680.941 1053.44ZM727.231 1053.44H772.373L776.359 1197.65H728.568L727.231 1053.44ZM773.545 1053.44H818.663L825.323 1197.65H777.532L773.545 1053.44ZM819.859 1053.44H864.953L874.263 1197.65H826.519L819.859 1053.44ZM866.173 1053.44H911.22L923.227 1197.65H875.506L866.173 1053.44ZM912.486 1053.44H957.51L972.167 1197.65H924.493L912.486 1053.44ZM958.824 1053.44H1003.8L1021.11 1197.65H973.48L958.824 1053.44ZM1005.14 1053.44H1050.07L1070.05 1197.65H1022.47L1005.14 1053.44ZM1051.47 1053.44H1096.33L1118.99 1197.65H1071.45L1051.47 1053.44ZM1097.81 1053.44H1142.6L1167.9 1197.65H1120.46L1097.81 1053.44ZM1120.11 916.394H1162.32L1187.77 1047.76H1143.14L1120.11 916.394ZM1138.8 786.844H1178.55L1204.86 910.712H1162.82L1138.8 786.844ZM1155.05 668.318H1192.53L1218.58 781.162H1179.02L1155.05 668.318ZM1169.52 561.041H1204.93L1230.28 662.636H1193L1169.52 561.041ZM1182.3 462.856H1215.84L1240.58 555.359H1205.35L1182.3 462.856ZM1194.94 377.74H1226.81L1249.56 457.174H1216.23L1194.94 377.74ZM1207.09 301.828H1237.48L1258.87 372.058H1227.19L1207.09 301.828ZM1219.26 235.235H1248.31L1268.01 296.146H1237.83L1219.26 235.235ZM1231.36 175.915H1259.24L1277.53 229.553H1248.67L1231.36 175.915ZM1229.53 170.233L1215.81 127.845H1242.8L1257.3 170.233H1229.53ZM1231.78 88.9802H1257.98L1269.91 122.163H1243.13L1231.78 88.9802ZM1240.86 122.163H1213.98L1203.24 88.9802H1229.53L1240.86 122.163ZM1211.8 122.163H1184.81L1174.7 88.9802H1201.06L1211.8 122.163ZM1182.72 122.163H1155.66L1146.17 88.9802H1172.62L1182.72 122.163ZM1153.67 122.163H1126.51L1117.63 88.9802H1144.17L1153.67 122.163ZM1124.59 122.163H1097.37L1089.09 88.9802H1115.7L1124.59 122.163ZM1095.54 122.163H1068.22L1060.57 88.9802H1087.26L1095.54 122.163ZM1066.46 122.163H1039.07L1032.03 88.9802H1058.81L1066.46 122.163ZM1037.4 122.163H1009.94L1003.5 88.9802H1030.35L1037.4 122.163ZM1008.33 122.163H980.796L974.981 88.9802H1001.88L1008.33 122.163ZM979.249 122.163H951.648L946.442 88.9802H973.433L979.249 122.163ZM950.171 122.163H922.523L917.927 88.9802H944.965L950.171 122.163ZM921.093 122.163H893.375L889.388 88.9802H916.496L921.093 122.163ZM892.015 122.163H864.25L860.873 88.9802H888.028L892.015 122.163ZM862.937 122.163H835.125L832.358 88.9802H859.56L862.937 122.163ZM833.859 122.163H806L803.843 88.9802H831.091L833.859 122.163ZM804.757 122.163H776.875L775.327 88.9802H802.623L804.757 122.163ZM777.883 170.233H749.087L747.914 127.845H775.937L777.883 170.233ZM748.055 175.915L749.556 229.553H719.634L719.141 175.915H748.055ZM719.774 372.058H687.226L687.882 301.828H719.118L719.774 372.058ZM687.366 229.553H657.444L658.945 175.915H687.859L687.366 229.553ZM657.913 170.233H629.117L631.063 127.845H659.086L657.913 170.233ZM630.125 122.163H602.243L604.377 88.9802H631.673L630.125 122.163ZM601 122.163H573.141L575.909 88.9802H603.157L601 122.163ZM571.875 122.163H544.063L547.44 88.9802H574.642L571.875 122.163ZM542.75 122.163H514.985L518.972 88.9802H546.127L542.75 122.163ZM513.625 122.163H485.907L490.504 88.9802H517.612L513.625 122.163ZM484.477 122.163H456.829L462.035 88.9802H489.073L484.477 122.163ZM455.352 122.163H427.751L433.567 88.9802H460.558L455.352 122.163ZM426.204 122.163H398.673L405.099 88.9802H432.019L426.204 122.163ZM397.055 122.163H369.595L376.654 88.9802H403.504L397.055 122.163ZM367.93 122.163H340.541L348.186 88.9802H374.965L367.93 122.163ZM338.782 122.163H311.463L319.741 88.9802H346.427L338.782 122.163ZM309.634 122.163H282.408L291.296 88.9802H317.912L309.634 122.163ZM280.485 122.163H253.33L262.828 88.9802H289.373L280.485 122.163ZM251.337 122.163H224.276L234.383 88.9802H260.834L251.337 122.163ZM222.189 122.163H195.198L205.938 88.9802H232.296L222.189 122.163ZM193.017 122.163H166.143L177.493 88.9802H203.757L193.017 122.163ZM163.869 122.163H137.089L149.025 88.9802H175.218L163.869 122.163ZM134.72 122.163H108.011L120.58 88.9802H146.68L134.72 122.163ZM135.025 127.845H161.946L147.43 170.233H119.759L135.025 127.845ZM145.484 175.915L127.193 229.553H98.4197L117.696 175.915H145.484ZM127.521 235.235H156.505L136.807 296.146H106.698L127.521 235.235ZM137.136 301.828H167.433L146.047 372.058H114.459L137.136 301.828ZM146.398 377.74H178.173L155.427 457.174H122.198L146.398 377.74ZM155.825 462.856H189.242L164.502 555.359H129.35L155.825 462.856ZM164.9 561.041H200.24L174.89 662.636H137.675L164.9 561.041ZM175.312 668.318H212.715L186.662 781.162H147.196L175.312 668.318ZM187.108 786.844H226.785L200.474 910.712H158.522L187.108 786.844ZM200.943 916.394H243.083L217.616 1047.76H173.061L200.943 916.394ZM218.132 1053.44H262.851L237.549 1197.65H190.156L218.132 1053.44ZM236.54 1203.34L209.62 1356.86H159.296L189.054 1203.34H236.54ZM238.088 1203.34H285.644L261.561 1356.86H211.167L238.088 1203.34ZM287.122 1203.34H334.749L313.503 1356.86H263.039L287.122 1203.34ZM336.179 1203.34H383.853L365.421 1356.86H314.91L336.179 1203.34ZM385.213 1203.34H432.957L417.363 1356.86H366.781L385.213 1203.34ZM434.271 1203.34H482.038L469.281 1356.86H418.676L434.271 1203.34ZM483.305 1203.34H531.143L521.223 1356.86H470.548L483.305 1203.34ZM532.362 1203.34H580.223L573.141 1356.86H522.443L532.362 1203.34ZM581.419 1203.34H629.304L625.06 1356.86H574.337L581.419 1203.34ZM630.477 1203.34H678.385L676.955 1356.86H626.232L630.477 1203.34ZM679.558 1203.34H727.442L728.873 1356.86H678.127L679.558 1203.34ZM728.615 1203.34H776.523L780.768 1356.86H730.045L728.615 1203.34ZM777.696 1203.34H825.581L832.663 1356.86H781.964L777.696 1203.34ZM826.777 1203.34H874.638L884.557 1356.86H833.859L826.777 1203.34ZM875.857 1203.34H923.695L936.452 1356.86H885.777L875.857 1203.34ZM924.962 1203.34H972.729L988.324 1356.86H937.719L924.962 1203.34ZM974.043 1203.34H1021.79L1040.22 1356.86H989.637L974.043 1203.34ZM1023.15 1203.34H1070.82L1092.09 1356.86H1041.58L1023.15 1203.34ZM1072.25 1203.34H1119.88L1143.96 1356.86H1093.5L1072.25 1203.34ZM1121.36 1203.34H1168.91L1195.83 1356.86H1145.44L1121.36 1203.34ZM1170.46 1203.34H1217.95L1247.7 1356.86H1197.38L1170.46 1203.34ZM1169.45 1197.65L1144.15 1053.44H1188.87L1216.84 1197.65H1169.45ZM1163.92 916.394H1206.06L1233.94 1047.76H1189.38L1163.92 916.394ZM1180.22 786.844H1219.89L1248.48 910.712H1206.53L1180.22 786.844ZM1194.29 668.318H1231.69L1259.8 781.162H1220.34L1194.29 668.318ZM1206.76 561.041H1242.1L1269.33 662.636H1232.11L1206.76 561.041ZM1217.76 462.856H1251.17L1277.65 555.359H1242.5L1217.76 462.856ZM1228.83 377.74H1260.6L1284.8 457.174H1251.57L1228.83 377.74ZM1239.57 301.828H1269.86L1292.54 372.058H1260.95L1239.57 301.828ZM1250.49 235.235H1279.48L1300.3 296.146H1270.19L1250.49 235.235ZM1261.52 175.915H1289.3L1308.58 229.553H1279.81L1261.52 175.915ZM1259.57 170.233L1245.05 127.845H1271.97L1287.24 170.233H1259.57ZM1260.32 88.9802H1286.42L1298.99 122.163H1272.28L1260.32 88.9802ZM1276.27 55.6837H1301.64L1312.61 83.2982H1286.72L1276.27 55.6837ZM1284.26 83.2982H1258.28L1248.34 55.6837H1273.8L1284.26 83.2982ZM1255.91 83.2982H1229.84L1220.41 55.6837H1245.97L1255.91 83.2982ZM1227.58 83.2982H1201.41L1192.48 55.6837H1218.13L1227.58 83.2982ZM1199.23 83.2982H1172.97L1164.55 55.6837H1190.3L1199.23 83.2982ZM1170.88 83.2982H1144.55L1136.64 55.6837H1162.46L1170.88 83.2982ZM1142.53 83.2982H1116.1L1108.72 55.6837H1134.63L1142.53 83.2982ZM1114.2 83.2982H1087.68L1080.79 55.6837H1106.79L1114.2 83.2982ZM1085.85 83.2982H1059.26L1052.88 55.6837H1078.96L1085.85 83.2982ZM1057.5 83.2982H1030.82L1024.95 55.6837H1051.12L1057.5 83.2982ZM1029.15 83.2982H1002.39L997.047 55.6837H1023.26L1029.15 83.2982ZM1000.78 83.2982H973.972L969.118 55.6837H995.429L1000.78 83.2982ZM972.425 83.2982H945.551L941.213 55.6837H967.594L972.425 83.2982ZM944.074 83.2982H917.13L913.307 55.6837H939.735L944.074 83.2982ZM915.723 83.2982H888.708L885.402 55.6837H911.877L915.723 83.2982ZM887.348 83.2982H860.287L857.496 55.6837H884.042L887.348 83.2982ZM858.997 83.2982H831.889L829.591 55.6837H856.183L858.997 83.2982ZM830.622 83.2982H803.467L801.685 55.6837H828.324L830.622 83.2982ZM802.248 83.2982H775.069L773.803 55.6837H800.466L802.248 83.2982ZM775.679 122.163H747.75L746.836 88.9802H774.131L775.679 122.163ZM747.914 170.233H719.094L718.696 127.845H746.718L747.914 170.233ZM719.071 296.146H687.929L688.492 235.235H718.508L719.071 296.146ZM687.906 170.233H659.086L660.282 127.845H688.304L687.906 170.233ZM659.25 122.163H631.344L632.869 88.9802H660.164L659.25 122.163ZM631.931 83.2982H604.752L606.534 55.6837H633.197L631.931 83.2982ZM603.509 83.2982H576.378L578.676 55.6837H605.315L603.509 83.2982ZM575.111 83.2982H548.003L550.817 55.6837H577.409L575.111 83.2982ZM546.713 83.2982H519.652L522.958 55.6837H549.504L546.713 83.2982ZM518.292 83.2982H491.277L495.1 55.6837H521.598L518.292 83.2982ZM489.87 83.2982H462.926L467.265 55.6837H493.693L489.87 83.2982ZM461.449 83.2982H434.575L439.406 55.6837H465.787L461.449 83.2982ZM433.028 83.2982H406.201L411.571 55.6837H437.882L433.028 83.2982ZM404.606 83.2982H377.85L383.736 55.6837H409.953L404.606 83.2982ZM376.185 83.2982H349.499L355.877 55.6837H382.047L376.185 83.2982ZM347.74 83.2982H321.148L328.042 55.6837H354.118L347.74 83.2982ZM319.319 83.2982H292.82L300.207 55.6837H326.213L319.319 83.2982ZM290.897 83.2982H264.469L272.372 55.6837H298.284L290.897 83.2982ZM262.452 83.2982H236.118L244.537 55.6837H270.355L262.452 83.2982ZM234.031 83.2982H207.767L216.701 55.6837H242.45L234.031 83.2982ZM205.586 83.2982H179.416L188.866 55.6837H214.521L205.586 83.2982ZM177.165 83.2982H151.088L161.031 55.6837H186.592L177.165 83.2982ZM148.72 83.2982H122.737L133.196 55.6837H158.663L148.72 83.2982ZM120.275 83.2982H94.3863L105.361 55.6837H130.734L120.275 83.2982ZM91.8536 83.2982H66.0587L77.5257 55.6837H102.828L91.8536 83.2982ZM92.1351 88.9802H118.141L105.572 122.163H78.9561L92.1351 88.9802ZM105.877 127.845H132.68L117.391 170.233H89.7901L105.877 127.845ZM115.351 175.915L96.0512 229.553H67.3718L87.6561 175.915H115.351ZM96.3795 235.235H125.246L104.446 296.146H74.4303L96.3795 235.235ZM104.775 301.828H134.955L112.279 372.058H80.7853L104.775 301.828ZM112.63 377.74H144.311L120.087 457.174H86.9292L112.63 377.74ZM120.463 462.856H153.809L127.357 555.359H92.2992L120.463 462.856ZM127.732 561.041H162.978L135.752 662.636H98.6307L127.732 561.041ZM136.151 668.318H173.46L145.343 781.162H105.947L136.151 668.318ZM145.765 786.844H185.349L156.763 910.712H114.882L145.765 786.844ZM157.209 916.394H199.255L171.373 1047.76H126.911L157.209 916.394ZM171.865 1053.44H216.514L188.538 1197.65H141.216L171.865 1053.44ZM187.436 1203.34L157.678 1356.86H107.424L140.02 1203.34H187.436ZM158.194 1362.55H208.635L179.416 1529.03H125.903L158.194 1362.55ZM210.159 1362.55H260.67L234.547 1529.03H180.964L210.159 1362.55ZM262.148 1362.55H312.706L289.654 1529.03H236.024L262.148 1362.55ZM314.113 1362.55H364.741L344.762 1529.03H291.061L314.113 1362.55ZM366.101 1362.55H416.777L399.869 1529.03H346.122L366.101 1362.55ZM418.09 1362.55H468.812L454.977 1529.03H401.183L418.09 1362.55ZM470.079 1362.55H520.848L510.084 1529.03H456.243L470.079 1362.55ZM522.067 1362.55H572.86L565.192 1529.03H511.327L522.067 1362.55ZM574.079 1362.55H624.896L620.276 1529.03H566.388L574.079 1362.55ZM626.068 1362.55H676.908L675.36 1529.03H621.472L626.068 1362.55ZM678.08 1362.55H728.92L730.444 1529.03H676.556L678.08 1362.55ZM730.092 1362.55H780.932L785.528 1529.03H731.64L730.092 1362.55ZM782.104 1362.55H832.921L840.612 1529.03H786.724L782.104 1362.55ZM834.14 1362.55H884.933L895.673 1529.03H841.808L834.14 1362.55ZM886.152 1362.55H936.921L950.757 1529.03H896.916L886.152 1362.55ZM938.188 1362.55H988.91L1005.82 1529.03H952.023L938.188 1362.55ZM990.223 1362.55H1040.9L1060.88 1529.03H1007.13L990.223 1362.55ZM1042.26 1362.55H1092.86L1115.94 1529.03H1062.24L1042.26 1362.55ZM1094.29 1362.55H1144.85L1170.98 1529.03H1117.35L1094.29 1362.55ZM1146.33 1362.55H1196.84L1226.04 1529.03H1172.45L1146.33 1362.55ZM1198.37 1362.55H1248.81L1281.1 1529.03H1227.58L1198.37 1362.55ZM1219.56 1203.34H1266.98L1299.58 1356.86H1249.32L1219.56 1203.34ZM1218.46 1197.65L1190.49 1053.44H1235.14L1265.78 1197.65H1218.46ZM1207.75 916.394H1249.79L1280.09 1047.76H1235.63L1207.75 916.394ZM1221.65 786.844H1261.23L1292.12 910.712H1250.24L1221.65 786.844ZM1233.52 668.318H1270.85L1301.05 781.162H1261.63L1233.52 668.318ZM1244.02 561.041H1279.27L1308.37 662.636H1271.25L1244.02 561.041ZM1253.19 462.856H1286.54L1314.7 555.359H1279.64L1253.19 462.856ZM1262.69 377.74H1294.37L1320.07 457.174H1286.91L1262.69 377.74ZM1272.05 301.828H1302.25L1326.21 372.058H1294.72L1272.05 301.828ZM1281.75 235.235H1310.62L1332.57 296.146H1302.55L1281.75 235.235ZM1291.65 175.915H1319.34L1339.63 229.553H1310.93L1291.65 175.915ZM1289.61 170.233L1274.32 127.845H1301.12L1317.21 170.233H1289.61ZM1288.86 88.9802H1314.86L1328.04 122.163H1301.43L1288.86 88.9802ZM1304.17 55.6837H1329.47L1340.94 83.2982H1315.15L1304.17 55.6837ZM1301.92 50.0017L1292.42 26.0236H1317.16L1327.11 50.0017H1301.92ZM1299.39 50.0017H1274.11L1265.03 26.0236H1289.89L1299.39 50.0017ZM1271.65 50.0017H1246.27L1237.67 26.0236H1262.59L1271.65 50.0017ZM1243.93 50.0017H1218.46L1210.28 26.0236H1235.3L1243.93 50.0017ZM1216.19 50.0017H1190.65L1182.91 26.0236H1208.03L1216.19 50.0017ZM1188.47 50.0017H1162.84L1155.52 26.0236H1180.73L1188.47 50.0017ZM1160.73 50.0017H1135L1128.16 26.0236H1153.44L1160.73 50.0017ZM1133.01 50.0017H1107.19L1100.79 26.0236H1126.16L1133.01 50.0017ZM1105.27 50.0017H1079.38L1073.4 26.0236H1098.87L1105.27 50.0017ZM1077.53 50.0017H1051.57L1046.03 26.0236H1071.57L1077.53 50.0017ZM1049.81 50.0017H1023.76L1018.67 26.0236H1044.28L1049.81 50.0017ZM1022.07 50.0017H995.945L991.302 26.0236H1016.98L1022.07 50.0017ZM994.327 50.0017H968.133L963.936 26.0236H989.684L994.327 50.0017ZM966.586 50.0017H940.322L936.57 26.0236H962.388L966.586 50.0017ZM938.844 50.0017H912.51L909.203 26.0236H935.092L938.844 50.0017ZM911.103 50.0017H884.722L881.837 26.0236H907.796L911.103 50.0017ZM883.362 50.0017H856.91L854.495 26.0236H880.477L883.362 50.0017ZM855.597 50.0017H829.122L827.128 26.0236H853.181L855.597 50.0017ZM827.855 50.0017H801.333L799.786 26.0236H825.862L827.855 50.0017ZM800.091 50.0017H773.545L772.443 26.0236H798.543L800.091 50.0017ZM772.607 55.6837L773.873 83.2982H746.671L745.921 55.6837H772.607ZM746.578 122.163H718.649L718.344 88.9802H745.64L746.578 122.163ZM718.273 83.2982L718.016 55.6837H744.725L745.499 83.2982H718.273ZM718.461 229.553H688.539L689.031 175.915H717.969L718.461 229.553ZM688.727 83.2982H661.501L662.275 55.6837H688.984L688.727 83.2982ZM688.656 88.9802L688.351 122.163H660.422L661.36 88.9802H688.656ZM660.329 83.2982H633.127L634.393 55.6837H661.079L660.329 83.2982ZM633.455 50.0017H606.909L608.457 26.0236H634.557L633.455 50.0017ZM605.667 50.0017H579.145L581.138 26.0236H607.214L605.667 50.0017ZM577.878 50.0017H551.403L553.819 26.0236H579.872L577.878 50.0017ZM550.09 50.0017H523.638L526.523 26.0236H552.529L550.09 50.0017ZM522.278 50.0017H495.897L499.204 26.0236H525.163L522.278 50.0017ZM494.49 50.0017H468.156L471.908 26.0236H497.797L494.49 50.0017ZM466.678 50.0017H440.414L444.612 26.0236H470.43L466.678 50.0017ZM438.867 50.0017H412.673L417.316 26.0236H443.064L438.867 50.0017ZM411.055 50.0017H384.932L390.02 26.0236H415.698L411.055 50.0017ZM383.243 50.0017H357.19L362.725 26.0236H388.332L383.243 50.0017ZM355.432 50.0017H329.473L335.429 26.0236H360.966L355.432 50.0017ZM327.62 50.0017H301.731L308.133 26.0236H333.6L327.62 50.0017ZM299.808 50.0017H273.99L280.837 26.0236H306.21L299.808 50.0017ZM271.997 50.0017H246.272L253.565 26.0236H278.844L271.997 50.0017ZM244.161 50.0017H218.531L226.269 26.0236H251.478L244.161 50.0017ZM216.35 50.0017H190.813L198.973 26.0236H224.088L216.35 50.0017ZM188.538 50.0017H163.071L171.701 26.0236H196.722L188.538 50.0017ZM160.726 50.0017H135.353L144.405 26.0236H169.332L160.726 50.0017ZM132.891 50.0017H107.612L117.109 26.0236H141.966L132.891 50.0017ZM105.079 50.0017H79.8941L89.837 26.0236H114.577L105.079 50.0017ZM77.2443 50.0017H52.1528L62.5411 26.0236H87.2105L77.2443 50.0017ZM74.8993 55.6837L63.4088 83.2982H37.7076L49.6906 55.6837H74.8993ZM63.6902 88.9802H89.6024L76.4236 122.163H49.9016L63.6902 88.9802ZM76.7049 127.845H103.414L87.3512 170.233H59.8444L76.7049 127.845ZM85.1939 175.915L64.9331 229.553H36.3241L57.5932 175.915H85.1939ZM65.2379 235.235H94.0111L72.0619 296.146H42.1631L65.2379 235.235ZM72.3902 301.828H102.5L78.5106 372.058H47.111L72.3902 301.828ZM78.8389 377.74H110.45L84.7718 457.174H51.6838L78.8389 377.74ZM85.1001 462.856H118.376L90.2122 555.359H55.2248L85.1001 462.856ZM90.5639 561.041H125.715L96.6375 662.636H59.5864L90.5639 561.041ZM97.0126 668.318H134.228L104.024 781.162H64.722L97.0126 668.318ZM104.446 786.844H143.936L113.052 910.712H71.2645L104.446 786.844ZM113.475 916.394H155.45L125.153 1047.76H80.7383L113.475 916.394ZM125.598 1053.44H170.177L139.551 1197.65H92.2992L125.598 1053.44ZM138.332 1203.34L105.736 1356.86H55.5531L90.986 1203.34H138.332ZM106.205 1362.55H156.576L124.308 1529.03H70.8659L106.205 1362.55ZM124.801 1534.71H178.431L147.266 1712.22H90.3763L124.801 1534.71ZM179.955 1534.71H233.656L205.774 1712.22H148.814L179.955 1534.71ZM235.133 1534.71H288.857L264.281 1712.22H207.251L235.133 1534.71ZM290.288 1534.71H344.082L322.766 1712.22H265.689L290.288 1534.71ZM345.442 1534.71H399.307L381.274 1712.22H324.126L345.442 1534.71ZM400.62 1534.71H454.508L439.758 1712.22H382.563L400.62 1534.71ZM455.774 1534.71H509.709L498.242 1712.22H441.024L455.774 1534.71ZM510.952 1534.71H564.934L556.726 1712.22H499.485L510.952 1534.71ZM566.13 1534.71H620.135L615.211 1712.22H557.922L566.13 1534.71ZM621.308 1534.71H675.313L673.672 1712.22H616.383L621.308 1534.71ZM676.486 1534.71H730.514L732.156 1712.22H674.844L676.486 1534.71ZM731.687 1534.71H785.692L790.617 1712.22H733.328L731.687 1534.71ZM786.888 1534.71H840.87L849.078 1712.22H791.789L786.888 1534.71ZM842.066 1534.71H896.048L907.539 1712.22H850.274L842.066 1534.71ZM897.267 1534.71H951.226L965.976 1712.22H908.758L897.267 1534.71ZM952.492 1534.71H1006.38L1024.44 1712.22H967.242L952.492 1534.71ZM1007.69 1534.71H1061.56L1082.87 1712.22H1025.73L1007.69 1534.71ZM1062.92 1534.71H1116.71L1141.31 1712.22H1084.23L1062.92 1534.71ZM1118.14 1534.71H1171.87L1199.75 1712.22H1142.72L1118.14 1534.71ZM1173.34 1534.71H1227.04L1258.19 1712.22H1201.23L1173.34 1534.71ZM1228.57 1534.71H1282.2L1316.62 1712.22H1259.73L1228.57 1534.71ZM1250.42 1362.55H1300.8L1336.13 1529.03H1282.69L1250.42 1362.55ZM1268.67 1203.34H1316.01L1351.45 1356.86H1301.26L1268.67 1203.34ZM1267.45 1197.65L1236.82 1053.44H1281.4L1314.7 1197.65H1267.45ZM1251.55 916.394H1293.53L1326.26 1047.76H1281.85L1251.55 916.394ZM1263.06 786.844H1302.55L1335.74 910.712H1293.95L1263.06 786.844ZM1272.77 668.318H1309.99L1342.28 781.162H1302.98L1272.77 668.318ZM1281.28 561.041H1316.44L1347.41 662.636H1310.36L1281.28 561.041ZM1288.62 462.856H1321.9L1351.78 555.359H1316.79L1288.62 462.856ZM1296.55 377.74H1328.16L1355.32 457.174H1322.25L1296.55 377.74ZM1304.5 301.828H1334.61L1359.89 372.058H1328.49L1304.5 301.828ZM1312.99 235.235H1341.76L1364.84 296.146H1334.94L1312.99 235.235ZM1321.81 175.915H1349.41L1370.68 229.553H1342.07L1321.81 175.915ZM1319.65 170.233L1303.59 127.845H1330.3L1347.16 170.233H1319.65ZM1317.4 88.9802H1343.31L1357.1 122.163H1330.58L1317.4 88.9802ZM1332.1 55.6837H1357.31L1369.29 83.2982H1343.59L1332.1 55.6837ZM1329.76 50.0017L1319.79 26.0236H1344.46L1354.85 50.0017H1329.76ZM1335.62 5.68201L1342 20.3416H1317.44L1311.35 5.68201H1335.62ZM1308.7 5.68201L1314.79 20.3416H1290.17L1284.33 5.68201H1308.7ZM1281.8 5.68201L1287.62 20.3416H1262.9L1257.34 5.68201H1281.8ZM1254.88 5.68201L1260.44 20.3416H1235.63L1230.33 5.68201H1254.88ZM1227.98 5.68201L1233.26 20.3416H1208.35L1203.34 5.68201H1227.98ZM1201.06 5.68201L1206.08 20.3416H1181.08L1176.32 5.68201H1201.06ZM1174.14 5.68201L1178.9 20.3416H1153.81L1149.33 5.68201H1174.14ZM1147.24 5.68201L1151.7 20.3416H1126.54L1122.34 5.68201H1147.24ZM1120.32 5.68201L1124.52 20.3416H1099.27L1095.33 5.68201H1120.32ZM1093.4 5.68201L1097.34 20.3416H1071.99L1068.34 5.68201H1093.4ZM1066.51 5.68201L1070.16 20.3416H1044.72L1041.34 5.68201H1066.51ZM1039.59 5.68201L1042.96 20.3416H1017.45L1014.35 5.68201H1039.59ZM1012.66 5.68201L1015.78 20.3416H990.2L987.339 5.68201H1012.66ZM985.744 5.68201L988.582 20.3416H962.927L960.348 5.68201H985.744ZM958.824 5.68201L961.403 20.3416H935.678L933.38 5.68201H958.824ZM931.903 5.68201L934.201 20.3416H908.406L906.389 5.68201H931.903ZM904.959 5.68201L906.999 20.3416H881.157L879.398 5.68201H904.959ZM878.038 5.68201L879.797 20.3416H853.908L852.408 5.68201H878.038ZM851.118 5.68201L852.595 20.3416H826.659L825.44 5.68201H851.118ZM824.174 5.68201L825.393 20.3416H799.411L798.473 5.68201H824.174ZM797.23 5.68201L798.191 20.3416H772.162L771.482 5.68201H797.23ZM772.326 50.0017H745.757L745.1 26.0236H771.224L772.326 50.0017ZM770.286 5.68201L770.966 20.3416H744.936L744.538 5.68201H770.286ZM744.561 50.0017H717.969L717.758 26.0236H743.904L744.561 50.0017ZM743.342 5.68201L743.74 20.3416H717.711L717.57 5.68201H743.342ZM690.602 5.68201H716.398L716.515 20.3416H690.485L690.602 5.68201ZM690.415 26.0236H716.585L716.796 50.0017H690.204L690.415 26.0236ZM690.157 55.6837H716.843L717.101 83.2982H689.899L690.157 55.6837ZM689.829 88.9802H717.171L717.476 122.163H689.524L689.829 88.9802ZM717.523 127.845L717.922 170.233H689.078L689.477 127.845H717.523ZM663.659 5.68201H689.43L689.289 20.3416H663.26L663.659 5.68201ZM689.242 26.0236L689.031 50.0017H662.439L663.096 26.0236H689.242ZM636.714 5.68201H662.463L662.064 20.3416H636.034L636.714 5.68201ZM661.9 26.0236L661.243 50.0017H634.674L635.776 26.0236H661.9ZM609.77 5.68201H635.518L634.838 20.3416H608.809L609.77 5.68201ZM582.826 5.68201H608.528L607.59 20.3416H581.607L582.826 5.68201ZM581.56 5.68201L580.341 20.3416H554.405L555.882 5.68201H581.56ZM554.593 5.68201L553.092 20.3416H527.203L528.962 5.68201H554.593ZM527.602 5.68201L525.843 20.3416H500.001L502.041 5.68201H527.602ZM500.611 5.68201L498.594 20.3416H472.799L475.097 5.68201H500.611ZM473.643 5.68201L471.322 20.3416H445.597L448.176 5.68201H473.643ZM446.652 5.68201L444.073 20.3416H418.418L421.256 5.68201H446.652ZM419.661 5.68201L416.8 20.3416H391.216L394.335 5.68201H419.661ZM392.647 5.68201L389.551 20.3416H364.038L367.415 5.68201H392.647ZM365.656 5.68201L362.279 20.3416H336.836L340.494 5.68201H365.656ZM338.665 5.68201L335.007 20.3416H309.657L313.597 5.68201H338.665ZM311.674 5.68201L307.734 20.3416H282.479L286.676 5.68201H311.674ZM284.66 5.68201L280.462 20.3416H255.277L259.756 5.68201H284.66ZM257.669 5.68201L253.19 20.3416H228.098L232.859 5.68201H257.669ZM230.678 5.68201L225.917 20.3416H200.92L205.938 5.68201H230.678ZM203.663 5.68201L198.645 20.3416H173.741L179.017 5.68201H203.663ZM176.672 5.68201L171.373 20.3416H146.562L152.12 5.68201H176.672ZM149.658 5.68201L144.1 20.3416H119.384L125.2 5.68201H149.658ZM122.667 5.68201L116.828 20.3416H92.2054L98.3024 5.68201H122.667ZM95.6525 5.68201L89.5555 20.3416H65.0034L71.3818 5.68201H95.6525ZM68.6616 5.68201L62.2832 20.3416H37.8248L44.4846 5.68201H68.6616ZM10.6698 20.3416L17.564 5.68201H41.6472L35.0109 20.3416H10.6698ZM35.2688 26.0236H59.8209L49.4326 50.0017H24.4349L35.2688 26.0236ZM9.35655 83.2982L21.8554 55.6837H46.9704L34.9874 83.2982H9.35655ZM20.8471 122.163L35.2453 88.9802H61.0638L47.2518 122.163H20.8471ZM47.5332 127.845H74.1489L57.3118 170.233H29.8988L47.5332 127.845ZM5.2997 229.553L27.5303 175.915H55.0606L33.7915 229.553H5.2997ZM9.87245 296.146L34.0728 235.235H62.7757L39.7009 296.146H9.87245ZM13.4369 372.058L40.0057 301.828H70.0217L44.7426 372.058H13.4369ZM16.4384 457.174L45.0474 377.74H76.5643L49.4326 457.174H16.4384ZM18.1737 555.359L49.7374 462.856H82.9192L53.0673 555.359H18.1737ZM20.5422 662.636L53.3957 561.041H88.4769L57.4994 662.636H20.5422ZM23.4969 781.162L57.8512 668.318H94.9959L62.7053 781.162H23.4969ZM27.6476 910.712L63.104 786.844H102.523L69.3417 910.712H27.6476ZM34.5887 1047.76L69.7403 916.394H111.645L78.9093 1047.76H34.5887ZM79.3314 1053.44H123.839L90.5405 1197.65H43.3591L79.3314 1053.44ZM3.68165 1356.86L41.952 1203.34H89.2272L53.7943 1356.86H3.68165ZM15.8053 1529.03L54.2398 1362.55H104.54L69.1775 1529.03H15.8053ZM31.9389 1712.22L69.6465 1534.71H123.206L88.7817 1712.22H31.9389ZM113.17 1906.65H52.6922L89.2741 1717.9H146.281L113.17 1906.65ZM175.265 1906.65H114.717L147.829 1717.9H204.883L175.265 1906.65ZM237.361 1906.65H176.743L206.36 1717.9H263.484L237.361 1906.65ZM299.456 1906.65H238.768L264.891 1717.9H322.086L299.456 1906.65ZM361.529 1906.65H300.793L323.446 1717.9H380.687L361.529 1906.65ZM423.601 1906.65H362.842L382 1717.9H439.289L423.601 1906.65ZM485.673 1906.65H424.867L440.555 1717.9H497.867L485.673 1906.65ZM547.745 1906.65H486.916L499.11 1717.9H556.469L547.745 1906.65ZM609.817 1906.65H548.965L557.664 1717.9H615.047L609.817 1906.65ZM671.889 1906.65H611.013L616.219 1717.9H673.625L671.889 1906.65ZM673.062 1906.65L674.797 1717.9H732.203L733.938 1906.65H673.062ZM735.111 1906.65L733.375 1717.9H790.781L795.987 1906.65H735.111ZM797.183 1906.65L791.953 1717.9H849.336L858.036 1906.65H797.183ZM859.255 1906.65L850.532 1717.9H907.89L920.084 1906.65H859.255ZM921.327 1906.65L909.133 1717.9H966.445L982.133 1906.65H921.327ZM983.399 1906.65L967.711 1717.9H1025L1044.16 1906.65H983.399ZM1045.47 1906.65L1026.31 1717.9H1083.55L1106.21 1906.65H1045.47ZM1107.54 1906.65L1084.91 1717.9H1142.09L1168.23 1906.65H1107.54ZM1169.64 1906.65L1143.52 1717.9H1200.64L1230.26 1906.65H1169.64ZM1231.73 1906.65L1202.12 1717.9H1259.17L1292.28 1906.65H1231.73ZM1354.31 1906.65H1293.83L1260.72 1717.9H1317.73L1354.31 1906.65ZM1375.06 1712.22H1318.22L1283.79 1534.71H1337.35L1375.06 1712.22ZM1391.19 1529.03H1337.82L1302.46 1362.55H1352.76L1391.19 1529.03ZM1403.32 1356.86H1353.21L1317.77 1203.34H1365.05L1403.32 1356.86ZM1363.64 1197.65H1316.46L1283.16 1053.44H1327.67L1363.64 1197.65ZM1372.41 1047.76H1328.09L1295.35 916.394H1337.26L1372.41 1047.76ZM1379.35 910.712H1337.66L1304.48 786.844H1343.9L1379.35 910.712ZM1383.5 781.162H1344.29L1312 668.318H1349.15L1383.5 781.162ZM1386.46 662.636H1349.5L1318.52 561.041H1353.6L1386.46 662.636ZM1388.83 555.359H1353.96L1324.08 462.856H1357.26L1388.83 555.359ZM1390.56 457.174H1357.57L1330.44 377.74H1361.95L1390.56 457.174ZM1393.56 372.058H1362.26L1336.98 301.828H1366.99L1393.56 372.058ZM1397.13 296.146H1367.3L1344.22 235.235H1372.93L1397.13 296.146ZM1401.7 229.553H1373.21L1351.94 175.915H1379.47L1401.7 229.553ZM1377.1 170.233H1349.69L1332.85 127.845H1359.47L1377.1 170.233ZM1386.18 122.163H1359.75L1345.94 88.9802H1371.75L1386.18 122.163ZM1397.64 83.2982H1372.04L1360.03 55.6837H1385.14L1397.64 83.2982ZM1382.57 50.0017H1357.57L1347.18 26.0236H1371.73L1382.57 50.0017ZM1396.33 20.3416H1371.99L1365.35 5.68201H1389.44L1396.33 20.3416Z" fill="#A294EC"/>
</svg>
