<svg width="21" height="21" viewBox="0 0 21 21" fill="none" xmlns="http://www.w3.org/2000/svg">
<path d="M18.9375 0.375H2.0625C1.61495 0.375 1.18572 0.55279 0.869257 0.869257C0.55279 1.18572 0.375 1.61495 0.375 2.0625V18.9375C0.375 19.3851 0.55279 19.8143 0.869257 20.1307C1.18572 20.4472 1.61495 20.625 2.0625 20.625H18.9375C19.3851 20.625 19.8143 20.4472 20.1307 20.1307C20.4472 19.8143 20.625 19.3851 20.625 18.9375V2.0625C20.625 1.61495 20.4472 1.18572 20.1307 0.869257C19.8143 0.55279 19.3851 0.375 18.9375 0.375ZM2.0625 2.0625H18.9375V10.2237L16.3335 7.61859C16.017 7.30237 15.588 7.12473 15.1406 7.12473C14.6933 7.12473 14.2642 7.30237 13.9478 7.61859L2.62887 18.9375H2.0625V2.0625ZM5.4375 7.125C5.4375 6.79124 5.53647 6.46498 5.7219 6.18748C5.90732 5.90997 6.17087 5.69368 6.47922 5.56595C6.78757 5.43823 7.12687 5.40481 7.45422 5.46992C7.78156 5.53504 8.08224 5.69576 8.31824 5.93176C8.55424 6.16776 8.71496 6.46844 8.78008 6.79578C8.84519 7.12313 8.81177 7.46243 8.68405 7.77078C8.55632 8.07913 8.34003 8.34268 8.06252 8.5281C7.78502 8.71353 7.45876 8.8125 7.125 8.8125C6.67745 8.8125 6.24823 8.63471 5.93176 8.31824C5.61529 8.00177 5.4375 7.57255 5.4375 7.125Z" fill="#C2B4FB"/>
</svg>
