<svg width="28" height="33" viewBox="0 0 28 33" fill="none" xmlns="http://www.w3.org/2000/svg">
<path d="M14.0833 30.4294C13.9712 30.7093 13.7525 30.9331 13.4753 31.0517C13.1982 31.1703 12.8852 31.174 12.6054 31.0618L8.38474 29.3709C8.10489 29.2588 7.88104 29.0401 7.76244 28.763C7.64383 28.4858 7.64019 28.1729 7.7523 27.893C7.86442 27.6132 8.08311 27.3893 8.36027 27.2707C8.63743 27.1521 8.95035 27.1485 9.2302 27.2606L13.4509 28.9515C13.7307 29.0636 13.9546 29.2823 14.0732 29.5595C14.1918 29.8366 14.1954 30.1496 14.0833 30.4294ZM27.1318 25.2226L22.5621 31.9068C22.3451 32.2243 22.0512 32.4815 21.7078 32.6545C21.3645 32.8274 20.9828 32.9105 20.5986 32.8959C20.2144 32.8813 19.8402 32.7694 19.5109 32.5708C19.1817 32.3723 18.9082 32.0934 18.716 31.7604L16.2101 27.6079L8.16449 24.3846L3.48207 25.6572C3.11312 25.7655 2.72276 25.7783 2.34748 25.6947C1.97221 25.611 1.62428 25.4335 1.33625 25.1788C1.04821 24.9241 0.829484 24.6005 0.700513 24.2383C0.571542 23.8761 0.536545 23.4871 0.598796 23.1077L1.90812 15.1172C1.96512 14.7746 2.09941 14.4496 2.30082 14.1666C2.50222 13.8837 2.76543 13.6504 3.07047 13.4844L8.64775 10.4748C9.43948 8.86477 10.4743 7.38621 11.7158 6.091C15.1261 2.50715 19.2451 1.05162 20.8624 0.594454C21.3472 0.456023 21.8642 0.482641 22.3322 0.670122C22.8001 0.857604 23.1925 1.19531 23.4476 1.63014C24.298 3.07597 26.2766 6.97434 26.2691 11.9215C26.273 13.7156 26.0007 15.4997 25.4618 17.211L27.4184 23.2389C27.5244 23.5696 27.5538 23.9201 27.5041 24.2638C27.4545 24.6075 27.3271 24.9354 27.1318 25.2226ZM6.97141 22.3499C6.58808 19.2034 6.7439 16.3234 7.43889 13.71L4.15169 15.4849L2.84184 23.4767L2.87245 23.4691L6.97141 22.3499ZM19.0529 13.4403C19.1783 13.1272 19.208 12.784 19.1384 12.4541C19.0688 12.1241 18.9028 11.8222 18.6616 11.5866C18.4204 11.3509 18.1147 11.1921 17.7832 11.1301C17.4517 11.0682 17.1093 11.1059 16.7993 11.2386C16.4893 11.3713 16.2256 11.5929 16.0415 11.8755C15.8574 12.158 15.7613 12.4888 15.7652 12.826C15.7691 13.1632 15.8729 13.4917 16.0635 13.7699C16.2542 14.0481 16.523 14.2635 16.836 14.3889C17.2558 14.5571 17.7252 14.5516 18.1409 14.3737C18.5566 14.1958 18.8847 13.86 19.0529 13.4403ZM25.255 23.9395L24.1026 20.3859C22.8056 22.7521 20.9295 24.9439 18.4743 26.9614L20.6689 30.5958L20.6857 30.6224L25.255 23.9395Z" fill="white"/>
</svg>
