<svg width="35" height="35" viewBox="0 0 35 35" fill="none" xmlns="http://www.w3.org/2000/svg">
<path d="M17.5 0.84375C14.2057 0.84375 10.9854 1.82062 8.24629 3.65083C5.50718 5.48105 3.37231 8.0824 2.11164 11.1259C0.850967 14.1695 0.521118 17.5185 1.1638 20.7495C1.80649 23.9805 3.39284 26.9483 5.72226 29.2777C8.05168 31.6072 11.0195 33.1935 14.2505 33.8362C17.4815 34.4789 20.8305 34.149 23.8741 32.8884C26.9176 31.6277 29.519 29.4928 31.3492 26.7537C33.1794 24.0146 34.1563 20.7943 34.1563 17.5C34.1516 13.0839 32.3952 8.85005 29.2726 5.7274C26.15 2.60476 21.9161 0.848413 17.5 0.84375ZM6.67345 8.48641L9.40731 11.2203C8.27546 12.6683 7.55608 14.3954 7.32528 16.2188H3.46551C3.72302 13.3749 4.84216 10.6773 6.67345 8.48641ZM3.46551 18.7812H7.33329C7.56408 20.6046 8.28347 22.3317 9.41532 23.7797L6.67345 26.5136C4.84216 24.3227 3.72302 21.6251 3.46551 18.7812ZM16.2188 31.5345C13.3754 31.2784 10.6779 30.1609 8.48641 28.3314L11.2203 25.5975C12.6697 26.7248 14.3967 27.4397 16.2188 27.6667V31.5345ZM16.2188 7.33328C14.3954 7.56408 12.6683 8.28346 11.2203 9.41531L8.48641 6.67344C10.6779 4.84389 13.3754 3.72645 16.2188 3.47031V7.33328ZM31.5345 16.2188H27.6667C27.4383 14.3962 26.7217 12.6692 25.5927 11.2203L28.3266 8.48641C30.1579 10.6773 31.277 13.3749 31.5345 16.2188ZM18.7813 3.46551C21.6246 3.72164 24.3221 4.83909 26.5136 6.66863L23.7797 9.4073C22.3317 8.27545 20.6046 7.55607 18.7813 7.32527V3.46551ZM18.7813 31.5345V27.6667C20.6038 27.4383 22.3308 26.7217 23.7797 25.5927L26.5136 28.3266C24.3227 30.1578 21.6251 31.277 18.7813 31.5345ZM28.3266 26.5136L25.5927 23.7797C26.7217 22.3308 27.4383 20.6038 27.6667 18.7812H31.5345C31.277 21.6251 30.1579 24.3227 28.3266 26.5136Z" fill="white"/>
</svg>
