<svg width="24" height="26" viewBox="0 0 24 26" fill="none" xmlns="http://www.w3.org/2000/svg">
<path d="M23.8647 25.438C23.7708 25.6079 23.6327 25.7497 23.4648 25.8485C23.2969 25.9474 23.1053 25.9997 22.9101 26H16.3645C16.1809 25.9999 16.0003 25.9539 15.8394 25.866C15.6785 25.7782 15.5425 25.6515 15.4441 25.4976L9.92258 16.881L1.89876 25.6452C1.70316 25.8539 1.43262 25.9775 1.1458 25.9894C0.858984 26.0013 0.579001 25.9005 0.366555 25.7088C0.15411 25.5171 0.0263242 25.2499 0.0109028 24.9653C-0.00451858 24.6806 0.0936676 24.4014 0.284174 24.1881L8.70755 14.9798L0.170989 1.66563C0.0658524 1.50183 0.0069973 1.31298 0.000586255 1.11884C-0.00582479 0.924705 0.040444 0.732428 0.134548 0.562144C0.228652 0.39186 0.36713 0.249833 0.53548 0.150935C0.703831 0.052037 0.895862 -9.4336e-05 1.09146 1.28151e-07H7.63707C7.82068 5.65097e-05 8.0013 0.0461299 8.1622 0.133951C8.32311 0.221773 8.45909 0.348501 8.55755 0.502396L14.079 9.11896L22.1029 0.354792C22.2985 0.14614 22.569 0.0224568 22.8558 0.0105568C23.1426 -0.00134312 23.4226 0.0994996 23.6351 0.291222C23.8475 0.482944 23.9753 0.750092 23.9907 1.03475C24.0061 1.31941 23.9079 1.59863 23.7174 1.81188L15.2941 11.0134L23.8306 24.3357C23.9352 24.4996 23.9935 24.6883 23.9995 24.8822C24.0055 25.0761 23.9589 25.2681 23.8647 25.438Z" fill="black"/>
</svg>
