<svg xmlns="http://www.w3.org/2000/svg" width="471" height="190" fill="none"><g stroke="#000" clip-path="url(#a)"><path fill="#F4DD55" d="M6.277 256.583C8 272.631 28.242 284.545 40.685 289.221c48.137 25.125 145.23 75.484 148.503 75.923 4.091.549 198.054-7.761 195.998-29.684-2.055-21.924 77.581-31.84 64.64-53.35-12.94-21.509-48.703-4.872-60.985-31.289s64.692-33.57 41.466-69.99c-23.227-36.42-62.822-3.644-82.239-11.037s13.112-74.42-3.261-84.319-65.566 33.869-86.188 32.35 3.213-78.246-33.046-71.873-42.187 67.603-59.703 70.872c-40.247 5.79-7.309-42.998-42.605-47.075-11.865-1.37-23.867 4.888-29.639 15.345-20.747 37.586 26.749 71.981 9.625 82.437-19.282 11.774-48.698-28.183-63.622-8.539s27.006 51.705 19.495 64.226c-5.788 9.646-21.558 8.934-36.656 13.571-9.047 2.778-17.2 10.384-16.19 19.794Z"/><path d="M106.287 185.674c4.423 1.649 13.166 7.298 12.748 16.7M325.563 149.856c-4.38-2.735-13.399-5.664-14.433 4.505M319.83 141.012c-4.38-2.735-13.398-5.663-14.433 4.506"/><path fill="#8432ED" d="M170.871 141.152c3.028 6.822.892 14.212-4.524 16.616s-12.33-.968-15.359-7.79c-3.028-6.821-.892-14.212 4.524-16.616s12.33.968 15.359 7.79Z"/><path fill="#57F0CD" d="M334.15 187.563c-.895 6.668-6.515 11.339-12.475 10.539-5.961-.8-10.15-6.787-9.255-13.456s6.515-11.34 12.475-10.54c5.961.8 10.15 6.788 9.255 13.457Z"/><path fill="#57F0CD" d="M6.277 256.583C8 272.631 28.242 284.545 40.685 289.221c48.137 25.125 145.23 75.484 148.503 75.923 4.091.549 198.054-7.761 195.998-29.684-2.055-21.924 77.581-31.84 64.64-53.35-12.94-21.509-48.703-4.872-60.985-31.289s64.692-33.57 41.466-69.99c-23.227-36.42-62.822-3.644-82.239-11.037s13.112-74.42-3.261-84.319-65.566 33.869-86.188 32.35 3.213-78.246-33.046-71.873-42.187 67.603-59.703 70.872c-40.247 5.79-7.309-42.998-42.605-47.075-11.865-1.37-23.867 4.888-29.639 15.345-20.747 37.586 26.749 71.981 9.625 82.437-19.282 11.774-48.698-28.183-63.622-8.539s27.006 51.705 19.495 64.226c-5.788 9.646-21.558 8.934-36.656 13.571-9.047 2.778-17.2 10.384-16.19 19.794Z"/><path d="M106.287 185.674c4.423 1.649 13.166 7.298 12.748 16.7M325.563 149.856c-4.38-2.735-13.399-5.664-14.433 4.505M319.83 141.012c-4.38-2.735-13.398-5.663-14.433 4.506"/><path fill="#8432ED" d="M170.871 141.152c3.028 6.822.892 14.212-4.524 16.616s-12.33-.968-15.359-7.79c-3.028-6.821-.892-14.212 4.524-16.616s12.33.968 15.359 7.79Z"/><path fill="#4890C4" d="M334.15 187.563c-.895 6.668-6.515 11.339-12.475 10.539-5.961-.8-10.15-6.787-9.255-13.456s6.515-11.34 12.475-10.54c5.961.8 10.15 6.788 9.255 13.457Z"/><path fill="#D89BFF" d="M6.277 256.583C8 272.631 28.242 284.545 40.685 289.221c48.137 25.125 145.23 75.484 148.503 75.923 4.091.549 198.054-7.761 195.998-29.684-2.055-21.924 77.581-31.84 64.64-53.35-12.94-21.509-48.703-4.872-60.985-31.289s64.692-33.57 41.466-69.99c-23.227-36.42-62.822-3.644-82.239-11.037s13.112-74.42-3.261-84.319-65.566 33.869-86.188 32.35 3.213-78.246-33.046-71.873-42.187 67.603-59.703 70.872c-40.247 5.79-7.309-42.998-42.605-47.075-11.865-1.37-23.867 4.888-29.639 15.345-20.747 37.586 26.749 71.981 9.625 82.437-19.282 11.774-48.698-28.183-63.622-8.539s27.006 51.705 19.495 64.226c-5.788 9.646-21.558 8.934-36.656 13.571-9.047 2.778-17.2 10.384-16.19 19.794Z"/><path d="M106.287 185.674c4.423 1.649 13.166 7.298 12.748 16.7M325.563 149.856c-4.38-2.735-13.399-5.664-14.433 4.505M319.83 141.012c-4.38-2.735-13.398-5.663-14.433 4.506"/><path fill="#8432ED" d="M170.871 141.152c3.028 6.822.892 14.212-4.524 16.616s-12.33-.968-15.359-7.79c-3.028-6.821-.892-14.212 4.524-16.616s12.33.968 15.359 7.79Z"/><path fill="#F6F466" d="M334.15 187.563c-.895 6.668-6.515 11.339-12.475 10.539-5.961-.8-10.15-6.787-9.255-13.456s6.515-11.34 12.475-10.54c5.961.8 10.15 6.788 9.255 13.457Z"/></g><defs><clipPath id="a"><path fill="#fff" d="M.986.365H470.87V189.25H.986z"/></clipPath></defs></svg>