<svg xmlns="http://www.w3.org/2000/svg" width="361" height="92" fill="none"><g filter="url(#a)"><mask id="b" width="351" height="82" x="0" y="0" fill="#000" maskUnits="userSpaceOnUse"><path fill="#fff" d="M0 0h351v82H0z"/><path d="m347.138 1-24.614 18.985 27.464 21.183v1.477l-27.464 21.183L344.788 81H1V1z"/></mask><path fill="#7A64F4" d="m347.138 1-24.614 18.985 27.464 21.183v1.477l-27.464 21.183L344.788 81H1V1z"/><path fill="#000" d="m322.524 19.985-.611-.792-1.027.792 1.027.792zM347.138 1l.611.792L350.072 0h-2.934zm2.85 40.168h1v-.492l-.39-.3zm0 1.477.61.792.39-.3v-.492zm-27.464 21.183-.611-.792-1.027.792 1.027.792zM344.788 81v1h2.933l-2.323-1.792zM1 81H0v1h1zM1 1V0H0v1zm322.135 19.777 24.614-18.985-1.222-1.584-24.614 18.985zm27.463 19.6-27.463-21.184-1.222 1.584 27.464 21.183zm.39 2.268v-1.477h-2v1.477zM323.135 64.62l27.463-21.183-1.221-1.584-27.464 21.183zm22.263 15.588-22.263-17.172-1.222 1.584 22.264 17.172zM1 82h343.788v-2H1zM0 1v80h2V1zm347.138-1H1v2h346.138z" mask="url(#b)"/></g><defs><filter id="a" width="360.988" height="92" x="0" y="0" color-interpolation-filters="sRGB" filterUnits="userSpaceOnUse"><feFlood flood-opacity="0" result="BackgroundImageFix"/><feColorMatrix in="SourceAlpha" result="hardAlpha" values="0 0 0 0 0 0 0 0 0 0 0 0 0 0 0 0 0 0 127 0"/><feOffset dx="10" dy="10"/><feComposite in2="hardAlpha" operator="out"/><feColorMatrix values="0 0 0 0 0 0 0 0 0 0 0 0 0 0 0 0 0 0 1 0"/><feBlend in2="BackgroundImageFix" result="effect1_dropShadow_3866_34236"/><feBlend in="SourceGraphic" in2="effect1_dropShadow_3866_34236" result="shape"/></filter></defs></svg>