<svg xmlns="http://www.w3.org/2000/svg" width="1920" height="2631" fill="none"><path fill="#A393FE" d="M780.668-206.122 81.308-753.26a364.8 364.8 0 0 0-130.355-65.047l-336.363-90.128c-287.276-76.975-591.874 35.512-760.17 280.727-191.39 278.875-156.61 654.598 82.73 893.595l181.193 180.932c240.95 240.605 335.117 591.541 246.987 920.451-136.141 508.08 165.38 1030.33 673.464 1166.47l348.277 93.32a986.16 986.16 0 0 1 518.493 341.13l68.95 87.25c160.036 202.52 410.216 312.33 667.616 293.03 542.31-40.67 876.08-611.59 645.5-1104.11l-333.65-712.63c-84.11-179.67-284.76-273.37-476.52-222.53-286.85 76.04-557.006-168.32-510.038-461.342l65.798-410.474c39.18-244.477-57.542-490.941-252.552-643.506"/></svg>