<svg xmlns="http://www.w3.org/2000/svg" width="186" height="74" fill="none"><mask id="a" width="186" height="74" x="0" y="0" fill="#000" maskUnits="userSpaceOnUse"><path fill="#fff" d="M0 0h186v74H0z"/><path d="m180.063 2-22.149 17.084 22.359 17.245v1.2l-22.359 17.246 21.508 16.59H2V2z"/></mask><path fill="#D89BFF" d="m180.063 2-22.149 17.084 22.359 17.245v1.2l-22.359 17.246 21.508 16.59H2V2z"/><path fill="#000" d="m157.914 19.084-1.221-1.583-2.052 1.582 2.052 1.583zM180.063 2l1.221 1.583L185.927 0h-5.864zm.21 34.329h1.999v-.983l-.779-.6zm0 1.2 1.22 1.583.779-.6v-.982zm-22.359 17.246-1.221-1.583-2.052 1.583 2.052 1.583zm21.508 16.59v1.998h5.864l-4.643-3.582zM2 71.364H.001v1.998H2zM2 2V.001H.001V2zm157.135 18.666 22.149-17.083-2.442-3.166-22.149 17.084zm22.358 14.08-22.358-17.245-2.442 3.165 22.359 17.245zm.779 2.784v-1.201h-3.998v1.2zm-23.137 18.828 22.358-17.246-2.441-3.165-22.359 17.245zm21.508 13.423-21.508-16.589-2.442 3.166 21.508 16.589zM2 73.363h177.422v-3.998H2zM.001 2v69.364H4V2zM180.063.001H2V4h178.063z" mask="url(#a)"/></svg>