<svg width="544" height="653" viewBox="0 0 544 653" fill="none" xmlns="http://www.w3.org/2000/svg">
<g opacity="0.32" filter="url(#filter0_d_5017_38134)">
<path d="M183.539 300.136C183.539 382.903 167.69 457.785 142.111 511.938C116.496 566.168 81.3051 599.272 42.7694 599.272C4.23375 599.272 -30.9569 566.168 -56.5725 511.938C-82.1517 457.785 -98 382.903 -98 300.136C-98 217.37 -82.1517 142.488 -56.5725 88.335C-30.9569 34.1048 4.23375 1 42.7694 1C81.3051 1 116.496 34.1048 142.111 88.335C167.69 142.488 183.539 217.37 183.539 300.136Z" stroke="#312C2C" stroke-opacity="0.6" strokeWidth="2"/>
<path d="M341.214 300.136C341.214 382.903 325.365 457.785 299.786 511.938C274.17 566.168 238.98 599.272 200.444 599.272C161.909 599.272 126.718 566.168 101.102 511.938C75.5231 457.785 59.6748 382.903 59.6748 300.136C59.6748 217.37 75.5231 142.488 101.102 88.335C126.718 34.1048 161.909 1 200.444 1C238.98 1 274.17 34.1048 299.786 88.335C325.365 142.488 341.214 217.37 341.214 300.136Z" stroke="#312C2C" stroke-opacity="0.6" strokeWidth="2"/>
<path d="M539 300.136C539 382.903 523.151 457.785 497.572 511.938C471.957 566.168 436.766 599.272 398.23 599.272C359.695 599.272 324.504 566.168 298.888 511.938C273.309 457.785 257.461 382.903 257.461 300.136C257.461 217.37 273.309 142.488 298.888 88.335C324.504 34.1048 359.695 1 398.23 1C436.766 1 471.957 34.1048 497.572 88.335C523.151 142.488 539 217.37 539 300.136Z" stroke="#312C2C" stroke-opacity="0.6" strokeWidth="2"/>
</g>
<path d="M155.5 539L163.012 575.541L192.46 552.335L174.521 585.114L212.126 586.102L177.129 599.781L205.296 624.5L169.618 612.678L175.166 649.562L155.5 617.772L135.834 649.562L141.382 612.678L105.704 624.5L133.871 599.781L98.8736 586.102L136.479 585.114L118.54 552.335L147.988 575.541L155.5 539Z" fill="#EEDC3B"/>
<defs>
<filter id="filter0_d_5017_38134" x="-103" y="0" width="647" height="608.273" filterUnits="userSpaceOnUse" color-interpolation-filters="sRGB">
<feFlood flood-opacity="0" result="BackgroundImageFix"/>
<feColorMatrix in="SourceAlpha" type="matrix" values="0 0 0 0 0 0 0 0 0 0 0 0 0 0 0 0 0 0 127 0" result="hardAlpha"/>
<feOffset dy="4"/>
<feGaussianBlur stdDeviation="2"/>
<feComposite in2="hardAlpha" operator="out"/>
<feColorMatrix type="matrix" values="0 0 0 0 0 0 0 0 0 0 0 0 0 0 0 0 0 0 0.21 0"/>
<feBlend mode="normal" in2="BackgroundImageFix" result="effect1_dropShadow_5017_38134"/>
<feBlend mode="normal" in="SourceGraphic" in2="effect1_dropShadow_5017_38134" result="shape"/>
</filter>
</defs>
</svg>
