<svg width="378" height="647" viewBox="0 0 378 647" fill="none" xmlns="http://www.w3.org/2000/svg">
<g opacity="0.32">
<path d="M283.039 346.136C283.039 428.96 267.181 503.918 241.563 558.151C215.928 612.423 180.612 645.772 141.769 645.772C102.927 645.772 67.6108 612.423 41.9754 558.151C16.3582 503.918 0.5 428.96 0.5 346.136C0.5 263.313 16.3582 188.355 41.9754 134.121C67.6108 79.8493 102.927 46.5 141.769 46.5C180.612 46.5 215.928 79.8493 241.563 134.121C267.181 188.355 283.039 263.313 283.039 346.136Z" stroke="#6A6A6A"/>
<path d="M440.714 346.136C440.714 428.96 424.855 503.918 399.238 558.151C373.603 612.423 338.286 645.772 299.444 645.772C260.602 645.772 225.286 612.423 199.65 558.151C174.033 503.918 158.175 428.96 158.175 346.136C158.175 263.313 174.033 188.355 199.65 134.121C225.286 79.8493 260.602 46.5 299.444 46.5C338.286 46.5 373.603 79.8493 399.238 134.121C424.855 188.355 440.714 263.313 440.714 346.136Z" stroke="#6A6A6A"/>
<path d="M638.5 346.136C638.5 428.96 622.642 503.918 597.024 558.151C571.389 612.423 536.072 645.772 497.23 645.772C458.388 645.772 423.072 612.423 397.436 558.151C371.819 503.918 355.961 428.96 355.961 346.136C355.961 263.313 371.819 188.355 397.436 134.121C423.072 79.8493 458.388 46.5 497.23 46.5C536.072 46.5 571.389 79.8493 597.024 134.121C622.642 188.355 638.5 263.313 638.5 346.136Z" stroke="#6A6A6A"/>
</g>
<path fillRule="evenodd" clipRule="evenodd" d="M179.102 596.804C202.614 596.687 221.642 577.609 221.681 554.078C221.719 577.609 240.747 596.687 264.26 596.804C240.747 596.922 221.719 615.999 221.681 639.53C221.643 615.999 202.614 596.922 179.102 596.804Z" fill="#4B2ED1"/>
<rect x="249" y="36.4727" width="42.7042" height="42.7042" rx="4.06988" transform="rotate(-25.281 249 36.4727)" fill="#DE9CFD"/>
<rect x="305.852" y="56.8516" width="42.7042" height="42.7042" rx="4.06988" transform="rotate(-25.281 305.852 56.8516)" fill="#DE9CFD"/>
</svg>
