<svg width="1901" height="1002" viewBox="0 0 1901 1002" fill="none" xmlns="http://www.w3.org/2000/svg">
<g opacity="0.3">
<path d="M1901 0H0V2.7419H19.8021L10.4555 9.816H0V12.5579H6.8436L0 17.7675V20.7288L10.7723 12.5579H43.8181L29.1803 24.1287H0V26.8706H25.7269L8.83965 40.1963H0V42.9382H5.35448L0 47.1607V50.1768L9.18817 42.9382H43.9131L24.4595 58.9509H0V61.6928H21.1328L0 79.0764V82.0925L24.8081 61.6928H60.6736L36.8477 82.1473H0V84.8892H33.6477L3.58022 110.773H0V113.515H0.411883L0 113.844V116.915L3.96042 113.515H42.6141L9.91688 142.908H0V145.65H6.87528L0 151.846V154.917L10.2971 145.65H50.725L14.8278 179.54H0V182.282H11.9129L0 193.523V196.649L15.2397 182.282H57.6953L19.0417 220.613H0V223.355H16.2535L0 239.478V242.658L19.4536 223.355H64.1588L21.4813 267.993H0V270.735H18.8833L0 290.477V293.658L21.9249 270.735H69.1964L24.8081 319.76H0V322.502H22.3368L0 347.179V350.47L25.2833 322.502H75.343L28.9269 376.956H0V379.698H26.5823L0 410.846V414.137L29.4021 379.698H82.5351L34.6299 439.472H0V442.214H32.4437L0 482.684V486.084L35.1368 442.214H91.6282L44.1349 505.606H0V508.348H42.0755L0 564.448V567.902L44.6735 508.348H104.713L56.1112 577.938H0V580.68H54.2102L2.50298 654.766H0V657.508H0.5703L0 658.33V661.895L3.07328 657.508H70.9073L18.9783 737.845H0V740.587H17.2041L0 767.184V770.913L19.612 740.587H91.85L40.9032 826.244H0V828.986H39.2556L0 895.066V898.85L41.5368 828.986H118.464L69.038 920.072H0V922.814H67.5489L24.5229 1002H26.7091L69.7033 922.814H151.573L112.698 1002H114.757L153.664 922.814H235.597L200.809 1002H202.773L237.593 922.814H319.621L288.92 1002H290.853L321.554 922.814H403.646L377.032 1002H378.869L405.483 922.814H487.67L465.143 1002H466.917L489.444 922.814H571.694L553.286 1002H554.997L573.405 922.814H655.718L641.366 1002H643.013L657.366 922.814H739.711L729.477 1002H731.125L741.327 922.814H823.703L817.557 1002H819.173L825.319 922.814H907.727L905.668 1002H907.252L909.312 922.814H991.688L993.748 1002H995.332L993.272 922.814H1075.68L1081.83 1002H1083.44L1077.3 922.814H1159.67L1169.88 1002H1171.52L1161.29 922.814H1243.63L1257.99 1002H1259.63L1245.28 922.814H1327.59L1346 1002H1347.71L1329.31 922.814H1411.56L1434.08 1002H1435.86L1413.33 922.814H1495.52L1522.13 1002H1523.97L1497.35 922.814H1579.45L1610.15 1002H1612.08L1581.38 922.814H1663.41L1698.23 1002H1700.19L1665.4 922.814H1747.34L1786.24 1002H1788.3L1749.43 922.814H1831.3L1874.29 1002H1876.48L1833.45 922.814H1901V920.072H1831.96L1782.54 828.986H1859.46L1901 898.85V895.066L1861.74 828.986H1901V826.244H1860.1L1809.15 740.587H1881.39L1901 770.913V767.184L1883.8 740.587H1901V737.845H1882.02L1830.09 657.508H1897.93L1901 661.895V658.33L1900.43 657.508H1901V654.766H1898.5L1846.79 580.68H1901V577.938H1844.89L1796.29 508.348H1856.33L1901 567.902V564.448L1858.92 508.348H1901V505.606H1856.87L1809.37 442.214H1865.86L1901 486.084V482.684L1868.56 442.214H1901V439.472H1866.37L1818.46 379.698H1871.6L1901 414.137V410.846L1874.42 379.698H1901V376.956H1872.07L1825.66 322.502H1875.72L1901 350.47V347.179L1878.66 322.502H1901V319.76H1876.19L1831.8 270.735H1879.08L1901 293.658V290.477L1882.12 270.735H1901V267.993H1879.52L1836.84 223.355H1881.55L1901 242.658V239.478L1884.75 223.355H1901V220.613H1881.96L1843.3 182.282H1885.76L1901 196.649V193.523L1889.09 182.282H1901V179.54H1886.17L1850.27 145.65H1890.7L1901 154.917V151.846L1894.12 145.65H1901V142.908H1891.08L1858.39 113.515H1897.04L1901 116.915V113.844L1900.59 113.515H1901V110.773H1897.42L1867.35 84.8892H1901V82.1473H1864.15L1840.33 61.6928H1876.19L1901 82.0925V79.0764L1879.87 61.6928H1901V58.9509H1876.54L1857.09 42.9382H1891.81L1901 50.1768V47.1607L1895.65 42.9382H1901V40.1963H1892.16L1875.27 26.8706H1901V24.1287H1871.79L1857.18 12.5579H1890.23L1901 20.7288V17.7675L1894.16 12.5579H1901V9.816H1890.54L1881.2 2.7419H1901V0ZM1840.9 2.7419L1849.89 9.816H1816.85L1808.23 2.7419H1840.9ZM782.768 220.613H736.764L745.699 182.282H789.707L782.768 220.613ZM791.355 182.282H835.426L830.484 220.613H784.416L791.355 182.282ZM544.953 223.355H590.831L573.532 267.993H525.373L544.953 223.355ZM523.377 267.993H475.282L497.175 223.355H542.957L523.377 267.993ZM592.732 223.355H638.704L623.718 267.993H575.464L592.732 223.355ZM640.542 223.355H686.578L673.873 267.993H625.556L640.542 223.355ZM688.32 223.355H734.42L724.028 267.993H675.647L688.32 223.355ZM736.131 223.355H782.261L774.214 267.993H725.738L736.131 223.355ZM735.053 220.613H689.112L700.012 182.282H743.988L735.053 220.613ZM687.338 220.613H641.461L654.356 182.282H698.237L687.338 220.613ZM639.623 220.613H593.809L608.669 182.282H652.518L639.623 220.613ZM591.908 220.613H546.157L563.013 182.282H606.768L591.908 220.613ZM544.161 220.613H498.537L517.357 182.282H561.017L544.161 220.613ZM496.446 220.613H450.885L471.701 182.282H515.266L496.446 220.613ZM448.699 220.613H403.234L426.046 182.282H469.515L448.699 220.613ZM449.396 223.355H495.084L473.191 267.993H425.19L449.396 223.355ZM473.919 270.735H522.173L500.597 319.76H449.808L473.919 270.735ZM524.137 270.735H572.486L553.444 319.76H502.593L524.137 270.735ZM574.387 270.735H622.799L606.292 319.76H555.377L574.387 270.735ZM624.637 270.735H673.112L659.14 319.76H608.13L624.637 270.735ZM674.855 270.735H723.394L711.988 319.76H660.914L674.855 270.735ZM725.105 270.735H773.707L764.836 319.76H713.699L725.105 270.735ZM775.355 270.735H823.988L817.652 319.76H766.483L775.355 270.735ZM775.861 267.993L783.941 223.355H830.103L824.369 267.993H775.861ZM831.751 223.355H877.945L874.492 267.993H825.985L831.751 223.355ZM879.561 223.355H925.787L924.646 267.993H876.107L879.561 223.355ZM878.167 220.613H832.099L837.042 182.282H881.145L878.167 220.613ZM835.775 179.54H791.862L798.008 145.65H840.179L835.775 179.54ZM790.214 179.54H746.333L754.222 145.65H796.329L790.214 179.54ZM744.622 179.54H700.804L710.435 145.65H752.511L744.622 179.54ZM699.029 179.54H655.275L666.649 145.65H708.661L699.029 179.54ZM653.437 179.54H609.746L622.894 145.65H664.811L653.437 179.54ZM607.845 179.54H564.217L579.108 145.65H620.962L607.845 179.54ZM562.221 179.54H518.688L535.353 145.65H577.112L562.221 179.54ZM516.628 179.54H473.191L491.567 145.65H533.262L516.628 179.54ZM471.004 179.54H427.693L447.812 145.65H489.412L471.004 179.54ZM425.412 179.54H382.164L404.058 145.65H445.531L425.412 179.54ZM379.788 179.54H336.667L360.303 145.65H401.681L379.788 179.54ZM380.39 182.282H423.765L400.984 220.613H355.614L380.39 182.282ZM401.618 223.355H447.21L423.004 267.993H375.099L401.618 223.355ZM423.701 270.735H471.828L447.749 319.76H397.056L423.701 270.735ZM448.478 322.502H499.393L475.472 376.956H421.737L448.478 322.502ZM501.389 322.502H552.399L531.298 376.956H477.468L501.389 322.502ZM554.3 322.502H605.373L587.092 376.956H533.199L554.3 322.502ZM607.211 322.502H658.38L642.887 376.956H588.93L607.211 322.502ZM660.122 322.502H711.354L698.681 376.956H644.661L660.122 322.502ZM713.065 322.502H764.329L754.475 376.956H700.392L713.065 322.502ZM766.008 322.502H817.303L810.27 376.956H756.154L766.008 322.502ZM818.919 322.502H870.278L866.064 376.956H811.885L818.919 322.502ZM819.268 319.76L825.636 270.735H874.302L870.468 319.76H819.268ZM875.886 270.735H924.583L923.316 319.76H872.084L875.886 270.735ZM924.805 322.502H976.195L977.589 376.956H923.411L924.805 322.502ZM1166.58 223.355H1212.68L1225.35 267.993H1176.97L1166.58 223.355ZM1175.26 267.993H1126.79L1118.74 223.355H1164.87L1175.26 267.993ZM1214.42 223.355H1260.46L1275.44 267.993H1227.13L1214.42 223.355ZM1262.3 223.355H1308.24L1325.54 267.993H1277.28L1262.3 223.355ZM1310.17 223.355H1356.05L1375.66 267.993H1327.47L1310.17 223.355ZM1358.04 223.355H1403.83L1425.72 267.993H1377.62L1358.04 223.355ZM1385.73 182.282H1429.3L1450.11 220.613H1404.55L1385.73 182.282ZM1402.46 220.613H1356.84L1339.98 182.282H1383.64L1402.46 220.613ZM1354.84 220.613H1309.09L1294.23 182.282H1337.99L1354.84 220.613ZM1307.19 220.613H1261.38L1248.48 182.282H1292.33L1307.19 220.613ZM1259.54 220.613H1213.66L1202.76 182.282H1246.64L1259.54 220.613ZM1211.89 220.613H1165.95L1157.01 182.282H1200.99L1211.89 220.613ZM1164.24 220.613H1118.23L1111.29 182.282H1155.3L1164.24 220.613ZM1116.58 220.613H1070.52L1065.57 182.282H1109.65L1116.58 220.613ZM1075.02 267.993H1026.51L1023.05 223.355H1069.25L1075.02 267.993ZM1070.9 223.355H1117.06L1125.14 267.993H1076.66L1070.9 223.355ZM1125.65 270.735L1134.52 319.76H1083.35L1077.01 270.735H1125.65ZM1127.29 270.735H1175.9L1187.3 319.76H1136.16L1127.29 270.735ZM1177.61 270.735H1226.15L1240.09 319.76H1189.01L1177.61 270.735ZM1227.89 270.735H1276.36L1292.87 319.76H1241.86L1227.89 270.735ZM1278.2 270.735H1326.61L1345.62 319.76H1294.71L1278.2 270.735ZM1328.51 270.735H1376.86L1398.41 319.76H1347.56L1328.51 270.735ZM1378.83 270.735H1427.08L1451.19 319.76H1400.4L1378.83 270.735ZM1405.92 223.355H1451.6L1475.81 267.993H1427.81L1405.92 223.355ZM1431.48 182.282H1474.95L1497.77 220.613H1452.3L1431.48 182.282ZM1455.47 145.65H1496.94L1518.84 179.54H1475.59L1455.47 145.65ZM1473.34 179.54H1430L1411.59 145.65H1453.19L1473.34 179.54ZM1427.81 179.54H1384.37L1367.74 145.65H1409.4L1427.81 179.54ZM1382.31 179.54H1338.78L1323.89 145.65H1365.65L1382.31 179.54ZM1336.78 179.54H1293.16L1280.04 145.65H1321.89L1336.78 179.54ZM1291.25 179.54H1247.56L1236.19 145.65H1278.11L1291.25 179.54ZM1245.73 179.54H1201.97L1192.34 145.65H1234.35L1245.73 179.54ZM1200.2 179.54H1156.38L1148.49 145.65H1190.56L1200.2 179.54ZM1154.67 179.54H1110.79L1104.67 145.65H1146.78L1154.67 179.54ZM1109.14 179.54H1065.23L1060.85 145.65H1102.99L1109.14 179.54ZM1068.9 220.613H1022.83L1019.85 182.282H1063.96L1068.9 220.613ZM1024.89 267.993H976.354L975.213 223.355H1021.44L1024.89 267.993ZM976.417 270.735H1025.11L1028.92 319.76H977.684L976.417 270.735ZM1026.73 270.735H1075.36L1081.73 319.76H1030.53L1026.73 270.735ZM1082.08 322.502L1089.11 376.956H1034.97L1030.72 322.502H1082.08ZM1083.7 322.502H1135.02L1144.85 376.956H1090.73L1083.7 322.502ZM1136.67 322.502H1187.93L1200.61 376.956H1146.52L1136.67 322.502ZM1189.65 322.502H1240.88L1256.34 376.956H1202.32L1189.65 322.502ZM1242.62 322.502H1293.79L1312.07 376.956H1258.11L1242.62 322.502ZM1295.63 322.502H1346.7L1367.8 376.956H1313.91L1295.63 322.502ZM1348.6 322.502H1399.61L1423.53 376.956H1369.7L1348.6 322.502ZM1401.61 322.502H1452.52L1479.26 376.956H1425.53L1401.61 322.502ZM1429.17 270.735H1477.3L1503.94 319.76H1453.25L1429.17 270.735ZM1453.79 223.355H1499.38L1525.9 267.993H1478L1453.79 223.355ZM1477.24 182.282H1520.61L1545.39 220.613H1500.02L1477.24 182.282ZM1499.32 145.65H1540.7L1564.33 179.54H1521.21L1499.32 145.65ZM1520.74 113.515H1560.34L1582.39 142.908H1541.27L1520.74 113.515ZM1538.8 142.908H1497.54L1478.53 113.515H1518.27L1538.8 142.908ZM1495.17 142.908H1453.82L1436.33 113.515H1476.16L1495.17 142.908ZM1451.54 142.908H1410.1L1394.13 113.515H1434.05L1451.54 142.908ZM1407.94 142.908H1366.38L1351.93 113.515H1391.98L1407.94 142.908ZM1364.32 142.908H1322.68L1309.76 113.515H1349.87L1364.32 142.908ZM1320.69 142.908H1278.96L1267.56 113.515H1307.76L1320.69 142.908ZM1277.06 142.908H1235.27L1225.38 113.515H1265.65L1277.06 142.908ZM1233.43 142.908H1191.55L1183.18 113.515H1223.55L1233.43 142.908ZM1189.8 142.908H1147.86L1141.01 113.515H1181.44L1189.8 142.908ZM1146.14 142.908H1104.16L1098.84 113.515H1139.3L1146.14 142.908ZM1102.52 142.908H1060.47L1056.67 113.515H1097.19L1102.52 142.908ZM1063.58 179.54H1019.63L1017 145.65H1059.21L1063.58 179.54ZM1021.22 220.613H975.15L974.136 182.282H1018.27L1021.22 220.613ZM976.1 319.76H924.9L926.167 270.735H974.833L976.1 319.76ZM925.85 220.613H879.783L882.729 182.282H926.864L925.85 220.613ZM881.367 179.54H837.422L841.794 145.65H883.997L881.367 179.54ZM840.527 142.908H798.483L803.806 113.515H844.329L840.527 142.908ZM796.836 142.908H754.855L761.699 113.515H802.159L796.836 142.908ZM753.145 142.908H711.196L719.56 113.515H759.988L753.145 142.908ZM709.453 142.908H667.568L677.453 113.515H717.818L709.453 142.908ZM665.73 142.908H623.94L635.346 113.515H675.615L665.73 142.908ZM622.039 142.908H580.312L593.239 113.515H633.445L622.039 142.908ZM578.316 142.908H536.684L551.132 113.515H591.243L578.316 142.908ZM534.625 142.908H493.056L509.024 113.515H549.072L534.625 142.908ZM490.902 142.908H449.46L466.949 113.515H506.87L490.902 142.908ZM447.179 142.908H405.832L424.842 113.515H464.668L447.179 142.908ZM403.456 142.908H362.204L382.735 113.515H422.466L403.456 142.908ZM359.733 142.908H318.608L340.659 113.515H380.263L359.733 142.908ZM316.01 142.908H275.011L298.552 113.515H338.061L316.01 142.908ZM316.548 145.65H357.832L334.164 179.54H291.138L316.548 145.65ZM334.734 182.282H378.014L353.237 220.613H307.994L334.734 182.282ZM353.839 223.355H399.337L372.818 267.993H325.008L353.839 223.355ZM373.483 270.735H421.515L394.869 319.76H344.303L373.483 270.735ZM395.566 322.502H446.386L419.677 376.956H366.006L395.566 322.502ZM420.406 379.698H474.268L448.002 439.472H391.036L420.406 379.698ZM476.264 379.698H530.221L507.028 439.472H449.998L476.264 379.698ZM532.122 379.698H586.173L566.086 439.472H508.961L532.122 379.698ZM588.011 379.698H642.126L625.112 439.472H567.924L588.011 379.698ZM643.869 379.698H698.047L684.138 439.472H626.886L643.869 379.698ZM699.758 379.698H754L743.164 439.472H685.849L699.758 379.698ZM755.647 379.698H809.921L802.19 439.472H744.843L755.647 379.698ZM811.537 379.698H865.842L861.185 439.472H803.806L811.537 379.698ZM867.426 379.698H921.763L920.211 439.472H862.801L867.426 379.698ZM867.648 376.956L871.862 322.502H923.221L921.827 376.956H867.648ZM923.347 379.698H977.653L979.205 439.472H921.795L923.347 379.698ZM979.173 376.956L977.779 322.502H1029.14L1033.35 376.956H979.173ZM1033.57 379.698L1038.2 439.472H980.789L979.237 379.698H1033.57ZM1035.16 379.698H1089.46L1097.19 439.472H1039.82L1035.16 379.698ZM1091.08 379.698H1145.35L1156.19 439.472H1098.81L1091.08 379.698ZM1147 379.698H1201.24L1215.15 439.472H1157.84L1147 379.698ZM1202.95 379.698H1257.13L1274.11 439.472H1216.86L1202.95 379.698ZM1258.87 379.698H1312.99L1333.08 439.472H1275.89L1258.87 379.698ZM1314.83 379.698H1368.88L1392.04 439.472H1334.91L1314.83 379.698ZM1370.78 379.698H1424.74L1451 439.472H1393.97L1370.78 379.698ZM1426.73 379.698H1480.59L1509.96 439.472H1453L1426.73 379.698ZM1454.61 322.502H1505.43L1534.96 376.956H1481.32L1454.61 322.502ZM1479.48 270.735H1527.55L1556.7 319.76H1506.13L1479.48 270.735ZM1501.66 223.355H1547.16L1575.99 267.993H1528.18L1501.66 223.355ZM1522.99 182.282H1566.27L1593.01 220.613H1547.76L1522.99 182.282ZM1543.17 145.65H1584.45L1609.86 179.54H1566.84L1543.17 145.65ZM1562.94 113.515H1602.45L1625.99 142.908H1584.99L1562.94 113.515ZM1582.23 84.8892H1620.13L1642.18 110.773H1602.95L1582.23 84.8892ZM1600.23 110.773H1560.88L1541.52 84.8892H1579.54L1600.23 110.773ZM1558.28 110.773H1518.84L1500.78 84.8892H1538.92L1558.28 110.773ZM1516.33 110.773H1476.76L1460.06 84.8892H1498.3L1516.33 110.773ZM1474.38 110.773H1434.72L1419.35 84.8892H1457.69L1474.38 110.773ZM1432.44 110.773H1392.64L1378.61 84.8892H1417.07L1432.44 110.773ZM1390.49 110.773H1350.6L1337.89 84.8892H1376.45L1390.49 110.773ZM1348.51 110.773H1308.55L1297.18 84.8892H1335.83L1348.51 110.773ZM1306.56 110.773H1266.51L1256.47 84.8892H1295.18L1306.56 110.773ZM1264.58 110.773H1224.47L1215.78 84.8892H1254.56L1264.58 110.773ZM1222.63 110.773H1182.42L1175.07 84.8892H1213.95L1222.63 110.773ZM1180.65 110.773H1140.38L1134.36 84.8892H1173.3L1180.65 110.773ZM1138.67 110.773H1098.33L1093.68 84.8892H1132.65L1138.67 110.773ZM1096.69 110.773H1056.32L1053 84.8892H1092.03L1096.69 110.773ZM1058.86 142.908H1016.81L1014.53 113.515H1055.05L1058.86 142.908ZM1018.05 179.54H974.072L973.185 145.65H1015.42L1018.05 179.54ZM974.769 267.993H926.231L927.371 223.355H973.629L974.769 267.993ZM926.928 179.54H882.951L885.581 145.65H927.815L926.928 179.54ZM884.187 142.908H842.143L845.945 113.515H886.468L884.187 142.908ZM844.678 110.773H804.313L809.002 84.8892H848.004L844.678 110.773ZM802.634 110.773H762.333L768.352 84.8892H807.323L802.634 110.773ZM760.622 110.773H720.352L727.703 84.8892H766.642L760.622 110.773ZM718.578 110.773H678.372L687.053 84.8892H725.929L718.578 110.773ZM676.534 110.773H636.423L646.435 84.8892H685.215L676.534 110.773ZM634.49 110.773H594.443L605.817 84.8892H644.534L634.49 110.773ZM592.447 110.773H552.494L565.167 84.8892H603.821L592.447 110.773ZM550.403 110.773H510.514L524.549 84.8892H563.108L550.403 110.773ZM508.359 110.773H468.565L483.931 84.8892H522.395L508.359 110.773ZM466.284 110.773H426.616L443.313 84.8892H481.65L466.284 110.773ZM424.24 110.773H384.667L402.695 84.8892H440.937L424.24 110.773ZM382.164 110.773H342.719L362.077 84.8892H400.224L382.164 110.773ZM340.121 110.773H300.77L321.459 84.8892H359.479L340.121 110.773ZM298.045 110.773H258.821L280.873 84.8892H318.766L298.045 110.773ZM256.001 110.773H216.872L240.255 84.8892H278.021L256.001 110.773ZM256.477 113.515H295.859L272.287 142.908H231.383L256.477 113.515ZM272.793 145.65H313.95L288.54 179.54H245.641L272.793 145.65ZM289.11 182.282H332.263L305.491 220.613H260.342L289.11 182.282ZM306.061 223.355H351.463L322.631 267.993H274.948L306.061 223.355ZM323.233 270.735H371.202L342.022 319.76H291.55L323.233 270.735ZM342.655 322.502H393.38L363.851 376.956H310.307L342.655 322.502ZM364.517 379.698H418.315L388.945 439.472H332.073L364.517 379.698ZM389.673 442.214H446.798L418.949 505.606H358.56L389.673 442.214ZM448.794 442.214H505.983L481.397 505.606H420.945L448.794 442.214ZM507.884 442.214H565.167L543.876 505.606H483.329L507.884 442.214ZM567.005 442.214H624.32L606.324 505.606H545.714L567.005 442.214ZM626.094 442.214H683.505L668.772 505.606H608.098L626.094 442.214ZM685.215 442.214H742.657L731.22 505.606H670.483L685.215 442.214ZM744.336 442.214H801.842L793.636 505.606H732.867L744.336 442.214ZM803.458 442.214H860.995L856.084 505.606H795.283L803.458 442.214ZM862.579 442.214H920.147L918.5 505.606H857.668L862.579 442.214ZM921.732 442.214H979.268L980.916 505.606H920.084L921.732 442.214ZM980.853 442.214H1038.42L1043.33 505.606H982.5L980.853 442.214ZM1040.01 442.214H1097.54L1105.75 505.606H1044.92L1040.01 442.214ZM1099.16 442.214H1156.66L1168.13 505.606H1107.36L1099.16 442.214ZM1158.34 442.214H1215.78L1230.52 505.606H1169.78L1158.34 442.214ZM1217.5 442.214H1274.91L1292.9 505.606H1232.23L1217.5 442.214ZM1276.68 442.214H1334L1355.32 505.606H1294.68L1276.68 442.214ZM1335.83 442.214H1393.12L1417.67 505.606H1357.12L1335.83 442.214ZM1395.02 442.214H1452.21L1480.06 505.606H1419.6L1395.02 442.214ZM1454.2 442.214H1511.33L1542.44 505.606H1482.05L1454.2 442.214ZM1482.68 379.698H1536.45L1568.93 439.472H1512.06L1482.68 379.698ZM1507.62 322.502H1558.34L1590.69 376.956H1537.15L1507.62 322.502ZM1529.8 270.735H1577.77L1609.45 319.76H1558.98L1529.8 270.735ZM1549.54 223.355H1594.94L1626.05 267.993H1578.37L1549.54 223.355ZM1568.74 182.282H1611.89L1640.66 220.613H1595.51L1568.74 182.282ZM1587.05 145.65H1628.21L1655.36 179.54H1612.46L1587.05 145.65ZM1605.14 113.515H1644.52L1669.62 142.908H1628.71L1605.14 113.515ZM1622.98 84.8892H1660.75L1684.13 110.773H1645L1622.98 84.8892ZM1620.63 82.1473L1603.14 61.6928H1639.74L1658.27 82.1473H1620.63ZM1617.81 82.1473H1580.05L1563.64 61.6928H1600.33L1617.81 82.1473ZM1577.32 82.1473H1539.46L1524.1 61.6928H1560.91L1577.32 82.1473ZM1536.86 82.1473H1498.88L1484.59 61.6928H1521.5L1536.86 82.1473ZM1496.37 82.1473H1458.29L1445.05 61.6928H1482.08L1496.37 82.1473ZM1455.91 82.1473H1417.7L1405.54 61.6928H1442.67L1455.91 82.1473ZM1415.45 82.1473H1377.12L1366.03 61.6928H1403.25L1415.45 82.1473ZM1374.96 82.1473H1336.56L1326.49 61.6928H1363.84L1374.96 82.1473ZM1334.47 82.1473H1295.98L1286.98 61.6928H1324.43L1334.47 82.1473ZM1293.98 82.1473H1255.42L1247.47 61.6928H1284.98L1293.98 82.1473ZM1253.52 82.1473H1214.83L1207.96 61.6928H1245.57L1253.52 82.1473ZM1213.03 82.1473H1174.28L1168.45 61.6928H1206.12L1213.03 82.1473ZM1172.54 82.1473H1133.72L1128.97 61.6928H1166.71L1172.54 82.1473ZM1132.01 82.1473H1093.17L1089.46 61.6928H1127.26L1132.01 82.1473ZM1091.52 82.1473H1052.65L1049.99 61.6928H1087.82L1091.52 82.1473ZM1054.71 110.773H1014.31L1012.31 84.8892H1051.35L1054.71 110.773ZM1015.2 142.908H973.122L972.361 113.515H1012.92L1015.2 142.908ZM973.534 220.613H927.466L928.448 182.282H972.552L973.534 220.613ZM927.878 142.908H885.803L888.084 113.515H928.638L927.878 142.908ZM886.69 110.773H846.293L849.652 84.8892H888.686L886.69 110.773ZM848.353 82.1473H809.477L813.184 61.6928H851.014L848.353 82.1473ZM807.83 82.1473H768.986L773.739 61.6928H811.537L807.83 82.1473ZM767.275 82.1473H728.463L734.293 61.6928H772.028L767.275 82.1473ZM726.721 82.1473H687.972L694.879 61.6928H732.55L726.721 82.1473ZM686.166 82.1473H647.481L655.433 61.6928H693.041L686.166 82.1473ZM645.58 82.1473H607.021L616.019 61.6928H653.532L645.58 82.1473ZM605.025 82.1473H566.53L576.573 61.6928H614.023L605.025 82.1473ZM564.439 82.1473H526.038L537.159 61.6928H574.514L564.439 82.1473ZM523.884 82.1473H485.579L497.745 61.6928H534.973L523.884 82.1473ZM483.298 82.1473H445.087L458.331 61.6928H495.464L483.298 82.1473ZM442.711 82.1473H404.628L418.917 61.6928H455.955L442.711 82.1473ZM402.125 82.1473H364.137L379.503 61.6928H416.414L402.125 82.1473ZM361.539 82.1473H323.677L340.089 61.6928H376.905L361.539 82.1473ZM320.952 82.1473H283.186L300.675 61.6928H337.364L320.952 82.1473ZM280.366 82.1473H242.726L261.261 61.6928H297.855L280.366 82.1473ZM239.779 82.1473H202.266L221.847 61.6928H258.314L239.779 82.1473ZM237.308 84.8892L213.926 110.773H174.924L199.637 84.8892H237.308ZM214.401 113.515H253.657L228.564 142.908H187.787L214.401 113.515ZM229.039 145.65H270.1L242.948 179.54H200.144L229.039 145.65ZM243.455 182.282H286.512L257.744 220.613H212.722L243.455 182.282ZM258.283 223.355H303.59L272.445 267.993H224.857L258.283 223.355ZM273.015 270.735H320.857L289.142 319.76H238.766L273.015 270.735ZM289.776 322.502H340.406L308.025 376.956H254.576L289.776 322.502ZM308.659 379.698H362.362L329.919 439.472H273.142L308.659 379.698ZM330.584 442.214H387.614L356.501 505.606H296.207L330.584 442.214ZM357.23 508.348H417.745L387.139 577.938H323.043L357.23 508.348ZM419.741 508.348H480.351L453.357 577.938H389.135L419.741 508.348ZM482.252 508.348H542.957L519.543 577.938H455.258L482.252 508.348ZM544.763 508.348H605.532L585.73 577.938H521.381L544.763 508.348ZM607.306 508.348H668.138L651.916 577.938H587.504L607.306 508.348ZM669.849 508.348H730.713L718.103 577.938H653.627L669.849 508.348ZM732.36 508.348H793.287L784.289 577.938H719.782L732.36 508.348ZM794.903 508.348H855.862L850.476 577.938H785.905L794.903 508.348ZM857.446 508.348H918.436L916.63 577.938H852.06L857.446 508.348ZM920.021 508.348H980.979L982.785 577.938H918.215L920.021 508.348ZM982.563 508.348H1043.55L1048.94 577.938H984.37L982.563 508.348ZM1045.14 508.348H1106.1L1115.09 577.938H1050.52L1045.14 508.348ZM1107.71 508.348H1168.64L1181.22 577.938H1116.71L1107.71 508.348ZM1170.29 508.348H1231.15L1247.37 577.938H1182.9L1170.29 508.348ZM1232.86 508.348H1293.69L1313.5 577.938H1249.08L1232.86 508.348ZM1295.47 508.348H1356.24L1379.62 577.938H1315.27L1295.47 508.348ZM1358.04 508.348H1418.75L1445.74 577.938H1381.46L1358.04 508.348ZM1420.65 508.348H1481.26L1511.87 577.938H1447.64L1420.65 508.348ZM1483.26 508.348H1543.77L1577.96 577.938H1513.86L1483.26 508.348ZM1513.39 442.214H1570.42L1604.79 505.606H1544.5L1513.39 442.214ZM1538.64 379.698H1592.34L1627.89 439.472H1571.08L1538.64 379.698ZM1560.59 322.502H1611.22L1646.42 376.956H1592.97L1560.59 322.502ZM1580.14 270.735H1627.98L1662.23 319.76H1611.86L1580.14 270.735ZM1597.41 223.355H1642.72L1676.14 267.993H1628.56L1597.41 223.355ZM1614.49 182.282H1657.55L1688.28 220.613H1643.26L1614.49 182.282ZM1630.9 145.65H1671.96L1700.86 179.54H1658.05L1630.9 145.65ZM1647.34 113.515H1686.6L1713.21 142.908H1672.44L1647.34 113.515ZM1663.69 84.8892H1701.36L1726.08 110.773H1687.07L1663.69 84.8892ZM1661.22 82.1473L1642.69 61.6928H1679.15L1698.73 82.1473H1661.22ZM1664.26 42.9382H1699.65L1715.78 58.9509H1679.6L1664.26 42.9382ZM1676.52 58.9509H1640.21L1625.7 42.9382H1661.22L1676.52 58.9509ZM1637.27 58.9509H1600.8L1587.14 42.9382H1622.76L1637.27 58.9509ZM1597.98 58.9509H1561.42L1548.59 42.9382H1584.33L1597.98 58.9509ZM1558.72 58.9509H1522.04L1510.03 42.9382H1545.89L1558.72 58.9509ZM1519.44 58.9509H1482.65L1471.47 42.9382H1507.43L1519.44 58.9509ZM1480.18 58.9509H1443.27L1432.94 42.9382H1469L1480.18 58.9509ZM1440.89 58.9509H1403.89L1394.38 42.9382H1430.57L1440.89 58.9509ZM1401.64 58.9509H1364.54L1355.82 42.9382H1392.1L1401.64 58.9509ZM1362.35 58.9509H1325.16L1317.3 42.9382H1353.64L1362.35 58.9509ZM1323.06 58.9509H1285.77L1278.74 42.9382H1315.21L1323.06 58.9509ZM1283.78 58.9509H1246.42L1240.21 42.9382H1276.74L1283.78 58.9509ZM1244.49 58.9509H1207.04L1201.65 42.9382H1238.28L1244.49 58.9509ZM1205.2 58.9509H1167.69L1163.13 42.9382H1199.82L1205.2 58.9509ZM1165.91 58.9509H1128.34L1124.6 42.9382H1161.35L1165.91 58.9509ZM1126.63 58.9509H1088.99L1086.07 42.9382H1122.89L1126.63 58.9509ZM1087.31 58.9509H1049.64L1047.55 42.9382H1084.43L1087.31 58.9509ZM1051 82.1473H1012.09L1010.51 61.6928H1048.37L1051 82.1473ZM1010.7 84.8892L1012.73 110.773H972.298L971.633 84.8892H1010.7ZM972.488 179.54H928.512L929.399 145.65H971.601L972.488 179.54ZM928.702 110.773H888.274L890.302 84.8892H929.367L928.702 110.773ZM888.908 82.1473H850L852.63 61.6928H890.492L888.908 82.1473ZM851.363 58.9509H813.691L816.575 42.9382H853.454L851.363 58.9509ZM812.012 58.9509H774.372L778.111 42.9382H814.927L812.012 58.9509ZM772.661 58.9509H735.085L739.647 42.9382H776.4L772.661 58.9509ZM733.311 58.9509H695.798L701.184 42.9382H737.873L733.311 58.9509ZM693.96 58.9509H656.51L662.72 42.9382H699.346L693.96 58.9509ZM654.578 58.9509H617.223L624.257 42.9382H660.788L654.578 58.9509ZM615.227 58.9509H577.936L585.793 42.9382H622.261L615.227 58.9509ZM575.845 58.9509H538.648L547.33 42.9382H583.702L575.845 58.9509ZM536.462 58.9509H499.361L508.898 42.9382H545.175L536.462 58.9509ZM497.111 58.9509H460.105L470.434 42.9382H506.616L497.111 58.9509ZM457.729 58.9509H420.818L432.002 42.9382H468.058L457.729 58.9509ZM418.347 58.9509H381.562L393.57 42.9382H429.531L418.347 58.9509ZM378.964 58.9509H342.275L355.107 42.9382H390.972L378.964 58.9509ZM339.582 58.9509H303.019L316.675 42.9382H352.414L339.582 58.9509ZM300.2 58.9509H263.732L278.243 42.9382H313.855L300.2 58.9509ZM260.785 58.9509H224.476L239.811 42.9382H275.296L260.785 58.9509ZM221.403 58.9509H185.221L201.348 42.9382H236.738L221.403 58.9509ZM182.021 58.9509H145.933L162.916 42.9382H198.179L182.021 58.9509ZM182.433 61.6928H218.805L199.193 82.1473H161.807L182.433 61.6928ZM196.563 84.8892L171.85 110.773H132.975L159.019 84.8892H196.563ZM172.294 113.515H211.455L184.841 142.908H144.159L172.294 113.515ZM185.284 145.65H226.219L197.324 179.54H154.646L185.284 145.65ZM197.799 182.282H240.73L209.997 220.613H165.102L197.799 182.282ZM210.536 223.355H255.684L222.259 267.993H174.765L210.536 223.355ZM222.797 270.735H270.544L236.294 319.76H186.013L222.797 270.735ZM236.865 322.502H287.4L252.199 376.956H198.876L236.865 322.502ZM252.801 379.698H306.41L270.861 439.472H214.179L252.801 379.698ZM271.494 442.214H328.429L294.021 505.606H233.823L271.494 442.214ZM294.718 508.348H355.138L320.952 577.938H256.92L294.718 508.348ZM319.59 580.68L283.217 654.766H215.225L255.431 580.68H319.59ZM321.681 580.68H385.935L353.396 654.766H285.308L321.681 580.68ZM387.931 580.68H452.28L423.574 654.766H355.392L387.931 580.68ZM454.212 580.68H518.625L493.721 654.766H425.475L454.212 580.68ZM520.462 580.68H584.969L563.9 654.766H495.559L520.462 580.68ZM586.744 580.68H651.283L634.047 654.766H565.674L586.744 580.68ZM652.994 580.68H717.628L704.225 654.766H635.758L652.994 580.68ZM719.275 580.68H783.941L774.372 654.766H705.873L719.275 580.68ZM785.557 580.68H850.254L844.519 654.766H775.988L785.557 580.68ZM851.838 580.68H916.567L914.634 654.766H846.103L851.838 580.68ZM918.151 580.68H982.849L984.781 654.766H916.219L918.151 580.68ZM984.433 580.68H1049.16L1054.9 654.766H986.366L984.433 580.68ZM1050.75 580.68H1115.44L1125.01 654.766H1056.51L1050.75 580.68ZM1117.06 580.68H1181.72L1195.13 654.766H1126.63L1117.06 580.68ZM1183.37 580.68H1248.01L1265.24 654.766H1196.77L1183.37 580.68ZM1249.72 580.68H1314.26L1335.33 654.766H1266.95L1249.72 580.68ZM1316.03 580.68H1380.54L1405.44 654.766H1337.1L1316.03 580.68ZM1382.38 580.68H1446.79L1475.52 654.766H1407.28L1382.38 580.68ZM1448.72 580.68H1513.07L1545.61 654.766H1477.43L1448.72 580.68ZM1515.07 580.68H1579.32L1615.69 654.766H1547.6L1515.07 580.68ZM1581.41 580.68H1645.57L1685.78 654.766H1617.78L1581.41 580.68ZM1580.05 577.938L1545.86 508.348H1606.28L1644.08 577.938H1580.05ZM1572.57 442.214H1629.51L1667.18 505.606H1606.98L1572.57 442.214ZM1594.59 379.698H1648.2L1686.82 439.472H1630.14L1594.59 379.698ZM1613.6 322.502H1664.14L1702.12 376.956H1648.8L1613.6 322.502ZM1630.46 270.735H1678.2L1714.99 319.76H1664.71L1630.46 270.735ZM1645.32 223.355H1690.46L1726.23 267.993H1678.74L1645.32 223.355ZM1660.27 182.282H1703.2L1735.9 220.613H1691L1660.27 182.282ZM1674.78 145.65H1715.72L1746.35 179.54H1703.68L1674.78 145.65ZM1689.55 113.515H1728.71L1756.84 142.908H1716.16L1689.55 113.515ZM1704.44 84.8892H1741.98L1768.03 110.773H1729.15L1704.44 84.8892ZM1701.81 82.1473L1682.19 61.6928H1718.57L1739.19 82.1473H1701.81ZM1702.82 42.9382H1738.08L1755.07 58.9509H1718.98L1702.82 42.9382ZM1724.37 26.8706H1758.65L1773.47 40.1963H1738.5L1724.37 26.8706ZM1735.17 40.1963H1700.06L1686.63 26.8706H1721.04L1735.17 40.1963ZM1696.86 40.1963H1661.63L1648.9 26.8706H1683.43L1696.86 40.1963ZM1658.59 40.1963H1623.23L1611.16 26.8706H1645.82L1658.59 40.1963ZM1620.29 40.1963H1584.8L1573.43 26.8706H1608.21L1620.29 40.1963ZM1581.98 40.1963H1546.4L1535.72 26.8706H1570.61L1581.98 40.1963ZM1543.68 40.1963H1507.97L1497.99 26.8706H1533L1543.68 40.1963ZM1505.4 40.1963H1469.57L1460.25 26.8706H1495.39L1505.4 40.1963ZM1467.1 40.1963H1431.17L1422.55 26.8706H1457.78L1467.1 40.1963ZM1428.79 40.1963H1392.74L1384.82 26.8706H1420.17L1428.79 40.1963ZM1390.49 40.1963H1354.34L1347.11 26.8706H1382.53L1390.49 40.1963ZM1352.15 40.1963H1315.94L1309.38 26.8706H1344.93L1352.15 40.1963ZM1313.84 40.1963H1277.54L1271.67 26.8706H1307.32L1313.84 40.1963ZM1275.54 40.1963H1239.14L1233.97 26.8706H1269.68L1275.54 40.1963ZM1237.23 40.1963H1200.73L1196.27 26.8706H1232.04L1237.23 40.1963ZM1198.9 40.1963H1162.33L1158.56 26.8706H1194.43L1198.9 40.1963ZM1160.59 40.1963H1123.97L1120.86 26.8706H1156.79L1160.59 40.1963ZM1122.26 40.1963H1085.57L1083.16 26.8706H1119.15L1122.26 40.1963ZM1083.92 40.1963H1047.2L1045.49 26.8706H1081.51L1083.92 40.1963ZM1048.02 58.9509H1010.29L1009.05 42.9382H1045.93L1048.02 58.9509ZM1010.51 82.1473H971.569L971.031 61.6928H1008.89L1010.51 82.1473ZM971.538 142.908H929.462L930.223 113.515H970.777L971.538 142.908ZM929.431 82.1473H890.492L892.108 61.6928H929.969L929.431 82.1473ZM890.714 58.9509H853.01L855.07 42.9382H891.949L890.714 58.9509ZM853.802 40.1963H817.082L819.489 26.8706H855.513L853.802 40.1963ZM815.402 40.1963H778.745L781.85 26.8706H817.842L815.402 40.1963ZM777.034 40.1963H740.408L744.21 26.8706H780.139L777.034 40.1963ZM738.665 40.1963H702.103L706.57 26.8706H742.436L738.665 40.1963ZM700.265 40.1963H663.766L668.93 26.8706H704.732L700.265 40.1963ZM661.865 40.1963H625.461L631.322 26.8706H667.029L661.865 40.1963ZM623.465 40.1963H587.156L593.682 26.8706H629.326L623.465 40.1963ZM585.064 40.1963H548.819L556.074 26.8706H591.623L585.064 40.1963ZM546.664 40.1963H510.514L518.466 26.8706H553.888L546.664 40.1963ZM508.264 40.1963H472.208L480.826 26.8706H516.185L508.264 40.1963ZM469.832 40.1963H433.903L443.218 26.8706H478.45L469.832 40.1963ZM431.432 40.1963H395.63L405.61 26.8706H440.747L431.432 40.1963ZM393.032 40.1963H357.325L368.002 26.8706H403.012L393.032 40.1963ZM354.6 40.1963H319.02L330.394 26.8706H365.277L354.6 40.1963ZM316.2 40.1963H280.714L292.786 26.8706H327.574L316.2 40.1963ZM277.768 40.1963H242.409L255.178 26.8706H289.839L277.768 40.1963ZM239.368 40.1963H204.136L217.569 26.8706H252.104L239.368 40.1963ZM200.936 40.1963H165.831L179.961 26.8706H214.369L200.936 40.1963ZM162.504 40.1963H127.525L142.353 26.8706H176.635L162.504 40.1963ZM124.104 40.1963H89.2519L104.745 26.8706H138.931L124.104 40.1963ZM124.484 42.9382H159.621L142.638 58.9509H106.678L124.484 42.9382ZM143.05 61.6928H179.264L158.607 82.1473H121.315L143.05 61.6928ZM155.85 84.8892L129.775 110.773H91.0262L118.432 84.8892H155.85ZM130.218 113.515H169.221L141.118 142.908H100.563L130.218 113.515ZM141.561 145.65H182.338L151.7 179.54H109.149L141.561 145.65ZM152.175 182.282H194.979L162.25 220.613H117.45L152.175 182.282ZM162.757 223.355H207.811L172.072 267.993H124.706L162.757 223.355ZM172.579 270.735H220.199L183.415 319.76H133.26L172.579 270.735ZM183.953 322.502H234.362L196.373 376.956H143.145L183.953 322.502ZM196.944 379.698H250.425L211.803 439.472H155.217L196.944 379.698ZM212.405 442.214H269.213L231.542 505.606H171.47L212.405 442.214ZM232.207 508.348H292.532L254.734 577.938H190.797L232.207 508.348ZM253.245 580.68L213.039 654.766H145.141L189.181 580.68H253.245ZM213.736 657.508H281.887L242.409 737.845H170.108L213.736 657.508ZM283.946 657.508H352.192L316.897 737.845H244.5L283.946 657.508ZM354.188 657.508H422.497L391.353 737.845H318.893L354.188 657.508ZM424.398 657.508H492.803L465.808 737.845H393.254L424.398 657.508ZM494.64 657.508H563.108L540.264 737.845H467.646L494.64 657.508ZM564.882 657.508H633.413L614.72 737.845H542.038L564.882 657.508ZM635.124 657.508H703.719L689.176 737.845H616.431L635.124 657.508ZM705.366 657.508H773.992L763.632 737.845H690.855L705.366 657.508ZM775.64 657.508H844.297L838.056 737.845H765.248L775.64 657.508ZM845.882 657.508H914.571L912.48 737.845H839.672L845.882 657.508ZM916.155 657.508H984.845L986.904 737.845H914.096L916.155 657.508ZM986.429 657.508H1055.12L1061.33 737.845H988.52L986.429 657.508ZM1056.7 657.508H1125.36L1135.75 737.845H1062.94L1056.7 657.508ZM1127.01 657.508H1195.63L1210.14 737.845H1137.37L1127.01 657.508ZM1197.28 657.508H1265.88L1284.57 737.845H1211.82L1197.28 657.508ZM1267.59 657.508H1336.12L1358.96 737.845H1286.28L1267.59 657.508ZM1337.89 657.508H1406.36L1433.35 737.845H1360.74L1337.89 657.508ZM1408.2 657.508H1476.57L1507.75 737.845H1435.19L1408.2 657.508ZM1478.5 657.508H1546.81L1582.11 737.845H1509.65L1478.5 657.508ZM1548.81 657.508H1617.05L1656.5 737.845H1584.1L1548.81 657.508ZM1619.11 657.508H1687.26L1730.89 737.845H1658.59L1619.11 657.508ZM1647.76 580.68H1711.82L1755.86 654.766H1687.96L1647.76 580.68ZM1646.27 577.938L1608.47 508.348H1668.79L1710.2 577.938H1646.27ZM1631.79 442.214H1688.59L1729.53 505.606H1669.46L1631.79 442.214ZM1650.57 379.698H1704.06L1745.78 439.472H1689.2L1650.57 379.698ZM1666.61 322.502H1717.05L1757.85 376.956H1704.59L1666.61 322.502ZM1680.8 270.735H1728.42L1767.74 319.76H1717.59L1680.8 270.735ZM1693.19 223.355H1738.24L1776.29 267.993H1728.93L1693.19 223.355ZM1706.02 182.282H1748.82L1783.55 220.613H1738.75L1706.02 182.282ZM1718.66 145.65H1759.47L1791.85 179.54H1749.3L1718.66 145.65ZM1731.78 113.515H1770.78L1800.44 142.908H1759.88L1731.78 113.515ZM1745.15 84.8892H1782.57L1809.97 110.773H1771.19L1745.15 84.8892ZM1742.39 82.1473L1721.74 61.6928H1757.95L1779.68 82.1473H1742.39ZM1741.38 42.9382H1776.52L1794.32 58.9509H1758.36L1741.38 42.9382ZM1762.07 26.8706H1796.25L1811.75 40.1963H1776.9L1762.07 26.8706ZM1759.03 24.1287L1746.2 12.5579H1779.62L1793.05 24.1287H1759.03ZM1755.61 24.1287H1721.45L1709.19 12.5579H1742.77L1755.61 24.1287ZM1718.12 24.1287H1683.84L1672.21 12.5579H1705.89L1718.12 24.1287ZM1680.67 24.1287H1646.27L1635.21 12.5579H1669.01L1680.67 24.1287ZM1643.19 24.1287H1608.69L1598.23 12.5579H1632.17L1643.19 24.1287ZM1605.74 24.1287H1571.11L1561.23 12.5579H1595.29L1605.74 24.1287ZM1568.26 24.1287H1533.51L1524.25 12.5579H1558.41L1568.26 24.1287ZM1530.81 24.1287H1495.93L1487.28 12.5579H1521.56L1530.81 24.1287ZM1493.33 24.1287H1458.35L1450.27 12.5579H1484.68L1493.33 24.1287ZM1455.85 24.1287H1420.78L1413.3 12.5579H1447.8L1455.85 24.1287ZM1418.4 24.1287H1383.2L1376.32 12.5579H1410.92L1418.4 24.1287ZM1380.92 24.1287H1345.62L1339.35 12.5579H1374.04L1380.92 24.1287ZM1343.44 24.1287H1308.05L1302.38 12.5579H1337.16L1343.44 24.1287ZM1305.96 24.1287H1270.47L1265.4 12.5579H1300.28L1305.96 24.1287ZM1268.47 24.1287H1232.89L1228.43 12.5579H1263.4L1268.47 24.1287ZM1230.99 24.1287H1195.35L1191.45 12.5579H1226.53L1230.99 24.1287ZM1193.51 24.1287H1157.77L1154.51 12.5579H1189.61L1193.51 24.1287ZM1156 24.1287H1120.23L1117.53 12.5579H1152.73L1156 24.1287ZM1118.52 24.1287H1082.68L1080.59 12.5579H1115.82L1118.52 24.1287ZM1081 24.1287H1045.14L1043.65 12.5579H1078.91L1081 24.1287ZM1043.87 26.8706L1045.58 40.1963H1008.83L1007.82 26.8706H1043.87ZM1008.7 58.9509H970.967L970.555 42.9382H1007.43L1008.7 58.9509ZM970.46 40.1963L970.112 26.8706H1006.2L1007.24 40.1963H970.46ZM970.714 110.773H930.286L930.951 84.8892H970.049L970.714 110.773ZM930.54 40.1963H893.755L894.801 26.8706H930.888L930.54 40.1963ZM930.444 42.9382L930.033 58.9509H892.298L893.565 42.9382H930.444ZM892.171 40.1963H855.418L857.129 26.8706H893.185L892.171 40.1963ZM855.862 24.1287H819.996L822.087 12.5579H857.351L855.862 24.1287ZM818.317 24.1287H782.483L785.176 12.5579H820.408L818.317 24.1287ZM780.772 24.1287H745.002L748.265 12.5579H783.465L780.772 24.1287ZM743.228 24.1287H707.489L711.386 12.5579H746.523L743.228 24.1287ZM705.651 24.1287H670.007L674.475 12.5579H709.548L705.651 24.1287ZM668.106 24.1287H632.526L637.595 12.5579H672.574L668.106 24.1287ZM630.53 24.1287H595.045L600.716 12.5579H635.599L630.53 24.1287ZM592.954 24.1287H557.563L563.837 12.5579H598.625L592.954 24.1287ZM555.377 24.1287H520.082L526.957 12.5579H561.65L555.377 24.1287ZM517.801 24.1287H482.601L490.078 12.5579H524.676L517.801 24.1287ZM480.224 24.1287H445.151L453.198 12.5579H487.702L480.224 24.1287ZM442.648 24.1287H407.669L416.319 12.5579H450.727L442.648 24.1287ZM405.071 24.1287H370.188L379.44 12.5579H413.721L405.071 24.1287ZM367.495 24.1287H332.738L342.592 12.5579H376.747L367.495 24.1287ZM329.887 24.1287H295.257L305.712 12.5579H339.772L329.887 24.1287ZM292.31 24.1287H257.807L268.833 12.5579H302.766L292.31 24.1287ZM254.734 24.1287H220.326L231.985 12.5579H265.791L254.734 24.1287ZM217.158 24.1287H182.876L195.106 12.5579H228.785L217.158 24.1287ZM179.549 24.1287H145.395L158.227 12.5579H191.811L179.549 24.1287ZM141.973 24.1287H107.945L121.379 12.5579H154.805L141.973 24.1287ZM104.365 24.1287H70.4637L84.4995 12.5579H117.83L104.365 24.1287ZM101.197 26.8706L85.6717 40.1963H50.9468L67.137 26.8706H101.197ZM86.0519 42.9382H121.062L103.256 58.9509H67.4221L86.0519 42.9382ZM103.636 61.6928H139.723L118.02 82.1473H80.8559L103.636 61.6928ZM115.106 84.8892L87.7311 110.773H49.0775L77.8143 84.8892H115.106ZM88.143 113.515H127.018L97.3629 142.908H56.9666L88.143 113.515ZM97.8064 145.65H138.488L106.076 179.54H63.6518L97.8064 145.65ZM106.519 182.282H149.229L114.535 220.613H69.8301L106.519 182.282ZM114.979 223.355H159.937L121.886 267.993H74.6143L114.979 223.355ZM122.361 270.735H169.854L130.567 319.76H80.5073L122.361 270.735ZM131.074 322.502H181.355L140.547 376.956H87.446L131.074 322.502ZM141.118 379.698H194.472L152.745 439.472H96.2856L141.118 379.698ZM153.316 442.214H210.029L169.094 505.606H109.086L153.316 442.214ZM169.696 508.348H229.926L188.548 577.938H124.706L169.696 508.348ZM186.9 580.68L142.86 654.766H75.0578L122.931 580.68H186.9ZM143.494 657.508H211.55L167.953 737.845H95.747L143.494 657.508ZM168.619 740.587H241.078L198.971 826.244H122.108L168.619 740.587ZM243.138 740.587H315.693L278.021 826.244H201.062L243.138 740.587ZM317.689 740.587H390.275L357.071 826.244H280.017L317.689 740.587ZM392.208 740.587H464.89L436.089 826.244H358.972L392.208 740.587ZM466.727 740.587H539.504L515.139 826.244H437.927L466.727 740.587ZM541.278 740.587H614.086L594.158 826.244H516.882L541.278 740.587ZM615.797 740.587H688.669L673.176 826.244H595.868L615.797 740.587ZM690.348 740.587H763.283L752.194 826.244H674.855L690.348 740.587ZM764.899 740.587H837.866L831.212 826.244H753.81L764.899 740.587ZM839.45 740.587H912.417L910.199 826.244H832.796L839.45 740.587ZM914.001 740.587H986.999L989.217 826.244H911.783L914.001 740.587ZM988.583 740.587H1061.55L1068.2 826.244H990.801L988.583 740.587ZM1063.17 740.587H1136.1L1147.19 826.244H1069.79L1063.17 740.587ZM1137.72 740.587H1210.65L1226.18 826.244H1148.81L1137.72 740.587ZM1212.3 740.587H1285.2L1305.13 826.244H1227.82L1212.3 740.587ZM1286.91 740.587H1359.72L1384.12 826.244H1306.84L1286.91 740.587ZM1361.5 740.587H1434.27L1463.07 826.244H1385.86L1361.5 740.587ZM1436.11 740.587H1508.79L1542.03 826.244H1464.91L1436.11 740.587ZM1510.72 740.587H1583.31L1620.98 826.244H1543.93L1510.72 740.587ZM1585.31 740.587H1657.86L1699.94 826.244H1622.98L1585.31 740.587ZM1659.92 740.587H1732.38L1778.89 826.244H1702.03L1659.92 740.587ZM1689.45 657.508H1757.51L1805.25 737.845H1733.05L1689.45 657.508ZM1714.1 580.68H1778.07L1825.94 654.766H1758.14L1714.1 580.68ZM1712.45 577.938L1671.07 508.348H1731.3L1776.29 577.938H1712.45ZM1690.97 442.214H1747.68L1791.91 505.606H1731.91L1690.97 442.214ZM1706.53 379.698H1759.88L1804.71 439.472H1748.25L1706.53 379.698ZM1719.64 322.502H1769.93L1813.55 376.956H1760.45L1719.64 322.502ZM1731.15 270.735H1778.64L1820.49 319.76H1770.43L1731.15 270.735ZM1741.06 223.355H1786.02L1826.39 267.993H1779.11L1741.06 223.355ZM1751.77 182.282H1794.48L1831.17 220.613H1786.5L1751.77 182.282ZM1762.51 145.65H1803.19L1837.35 179.54H1794.92L1762.51 145.65ZM1773.98 113.515H1812.86L1844.03 142.908H1803.64L1773.98 113.515ZM1785.89 84.8892H1823.19L1851.92 110.773H1813.27L1785.89 84.8892ZM1782.98 82.1473L1761.28 61.6928H1797.36L1820.14 82.1473H1782.98ZM1779.94 42.9382H1814.95L1833.58 58.9509H1797.74L1779.94 42.9382ZM1799.8 26.8706H1833.86L1850.05 40.1963H1815.33L1799.8 26.8706ZM1796.64 24.1287L1783.17 12.5579H1816.5L1830.54 24.1287H1796.64ZM1804.56 2.7419L1813.17 9.816H1780L1771.76 2.7419H1804.56ZM1768.18 2.7419L1776.42 9.816H1743.15L1735.26 2.7419H1768.18ZM1731.84 2.7419L1739.7 9.816H1706.31L1698.8 2.7419H1731.84ZM1695.47 2.7419L1702.98 9.816H1669.46L1662.3 2.7419H1695.47ZM1659.13 2.7419L1666.26 9.816H1632.61L1625.83 2.7419H1659.13ZM1622.76 2.7419L1629.54 9.816H1595.76L1589.33 2.7419H1622.76ZM1586.38 2.7419L1592.82 9.816H1558.92L1552.86 2.7419H1586.38ZM1550.04 2.7419L1556.06 9.816H1522.07L1516.4 2.7419H1550.04ZM1513.67 2.7419L1519.34 9.816H1485.22L1479.9 2.7419H1513.67ZM1477.3 2.7419L1482.62 9.816H1448.37L1443.43 2.7419H1477.3ZM1440.96 2.7419L1445.9 9.816H1411.52L1406.96 2.7419H1440.96ZM1404.59 2.7419L1409.15 9.816H1374.68L1370.49 2.7419H1404.59ZM1368.21 2.7419L1372.43 9.816H1337.86L1334 2.7419H1368.21ZM1331.84 2.7419L1335.67 9.816H1301.01L1297.53 2.7419H1331.84ZM1295.47 2.7419L1298.95 9.816H1264.2L1261.09 2.7419H1295.47ZM1259.1 2.7419L1262.2 9.816H1227.35L1224.62 2.7419H1259.1ZM1222.69 2.7419L1225.45 9.816H1190.53L1188.16 2.7419H1222.69ZM1186.32 2.7419L1188.7 9.816H1153.72L1151.69 2.7419H1186.32ZM1149.95 2.7419L1151.94 9.816H1116.9L1115.25 2.7419H1149.95ZM1113.54 2.7419L1115.19 9.816H1080.08L1078.82 2.7419H1113.54ZM1077.14 2.7419L1078.44 9.816H1043.27L1042.35 2.7419H1077.14ZM1043.49 24.1287H1007.59L1006.71 12.5579H1042L1043.49 24.1287ZM1040.73 2.7419L1041.65 9.816H1006.48L1005.95 2.7419H1040.73ZM1005.98 24.1287H970.049L969.763 12.5579H1005.09L1005.98 24.1287ZM1004.33 2.7419L1004.87 9.816H969.7L969.51 2.7419H1004.33ZM933.074 2.7419H967.926L968.084 9.816H932.916L933.074 2.7419ZM932.821 12.5579H968.179L968.464 24.1287H932.536L932.821 12.5579ZM932.472 26.8706H968.528L968.876 40.1963H932.124L932.472 26.8706ZM932.029 42.9382H968.971L969.383 58.9509H931.617L932.029 42.9382ZM969.447 61.6928L969.985 82.1473H931.015L931.553 61.6928H969.447ZM896.67 2.7419H931.49L931.3 9.816H896.131L896.67 2.7419ZM931.237 12.5579L930.951 24.1287H895.022L895.91 12.5579H931.237ZM860.266 2.7419H895.054L894.516 9.816H859.347L860.266 2.7419ZM894.294 12.5579L893.407 24.1287H857.509L858.999 12.5579H894.294ZM823.862 2.7419H858.65L857.731 9.816H822.563L823.862 2.7419ZM787.458 2.7419H822.182L820.915 9.816H785.81L787.458 2.7419ZM785.747 2.7419L784.099 9.816H749.057L751.053 2.7419H785.747ZM749.311 2.7419L747.283 9.816H712.305L714.681 2.7419H749.311ZM712.843 2.7419L710.467 9.816H675.552L678.308 2.7419H712.843ZM676.376 2.7419L673.651 9.816H638.799L641.904 2.7419H676.376ZM639.94 2.7419L636.803 9.816H602.047L605.532 2.7419H639.94ZM603.472 2.7419L599.987 9.816H565.326L569.159 2.7419H603.472ZM567.005 2.7419L563.14 9.816H528.573L532.787 2.7419H567.005ZM530.506 2.7419L526.323 9.816H491.852L496.414 2.7419H530.506ZM494.038 2.7419L489.476 9.816H455.099L460.042 2.7419H494.038ZM457.571 2.7419L452.628 9.816H418.378L423.701 2.7419H457.571ZM421.103 2.7419L415.78 9.816H381.657L387.329 2.7419H421.103ZM384.604 2.7419L378.933 9.816H344.905L350.956 2.7419H384.604ZM348.136 2.7419L342.085 9.816H308.184L314.616 2.7419H348.136ZM311.669 2.7419L305.237 9.816H271.463L278.243 2.7419H311.669ZM275.17 2.7419L268.389 9.816H234.742L241.871 2.7419H275.17ZM238.702 2.7419L231.542 9.816H198.021L205.53 2.7419H238.702ZM202.203 2.7419L194.694 9.816H161.3L169.157 2.7419H202.203ZM165.736 2.7419L157.846 9.816H124.579L132.817 2.7419H165.736ZM129.236 2.7419L120.999 9.816H87.8262L96.4441 2.7419H129.236ZM92.7688 2.7419L84.1509 9.816H51.1052L60.1033 2.7419H92.7688ZM14.4159 9.816L23.7308 2.7419H56.2696L47.3032 9.816H14.4159ZM47.6517 12.5579H80.8242L66.7885 24.1287H33.014L47.6517 12.5579ZM12.6417 40.1963L29.5289 26.8706H63.4617L47.2715 40.1963H12.6417ZM28.1665 58.9509L47.62 42.9382H82.5034L63.8419 58.9509H28.1665ZM64.2221 61.6928H100.183L77.4341 82.1473H40.3962L64.2221 61.6928ZM7.16043 110.773L37.1962 84.8892H74.3925L45.6557 110.773H7.16043ZM13.3387 142.908L46.0359 113.515H84.8163L53.6399 142.908H13.3387ZM18.1546 179.54L54.0518 145.65H94.6064L60.4518 179.54H18.1546ZM22.21 220.613L60.8637 182.282H103.446L66.7885 220.613H22.21ZM24.5546 267.993L67.2003 223.355H112.032L71.6994 267.993H24.5546ZM27.7546 319.76L72.143 270.735H119.541L77.6875 319.76H27.7546ZM31.7467 376.956L78.1628 322.502H128.349L84.7212 376.956H31.7467ZM37.3546 439.472L85.2598 379.698H138.52L93.6876 439.472H37.3546ZM46.7329 505.606L94.2262 442.214H150.844L106.614 505.606H46.7329ZM107.185 508.348H167.32L122.329 577.938H58.5825L107.185 508.348ZM4.97428 654.766L56.6815 580.68H120.555L72.6816 654.766H4.97428ZM21.3546 737.845L73.2835 657.508H141.244L93.4658 737.845H21.3546ZM43.1527 826.244L94.0995 740.587H166.464L119.953 826.244H43.1527ZM152.904 920.072H71.1924L120.618 828.986H197.641L152.904 920.072ZM236.801 920.072H154.995L199.732 828.986H276.817L236.801 920.072ZM320.699 920.072H238.797L278.813 828.986H355.994L320.699 920.072ZM404.596 920.072H322.6L357.895 828.986H435.171L404.596 920.072ZM488.462 920.072H406.402L437.008 828.986H514.347L488.462 920.072ZM572.328 920.072H490.236L516.121 828.986H593.524L572.328 920.072ZM656.193 920.072H574.039L595.235 828.986H672.669L656.193 920.072ZM740.059 920.072H657.873L674.348 828.986H751.846L740.059 920.072ZM823.925 920.072H741.707L753.461 828.986H830.99L823.925 920.072ZM907.791 920.072H825.541L832.575 828.986H910.135L907.791 920.072ZM909.375 920.072L911.72 828.986H989.28L991.625 920.072H909.375ZM993.209 920.072L990.865 828.986H1068.43L1075.46 920.072H993.209ZM1077.07 920.072L1070.01 828.986H1147.54L1159.29 920.072H1077.07ZM1160.94 920.072L1149.15 828.986H1226.65L1243.13 920.072H1160.94ZM1244.81 920.072L1228.33 828.986H1305.77L1326.96 920.072H1244.81ZM1328.67 920.072L1307.48 828.986H1384.88L1410.76 920.072H1328.67ZM1412.54 920.072L1386.65 828.986H1463.99L1494.6 920.072H1412.54ZM1496.4 920.072L1465.83 828.986H1543.07L1578.4 920.072H1496.4ZM1580.3 920.072L1545.01 828.986H1622.19L1662.2 920.072H1580.3ZM1664.2 920.072L1624.18 828.986H1701.27L1746.01 920.072H1664.2ZM1829.81 920.072H1748.1L1703.36 828.986H1780.38L1829.81 920.072ZM1857.85 826.244H1781.05L1734.54 740.587H1806.9L1857.85 826.244ZM1879.65 737.845H1807.53L1759.76 657.508H1827.72L1879.65 737.845ZM1896.03 654.766H1828.32L1780.44 580.68H1844.32L1896.03 654.766ZM1842.42 577.938H1778.67L1733.68 508.348H1793.82L1842.42 577.938ZM1854.27 505.606H1794.39L1750.16 442.214H1806.77L1854.27 505.606ZM1863.65 439.472H1807.31L1762.48 379.698H1815.74L1863.65 439.472ZM1869.25 376.956H1816.28L1772.65 322.502H1822.84L1869.25 376.956ZM1873.25 319.76H1823.31L1781.46 270.735H1828.86L1873.25 319.76ZM1876.45 267.993H1829.33L1788.97 223.355H1833.8L1876.45 267.993ZM1878.79 220.613H1834.21L1797.55 182.282H1840.14L1878.79 220.613ZM1882.85 179.54H1840.55L1806.39 145.65H1846.95L1882.85 179.54ZM1887.66 142.908H1847.36L1816.18 113.515H1854.96L1887.66 142.908ZM1893.84 110.773H1855.34L1826.61 84.8892H1863.8L1893.84 110.773ZM1860.6 82.1473H1823.57L1800.82 61.6928H1836.78L1860.6 82.1473ZM1872.87 58.9509H1837.16L1818.5 42.9382H1853.38L1872.87 58.9509ZM1888.36 40.1963H1853.76L1837.54 26.8706H1871.47L1888.36 40.1963ZM1867.99 24.1287H1834.21L1820.18 12.5579H1853.35L1867.99 24.1287ZM1886.58 9.816H1853.7L1844.73 2.7419H1877.27L1886.58 9.816Z" fill="#A294EC"/>
</g>
</svg>
