<svg xmlns="http://www.w3.org/2000/svg" width="1898" height="1314" fill="none"><g stroke="#C4BEDD" opacity=".5"><g style="mix-blend-mode:plus-lighter"><path d="M59.059 0v1231.91M141.936 0l-.001 1231.91M224.812 0v1231.91M307.691 0v1231.91M390.566 0v1231.91M473.445 0v1231.91M556.324 0v1231.91M639.199 0v1231.91M722.078 0v1231.91M804.957 0v1231.91M887.832 0v1231.91M970.711 0v1231.91M971.928 16.785H-304.999M971.928 96.742H-304.999M971.928 176.699H-304.999M971.928 256.654H-304.999M971.928 336.609H-304.999M971.928 416.564H-304.999M971.928 496.521H-304.999M971.928 576.477l-1276.927-.001M971.928 656.434l-1276.927-.001M971.928 736.391H-304.999M971.928 816.346H-304.999M971.928 896.301H-304.999M971.928 976.256H-304.999M971.928 1056.21H-304.999M971.928 1136.17H-304.999M971.928 1216.12H-304.999"/></g><g style="mix-blend-mode:plus-lighter"><path d="M0-.5h1231.91" transform="matrix(0 1 1 0 1883.29 0)"/><path d="M0-.5h1231.91" transform="matrix(0 1 1 0 1800.42 0)"/><path d="M0-.5h1231.91" transform="matrix(0 1 1 0 1717.54 0)"/><path d="M0-.5h1231.91" transform="matrix(0 1 1 0 1634.66 0)"/><path d="M0-.5h1231.91" transform="matrix(0 1 1 0 1551.79 0)"/><path d="M0-.5h1231.91" transform="matrix(0 1 1 0 1468.91 0)"/><path d="M0-.5h1231.91" transform="matrix(0 1 1 0 1386.03 0)"/><path d="M0-.5h1231.91" transform="matrix(0 1 1 0 1303.15 0)"/><path d="M0-.5h1231.91" transform="matrix(0 1 1 0 1220.27 0)"/><path d="M0-.5h1231.91" transform="matrix(0 1 1 0 1137.39 0)"/><path d="M0-.5h1231.91" transform="matrix(0 1 1 0 1054.52 0)"/><path d="M0-.5h1276.93" transform="matrix(1 0 0 -1 969.924 16.285)"/><path d="M0-.5h1276.93" transform="matrix(1 0 0 -1 969.924 96.242)"/><path d="M0-.5h1276.93" transform="matrix(1 0 0 -1 969.924 176.199)"/><path d="M0-.5h1276.93" transform="matrix(1 0 0 -1 969.924 256.154)"/><path d="M0-.5h1276.93" transform="matrix(1 0 0 -1 969.924 336.109)"/><path d="M0-.5h1276.93" transform="matrix(1 0 0 -1 969.924 416.064)"/><path d="M0-.5h1276.93" transform="matrix(1 0 0 -1 969.924 496.021)"/><path d="M0-.5h1276.93" transform="matrix(1 0 0 -1 969.924 575.977)"/><path d="M0-.5h1276.93" transform="matrix(1 0 0 -1 969.924 655.934)"/><path d="M0-.5h1276.93" transform="matrix(1 0 0 -1 969.924 735.891)"/><path d="M0-.5h1276.93" transform="matrix(1 0 0 -1 969.924 815.846)"/><path d="M0-.5h1276.93" transform="matrix(1 0 0 -1 969.924 895.801)"/><path d="M0-.5h1276.93" transform="matrix(1 0 0 -1 969.924 975.756)"/><path d="M0-.5h1276.93" transform="matrix(1 0 0 -1 969.924 1055.71)"/><path d="M0-.5h1276.93" transform="matrix(1 0 0 -1 969.924 1135.67)"/><path d="M0-.5h1276.93" transform="matrix(1 0 0 -1 969.924 1215.62)"/></g></g></svg>