<svg xmlns="http://www.w3.org/2000/svg" width="401" height="2335" fill="none"><g clip-path="url(#a)" opacity=".1"><path fill="#A294EC" d="M1315.11 0H-914.109v3.215h23.221l-10.961 8.296h-12.26v3.215h8.025l-8.025 6.11v3.472l12.632-9.582h38.751l-17.165 13.569h-34.218v3.215h30.168l-19.803 15.626h-10.365v3.216h6.279l-6.279 4.951v3.537l10.774-8.488h40.721l-22.813 18.777h-28.682v3.215h24.781l-24.781 20.385v3.537l29.091-23.922h42.058l-27.94 23.987h-43.209v3.215h39.457l-35.259 30.352h-4.198v3.216h.483l-.483.385v3.601l4.644-3.986h45.327l-38.342 34.468h-11.629v3.215h8.062l-8.062 7.266v3.602l12.075-10.868h47.408l-42.095 39.741h-17.388v3.215h13.969l-13.969 13.183v3.665l17.871-16.848h49.785l-45.327 44.95h-22.329v3.216h19.059l-19.059 18.905v3.73l22.812-22.635h52.424l-50.046 52.345h-25.19v3.215h22.143l-22.143 23.15v3.73l25.71-26.88h55.433l-52.052 57.49h-29.091v3.215h26.193l-26.193 28.938v3.858l29.648-32.796h58.703l-54.43 63.856h-33.921v3.215h31.172l-31.172 36.526v3.858l34.478-40.384h62.307l-56.176 70.094h-40.609v3.215h38.045l-38.045 47.458v3.987l41.203-51.445h66.245l-55.693 74.338h-51.755v3.215h49.34l-49.34 65.785v4.051l52.386-69.836h70.406l-56.993 81.604h-65.799v3.216h63.569l-60.634 86.877h-2.935v3.215h.668l-.668.965v4.18l3.604-5.145h79.545l-60.894 94.209h-22.255v3.215h20.174l-20.174 31.188v4.373l22.998-35.561h84.71l-59.743 100.446h-47.965v3.215h46.033l-46.033 77.486v4.44l48.708-81.926h90.209l-57.96 106.816h-80.957v3.21h79.211l-50.454 92.86h2.563l50.418-92.86h96.004l-45.587 92.86h2.415l45.625-92.86h96.079L-678.63 1175h2.304l40.832-92.86h96.19l-36.002 92.86h2.267l36.002-92.86h96.265l-31.209 92.86h2.154l31.21-92.86h96.376l-26.416 92.86h2.08l26.417-92.86h96.45l-21.586 92.86h2.006l21.587-92.86h96.525l-16.831 92.86h1.932l16.831-92.86h96.562l-12 92.86h1.931l11.964-92.86h96.6L44.601 1175h1.895l7.208-92.86h96.637l-2.415 92.86h1.857l2.415-92.86h96.6l2.415 92.86h1.857l-2.415-92.86h96.637l7.208 92.86h1.894l-7.207-92.86h96.599L457.75 1175h1.933l-12.001-92.86h96.562l16.831 92.86h1.932l-16.831-92.86h96.525l21.586 92.86h2.007l-21.586-92.86h96.45l26.416 92.86h2.081l-26.416-92.86h96.376l31.209 92.86h2.155l-31.209-92.86h96.265l36.002 92.86h2.266l-36.001-92.86h96.188l40.83 92.86h2.31l-40.8-92.86h96.08l45.63 92.86h2.41l-45.59-92.86h96.01l50.42 92.86h2.56l-50.45-92.86h79.21v-3.21h-80.96l-57.96-106.816h90.21l48.71 81.926v-4.44l-46.04-77.486h46.04v-3.215h-47.97l-59.74-100.446h84.71l23 35.561v-4.373l-20.18-31.188h20.18v-3.215h-22.26l-60.89-94.209h79.54l3.61 5.145v-4.18l-.67-.965h.67v-3.215h-2.94l-60.63-86.877h63.57v-3.216h-65.8l-57-81.604h70.41l52.39 69.836v-4.051l-49.34-65.785h49.34v-3.215h-51.76l-55.69-74.338h66.24l41.21 51.445v-3.987l-38.05-47.458h38.05v-3.215h-40.61l-56.18-70.094h62.31l34.48 40.384v-3.858l-31.17-36.526h31.17v-3.215h-33.92l-54.43-63.856h58.7l29.65 32.796v-3.858l-26.2-28.938h26.2v-3.215h-29.09l-52.06-57.49h55.44l25.71 26.88v-3.73l-22.15-23.15h22.15v-3.215h-25.19l-50.05-52.345h52.42l22.82 22.635v-3.73l-19.06-18.905h19.06v-3.216h-22.33l-45.33-44.95h49.79l17.87 16.848v-3.665l-13.97-13.183h13.97v-3.215h-17.39l-42.1-39.741h47.41l12.08 10.868v-3.602l-8.07-7.266h8.07v-3.215h-11.63l-38.34-34.468h45.32l4.65 3.986v-3.601l-.49-.385h.49v-3.216h-4.2l-35.26-30.352h39.46V96.33h-43.21l-27.94-23.986h42.06l29.09 23.922V92.73l-24.78-20.385h24.78V69.13h-28.69l-22.81-18.777h40.72l10.78 8.488v-3.537l-6.28-4.951h6.28v-3.216h-10.37l-19.8-15.626h30.17v-3.215h-34.26l-17.13-13.569h38.76l12.63 9.582v-3.473l-8.03-6.109h8.03v-3.215h-12.26l-10.96-8.296h23.22zm-70.48 3.215 10.55 8.296h-38.75l-10.11-8.296zM3.808 258.703H-50.14l10.477-44.95h51.606zm10.068-44.95h51.68l-5.795 44.95H5.74zm-288.943 48.166h53.798l-20.286 52.345h-56.473zm-25.302 52.345h-56.399l25.673-52.345h53.687zm81.329-52.345h53.91l-17.573 52.345h-56.585zm56.065 0h53.984l-14.898 52.345h-56.659zm56.028 0h54.058l-12.186 52.345h-56.734zm56.065 0H3.213l-9.437 52.345h-56.845zm-1.264-3.216h-53.872l12.78-44.95h51.57zm-55.953 0h-53.798l15.121-44.95h51.458zm-55.953 0h-53.724l17.425-44.95h51.42zm-55.954 0h-53.649l19.765-44.95h51.309zm-55.99 0h-53.501l22.069-44.95h51.198zm-55.953 0h-53.427l24.41-44.95h51.086zm-55.991 0h-53.315l26.75-44.95h50.975zm.817 3.216h53.576l-25.673 52.345h-56.288zm28.757 55.56h56.585l-25.301 57.49h-59.558zm58.889 0h56.696l-22.329 57.49h-59.632zm58.925 0h56.771l-19.357 57.49h-59.706zm58.926 0h56.845l-16.385 57.49h-59.817zm58.889 0h56.919l-13.376 57.49h-59.891zm58.925 0h56.994l-10.403 57.49h-59.966zm58.926 0h57.03l-7.43 57.49H-15.29zm.594-3.215 9.474-52.345h54.133l-6.725 52.345zm65.54-52.345h54.169l-4.05 52.345H54.485zm56.064 0h54.207l-1.337 52.345h-56.92zm-1.635-3.216H61.656l5.796-44.95h51.718zm-49.711-48.165H14.47l7.208-39.741H71.13zm-53.427 0H-38.92l9.251-39.741H19.71zm-53.464 0H-92.31l11.295-39.741h49.34zm-53.464 0h-51.309l13.338-39.741h49.265zm-53.464 0h-51.235l15.419-39.741h49.154zm-53.464 0h-51.161l17.462-39.741h49.08zm-53.502 0h-51.049l19.543-39.741h48.969zm-53.464 0h-50.937l21.549-39.741h48.894zm-53.501 0h-50.789l23.593-39.741h48.782zm-53.464 0h-50.715l25.674-39.741h48.634zm-53.501 0h-50.566l27.716-39.741h48.523zm.706 3.215h50.863l-26.713 44.95h-53.204zm24.893 48.166h53.464l-28.386 52.345h-56.176zm25.896 55.56h56.436l-28.237 57.49H-448.5zm29.054 60.705h59.706l-28.051 63.856h-63.013zm62.046 0h59.818l-24.745 63.856h-63.123zm62.047 0h59.892l-21.438 63.856h-63.198zm62.047 0h60.003l-18.168 63.856h-63.273zm62.046 0h60.078l-14.862 63.856h-63.347zm62.084 0h60.114L-29.37 442.04h-63.422zm62.084 0h60.151l-8.248 63.856H-27.4zm62.046 0h60.226l-4.941 63.856H37.952zm.409-3.215 7.468-57.49h57.068l-4.496 57.49zm66.393-57.49h57.105l-1.486 57.49h-60.077zm57.365 60.705h60.263l1.635 63.856h-63.532zm283.52-116.265h54.058l14.862 52.345h-56.734zm10.18 52.345h-56.845l-9.437-52.345h54.095zm45.921-52.345h53.985l17.573 52.345h-56.659zm56.14 0H620l20.286 52.345h-56.585zm56.139 0h53.798l22.998 52.345h-56.51zm56.139 0h53.687l25.673 52.345h-56.399zm32.472-48.166h51.086l24.41 44.95h-53.427zm19.617 44.95h-53.501l-19.766-44.95h51.198zm-55.842 0h-53.65l-17.425-44.95h51.31zm-55.879 0H565.05l-15.121-44.95h51.42zm-55.879 0h-53.798l-12.781-44.95h51.458zm-55.879 0h-53.873l-10.477-44.95h51.569zm-55.879 0H397.19l-8.137-44.95h51.607zm-55.879 0h-54.021l-5.796-44.95h51.681zm-48.745 55.561H289.63l-4.049-52.345h54.17zm-4.83-52.345h54.132l9.475 52.345h-56.845zm64.201 55.56 10.403 57.49h-60.003l-7.431-57.49zm1.932 0h56.994l13.375 57.49h-59.966zm59 0h56.919l16.348 57.49h-59.892zm58.963 0h56.845l19.357 57.49h-59.818zm59 0h56.77l22.293 57.49h-59.706zm59 0h56.696l25.265 57.49h-59.632zm59 0h56.585l28.273 57.49H728.08zm31.766-55.56h53.575l28.386 52.345h-56.288zm29.983-48.166h50.975l26.75 44.95h-53.315zm28.125-42.956h48.634l25.673 39.741h-50.714zm20.955 39.741h-50.826l-21.587-39.741h48.783zm-53.39 0h-50.937l-19.506-39.741h48.857zm-53.353 0h-51.049l-17.462-39.741h48.969zm-53.389 0h-51.161l-15.381-39.741h49.08zm-53.39 0h-51.235l-13.338-39.741h49.154zm-53.39 0h-51.309l-11.295-39.741h49.266zm-53.389 0h-51.384l-9.251-39.741h49.34zm-53.39 0h-51.458l-7.171-39.741h49.378zm-53.39 0h-51.495l-5.127-39.741h49.414zm-47.185 48.165h-54.021l-3.493-44.95h51.718zm-51.606 55.561h-56.92l-1.337-52.345h54.207zm-56.845 3.215h57.105l4.458 57.49h-60.077zm59 0h57.03l7.468 57.49h-60.04zm64.907 60.705 8.248 63.856H299.55l-4.978-63.856zm1.895 0h60.188l11.518 63.856h-63.458zm62.12 0h60.115l14.861 63.856h-63.421zm62.121 0h60.078l18.131 63.856h-63.347zm62.121 0h60.003l21.438 63.856h-63.273zm62.158 0h59.892l24.744 63.856h-63.198zm62.121 0h59.817l28.051 63.856h-63.124zm62.158 0h59.706l31.358 63.856h-63.013zm32.324-60.705h56.436l31.246 57.49h-59.446zm28.868-55.56h53.464l31.098 52.345h-56.177zm27.494-48.166h50.863l29.054 44.95h-53.204zm25.896-42.956h48.522l27.717 39.741h-50.566zm25.116-37.683h46.441l25.859 34.468h-48.225zm21.177 34.468h-48.374l-22.292-34.468h46.591zm-51.16 0h-48.486l-20.509-34.468h46.702zm-51.161 0h-48.597l-18.725-34.468h46.813zm-51.123 0h-48.746l-16.942-34.468h46.962zm-51.161 0h-48.82l-15.158-34.468h47.036zm-51.16 0H585.67l-13.375-34.468h47.148zm-51.161 0h-49.005l-11.592-34.468h47.222zm-51.16 0h-49.117l-9.809-34.468h47.334zm-51.161 0h-49.191l-8.025-34.468h47.408zm-51.198 0h-49.228l-6.242-34.468h47.445zm-51.16 0h-49.303l-4.458-34.468h47.519zM333.1 210.538h-51.532l-3.084-39.741h49.489zm-49.674 48.165h-54.022l-1.189-44.95h51.756zm-52.907 116.266h-60.04l1.486-57.49h57.068zm-58.926-116.266h-54.021l3.455-44.95h51.755zm-52.163-48.165H67.898l5.127-39.741h49.489zm-47.891-42.956H22.236l6.242-34.468h47.52zm-51.235 0h-49.229l8.026-34.468h47.445zm-51.235 0h-49.191l9.808-34.468h47.408zm-51.235 0h-49.117l11.592-34.468h47.334zm-51.272 0h-49.005l13.375-34.468h47.222zm-51.235 0h-48.931l15.159-34.468h47.148zm-51.272 0h-48.819l16.942-34.468h47.036zm-51.234 0h-48.746l18.726-34.468h46.962zm-51.272 0h-48.597l20.509-34.468h46.813zm-51.272 0h-48.486l22.292-34.468h46.702zm-51.272 0h-48.374l24.075-34.468h46.591zm-51.272 0h-48.226l25.859-34.468h46.442zm-51.272 0h-48.077l27.605-34.468h46.331zm.631 3.215h48.411l-27.753 39.741h-50.455zm21.327 42.956h50.751l-29.054 44.95h-53.055zm22.403 48.166h53.353l-31.098 52.345h-56.065zm23.035 55.56h56.325l-31.246 57.49h-59.297zm25.896 60.705h59.595l-31.321 63.856h-62.938zm29.129 67.071h63.161l-30.8 70.094h-66.803zm65.502 0h63.272l-27.196 70.094h-66.877zm65.501 0h63.385l-23.556 70.094h-66.988zm65.539 0h63.459l-19.952 70.094h-67.062zm65.502 0h63.533l-16.311 70.094h-67.136zm65.54 0h63.606l-12.706 70.094h-67.211zm65.538 0h63.644l-9.065 70.094h-67.248zm65.54 0h63.68l-5.461 70.094H28.478zm65.538 0h63.719l-1.821 70.094H97.658zm.26-3.215 4.942-63.856h60.226l-1.635 63.856zm65.316 3.215h63.682l1.82 70.094h-67.322zm65.465-3.215-1.635-63.856h60.226l4.942 63.856zm63.793 3.215 5.424 70.094h-67.322l-1.821-70.094zm1.857 0h63.682l9.065 70.094h-67.285zm65.576 0h63.645l12.706 70.094h-67.285zm65.577 0h63.607l16.31 70.094h-67.211zm65.613 0h63.533l19.914 70.094h-67.137zm65.576 0h63.458l23.556 70.094h-67.062zm65.613 0h63.384l27.16 70.094h-66.988zm65.614 0h63.272l30.8 70.094h-66.876zm65.613 0h63.161l34.441 70.094h-66.802zm32.695-67.071h59.594l34.628 63.856H822.97zm29.166-60.705h56.362l34.181 57.49h-59.297zm26.007-55.56h53.353l33.809 52.345h-56.064zm25.005-48.166h50.751l31.358 44.95h-53.055zm23.666-42.956h48.411l29.798 39.741h-50.455zm23.184-37.683h46.331l27.605 34.468h-48.077zm22.627-33.568h44.435l25.86 30.352h-45.997zm21.103 30.352h-46.145l-22.701-30.352h44.585zm-49.191 0H866.96l-21.177-30.352h44.733zm-49.192 0H817.62l-19.58-30.352h44.845zm-49.191 0h-46.516l-18.02-30.352h44.956zm-49.192 0h-46.664l-16.46-30.352h45.105zm-49.191 0h-46.776l-14.899-30.352h45.216zm-49.228 0h-46.851l-13.338-30.352h45.327zm-49.192 0h-46.962l-11.778-30.352h45.402zm-49.228 0h-47.037l-10.18-30.352h45.476zm-49.192 0h-47.148l-8.619-30.352h45.587zm-49.228 0h-47.222l-7.06-30.352h45.662zm-49.229 0h-47.296l-5.462-30.352h45.699zm-49.228 0h-47.334l-3.901-30.352h45.773zm-44.362 37.684h-49.303l-2.675-34.468h47.52zm-47.854 42.956h-51.569l-1.04-39.741h49.526zm-50.751 103.726h-56.92l1.338-52.345h54.244zm-56.102-103.726h-51.57l3.084-39.741h49.526zm-50.121-42.956H73.434l4.458-34.468h47.519zm-46.33-37.684H29.072l5.499-30.352h45.736zm-49.303 0h-47.26l7.06-30.352h45.699zm-49.266 0h-47.222l8.62-30.352h45.662zm-49.303 0h-47.147l10.18-30.352h45.587zm-49.302 0h-47.037l11.741-30.352h45.476zm-49.303 0h-46.962l13.338-30.352h45.401zm-49.303 0h-46.851l14.862-30.352h45.327zm-49.303 0h-46.776l16.459-30.352h45.216zm-49.303 0h-46.665l18.02-30.352h45.104zm-49.34 0h-46.516l19.58-30.352h44.956zm-49.303 0h-46.404l21.14-30.352h44.844zm-49.34 0h-46.256l22.701-30.352h44.733zm-49.302 0h-46.145l24.261-30.352h44.584zm-49.34 0h-45.997l25.859-30.352h44.436zm-49.303 0h-45.885l27.419-30.352h44.288zm.557 3.216h46.182l-27.642 34.468h-47.966zm19.134 37.683h48.263l-29.797 39.741h-50.306zm19.134 42.956h50.604l-31.395 44.95h-52.944zm19.877 48.166h53.242l-33.81 52.345h-55.916zm20.138 55.56h56.25l-34.218 57.49h-59.186zm22.775 60.705h59.483l-34.627 63.856h-62.79zm25.636 67.071h63.087l-34.442 70.094h-66.69zm29.5 73.309h66.988l-32.658 74.338h-70.815zm69.328 0h67.063l-28.831 74.338h-70.89zm69.292 0h67.174l-24.968 74.338h-71zm69.329 0h67.211l-21.104 74.338h-71.075zm69.291 0h67.322l-17.276 74.338h-71.149zm69.329 0h67.36l-13.413 74.338h-71.224zm69.328 0h67.434l-9.623 74.338h-71.26zm69.329 0H95.54l-5.759 74.338H18.483zm69.329 0h67.508l-1.932 74.338H91.639zm69.366 0h67.47l1.932 74.338h-71.335zm69.328 0H303.6l5.759 74.338h-71.335zm69.366 0h67.471l9.623 74.338h-71.335zm69.366 0h67.434l13.449 74.338h-71.26zm69.403 0h67.359l17.277 74.338h-71.224zm69.365 0h67.323l21.103 74.338h-71.149zm69.403 0h67.211l25.005 74.338h-71.112zm69.366 0h67.174l28.794 74.338h-71.001zm69.403 0h67.062l32.658 74.338h-70.889zm69.403 0h66.988l36.485 74.338h-70.815zm33.401-73.309h63.05l38.082 70.094h-66.69zm29.24-67.071h59.483l37.934 63.856h-62.79zm26.007-60.705h56.251l37.154 57.49h-59.186zm23.147-55.56h53.241l36.485 52.345h-55.916zm22.515-48.166h50.604l33.739 44.95h-52.948zm21.475-42.956h48.263l31.845 39.741h-50.311zm21.215-37.683h46.183l29.42 34.468h-47.961zm20.917-33.568h44.286l27.42 30.352h-45.88zm-2.749-3.216-20.509-23.986h42.914l21.73 23.987zm-3.307 0h-44.287l-19.245-23.986h43.024zm-47.482 0h-44.399l-18.019-23.986H916.3zm-47.445 0h-44.547l-16.757-23.986h43.284zm-47.482 0H795.96l-15.53-23.986h43.432zm-47.446 0h-44.807l-14.267-23.986h43.544zm-47.445 0h-44.956l-13.003-23.986h43.655zm-47.482 0h-45.03l-11.815-23.986h43.804zm-47.482 0h-45.142L595.07 72.345h43.916zm-47.483 0h-45.216l-9.325-23.986h43.99zm-47.445 0h-45.364l-8.063-23.986h44.101zm-47.482 0h-45.439l-6.836-23.986h44.175zm-47.483 0h-45.513l-5.573-23.986h44.25zm-47.519 0h-45.55l-4.347-23.986h44.324zm-47.482 0h-45.588l-3.121-23.986h44.362zm-43.173 33.568h-47.371l-2.34-30.352h45.773zm-46.33 37.684h-49.34l-.892-34.468h47.557zm-48.857 91.121h-54.022l1.152-44.95h51.718zm-53.539-91.121h-49.34l2.675-34.468h47.557zm-48.299-37.684H78.301l3.938-30.352h45.773zM80.716 96.331H35.128l4.347-23.987h44.362zm-47.52 0h-45.55l5.573-23.987h44.324zm-47.556 0h-45.514l6.837-23.987h44.25zm-47.557 0h-45.439l8.1-23.987h44.175zm-47.557 0h-45.364l9.325-23.987h44.102zm-47.593 0h-45.216l10.551-23.987h43.99zm-47.557 0h-45.142l11.778-23.987h43.916zm-47.594 0h-45.03l13.041-23.987h43.804zm-47.556 0h-44.919l14.267-23.987h43.655zm-47.594 0h-44.807l15.53-23.987h43.544zm-47.594 0h-44.659l16.757-23.987h43.432zm-47.594 0h-44.547l18.02-23.987h43.284zm-47.594 0h-44.398l19.245-23.987h43.173zm-47.593 0h-44.287l20.508-23.987h43.024zm-47.594 0h-44.139l21.735-23.987h42.913zm-47.594 0h-43.99l22.961-23.987h42.764zm-2.898 3.215-27.419 30.352h-45.736l28.979-30.352zm-26.862 33.568h46.033l-29.425 34.468H-693.9zm17.165 37.683h48.151l-31.84 39.741h-50.195zm16.905 42.956h50.492l-33.736 44.95h-52.795zm17.388 48.166h53.13l-36.522 52.345h-55.805zm17.276 55.56h56.102l-37.191 57.49h-59.074zm19.655 60.705h59.371l-37.971 63.856h-62.678zm22.143 67.071h62.975l-38.045 70.094h-66.579zm25.71 73.309h66.877l-36.485 74.338h-70.703zm31.247 77.553h70.963l-35.89 81.604h-75.162zm73.304 0h71.075l-31.655 81.604h-75.311zm73.304 0h71.186l-27.457 81.604h-75.384zm73.304 0h71.26l-23.221 81.604h-75.459zm73.341 0h71.335l-19.023 81.604h-75.533zm73.341 0h71.372l-14.787 81.604h-75.607zm73.304 0h71.447L5.59 677.721h-75.645zm73.342 0H89.52l-6.316 81.604H7.485zm73.34 0H162.9l-2.117 81.604h-75.72zm73.379 0h71.484l2.118 81.604h-75.72zm73.341 0h71.521l6.316 81.604h-75.719zm73.379 0h71.483l10.552 81.604h-75.719zm73.378 0h71.447l14.75 81.604h-75.645zm73.379 0h71.372l19.022 81.604h-75.607zm73.378 0h71.335l23.221 81.604h-75.533zm73.415 0h71.261l27.419 81.604h-75.459zm73.379 0h71.186l31.655 81.604h-75.385zm73.415 0h71.075l35.891 81.604h-75.311zm73.416 0H896.2l40.089 81.604h-75.162zm35.333-77.553h66.876l40.312 74.338h-70.703zm29.611-73.309h62.976l41.686 70.094h-66.616zm25.748-67.071H975.3l41.28 63.856H953.9zm22.924-60.705h56.102l40.165 57.49h-59.077zm20.248-55.56h53.129l39.2 52.345h-55.807zm20.026-48.166h50.493l36.04 44.95h-52.8zm19.246-42.956h48.147l33.89 39.741h-50.2zm19.287-37.683h46.03l31.21 34.468h-47.82zm19.17-33.568H1081l28.98 30.352h-45.73zm-2.9-3.216-21.74-23.986h42.77l22.96 23.987zm3.57-45.978h41.5l18.91 18.777h-42.43zm14.37 18.777h-42.57l-17.021-18.777h41.651zm-46.03 0h-42.763l-16.014-18.777h41.761zm-46.07 0h-42.875l-15.047-18.777h41.909zm-46.033 0h-43.024l-14.081-18.777h42.058zm-46.071 0h-43.135l-13.115-18.777h42.169zm-46.033 0h-43.284l-12.112-18.777h42.281zm-46.071 0h-43.395l-11.146-18.777h42.429zm-46.033 0h-43.507l-10.217-18.777h42.541zm-46.07 0H639.84l-9.214-18.777h42.615zm-46.071 0h-43.73l-8.248-18.777h42.764zm-46.07 0h-43.804l-7.282-18.777h42.838zm-46.071 0h-43.915l-6.316-18.777h42.949zm-46.07 0h-43.99l-5.35-18.777h43.024zm-46.071 0h-44.064l-4.384-18.777h43.098zm-46.07 0h-44.139l-3.418-18.777h43.173zm-46.108 0h-44.175L314.3 50.352h43.247zM318.35 96.33h-45.625l-1.857-23.986h44.398zm-47.259 3.216 2.378 30.352h-47.408l-.781-30.352zm-44.807 110.992h-51.57l1.041-39.741h49.488zm-51.347-80.64h-47.408l2.378-30.352h45.81zm-46.665-33.567H82.648l3.083-23.987h44.399zM84.245 69.129H40.07l3.38-18.777h43.247zm-46.144 0H-6.038l4.384-18.777H41.52zm-46.145 0h-44.064l5.35-18.777H-3.66zm-46.145 0h-43.99l6.316-18.777h43.024zm-46.145 0h-43.915l7.282-18.777h42.95zm-46.182 0h-43.804l8.248-18.777h42.838zm-46.145 0h-43.729l9.214-18.777h42.764zm-46.182 0h-43.618l10.18-18.777h42.653zm-46.181 0h-43.507l11.183-18.777h42.541zm-46.145 0h-43.396l12.112-18.777h42.43zm-46.182 0h-43.284l13.115-18.777h42.281zm-46.182 0h-43.135l14.081-18.777h42.169zm-46.182 0h-43.024l15.047-18.777h42.058zm-46.182 0h-42.875l16.013-18.777h41.909zm-46.182 0h-42.764l17.017-18.777h41.76zm-46.219 0h-42.578l17.982-18.777h41.612zm-46.182 0h-42.429l18.911-18.777h41.5zm-46.182 0h-42.318l19.914-18.777h41.352zm.483 3.215h42.652l-22.998 23.987h-43.841zm16.571 27.202-28.98 30.352h-45.588l30.541-30.352zm-28.46 33.568h45.922l-31.209 34.468h-47.705zm15.233 37.683h48.002l-33.884 39.741h-50.046zm14.676 42.956h50.343l-36.039 44.95h-52.647zm14.935 48.166h52.944l-39.197 52.345h-55.693zm14.379 55.56h55.99l-40.163 57.49h-58.963zm16.496 60.705h59.26l-41.278 63.856h-62.529zm18.688 67.071h62.864l-41.686 70.094h-66.468zm21.921 73.309h66.765l-40.349 74.338h-70.592zm27.233 77.553h70.852l-40.088 81.604h-75.088zm29.166 84.82-42.652 86.877h-79.732l47.148-86.877zm2.452 0h75.348l-38.157 86.877h-79.843zm77.688 0h75.459l-33.661 86.877h-79.954zm77.726 0h75.533l-29.203 86.877h-80.029zm77.688 0h75.645l-24.707 86.877h-80.141zm77.725 0h75.682l-20.211 86.877h-80.178zm77.689 0h75.793l-15.716 86.877h-80.289zm77.725 0h75.83l-11.22 86.877h-80.326zm77.725 0h75.868l-6.725 86.877H-4.143zm77.726 0h75.905l-2.267 86.877H78.078zm77.762 0h75.868l2.266 86.877h-80.4zm77.725 0h75.905l6.725 86.877h-80.363zm77.763 0h75.868l11.22 86.877h-80.326zm77.762 0h75.831l15.716 86.877h-80.326zm77.763 0h75.793l20.212 86.877h-80.289zm77.8 0h75.681l24.708 86.877h-80.178zm77.762 0h75.645l29.203 86.877h-80.141zm77.8 0h75.533l33.698 86.877h-80.028zm77.799 0h75.459l38.157 86.877h-79.954zm77.8 0h75.347l42.653 86.877h-79.843zm77.8 0h75.231l47.15 86.877h-79.729zm-1.598-3.216-40.089-81.604h70.852l44.326 81.604zm-8.768-159.157h66.765l44.172 74.338h-70.588zm25.822-73.309h62.865l45.29 70.094h-66.469zm22.292-67.071h59.263l44.54 63.856h-62.53zm19.766-60.705h55.987l43.14 57.49h-58.96zm17.427-55.56h52.94l41.95 52.345h-55.7zm17.53-48.166h50.35l38.34 44.95h-52.65zm17.02-42.956h48l35.93 39.741h-50.05zm17.31-37.683h45.93l32.99 34.468h-47.71zm17.47-33.568h44.02l30.54 30.352h-45.58zm-3.09-3.216-23-23.986h42.66l24.18 23.987zm1.19-45.978h41.35l19.92 18.777h-42.32zm25.27-18.842h40.2l17.38 15.626h-41.01zm12.67 15.626h-41.17l-15.75-15.626h40.34zm-44.92 0h-41.32l-14.93-15.626h40.49zm-44.89 0h-41.458L975.226 31.51h40.644zm-44.914 0h-41.612L930.976 31.51h40.795zm-44.918 0h-41.724L886.763 31.51h40.906zm-44.919 0h-41.872L842.513 31.51h41.055zm-44.882 0h-42.021L798.263 31.51h41.204zm-44.919 0h-42.132L754.05 31.51h41.315zm-44.918 0h-42.281l-9.288-15.626h41.463zm-44.919 0h-42.392l-8.471-15.626h41.537zm-44.956 0h-42.466l-7.691-15.626h41.686zm-44.918 0h-42.578l-6.874-15.626h41.798zm-44.919 0h-42.69l-6.056-15.626h41.872zm-44.919 0h-42.801l-5.239-15.626h41.947zm-44.956 0h-42.875l-4.421-15.626h42.058zm-44.918 0h-42.95l-3.641-15.626h42.132zm-44.956 0h-43.024l-2.824-15.626h42.207zm-44.956 0h-43.061l-2.007-15.626h42.244zM314.858 69.13h-44.25l-1.449-18.777h43.247zm-43.99 27.201h-45.662l-.631-23.986h44.398zm-45.699 71.252h-49.34l.892-34.468h47.556zm-49.377-71.251H130.13l1.895-23.987h44.398zM130.39 69.129H86.177l2.415-18.777h43.247zM87.106 47.136h-43.06l2.823-15.626h42.243zm-45.03 0H-.911L2.73 31.51h42.207zm-44.993 0h-42.95l4.459-15.626H.724zm-44.993 0h-42.875l5.238-15.626h42.058zm-45.03 0h-42.801l6.056-15.626h41.983zm-45.031 0h-42.689l6.873-15.626h41.873zm-45.03 0h-42.578l7.654-15.626h41.798zm-45.03 0h-42.504l8.509-15.626h41.686zm-45.03 0h-42.392l9.325-15.626h41.538zm-45.03 0h-42.281l10.106-15.626h41.463zm-45.068 0h-42.132l10.923-15.626h41.315zm-45.03 0h-41.983l11.703-15.626h41.203zm-45.03 0h-41.872l12.521-15.626h41.055zm-45.067 0h-41.724l13.338-15.626h40.907zm-45.03 0h-41.612l14.155-15.626h40.795zm-45.068 0h-41.463l14.973-15.626h40.646zm-45.03 0h-41.315l15.753-15.626h40.498zm-45.067 0h-41.166l16.57-15.626h40.349zm-45.068 0h-41.017l17.388-15.626h40.2zm-45.03 0h-40.869l18.168-15.626h40.089zm.446 3.216h41.204l-19.915 18.777h-42.169zm21.772 21.992h42.467l-24.224 23.987h-43.73zm15.01 27.202-30.577 30.352h-45.439l32.138-30.352zm-30.057 33.568h45.736l-32.955 34.468h-47.557zm13.301 37.683h47.817l-35.928 39.741h-49.897zm12.446 42.956h50.195l-38.38 44.95h-52.535zm12.41 48.166h52.832l-41.909 52.345h-55.545zm11.517 55.56h55.842l-43.135 57.49h-58.814zm13.338 60.705h59.112l-44.547 63.856h-62.418zm15.233 67.071h62.716l-45.291 70.094h-66.356zm18.131 73.309h66.617l-44.176 74.338h-70.443zm23.221 77.553h70.741l-44.324 81.604h-74.976zm24.67 84.82-47.147 86.877h-79.621l51.644-86.877zm-46.33 90.092h79.917l-46.293 94.209h-84.785zm82.332 0h80.029l-41.389 94.209h-84.896zm82.37 0h80.103l-36.522 94.209h-84.97zm82.332 0h80.215l-31.655 94.209h-85.082zm82.37 0h80.289l-26.788 94.209h-85.156zm82.369 0h80.364l-21.921 94.209h-85.23zm82.37 0h80.437l-17.053 94.209h-85.305zm82.37 0h80.474l-12.15 94.209h-85.341zm82.406 0H75.96l-7.32 94.209h-85.378zm82.37 0h80.549l-2.452 94.209h-85.38zm82.406 0h80.549l2.415 94.209h-85.379zm82.407 0h80.549l7.282 94.209h-85.379zm82.407 0h80.512l12.186 94.209h-85.379zm82.444 0h80.474l17.017 94.209h-85.342zm82.406 0h80.438l21.921 94.209h-85.305zm82.444 0h80.363l26.788 94.209h-85.23zm82.444 0h80.289l31.655 94.209h-85.156zm82.444 0h80.177l36.56 94.209h-85.082zm82.444 0h80.103l41.389 94.209h-84.97zm82.444 0h80.028l46.254 94.209h-84.893zm82.444 0h79.918l51.16 94.209h-84.79zm33.588-90.092h75.12l51.65 86.877h-79.62zm-1.75-3.216-44.322-81.604h70.742l48.56 81.604zm-16.977-159.157h66.617l48 74.338h-70.44zm22.037-73.309h62.71l48.93 70.094h-66.35zm18.79-67.071h59.15l47.86 63.856h-62.46zm16.65-60.705h55.84l46.11 57.49h-58.82zm14.53-55.56h52.83l44.62 52.345h-55.54zm15.04-48.166h50.2l40.72 44.95h-52.54zm14.83-42.956h47.85l37.97 39.741h-49.89zm15.38-37.683h45.74l34.77 34.468h-47.56zm15.68-33.568h43.88l32.13 30.352h-45.47zm-3.23-3.216-24.23-23.986h42.47l25.49 23.987zm-1.19-45.978h41.2l20.88 18.777h-42.17zm24.26-18.842h40.09l18.17 15.626h-40.87zm-3.57-3.215-15.05-13.569h39.2l15.75 13.569zm-4.01 0h-40.05l-14.38-13.569h39.38zm-43.95 0h-40.2l-13.64-13.569h39.5zm-43.92 0h-40.35l-12.96-13.569h39.64zm-43.95 0h-40.462l-12.261-13.569h39.792zm-43.917 0h-40.609l-11.592-13.569h39.94zm-43.953 0h-40.757l-10.849-13.569h40.051zm-43.915 0h-40.907l-10.143-13.569h40.201zm-43.953 0h-41.018l-9.474-13.569h40.349zm-43.953 0H751.97l-8.768-13.569h40.46zm-43.916 0h-41.277l-8.063-13.569h40.572zm-43.952 0h-41.389l-7.357-13.569h40.683zm-43.953 0h-41.501l-6.65-13.569h40.795zm-43.953 0h-41.612l-5.944-13.569h40.906zm-43.953 0h-41.723l-5.239-13.569h41.018zm-43.952 0h-41.798l-4.57-13.569h41.129zm-43.953 0h-41.909l-3.827-13.569h41.166zm-43.99 0h-41.946l-3.158-13.569h41.277zm-43.952 0h-42.021l-2.452-13.569h41.314zm-43.99 0h-42.058l-1.747-13.569h41.353zm-43.544 3.215 2.006 15.626h-43.098L267.71 31.51zM268.75 69.129H224.5l-.483-18.777h43.247zm-44.844-21.993-.409-15.626h42.318l1.226 15.626zm.297 82.762h-47.408l.78-30.352h45.848zm-47.111-82.762h-43.135l1.226-15.626h42.318zm-.111 3.216-.483 18.777h-44.25l1.486-18.777zm-44.882-3.216H89.001l2.006-15.626h42.281zM89.521 28.295H47.463l2.452-13.569h41.352zm-44.027 0H3.474L6.63 14.726h41.315zm-44.027 0h-41.946l3.826-13.569H4.625zm-44.027 0h-41.91l4.57-13.569h41.204zm-44.064 0h-41.798l5.239-13.569h41.129zm-44.027 0h-41.724l5.945-13.569h41.017zm-44.064 0h-41.612l6.65-13.569h40.906zm-44.065 0h-41.5l7.356-13.569h40.795zm-44.064 0h-41.389l8.062-13.569h40.684zm-44.064 0h-41.278l8.769-13.569h40.571zm-44.064 0h-41.129l9.437-13.569h40.46zm-44.064 0h-41.018l10.143-13.569h40.349zm-44.064 0h-40.907l10.849-13.569h40.2zm-44.065 0h-40.757l11.555-13.569h40.051zm-44.101 0h-40.609l12.261-13.569h39.94zm-44.064 0h-40.46l12.929-13.569h39.792zm-44.064 0h-40.349l13.672-13.569h39.643zm-44.065 0h-40.2l14.342-13.569h39.494zm-44.101 0h-40.051l15.047-13.569h39.383zm-44.064 0h-39.903l15.753-13.569h39.197zm-44.101 0h-39.755l16.459-13.569h39.086zm-3.716 3.215-18.205 15.626h-40.72l18.985-15.626zM-813.2 50.352h41.055l-20.881 18.777h-42.02zm20.62 21.992h42.318l-25.45 23.987h-43.581zm13.45 27.202-32.101 30.352h-45.327l33.698-30.352zm-31.618 33.568h45.587l-34.775 34.468h-47.371zm11.332 37.683h47.705l-38.008 39.741h-49.749zm10.217 42.956h50.083l-40.683 44.95h-52.424zm9.92 48.166h52.721l-44.621 52.345h-55.434zm8.657 55.56h55.693l-46.07 57.49h-58.703zm10.217 60.705h58.963l-47.854 63.856h-62.269zm11.778 67.071h62.566l-48.931 70.094H-801.2zm14.304 73.309h66.505l-48.003 74.338h-70.368zm19.208 77.553h70.629l-48.522 81.604h-74.865zm20.175 84.82-51.644 86.877h-79.508l56.139-86.877zm-50.901 90.092h79.806l-51.123 94.209h-84.673zm29.463 97.424h84.97l-49.377 100.446h-90.134zm87.385 0h85.082l-44.175 100.446h-90.247zm87.423 0h85.119l-38.937 100.446h-90.358zm87.385 0h85.231l-33.773 100.446h-90.432zm87.385 0h85.342l-28.571 100.446h-90.543zm87.423 0h85.379l-23.37 100.446h-90.617zm87.385 0h85.453l-18.168 100.446h-90.654zm87.423 0h85.527l-13.003 100.446h-90.692zm87.422 0h85.565l-7.802 100.446h-90.767zm87.422 0h85.565l-2.6 100.446H62.473zm87.423 0H243.3l2.601 100.446h-90.804zm87.46 0h85.564l7.803 100.446h-90.767zm87.459 0h85.528l13.003 100.446h-90.766zm87.423 0h85.527l18.205 100.446h-90.729zm87.459 0h85.491l23.369 100.446h-90.655zm87.497 0h85.379l28.608 100.446h-90.618zm87.46 0h85.341l33.773 100.446h-90.543zm87.496 0h85.231l38.974 100.446h-90.432zm87.497 0h85.119l44.176 100.446h-90.358zm87.46 0h85.081l49.34 100.446h-90.246zm87.501 0h84.97l54.54 100.446h-90.14zm34.62-97.424h79.81l55.99 94.209h-84.67zm28.91-90.092h75.01l56.14 86.877h-79.51zm-1.93-3.216-48.53-81.604h70.63l52.76 81.604zm-25.19-159.157h66.5l51.87 74.338h-70.37zm18.24-73.309h62.56l52.58 70.094h-66.21zm15.38-67.071h58.96l51.16 63.856h-62.27zm13.49-60.705h55.69l49.08 57.49H1162zm11.63-55.56h52.72l47.33 52.345h-55.43zm12.55-48.166h50.09l43.02 44.95h-52.39zm12.6-42.956h47.7l40.06 39.741h-49.75zm13.45-37.683h45.59l36.55 34.468h-47.37zm13.97-33.568h43.73l33.7 30.352h-45.33zm-3.42-3.216-25.45-23.986h42.32l26.71 23.987zm-3.57-45.978h41.06l21.84 18.777h-42.02zm23.3-18.842h39.94l18.98 15.626h-40.72zm-3.72-3.215-15.79-13.569h39.09l16.46 13.569zm9.29-25.08 10.11 8.296h-38.9l-9.66-8.296zm-42.65 0 9.66 8.296h-39.01l-9.25-8.296zm-42.62 0 9.22 8.296h-39.16l-8.81-8.296zm-42.65 0 8.81 8.296h-39.31l-8.4-8.296zm-42.61 0 8.36 8.296h-39.46l-7.952-8.296zm-42.656 0 7.951 8.296h-39.606l-7.542-8.296zm-42.652 0 7.542 8.296H913.96l-7.097-8.296zm-42.615 0 7.059 8.296H870.75l-6.651-8.296zm-42.653 0 6.651 8.296H827.54l-6.241-8.296zm-42.652 0 6.242 8.296h-40.163l-5.796-8.296zm-42.615 0 5.796 8.296h-40.312l-5.35-8.296zm-42.653 0 5.351 8.296h-40.424l-4.904-8.296zm-42.652 0 4.942 8.296h-40.535l-4.533-8.296zm-42.652 0 4.495 8.296h-40.646l-4.087-8.296zm-42.653 0 4.087 8.296h-40.757l-3.641-8.296zm-42.652 0 3.641 8.296h-40.869l-3.195-8.296zm-42.689 0 3.232 8.296h-40.943l-2.787-8.296zm-42.653 0 2.787 8.296h-41.018l-2.378-8.296zm-42.652 0 2.34 8.296H395.63l-1.932-8.296zm-42.69 0 1.932 8.296h-41.166l-1.486-8.296zm-42.689 0 1.523 8.296h-41.24l-1.078-8.296zm-39.457 25.08H267.45l-1.041-13.569h41.39zm-3.233-25.08 1.078 8.296h-41.241l-.631-8.296zm-40.757 25.08h-42.132l-.335-13.569h41.427zm-1.932-25.08.632 8.296h-41.241l-.223-8.296zm-83.559 0h40.869l.186 8.296h-41.24zm-.297 11.511h41.464l.334 13.569h-42.132zm-.409 16.784h42.281l.409 15.626H178.95zm-.519 18.842h43.32l.483 18.777h-44.287zm43.878 21.992.631 23.987h-45.699l.632-23.987zM137.375 3.215h40.832l-.223 8.296h-41.241zm40.535 11.511-.335 13.569h-42.132l1.04-13.569zM94.685 3.216h40.795l-.632 8.295h-41.24zm39.904 11.51-1.041 13.569H91.453L93.2 14.726zM51.996 3.216h40.795l-1.078 8.295h-41.24zm-42.69 0h40.72l-1.485 8.295H7.374zm-2.006 0L5.368 11.51h-41.092l2.34-8.296zm-42.726 0-2.378 8.295h-41.018l2.787-8.296zm-42.764 0-2.787 8.295h-40.943l3.232-8.296zm-42.764 0-3.195 8.295h-40.869l3.641-8.296zm-42.727 0-3.678 8.295h-40.757l4.086-8.296zm-42.764 0-4.086 8.295h-40.647l4.496-8.296zm-42.763 0-4.533 8.295h-40.535l4.942-8.296zm-42.801 0-4.905 8.295h-40.423l5.35-8.296zm-42.764 0-5.35 8.295h-40.312l5.796-8.296zm-42.764 0-5.796 8.295h-40.163l6.242-8.296zm-42.764 0-6.242 8.295h-40.014l6.651-8.296zm-42.801 0-6.65 8.295h-39.903l7.096-8.296zm-42.764 0-7.096 8.295h-39.754l7.542-8.296zm-42.763 0-7.543 8.295h-39.605l7.951-8.296zm-42.801 0-7.951 8.295h-39.457l8.359-8.296zm-42.764 0-8.397 8.295h-39.308l8.805-8.296zm-42.801 0-8.805 8.295h-39.16l9.214-8.296zm-42.764 0-9.251 8.295h-39.011l9.66-8.296zm-42.801 0-9.66 8.295h-38.9l10.106-8.296zm-42.764 0-10.105 8.295h-38.752l10.552-8.296zm-91.88 8.295 10.923-8.296h38.156l-10.514 8.296zm38.974 3.215h38.899l-16.459 13.569h-39.605zm-41.055 32.41 19.803-15.626h39.791l-18.985 15.626zm18.205 21.993 22.812-18.777h40.907l-21.884 18.777zm42.281 3.215h42.169l-26.676 23.987h-43.433zm-66.914 57.554 35.222-30.352h43.618l-33.698 30.352zm7.245 37.684 38.343-34.468h45.476l-36.559 34.468zm5.648 42.956 42.095-39.741h47.556l-40.051 39.741zm4.755 48.165 45.328-44.95h49.934l-42.987 44.95zm2.75 55.561 50.008-52.345h52.573l-47.297 52.345zm3.752 60.705 52.052-57.49h55.582l-49.08 57.49zm4.682 67.071 54.43-63.856h58.851l-51.161 63.856zm6.576 73.309 56.176-70.094h62.455l-52.572 70.094zm10.997 77.553 55.693-74.338h66.394l-51.866 74.338zm70.889 3.215h70.518l-52.758 81.604h-74.753zm-119.857 171.697 60.634-86.877h74.902l-56.139 86.877zm19.208 97.424 60.895-94.209h79.694l-56.027 94.209zm25.562 103.661 59.743-100.446h84.859l-54.542 100.446zm128.7 110.031h-95.819l57.959-106.816h90.321zm98.383 0h-95.931l52.461-106.816h90.395zm98.382 0h-96.042l46.925-106.816h90.507zm98.383 0h-96.153l41.389-106.816h90.617zm98.346 0h-96.228l35.89-106.816h90.692zm98.345 0h-96.265l30.355-106.816h90.766zm98.346 0h-96.339l24.855-106.816h90.804zm98.346 0h-96.377l19.32-106.816h90.878zm98.345 0h-96.413l13.784-106.816h90.915zm98.346 0h-96.45l8.247-106.816h90.952zm1.857 0 2.75-106.816h90.952l2.749 106.816zm98.309 0-2.749-106.816h90.952l8.248 106.816zm98.346 0-8.286-106.816h90.915l13.784 106.816zm98.345 0-13.821-106.816h90.878l19.32 106.816zm98.346 0-19.32-106.816h90.803l24.856 106.816zm98.345 0-24.855-106.816h90.766l30.354 106.816zm98.346 0-30.354-106.816h90.692l35.89 106.816zm98.346 0-35.854-106.816h90.581l41.426 106.816zm98.382 0-41.389-106.816h90.506l46.925 106.816zm98.382 0-46.924-106.816h90.394l52.46 106.816zm194.2 0h-95.82l-52.46-106.816h90.32zm32.88-110.031h-90.06l-54.54-100.446h84.86zm25.57-103.661h-84.57l-56.02-94.209h79.69zm19.2-97.424h-79.39l-56.14-86.877h74.9zm-62.86-90.093h-74.75l-52.76-81.604h70.52zm13.9-84.819h-70.22l-51.87-74.338h66.39zm10.99-77.553h-66.06l-52.57-70.094h62.46zm6.58-73.309h-62.12l-51.16-63.856h58.85zm4.68-67.071h-58.55l-49.08-57.49h55.58zm3.75-60.705h-55.24l-47.34-52.345h52.57zm2.75-55.561h-52.27l-42.99-44.95h49.94zm4.76-48.165h-49.6l-40.05-39.741h47.55zm5.65-42.956h-47.26l-36.56-34.468h45.47zm7.24-37.684h-45.14l-33.7-30.352h43.62zm-38.97-33.567h-43.44l-26.67-23.987h42.17zm14.37-27.202h-41.87l-21.88-18.777h40.91zm18.17-21.993h-40.57l-19.02-15.626h39.79zm-23.89-18.841h-39.6l-16.46-13.569h38.9zm21.81-16.784h-38.56l-10.52-8.296h38.16z"/></g><defs><clipPath id="a"><rect width="401" height="2335" fill="#fff" rx="20"/></clipPath></defs></svg>