<svg width="1920" height="1149" viewBox="0 0 1920 1149" fill="none" xmlns="http://www.w3.org/2000/svg">
<path d="M-165.594 262.164L-969.615 639.014C-1014.03 659.833 -1053.8 689.397 -1086.52 725.938L-1318.85 985.333C-1517.28 1206.87 -1554.49 1529.44 -1411.72 1790.34C-1249.35 2087.05 -898.424 2225.72 -577.094 2120.12L-333.834 2040.18C-10.3416 1933.88 345.293 2008.36 598.939 2235.54C990.761 2586.49 1592.89 2553.34 1943.83 2161.52L2184.39 1892.94C2326.01 1734.82 2514.88 1626.61 2722.92 1584.41L2831.91 1562.3C3084.88 1510.98 3295.84 1337.37 3394.87 1099C3603.52 596.796 3244.9 41.1418 2701.33 24.4259L1914.83 0.239306C1716.55 -5.85845 1542.33 130.839 1501.07 324.88C1439.36 615.153 1099.33 745.821 859.109 571.574L522.603 327.481C322.18 182.1 58.5994 157.083 -165.594 262.164Z" fill="#6D55E8"/>
</svg>
