<svg width="1920" height="3265" viewBox="0 0 1920 3265" fill="none" xmlns="http://www.w3.org/2000/svg">
<path d="M1009.54 -27.0719L81.3094 -753.262C42.6733 -783.489 -1.66254 -805.612 -49.0462 -818.309L-385.409 -908.437C-672.685 -985.412 -977.283 -872.925 -1145.58 -627.71C-1336.97 -348.835 -1302.18 26.888 -1062.85 265.885L-880.43 448.04C-640.239 687.889 -546.368 1037.72 -634.221 1365.59C-770.411 1873.86 -467.253 2395.95 41.6829 2529.61L611.579 2679.28C836.836 2738.44 1074.54 2729.79 1294.9 2654.4L2050.66 2395.87C2101.5 2378.47 2157.71 2396.8 2188.54 2440.82C2270.39 2557.72 2451.63 2460.71 2399.76 2327.76L2003.12 1311.12C1977.26 1244.83 1980.67 1170.69 2012.51 1107.06L2050.7 1030.75C2159.08 814.172 2073.8 550.698 1859.07 438.712L1194.89 92.3387C1129.59 58.2815 1067.54 18.3109 1009.54 -27.0719Z" fill="#A393FE"/>
<ellipse cx="885.5" cy="2437" rx="1153.5" ry="231" fill="#A393FE"/>
<g opacity="0.32" filter="url(#filter0_d_5083_42176)">
<path d="M183.539 1432.14C183.539 1514.9 167.69 1589.78 142.111 1643.94C116.496 1698.17 81.3051 1731.27 42.7694 1731.27C4.23375 1731.27 -30.9569 1698.17 -56.5725 1643.94C-82.1517 1589.78 -98 1514.9 -98 1432.14C-98 1349.37 -82.1517 1274.49 -56.5725 1220.33C-30.9569 1166.1 4.23375 1133 42.7694 1133C81.3051 1133 116.496 1166.1 142.111 1220.33C167.69 1274.49 183.539 1349.37 183.539 1432.14Z" stroke="#312C2C" stroke-opacity="0.6" strokeWidth="2"/>
<path d="M341.214 1432.14C341.214 1514.9 325.365 1589.78 299.786 1643.94C274.17 1698.17 238.98 1731.27 200.444 1731.27C161.909 1731.27 126.718 1698.17 101.102 1643.94C75.5231 1589.78 59.6748 1514.9 59.6748 1432.14C59.6748 1349.37 75.5231 1274.49 101.102 1220.33C126.718 1166.1 161.909 1133 200.444 1133C238.98 1133 274.17 1166.1 299.786 1220.33C325.365 1274.49 341.214 1349.37 341.214 1432.14Z" stroke="#312C2C" stroke-opacity="0.6" strokeWidth="2"/>
<path d="M539 1432.14C539 1514.9 523.151 1589.78 497.572 1643.94C471.957 1698.17 436.766 1731.27 398.23 1731.27C359.695 1731.27 324.504 1698.17 298.888 1643.94C273.309 1589.78 257.461 1514.9 257.461 1432.14C257.461 1349.37 273.309 1274.49 298.888 1220.33C324.504 1166.1 359.695 1133 398.23 1133C436.766 1133 471.957 1166.1 497.572 1220.33C523.151 1274.49 539 1349.37 539 1432.14Z" stroke="#312C2C" stroke-opacity="0.6" strokeWidth="2"/>
</g>
<path d="M155.5 1671L163.012 1707.54L192.46 1684.34L174.521 1717.11L212.126 1718.1L177.129 1731.78L205.296 1756.5L169.618 1744.68L175.166 1781.56L155.5 1749.77L135.834 1781.56L141.382 1744.68L105.704 1756.5L133.871 1731.78L98.8736 1718.1L136.479 1717.11L118.54 1684.34L147.988 1707.54L155.5 1671Z" fill="#EEDC3B"/>
<g opacity="0.32">
<path d="M1825.04 2357.14C1825.04 2439.96 1809.18 2514.92 1783.56 2569.15C1757.93 2623.42 1722.61 2656.77 1683.77 2656.77C1644.93 2656.77 1609.61 2623.42 1583.98 2569.15C1558.36 2514.92 1542.5 2439.96 1542.5 2357.14C1542.5 2274.31 1558.36 2199.35 1583.98 2145.12C1609.61 2090.85 1644.93 2057.5 1683.77 2057.5C1722.61 2057.5 1757.93 2090.85 1783.56 2145.12C1809.18 2199.35 1825.04 2274.31 1825.04 2357.14Z" stroke="#6A6A6A"/>
<path d="M1982.71 2357.14C1982.71 2439.96 1966.86 2514.92 1941.24 2569.15C1915.6 2623.42 1880.29 2656.77 1841.44 2656.77C1802.6 2656.77 1767.29 2623.42 1741.65 2569.15C1716.03 2514.92 1700.17 2439.96 1700.17 2357.14C1700.17 2274.31 1716.03 2199.35 1741.65 2145.12C1767.29 2090.85 1802.6 2057.5 1841.44 2057.5C1880.29 2057.5 1915.6 2090.85 1941.24 2145.12C1966.86 2199.35 1982.71 2274.31 1982.71 2357.14Z" stroke="#6A6A6A"/>
<path d="M2180.5 2357.14C2180.5 2439.96 2164.64 2514.92 2139.02 2569.15C2113.39 2623.42 2078.07 2656.77 2039.23 2656.77C2000.39 2656.77 1965.07 2623.42 1939.44 2569.15C1913.82 2514.92 1897.96 2439.96 1897.96 2357.14C1897.96 2274.31 1913.82 2199.35 1939.44 2145.12C1965.07 2090.85 2000.39 2057.5 2039.23 2057.5C2078.07 2057.5 2113.39 2090.85 2139.02 2145.12C2164.64 2199.35 2180.5 2274.31 2180.5 2357.14Z" stroke="#6A6A6A"/>
</g>
<path fillRule="evenodd" clipRule="evenodd" d="M1721.1 2607.8C1744.61 2607.69 1763.64 2588.61 1763.68 2565.08C1763.72 2588.61 1782.75 2607.69 1806.26 2607.8C1782.75 2607.92 1763.72 2627 1763.68 2650.53C1763.64 2627 1744.61 2607.92 1721.1 2607.8Z" fill="#4B2ED1"/>
<rect x="1791" y="2047.47" width="42.7042" height="42.7042" rx="4.06988" transform="rotate(-25.281 1791 2047.47)" fill="#DE9CFD"/>
<rect x="1847.85" y="2067.85" width="42.7042" height="42.7042" rx="4.06988" transform="rotate(-25.281 1847.85 2067.85)" fill="#DE9CFD"/>
<defs>
<filter id="filter0_d_5083_42176" x="-103" y="1132" width="647" height="608.273" filterUnits="userSpaceOnUse" color-interpolation-filters="sRGB">
<feFlood flood-opacity="0" result="BackgroundImageFix"/>
<feColorMatrix in="SourceAlpha" type="matrix" values="0 0 0 0 0 0 0 0 0 0 0 0 0 0 0 0 0 0 127 0" result="hardAlpha"/>
<feOffset dy="4"/>
<feGaussianBlur stdDeviation="2"/>
<feComposite in2="hardAlpha" operator="out"/>
<feColorMatrix type="matrix" values="0 0 0 0 0 0 0 0 0 0 0 0 0 0 0 0 0 0 0.21 0"/>
<feBlend mode="normal" in2="BackgroundImageFix" result="effect1_dropShadow_5083_42176"/>
<feBlend mode="normal" in="SourceGraphic" in2="effect1_dropShadow_5083_42176" result="shape"/>
</filter>
</defs>
</svg>
