<svg width="1920" height="3133" viewBox="0 0 1920 3133" fill="none" xmlns="http://www.w3.org/2000/svg">
<g style="mix-blend-mode:plus-lighter">
<line x1="20.9365" y1="-16" x2="20.9365" y2="1204" stroke="#452BC0"/>
<line x1="103.812" y1="-16" x2="103.812" y2="1204" stroke="#452BC0"/>
<line x1="186.69" y1="-16" x2="186.69" y2="1204" stroke="#452BC0"/>
<line x1="269.566" y1="-16" x2="269.566" y2="1204" stroke="#452BC0"/>
<line x1="352.445" y1="-16" x2="352.445" y2="1204" stroke="#452BC0"/>
<line x1="435.323" y1="-16" x2="435.323" y2="1204" stroke="#452BC0"/>
<line x1="518.199" y1="-16" x2="518.199" y2="1204" stroke="#452BC0"/>
<line x1="601.078" y1="-16" x2="601.078" y2="1204" stroke="#452BC0"/>
<line x1="683.956" y1="-16" x2="683.956" y2="1204" stroke="#452BC0"/>
<line x1="766.832" y1="-16" x2="766.832" y2="1204" stroke="#452BC0"/>
<line x1="849.711" y1="-16" x2="849.711" y2="1204" stroke="#452BC0"/>
<line x1="850.928" y1="0.628906" x2="-425.999" y2="0.6288" stroke="#452BC0"/>
<line x1="850.928" y1="79.8125" x2="-425.999" y2="79.8124" stroke="#452BC0"/>
<line x1="850.928" y1="158.996" x2="-425.999" y2="158.996" stroke="#452BC0"/>
<line x1="850.928" y1="238.176" x2="-425.999" y2="238.176" stroke="#452BC0"/>
<line x1="850.928" y1="317.359" x2="-425.999" y2="317.359" stroke="#452BC0"/>
<line x1="850.928" y1="396.543" x2="-425.999" y2="396.543" stroke="#452BC0"/>
<line x1="850.928" y1="475.727" x2="-425.999" y2="475.726" stroke="#452BC0"/>
<line x1="850.928" y1="554.906" x2="-425.999" y2="554.906" stroke="#452BC0"/>
<line x1="850.928" y1="634.094" x2="-425.999" y2="634.094" stroke="#452BC0"/>
<line x1="850.928" y1="713.273" x2="-425.999" y2="713.273" stroke="#452BC0"/>
<line x1="850.928" y1="792.457" x2="-425.999" y2="792.457" stroke="#452BC0"/>
<line x1="850.928" y1="871.641" x2="-425.999" y2="871.641" stroke="#452BC0"/>
<line x1="850.928" y1="950.82" x2="-425.999" y2="950.82" stroke="#452BC0"/>
<line x1="850.928" y1="1030" x2="-425.999" y2="1030" stroke="#452BC0"/>
<line x1="850.928" y1="1109.19" x2="-425.999" y2="1109.19" stroke="#452BC0"/>
<line x1="850.928" y1="1188.37" x2="-425.999" y2="1188.37" stroke="#452BC0"/>
</g>
<g style="mix-blend-mode:plus-lighter">
<line y1="-0.5" x2="1220" y2="-0.5" transform="matrix(4.5751e-08 1 1 -4.17627e-08 1845.17 -16)" stroke="#452BC0"/>
<line y1="-0.5" x2="1220" y2="-0.5" transform="matrix(4.5751e-08 1 1 -4.17627e-08 1762.29 -16)" stroke="#452BC0"/>
<line y1="-0.5" x2="1220" y2="-0.5" transform="matrix(4.5751e-08 1 1 -4.17627e-08 1679.41 -16)" stroke="#452BC0"/>
<line y1="-0.5" x2="1220" y2="-0.5" transform="matrix(4.5751e-08 1 1 -4.17627e-08 1596.54 -16)" stroke="#452BC0"/>
<line y1="-0.5" x2="1220" y2="-0.5" transform="matrix(4.5751e-08 1 1 -4.17627e-08 1513.66 -16)" stroke="#452BC0"/>
<line y1="-0.5" x2="1220" y2="-0.5" transform="matrix(4.5751e-08 1 1 -4.17627e-08 1430.78 -16)" stroke="#452BC0"/>
<line y1="-0.5" x2="1220" y2="-0.5" transform="matrix(4.5751e-08 1 1 -4.17627e-08 1347.9 -16)" stroke="#452BC0"/>
<line y1="-0.5" x2="1220" y2="-0.5" transform="matrix(4.5751e-08 1 1 -4.17627e-08 1265.03 -16)" stroke="#452BC0"/>
<line y1="-0.5" x2="1220" y2="-0.5" transform="matrix(4.5751e-08 1 1 -4.17627e-08 1182.15 -16)" stroke="#452BC0"/>
<line y1="-0.5" x2="1220" y2="-0.5" transform="matrix(4.5751e-08 1 1 -4.17627e-08 1099.27 -16)" stroke="#452BC0"/>
<line y1="-0.5" x2="1220" y2="-0.5" transform="matrix(4.5751e-08 1 1 -4.17627e-08 1016.4 -16)" stroke="#452BC0"/>
<line y1="-0.5" x2="1220" y2="-0.5" transform="matrix(4.5751e-08 1 1 -4.17627e-08 933.521 -16)" stroke="#452BC0"/>
<line y1="-0.5" x2="1276.93" y2="-0.5" transform="matrix(1 -8.35254e-08 -9.15021e-08 -1 848.926 0.128906)" stroke="#452BC0"/>
<line y1="-0.5" x2="1276.93" y2="-0.5" transform="matrix(1 -8.35254e-08 -9.15021e-08 -1 848.925 79.3125)" stroke="#452BC0"/>
<line y1="-0.5" x2="1276.93" y2="-0.5" transform="matrix(1 -8.35254e-08 -9.15021e-08 -1 848.926 158.496)" stroke="#452BC0"/>
<line y1="-0.5" x2="1276.93" y2="-0.5" transform="matrix(1 -8.35254e-08 -9.15021e-08 -1 848.926 237.676)" stroke="#452BC0"/>
<line y1="-0.5" x2="1276.93" y2="-0.5" transform="matrix(1 -8.35254e-08 -9.15021e-08 -1 848.926 316.859)" stroke="#452BC0"/>
<line y1="-0.5" x2="1276.93" y2="-0.5" transform="matrix(1 -8.35254e-08 -9.15021e-08 -1 848.926 396.043)" stroke="#452BC0"/>
<line y1="-0.5" x2="1276.93" y2="-0.5" transform="matrix(1 -8.35254e-08 -9.15021e-08 -1 848.926 475.227)" stroke="#452BC0"/>
<line y1="-0.5" x2="1276.93" y2="-0.5" transform="matrix(1 -8.35254e-08 -9.15021e-08 -1 848.926 554.406)" stroke="#452BC0"/>
<line y1="-0.5" x2="1276.93" y2="-0.5" transform="matrix(1 -8.35254e-08 -9.15021e-08 -1 848.926 633.594)" stroke="#452BC0"/>
<line y1="-0.5" x2="1276.93" y2="-0.5" transform="matrix(1 -8.35254e-08 -9.15021e-08 -1 848.926 712.773)" stroke="#452BC0"/>
<line y1="-0.5" x2="1276.93" y2="-0.5" transform="matrix(1 -8.35254e-08 -9.15021e-08 -1 848.926 791.957)" stroke="#452BC0"/>
<line y1="-0.5" x2="1276.93" y2="-0.5" transform="matrix(1 -8.35254e-08 -9.15021e-08 -1 848.926 871.141)" stroke="#452BC0"/>
<line y1="-0.5" x2="1276.93" y2="-0.5" transform="matrix(1 -8.35254e-08 -9.15021e-08 -1 848.926 950.32)" stroke="#452BC0"/>
<line y1="-0.5" x2="1276.93" y2="-0.5" transform="matrix(1 -8.35254e-08 -9.15021e-08 -1 848.926 1029.5)" stroke="#452BC0"/>
<line y1="-0.5" x2="1276.93" y2="-0.5" transform="matrix(1 -8.35254e-08 -9.15021e-08 -1 848.925 1108.69)" stroke="#452BC0"/>
<line y1="-0.5" x2="1276.93" y2="-0.5" transform="matrix(1 -8.35254e-08 -9.15021e-08 -1 848.926 1187.87)" stroke="#452BC0"/>
</g>
<path d="M1018.75 -44.3105L82.0111 -754.17C42.8836 -783.821 -1.62282 -805.602 -49.0433 -818.309L-415.333 -916.456C-685.396 -988.819 -971.946 -885.251 -1133.34 -656.946C-1323.84 -387.459 -1288.88 -19.2165 -1051.05 209.599L-857.118 396.191C-620.384 623.959 -526.186 962.414 -611.212 1279.73C-740.592 1762.59 -452.655 2258.58 30.8086 2385.66L649.654 2548.33C873.414 2607.15 1109.31 2600.94 1329.66 2530.43L2082.37 2289.58C2131.2 2273.96 2184.54 2291.31 2214.84 2332.67C2298.12 2446.37 2475.03 2346.83 2421.08 2216.62L2021.56 1252.48C1994.11 1186.23 1997.11 1111.27 2029.76 1047.42L2065.66 977.217C2170.18 772.834 2089.08 522.421 1884.59 418.114L1196.33 67.0465C1133.97 35.2363 1074.54 -2.02791 1018.75 -44.3105Z" fill="#A393FE"/>
<ellipse cx="885.5" cy="2437" rx="1153.5" ry="231" fill="#A393FE"/>
<g opacity="0.32" filter="url(#filter0_d_1_971)">
<path d="M183.539 1432.14C183.539 1514.9 167.69 1589.78 142.111 1643.94C116.496 1698.17 81.3051 1731.27 42.7694 1731.27C4.23375 1731.27 -30.9569 1698.17 -56.5725 1643.94C-82.1517 1589.78 -98 1514.9 -98 1432.14C-98 1349.37 -82.1517 1274.49 -56.5725 1220.33C-30.9569 1166.1 4.23375 1133 42.7694 1133C81.3051 1133 116.496 1166.1 142.111 1220.33C167.69 1274.49 183.539 1349.37 183.539 1432.14Z" stroke="#312C2C" stroke-opacity="0.6" stroke-width="2"/>
<path d="M341.214 1432.14C341.214 1514.9 325.365 1589.78 299.786 1643.94C274.17 1698.17 238.98 1731.27 200.444 1731.27C161.909 1731.27 126.718 1698.17 101.102 1643.94C75.5231 1589.78 59.6748 1514.9 59.6748 1432.14C59.6748 1349.37 75.5231 1274.49 101.102 1220.33C126.718 1166.1 161.909 1133 200.444 1133C238.98 1133 274.17 1166.1 299.786 1220.33C325.365 1274.49 341.214 1349.37 341.214 1432.14Z" stroke="#312C2C" stroke-opacity="0.6" stroke-width="2"/>
<path d="M539 1432.14C539 1514.9 523.151 1589.78 497.572 1643.94C471.957 1698.17 436.766 1731.27 398.23 1731.27C359.695 1731.27 324.504 1698.17 298.888 1643.94C273.309 1589.78 257.461 1514.9 257.461 1432.14C257.461 1349.37 273.309 1274.49 298.888 1220.33C324.504 1166.1 359.695 1133 398.23 1133C436.766 1133 471.957 1166.1 497.572 1220.33C523.151 1274.49 539 1349.37 539 1432.14Z" stroke="#312C2C" stroke-opacity="0.6" stroke-width="2"/>
</g>
<path d="M155.5 1671L163.012 1707.54L192.46 1684.34L174.521 1717.11L212.126 1718.1L177.129 1731.78L205.296 1756.5L169.618 1744.68L175.166 1781.56L155.5 1749.77L135.834 1781.56L141.382 1744.68L105.704 1756.5L133.871 1731.78L98.8736 1718.1L136.479 1717.11L118.54 1684.34L147.988 1707.54L155.5 1671Z" fill="#EEDC3B"/>
<g opacity="0.32">
<path d="M1825.04 2357.14C1825.04 2439.96 1809.18 2514.92 1783.56 2569.15C1757.93 2623.42 1722.61 2656.77 1683.77 2656.77C1644.93 2656.77 1609.61 2623.42 1583.98 2569.15C1558.36 2514.92 1542.5 2439.96 1542.5 2357.14C1542.5 2274.31 1558.36 2199.35 1583.98 2145.12C1609.61 2090.85 1644.93 2057.5 1683.77 2057.5C1722.61 2057.5 1757.93 2090.85 1783.56 2145.12C1809.18 2199.35 1825.04 2274.31 1825.04 2357.14Z" stroke="#6A6A6A"/>
<path d="M1982.71 2357.14C1982.71 2439.96 1966.86 2514.92 1941.24 2569.15C1915.6 2623.42 1880.29 2656.77 1841.44 2656.77C1802.6 2656.77 1767.29 2623.42 1741.65 2569.15C1716.03 2514.92 1700.17 2439.96 1700.17 2357.14C1700.17 2274.31 1716.03 2199.35 1741.65 2145.12C1767.29 2090.85 1802.6 2057.5 1841.44 2057.5C1880.29 2057.5 1915.6 2090.85 1941.24 2145.12C1966.86 2199.35 1982.71 2274.31 1982.71 2357.14Z" stroke="#6A6A6A"/>
<path d="M2180.5 2357.14C2180.5 2439.96 2164.64 2514.92 2139.02 2569.15C2113.39 2623.42 2078.07 2656.77 2039.23 2656.77C2000.39 2656.77 1965.07 2623.42 1939.44 2569.15C1913.82 2514.92 1897.96 2439.96 1897.96 2357.14C1897.96 2274.31 1913.82 2199.35 1939.44 2145.12C1965.07 2090.85 2000.39 2057.5 2039.23 2057.5C2078.07 2057.5 2113.39 2090.85 2139.02 2145.12C2164.64 2199.35 2180.5 2274.31 2180.5 2357.14Z" stroke="#6A6A6A"/>
</g>
<path fill-rule="evenodd" clip-rule="evenodd" d="M1721.1 2607.8C1744.61 2607.68 1763.64 2588.61 1763.68 2565.07C1763.72 2588.61 1782.75 2607.68 1806.26 2607.8C1782.75 2607.92 1763.72 2627 1763.68 2650.53C1763.64 2627 1744.61 2607.92 1721.1 2607.8Z" fill="#4B2ED1"/>
<rect x="1791" y="2047.47" width="42.7042" height="42.7042" rx="4.06988" transform="rotate(-25.281 1791 2047.47)" fill="#DE9CFD"/>
<rect x="1847.85" y="2067.85" width="42.7042" height="42.7042" rx="4.06988" transform="rotate(-25.281 1847.85 2067.85)" fill="#DE9CFD"/>
<defs>
<filter id="filter0_d_1_971" x="-103" y="1132" width="647" height="608.272" filterUnits="userSpaceOnUse" color-interpolation-filters="sRGB">
<feFlood flood-opacity="0" result="BackgroundImageFix"/>
<feColorMatrix in="SourceAlpha" type="matrix" values="0 0 0 0 0 0 0 0 0 0 0 0 0 0 0 0 0 0 127 0" result="hardAlpha"/>
<feOffset dy="4"/>
<feGaussianBlur stdDeviation="2"/>
<feComposite in2="hardAlpha" operator="out"/>
<feColorMatrix type="matrix" values="0 0 0 0 0 0 0 0 0 0 0 0 0 0 0 0 0 0 0.21 0"/>
<feBlend mode="normal" in2="BackgroundImageFix" result="effect1_dropShadow_1_971"/>
<feBlend mode="normal" in="SourceGraphic" in2="effect1_dropShadow_1_971" result="shape"/>
</filter>
</defs>
</svg>
