<svg width="1920" height="2717" viewBox="0 0 1920 2717" fill="none" xmlns="http://www.w3.org/2000/svg">
<path d="M1015.96 -29.0719L87.7381 -755.262C49.102 -785.489 4.76617 -807.612 -42.6175 -820.309L-378.98 -910.437C-666.256 -987.412 -970.854 -874.925 -1139.15 -629.71C-1330.54 -350.835 -1295.76 24.888 -1056.42 263.885L-874.001 446.04C-633.81 685.889 -539.939 1035.72 -627.793 1363.59C-763.982 1871.86 -460.825 2393.95 48.1116 2527.61L618.008 2677.28C843.265 2736.44 1080.97 2727.79 1301.33 2652.4L2057.09 2393.87C2107.93 2376.47 2164.14 2394.8 2194.96 2438.82C2276.82 2555.72 2458.06 2458.71 2406.19 2325.76L2009.55 1309.12C1983.68 1242.83 1987.1 1168.69 2018.94 1105.06L2057.13 1028.75C2165.51 812.172 2080.23 548.698 1865.5 436.712L1201.32 90.3387C1136.02 56.2815 1073.97 16.3109 1015.96 -29.0719Z" fill="#A393FE"/>
</svg>
