<svg width="304" height="98" viewBox="0 0 304 98" fill="none" xmlns="http://www.w3.org/2000/svg">
<g filter="url(#filter0_d_5017_38127)">
<mask id="path-1-outside-1_5017_38127" maskUnits="userSpaceOnUse" x="0" y="0.316406" width="292" height="86" fill="black">
<rect fill="white" y="0.316406" width="292" height="86"/>
<path fillRule="evenodd" clipRule="evenodd" d="M6.3952 3.31641L27.0575 22.2986L4 43.4812V44.9597L27.0575 66.1423L8.36331 83.3164H289V3.31641H6.3952Z"/>
</mask>
<path fillRule="evenodd" clipRule="evenodd" d="M6.3952 3.31641L27.0575 22.2986L4 43.4812V44.9597L27.0575 66.1423L8.36331 83.3164H289V3.31641H6.3952Z" fill="#FBFBF5"/>
<path d="M27.0575 22.2986L28.7185 20.4905L30.6866 22.2986L28.7185 24.1066L27.0575 22.2986ZM6.3952 3.31641L4.73416 5.12447L0.0935364 0.861182H6.3952V3.31641ZM4 43.4812H1.54477V42.4027L2.33896 41.6731L4 43.4812ZM4 44.9597L2.33896 46.7677L1.54477 46.0381V44.9597H4ZM27.0575 66.1423L28.7185 64.3342L30.6866 66.1423L28.7185 67.9504L27.0575 66.1423ZM8.36331 83.3164V85.7716H2.06165L6.70227 81.5083L8.36331 83.3164ZM289 83.3164H291.455V85.7716H289V83.3164ZM289 3.31641V0.861182H291.455V3.31641H289ZM25.3965 24.1066L4.73416 5.12447L8.05624 1.50835L28.7185 20.4905L25.3965 24.1066ZM2.33896 41.6731L25.3965 20.4905L28.7185 24.1066L5.66104 45.2892L2.33896 41.6731ZM1.54477 44.9597V43.4812H6.45523V44.9597H1.54477ZM25.3965 67.9504L2.33896 46.7677L5.66104 43.1516L28.7185 64.3342L25.3965 67.9504ZM6.70227 81.5083L25.3965 64.3342L28.7185 67.9504L10.0244 85.1245L6.70227 81.5083ZM289 85.7716H8.36331V80.8612H289V85.7716ZM291.455 3.31641V83.3164H286.545V3.31641H291.455ZM6.3952 0.861182H289V5.77163H6.3952V0.861182Z" fill="#6A6A6A" mask="url(#path-1-outside-1_5017_38127)"/>
</g>
<defs>
<filter id="filter0_d_5017_38127" x="0.09375" y="0.859375" width="303.361" height="96.9141" filterUnits="userSpaceOnUse" color-interpolation-filters="sRGB">
<feFlood flood-opacity="0" result="BackgroundImageFix"/>
<feColorMatrix in="SourceAlpha" type="matrix" values="0 0 0 0 0 0 0 0 0 0 0 0 0 0 0 0 0 0 127 0" result="hardAlpha"/>
<feOffset dx="12" dy="12"/>
<feComposite in2="hardAlpha" operator="out"/>
<feColorMatrix type="matrix" values="0 0 0 0 0 0 0 0 0 0 0 0 0 0 0 0 0 0 1 0"/>
<feBlend mode="normal" in2="BackgroundImageFix" result="effect1_dropShadow_5017_38127"/>
<feBlend mode="normal" in="SourceGraphic" in2="effect1_dropShadow_5017_38127" result="shape"/>
</filter>
</defs>
</svg>
