<svg xmlns="http://www.w3.org/2000/svg" width="111" height="61" fill="none"><path fill="#000" d="M60.935 42.51a14.9 14.9 0 0 1 0 9.581 12.5 12.5 0 0 1-1.477 2.85 10.3 10.3 0 0 1-2.163 2.302 9.7 9.7 0 0 1-2.85 1.51q-1.615.55-3.572.55h-9.238v-24.04h9.238q1.957 0 3.571.55a9.3 9.3 0 0 1 2.85 1.545 9.4 9.4 0 0 1 2.164 2.302q.927 1.305 1.477 2.85m-3.228 8.414q.618-1.752.618-3.606 0-1.89-.618-3.675a8.5 8.5 0 0 0-.996-1.923 6.5 6.5 0 0 0-1.477-1.58 6.5 6.5 0 0 0-1.957-1.064q-1.065-.412-2.404-.412h-5.804v17.24h5.804q1.34 0 2.438-.378a7 7 0 0 0 1.923-1.065 7.4 7.4 0 0 0 1.477-1.58 9.3 9.3 0 0 0 .996-1.957M39.42 59.303h-3.675l-2.233-5.392h-10.13l-2.233 5.392h-3.674l9.89-24.04h2.164zm-7.316-8.826-3.64-8.894-3.674 8.894zM18.562 40.313a9.6 9.6 0 0 1 .584 3.297q0 1.681-.584 3.297a9.3 9.3 0 0 1-1.065 1.991 7.4 7.4 0 0 1-1.58 1.58 8 8 0 0 1-2.06 1.065q-1.167.378-2.575.377H4.756v7.384H1.322V35.299h9.857q1.441 0 2.61.412a7.1 7.1 0 0 1 2.129 1.065 6.5 6.5 0 0 1 1.58 1.58q.652.892 1.064 1.957m-3.194 5.392q.79-2.096 0-4.19a4.3 4.3 0 0 0-1.51-1.992q-1.031-.79-2.68-.79H4.757v9.788h6.525a4.22 4.22 0 0 0 2.508-.722 4.1 4.1 0 0 0 1.58-2.094M109.679 22.735v3.435H95.805v-.035h-1.717V2.095h15.145V5.53h-11.71V12.5h8.722v3.435h-8.723v6.8zM89.988 2.096v24.04h-3.434V8.448l-7.865 8.689-7.864-8.689v17.686H67.39V2.095h2.266l9.032 9.96 9.032-9.96zM31.454 5.495v6.56h29.843v3.433H31.454V22.7h32.865v3.434h-36.3V2.094h1.718v-.033H64.56v3.434zM23.92 2.096v24.04h-3.435V8.448l-7.864 8.689-7.865-8.689v17.686H1.322V2.095H3.59l9.032 9.96 9.032-9.96z"/><path fill="#000" d="M61.725 47.317q0-2.471-.79-4.808a11.6 11.6 0 0 0-1.477-2.85 9.4 9.4 0 0 0-2.164-2.3 9.3 9.3 0 0 0-2.85-1.546q-1.614-.55-3.572-.55h-9.238v24.04h9.238q1.958 0 3.572-.55a9.7 9.7 0 0 0 2.85-1.51 10.3 10.3 0 0 0 2.164-2.302 12.5 12.5 0 0 0 1.477-2.85q.79-2.335.79-4.774m-1.178 8.374a11.6 11.6 0 0 1-2.437 2.592l-.004.003a11 11 0 0 1-3.236 1.719c-1.232.419-2.569.62-3.998.62h-10.56V33.94h10.56c1.43 0 2.766.201 3.998.62 1.205.41 2.288.993 3.238 1.755a10.7 10.7 0 0 1 2.439 2.593q1.028 1.453 1.633 3.158l.004.01.003.009a16.23 16.23 0 0 1 0 10.428l-.005.015-.005.014a13.8 13.8 0 0 1-1.63 3.148m-2.222-8.374q0 1.855-.619 3.606a9.3 9.3 0 0 1-.995 1.958 7.4 7.4 0 0 1-1.477 1.58q-.824.652-1.923 1.064-1.1.378-2.439.378H45.07v-17.24h5.803q1.34 0 2.404.412a6.5 6.5 0 0 1 1.958 1.065 6.5 6.5 0 0 1 1.477 1.58q.618.892.995 1.923.62 1.785.619 3.674M46.39 39.985V54.58h4.482c.761 0 1.42-.106 1.992-.3a5.8 5.8 0 0 0 1.547-.855 6.1 6.1 0 0 0 1.206-1.288 8 8 0 0 0 .846-1.662q.54-1.535.54-3.159 0-1.66-.542-3.23a7.2 7.2 0 0 0-.837-1.615l-.007-.01-.006-.01a5.2 5.2 0 0 0-1.177-1.26l-.013-.01-.013-.01a5.2 5.2 0 0 0-1.561-.847l-.024-.008-.024-.01c-.533-.206-1.17-.322-1.927-.322z"/><path fill="#000" d="m39.42 59.303-9.89-24.04h-2.164l-9.89 24.04h3.674l2.232-5.392h10.13l2.233 5.392zm-6.79-4.07 2.232 5.392h6.531L30.415 33.94H26.48L15.502 60.625h6.531l2.232-5.392zm-.525-4.756H24.79l3.675-8.895zm-1.97-1.322-1.676-4.097-1.693 4.097zM19.145 43.61q0-1.684-.583-3.298a8.5 8.5 0 0 0-1.065-1.957 6.5 6.5 0 0 0-1.58-1.58 7.1 7.1 0 0 0-2.129-1.064q-1.167-.413-2.61-.413H1.322v24.006h3.434V51.92h6.525q1.408 0 2.576-.378a8 8 0 0 0 2.06-1.064 7.4 7.4 0 0 0 1.58-1.58 9.3 9.3 0 0 0 1.065-1.992 9.6 9.6 0 0 0 .583-3.297M6.078 53.241v7.383H0V33.977h11.178c1.079 0 2.093.153 3.028.48a8.5 8.5 0 0 1 2.485 1.246 7.8 7.8 0 0 1 1.88 1.881q.753 1.035 1.223 2.251l.006.014.005.014q.661 1.827.662 3.746c0 1.278-.222 2.53-.662 3.747l-.005.014-.006.013q-.47 1.215-1.216 2.276l-.007.01-.007.009a8.7 8.7 0 0 1-1.86 1.862l-.007.005c-.71.52-1.515.931-2.4 1.244l-.017.005-.016.006c-.928.3-1.926.442-2.983.442zm9.29-11.728q.789 2.095 0 4.19a4.1 4.1 0 0 1-1.58 2.095 4.22 4.22 0 0 1-2.507.721H4.756v-9.787h6.422q1.649 0 2.679.79a4.3 4.3 0 0 1 1.51 1.991m-9.29-1.46h5.1c.888 0 1.474.21 1.874.517l.009.007.008.006c.512.38.854.838 1.06 1.39l.002.007c.413 1.096.413 2.16 0 3.257l-.007.019-.007.02a2.8 2.8 0 0 1-1.074 1.43 2.9 2.9 0 0 1-1.729.492H6.078zM111.001 21.413v6.078H94.483v-.034h-1.717V.773h17.788v6.078h-11.71v4.328h8.722v6.078h-8.722v4.156zm-13.48-5.478h8.724v-3.434h-8.723V5.529h11.71V2.095H94.088v24.04h1.717v.034h13.874v-3.434H97.522zM91.31.773v26.684H85.23V11.879l-6.542 7.228-6.543-7.228v15.578h-6.078V.773h4.175l8.446 9.314L87.135.773zM78.688 12.055l-9.032-9.96H67.39v24.04h3.434V8.449l7.865 8.688 7.864-8.688v17.686h3.434V2.095h-2.266zM62.619 10.732v6.078H32.774v4.568h32.866v6.078H26.697V.773h1.717V.738h37.467v6.078H32.775v3.916zM31.452 5.494H64.56V2.06H29.736v.034H28.02v24.04h36.3V22.7H31.453v-7.212h29.844v-3.434H31.453zM25.24.773v26.684h-6.077V11.879l-6.543 7.228-6.542-7.228v15.578H0V.773h4.174l8.446 9.314L21.067.773zM12.62 12.055l-9.032-9.96H1.322v24.04h3.434V8.449l7.864 8.688 7.865-8.688v17.686h3.434V2.095h-2.267z"/></svg>