<svg  viewBox="0 0 26 46" fill="none" xmlns="http://www.w3.org/2000/svg">
<path opacity="0.4" d="M0.83 5.28C1.57 4.66 2.37 4.08 3.23 3.54C4.11 3 5.05 2.53 6.05 2.13C7.05 1.71 8.12 1.39 9.26 1.17C10.42 0.929998 11.67 0.809999 13.01 0.809999C14.89 0.809999 16.58 1.06 18.08 1.56C19.6 2.06 20.89 2.78 21.95 3.72C23.01 4.64 23.82 5.76 24.38 7.08C24.96 8.38 25.25 9.83 25.25 11.43C25.25 12.95 25.04 14.27 24.62 15.39C24.2 16.49 23.67 17.45 23.03 18.27C22.39 19.09 21.68 19.8 20.9 20.4C20.14 21 19.41 21.56 18.71 22.08C18.03 22.58 17.43 23.08 16.91 23.58C16.41 24.08 16.09 24.64 15.95 25.26L15.11 29.46H8.75L8.09 24.63C7.93 23.65 8.03 22.8 8.39 22.08C8.75 21.34 9.24 20.68 9.86 20.1C10.5 19.5 11.21 18.94 11.99 18.42C12.77 17.88 13.5 17.31 14.18 16.71C14.86 16.09 15.43 15.41 15.89 14.67C16.37 13.91 16.61 13.01 16.61 11.97C16.61 10.77 16.21 9.82 15.41 9.12C14.63 8.4 13.55 8.04 12.17 8.04C11.11 8.04 10.22 8.15 9.5 8.37C8.8 8.59 8.19 8.84 7.67 9.12C7.17 9.38 6.73 9.62 6.35 9.84C5.97 10.06 5.59 10.17 5.21 10.17C4.35 10.17 3.71 9.8 3.29 9.06L0.83 5.28ZM6.35 40.29C6.35 39.57 6.48 38.9 6.74 38.28C7.02 37.66 7.39 37.12 7.85 36.66C8.33 36.2 8.89 35.84 9.53 35.58C10.17 35.3 10.87 35.16 11.63 35.16C12.37 35.16 13.06 35.3 13.7 35.58C14.34 35.84 14.9 36.2 15.38 36.66C15.86 37.12 16.23 37.66 16.49 38.28C16.77 38.9 16.91 39.57 16.91 40.29C16.91 41.01 16.77 41.69 16.49 42.33C16.23 42.95 15.86 43.49 15.38 43.95C14.9 44.41 14.34 44.77 13.7 45.03C13.06 45.29 12.37 45.42 11.63 45.42C10.87 45.42 10.17 45.29 9.53 45.03C8.89 44.77 8.33 44.41 7.85 43.95C7.39 43.49 7.02 42.95 6.74 42.33C6.48 41.69 6.35 41.01 6.35 40.29Z" fill="black"/>
</svg>
