<svg width="81" height="81" viewBox="0 0 81 81" fill="none" xmlns="http://www.w3.org/2000/svg">
<path fillRule="evenodd" clipRule="evenodd" d="M20.6253 59.9424C31.4543 70.9992 49.1962 71.1838 60.253 60.3547C71.3097 49.5257 71.4943 31.7838 60.6653 20.727C49.8363 9.6703 32.0944 9.48569 21.0376 20.3147C9.98086 31.1437 9.79625 48.8857 20.6253 59.9424ZM43.5805 46.7414L43.5775 46.7384C44.7213 50.6788 42.1514 55.5881 37.3902 59.7751L36.6963 56.8869L35.0889 50.1796L34.2209 46.5627L31.9395 45.9699L31.8655 45.9543L30.6346 45.6316L30.6699 45.6676C29.9241 45.487 29.3027 45.3197 28.9184 45.1848L21.1599 43.1676C22.3675 41.8556 23.6328 40.7162 24.911 39.7877C27.2464 38.0881 29.6317 37.0803 31.8336 36.9751C32.7001 36.9317 33.5356 37.0302 34.3312 37.2796C36.4578 35.0675 38.6844 33.2629 40.8772 31.9029C43.3564 30.3682 45.7859 29.3994 47.9752 29.0479C48.2217 29.0121 48.4653 28.9793 48.7027 28.9583C49.9141 28.8358 51.0434 28.917 52.0462 29.2103C53.2673 33.7745 50.1236 40.7269 43.5805 46.7414ZM41.8045 36.4786L44.3637 39.0916L46.6447 36.8575L44.0856 34.2445L41.8045 36.4786Z" fill="#8D7CEE"/>
<circle cx="40.6459" cy="40.3365" r="24.8582" transform="rotate(45.5961 40.6459 40.3365)" stroke="#1E1E1E" strokeWidth="2"/>
</svg>
