<svg width="437" height="98" viewBox="0 0 437 98" fill="none" xmlns="http://www.w3.org/2000/svg">
<g filter="url(#filter0_d_5017_38118)">
<mask id="path-1-outside-1_5017_38118" maskUnits="userSpaceOnUse" x="0" y="0.316406" width="428" height="86" fill="black">
<rect fill="white" y="0.316406" width="428" height="86"/>
<path fillRule="evenodd" clipRule="evenodd" d="M419.567 3.31641L389.948 22.2986L423 43.4811V44.9597L389.948 66.1423L416.745 83.3164H3V3.31641H419.567Z"/>
</mask>
<path fillRule="evenodd" clipRule="evenodd" d="M419.567 3.31641L389.948 22.2986L423 43.4811V44.9597L389.948 66.1423L416.745 83.3164H3V3.31641H419.567Z" fill="#7A64F4"/>
<path d="M389.948 22.2986L388.624 20.2314L385.398 22.2986L388.624 24.3657L389.948 22.2986ZM419.567 3.31641L420.891 5.38353L427.948 0.861182H419.567V3.31641ZM423 43.4811H425.455V42.1385L424.325 41.414L423 43.4811ZM423 44.9597L424.325 47.0268L425.455 46.3024V44.9597H423ZM389.948 66.1423L388.624 64.0752L385.398 66.1423L388.624 68.2094L389.948 66.1423ZM416.745 83.3164V85.7716H425.127L418.07 81.2493L416.745 83.3164ZM3 83.3164H0.544775V85.7716H3V83.3164ZM3 3.31641V0.861182H0.544775V3.31641H3ZM391.273 24.3657L420.891 5.38353L418.242 1.24928L388.624 20.2314L391.273 24.3657ZM424.325 41.414L391.273 20.2314L388.624 24.3657L421.675 45.5483L424.325 41.414ZM425.455 44.9597V43.4811H420.545V44.9597H425.455ZM391.273 68.2094L424.325 47.0268L421.675 42.8926L388.624 64.0752L391.273 68.2094ZM418.07 81.2493L391.273 64.0752L388.624 68.2094L415.421 85.3835L418.07 81.2493ZM3 85.7716H416.745V80.8612H3V85.7716ZM0.544775 3.31641V83.3164H5.45522V3.31641H0.544775ZM419.567 0.861182H3V5.77163H419.567V0.861182Z" fill="#6A6A6A" mask="url(#path-1-outside-1_5017_38118)"/>
</g>
<defs>
<filter id="filter0_d_5017_38118" x="0.544922" y="0.859375" width="436.402" height="96.9141" filterUnits="userSpaceOnUse" color-interpolation-filters="sRGB">
<feFlood flood-opacity="0" result="BackgroundImageFix"/>
<feColorMatrix in="SourceAlpha" type="matrix" values="0 0 0 0 0 0 0 0 0 0 0 0 0 0 0 0 0 0 127 0" result="hardAlpha"/>
<feOffset dx="9" dy="12"/>
<feComposite in2="hardAlpha" operator="out"/>
<feColorMatrix type="matrix" values="0 0 0 0 0 0 0 0 0 0 0 0 0 0 0 0 0 0 1 0"/>
<feBlend mode="normal" in2="BackgroundImageFix" result="effect1_dropShadow_5017_38118"/>
<feBlend mode="normal" in="SourceGraphic" in2="effect1_dropShadow_5017_38118" result="shape"/>
</filter>
</defs>
</svg>
