<svg xmlns="http://www.w3.org/2000/svg" width="39" height="39" fill="none"><path fill="#000" d="M19.643.932c-10.35 0-18.75 8.4-18.75 18.75s8.4 18.75 18.75 18.75 18.75-8.4 18.75-18.75-8.4-18.75-18.75-18.75m8.7 12.75c-.282 2.962-1.5 10.162-2.12 13.48-.262 1.407-.787 1.876-1.274 1.932-1.088.094-1.913-.712-2.963-1.406-1.65-1.088-2.587-1.763-4.18-2.813-1.857-1.218-.657-1.893.412-2.98.28-.282 5.08-4.65 5.175-5.045a.38.38 0 0 0-.094-.337c-.113-.094-.263-.056-.394-.038-.169.038-2.794 1.782-7.912 5.232-.75.506-1.425.768-2.025.75-.675-.02-1.95-.375-2.907-.694-1.18-.375-2.1-.581-2.025-1.238.038-.337.507-.675 1.388-1.03 5.475-2.382 9.112-3.957 10.931-4.707 5.213-2.175 6.281-2.55 6.994-2.55.15 0 .506.037.731.225.188.15.244.356.263.506-.02.113.018.45 0 .713"/></svg>