<svg xmlns="http://www.w3.org/2000/svg" width="39" height="38" fill="none"><path fill="#fff" d="M19.5.002C9.15.002.75 8.402.75 18.752s8.4 18.75 18.75 18.75 18.75-8.4 18.75-18.75S29.85.002 19.5.002m8.7 12.75c-.281 2.962-1.5 10.163-2.119 13.481-.262 1.407-.787 1.875-1.275 1.931-1.087.094-1.912-.712-2.962-1.406-1.65-1.087-2.588-1.762-4.181-2.812-1.857-1.219-.657-1.894.412-2.982.281-.28 5.081-4.65 5.175-5.043a.38.38 0 0 0-.094-.338c-.112-.094-.262-.056-.393-.037-.17.037-2.794 1.781-7.913 5.231-.75.506-1.425.769-2.025.75-.675-.019-1.95-.375-2.906-.694-1.181-.375-2.1-.581-2.025-1.237.037-.338.506-.675 1.387-1.032 5.475-2.38 9.113-3.956 10.931-4.706 5.213-2.175 6.282-2.55 6.994-2.55.15 0 .506.038.732.225.187.15.243.357.262.507-.019.112.019.45 0 .712"/></svg>